<svg xmlns="http://www.w3.org/2000/svg" width="24" height="24" viewBox="357.1 4.9 24 24" enable-background="new 357.1 4.9 24 24"><path fill="#ccc" d="M378.6 9.2H374V7.4c0-1.4-1.1-2.5-2.5-2.5h-4.9c-1.4 0-2.5 1.1-2.5 2.5v1.9h-4.6c-1.4 0-2.5 1.1-2.5 2.5v14.6c0 1.4 1.1 2.5 2.5 2.5h19c1.4 0 2.5-1.1 2.5-2.5V11.7c.1-1.3-1-2.5-2.4-2.5zm-12.9-1.8c0-.5.5-1 1-1h4.9c.5 0 1 .5 1 1v1.9h-6.9V7.4zm-3.2 20H361V10.7h1.5v16.7zm7-2h-.8c-.4 0-.7-.3-.7-.7s.3-.7.7-.7h.8c.4 0 .7.3.7.7s-.3.7-.7.7zm7.8 2h-1.5V10.7h1.5v16.7z"/></svg>