<svg xmlns="http://www.w3.org/2000/svg" width="24" height="24" viewBox="357.1 4.9 24 24" enable-background="new 357.1 4.9 24 24"><g fill="#ccc"><path d="M368 7.7h.6l-.3-.8zM375.1 5.5c0-.3-.3-.6-.6-.6h-10.7c-.3 0-.6.3-.6.6V10h12V5.5zm-10.3 3h-.5V6.4h.5v2.1zm1.5.1c-.6 0-1.1-.5-1.1-1.1 0-.7.5-1.1 1.1-1.1.5 0 .7.1.8.2l-.1.3c-.1 0-.3-.1-.6-.1s-.7.3-.7.8c0 .4.4.8.7.8.3 0 .5-.1.6-.1l.1.3c-.2-.1-.4 0-.8 0zm2.6-.1l-.2-.5h-.8l-.2.5h-.4l.9-2.2h.3l.8 2.2h-.4zm2.2 0h-1.4V6.4h1.4v.3h-.9v.5h.7v.3h-.7v.6h.9v.4zm2.2 0h-.3l-.4-1.1-.4 1.1h-.2l-.7-2.2h.5l.5 1.5.3-.9-.2-.6h.5l.4 1.4.5-1.4h.4l-.9 2.2zM375.1 18.3v-8h-12v18.6c12.4 0 12-8.8 12-10.6zM366 28.7v-.2c2.5-1.3 3.4-2.7 3.4-2.7l.3.8c-1 1-2.9 2-3.2 2.1-.1-.1-.3 0-.5 0zm.9-2.4c.9-1.2 1.1-2.2 1.1-2.2.1-.4 0-.8-.1-1.1-.1-.2-1.1-2.9-1.1-2.9 0-.1.3-.5.3-.5l1.8 4.7c-.3.8-1.5 2.6-2.8 3.9.1-.8.5-1.4.8-1.9zm-.4-7.1l.3-.5.2.6c0 .1-.3.5-.3.5l-.2-.6zm2.5 5.4l.3.9s-.9 1.5-3.3 3v-.2c.1-.1 2.3-2 3-3.7zm-2 3.9c2.1-.8 2.9-1.7 2.9-1.7l.3.7c-.8.4-1.7.7-3.2 1zm6.8-11.5l-1.2 2.8c.1.1.1.2.1.3 0 .2-.2.4-.4.4s-.4-.2-.4-.5c0-.1.1-.3.2-.3v-.4s-.5-.1-1.9-1.1c-.1-.1-.1-.2-.1-.3v-.2c0-.1-.1-.2-.2-.2-.2 0-.2.3-.2.5 0 .3.5 1.2.5 3.2s-.4 4.2-.4 4.2l-1.1-3.3.2-.2.3.9s.1-.1.1-.2-.3-1-.4-1.1h-.1l-.2.2-.4-1 .2-.2.3.9s.1-.1.1-.2-.3-1-.4-1.1h-.1l-.2.2-.5-1.5s.2-.7 1.2-1.2c.1 0 .3-.1.2-.2 0-.2-.2-.1-.4-.1-.1.1-.6.4-.8.3-.1-.1 0-.2 0-.4 0-.1-.1-.5-.3-.4-.2 0-.2.2-.2.2l-.4.7s-.1.2-.3.2c-.5 0-1.5-.5-1.5-.5.5 2.4.6 3 1 5.4l-1.3-5.5h-.1s-.2 0-.3-.4c0-.1.1-.2.2-.2h.1l-.1-.7s0-.2.1-.2h.1s.1.2.2.2l.1.7s.1.2.2.2 1.1.3 1.2.3c.1 0 .3 0 .5-.4.2-.3.3-.7.4-1 .1-.4.1-.8.5-1.1.1-.1.2-.1.2-.1v.1c-.1.1-.1.2-.1.3 0 .2.1.7.9.7.3 0 .6-.1.6-.4 0-.1 0-.3-.6-.7-.1 0-.1-.1.1-.3.1-.1.2-.1.2-.3 0-.2-.4-.9-.3-1.1.1-.2.3-.2.3-.5s-.3-.4-.5-.4-.4.1-.4.2 0 .2-.1.2-.2-.1-.2-.5c0 0 0-.4.4-.6.2-.1.2-.1.3-.2.1-.1.2-.1.3-.1h.4c.1 0 .4.1.5.4.1.2 0 .3 0 .6 0 .1.1.3.1.4 0 .4-.3.6-.5.9-.2.2-.2.4-.2.4s0 .8 1 1c.2 0 .4.3.4.7 0 .6-.1 1.4-.1 1.4s0 .6.3.8l1.2.8-.2-2.3v-.6l.1.6.2 2.4h.1c.1 0 .2.1.2.2 0 .3-.2.3-.2.3v.3h.1l1.2-2.8.3-.5-.1 1z"/><ellipse transform="matrix(.067 -.998 .998 .067 327.119 390.328)" cx="372.3" cy="20.2" rx=".2" ry=".1"/></g></svg>