<svg xmlns="http://www.w3.org/2000/svg" xmlns:xlink="http://www.w3.org/1999/xlink" width="24" height="24" viewBox="357.1 4.9 24 24" enable-background="new 357.1 4.9 24 24"><defs><path id="a" d="M376.5 22.7c-3.2-1.2-4.2-2.1-4.2-4.2 0-1.2.9-.9 1.4-3.3.2-.9.9 0 1.2-2.3 0-.9-.7-1.2-.7-1.2s.2-1.4.2-2.3c0-1.2-1.2-4.4-5.5-4.4s-5.1 3.5-4.8 4.7c0 .9.2 2.3.2 2.3s-.7.2-.7 1.2c0 2.3.9 1.2 1.2 2.3.7 2.3 1.4 1.9 1.4 3.3 0 2.1-.9 3.3-4.2 4.2-3.2.9-4.8 2.3-4.8 3.3v2.6h24v-2.6c.1-1.2-1.7-2.4-4.7-3.6z"/></defs><clipPath id="b"><use xlink:href="#a" overflow="visible"/></clipPath><g clip-path="url(#b)"><defs><path id="c" d="M-27.2-433.7h1219.8v4524.9H-27.2z"/></defs><clipPath id="d"><use xlink:href="#c" overflow="visible"/></clipPath><path clip-path="url(#d)" fill="#ccc" d="M353.3 1.1H385v31.5h-31.7z"/></g></svg>