<svg xmlns="http://www.w3.org/2000/svg" xmlns:xlink="http://www.w3.org/1999/xlink" width="24" height="24" viewBox="357.1 4.9 24 24" enable-background="new 357.1 4.9 24 24"><defs><path id="a" d="M369.3 11.4h-2.2c-.1 0-.2-.1-.2-.2v-.9c0-.1.1-.2.2-.2h2.2c.1 0 .2.1.2.2v.9c0 .1-.1.2-.2.2zm-9.7 17.5c-1.4 0-2.5-1.1-2.5-2.5v-19c0-1.4 1.1-2.5 2.5-2.5h19c1.4 0 2.5 1.1 2.5 2.5v19c0 1.4-1.1 2.5-2.5 2.5h-19zm9.7-16c.9 0 1.6-.6 1.7-1.4h5.2c.4 0 .8-.3.8-.8 0-.4-.3-.8-.8-.8H371c-.1-.8-.9-1.4-1.7-1.4h-2.2c-.9 0-1.6.6-1.7 1.4h-3.3c-.4 0-.8.3-.8.8 0 .4.3.8.8.8h3.3c.1.8.9 1.4 1.7 1.4h2.2zm5.9 6.2c1 0 1.8-.8 1.8-1.7v-.9c0-1-.8-1.7-1.8-1.7H373c-.9 0-1.6.6-1.7 1.4h-9.2c-.4 0-.8.3-.8.8s.3.8.8.8h9.2c.1.8.9 1.4 1.7 1.4h2.2zm-8 6.1c.9 0 1.6-.6 1.7-1.4h7.3c.4 0 .8-.3.8-.7 0-.4-.3-.8-.8-.8h-7.3c-.1-.8-.9-1.4-1.7-1.4H365c-.9 0-1.6.6-1.7 1.4h-1.2c-.4 0-.8.3-.8.8 0 .4.3.7.8.7h1.2c.1.8.9 1.4 1.7 1.4h2.2zm8.2-7.9v-.9c0-.1-.1-.2-.2-.2H373c-.1 0-.2.1-.2.2v.9c0 .1.1.2.2.2h2.2c.1.1.2 0 .2-.2zm-8 6.2v-.9c0-.1-.1-.2-.2-.2H365c-.1 0-.2.1-.2.2v.9c0 .1.1.2.2.2h2.2c.1 0 .2-.1.2-.2z"/></defs><clipPath id="b"><use xlink:href="#a" overflow="visible"/></clipPath><g clip-path="url(#b)"><defs><path id="c" d="M-488.9-420.4h1185v4395.8h-1185z"/></defs><clipPath id="d"><use xlink:href="#c" overflow="visible"/></clipPath><path clip-path="url(#d)" fill="#ccc" d="M353.4 1.1h31.5v31.5h-31.5z"/></g></svg>