<svg xmlns="http://www.w3.org/2000/svg" viewBox="0 154.3 595.3 533.4" enable-background="new 0 154.3 595.3 533.4" width="12" height="12"><path fill="#fff" d="M534.2 154.3H61.1c-33.7 0-61.1 27.3-61.1 61s27.4 61.1 61.1 61.1h473c33.7 0 61.1-27.4 61.1-61.1.1-33.5-27.3-61-61-61zM534.2 359.9H61.1c-33.7 0-61.1 27.4-61.1 61S27.4 482 61.1 482h473c33.7 0 61.1-27.4 61.1-61.1.1-33.6-27.3-61-61-61zM534.2 565.4H61.1C27.4 565.4 0 592.7 0 626.6s27.4 61.1 61.1 61.1h473c33.7 0 61.1-27.4 61.1-61.1.1-33.7-27.3-61.2-61-61.2z"/></svg>