<svg xmlns="http://www.w3.org/2000/svg" viewBox="0 123.3 595.3 595.3" enable-background="new 0 123.3 595.3 595.3" width="20" height="20"><path fill="#4D4D4D" d="M590.6 428.1c-5.7 9.2-15.6 14.2-25.6 14.2-5.5 0-11-1.4-16-4.6L297.6 220.4 46.2 437.8c-14.2 8.8-32.9 4.5-41.7-9.6s-4.5-32.7 9.6-41.7l267.4-227.4c9.8-6.1 22.3-6.1 32 0L581 386.5c14.3 8.9 18.6 27.5 9.6 41.6zm-97.2 16.4L313.6 286.8c-9.8-6.1-22.3-6.1-32 0L101.8 444.5c-8.8 5.5-14.2 15.2-14.2 25.6v187c0 16.7 13.6 30.2 30.2 30.2h69.1c16.7 0 30.2-13.6 30.2-30.2V556.8c0-27.7 52.9-50.4 80.6-50.4s80.6 22.6 80.6 50.4V657c0 16.7 13.6 30.2 30.2 30.2h68.8c16.7 0 30.2-13.6 30.2-30.2V470c.2-10.3-5.2-20.1-14.1-25.5z"/></svg>