<svg xmlns="http://www.w3.org/2000/svg" viewBox="0 123.2 595.3 595.3" enable-background="new 0 123.2 595.3 595.3" width="28" height="28"><path d="M575.9 615.6L474.4 512.4c-3.6-3.6-8.2-5.6-13.1-5.6-6 0-11.4 2.9-15 7.9-15.4 21.1-33.8 39.5-54.9 54.9-4.5 3.3-7.4 8.2-7.7 13.6-.4 5.4 1.5 10.6 5.5 14.5l101.4 103.2c11.4 11.4 26.5 17.6 42.6 17.6s31.3-6.3 42.6-17.7c23.6-23.4 23.6-61.6.1-85.2zM239.4 602c132 0 239.4-107.4 239.4-239.4S371.3 123.3 239.4 123.3 0 230.7 0 362.7 107.4 602 239.4 602zm0-406.9c92.4 0 167.5 75.1 167.5 167.5s-75.1 167.5-167.5 167.5-167.6-75-167.6-167.4S147 195.1 239.4 195.1z"/></svg>