<svg xmlns="http://www.w3.org/2000/svg" viewBox="0 0 500 500" enable-background="new 0 0 500 500" width="22" height="22"><g fill="#fff"><path d="M483.7 413.5l-85.2-86.7c-3-3-6.9-4.7-11-4.7-5 0-9.6 2.4-12.6 6.6-12.9 17.7-28.4 33.2-46.1 46.1-3.8 2.8-6.2 6.9-6.5 11.4-.3 4.5 1.3 8.9 4.6 12.2l85.2 86.7c9.6 9.6 22.3 14.8 35.8 14.8 13.5 0 26.3-5.3 35.8-14.9 19.8-19.6 19.8-51.7 0-71.5zM201.1 402.1c110.9 0 201.1-90.2 201.1-201.1S311.9 0 201.1 0 0 90.2 0 201.1s90.2 201 201.1 201zm0-341.8c77.6 0 140.7 63.1 140.7 140.7s-63.1 140.7-140.7 140.7-140.8-63-140.8-140.6S123.5 60.3 201.1 60.3z"/></g></svg>