<svg xmlns="http://www.w3.org/2000/svg" width="22" height="22" viewBox="0 0 22 22"><path fill="#fff" d="M15.9 10.8c-3.1 0-5.6 2.5-5.6 5.6s2.5 5.6 5.6 5.6 5.6-2.5 5.6-5.6-2.5-5.6-5.6-5.6zm2 6.8c.2.2.2.5 0 .8-.1.1-.3.2-.4.2-.2 0-.3-.1-.4-.2l-1.3-1.3-1.3 1.3c-.1.1-.3.2-.4.2-.2 0-.3-.1-.4-.2-.2-.2-.2-.5 0-.8l1.3-1.3-1.3-1.3c-.2-.2-.2-.5 0-.8.1-.1.3-.2.4-.2.1 0 .3.1.4.2l1.3 1.3 1.3-1.3c.1-.1.3-.2.4-.2.2 0 .3.1.4.2.2.2.2.5 0 .8l-1.3 1.3 1.3 1.3zM8.5 16.4c0-3.3 2.2-6.1 5.1-7.1.1-.3.3-.6.4-1.1.2-.8.8 0 1-1.8 0-.7-.4-.9-.4-.9s.2-1.1.3-1.9C15 2.6 14 0 10.4 0S5.7 2.6 5.8 3.6c.1.8.3 1.9.3 1.9s-.4.2-.4.9c.1 1.8.8 1 1 1.8.4 1.9 1.2 1.5 1.2 2.6 0 1.7-.8 2.5-3.4 3.4-2.6.9-4 1.9-4 2.6v2.3h8.7c-.5-.8-.7-1.7-.7-2.7z"/></svg>