<svg xmlns="http://www.w3.org/2000/svg" width="2500" height="1247" viewBox="-25.288 -25.069 994.252 495.812"><path d="M406.638 355.934l-9.722 1.852-9.722 3.704-7.407 5.555c-2.778 3.704-2.778 7.407-2.778 7.407l2.315 6.019c1.852 2.777 6.018 2.777 6.018 2.777l7.87-2.314 2.778-5.092-1.853-10.186 5.093-2.777 7.407-.926 8.796 2.314 4.629 5.093 1.853 5.092.926 4.167v7.407l-16.203 5.555-15.74 5.093-6.944 3.24-5.556 4.167c-2.777 2.777-4.166 6.019-4.166 6.019l-1.389 8.332c0 8.333 6.481 13.889 6.481 13.889 6.018 5.556 15.739 5.556 15.739 5.556l11.574-1.853 3.703-1.389 12.5-8.333c1.389 5.556 5.555 7.87 5.555 7.87 3.704 3.241 10.648 3.241 10.648 3.241l6.943-.927 6.944-2.314v-4.629h-5.555l-4.167-1.389-3.703-2.778-1.389-5.092.926-38.888-2.314-12.499-6.944-7.87-9.723-4.167-13.423-.926zm16.204 36.572l-.463 27.314-7.87 6.48-7.87 2.778h-3.241c-6.018 0-9.259-3.241-9.259-3.241-3.703-3.24-3.703-9.722-3.703-9.722 0-4.629 2.314-8.333 2.314-8.333l6.944-6.481 10.185-4.629 12.963-4.166zM453.395 358.248h38.888v5.556l-6.019.926s-3.703.926-3.703 2.314l.463 1.39 21.295 46.294 20.37-45.368-3.704-3.704-7.87-2.314v-5.093h31.48v5.093l-6.481 2.314s-4.629 2.778-6.481 6.944l-18.055 39.351-22.221 43.517-8.333 9.722-6.944 4.629-6.944.926s-6.019 0-10.185-3.24c0 0-3.703-2.314-3.703-6.481l1.852-6.018s2.777-2.778 6.481-2.778l4.629.926 3.241 2.315 5.092 6.481 10.647-10.65s8.796-13.425 5.556-24.072l-25.462-55.554-6.019-5.556-7.87-2.777v-5.093M320.994 356.396l-11.111 2.778-11.11 7.869h-.926v-8.796l-1.389-.926-28.702 1.853v5.092l5.555.926 4.167 1.389 3.24 3.241 1.389 4.629v82.404l-.926 4.63-3.703 2.777-4.63.926h-5.092v5.555h47.683v-5.555l-12.499-1.852-3.241-2.778-1.852-4.629v-23.147h.926l8.333 3.24 12.5 1.853h1.389l13.888-2.778 12.5-8.796 9.259-12.499 3.24-17.129-2.777-16.203c-3.24-7.87-8.333-12.963-8.333-12.963-4.166-5.092-11.11-8.332-11.11-8.332l-14.352-2.778h-2.316zm-.463 11.563c.304.001.463.011.463.011 11.11.927 17.592 9.723 17.592 9.723 5.555 7.406 5.092 18.518 5.092 18.518 0 11.11-6.018 18.98-6.018 18.98-6.019 8.796-16.666 10.185-16.666 10.185-10.185.926-23.147-6.019-23.147-6.019v-45.831c11.341-5.266 20.557-5.574 22.684-5.567zM100.633 322.602l-40.276 93.515-3.703 6.481-5.556 4.63-5.555 2.314-5.556.463v5.555h46.294v-5.555l-12.036-1.852c-6.019-1.853-6.019-5.093-6.019-5.093l.463-3.24 8.333-23.147h43.054l10.185 25.462.464 1.852v1.852c0 1.853-4.167 2.315-4.167 2.315l-11.11 1.852v5.555h50.924v-5.555l-5.093-.463-5.556-1.852-4.166-4.167c-2.314-1.389-3.24-4.63-3.24-4.63l-40.739-96.292h-6.945zm-2.315 24.536h.463l18.055 43.054H80.263l18.055-43.054zM232.571 347.138s-4.629 0-7.406-3.24c0 0-3.241-2.778-3.241-7.407 0 0 0-3.704 3.241-7.407 0 0 3.24-3.24 7.406-3.24 0 0 5.093 0 8.333 3.24l2.778 6.944-2.778 7.87c0-.001-3.24 3.24-8.333 3.24M247.848 358.712v62.96l1.389 4.629 3.704 2.315 7.87 1.852v5.092h-41.202v-5.092l7.407-.926 3.703-2.314 1.389-4.63v-47.684l-1.389-5.092-3.703-3.241-4.63-1.389-5.555-.926v-5.092l30.091-1.853.926 1.391M194.61 313.806l-30.092 1.852-1.852.463v4.63h1.852l4.63.926 5.556 1.852 3.703 3.704 1.389 5.555V422.6l-1.389 4.63-3.703 2.314-7.87.926v5.092h41.665v-5.092l-4.167-.463-3.703-1.389-3.704-2.315-.926-4.629v-106.48l-1.389-1.388M757.087 359.175l28.702-1.853 1.389 1.39v10.647h.463l5.093-4.63 6.019-4.166s2.777-1.852 7.407-3.241l9.722-.926 14.352 3.704 8.795 9.722 5.093-4.63 6.481-4.166s3.24-2.314 7.407-3.704l10.185-.926s11.11 0 17.129 6.481c0 0 6.481 6.481 6.481 19.443v39.351l.926 4.629 3.24 2.778 4.167.926 4.629.463v5.092H863.1v-5.092l7.407-.926 3.703-2.314.927-4.63v-39.813s0-8.333-3.704-12.962c0 0-4.166-4.167-10.185-4.167l-8.333.926-6.944 3.241-4.166 3.703-2.315 3.704v44.442l.927 4.629 3.703 2.778 3.704.926 4.166.463v5.092h-40.739v-5.092l6.944-.926 3.703-2.314.926-4.63v-39.813s0-8.333-3.703-12.962c0 0-3.703-4.167-10.185-4.167l-7.87.926-6.944 3.241-4.166 4.166-2.778 3.241v44.442l.926 4.629 3.704 2.315 3.703 1.389 4.167.463v5.092h-41.202v-5.092l7.87-.926 3.703-2.314.926-4.63v-48.146l-1.389-4.629-3.24-3.241-4.166-1.389-5.093-.926v-5.091M590.427 399.913s0 15.74 7.869 24.999c0 0 7.407 9.722 19.907 9.722l15.276-4.166 11.574-11.574 5.555 3.704s-5.555 9.259-15.739 15.277c0 0-9.722 5.555-21.296 5.555 0 0-19.443 0-31.018-11.573 0 0-11.573-11.573-11.573-31.48 0 0 0-7.87 3.241-15.74 0 0 2.777-7.406 8.795-13.888 0 0 5.556-5.556 13.889-9.259 0 0 8.796-3.704 18.055-3.704 0 0 13.426 0 22.222 5.556 0 0 8.333 6.481 8.333 15.74l-2.314 7.407-6.944 2.777-8.796-2.314s-3.241-1.853-3.241-5.093l1.39-7.407 1.389-6.018-5.093-3.241-7.407-.926-8.333 1.389-7.87 6.481-5.555 11.11c-.001 0-2.316 6.944-2.316 16.666M702.922 357.785c-19.906.463-32.405 12.037-32.405 12.037-12.037 12.036-12.037 31.017-12.037 31.017 0 10.648 3.241 18.055 3.241 18.055l9.722 13.889c6.481 5.556 14.351 8.333 14.351 8.333l16.666 2.777h.463l18.981-3.24c8.796-3.703 14.351-9.722 14.351-9.722l9.26-13.889 2.777-17.129c0-18.98-12.5-30.554-12.5-30.554-12.499-11.574-31.942-11.574-31.942-11.574h-.928zm-.289 6.482c.188-.006.289 0 .289 0h.464l12.036 2.777 7.87 8.333 4.167 11.574 1.389 13.425c0 17.129-6.481 27.314-6.481 27.314-7.407 10.185-18.98 10.185-18.98 10.185h-.464l-11.573-3.241-7.87-8.333-4.629-12.036c-1.389-6.019-1.389-14.814-1.389-14.814l.926-12.499 4.166-11.11c3.24-5.093 8.796-8.797 8.796-8.797 4.454-2.431 9.973-2.74 11.283-2.778zM545.984 437.875s6.944 0 6.944-7.407c0 0 0-6.944-6.944-6.944 0 0-7.407 0-7.407 6.944 0 0 0 7.407 7.407 7.407" fill="#ec6c00"/><path d="M903.377-25.069v3.241h7.87V-.995h2.777v-20.833h7.87v-3.241h-18.517zm21.758 0V-.996h3.241v-19.907L935.32-.996h2.777l6.481-19.444V-.996h3.24v-24.073h-4.166l-6.944 20.37-6.944-20.37h-4.629z"/><path d="M751.068-25.069l-12.036.926s-12.5 2.777-12.5 8.333V2.708L672.368 4.56V-5.625h-24.999S622.37-3.773 622.37 3.634v67.59h104.162v46.294h-71.756v18.518h71.756V242.05l53.239-5.556V136.036h76.385v-18.518h-76.385V71.224h89.811v-9.259h2.314s6.944 0 11.111-11.111l4.166-30.554S886.71-1.921 863.1-1.921L779.771.856v-25.925h-28.703zm82.404 42.591s7.407-.463 7.87 7.407l-3.704 28.24h-165.27V22.614l54.164-1.389v.463l53.239-2.314 53.701-1.852z" fill="#003f96"/><path d="M427.47 117.518l17.129 19.907 19.907 17.592s5.555 5.555 11.11 0l19.443-17.592 17.129-19.907s6.019-5.092 0-11.573L495.06 86.5l-19.443-17.129s-5.556-5.555-11.11 0L445.062 86.5l-17.592 19.444s-5.091 6.482 0 11.574M871.896 178.626s3.241-4.167 0-8.796l-13.425-14.814-14.814-12.962s-4.167-4.167-8.796 0l-14.814 12.962-12.962 14.814s-3.704 4.629 0 8.796l12.962 14.814 14.814 12.962s4.629 4.629 8.796 0l14.814-12.962 13.425-14.814" fill="#ec6c00"/><path d="M77.948 95.296h158.79s-4.63 18.055-16.203 40.739c0 0-19.906 38.887-50.461 68.053 0 0-57.405 53.701-94.44 53.701 0 0-27.313 0-44.905-10.185 0 0-21.759-13.425-21.759-41.202 0 0 0-36.572 56.017-47.22 0 0-36.109-2.314-55.091 16.666 0 0-17.592 16.666-17.592 45.832 0 0 0 27.777 25.462 44.443 0 0 22.685 15.277 55.091 14.814l7.407.463s62.96-3.241 121.291-51.85c0 0 49.998-41.665 74.997-101.385 0 0 7.87-18.518 12.036-37.036l2.777-14.351v.463H205.72V36.503h107.866V18.448H205.72V-23.68h-28.239l-12.036.926s-12.5 2.777-12.5 8.333v32.869H48.783v18.055h104.162v40.739H77.948v18.054M433.952-25.069l-.926 8.796-6.019 21.758s-6.481 14.814-16.203 26.388v208.788l-53.238-6.481V68.446s-19.906 10.185-37.035 16.666l-6.944-11.111s18.055-12.499 36.109-30.091c0 0 35.646-35.646 35.646-59.719 0 0 0-5.556 12.5-8.333l12.036-.926h24.074" fill="#003f96"/><path d="M419.137 55.021h99.996v192.584l53.238.926V55.021h27.776V36.503h-27.776v-61.572H543.67l-12.037.926s-12.499 2.777-12.499 8.333v52.312h-99.996v18.519" fill="#003f96"/><path d="M177.018 167.053s-67.59-29.628-109.255-31.017c0 0-34.258-1.852-62.497 18.055 0 0-29.629 20.833-30.555 51.85 0 0 0 36.11 28.703 56.479 0 0 26.388 18.981 68.979 18.981h4.166l-6.944-.463s-31.017 0-52.775-15.277c0 0-24.073-17.129-24.073-45.369 0 0 0-30.554 21.296-46.294 0 0 18.055-12.962 47.22-13.426l41.202 4.63 31.943 12.499 76.386 38.888s52.312 27.313 102.311 43.979c0 0 174.066 57.868 563.402 19.906l20.832-4.166s7.407-3.241 13.426-12.963c0 0 5.093-7.87 39.813-38.887 0 0 24.998-22.685 16.666-30.092l-12.037 1.852s-127.31 28.703-321.283 36.573c0 0-218.046 8.796-325.912-22.222-.001 0-74.534-21.295-131.014-43.516" fill="#ec6c00"/></svg>