<?xml version="1.0" encoding="utf-8"?>
<!-- Generator: Adobe Illustrator 14.0.0, SVG Export Plug-In . SVG Version: 6.00 Build 43363)  -->
<!DOCTYPE svg PUBLIC "-//W3C//DTD SVG 1.1//EN" "http://www.w3.org/Graphics/SVG/1.1/DTD/svg11.dtd">
<svg version="1.1" xmlns="http://www.w3.org/2000/svg" xmlns:xlink="http://www.w3.org/1999/xlink" x="0px" y="0px"
	 width="174.8396px" height="66.8824px" viewBox="0 0 1748.396 668.824" enable-background="new 0 0 174.8396 66.8824"
	 xml:space="preserve">
<g id="WU_logo">
	<path fill="#040407" d="M1576.583,470.123V197.217c0-14.467-11.729-26.194-26.194-26.194H197.292
		c-14.467,0-26.194,11.728-26.194,26.194v272.906c0,14.467,11.727,26.195,26.194,26.195h1353.097
		C1564.854,496.318,1576.583,484.59,1576.583,470.123z"/>
	<path fill="#FFDD00" d="M566.338,214.415h-17.58l-19.689,146.208h-0.631l-21.562-146.208h-95.236l-21.61,146.208h-0.628
		l-19.628-146.208h-82.354l50.203,232.343h99.804l21.533-150.518h0.658l21.525,150.518h99.801l5.008-23.232
		c-12.766-13.561-19.613-31.723-19.613-54.668V214.415z"/>
	<path fill="#FFFFFF" d="M566.338,214.415v154.443c0,22.945,6.848,41.107,19.613,54.668l45.139-209.111H566.338z"/>
	<path fill="#FFDD00" d="M695.045,214.415v150.607c0,18.332-8.699,25.475-18.34,25.475c-9.656,0-18.354-7.143-18.354-25.475V214.415
		h-19.631L592.34,429.297c18.812,15.648,47.309,23.629,84.365,23.629c70.137,0,110.373-28.039,110.373-84.068V214.415H695.045z"/>
	<polygon fill="#FFDD00" points="227.036,214.415 213.333,214.415 262.661,446.758 276.373,446.758 	"/>
	<polygon fill="#FFDD00" points="300.144,446.758 313.847,446.758 264.521,214.415 250.821,214.415 	"/>
	<g>
		<path fill="#FFDD00" d="M814.855,225.523c-0.127-1.556-0.959-2.323-2.557-2.323c-1.217,0-2.453,0.64-2.453,1.982
			c0,1.663,1.492,1.854,2.814,2.174c2.346,0.597,5.799,1.258,5.799,4.349c0,3.815-3.326,5.137-6.631,5.137
			c-3.516,0-6.01-1.364-5.904-5.244h3.369c-0.129,1.706,0.852,2.856,2.578,2.856c1.322,0,3.07-0.405,3.07-2.046
			c0-1.812-2.195-1.939-3.518-2.281c-2.152-0.533-5.094-1.513-5.094-4.242c0-3.518,3.24-5.074,6.395-5.074
			c2.984,0,5.307,1.62,5.307,4.711H814.855z"/>
		<path fill="#FFDD00" d="M830.625,236.522h-2.748l-4.072-13.216l-0.043,0.042v13.174h-3.09v-15.391h5.414l3.219,11.191h0.043
			l3.496-11.191h5.221v15.391h-3.09v-13.174l-0.043-0.042L830.625,236.522z"/>
	</g>
</g>
<g id="Business_Solutions">
	<g>
		<path fill="#FFFFFF" d="M885.555,248.904h26.331c8.291,0,16.765,0,22.777,5.375c2.096,1.914,5.011,5.467,5.011,11.298
			c0,11.662-10.751,14.122-14.03,14.942v0.183c4.1,0.729,15.853,2.824,15.853,16.309c0,5.102-1.913,11.114-9.11,14.941
			c-5.193,2.733-11.845,2.733-17.767,2.733h-29.064V248.904z M903.23,275.417h8.564c2.915,0,4.828,0,6.377-0.819
			c2.096-1.185,3.463-3.554,3.463-6.378c0-2.005-0.729-4.373-2.552-5.831c-2.004-1.549-4.009-1.549-5.922-1.549h-9.931V275.417z
			 M903.321,302.659h10.113c2.096,0,9.385,0,9.385-7.653c0-7.927-7.472-7.927-9.932-7.927h-9.566V302.659z"/>
		<path fill="#FFFFFF" d="M987.146,248.904v39.086c0,3.554,0.273,7.198,2.096,9.932c2.46,3.644,6.742,5.375,11.207,5.375
			c11.57,0,13.119-9.384,13.119-15.944v-38.448h17.767v38.084c0,7.289-1.002,15.216-5.102,20.044
			c-6.378,7.835-18.131,9.384-26.422,9.384c-31.069,0-31.16-19.314-31.16-30.065l0.091-37.446H987.146z"/>
		<path fill="#FFFFFF" d="M1076.622,293.73c0.091,2.643,0.273,10.204,11.115,10.204c1.549,0,9.749,0,9.749-7.471
			c0-3.098-1.275-5.193-5.648-6.378l-16.127-4.191c-4.556-1.184-16.309-4.282-16.309-18.039c0-10.66,8.018-20.591,27.697-20.591
			c25.693,0,26.787,13.939,26.878,20.955h-18.495c0-2.005,0.091-9.111-8.656-9.111c-5.284,0-8.655,3.007-8.655,6.925
			c0,4.828,4.009,6.013,6.651,6.742l12.3,3.188c8.746,2.277,19.133,5.011,19.133,18.951c0,14.668-12.573,21.229-29.063,21.229
			c-6.834,0-17.858-1.094-23.871-7.836c-4.829-5.284-4.92-11.753-5.012-14.577H1076.622z"/>
		<path fill="#FFFFFF" d="M1142.134,248.904h18.769v65.781h-18.769V248.904z"/>
		<path fill="#FFFFFF" d="M1189.514,248.904h25.146l22.23,49.018l-0.182-49.018h15.944v65.781h-24.601l-22.686-51.112l0.182,51.112
			h-16.035V248.904z"/>
		<path fill="#FFFFFF" d="M1281.995,249.086h49.382v12.573h-31.342v13.667h29.52v12.573h-29.52v14.031h32.071v12.755h-50.111
			V249.086z"/>
		<path fill="#FFFFFF" d="M1375.022,293.73c0.091,2.643,0.273,10.204,11.115,10.204c1.549,0,9.749,0,9.749-7.471
			c0-3.098-1.275-5.193-5.648-6.378l-16.127-4.191c-4.556-1.184-16.309-4.282-16.309-18.039c0-10.66,8.018-20.591,27.697-20.591
			c25.693,0,26.787,13.939,26.878,20.955h-18.495c0-2.005,0.091-9.111-8.656-9.111c-5.284,0-8.655,3.007-8.655,6.925
			c0,4.828,4.009,6.013,6.651,6.742l12.3,3.188c8.746,2.277,19.133,5.011,19.133,18.951c0,14.668-12.573,21.229-29.063,21.229
			c-6.834,0-17.858-1.094-23.871-7.836c-4.829-5.284-4.92-11.753-5.012-14.577H1375.022z"/>
		<path fill="#FFFFFF" d="M1457.208,293.73c0.091,2.643,0.273,10.204,11.115,10.204c1.549,0,9.749,0,9.749-7.471
			c0-3.098-1.275-5.193-5.648-6.378l-16.127-4.191c-4.556-1.184-16.309-4.282-16.309-18.039c0-10.66,8.018-20.591,27.697-20.591
			c25.693,0,26.787,13.939,26.878,20.955h-18.495c0-2.005,0.091-9.111-8.656-9.111c-5.284,0-8.655,3.007-8.655,6.925
			c0,4.828,4.009,6.013,6.651,6.742l12.3,3.188c8.746,2.277,19.133,5.011,19.133,18.951c0,14.668-12.573,21.229-29.063,21.229
			c-6.834,0-17.858-1.094-23.871-7.836c-4.829-5.284-4.92-11.753-5.012-14.577H1457.208z"/>
		<path fill="#FFFFFF" d="M902.137,397.39c0.091,2.642,0.273,10.204,11.115,10.204c1.549,0,9.749,0,9.749-7.471
			c0-3.098-1.275-5.193-5.648-6.378l-16.127-4.191c-4.556-1.185-16.309-4.282-16.309-18.04c0-10.659,8.018-20.591,27.697-20.591
			c25.693,0,26.787,13.94,26.878,20.956h-18.495c0-2.005,0.091-9.111-8.656-9.111c-5.284,0-8.655,3.007-8.655,6.924
			c0,4.829,4.009,6.014,6.651,6.742l12.3,3.189c8.746,2.277,19.133,5.011,19.133,18.951c0,14.668-12.573,21.229-29.063,21.229
			c-6.834,0-17.858-1.094-23.871-7.836c-4.829-5.284-4.92-11.753-5.012-14.577H902.137z"/>
		<path fill="#FFFFFF" d="M963.001,359.852c8.291-8.382,20.864-9.11,25.693-9.11c26.239,0,33.347,18.859,33.347,34.895
			c0,26.24-18.587,34.258-34.258,34.258c-17.493,0-33.802-9.657-33.802-34.166C953.981,381.354,954.71,368.234,963.001,359.852z
			 M987.966,406.5c13.028,0,15.215-12.026,15.215-21.137c0-9.202-2.187-13.758-4.19-16.674c-2.643-3.645-6.925-4.737-10.934-4.737
			c-12.026,0-15.307,10.387-15.307,21.684C972.75,396.114,975.848,406.5,987.966,406.5z"/>
		<path fill="#FFFFFF" d="M1036.896,352.563h18.495v52.844h29.52v12.938h-48.015V352.563z"/>
		<path fill="#FFFFFF" d="M1115.982,352.563v39.086c0,3.554,0.273,7.197,2.096,9.931c2.46,3.645,6.742,5.376,11.207,5.376
			c11.57,0,13.119-9.385,13.119-15.944v-38.448h17.767v38.084c0,7.288-1.002,15.215-5.102,20.044
			c-6.378,7.836-18.131,9.385-26.422,9.385c-31.069,0-31.16-19.315-31.16-30.066l0.091-37.446H1115.982z"/>
		<path fill="#FFFFFF" d="M1192.429,365.592h-20.044v-13.028h58.948v13.028h-20.5v52.753h-18.404V365.592z"/>
		<path fill="#FFFFFF" d="M1242.27,352.563h18.769v65.781h-18.769V352.563z"/>
		<path fill="#FFFFFF" d="M1284.363,359.852c8.291-8.382,20.864-9.11,25.693-9.11c26.239,0,33.347,18.859,33.347,34.895
			c0,26.24-18.587,34.258-34.258,34.258c-17.493,0-33.802-9.657-33.802-34.166C1275.344,381.354,1276.072,368.234,1284.363,359.852z
			 M1309.328,406.5c13.028,0,15.215-12.026,15.215-21.137c0-9.202-2.187-13.758-4.19-16.674c-2.643-3.645-6.925-4.737-10.934-4.737
			c-12.026,0-15.307,10.387-15.307,21.684C1294.112,396.114,1297.21,406.5,1309.328,406.5z"/>
		<path fill="#FFFFFF" d="M1358.259,352.563h25.146l22.23,49.017l-0.182-49.017h15.944v65.781h-24.601l-22.686-51.113l0.182,51.113
			h-16.035V352.563z"/>
		<path fill="#FFFFFF" d="M1454.748,397.39c0.091,2.642,0.273,10.204,11.115,10.204c1.549,0,9.749,0,9.749-7.471
			c0-3.098-1.275-5.193-5.648-6.378l-16.127-4.191c-4.556-1.185-16.309-4.282-16.309-18.04c0-10.659,8.018-20.591,27.697-20.591
			c25.693,0,26.787,13.94,26.878,20.956h-18.495c0-2.005,0.091-9.111-8.656-9.111c-5.284,0-8.655,3.007-8.655,6.924
			c0,4.829,4.009,6.014,6.651,6.742l12.3,3.189c8.746,2.277,19.133,5.011,19.133,18.951c0,14.668-12.573,21.229-29.063,21.229
			c-6.834,0-17.858-1.094-23.871-7.836c-4.829-5.284-4.92-11.753-5.012-14.577H1454.748z"/>
	</g>
</g>
</svg>
