<svg xmlns="http://www.w3.org/2000/svg" width="17" height="17" viewBox="0 0 17 17"><title>anchor</title><path d="M16.95 12.143L15.586 9.63c-.002-.002-.002-.006-.004-.01l-.096-.167c-.054-.093-.14-.153-.236-.176-.095-.023-.2-.01-.29.05l-.162.104-.008.008-2.417 1.632c-.18.116-.238.36-.13.546l.108.12c.108.186.353.193.534.077l1.445-.983c-.342 2.756-2.57 4.87-5.295 5.116V5.294h2.126c.293 0 .53-.238.53-.53s-.237-.532-.53-.532h-2.15c-.003-.014-.006-.028-.012-.04.948-.22 1.655-1.07 1.655-2.085 0-1.183-.958-2.142-2.14-2.142s-2.142.96-2.142 2.142c0 1.01.7 1.854 1.64 2.08-.007.015-.01.03-.015.045H5.845c-.293 0-.53.238-.53.53s.237.532.53.532H7.97v10.65c-2.726-.244-4.95-2.36-5.293-5.114l1.443.98c.18.117.426.11.534-.076l.11-.12c.107-.186.048-.43-.133-.546L2.215 9.436l-.008-.007-.164-.106c-.09-.058-.194-.073-.29-.05s-.18.084-.235.177l-.097.17c-.002.003-.002.006-.003.01L.05 12.142c-.107.185-.048.43.133.546l.15.057c.182.116.404.01.512-.175l.795-1.477c.488 3.4 3.405 5.94 6.86 5.94 3.455 0 6.375-2.54 6.863-5.94l.794 1.476c.108.185.33.29.51.174l.152-.057c.18-.117.24-.36.13-.546zM7.43 2.108c0-.595.483-1.08 1.078-1.08s1.08.485 1.08 1.08-.485 1.08-1.08 1.08c-.595 0-1.08-.485-1.08-1.08z"/></svg>