<svg xmlns="http://www.w3.org/2000/svg" width="17" height="17" viewBox="0 0 17 17"><title>arrow-left</title><path d="M8.5 0C3.805 0 0 3.806 0 8.5S3.805 17 8.5 17c4.694 0 8.5-3.805 8.5-8.5S13.194 0 8.5 0zm0 15.954c-4.1 0-7.438-3.353-7.438-7.454S4.4 1.062 8.5 1.062 15.938 4.4 15.938 8.5 12.6 15.954 8.5 15.954zm3.724-7.99H6.24L8.162 6.04c.207-.206.207-.543 0-.75s-.544-.207-.75 0L4.27 8.51l3.14 3.222c.103.104.24.156.375.156s.272-.052.376-.156c.207-.207.207-.544 0-.75L6.208 9.025h6.017c.294 0 .53-.238.53-.53s-.237-.532-.53-.532z"/></svg>