<svg xmlns="http://www.w3.org/2000/svg" width="17" height="17" viewBox="0 0 17 17"><title>bulb</title><path d="M8.5 0C5.212 0 2.638 2.675 2.638 5.962c0 2.477 1.217 3.657 2.178 4.518.62.555 1.035.89 1.035 1.3v.902c0 .023.004.046.007.07h-.012v1.537c0 1.62 1.05 2.71 2.674 2.71 1.567 0 2.638-1.09 2.638-2.71v-1.54h-.015c.003-.022.007-.044.007-.068v-.9c0-.628.465-1.007 1.17-1.623.956-.835 2.043-1.872 2.043-4.198C14.363 2.674 11.788 0 8.5 0zm-.02 15.938c-.994 0-1.572-.617-1.572-1.65L6.9 13.58c.382.13.903.233 1.6.233.688 0 1.21-.11 1.595-.245v.72c0 1.048-.585 1.65-1.616 1.65zm3.14-6.58c-.72.63-1.534 1.282-1.534 2.422v.67c-.252.142-.717.31-1.596.31-.923 0-1.36-.165-1.578-.29v-.69c0-.908-.71-1.483-1.39-2.093C4.623 8.88 3.7 7.963 3.7 5.96c0-2.7 2.097-4.898 4.8-4.898s4.8 2.198 4.8 4.9c0 1.843-.806 2.633-1.68 3.396z"/></svg>