<svg xmlns="http://www.w3.org/2000/svg" width="17" height="17" viewBox="0 0 17 17"><title>calculator</title><path d="M15.938-.002H1.063C.48-.002 0 .476 0 1.06v14.88C0 16.522.478 17 1.063 17h14.875c.584 0 1.063-.478 1.063-1.063V1.06C17 .478 16.524 0 15.94 0zm0 15.94H1.063V1.062h14.875v14.88zM3.718 5.85h1.064v1.064c0 .293.238.53.53.53s.532-.237.532-.53V5.85h1.063c.293 0 .53-.24.53-.532s-.237-.53-.53-.53H5.844V3.723c0-.293-.238-.53-.53-.53s-.532.237-.532.53v1.063H3.72c-.294 0-.532.238-.532.53s.238.532.53.532zm3.473 3.966c-.206-.207-.543-.207-.75 0L5.313 10.94 4.186 9.815c-.207-.207-.544-.207-.75 0s-.208.544 0 .75l1.126 1.128-1.127 1.127c-.207.206-.207.543 0 .75s.544.207.75 0l1.128-1.127L6.44 13.57c.207.207.544.207.75 0s.208-.544 0-.75L6.065 11.69l1.127-1.127c.208-.208.208-.544 0-.752zm2.904-3.965h3.188c.293 0 .53-.24.53-.532s-.237-.53-.53-.53h-3.188c-.293 0-.53.237-.53.53s.237.53.53.53zm0 5.31h3.188c.293 0 .53-.237.53-.53s-.237-.53-.53-.53h-3.188c-.293 0-.53.237-.53.53s.237.53.53.53zm0 2.126h3.188c.293 0 .53-.238.53-.53s-.237-.532-.53-.532h-3.188c-.293 0-.53.238-.53.53s.237.532.53.532z"/></svg>