<svg xmlns="http://www.w3.org/2000/svg" width="17" height="17" viewBox="0 0 17 17"><title>cloud-download</title><path d="M12.667 4.316c-.74-1.966-2.334-3.21-4.74-3.21-3.06 0-5.202 2.272-5.386 5.237C1.066 6.815 0 8.32 0 10.026c0 2.088 1.64 3.85 3.583 3.85h.472c.293 0 .53-.237.53-.53s-.237-.53-.53-.53h-.472c-1.366 0-2.537-1.278-2.537-2.79 0-1.336.937-2.54 2.11-2.743L3.64 7.2l-.044-.487-.004-.006c0-2.588 1.703-4.54 4.336-4.54 2.11 0 3.296 1.04 3.844 2.813l.113.366.383.008c1.973.04 3.704 1.643 3.704 3.632 0 1.81-1.2 3.828-3.017 3.828h-.15c-.294 0-.532.238-.532.53s.238.532.53.532v-.002c2.657-.07 4.19-2.608 4.19-4.89-.002-2.452-1.923-4.41-4.326-4.67zm-1.937 8.558c-.148-.155-.39-.155-.537 0l-1.168 1.29v-5.35c0-.292-.238-.53-.53-.53s-.532.238-.532.53v5.354l-1.13-1.26c-.15-.156-.39-.19-.538-.034l-.134.073c-.147.156-.147.406 0 .562l1.92 2.12.005.01.134.14c.074.078.17.116.27.116.096 0 .194-.038.268-.116l.134-.14.006-.01 1.966-2.154c.148-.155.148-.34 0-.495l-.134-.106z"/></svg>