<svg xmlns="http://www.w3.org/2000/svg" width="17" height="17" viewBox="0 0 17 17"><title>cup</title><path d="M13.822 6.903l-1.068-.006.002-1.062c0-.587-.476-1.063-1.063-1.063L1.06 4.77c-.587 0-1.063.475-1.063 1.062v7.984c0 1.76 1.427 3.188 3.188 3.188H9.57c1.76 0 3.172-1.427 3.172-3.188v-.545c.483.005.974.008 1.08.008 1.756 0 3.18-1.412 3.18-3.172s-1.425-3.203-3.18-3.203zm-2.142 6.913c0 1.172-.936 2.125-2.11 2.125H3.186c-1.172 0-2.125-.952-2.125-2.124l-.002-7.984 10.635.003-.014 7.98zm2.142-1.585c-.105 0-.596-.002-1.077-.006l.007-4.264 1.07.006c1.213 0 2.134.906 2.134 2.122s-.92 2.142-2.135 2.142zM9.56 3.716c.293 0 .53-.238.53-.53V.527c0-.293-.237-.53-.53-.53s-.53.237-.53.53v2.656c0 .294.237.53.53.53zm-6.375 0c.293 0 .53-.238.53-.53V.527c0-.293-.237-.53-.53-.53s-.53.237-.53.53v2.656c0 .294.237.53.53.53zm3.188 0c.293 0 .53-.238.53-.53V.527c0-.293-.237-.53-.53-.53s-.53.237-.53.53v2.656c0 .294.237.53.53.53z"/></svg>