<svg xmlns="http://www.w3.org/2000/svg" width="17" height="17" viewBox="0 0 17 17"><title>eyeglasses</title><path d="M17.023 10.82c-.016-.23-.88-5.3-1.015-6.112-.013-.078-.023-.16-.035-.248-.104-.816-.3-2.335-2.747-2.335-.294 0-.53.238-.53.53s.237.532.53.532c1.513 0 1.593.62 1.693 1.408.012.1.024.197.04.287.06.374.343 1.862.586 3.337-.623-.476-1.4-.76-2.243-.76-1.355 0-2.562.73-3.225 1.815-.32-.12-.86-.27-1.584-.27-.713 0-1.237.15-1.56.283C6.287 8.195 5.1 7.46 3.74 7.46c-.883 0-1.705.31-2.354.827.246-1.494.538-3.022.6-3.404.016-.09.03-.186.04-.287.102-.787.182-1.408 1.694-1.408.294 0 .53-.238.53-.53s-.237-.532-.53-.532c-2.448 0-2.643 1.52-2.747 2.335-.01.088-.022.17-.035.25-.135.81-.946 5.85-.962 6.08-.004.05.002.1.012.147-.005.077-.012.153-.012.23 0 2.05 1.716 3.71 3.763 3.71s3.707-1.66 3.707-3.71c0-.31-.042-.608-.114-.895.218-.088.61-.205 1.16-.205.533 0 .936.107 1.166.188-.077.293-.123.597-.123.913 0 2.048 1.716 3.708 3.763 3.708s3.708-1.66 3.708-3.708c0-.056-.006-.11-.008-.165.016-.058.025-.118.02-.182zM3.74 13.813c-1.463 0-2.7-1.212-2.7-2.645s1.237-2.645 2.7-2.645c1.46 0 2.646 1.187 2.646 2.645S5.2 13.812 3.74 13.812zm9.563 0c-1.464 0-2.7-1.212-2.7-2.645s1.236-2.645 2.7-2.645c1.262 0 2.318.888 2.58 2.072.012.108.02.21.028.304.004.045.016.087.032.127.003.048.007.095.007.143 0 1.46-1.188 2.645-2.646 2.645z"/></svg>