<svg xmlns="http://www.w3.org/2000/svg" width="17" height="17" viewBox="0 0 17 17"><title>loop</title><path d="M15.938 1.69H1.063C.476 1.69 0 2.168 0 2.755v9.563c0 .587.476 1.063 1.063 1.063H3.72c.34 0 .53-.437.53-.53 0-.098-.18-.54-.53-.54H1.71c-.354 0-.642-.287-.642-.642V3.422c0-.355.288-.643.643-.643l13.586-.018c.355 0 .643.288.643.643v8.263c0 .355-.29.643-.644.643H8.603l1.26-1.143c.156-.148.206-.39.05-.537l-.09-.134c-.156-.148-.407-.148-.562 0l-2.153 1.966c-.003.003-.006.004-.01.006l-.14.134c-.078.074-.116.172-.116.27 0 .097.04.194.117.27l.14.133c.004.003.007.003.01.006l2.12 1.92c.155.147.406.147.562 0l.09-.135c.155-.148.105-.39-.05-.537L8.55 13.38h7.387c.587 0 1.063-.475 1.063-1.063V2.754c0-.587-.476-1.063-1.063-1.063z"/></svg>