<svg xmlns="http://www.w3.org/2000/svg" width="17" height="17" viewBox="0 0 17 17"><title>microphone</title><path d="M8.48 11.688h.127c1.477 0 2.55-1.09 2.55-2.59V2.77c0-1.552-1.12-2.767-2.55-2.767H8.48C7.027 0 5.844 1.243 5.844 2.768V9.1c0 1.475 1.134 2.588 2.638 2.588zM6.907 2.766c0-.94.707-1.704 1.575-1.704h.127c.847 0 1.486.733 1.486 1.704v6.332c0 .913-.597 1.527-1.486 1.527H8.48c-.927 0-1.574-.628-1.574-1.527V2.766zm6.375 3.078c-.293 0-.53.238-.53.53v2.21c0 3.16-1.128 4.697-3.45 4.697H7.723c-3.035 0-3.472-2.553-3.472-4.696v-2.21c0-.292-.238-.53-.53-.53s-.532.238-.532.53v2.21c0 3.66 1.525 5.76 4.534 5.76h.247v1.594H5.312c-.293 0-.53.238-.53.53s.237.532.53.532h6.375c.293 0 .53-.238.53-.53s-.237-.532-.53-.532H9.032v-1.594h.27c2.058 0 4.51-1 4.51-5.76v-2.21c0-.292-.237-.53-.53-.53z"/></svg>