<svg xmlns="http://www.w3.org/2000/svg" width="17" height="17" viewBox="0 0 17 17"><title>music-tone</title><path d="M14.155 5.367L8.96.172c-.165-.165-.41-.197-.608-.1-.208.072-.36.267-.36.5v11.76c-.562-.416-1.3-.672-2.114-.672-1.76 0-3.19 1.192-3.19 2.66s1.43 2.663 3.19 2.663c1.762 0 3.19-1.192 3.19-2.662 0-.064-.007-.128-.013-.192V1.77l4.347 4.348c.207.207.544.207.75 0s.208-.544 0-.75zM5.867 15.914c-1.256 0-2.13-.84-2.13-1.592s.874-1.59 2.13-1.59c1.23 0 2.092.803 2.127 1.543v.094c-.036.74-.898 1.543-2.127 1.543z"/></svg>