<svg xmlns="http://www.w3.org/2000/svg" width="17" height="17" viewBox="0 0 17 17"><title>plus</title><path d="M8.5 0C3.806 0 0 3.806 0 8.5S3.806 17 8.5 17c4.695 0 8.5-3.805 8.5-8.5S13.195 0 8.5 0zm0 15.954c-4.1 0-7.438-3.353-7.438-7.454S4.4 1.062 8.5 1.062 15.938 4.4 15.938 8.5 12.6 15.954 8.5 15.954zm3.72-7.985H9.03V4.78c0-.292-.237-.53-.53-.53s-.53.238-.53.53v3.19H4.78c-.292 0-.53.237-.53.53s.238.53.53.53h3.19v3.19c0 .292.237.53.53.53s.53-.238.53-.53V9.03h3.19c.292 0 .53-.237.53-.53s-.238-.53-.53-.53z"/></svg>