<svg xmlns="http://www.w3.org/2000/svg" width="17" height="17" viewBox="0 0 17 17"><title>question</title><path d="M8.5 0C3.806 0 0 3.806 0 8.5S3.806 17 8.5 17c4.695 0 8.5-3.805 8.5-8.5S13.194 0 8.5 0zm0 15.954c-4.1 0-7.438-3.353-7.438-7.454S4.4 1.062 8.5 1.062 15.938 4.4 15.938 8.5 12.6 15.954 8.5 15.954zm-.78-2.665h1.336v-1.35H7.72v1.35zm.764-9.58c-.778 0-1.42.21-1.923.63s-.748 1.26-.735 1.955l.02.04h1.22c0-.416.137-1.013.414-1.227s.61-.32 1.004-.32c.454 0 .802.122 1.047.37s.367.598.367 1.056c0 .385-.09.713-.272.986s-.487.66-.915 1.167c-.44.398-.714.718-.817.96s-.158.677-.162 1.303h1.28c0-.393.024-.683.074-.87s.19-.395.424-.628c.502-.484.905-.957 1.21-1.42s.457-.973.457-1.53c0-.78-.235-1.386-.707-1.82S9.335 3.71 8.483 3.71z"/></svg>