<svg xmlns="http://www.w3.org/2000/svg" width="17" height="17" viewBox="0 0 17 17"><title>uniE048</title><path d="M15.966 3.313c0 .018-.002.032-.004.044-.434.3-2.863 1.903-3.317 2.194-.048.002-.17-.014-.342-.105-.185-.097-.723-.4-1.476-.828l-.586-.334-.55.388c-.41.29-1.304.977-2.662 2.336C5.664 8.37 4.978 9.26 4.69 9.668l-.387.552.335.586c.324.568.713 1.253.83 1.477.094.18.102.3.102.335v.014c-.256.407-1.903 2.888-2.204 3.326-.042.007-.135 0-.25-.08-.934-.674-1.91-1.63-2.048-2.005.094-1.993 1.845-4.79 4.94-7.884s5.89-4.847 7.875-4.94c.376.135 1.338 1.11 2.007 2.035.047.07.074.153.074.232m1.03-.004c0-.28-.084-.58-.264-.838-.018-.025-1.797-2.525-2.828-2.492-2.896.092-6.3 2.906-8.644 5.25S.098 10.984.006 13.89v.023c0 1.018 2.468 2.807 2.493 2.824.67.47 1.408.298 1.708-.13.183-.26 2.075-3.104 2.288-3.453.093-.152.138-.337.138-.54 0-.26-.076-.547-.224-.828-.144-.274-.616-1.103-.848-1.51.25-.357.894-1.196 2.22-2.52C9.095 6.44 9.94 5.792 10.3 5.54c.406.23 1.235.702 1.508.845.515.272 1.03.303 1.375.082.327-.207 3.15-2.09 3.42-2.286.254-.183.39-.51.39-.867z"/></svg>