<svg xmlns="http://www.w3.org/2000/svg" width="17" height="17" viewBox="0 0 17 17"><title>uniE097</title><path d="M11.647 2.724c-.266-.124-.58-.01-.706.256s-.01.582.257.706c2.695 1.262 4.16 4.183 3.56 7.103-.713 3.467-4.113 5.707-7.58 4.996-1.68-.345-3.06-1.323-4.003-2.755S1.9 9.886 2.244 8.206c.41-1.996 1.705-3.64 3.55-4.514.265-.124.38-.44.253-.706s-.44-.377-.707-.253C3.19 3.75 1.683 5.666 1.205 7.99c-.402 1.96-.018 3.956 1.082 5.625s2.718 2.808 4.676 3.21c.505.105 1.01.155 1.507.155 3.477 0 6.602-2.442 7.328-5.978.7-3.403-1.007-6.808-4.15-8.28zM8.5 6.906c.293 0 .53-.238.53-.53V.53C9.03.24 8.794 0 8.5 0s-.53.238-.53.53v5.845c0 .293.237.53.53.53z"/></svg>