<svg xmlns="http://www.w3.org/2000/svg" width="17" height="17" viewBox="0 0 17 17"><title>uniE047</title><path d="M16.607 12.81c-.26-.183-3.105-2.075-3.454-2.288-.152-.093-.337-.138-.54-.138-.26 0-.547.076-.828.224-.274.144-1.103.616-1.51.848-.357-.25-1.196-.894-2.52-2.22-1.315-1.314-1.964-2.16-2.217-2.52.23-.406.703-1.235.846-1.508.272-.515.303-1.03.082-1.375C6.26 3.506 4.376.65 4.18.38c-.183-.254-.512-.39-.868-.39-.28 0-.58.084-.838.264C2.45.272-.05 2.084-.018 3.114c.092 2.897 2.906 6.3 5.25 8.645s5.75 5.16 8.656 5.252h.024c1.018 0 2.807-2.468 2.824-2.493.47-.672.298-1.41-.13-1.71zm-.734 1.09c-.674.933-1.63 1.908-2.005 2.048-1.993-.093-4.79-1.845-7.884-4.94s-4.846-5.89-4.938-7.875c.134-.376 1.11-1.338 2.034-2.007.07-.047.153-.075.232-.075.018 0 .032.003.044.005.3.434 1.903 2.863 2.194 3.317 0 .048-.015.17-.106.342-.097.185-.4.723-.828 1.476l-.334.586.388.552c.29.41.976 1.303 2.335 2.66 1.364 1.366 2.253 2.05 2.662 2.338l.552.388.585-.335c.568-.325 1.253-.714 1.477-.83.18-.095.3-.103.335-.103h.014c.408.256 2.89 1.903 3.327 2.204.007.044 0 .136-.08.25zM10.69 6.25c.068.07.164.113.27.11l.195-.005.01-.002 3.81.017c.215-.005.393-.182.398-.397V5.7c-.032-.253-.23-.4-.446-.396l-2.515-.007 4.35-4.343c.206-.207.206-.544 0-.75s-.545-.208-.752 0l-4.36 4.354.014-2.57c.005-.215-.165-.402-.38-.397h-.273c-.214.006-.392.134-.396.35l-.01 3.834c0 .004.014.006.014.01l-.02.194c-.003.108.022.204.092.273z"/></svg>