<svg xmlns="http://www.w3.org/2000/svg" width="17" height="17" viewBox="0 0 17 17"><title>uniE057</title><path d="M11.387 6.36l4.57-4.54-.015 2.573c-.005.215.165.4.38.397h.273c.215-.005.393-.133.397-.347l.01-3.835c0-.004-.014-.007-.014-.01l.02-.194c.003-.108-.022-.204-.092-.273s-.165-.11-.272-.108l-.194.005c-.004 0-.007 0-.01.002L12.63.01c-.216.005-.393.182-.398.397V.68c.032.253.23.4.445.396l2.51.007-4.553 4.526c-.207.208-.207.545 0 .752s.544.207.75 0zM5.63 10.64l-4.57 4.527.014-2.56c.005-.215-.165-.402-.38-.397h-.29c-.214.006-.392.134-.396.35l-.01 3.834c0 .004.014.006.014.01l-.02.194c-.003.108.022.205.092.273.07.07.165.113.272.11l.194-.005.01-.002 3.828.017c.215-.005.392-.183.397-.397v-.273c-.032-.253-.23-.4-.445-.396l-2.51-.007 4.552-4.525c.207-.207.207-.544 0-.75s-.543-.21-.75 0zm11.373 5.752l-.01-3.835c-.006-.215-.183-.342-.398-.348l-.273-.002c-.215-.005-.385.182-.38.397l.015 2.574-4.57-4.542c-.207-.207-.544-.207-.75 0s-.208.544 0 .75l4.552 4.526-2.512.007c-.215-.004-.414.145-.446.397v.273c.006.215.184.392.398.397l3.81-.017.01.002.195.005c.107.003.204-.04.272-.11.07-.068.095-.164.093-.272l-.02-.194c0-.003.014-.006.014-.01zM1.827 1.085l2.51-.007c.216.005.415-.143.447-.396V.41C4.777.193 4.6.015 4.385.01L.56.028.547.026.354.02C.247.02.15.06.082.13.012.2-.013.295-.01.403l.02.194c0 .004-.015.006-.015.01l.01 3.835c.006.215.183.342.398.347h.29c.214.004.384-.183.38-.398l-.016-2.56 4.57 4.528c.207.207.544.207.75 0s.208-.544 0-.75L1.825 1.083z"/></svg>