<svg xmlns="http://www.w3.org/2000/svg" width="17" height="17" viewBox="0 0 17 17"><title>uniE007</title><path d="M8.5.6C3.82.6.01 4.41.01 9.09c0 2.94 1.49 5.63 3.984 7.195.248.157.576.08.732-.168s.08-.576-.168-.732c-.898-.564-1.644-1.296-2.215-2.14l.557-.322c.254-.147.34-.47.194-.726s-.473-.34-.726-.194l-.558.322c-.405-.84-.652-1.756-.72-2.713h.592c.294 0 .53-.238.53-.53s-.237-.532-.53-.532h-.59c.07-.974.33-1.898.74-2.732l.535.308c.083.048.175.07.265.07.184 0 .362-.094.46-.265.148-.253.06-.578-.193-.725L2.37 4.9c.533-.777 1.21-1.45 1.992-1.976l.3.518c.098.17.276.266.46.266.09 0 .182-.023.265-.07.254-.148.34-.472.194-.727l-.297-.515c.82-.395 1.72-.642 2.672-.71v.66c0 .295.238.532.53.532s.532-.238.532-.53V1.68c.973.068 1.895.322 2.73.73l-.29.5c-.146.253-.06.578.195.725.083.048.175.07.265.07.184 0 .362-.094.46-.265l.288-.497c.775.528 1.446 1.198 1.974 1.973l-.5.287c-.253.147-.34.47-.193.726.1.172.277.267.46.267.09 0 .183-.023.266-.07l.5-.29c.408.835.663 1.757.73 2.73h-.582c-.293 0-.53.238-.53.53s.238.532.53.532h.584c-.067.943-.31 1.85-.705 2.677l-.527-.304c-.254-.147-.58-.06-.726.194s-.06.58.194.726l.53.305c-.584.867-1.353 1.617-2.28 2.188-.25.154-.328.482-.175.73.1.164.274.254.453.254.095 0 .192-.025.278-.08 2.53-1.558 4.042-4.262 4.042-7.23 0-4.682-3.81-8.49-8.49-8.49zm3.92 6.833c.254-.147.34-.47.194-.726s-.472-.34-.726-.194L9.002 8.18c-.154-.088-.33-.142-.52-.142-.585 0-1.06.475-1.06 1.06s.475 1.06 1.06 1.06c.587 0 1.06-.476 1.06-1.06v-.004l2.878-1.66z"/></svg>