<svg xmlns="http://www.w3.org/2000/svg" width="17" height="17" viewBox="0 0 17 17"><title>uniE05C</title><path d="M3.48 14.664c-.333.694-.544 1.157-2.4 1.224.052-1.792.394-1.985 1.078-2.326.287-.143.645-.32 1.03-.618l-.646-.826c-.305.235-.587.358-.858.493-1.14.57-1.677 1.13-1.677 3.797l.01.543.52-.012c2.817 0 3.343-.636 3.87-1.732.117-.24.18-.402.376-.726l-.788-.716c-.236.322-.384.63-.514.9zm8.223-11.532c-1.175 0-2.13.956-2.13 2.13s.955 2.132 2.13 2.132 2.13-.956 2.13-2.13c0-1.176-.955-2.132-2.13-2.132zm0 3.194c-.586 0-1.064-.477-1.064-1.064s.476-1.064 1.063-1.064 1.064.478 1.064 1.064c0 .587-.477 1.064-1.064 1.064zm5.293-5.84c-.016-.264-.226-.477-.49-.496 0 0-2.974-.217-5.834.85-1.045.39-1.905 1.01-2.708 1.946-.67.78-1.335 2.192-1.922 3.364-.227.452-.444.885-.627 1.216H2.46c-.152 0-.296.065-.397.18L.116 9.655c-.125.14-.166.336-.108.515s.205.315.387.357l3.17.725c.216.267.576.666 1.152 1.305l1.2 1.33.648 2.736c.042.18.176.325.352.383.054.017.11.026.164.026.126 0 .25-.044.347-.128l1.968-1.958c.118-.1.186-.248.186-.403v-2.74c.266-.165.735-.42 1.176-.666 1.203-.672 3-1.51 3.743-2.17 1.047-.933 1.43-1.616 1.804-2.626.892-2.4.702-5.71.693-5.85zm-1.69 5.482c-.326.88-.623 1.408-1.514 2.2-.658.586-2.46 1.426-3.556 2.04-.82.457-1.31.724-1.524.9-.124.1-.195.252-.195.41v2.778l-1.12 1.232-.478-2.02c-.02-.086-.064-.166-.124-.232-.977-1.083-2.453-2.72-2.566-2.85-.074-.09-.176-.153-.292-.18L1.504 9.69l1.194-1.262H5.72c.185 0 .356-.096.453-.253.234-.38.505-.922.82-1.55.53-1.06 1.193-2.465 1.777-3.147.69-.806 1.392-1.312 2.273-1.64 1.96-.734 3.984-.81 4.91-.804.016.98-.02 3.25-.646 4.935z"/></svg>