<svg xmlns="http://www.w3.org/2000/svg" width="17" height="17" viewBox="0 0 17 17"><title>uniE00C</title><path d="M16.99 3.73c-.012-.17-.104-.322-.25-.413L12.007.362c-.193-.12-.44-.105-.615.038L8.5 2.74 5.606.4C5.43.258 5.183.242 4.992.362L.257 3.317c-.144.09-.237.244-.25.414s.06.336.19.445L2.938 6.48.59 8.326c-.135.105-.21.27-.204.44s.094.325.236.42l2.174 1.45c-.107.097-.175.236-.175.392v2.13c0 .186.097.357.254.454l5.345 3.03c.084.05.18.077.277.077s.193-.028.28-.08l5.282-3.03c.156-.096.252-.267.252-.45v-2.5c0-.034-.004-.068-.01-.1l2.06-1.373c.14-.094.228-.25.235-.42s-.068-.333-.202-.44l-2.34-1.844L16.8 4.177c.13-.11.2-.274.188-.444zm-4.76 2.756L8.5 8.823 4.77 6.486 8.5 4.058l3.73 2.428zM1.44 3.832l3.794-2.367 2.364 1.912-3.774 2.457-2.382-2zm2.377 3.31l3.75 2.35-2.125 1.628-3.62-2.412 1.995-1.566zm-.13 4.084l1.482.99c.187.125.436.116.616-.02l2.148-1.645v4.696l-4.25-2.385v-1.633zm9.565 1.634l-4.254 2.42V10.5l2.202 1.694c.095.073.21.11.324.11.103 0 .205-.03.295-.09l1.432-.955v1.6zm1.913-4.153l-3.62 2.413L9.43 9.494l3.75-2.35 1.984 1.564zm-1.99-2.873L9.403 3.377l2.364-1.912 3.793 2.367-2.384 2z"/></svg>