<svg xmlns="http://www.w3.org/2000/svg" width="17" height="17" viewBox="0 0 17 17"><title>uniE019</title><path d="M16.45 11.56V7.274l.267-.14c.174-.09.283-.27.285-.466s-.104-.377-.275-.47L8.734 1.92c-.16-.088-.353-.087-.514.002L.27 6.204c-.168.094-.273.273-.272.468s.108.372.28.464l3.492 1.86c-.044.076-.07.164-.07.26v4.495c0 .152.064.297.177.398.115.102 1.22.998 4.595.998 3.363 0 4.497-.846 4.615-.943.124-.1.195-.252.195-.41V9.18c0-.074-.016-.145-.043-.21l2.148-1.134v3.727c-.315.184-.53.522-.53.913 0 .587.477 1.063 1.064 1.063s1.063-.477 1.063-1.064c0-.393-.216-.733-.534-.916zm-4.23 1.927c-.42.2-1.524.596-3.75.596-2.238 0-3.318-.42-3.71-.623V9.523l3.45 1.837c.08.042.166.064.253.064.084 0 .17-.02.246-.06l3.51-1.855v3.977zM8.467 10.29L1.635 6.662l6.845-3.67 6.866 3.66-6.878 3.638z"/></svg>