<svg xmlns="http://www.w3.org/2000/svg" width="17" height="17" viewBox="0 0 17 17"><title>uniE073</title><path d="M7.472 3.286L15.86 8.5l-8.388 5.214v-4.1l-6.375 4.1V3.284l6.375 4.1V3.14m.044-.915c-.178 0-.377.044-.538.134-.337.187-.568.543-.568.93v2.188l-4.95-3.09c-.172-.107-.356-.16-.55-.16-.178 0-.262.043-.423.133-.337.187-.452.543-.452.93v10.428c0 .386.12.74.458.93.16.088.294.133.472.133.195 0 .345-.054.516-.16l4.93-3.092v2.19c0 .385.23.74.568.928.16.09.35.134.528.134.194 0 .395-.053.566-.16l8.39-5.214c.313-.194.504-.535.504-.902s-.19-.708-.5-.902l-8.39-5.214c-.17-.107-.365-.16-.56-.16z"/></svg>