<svg xmlns="http://www.w3.org/2000/svg" width="17" height="17" viewBox="0 0 17 17"><title>uniE07B</title><path d="M0 8.5C0 13.195 3.806 17 8.5 17S17 13.195 17 8.5C17 3.806 13.195 0 8.5 0S0 3.806 0 8.5zm15.954 0c0 4.1-3.353 7.438-7.454 7.438S1.062 12.6 1.062 8.5 4.4 1.062 8.5 1.062 15.954 4.4 15.954 8.5zm-7.99-3.724v5.984L6.04 8.838c-.206-.207-.543-.207-.75 0s-.207.544 0 .75l3.22 3.14 3.222-3.14c.104-.103.156-.24.156-.375s-.052-.272-.156-.376c-.207-.207-.544-.207-.75 0l-1.956 1.955V4.775c0-.294-.238-.53-.53-.53s-.533.237-.533.53z"/></svg>