<svg xmlns="http://www.w3.org/2000/svg" width="17" height="17" viewBox="0 0 17 17"><title>uniE05B</title><path d="M14.344 11.688c-.875 0-1.648.425-2.132 1.077L5.217 9.2c.06-.223.096-.457.096-.7 0-.304-.053-.594-.147-.866L12.2 4.22c.484.66 1.263 1.092 2.145 1.092 1.467 0 2.656-1.19 2.656-2.656S15.813 0 14.346 0 11.69 1.19 11.69 2.656c0 .206.025.406.07.6L4.622 6.717c-.486-.536-1.185-.874-1.966-.874C1.19 5.844 0 7.034 0 8.5s1.19 2.656 2.657 2.656c.845 0 1.596-.396 2.082-1.01l7.023 3.58c-.048.2-.075.405-.075.618 0 1.467 1.19 2.656 2.656 2.656S17 15.81 17 14.344s-1.19-2.656-2.656-2.656zm0-10.625c.88 0 1.594.714 1.594 1.594s-.714 1.594-1.594 1.594-1.594-.713-1.594-1.593.714-1.594 1.594-1.594zm-11.688 9.03c-.88 0-1.594-.713-1.594-1.593s.713-1.594 1.594-1.594c.88 0 1.594.714 1.594 1.594s-.714 1.594-1.594 1.594zm11.688 5.845c-.88 0-1.594-.714-1.594-1.594s.714-1.594 1.594-1.594 1.594.714 1.594 1.594-.714 1.594-1.594 1.594z"/></svg>