<svg xmlns="http://www.w3.org/2000/svg" width="17" height="17" viewBox="0 0 17 17"><title>uniE07F</title><path d="M15.406 3.72h-2.443l-1.275-2.126H5.313L4.038 3.72H1.594C1.064 3.72 0 4.25 0 5.295v8.516c0 .88.797 1.594 1.483 1.594H15.44c.696 0 1.56-.747 1.56-1.577V5.31c0-.53-.53-1.594-1.594-1.594zm.532 10.11c0 .21-.34.502-.498.514H1.487c-.123-.01-.424-.25-.424-.532V5.296c0-.337.452-.506.53-.515H4.64l1.274-2.124h5.207l.95 1.61.29.515h3.046c.375 0 .526.49.53.532v8.517zM8.5 5.312c-2.054 0-3.72 1.665-3.72 3.72S6.447 12.75 8.5 12.75s3.72-1.664 3.72-3.718-1.666-3.72-3.72-3.72zm0 6.375c-1.465 0-2.656-1.192-2.656-2.656S7.036 6.376 8.5 6.376s2.656 1.192 2.656 2.656-1.192 2.656-2.656 2.656z"/></svg>