<svg xmlns="http://www.w3.org/2000/svg" width="17" height="17" viewBox="0 0 17 17"><title>uniE05E</title><path d="M9.556 1.55c-.293 0-.53.24-.53.532s.237.53.53.53c3.76 0 6.382 2.748 6.382 6.507s-3.058 6.817-6.818 6.817S2.614 13.22 2.614 9.46c0-.292-.238-.53-.53-.53s-.532.238-.532.53c0 4.346 3.224 7.54 7.57 7.54S17 13.463 17 9.117c0-4.345-3.1-7.57-7.445-7.57zM7.973 7.443V.532c0-.293-.238-.53-.53-.53C3.302 0 0 3.304 0 7.44c0 .294.238.532.53.532h6.91c.294 0 .532-.238.532-.53zM6.91 6.91H1.084C1.34 3.78 3.78 1.34 6.91 1.084V6.91z"/></svg>