<svg xmlns="http://www.w3.org/2000/svg" width="17" height="17" viewBox="0 0 17 17"><title>uniE000</title><path d="M15.938 13.326l-4.623-2.192c.617-.31 3.026-.407 3.225-.95 0 0-.952-1.462-1.184-3.36-.09-.737-.245-1.703-.398-3.065C12.708 1.55 10.852 0 8.506 0h-.008C6.152 0 4.295 1.55 4.046 3.76c-.154 1.36-.308 2.327-.398 3.064-.232 1.898-1.184 3.36-1.184 3.36.2.543 2.608.64 3.225.95l-4.625 2.193S.003 13.7.003 14.58v1.403C.003 16.57.478 17 1.065 17H15.94c.588 0 1.063-.43 1.063-1.017V14.58c0-.88-1.062-1.253-1.062-1.253zM1.063 15.938v-1.36c0-.056.2-.192.364-.254.035-.012.057-.022.09-.04l4.623-2.19c.367-.175.603-.544.607-.95s-.223-.78-.586-.962c-.36-.18-.835-.27-1.58-.4-.177-.03-.42-.074-.653-.12.304-.682.64-1.637.772-2.717.032-.27.074-.57.12-.906.08-.57.18-1.294.278-2.163.185-1.64 1.582-2.815 3.397-2.815h.007c1.815 0 3.21 1.174 3.397 2.815.098.87.198 1.592.278 2.162.047.334.09.637.12.905.133 1.08.47 2.034.773 2.717-.234.047-.475.09-.652.12-.746.13-1.22.22-1.58.4-.364.182-.59.556-.587.962s.24.775.608.95l4.623 2.19c.034.017.056.027.09.04.164.062.34.198.365.255v1.357H1.06z"/></svg>