<svg xmlns="http://www.w3.org/2000/svg" width="17" height="17" viewBox="0 0 17 17"><title>uniE013</title><path d="M14.097 0H3.505C2.74 0 2.41.564 2.41 1.096V3.21h-.58c-.288 0-.52.233-.52.52s.232.52.52.52h.58v2.137h-.53c-.288 0-.52.233-.52.52s.232.52.52.52h.53v2.15h-.543c-.287 0-.52.232-.52.52s.233.52.52.52h.542v2.132h-.543c-.287 0-.52.232-.52.52s.233.52.52.52h.542v2.145c0 .88.69 1.063 1.07 1.063h10.617c.88 0 1.594-.713 1.594-1.594V1.59c0-.88-.712-1.593-1.593-1.593zM3.472 15.938v-2.146h.554c.287 0 .52-.233.52-.52s-.233-.52-.52-.52h-.554V10.62h.554c.287 0 .52-.234.52-.52s-.233-.52-.52-.52h-.554V7.43h.565c.287 0 .52-.233.52-.52s-.233-.52-.52-.52h-.565V4.253h.515c.287 0 .52-.233.52-.52s-.233-.52-.52-.52h-.515V1.1c0-.013 0-.024.003-.033h8.498V15.94h-8.5zm11.157-.532c0 .293-.24.53-.532.53h-1.063V1.063h1.063c.293 0 .53.238.53.53v13.814z"/></svg>