<svg xmlns="http://www.w3.org/2000/svg" width="17" height="17" viewBox="0 0 17 17"><title>uniE069</title><path d="M16.88 8.523L8.903.17c-.1-.105-.24-.163-.383-.163S8.24.067 8.14.17L.122 8.523c-.203.212-.196.548.016.75s.548.198.75-.015l.715-.744v7.95c0 .293.238.53.53.53h3.712c.293 0 .53-.237.53-.53l.018-5.307h4.233v5.305c0 .294.238.53.53.53h3.71c.295 0 .532-.237.532-.53V8.51l.714.748c.104.108.244.163.383.163.132 0 .265-.048.368-.147.21-.203.218-.54.015-.75zm-2.544-.972v8.382H11.69v-5.305c0-.294-.24-.53-.532-.53H5.864c-.293 0-.53.236-.53.53l-.018 5.306h-2.65v-8.38c0-.045-.008-.087-.018-.128l5.873-6.12 5.835 6.113c-.01.043-.02.087-.02.134z"/></svg>