<svg xmlns="http://www.w3.org/2000/svg" width="17" height="17" viewBox="0 0 17 17"><title>uniE021</title><path d="M12.97 10.08c-.27-.12-.583 0-.702.27-.01.023-1.098 2.393-3.81 2.425h-.05c-2.55 0-3.65-2.33-3.696-2.43-.12-.265-.435-.383-.703-.262s-.387.435-.266.703c.057.126 1.417 3.054 4.663 3.054h.064c3.386-.04 4.713-2.934 4.768-3.057.12-.268 0-.582-.268-.702zM8.5 0C3.805 0 0 3.805 0 8.5S3.805 17 8.5 17 17 13.195 17 8.5 13.195 0 8.5 0zm0 15.938c-4.1 0-7.438-3.337-7.438-7.438S4.4 1.062 8.5 1.062 15.938 4.4 15.938 8.5 12.6 15.938 8.5 15.938zM5.836 7.966c.585 0 1.06-.475 1.06-1.06s-.474-1.06-1.06-1.06c-.586 0-1.06.475-1.06 1.06s.474 1.06 1.06 1.06zm5.312 0c.585 0 1.06-.475 1.06-1.06s-.474-1.06-1.06-1.06c-.586 0-1.06.475-1.06 1.06s.474 1.06 1.06 1.06z"/></svg>