<svg xmlns="http://www.w3.org/2000/svg" width="17" height="17" viewBox="0 0 17 17"><title>uniE035</title><path d="M16.98 15.65l-1.386-8.364C15.47 6.202 14.482 5.32 13.39 5.32H12.22V3.904c0-2.16-1.54-3.92-3.702-3.92s-3.734 1.76-3.734 3.92V5.32H3.51c-1.092 0-2.08.882-2.2 1.943l-1.284 8.37c-.05.44.037.79.256 1.034.206.23.507.348.892.348h14.503c.546 0 .86-.22 1.027-.404.153-.168.326-.466.276-.96zM5.844 3.903c0-1.575 1.098-2.856 2.672-2.856s2.64 1.28 2.64 2.856V5.32H5.844V3.904zm9.88 12.04l-14.486.008c-.092 0-.184-.05-.162-.177l1.282-8.37c.064-.554.59-1.023 1.148-1.023H4.78v1.21c-.316.185-.53.524-.53.916 0 .587.475 1.063 1.062 1.063s1.063-.475 1.063-1.062c0-.392-.215-.73-.53-.915V6.38h5.31v1.213c-.315.184-.53.523-.53.915 0 .587.477 1.063 1.064 1.063s1.062-.475 1.062-1.062c0-.393-.215-.732-.532-.916v-1.21h1.173c.56 0 1.084.468 1.152 1.052l1.384 8.355c.006.067-.048.154-.203.154z"/></svg>