<svg xmlns="http://www.w3.org/2000/svg" width="17" height="17" viewBox="0 0 17 17"><title>uniE00F</title><path d="M13.815 0H3.185C2.305 0 1.59.713 1.59 1.594v13.813c0 .88.714 1.594 1.595 1.594h10.63c.88 0 1.594-.712 1.594-1.593V1.594C15.41.714 14.695 0 13.814 0zm.53 15.406c0 .293-.237.53-.53.53H3.185c-.293 0-.53-.237-.53-.53V1.593c0-.293.237-.53.53-.53h10.63c.293 0 .53.237.53.53v13.813zm-5.844-2.122c-.585 0-1.06.475-1.06 1.06s.475 1.06 1.06 1.06c.586 0 1.06-.475 1.06-1.06s-.473-1.06-1.06-1.06zm1.063-11.69H7.438c-.293 0-.53.238-.53.53s.237.532.53.532h2.125c.293 0 .53-.238.53-.53s-.237-.532-.53-.532z"/></svg>