<svg xmlns="http://www.w3.org/2000/svg" width="17" height="17" viewBox="0 0 17 17"><title>uniE02C</title><path d="M15.938 1.056H1.063C.476 1.056 0 1.532 0 2.118v9.587c0 .587.476 1.063 1.063 1.063H3.18v2.645c0 .214.13.407.326.49.066.028.137.04.205.04.138 0 .272-.052.373-.15l3.072-3.025h8.782c.587 0 1.063-.476 1.063-1.063V2.118c0-.587-.476-1.063-1.063-1.063zm0 10.65H6.72l-2.477 2.44v-2.44h-3.18V2.12h14.875v9.586zM3.718 7.454h9.564c.293 0 .53-.238.53-.53s-.237-.532-.53-.532H3.72c-.294 0-.532.238-.532.53s.238.532.53.532zm0-2.125h9.564c.293 0 .53-.24.53-.532s-.237-.53-.53-.53H3.72c-.294 0-.532.237-.532.53s.238.53.53.53zm0 4.25h6.376c.293 0 .53-.24.53-.532s-.237-.53-.53-.53H3.72c-.294 0-.532.237-.532.53s.238.53.53.53z"/></svg>