<svg xmlns="http://www.w3.org/2000/svg" width="17" height="17" viewBox="0 0 17 17"><title>uniE010</title><path d="M11.69 0H5.31c-.88 0-1.594.713-1.594 1.594v13.813c0 .88.713 1.594 1.594 1.594h6.38c.88 0 1.594-.712 1.594-1.593V1.594C13.284.714 12.57 0 11.69 0zm.53 15.406c0 .293-.237.53-.53.53H5.31c-.293 0-.53-.237-.53-.53V1.593c0-.293.237-.53.53-.53h6.38c.293 0 .53.237.53.53v13.813zM8.5 13.284c-.585 0-1.06.475-1.06 1.06s.475 1.06 1.06 1.06c.587 0 1.06-.475 1.06-1.06s-.473-1.06-1.06-1.06zm1.063-11.69H7.438c-.293 0-.53.238-.53.53s.237.532.53.532h2.125c.293 0 .53-.238.53-.53s-.237-.532-.53-.532z"/></svg>