<svg xmlns="http://www.w3.org/2000/svg" width="17" height="17" viewBox="0 0 17 17"><title>users</title><path d="M12.385 13.867L9.04 12.014c1.243-.978 1.58-2.9 1.58-3.978V5.793c0-1.485-1.973-3.14-3.955-3.14s-4.008 1.655-4.008 3.14v2.243c0 .98.415 2.962 1.67 3.97l-3.43 1.86s-.896.4-.896.898v1.346c0 .495.403.898.897.898h11.488c.495 0 .897-.402.897-.898v-1.346c0-.528-.897-.898-.897-.898zm-.166 2.08H1.06v-.95c.076-.057.183-.12.267-.16.024-.01.05-.022.073-.036l3.43-1.86c.314-.17.52-.484.553-.84s-.116-.7-.394-.923c-.89-.714-1.273-2.296-1.273-3.14V5.794c0-.763 1.438-2.077 2.944-2.077 1.535 0 2.893 1.296 2.893 2.077v2.243c0 .832-.258 2.42-1.175 3.142-.28.22-.432.567-.402.923s.237.673.55.844l3.345 1.853c.03.016.067.034.098.047.078.033.175.09.245.138v.96zm3.883-4.725L12.71 9.37c1.242-.98 1.63-2.9 1.63-3.98V3.15c0-1.485-2.023-3.156-4.006-3.156-1.288 0-2.606.7-3.372 1.597.437.026.92.027 1.336.16.56-.437 1.268-.696 2.036-.696 1.535 0 2.943 1.312 2.943 2.094V5.39c0 .833-.308 2.422-1.225 3.143-.28.22-.432.568-.402.924s.237.673.55.844l3.394 1.854c.03.016.067.034.098.047.078.034.175.09.245.14v.944h-2.145c.324.244.422.594.547 1.063H16.1c.495 0 .897-.402.897-.898v-1.33c0-.53-.898-.9-.898-.9z"/></svg>