<svg xmlns="http://www.w3.org/2000/svg" width="17" height="17" viewBox="0 0 17 17"><title>vector</title><path d="M16.47 11.156h-.537v-.027c0-2.69-1.436-5.045-3.58-6.35h2.67c.184.317.523.532.915.532.587 0 1.063-.476 1.063-1.063s-.475-1.064-1.062-1.064c-.392 0-.73.215-.915.53h-4.93v-.53c0-.293-.237-.53-.53-.53H7.438c-.293 0-.53.237-.53.53v.53h-4.93c-.184-.315-.523-.53-.915-.53C.476 3.186 0 3.662 0 4.25S.476 5.31 1.063 5.31c.392 0 .73-.215.915-.53h2.67c-2.144 1.304-3.58 3.66-3.58 6.347v.026H.532c-.293 0-.53.238-.53.53v2.126c0 .293.237.53.53.53h2.125c.293 0 .53-.237.53-.53v-2.125c0-.293-.237-.53-.53-.53H2.13v-.028c0-2.964 2.033-5.457 4.777-6.167v.35c0 .292.238.53.53.53h2.126c.293 0 .53-.238.53-.53v-.35c2.745.71 4.778 3.203 4.778 6.166v.026h-.526c-.293 0-.53.238-.53.53v2.126c0 .293.237.53.53.53h2.125c.292 0 .53-.237.53-.53v-2.125c0-.293-.238-.53-.53-.53zM2.124 13.28H1.062V12.22h1.063v1.063zm6.906-8.5H7.97V3.72H9.03V4.78zm6.908 8.5h-1.063V12.22h1.063v1.063z"/></svg>