<svg xmlns="http://www.w3.org/2000/svg" xmlns:xlink="http://www.w3.org/1999/xlink" viewBox="0 123.3 595.3 595.3" enable-background="new 0 123.3 595.3 595.3" width="26" height="26"><image overflow="visible" opacity=".2" enable-background="new" width="502" height="502" xlink:href="38EE46B1C5026B36.png" transform="matrix(1.191 0 0 1.191 -1.191 122.114)"/><path fill="#006A8D" d="M90.1 666.2c-39.9 0-72.3-32.5-72.3-72.4V213.4c0-39.9 32.4-72.3 72.3-72.3h380.4c39.9 0 72.3 32.5 72.3 72.3v380.4c0 39.9-32.5 72.3-72.3 72.3H90.1v.1z"/><path fill="#fff" d="M470.5 159c30 0 54.4 24.4 54.4 54.4v380.4c0 30-24.4 54.4-54.4 54.4H90.1c-30 .1-54.4-24.3-54.4-54.4V213.4c0-30 24.4-54.4 54.4-54.4h380.4m0-35.7H90.1C40.4 123.3 0 163.7 0 213.4v380.4C0 643.6 40.4 684 90.1 684h380.4c49.8 0 90.1-40.5 90.1-90.1V213.4c.2-49.7-40.3-90.1-90.1-90.1zM211.3 541.8V265.6l138.1 138.1z"/></svg>