<svg xmlns="http://www.w3.org/2000/svg" viewBox="0 0 500 392.9" enable-background="new 0 0 500 392.9" width="16" height="16"><g fill="#4D4D4D"><path d="M48 121.1c6.3 4.4 25.3 17.7 57.1 39.8s56.1 38.9 73.1 50.8c1.9 1.4 5.8 4.1 11.9 8.5 6.1 4.4 11.1 8 15.1 10.5 4.1 2.7 8.8 5.8 14.5 9 5.6 3.4 11.1 5.8 16 7.5 5.1 1.7 9.7 2.6 13.9 2.6h.6c4.3 0 8.8-.9 13.9-2.6 5.1-1.7 10.4-4.3 16-7.5 5.6-3.4 10.5-6.3 14.5-9 4.1-2.7 9-6.3 15.1-10.5 6.1-4.3 10-7.1 11.9-8.5 17.2-11.9 60.7-42.2 130.6-90.6 13.6-9.5 25-20.9 34-34.4 9.2-13.4 13.6-27.4 13.6-42.2 0-12.2-4.4-22.8-13.3-31.5-8.6-8.6-19-13-31.2-13H44.6c-14.3 0-25.3 4.8-33 14.5S0 36.2 0 50.7c0 11.7 5.1 24.5 15.3 38.1 10.2 13.7 21.1 24.5 32.7 32.3zM471.9 151c-61.1 41.3-107.3 73.3-138.9 96.3-10.5 7.8-19.2 13.9-25.9 18.2-6.6 4.4-15.3 8.8-26.4 13.4-11.1 4.6-21.3 6.8-30.6 6.8h-.4c-9.5 0-19.7-2.2-30.6-6.8-11.1-4.6-19.7-9-26.4-13.4-6.6-4.4-15.1-10.5-25.9-18.2-25.2-18.4-71.3-50.5-138.6-96.3-10.5-7.1-20-15.1-28.2-24.3v221.6c0 12.2 4.4 22.8 13.1 31.5s19.2 13.1 31.5 13.1h410.7c12.2 0 22.8-4.4 31.5-13.1s13.1-19.2 13.1-31.5V126.7c-7.9 8.8-17.3 17-28 24.3z"/></g></svg>