<svg xmlns="http://www.w3.org/2000/svg" viewBox="0 0 500 184.6" enable-background="new 0 0 500 184.6" width="16" height="16"><path fill="#fff" d="M32.1 184.6H120c17.5 0 31.7-14.8 31.7-32.9v-44.3c2.2-.6 4.4-1.3 6.8-1.9 21.7-6.2 51.5-14.7 91.7-14.7 40.4 0 70.2 8.5 91.9 14.8 2.3.7 4.5 1.3 6.6 1.9v44.3c0 18.1 14.2 32.9 31.7 32.9h87.9c17.5 0 31.7-14.8 31.7-32.9l-.7-24.8c-1.1-9.4-3.8-19-7.8-28.2-3.9-8.7-8.4-16.1-13.7-22.8C435.5 22 369.5 0 250.2 0 85.4 0 25.1 72.7 22.6 75.8c-5.5 7-10 14.5-13.7 22.9-4 9.1-6.6 18.7-7.8 28.1H.6l-.3 24.8c.1 18.2 14.3 33 31.8 33z"/></svg>