<svg xmlns="http://www.w3.org/2000/svg" viewBox="0 187 595.3 467.9" enable-background="new 0 187 595.3 467.9" width="16" height="16"><path d="M57.1 331.2c7.5 5.2 30.1 21.1 68 47.4 37.9 26.3 66.8 46.3 87 60.5 2.3 1.7 6.9 4.9 14.2 10.1 7.3 5.2 13.2 9.5 18 12.5 4.9 3.2 10.5 6.9 17.3 10.7 6.7 4 13.2 6.9 19 8.9 6.1 2 11.5 3.1 16.5 3.1h.8c5.1 0 10.5-1.1 16.5-3.1 6.1-2 12.4-5.1 19-8.9 6.7-4 12.5-7.5 17.3-10.7 4.9-3.2 10.7-7.5 18-12.5 7.3-5.1 11.9-8.5 14.2-10.1 20.5-14.2 72.3-50.2 155.5-107.9 16.2-11.3 29.8-24.9 40.5-41 11-16 16.2-32.6 16.2-50.2 0-14.5-5.2-27.1-15.8-37.5-10.3-10.3-22.7-15.5-37.2-15.5h-489c-17 0-30.1 5.7-39.3 17.3S0 230.2 0 247.5c0 13.9 6.1 29.2 18.2 45.4 12.2 16.3 25.1 29.1 38.9 38.3zM561.8 366.9c-72.7 49.2-127.7 87.3-165.4 114.7-12.5 9.3-22.9 16.5-30.8 21.7-7.9 5.2-18.2 10.5-31.4 16s-25.4 8.1-36.4 8.1h-.5c-11.3 0-23.5-2.6-36.4-8.1-13.2-5.5-23.5-10.7-31.4-16-7.9-5.2-18-12.5-30.8-21.7-30-21.9-84.9-60.1-165-114.7-12.6-8.5-23.9-18-33.7-28.9v263.8c0 14.5 5.2 27.1 15.6 37.5s22.9 15.6 37.5 15.6h489c14.5 0 27.1-5.2 37.5-15.6 10.4-10.4 15.6-22.9 15.6-37.5V338c-9.4 10.4-20.6 20.2-33.4 28.9z"/></svg>