<svg xmlns="http://www.w3.org/2000/svg" viewBox="0 0 500 500" enable-background="new 0 0 500 500" width="16" height="16"><path d="M406.1 437.4v31.2c0 17.3-14 31.2-31.2 31.2H125c-17.2 0-31.2-14-31.2-31.2v-31.2C42 437.4 0 395.4 0 343.6v-93.7c0-51.8 42-93.7 93.7-93.7v-125C93.7 14 107.7 0 125 0h249.9c17.3 0 31.2 14 31.2 31.2v125c51.7 0 93.7 42 93.7 93.7v93.7c0 51.8-41.9 93.8-93.7 93.8zM125 468.6h249.9v-125H125v125zM374.9 31.2H125v125h31.2V62.5h187.4v93.7h31.2v-125zM187.4 93.7v62.5h125V93.7h-125zm187.5 125h-31.2v31.2h31.2v-31.2zm0 62.5H125c-34.5 0-62.5 28-62.5 62.5v31.2h31.2v-31.2c0-17.3 14-31.2 31.2-31.2h249.9c17.3 0 31.2 14 31.2 31.2v31.2h31.2v-31.2c.2-34.5-27.8-62.5-62.3-62.5zm62.5-62.5h-31.2v31.2h31.2v-31.2z"/></svg>