<svg xmlns="http://www.w3.org/2000/svg" width="32" height="32" viewBox="0 0 32 32"><path fill="#c00" d="M16 0C7.2 0 0 7.2 0 16s7.2 16 16 16 16-7.2 16-16S24.9 0 16 0z"/><g fill="#fff"><path d="M17.8 18.9c1.2-.5 2.2-1.2 2.9-2.1.7-.9 1.1-1.9 1.1-2.9s-.4-2-1.1-2.9c-.7-1-1.6-1.7-2.9-2.2-1.2-.5-2.6-.8-4-.8s-2.8.3-4 .8C8.6 9.3 7.7 10 7 10.9c-.7.9-1.1 1.9-1.1 2.9 0 .9.3 1.7.8 2.5s1.3 1.5 2.2 2c-.1.2-.2.3-.2.5-.1.2-.2.3-.3.4l-.3.3c0 .2-.1.3-.3.5l-.3.3v.1s0 .1-.1.1v.6c0 .1.1.2.1.2.1.1.1.1.2.1.4-.1.7-.1 1-.2 1.2-.3 2.2-.8 3.1-1.4.7.1 1.3.2 2 .2 1.5-.4 2.8-.6 4-1.1zm-6.3-1l-.5.4c-.2.1-.4.3-.7.4l.4-1-1.1-.6c-.7-.4-1.3-.9-1.7-1.5-.4-.6-.6-1.2-.6-1.8 0-.8.3-1.5.9-2.2.6-.7 1.4-1.2 2.4-1.6 1-.4 2.1-.6 3.2-.6s2.2.2 3.2.6c1 .4 1.8.9 2.4 1.6.6.7.9 1.4.9 2.2 0 .8-.3 1.5-.9 2.2-.6.7-1.4 1.2-2.4 1.6-1 .4-2.1.6-3.2.6-.6 0-1.1-.1-1.7-.2l-.6-.1zM25.3 19.3c.5-.8.8-1.6.8-2.5 0-.9-.3-1.8-.8-2.6-.6-.8-1.3-1.5-2.3-2 .2.6.3 1.1.3 1.7 0 1-.3 2-.8 2.9-.5.9-1.2 1.7-2.2 2.4-.9.6-1.9 1.1-3 1.5-1.1.3-2.3.5-3.5.5h-1c1.5 1 3.3 1.5 5.3 1.5.6 0 1.3-.1 2-.2.9.7 2 1.1 3.1 1.4.3.1.6.1 1 .2.1 0 .2 0 .2-.1.1-.1.1-.1.1-.2v-.6l-.1-.1V23l-.3-.3c-.1-.1-.2-.3-.3-.3-.1-.1-.1-.2-.3-.3-.1-.1-.2-.3-.3-.4-.1-.2-.2-.3-.2-.5 1.1-.5 1.8-1.1 2.3-1.9z"/></g></svg>