<svg xmlns="http://www.w3.org/2000/svg" viewBox="0 0 500 500" enable-background="new 0 0 500 500" width="28" height="28"><path fill="#fff" d="M394.5 160.5c-10.6 4.7-22 7.9-34 9.3 12.2-7.3 21.6-18.9 26-32.8-11.4 6.8-24.1 11.7-37.6 14.4-10.8-11.5-26.2-18.7-43.2-18.7-32.7 0-59.2 26.5-59.2 59.2 0 4.6.5 9.2 1.5 13.5-49.2-2.5-92.9-26-122.1-61.9-5.1 8.7-8 18.9-8 29.8 0 20.5 10.5 38.7 26.3 49.3-9.7-.3-18.8-3-26.8-7.4v.7c0 28.7 20.4 52.6 47.5 58.1-5 1.4-10.2 2.1-15.6 2.1-3.8 0-7.5-.4-11.1-1.1 7.5 23.5 29.4 40.7 55.3 41.1-20.3 15.9-45.8 25.4-73.6 25.4-4.8 0-9.5-.3-14.1-.8 26.2 16.8 57.3 26.6 90.8 26.6 108.9 0 168.5-90.2 168.5-168.5 0-2.6-.1-5.1-.2-7.7 11.6-8.3 21.6-18.8 29.6-30.6z"/></svg>