<svg xmlns="http://www.w3.org/2000/svg" width="28" height="28" viewBox="-283 406.9 28 28" enable-background="new -283 406.9 28 28"><path fill="#fff" d="M-269 412.3c-4.9 0-8.9 3.5-8.9 7.8 0 2.2 1.1 4.2 2.7 5.6-.3 2.1-2.7 2.9-2.5 3.5 2 .9 5.9-.9 6.9-1.4.6.1 1.3.2 1.9.2 4.9 0 8.8-3.6 8.8-7.9s-4-7.8-8.9-7.8z"/><path fill="#6DAF2B" d="M-269.4 404.8c-8.8 0-16 7.2-16 16s7.2 16 16 16 16-7.2 16-16-7.2-16-16-16zm.5 23.2c-.6 0-1.3-.1-1.9-.2-1 .5-4.9 2.3-6.9 1.4-.2-.6 2.2-1.4 2.5-3.5-1.6-1.4-2.7-3.4-2.7-5.6 0-4.3 4-7.8 8.9-7.8s8.9 3.5 8.9 7.8-3.9 7.9-8.8 7.9z"/></svg>