<svg xmlns="http://www.w3.org/2000/svg" viewBox="66.1 123.3 529.2 595" enable-background="new 66.1 123.3 529.2 595" width="32" height="32"><path fill="#fff" d="M496.1 520.4c-22.7 0-43.6 7.7-60.4 20.6L263 437.4c.8-5.4 1.4-10.7 1.4-16.2 0-5.6-.6-11-1.4-16.2l172.8-103.6c16.8 12.9 37.6 20.6 60.4 20.6 54.8 0 99.2-44.4 99.2-99.2s-44.4-99.5-99.2-99.5-99.2 44.4-99.2 99.2c0 5.6.6 11 1.4 16.2L225.6 342.2c-16.8-12.9-37.6-20.6-60.4-20.6-54.8 0-99.2 44.4-99.2 99.2s44.4 99.2 99.2 99.2c22.7 0 43.6-7.7 60.4-20.6L398.4 603c-.8 5.4-1.4 10.7-1.4 16.2 0 54.8 44.4 99.2 99.2 99.2s99.2-44.4 99.2-99.2-44.5-98.8-99.3-98.8z"/></svg>