<svg xmlns="http://www.w3.org/2000/svg" viewBox="0 0 500 500" enable-background="new 0 0 500 500" width="28" height="28"><path fill="#1985BC" d="M250 0C111.9 0 0 111.9 0 250s111.9 250 250 250 250-111.9 250-250S388.1 0 250 0z"/><g fill="#fff"><path d="M110.6 201.7h59.8v192.2h-59.8V201.7zm29.9-95.6c19.1 0 34.6 15.5 34.6 34.6s-15.5 34.6-34.6 34.6-34.6-15.5-34.6-34.6c0-19 15.5-34.6 34.6-34.6"/><path d="M207.9 201.7h57.3v26.2h.8c8-15.1 27.5-31 56.5-31 60.4 0 71.6 39.8 71.6 91.6v105.4h-59.7v-93.5c0-22.3-.4-51-31-51-31.1 0-35.8 24.3-35.8 49.3v95.1h-59.7V201.7z"/></g></svg>