<svg xmlns="http://www.w3.org/2000/svg" viewBox="0 0 500 500" enable-background="new 0 0 500 500" width="28" height="28"><path fill="#FE9900" d="M250 0C111.9 0 0 111.9 0 250s111.9 250 250 250 250-111.9 250-250S388.1 0 250 0z"/><g fill="#fff"><path d="M106.1 106v55.2c128.2 0 232.6 104.5 232.6 232.8H394c0-158.8-129.2-288-287.9-288zM106 203.8V259c36 0 69.7 14.1 95.2 39.5 25.4 25.4 39.5 59.4 39.5 95.5h55.5c-.1-104.9-85.4-190.2-190.2-190.2zM144.3 317.2c-21.2 0-38.3 17.2-38.3 38.3 0 21.2 17.2 38.2 38.3 38.2 21.2 0 38.4-17.1 38.4-38.2 0-21-17.2-38.3-38.4-38.3z"/></g></svg>