<svg xmlns="http://www.w3.org/2000/svg" viewBox="0 0 500 500" enable-background="new 0 0 500 500" width="28" height="28"><path fill="#c00" d="M250 0C111.9 0 0 111.9 0 250s111.9 250 250 250 250-111.9 250-250S388.1 0 250 0z"/><g fill="#fff"><path d="M131.2 205.7c3.7 2.6 14.9 10.4 33.6 23.4s33 22.9 43 29.9c1.1.8 3.4 2.4 7 5s6.5 4.7 8.9 6.2c2.4 1.6 5.2 3.4 8.5 5.3 3.3 2 6.5 3.4 9.4 4.4 3 1 5.7 1.5 8.2 1.5h.4c2.5 0 5.2-.5 8.2-1.5s6.1-2.5 9.4-4.4c3.3-2 6.2-3.7 8.5-5.3 2.4-1.6 5.3-3.7 8.9-6.2s5.9-4.2 7-5c10.1-7 35.7-24.8 76.8-53.3 8-5.6 14.7-12.3 20-20.2 5.4-7.9 8-16.1 8-24.8 0-7.2-2.6-13.4-7.8-18.5-5.2-5.1-11.3-7.7-18.5-7.7H129.2c-8.4 0-14.9 2.8-19.4 8.5s-6.8 12.8-6.8 21.3c0 6.9 3 14.4 9 22.4 6 8.1 12.4 14.4 19.2 19zM380.5 223.3c-35.9 24.3-63.1 43.1-81.7 56.6-6.2 4.6-11.3 8.2-15.2 10.7-3.9 2.6-9 5.2-15.5 7.9s-12.5 4-18 4H249.8c-5.6 0-11.6-1.3-18-4-6.5-2.7-11.6-5.3-15.5-7.9s-8.9-6.2-15.2-10.7c-14.8-10.8-41.9-29.7-81.5-56.6-6.2-4.2-11.8-8.9-16.6-14.3v130.3c0 7.2 2.6 13.4 7.7 18.5s11.3 7.7 18.5 7.7h241.5c7.2 0 13.4-2.6 18.5-7.7s7.7-11.3 7.7-18.5V209c-4.6 5.2-10.1 10-16.4 14.3z"/></g></svg>