<svg xmlns="http://www.w3.org/2000/svg" viewBox="0 123.3 595.3 595.3" enable-background="new 0 123.3 595.3 595.3" width="32" height="32"><path fill="#fff" stroke="#000" stroke-miterlimit="10" d="M71 278.9h462v277H71z"/><path fill="#97C21C" d="M297.8 123.3C133.3 123.3.1 256.5.1 420.9s133.2 297.6 297.6 297.6 297.6-133.2 297.6-297.6-133.1-297.6-297.5-297.6zm185 376h-74.5c-14.9 0-26.9-12.5-26.9-27.9v-37.6c-1.8-.5-3.7-1.1-5.6-1.7-18.5-5.4-43.7-12.5-78-12.5-34.1 0-59.4 7.3-77.7 12.5-2 .5-3.9 1.1-5.7 1.7v37.6c0 15.4-12 27.9-26.9 27.9H113c-14.9 0-26.9-12.5-27-28l.2-21.1h.5c1.1-8 3.2-16.1 6.7-23.8 3.1-7.1 6.9-13.5 11.7-19.4 2.1-2.6 53.2-64.3 193-64.3 101.2 0 157.2 18.7 193 64.4 4.5 5.7 8.3 11.9 11.7 19.3 3.3 7.9 5.7 16 6.7 23.9l.6 21.1c-.4 15.3-12.4 27.9-27.3 27.9z"/></svg>