<svg xmlns="http://www.w3.org/2000/svg" viewBox="0 123.3 595.3 595.3" enable-background="new 0 123.3 595.3 595.3" width="32" height="32"><g fill="#4D4D4D"><path d="M156.2 368.2c4.4 3.1 17.7 12.4 40 27.9 22.3 15.5 39.3 27.3 51.2 35.6 1.3 1 4 2.9 8.3 6 4.3 3.1 7.7 5.6 10.6 7.4 2.9 1.9 6.2 4 10.1 6.3 3.9 2.4 7.7 4 11.2 5.2 3.6 1.2 6.8 1.8 9.8 1.8h.4c3 0 6.2-.6 9.8-1.8s7.3-3 11.2-5.2c3.9-2.4 7.4-4.4 10.1-6.3 2.9-1.9 6.3-4.4 10.6-7.4s7-5 8.3-6c12-8.3 42.5-29.5 91.4-63.5 9.5-6.7 17.5-14.6 23.8-24 6.4-9.4 9.5-19.2 9.5-29.5 0-8.6-3.1-16-9.3-22-6.2-6.1-13.5-9.2-22-9.2H153.8c-10 0-17.7 3.3-23.1 10.1-5.4 6.8-8.1 15.2-8.1 25.4 0 8.2 3.6 17.1 10.7 26.7 7.2 9.5 14.8 17 22.9 22.5zM453 389.2c-42.7 28.9-75.1 51.3-97.3 67.4-7.4 5.5-13.5 9.8-18.1 12.7-4.6 3.1-10.7 6.2-18.5 9.4-7.7 3.2-14.9 4.8-21.4 4.8H297.4c-6.7 0-13.8-1.5-21.4-4.8-7.7-3.2-13.8-6.3-18.5-9.4-4.6-3.1-10.6-7.4-18.1-12.7-17.6-12.9-49.9-35.4-97-67.4-7.4-5-14-10.6-19.8-17v155.1c0 8.6 3.1 16 9.2 22 6.1 6.1 13.5 9.2 22 9.2h287.5c8.6 0 16-3.1 22-9.2 6.1-6.1 9.2-13.5 9.2-22V372.1c-5.4 6.2-12 11.9-19.5 17.1z"/></g></svg>