<svg xmlns="http://www.w3.org/2000/svg" viewBox="0 123.3 595.3 595.3" enable-background="new 0 123.3 595.3 595.3" width="32" height="32"><path fill="#fff" stroke="#000" stroke-miterlimit="10" d="M91 245.9h394v354H91z"/><path fill="#c00" d="M297.6 123.3C133.2 123.3 0 256.5 0 420.9s133.2 297.6 297.6 297.6 297.6-133.2 297.6-297.6-133.1-297.6-297.6-297.6zm174.9 404c0 8.6-3.1 16-9.2 22-6.1 6.1-13.5 9.2-22 9.2H153.8c-8.6 0-16-3.1-22-9.2-6.1-6.1-9.2-13.5-9.2-22V372.1c5.7 6.4 12.4 12 19.8 17 47.1 32 79.4 54.5 97 67.4 7.5 5.4 13.5 9.6 18.1 12.7 4.6 3.1 10.7 6.2 18.5 9.4 7.6 3.2 14.8 4.8 21.4 4.8H297.7c6.5 0 13.7-1.5 21.4-4.8 7.7-3.2 13.8-6.3 18.5-9.4 4.6-3 10.7-7.3 18.1-12.7 22.1-16.1 54.5-38.5 97.3-67.4 7.5-5.1 14-10.8 19.5-17v155.2zm-9.4-183.1c-6.3 9.4-14.3 17.4-23.8 24-48.9 33.9-79.4 55.1-91.4 63.5-1.3 1-4 3-8.3 6-4.3 3-7.7 5.5-10.6 7.4-2.7 1.9-6.2 3.9-10.1 6.3-3.9 2.3-7.6 4-11.2 5.2-3.6 1.2-6.8 1.8-9.8 1.8h-.4c-3 0-6.2-.6-9.8-1.8-3.5-1.2-7.3-2.9-11.2-5.2-3.9-2.3-7.3-4.4-10.1-6.3-2.9-1.8-6.3-4.3-10.6-7.4-4.3-3.1-7-5-8.3-6-11.9-8.3-28.9-20.1-51.2-35.6-22.3-15.5-35.6-24.8-40-27.9-8.1-5.5-15.7-13-22.9-22.6-7.1-9.5-10.7-18.5-10.7-26.7 0-10.1 2.7-18.6 8.1-25.4 5.4-6.8 13.1-10.1 23.1-10.1h287.5c8.6 0 15.8 3.1 22 9.2 6.2 6.1 9.3 13.5 9.3 22 0 10.4-3.1 20.1-9.6 29.6z"/></svg>