<svg xmlns="http://www.w3.org/2000/svg" viewBox="0 123.3 595.3 595.3" enable-background="new 0 123.3 595.3 595.3" width="32" height="32"><path fill="#4D4D4D" d="M468.7 314.7c-12.6 5.6-26.2 9.4-40.5 11.1 14.5-8.7 25.7-22.5 31-39.1-13.6 8.1-28.7 13.9-44.8 17.1-12.9-13.7-31.2-22.3-51.4-22.3-38.9 0-70.5 31.5-70.5 70.5 0 5.5.6 11 1.8 16.1-58.6-3-110.6-31-145.4-73.7-6.1 10.4-9.5 22.5-9.5 35.5 0 24.4 12.5 46.1 31.3 58.7-11.5-.4-22.4-3.6-31.9-8.8v.8c0 34.2 24.3 62.6 56.6 69.2-6 1.7-12.1 2.5-18.6 2.5-4.5 0-8.9-.5-13.2-1.3 8.9 28 35 48.5 65.8 48.9-24.2 18.9-54.5 30.2-87.6 30.2-5.7 0-11.3-.4-16.8-1 31.2 20 68.2 31.7 108.1 31.7 129.7 0 200.6-107.4 200.6-200.6 0-3.1-.1-6.1-.2-9.2 13.7-9.8 25.7-22.3 35.2-36.3z"/></svg>