<svg xmlns="http://www.w3.org/2000/svg" viewBox="0 123.3 595.3 595.3" enable-background="new 0 123.3 595.3 595.3" width="32" height="32"><g fill="#4D4D4D"><path d="M131.7 363.4h71.2v228.8h-71.2V363.4zm35.6-113.8c22.7 0 41.2 18.5 41.2 41.2 0 22.7-18.5 41.2-41.2 41.2s-41.2-18.5-41.2-41.2c0-22.7 18.4-41.2 41.2-41.2"/><path d="M247.5 363.4h68.2v31.2h1c9.5-18 32.7-36.9 67.3-36.9 71.9 0 85.2 47.4 85.2 109.1v125.5h-71.1V480.9c0-26.5-.5-60.7-36.9-60.7-37 0-42.6 28.9-42.6 58.7v113.2h-71.1V363.4z"/></g></svg>