<svg xmlns="http://www.w3.org/2000/svg" viewBox="0 123.3 595.3 595.2" enable-background="new 0 123.3 595.3 595.2" width="32" height="32"><g><path fill="#fff" d="M95 220.9h400v393H95z"/><path fill="#006A8D" d="M297.6 123.3C133.2 123.3 0 256.5 0 420.9s133.2 297.6 297.6 297.6 297.6-133.2 297.6-297.6-133.1-297.6-297.6-297.6zm168 269.5L396.9 472l10.5 98.8c1.2 10.8-6.3 17.1-16.8 13.9l-92.9-28.2-92.9 28.2c-10.5 3.1-18-3.1-16.8-13.9l10.5-98.8-68.7-79.2c-7.1-8.2-4.3-16.9 6.3-19.3l93.1-21.3 57.7-88.9c6-9.2 15.5-9.2 21.4 0l57.7 88.9 93.1 21.3c10.8 2.4 13.7 11.1 6.5 19.3z"/></g></svg>