<svg xmlns="http://www.w3.org/2000/svg" viewBox="0 123.3 595.3 595.3" enable-background="new 0 123.3 595.3 595.3" width="32" height="32"><path fill="#fff" d="M102 235.9h381v379H102z"/><g fill="#25CEF5"><path d="M369.5 416.4c-7.6-5-17.1-9.3-28-12.7-10.7-3.5-23-6.7-36.2-9.4-10.5-2.4-18.1-4.3-22.6-5.6-4.4-1.2-8.8-3-13.2-5.1-4.2-2-7.4-4.5-9.8-7.4-2.1-2.7-3.2-5.8-3.2-9.5 0-6.1 3.3-11.2 10.1-15.7 7-4.6 16.7-7 28.3-7 12.6 0 21.8 2.1 27.3 6.3 5.7 4.3 10.6 10.4 14.6 18.2 3.6 6.1 6.7 10.2 9.8 13 3.3 2.9 8 4.4 14 4.4 6.7 0 12.3-2.4 16.8-7 4.4-4.6 6.7-9.9 6.7-15.8 0-6.1-1.7-12.4-5.1-18.7-3.3-6.2-8.7-12.3-16-17.9-7.1-5.6-16.2-10.1-27-13.5-10.7-3.3-23.6-5-38.2-5-17.7.4-33.9 2.9-47.5 7.9-13.7 5.1-24.4 12.5-31.8 22-7.4 9.6-11.1 20.7-11.1 33.1 0 13 3.6 23.9 10.6 32.7 6.9 8.7 16.3 15.6 28.1 20.6 11.4 4.9 25.8 9.2 42.9 12.9 12.5 2.6 22.6 5.1 30 7.4 7.1 2.3 13 5.5 17.5 9.6 4.3 3.9 6.3 9 6.3 15.5 0 8.2-3.9 14.9-12.1 20.4-8.3 5.7-19.4 8.6-33 8.6-9.9 0-17.9-1.4-23.8-4.3-6-2.7-10.5-6.3-13.7-10.6-3.3-4.4-6.5-10-9.4-16.7-2.6-6.1-5.8-10.8-9.6-14-3.9-3.3-8.8-5-14.4-5-6.9 0-12.6 2.1-17 6.3-4.5 4.3-6.8 9.4-6.8 15.5 0 9.6 3.6 19.5 10.5 29.5 6.9 9.9 16 18 26.9 23.9 15.4 8.1 35.1 12.3 58.6 12.3 19.5 0 36.8-3 51.1-8.9 14.5-6.1 25.7-14.5 33.2-25.2 7.6-10.7 11.4-23 11.4-36.6 0-11.3-2.3-21-6.7-28.8s-10.6-14.6-18.5-19.7zM297.6 123.3C133.2 123.3 0 256.5 0 420.9s133.2 297.6 297.6 297.6 297.6-133.2 297.6-297.6-133.1-297.6-297.6-297.6zm76.7 472.1c-16.3 0-31.5-4-44.9-11.2-9.8 1.8-19.8 2.7-30 2.7-90.4 0-163.6-73.2-163.6-163.6 0-11.2 1.2-22.3 3.3-32.9-8.3-14-13.1-30.5-13.1-48 0-52.4 42.5-94.9 94.9-94.9 18.6 0 35.8 5.4 50.5 14.5 9-1.5 18.5-2.4 28-2.4 90.4 0 163.6 73.2 163.6 163.6 0 12-1.3 23.8-3.8 35.1 6.3 12.7 9.9 27 10 42 0 52.6-42.5 95.1-94.9 95.1z"/></g></svg>