<svg xmlns="http://www.w3.org/2000/svg" viewBox="0 123.3 595.3 595.3" enable-background="new 0 123.3 595.3 595.3" width="32" height="32"><path fill="#fff" d="M119 268.9h375v308H119z"/><path fill="#5EA9DD" d="M297.6 123.3C133.2 123.3 0 256.5 0 420.9s133.2 297.6 297.6 297.6 297.6-133.2 297.6-297.6-133.1-297.6-297.6-297.6zm136.8 227.5c.1 3.1.2 6.1.2 9.2 0 93.2-71 200.6-200.6 200.6-39.9 0-76.9-11.7-108.1-31.7 5.5.6 11.1 1 16.8 1 33.1 0 63.5-11.3 87.6-30.2-30.8-.5-56.9-21-65.8-48.9 4.3.8 8.7 1.3 13.2 1.3 6.4 0 12.6-.8 18.6-2.5-32.3-6.5-56.6-35-56.6-69.2v-.8c9.5 5.2 20.4 8.5 31.9 8.8-18.8-12.6-31.3-34.3-31.3-58.7 0-13 3.5-25.1 9.5-35.5 34.8 42.7 86.8 70.7 145.4 73.7-1.2-5.1-1.8-10.6-1.8-16.1 0-38.9 31.5-70.5 70.5-70.5 20.2 0 38.6 8.6 51.4 22.3 16.1-3.2 31.2-9 44.8-17.1-5.2 16.5-16.4 30.4-31 39.1 14.3-1.7 27.9-5.5 40.5-11.1-9.4 13.9-21.4 26.4-35.2 36.3z"/></svg>