<svg xmlns="http://www.w3.org/2000/svg" viewBox="0 123.3 595.3 595.3" enable-background="new 0 123.3 595.3 595.3" width="32" height="32"><path fill="#fff" stroke="#000" stroke-miterlimit="10" d="M102 223.9h379v394H102z"/><path fill="#1985BC" d="M297.6 123.3C133.2 123.3 0 256.5 0 420.9s133.2 297.6 297.6 297.6 297.6-133.2 297.6-297.6-133.1-297.6-297.6-297.6zm-94.7 469h-71.2V363.4h71.2v228.9zM167.3 332c-22.7 0-41.2-18.5-41.2-41.2 0-22.6 18.5-41.2 41.2-41.2s41.2 18.5 41.2 41.2S190 332 167.3 332zm301.9 260.3h-71.1V480.9c0-26.5-.5-60.7-36.9-60.7-37 0-42.6 28.9-42.6 58.7v113.2h-71.1V363.4h68.2v31.2h1c9.5-18 32.7-36.9 67.3-36.9 71.9 0 85.2 47.4 85.2 109.1v125.5z"/></svg>