<svg xmlns="http://www.w3.org/2000/svg" viewBox="0 123.3 595.3 595.3" enable-background="new 0 123.3 595.3 595.3" width="32" height="32"><path fill="#4D4D4D" d="M459.2 458.7c2.5-11.3 3.8-23.1 3.8-35.1 0-90.4-73.2-163.6-163.6-163.6-9.5 0-18.9.8-28 2.4-14.6-9.2-31.9-14.5-50.5-14.5-52.4 0-94.9 42.5-94.9 94.9 0 17.5 4.8 33.9 13.1 48-2.1 10.6-3.3 21.7-3.3 32.9 0 90.4 73.2 163.6 163.6 163.6 10.2 0 20.2-1 30-2.7 13.3 7.1 28.6 11.2 44.9 11.2 52.4 0 94.9-42.5 94.9-94.9-.1-15.2-3.7-29.5-10-42.2zm-76 42.8c-7.5 10.7-18.7 19.2-33.2 25.2-14.3 6-31.5 8.9-51.1 8.9-23.5 0-43.2-4.2-58.6-12.3-11-6-20-14-26.9-23.9-6.9-10-10.5-19.9-10.5-29.5 0-6.1 2.3-11.2 6.8-15.5 4.4-4.2 10.1-6.3 17-6.3 5.6 0 10.5 1.7 14.4 5 3.8 3.2 7 8 9.6 14 2.9 6.7 6.1 12.3 9.4 16.7 3.2 4.3 7.7 7.9 13.7 10.6 6 2.9 13.9 4.3 23.8 4.3 13.6 0 24.6-2.9 33-8.6 8.2-5.5 12.1-12.1 12.1-20.4 0-6.4-2-11.5-6.3-15.5-4.5-4.2-10.4-7.4-17.5-9.6-7.4-2.3-17.5-4.8-30-7.4-17-3.7-31.4-8-42.9-12.9-11.8-5-21.2-11.9-28.1-20.6-7-8.8-10.6-19.8-10.6-32.7 0-12.4 3.7-23.5 11.1-33.1 7.4-9.5 18.1-16.9 31.8-22 13.6-5 29.8-7.5 47.5-7.9 14.6 0 27.5 1.7 38.2 5 10.8 3.3 19.9 7.9 27 13.5 7.3 5.6 12.6 11.7 16 17.9 3.5 6.3 5.1 12.6 5.1 18.7 0 6-2.3 11.2-6.7 15.8-4.5 4.6-10.1 7-16.8 7-6.1 0-10.7-1.5-14-4.4-3.1-2.7-6.2-6.9-9.8-13-4-7.9-8.9-13.9-14.6-18.2-5.5-4.2-14.6-6.3-27.3-6.3-11.7 0-21.3 2.4-28.3 7-6.8 4.5-10.1 9.6-10.1 15.7 0 3.7 1.1 6.8 3.2 9.5 2.4 2.9 5.6 5.4 9.8 7.4 4.4 2.1 8.8 3.9 13.2 5.1 4.5 1.3 12.1 3.2 22.6 5.6 13.2 2.7 25.5 6 36.2 9.4 10.8 3.5 20.4 7.7 28 12.7 7.9 5.1 14 11.7 18.5 19.5s6.7 17.5 6.7 28.8c.1 13.9-3.7 26.1-11.4 36.8z"/></svg>