<svg xmlns="http://www.w3.org/2000/svg" viewBox="0 123.3 595.3 595.3" enable-background="new 0 123.3 595.3 595.3" width="32" height="32"><path fill="#fff" stroke="#000" stroke-miterlimit="10" d="M145 229.9h277v393H145z"/><path fill="#3B589C" d="M297.6 123.3C133.2 123.3 0 256.5 0 420.9s133.2 297.6 297.6 297.6 297.6-133.2 297.6-297.6-133.1-297.6-297.6-297.6zM386 307.1h-32c-25.1 0-30 12-30 29.5v38.7h60l-7.9 60.5H324v155.4h-62.5V435.8h-52.3v-60.5h52.3v-44.6c0-51.8 31.7-80 77.9-80 22.1 0 41.1 1.7 46.7 2.4v54z"/></svg>