<svg xmlns="http://www.w3.org/2000/svg" viewBox="0 123.3 595.3 595.3" enable-background="new 0 123.3 595.3 595.3" width="32" height="32"><path fill="#fff" stroke="#000" stroke-miterlimit="10" d="M108 226.9h375v383H108z"/><path fill="#FE9900" d="M297.6 123.3C133.2 123.3 0 256.5 0 420.9s133.2 297.6 297.6 297.6 297.6-133.2 297.6-297.6-133.1-297.6-297.6-297.6zM171.8 592c-25.1 0-45.6-20.2-45.6-45.5 0-25.1 20.4-45.6 45.6-45.6s45.7 20.6 45.7 45.6c0 25.2-20.5 45.5-45.7 45.5zm114.8.4c0-43-16.8-83.5-47-113.7-30.4-30.2-70.5-47-113.3-47V366c124.8 0 226.3 101.6 226.4 226.4h-66.1zm116.6 0c0-152.7-124.3-277.2-276.9-277.2v-65.7c188.9 0 342.8 153.8 342.8 342.9h-65.9z"/></svg>