<svg xmlns="http://www.w3.org/2000/svg" width="17" height="17" viewBox="0 0 17 17"><title>arrow-right2</title><path d="M8.5 0C3.806 0 0 3.806 0 8.5S3.806 17 8.5 17c4.695 0 8.5-3.805 8.5-8.5S13.195 0 8.5 0zm0 15.954c-4.1 0-7.438-3.353-7.438-7.454S4.4 1.062 8.5 1.062 15.938 4.4 15.938 8.5 12.6 15.954 8.5 15.954zM8.838 5.29c-.207.207-.207.544 0 .75l1.922 1.923H4.776c-.294 0-.53.238-.53.53s.237.532.53.532h6.017L8.838 10.98c-.207.207-.207.544 0 .75.104.105.24.157.376.157s.272-.052.376-.156l3.138-3.22L9.59 5.29c-.208-.208-.544-.208-.75 0z"/></svg>