<svg xmlns="http://www.w3.org/2000/svg" width="17" height="17" viewBox="0 0 17 17"><title>bar-chart2</title><path d="M4.517 5.312H.797c-.294 0-.53.238-.53.53V16.47c0 .294.237.53.53.53h3.72c.294 0 .53-.237.53-.53V5.843c0-.294-.237-.53-.53-.53zm-.532 10.626H1.328V6.375h2.657v9.563zm6.37-7.467h-3.72c-.294 0-.53.24-.53.532v7.466c0 .294.237.53.53.53h3.72c.294 0 .53-.237.53-.53V9.002c0-.294-.236-.53-.53-.53zm-.53 7.468h-2.66V9.534h2.66v6.404zM16.202 0H12.49c-.295 0-.532.238-.532.53v15.94c0 .293.238.53.53.53h3.715c.294 0 .53-.238.53-.53V.53c0-.293-.237-.53-.53-.53zm-.53 15.938H13.02V1.063h2.652v14.875z"/></svg>