<svg xmlns="http://www.w3.org/2000/svg" width="17" height="17" viewBox="0 0 17 17"><title>basket-loaded</title><path d="M16.862 4.715c-.1-.14-.26-.224-.432-.224h-1.656l-3.406-2.9c-.415-.416-1.088-.416-1.502 0l-3.348 2.9H5.155L4.302 1.55C3.967.388 3.172.264 2.846.264H.57C.278.264.042.5.042.792s.236.528.528.528h2.275c.072 0 .292 0 .44.518l2.937 10.79c.064.228.27.385.508.385h7.17c.224 0 .422-.14.497-.35L16.925 5.2c.058-.163.034-.343-.065-.483zM10.617 2.34l2.524 2.15H8.093l2.525-2.15zm2.914 9.616h-6.4l-1.678-6.41H15.68l-2.15 6.41zm-1.046 2.124c-.734 0-1.328.594-1.328 1.328s.594 1.328 1.328 1.328 1.328-.594 1.328-1.328-.594-1.328-1.328-1.328zm-4.78 0c-.735 0-1.33.594-1.33 1.328s.595 1.328 1.33 1.328 1.327-.594 1.327-1.328-.593-1.328-1.327-1.328z"/></svg>