<svg xmlns="http://www.w3.org/2000/svg" width="17" height="17" viewBox="0 0 17 17"><title>calendar2</title><path d="M15.938 1.592h-4.254V.532c0-.293-.238-.53-.53-.53s-.532.238-.532.53v1.06h-4.25V.532c0-.293-.238-.53-.53-.53S5.31.24 5.31.532v1.06H1.064C.477 1.592 0 2.068 0 2.655v13.28C0 16.524.478 17 1.065 17H15.94c.586 0 1.062-.477 1.062-1.064V2.656c0-.588-.476-1.063-1.063-1.063zm0 14.343H1.063V2.655H5.31v.534c0 .293.237.53.53.53s.53-.238.53-.53v-.536h4.25v.535c0 .293.24.53.532.53s.53-.238.53-.53v-.536h4.255v13.28zm-3.72-7.437h1.064c.293 0 .53-.238.53-.53V6.903c0-.293-.237-.53-.53-.53H12.22c-.294 0-.532.237-.532.53v1.063c0 .293.238.53.53.53zm0 4.25h1.064c.293 0 .53-.238.53-.53v-1.064c0-.293-.237-.53-.53-.53H12.22c-.294 0-.532.237-.532.53v1.063c0 .294.238.53.53.53zm-3.187-2.125H7.97c-.293 0-.53.238-.53.53v1.064c0 .294.237.53.53.53H9.03c.294 0 .532-.237.532-.53v-1.063c0-.293-.238-.53-.53-.53zm0-4.25H7.97c-.293 0-.53.238-.53.53v1.064c0 .293.237.53.53.53H9.03c.294 0 .532-.237.532-.53V6.904c0-.294-.238-.53-.53-.53zm-4.25 0H3.72c-.293 0-.53.238-.53.53v1.064c0 .293.237.53.53.53H4.78c.294 0 .532-.237.532-.53V6.904c0-.294-.238-.53-.53-.53zm0 4.25H3.72c-.293 0-.53.238-.53.53v1.064c0 .294.237.53.53.53H4.78c.294 0 .532-.237.532-.53v-1.063c0-.293-.238-.53-.53-.53z"/></svg>