<svg xmlns="http://www.w3.org/2000/svg" width="17" height="17" viewBox="0 0 17 17"><title>car</title><path d="M17 9.984l-1.958.002L12.992 6H5.04l-2.968 4H0v4.977h2.002L2 15c0 1.103.897 2 2 2s2-.897 2-2l-.002-.023h5.005c0 .008-.003.015-.003.023 0 1.103.897 2 2 2s2-.897 2-2l-.002-.023H17V9.984zm-3.082.003l-3.897.004V7h2.36l1.538 2.987zM5.544 7H9.02v2.992l-5.7.005L5.544 7zM4 16c-.55 0-1-.45-1-1s.45-1 1-1 1 .45 1 1-.45 1-1 1zm9 0c-.55 0-1-.45-1-1s.45-1 1-1 1 .45 1 1-.45 1-1 1zm3-2.023h-1.29C14.36 13.395 13.727 13 13 13s-1.36.395-1.71.977H5.71C5.36 13.395 4.727 13 4 13s-1.36.395-1.71.977H1V11l15-.015v2.992z"/></svg>