<svg xmlns="http://www.w3.org/2000/svg" width="17" height="17" viewBox="0 0 17 17"><title>dashboard</title><path d="M17 11.5v.5h-6.168v-1h5.152c-.112-1.692-.79-3.23-1.842-4.434l-.806.806-.707-.707.8-.802C12.23 4.81 10.69 4.137 9 4.023V7H8V4.024c-1.69.113-3.23.786-4.43 1.84l.796.795-.707.706-.8-.8C1.805 7.77 1.127 9.308 1.016 11h5.17v1H0v-.5C0 6.813 3.813 3 8.5 3S17 6.813 17 11.5zm-6.5 0c0 1.103-.897 2-2 2s-2-.897-2-2c0-.644.31-1.21.784-1.577l-2.082-3.63.867-.497L8.21 9.53c.095-.015.19-.03.29-.03 1.103 0 2 .897 2 2zm-1 0c0-.55-.45-1-1-1s-1 .45-1 1 .45 1 1 1 1-.45 1-1z"/></svg>