<svg xmlns="http://www.w3.org/2000/svg" width="17" height="17" viewBox="0 0 17 17"><title>disc</title><path d="M8.5 0C3.805 0 0 3.805 0 8.5S3.805 17 8.5 17 17 13.195 17 8.5 13.195 0 8.5 0zm7.438 8.5c0 1.1-.242 2.146-.673 3.087L10.563 9.07c.05-.18.08-.372.08-.57 0-1.183-.96-2.142-2.143-2.142-.243 0-.475.042-.692.117l-2.816-4.53C6.038 1.38 7.232 1.06 8.5 1.06c4.1 0 7.438 3.337 7.438 7.438zM8.5 7.42c.595 0 1.08.485 1.08 1.08S9.094 9.58 8.5 9.58 7.42 9.094 7.42 8.5s.485-1.08 1.08-1.08zM4.094 2.514L6.92 7.06l-.04.04-4.7-2.514c.502-.806 1.152-1.51 1.914-2.072zM1.064 8.5c0-1.057.222-2.063.622-2.974l4.72 2.526c-.03.145-.047.294-.047.448 0 1.183.958 2.142 2.14 2.142.207 0 .405-.03.594-.085l2.825 4.545c-1.025.532-2.187.835-3.42.835-4.1 0-7.437-3.337-7.437-7.438zm11.76 6.046L10.01 10.02l.024-.026 4.72 2.526c-.51.79-1.166 1.48-1.93 2.027z"/></svg>