<svg xmlns="http://www.w3.org/2000/svg" width="17" height="17" viewBox="0 0 17 17"><title>dislike</title><path d="M6.897.004c4.828 0 4.866.2 5.464.65.318.24.917.405 3.103.547.16.01.31.072.41.195.047.057 1.14 1.65 1.14 4.2 0 2.515-.782 3.66-.815 3.715-.097.155-.267.25-.45.25-1.795 0-4.283 2.29-5.956 6.29-.29.692-.35 1.146-1.412 1.146-.604 0-1.282-.433-1.617-.988-.686-1.134-.338-3.57-.015-4.872-1.096.01-3.08.024-4.023.024-1.313 0-2.18-.783-2.208-1.927-.008-.378.04-.86.15-1.11C.377 7.835.005 7.4-.01 6.84c-.02-.722.452-1.272.754-1.588-.07-.21-.208-.49-.194-.822.033-.82.666-1.347 1.06-1.623-.032-.223-.058-.647.014-.973C1.908.53 3.822.004 6.9.004zM15.18 2.28c-1.904-.16-2.922-.372-3.46-.776-.414-.313-.35-.437-4.824-.437-1.364 0-4.032.057-4.237.993-.083.375.312.743.314.746.108.266-.012.58-.275.694-.005.002-1.066.382-1.09.975-.016.38.244.607.25.616.155.24.098.57-.137.734-.003.002-.69.42-.673.987.013.452.607.77.625.78.133.076.23.207.26.358s-.004.308-.097.43c0 0-.27.43-.26.83.02.863.946.89 1.145.89 1.34 0 4.782-.014 4.782-.014.186 0 .346.087.446.236s.108.333.05.502c-.52 1.495-.81 3.84-.327 4.64.142.237.174.473.705.473.074 0 .25-.058.432-.494 1.776-4.246 4.428-6.703 6.6-6.924.186-.427.538-1.312.538-2.918 0-1.64-.52-2.907-.77-3.317z"/></svg>