<svg xmlns="http://www.w3.org/2000/svg" width="17" height="17" viewBox="0 0 17 17"><title>drawer</title><path d="M16.983 8.467l-1.95-6.758c-.065-.23-.274-.39-.513-.39H2.312c-.24 0-.45.16-.514.394L.015 8.128c-.033.125-.017.25.033.358-.03.096-.05.196-.05.302v5.832c0 .587.477 1.063 1.064 1.063h14.875c.587 0 1.063-.476 1.063-1.063V8.788c0-.028-.006-.055-.008-.083.014-.076.014-.157-.01-.237zM2.72 2.38h11.396l1.546 5.344H10.71C10.684 9 9.78 9.877 8.5 9.877S6.33 9 6.308 7.724H1.232l1.49-5.343zM15.94 14.62H1.063V8.786H5.43c.465 1.335 1.59 2.153 3.07 2.153s2.622-.818 3.086-2.153h4.352v5.832z"/></svg>