<svg xmlns="http://www.w3.org/2000/svg" width="17" height="17" viewBox="0 0 17 17"><title>dropbox</title><path d="M16.853 4.37L11.557.918 8.5 3.455 5.454.917.147 4.37l3.1 2.477-3.1 2.482 3.445 2.242v1.533l4.917 2.94 4.925-2.94V11.56l3.417-2.23-3.098-2.48 3.1-2.477zm-5.226-2.213l3.52 2.296-2.232 1.782-3.56-2.19 2.272-1.888zM12 6.847l-3.5 2.16L5 6.846l3.5-2.154L12 6.847zM1.853 4.453L5.38 2.157l2.265 1.887-3.56 2.19-2.232-1.78zm0 4.792l2.23-1.79 3.563 2.2-2.266 1.89-3.528-2.3zm10.582 3.293L8.51 14.88l-3.917-2.34v-.316l.862.56 3.047-2.54 3.056 2.54.878-.572v.326zm2.713-3.292l-3.52 2.298-2.274-1.89 3.56-2.198 2.234 1.79z"/></svg>