<svg xmlns="http://www.w3.org/2000/svg" width="17" height="17" viewBox="0 0 17 17"><title>energy</title><path d="M9.884 1.074h.003m-.003 0l-1.2 6.298 4.344.015-5.91 8.538 1.198-6.93-4.342-.014 5.91-7.906m0-1.062c-.03 0-.057 0-.086.003-.188.015-.312.078-.46.177-.08.054-.156.12-.22.198-.02.023-.04.047-.056.07L3.11 8.34c-.236.322-.27.747-.09 1.103s.545.58.945.584l3.067.022-.964 5.68c-.092.488.17.975.627 1.17.137.06.28.088.422.088.334 0 .608-.156.814-.438l5.962-8.538c.235-.322.27-.748.09-1.103s-.546-.582-.946-.585L9.97 6.32l.953-4.995c.02-.08.03-.164.03-.25 0-.575-.458-1.043-1.03-1.062h-.038z"/></svg>