<svg xmlns="http://www.w3.org/2000/svg" width="17" height="17" viewBox="0 0 17 17"><title>envelope2</title><path d="M16.99 3.852c.017-.102.004-.207-.04-.303-.134-.59-.56-.893-1.278-.893H1.86c-.633 0-1.314.232-1.65.69-.028.02-.056.046-.08.075-.108.124-.146.282-.122.432-.005.043-.01.086-.01.13v8.5c0 .88.98 1.86 1.86 1.86H15.67c.88 0 1.33-.98 1.33-1.86v-8.5c0-.046-.007-.087-.01-.132zM1.86 3.72H15.678L8.5 9.44 1.35 3.744c.163-.03.363-.023.51-.023zm13.812 9.56H1.86c-.294 0-.798-.503-.798-.796v-7.61l7.09 5.67c.1.087.224.13.348.13s.248-.043.348-.13l7.09-5.67v7.61c0 .293.027.797-.267.797z"/></svg>