<svg xmlns="http://www.w3.org/2000/svg" width="17" height="17" viewBox="0 0 17 17"><title>eraser</title><path d="M13.446 4.2l-5.196-3c-.69-.397-1.65-.14-2.048.55l-6 10.393c-.414.716-.167 1.635.55 2.05l3.18 1.824L8.287 16l5.708-9.75c.413-.716.167-1.635-.55-2.05zM7.713 15l-3.518.015-2.945-1.69c-.24-.138-.32-.443-.183-.683l2.75-4.764 6.027 3.48L7.714 15zm5.417-9.253l-2.78 4.75-6.033-3.483 2.75-4.764c.09-.154.256-.25.434-.25.09 0 .173.022.25.066l5.196 3c.24.14.32.445.184.68zM17 15v1h-7v-1h7z"/></svg>