<svg xmlns="http://www.w3.org/2000/svg" width="17" height="17" viewBox="0 0 17 17"><title>hand-point-left</title><path d="M16.422 13.5c0 .276-.224.5-.5.5h-.855c-.227 0-.802.21-1.31.394-.78.284-1.665.606-2.335.606H8.237C7.39 15 6.7 14.32 6.7 13.484c0-.163.027-.318.076-.463H6.64c-.846 0-1.535-.675-1.535-1.505 0-.177.03-.346.09-.504-.796-.054-1.425-.703-1.425-1.494 0-.18.032-.355.09-.518H1.536C.688 8.998 0 8.323 0 7.494s.688-1.506 1.535-1.506h4.897l-.266-.245c-.296-.295-1.043-1.04-.468-1.998.423-.71 1.36-.955 2.088-.547l7.028 3.252c.268.15.47.348.607.583h.5c.277 0 .5.224.5.5s-.223.5-.5.5h-.83c-.23 0-.43-.155-.485-.378-.034-.133-.12-.245-.245-.315L7.332 4.09c-.294-.165-.627-.08-.775.168-.086.144-.174.29.3.764L8.053 6.12c.152.14.202.357.127.55s-.26.318-.466.318h-6.18c-.294 0-.534.227-.534.506 0 .278.24.504.535.504h3.63c.265 0 .483.204.5.468s-.173.494-.434.528c-.258.033-.46.263-.46.522 0 .275.24.5.535.5h1.268c.27 0 .492.215.5.484.008.27-.2.498-.47.515-.28.018-.498.237-.498.5 0 .28.24.507.536.507h1.563c.273 0 .495.22.5.49s-.21.5-.482.51c-.257.01-.52.17-.52.463 0 .28.247.515.537.515h3.185c.494 0 1.29-.29 1.994-.546.696-.254 1.247-.454 1.65-.454h.855c.278 0 .502.224.502.5z"/></svg>