<svg xmlns="http://www.w3.org/2000/svg" width="17" height="17" viewBox="0 0 17 17"><title>harddrives</title><path d="M13.5 12.5c-.827 0-1.5.673-1.5 1.5s.673 1.5 1.5 1.5S15 14.827 15 14s-.673-1.5-1.5-1.5zm0 2c-.275 0-.5-.225-.5-.5s.225-.5.5-.5.5.225.5.5-.225.5-.5.5zM17 3.15L14.077 0H2.927L0 3.087V9.52h.936L0 10.692V17h17v-6.26l-1.046-1.22H17V3.15zM3.355 1H13.64l1.855 2H1.46l1.895-2zM1 16v-4h15v4H1zm14.906-5H1.033l1.18-1.48H14.64L15.906 11zM1 8.52V4h15v4.52H1zM13.5 5c-.827 0-1.5.673-1.5 1.5 0 .826.673 1.5 1.5 1.5S15 7.325 15 6.5c0-.827-.673-1.5-1.5-1.5zm0 2c-.275 0-.5-.225-.5-.5s.225-.5.5-.5.5.225.5.5-.225.5-.5.5z"/></svg>