<svg xmlns="http://www.w3.org/2000/svg" width="17" height="17" viewBox="0 0 17 17"><title>headphone-alt</title><path d="M15.668 6.017C14.71 2.46 11.805 0 8.5 0 5.205 0 2.288 2.464 1.332 6.017.585 6.1 0 6.73 0 7.5v4c0 .625.382 1.16.924 1.385C1.118 14.632 2.587 16 4.384 16h2.708c.207.58.757 1 1.408 1h3c.827 0 1.5-.673 1.5-1.5s-.673-1.5-1.5-1.5h-3c-.65 0-1.2.42-1.408 1H4.385c-1.208 0-2.217-.86-2.45-2H3v-1h1V7H3V6h-.606C3.307 3.04 5.746 1 8.5 1c2.762 0 5.193 2.037 6.106 5H14v1h-1v5h1v1h1.506C16.33 13 17 12.327 17 11.5v-4c0-.77-.585-1.4-1.332-1.483zM8.5 15h3c.275 0 .5.224.5.5s-.225.5-.5.5h-3c-.275 0-.5-.224-.5-.5s.225-.5.5-.5zM2 12h-.506C1.222 12 1 11.776 1 11.5v-4c0-.276.222-.5.494-.5H2v5zm14-.5c0 .276-.222.5-.494.5H15V7h.506c.272 0 .494.224.494.5v4z"/></svg>