<svg xmlns="http://www.w3.org/2000/svg" width="17" height="17" viewBox="0 0 17 17"><title>help-alt</title><path d="M8.5 0C3.813 0 0 3.813 0 8.5S3.813 17 8.5 17 17 13.187 17 8.5 13.187 0 8.5 0zm0 16C4.364 16 1 12.636 1 8.5S4.364 1 8.5 1 16 4.364 16 8.5 12.636 16 8.5 16zm1.158-3.78c0 .567-.462 1.03-1.03 1.03-.572 0-1.034-.463-1.034-1.03 0-.57.462-1.033 1.033-1.033.57 0 1.03.46 1.03 1.032zm1.004-8.005c.448.565.674 1.328.55 1.855-.243 1.027-.842 1.567-1.37 2.043-.544.49-.935.84-.935 1.647h-1c0-1.25.67-1.856 1.264-2.39.462-.415.897-.807 1.067-1.53.034-.142-.04-.6-.36-1.004-.307-.39-.728-.586-1.248-.586-1.78 0-1.87 1.444-1.874 1.61l-1-.028C5.78 4.94 6.41 3.25 8.63 3.25c.817 0 1.538.343 2.032.965z"/></svg>