<svg xmlns="http://www.w3.org/2000/svg" width="17" height="17" viewBox="0 0 17 17"><title>infinite</title><path d="M17 8c0 2.206-1.794 4-4 4-1.197 0-2.31-.532-3.074-1.452h-.002l-.014-.017c-.01-.013-.026-.022-.038-.037l.004-.003-3.634-4.482C5.672 5.368 4.856 5 4 5 2.346 5 1 6.346 1 8s1.346 3 3 3c.915 0 1.77-.41 2.342-1.125l.01.007.816-1.012.778.628-.823 1.02-.01-.01C6.35 11.457 5.216 12 4 12c-2.206 0-4-1.794-4-4s1.794-4 4-4c1.12 0 2.186.477 2.943 1.3l.008-.005.043.052 3.698 4.56C11.265 10.6 12.1 11 13 11c1.654 0 3-1.346 3-3s-1.346-3-3-3c-.846 0-1.65.362-2.22.99l-.948 1.174-.778-.628.948-1.175-.004-.002C10.758 4.495 11.853 4 13 4c2.206 0 4 1.794 4 4z"/></svg>