<svg xmlns="http://www.w3.org/2000/svg" width="17" height="17" viewBox="0 0 17 17"><title>info2</title><path d="M9.563 12.22h-.53V7.47c0-.005-.003-.01-.003-.016l.002-.016c0-.293-.238-.53-.53-.53H7.437c-.293 0-.53.237-.53.53s.237.53.53.53h.53v4.25h-.53c-.293 0-.53.24-.53.532s.237.53.53.53h2.125c.293 0 .53-.237.53-.53s-.237-.53-.53-.53zM8.5 5.843c.587 0 1.063-.476 1.063-1.063S9.087 3.72 8.5 3.72s-1.063.476-1.063 1.063.476 1.064 1.063 1.064zM8.5 0C3.806 0 0 3.806 0 8.5S3.806 17 8.5 17c4.695 0 8.5-3.805 8.5-8.5S13.195 0 8.5 0zm0 15.954c-4.1 0-7.438-3.353-7.438-7.454S4.4 1.062 8.5 1.062 15.938 4.4 15.938 8.5 12.6 15.954 8.5 15.954z"/></svg>