<svg xmlns="http://www.w3.org/2000/svg" width="17" height="17" viewBox="0 0 17 17"><title>key2</title><path d="M10.886 0c-2.64 0-4.78 2.144-4.78 4.79 0 1.184.43 2.267 1.144 3.104-.147-.01-.296.04-.408.152L1.49 13.43c-.207.208-.207.545 0 .752l.013.01.003.004L4.11 16.85c.208.208.545.208.752 0s.207-.543 0-.75l-2.25-2.292 1.37-1.378 2.254 2.296c.207.207.544.207.75 0s.208-.544 0-.75l-2.254-2.3 2.862-2.88c.11-.11.16-.257.153-.402.84.735 1.937 1.184 3.14 1.184 2.64 0 4.78-2.144 4.78-4.79S13.528 0 10.888 0zm0 8.5c-2.046 0-3.72-1.665-3.72-3.72s1.674-3.718 3.72-3.718 3.72 1.664 3.72 3.72c0 2.053-1.673 3.718-3.72 3.718z"/></svg>