<svg xmlns="http://www.w3.org/2000/svg" width="17" height="17" viewBox="0 0 17 17"><title>lock2</title><path d="M13.28 6.375h-.53V4.347C12.75 1.91 10.986 0 8.48 0 5.964 0 4.25 1.95 4.25 4.347v2.028h-.53c-1.173 0-2.126.953-2.126 2.125v6.375c0 1.172.953 2.125 2.125 2.125h9.562c1.172 0 2.125-.953 2.125-2.125V8.5c0-1.172-.953-2.125-2.125-2.125zM5.314 4.347c0-1.81 1.238-3.285 3.168-3.285 1.91 0 3.208 1.443 3.208 3.285v2.028H5.313V4.347zm9.03 10.528c0 .586-.476 1.063-1.062 1.063H3.72c-.586 0-1.063-.477-1.063-1.063V8.5c0-.586.477-1.063 1.063-1.063h9.563c.587 0 1.064.477 1.064 1.063v6.375zM8.5 9.563c-.587 0-1.063.476-1.063 1.063 0 .392.215.73.53.915v1.742c0 .293.24.53.532.53s.53-.237.53-.53v-1.74c.316-.185.53-.524.53-.916 0-.587-.475-1.063-1.062-1.063z"/></svg>