<svg xmlns="http://www.w3.org/2000/svg" width="17" height="17" viewBox="0 0 17 17"><title>magnet2</title><path d="M15.942 1V.516c0-.294-.238-.53-.53-.53h-3.73c-.294 0-.53.237-.53.53v8.77c0 1.6-.902 2.9-2.5 2.9s-2.8-1.3-2.8-2.9V.997h-.003v-.48c0-.295-.24-.532-.532-.532h-3.73c-.293 0-.53.238-.53.53v2.17c0 .01.006.02.006.03v6.816c0 4.133 3.3 7.483 7.432 7.483s7.448-3.35 7.448-7.482V1zm-1.062.05v2.13h-2.66V1.05h2.66zm-10.094 0v2.13h-2.66V1.05h2.66zm3.71 14.9c-3.54 0-6.37-2.88-6.37-6.418v-5.29h2.662V9.29c0 2.187 1.674 3.96 3.862 3.96s3.564-1.773 3.564-3.96V4.24h2.667v5.29c0 3.54-2.845 6.42-6.385 6.42z"/></svg>