<svg xmlns="http://www.w3.org/2000/svg" width="17" height="17" viewBox="0 0 17 17"><title>magnifier-add</title><path d="M16.844 16.088l-4.7-4.728c1.007-1.202 1.613-2.752 1.613-4.444 0-3.82-3.08-6.916-6.9-6.916S-.056 3.096-.056 6.915c0 3.82 3.096 6.915 6.915 6.915 1.743 0 3.33-.647 4.544-1.71l4.69 4.72c.207.206.544.206.75 0s.21-.545 0-.753zM6.85 12.75c-3.213 0-5.844-2.63-5.844-5.844s2.63-5.844 5.844-5.844 5.844 2.63 5.844 5.844-2.63 5.844-5.844 5.844zm2.656-6.375H7.38V4.25c0-.293-.237-.53-.53-.53s-.53.237-.53.53v2.125H4.193c-.293 0-.53.238-.53.53s.237.532.53.532H6.32v2.125c0 .293.237.53.53.53s.53-.237.53-.53V7.437h2.126c.293 0 .53-.238.53-.53s-.237-.532-.53-.532z"/></svg>