<svg xmlns="http://www.w3.org/2000/svg" width="17" height="17" viewBox="0 0 17 17"><title>pencil2</title><path d="M16.008.825c-.58-.555-1.217-.836-1.9-.836-1.065 0-1.842.688-2.055.898-.3.296-10.51 10.512-10.51 10.512-.068.067-.116.15-.14.242-.23.85-1.385 4.627-1.396 4.665-.06.193-.006.404.136.547.103.102.24.157.38.157.054 0 .11-.007.164-.025.04-.013 3.937-1.273 4.578-1.464.084-.024.162-.07.225-.132.405-.4 9.93-9.82 10.562-10.472.654-.674.98-1.376.966-2.085-.013-.7-.353-1.374-1.01-2.005zm-4.124 1.762c.27.066.91.28 1.56.938.66.665.838 1.424.87 1.597-2.088 2.078-6.896 6.835-8.792 8.71-.175-.408-.458-.9-.913-1.357-.557-.56-1.122-.876-1.558-1.054l8.832-8.833zm-9.553 9.73c.293.08.9.304 1.517.927.476.48.7 1.01.802 1.332-.74.237-2.356.796-3.384 1.127.304-1.002.82-2.562 1.065-3.385zm12.95-8.16l-.1.102c-.17-.433-.463-.99-.973-1.503-.52-.525-1.05-.835-1.473-1.02l.075-.074c.06-.06.612-.587 1.3-.587.395 0 .783.18 1.155.537.44.422.667.84.674 1.238.006.41-.215.848-.66 1.307z"/></svg>