<svg xmlns="http://www.w3.org/2000/svg" width="17" height="17" viewBox="0 0 17 17"><title>rss</title><path d="M9.97 14h-1c0-3.233-2.68-5.863-5.97-5.863v-1c3.843 0 6.97 3.08 6.97 6.863zM3 3.5v1c5.327 0 9.5 4.173 9.5 9.5h1C13.5 8.112 8.888 3.5 3 3.5zm3 9c0-.826-.67-1.5-1.497-1.5C3.673 11 3 11.674 3 12.5S3.674 14 4.503 14C5.33 14 6 13.33 6 12.5zm-1 0c0 .276-.223.5-.497.5-.277 0-.503-.224-.503-.5s.226-.5.503-.5c.274 0 .497.225.497.5zm12 3v-14c0-.827-.673-1.5-1.5-1.5h-14C.673 0 0 .673 0 1.5v14c0 .827.673 1.5 1.5 1.5h14c.827 0 1.5-.673 1.5-1.5zM15.5 1c.276 0 .5.225.5.5v14c0 .275-.224.5-.5.5h-14c-.276 0-.5-.225-.5-.5v-14c0-.275.224-.5.5-.5h14z"/></svg>