<svg xmlns="http://www.w3.org/2000/svg" width="17" height="17" viewBox="0 0 17 17"><title>settings</title><path d="M8.5 5.972c-1.378 0-2.5 1.122-2.5 2.5s1.122 2.5 2.5 2.5S11 9.85 11 8.472s-1.122-2.5-2.5-2.5zm0 4c-.827 0-1.5-.673-1.5-1.5s.673-1.5 1.5-1.5 1.5.673 1.5 1.5-.673 1.5-1.5 1.5zm8.44-.526c.037-.32.06-.645.06-.974s-.023-.653-.06-.974l-2.588-.778c-.12-.402-.278-.787-.474-1.15l1.28-2.376c-.407-.51-.87-.973-1.38-1.38L11.4 3.094c-.363-.196-.748-.354-1.15-.474L9.474.032c-.32-.037-.644-.06-.974-.06s-.654.023-.974.06L6.75 2.62c-.403.12-.79.278-1.15.475l-2.377-1.28c-.51.406-.974.87-1.38 1.38l1.28 2.375c-.196.362-.354.748-.474 1.15l-2.59.778c-.037.32-.06.644-.06.974s.023.654.06.974l2.588.776c.12.403.278.79.474 1.15l-1.28 2.377c.407.51.87.973 1.38 1.38L5.6 13.85c.362.196.748.354 1.15.474l.776 2.588c.32.037.645.06.974.06s.654-.023.974-.06l.776-2.588c.402-.12.788-.278 1.15-.474l2.376 1.28c.51-.408.974-.87 1.38-1.382l-1.278-2.376c.196-.362.354-.748.474-1.15l2.588-.776zm-3.392-.027l-.154.517c-.1.337-.233.66-.396.96l-.256.474.255.476.952 1.77c-.1.105-.202.207-.307.306l-2.243-1.21-.475.257c-.3.162-.624.294-.96.395l-.518.154-.155.517-.58 1.932-.212.002-.213-.003-.58-1.933-.154-.518-.518-.155c-.336-.1-.66-.233-.96-.396l-.474-.257-2.244 1.207c-.104-.1-.207-.2-.306-.306l1.208-2.244-.256-.475c-.162-.3-.295-.623-.396-.96l-.153-.517-2.45-.734L1 8.472s0-.14.004-.213l2.448-.735.154-.518c.1-.337.233-.66.396-.96l.256-.474L3.05 3.328c.1-.104.2-.207.305-.306l2.247 1.21.476-.26c.297-.16.62-.294.956-.394l.518-.154.155-.518.58-1.932L8.5.972l.213.003.58 1.932.154.518.518.154c.335.1.66.232.96.395l.475.255 2.244-1.208c.104.1.207.2.306.306l-.953 1.77-.255.475.257.475c.162.3.294.622.394.957l.154.518.518.155 1.932.58.002.214s0 .14-.004.213l-2.448.734z"/></svg>