<svg xmlns="http://www.w3.org/2000/svg" width="17" height="17" viewBox="0 0 17 17"><title>shield2</title><path d="M15.073 2.4c-.197-.185-.457-.287-.725-.287-.024 0-.05 0-.073.003-.015 0-.186.01-.453.01-.443 0-1.306-.03-2.124-.23-1.057-.26-2.276-1.464-2.63-1.7-.18-.12-.385-.18-.59-.18s-.412.06-.59.178c-.044.03-1.32 1.395-2.57 1.702-.818.2-1.698.23-2.14.23-.267 0-.438-.01-.454-.01-.023-.002-.047-.003-.07-.003-.27 0-.53.102-.727.287-.215.2-.337.482-.337.776v2.657c0 9.822 6.427 11.087 6.7 11.136.062.01.125.016.188.016s.126-.006.188-.017c.273-.05 6.747-1.315 6.747-11.137V3.176c0-.295-.122-.576-.337-.777zM14.35 5.83c0 9.046-5.873 10.09-5.873 10.09s-5.825-1.044-5.825-10.09V3.175s.2.014.526.014c.557 0 1.495-.042 2.393-.263 1.472-.36 2.907-1.85 2.907-1.85s1.498 1.49 2.968 1.85c.9.22 1.82.262 2.378.262.325 0 .526-.015.526-.015v2.657zm-3.6-.084c-.206-.207-.543-.207-.75 0L8.497 7.25 6.994 5.75c-.207-.207-.544-.207-.75 0s-.208.544 0 .75l1.502 1.504-1.503 1.503c-.207.207-.207.544 0 .75s.544.208.75 0l1.504-1.502L10 10.256c.207.207.544.207.75 0s.208-.544 0-.75L9.25 8 10.75 6.5c.208-.208.208-.545 0-.752z"/></svg>