<svg xmlns="http://www.w3.org/2000/svg" width="17" height="17" viewBox="0 0 17 17"><title>shortcode</title><path d="M.026 1h3v1h-2v13h2v1h-3V1zm14 0v1h2v13h-2v1h3V1h-3zM8.91 7.967c-1.115-.433-1.607-.804-1.607-1.56 0-.552.42-1.21 1.523-1.21.73 0 1.27.238 1.535.383l.29-.852c-.36-.204-.96-.396-1.788-.396-1.57 0-2.614.936-2.614 2.195 0 1.14.815 1.823 2.135 2.29 1.09.42 1.523.852 1.523 1.607 0 .815-.624 1.38-1.69 1.38-.72 0-1.404-.24-1.872-.528l-.264.876c.432.287 1.283.516 2.062.516 1.907 0 2.83-1.08 2.83-2.327.002-1.187-.695-1.846-2.062-2.373z"/></svg>