<svg xmlns="http://www.w3.org/2000/svg" width="17" height="17" viewBox="0 0 17 17"><title>slice</title><path d="M16.56 3.844L15.16 2.44c-.563-.565-1.554-.567-2.12 0L.447 15.032l5.435-.003 2.183-2.17.824.776 7.67-7.672c.284-.282.44-.66.44-1.06s-.156-.777-.44-1.06zm-9.784 6.272l.824-.824 2.11 2.11-.824.824-2.11-2.11zM5.47 14.03H2.864l3.206-3.207 1.31 1.31-1.91 1.896zm10.384-8.772l-5.437 5.437-2.11-2.11 5.437-5.438c.094-.095.22-.147.353-.147s.26.052.354.146l1.404 1.404c.195.196.195.512 0 .708z"/></svg>