<svg xmlns="http://www.w3.org/2000/svg" width="17" height="17" viewBox="0 0 17 17"><title>stack-overflow</title><path d="M12.66 16.18c0 .31-.01.31-.01.31v.01H2.546c-.313 0-.313-.01-.313-.01h-.01V9.92h1.082v5.518h8.286v-5.52h1.07v6.26zm-2.15-1.824l-6.313.01v-1.35l6.312-.008v1.348zm.15-3.07l-.115 1.34-6.295-.58.125-1.34 6.286.58zm.42-1.768l-.348 1.305-6.098-1.635.348-1.304 6.1 1.634zm.795-1.536l-.688 1.16L5.75 5.93l.687-1.162 5.438 3.214zm1.33-.946l-1.106.76L8.534 2.58l1.116-.768 3.555 5.224zm1.572-.312l-1.33.232-1.08-6.224L13.696.5l1.08 6.224z"/></svg>