<svg xmlns="http://www.w3.org/2000/svg" width="17" height="17" viewBox="0 0 17 17"><title>star2</title><path d="M8.5 1.286l2.282 4.733 5.19.77-3.76 3.75.127.75.75 4.486-4.59-2.47-4.593 2.47.752-4.485.125-.75-3.758-3.75 5.19-.772.34-.706L8.5 1.286m0-1.028c-.476 0-.91.27-1.112.688L5.464 4.94l-4.428.66c-.455.067-.832.378-.98.802-.145.426-.035.895.287 1.214l3.244 3.24-.753 4.494c-.076.453.12.907.504 1.172.21.145.46.218.708.218.205 0 .41-.05.594-.15l3.86-2.077 3.86 2.078c.186.1.39.15.594.15.248 0 .496-.073.708-.218.384-.265.58-.72.503-1.172l-.753-4.493 3.246-3.24c.32-.32.43-.79.285-1.215s-.525-.736-.98-.803l-4.426-.66L9.612.947C9.412.526 8.977.258 8.5.258z"/></svg>