<svg xmlns="http://www.w3.org/2000/svg" width="17" height="17" viewBox="0 0 17 17"><title>target</title><path d="M17.02 8h-2.045C14.73 4.806 12.17 2.255 8.97 2.023V-.04h-1v2.066C4.8 2.284 2.27 4.826 2.026 8H-.02v1h2.045c.244 3.175 2.774 5.716 5.945 5.974V17h1v-2.023c3.198-.23 5.76-2.782 6.004-5.977h2.045V8zm-8.05 5.977V12h-1v1.974C5.35 13.722 3.264 11.624 3.026 9H4.98V8H3.025C3.263 5.376 5.35 3.278 7.97 3.026V4.96h1V3.024C11.62 3.25 13.736 5.356 13.976 8H12.02v1h1.955c-.24 2.644-2.357 4.75-5.004 4.977z"/></svg>