<svg xmlns="http://www.w3.org/2000/svg" width="17" height="17" viewBox="0 0 17 17"><title>themify-favicon</title><path d="M9.4 1.304c-.995 0-2.096.17-3.304.546C-3.49 4.846.78 11.468 2.036 12.122c2.13 1.105-1.15 3.574-1.15 3.574s2.816-.824 6.403-1.192c4.31-.44 9.154-1.068 9.59-3.467.685-3.76-1.558-9.733-7.48-9.733zm6.497 9.554c-.327 1.795-5.99 2.373-8.71 2.65-1.353.14-2.593.34-3.624.538.14-.35.216-.72.185-1.093-.035-.418-.244-1.196-1.244-1.716-.372-.222-1.708-1.95-1.48-3.878.295-2.47 3.083-3.84 5.37-4.556 1.064-.332 2.076-.5 3.007-.5 1.972 0 3.582.732 4.788 2.177 1.627 1.95 2.03 4.61 1.71 6.378zM4 6.5c0-.55.448-1 1-1s1 .45 1 1-.448 1-1 1-1-.45-1-1zM9 6c0-.553.447-1 1-1s1 .447 1 1c0 .55-.448 1-1 1s-1-.45-1-1zm4.3 2.5c-5.542 6.142-9.6.95-9.6.95 3.2 2.864 9.6-.95 9.6-.95z"/></svg>