<svg xmlns="http://www.w3.org/2000/svg" width="17" height="17" viewBox="0 0 17 17"><title>tumblr</title><path d="M13.15 12.687c-.72.478-1.42.71-2.14.71-.372 0-.685-.082-.96-.25-.17-.104-.278-.224-.334-.378-.052-.135-.113-.523-.113-1.613V7.552h3.793v-3.51H9.604V0h-3.22l-.057.438c-.096.758-.27 1.39-.512 1.878-.245.48-.557.88-.948 1.217-.398.332-.887.596-1.45.783l-.344.114v3.122h1.77v5.115c0 .812.088 1.423.263 1.854.17.454.495.89.97 1.3.463.392 1.004.687 1.6.874.61.202 1.316.306 2.095.306.7 0 1.347-.07 1.915-.21.574-.13 1.214-.364 1.955-.713l.287-.135v-3.77l-.777.515zm-.223 2.617c-.553.245-1.035.413-1.472.514-1.037.253-2.476.256-3.473-.075-.476-.15-.9-.38-1.26-.683-.34-.296-.57-.596-.686-.903-.13-.316-.193-.817-.193-1.49V6.553h-1.77v-1.41c.543-.217 1.025-.5 1.44-.846.49-.422.892-.936 1.194-1.53.25-.498.43-1.078.547-1.766h1.35v4.042h3.793v1.51H8.604v4.604c0 1.068.052 1.64.176 1.96.13.364.384.66.75.883.93.57 2.225.5 3.397-.043v1.347z"/></svg>