<svg xmlns="http://www.w3.org/2000/svg" width="17" height="17" viewBox="0 0 17 17"><title>tumblr-alt</title><path d="M9.104.5v4.042h3.793v2.51H9.104v4.104c0 .927.042 1.52.146 1.792.094.26.28.468.54.625.355.218.762.323 1.22.323.813 0 1.615-.26 2.417-.793v2.52c-.688.324-1.302.553-1.854.68-.553.134-1.156.196-1.803.196-.73 0-1.374-.095-1.938-.282-.562-.177-1.042-.448-1.437-.78-.395-.344-.676-.71-.822-1.094-.156-.386-.23-.947-.23-1.677V7.052h-1.77v-2.26c.624-.208 1.166-.5 1.614-.875.45-.386.803-.844 1.074-1.375.27-.542.46-1.22.563-2.042h2.28z"/></svg>