<svg xmlns="http://www.w3.org/2000/svg" width="17" height="17" viewBox="0 0 17 17"><title>uniE00D</title><path d="M8.5.005c-1.16 0-2.266.234-3.274.657-.035.01-.07.026-.102.044C2.114 2.014.004 5.016.004 8.5c0 4.684 3.81 8.495 8.495 8.495s8.495-3.81 8.495-8.495c0-4.685-3.81-8.496-8.496-8.496zM15.933 8.5c0 .06-.003.118-.005.177-.814-.216-2.88-.622-5.425-.062-.224-.513-.473-1.04-.752-1.574l-.068-.13c2.725-1.053 3.883-2.47 4.362-3.354 1.174 1.315 1.89 3.047 1.89 4.944zM13.24 2.78c-.248.584-1.146 2.092-4.063 3.186-1.31-2.394-2.328-3.83-2.9-4.56.703-.22 1.448-.338 2.222-.338 1.8 0 3.452.644 4.74 1.713zm-7.993-.962c.452.553 1.5 1.943 2.907 4.49-3.32 1-6.017.88-6.953.793.446-2.326 1.978-4.27 4.047-5.282zM1.067 8.5c0-.114.003-.228.01-.342.32.032.815.068 1.465.068 1.443 0 3.614-.178 6.126-.965l.142.27c.24.462.456.917.654 1.363-.454.143-.92.317-1.392.53-3.032 1.374-4.452 3.333-4.958 4.19C1.848 12.28 1.068 10.48 1.068 8.5zm2.853 5.848c.27-.51 1.504-2.558 4.59-3.955.463-.21.92-.378 1.367-.513 1.008 2.562 1.358 4.674 1.464 5.488-.875.364-1.834.566-2.84.566-1.727 0-3.317-.594-4.58-1.585zm8.425.51c-.153-1.022-.534-2.944-1.427-5.24 2.464-.49 4.415-.01 4.908.134-.37 2.162-1.672 4.01-3.48 5.106z"/></svg>