<svg xmlns="http://www.w3.org/2000/svg" width="17" height="17" viewBox="0 0 17 17"><title>uniE018</title><path d="M13.83 1.073h-1.07V4.65c0 1.732-.94 3.043-2.957 4.07 2.093 1.06 2.973 2.36 2.973 4.3 0 1.265-.006 2.325-.01 2.908h1.064c.294 0 .53.237.53.53s-.237.532-.53.532H3.17c-.294 0-.53-.238-.53-.53s.237-.532.53-.532h1.095c-.004-.583-.01-1.644-.01-2.907 0-1.94.868-3.24 2.957-4.3-2.013-1.027-2.94-2.338-2.94-4.07V1.072H3.168c-.295 0-.532-.237-.532-.53s.238-.532.53-.532h10.66c.295 0 .532.24.532.532s-.238.53-.532.53zM5.317 13.02c0 1.267.006 2.328.01 2.907h6.378c.004-.58.01-1.64.01-2.907 0-1.478-.55-2.624-3.207-3.725-2.657 1.102-3.19 2.248-3.19 3.725zm6.38-11.947H5.335V4.65c0 1.018.343 2.33 3.174 3.494 2.832-1.164 3.19-2.476 3.19-3.495V1.072z"/></svg>