<svg xmlns="http://www.w3.org/2000/svg" width="17" height="17" viewBox="0 0 17 17"><title>uniE03C</title><path d="M16.997 9.505c.002-.35-.053-1.668-.095-2.046-.483-4.33-3.997-7.472-8.354-7.472C4.01-.012.333 3.485.084 8.12.08 8.223.04 8.94.04 9.37l-.002.238c-.022.098-.035.2-.035.304v3.564c0 .778.633 1.41 1.41 1.41h1.434c.778 0 1.412-.632 1.412-1.41V9.91c0-.777-.635-1.41-1.413-1.41H1.414c-.098 0-.193.01-.285.03l.016-.35c.22-4.065 3.44-7.13 7.403-7.13 3.805 0 6.874 2.746 7.297 6.527.018.158.04.56.06.962-.104-.025-.21-.04-.32-.04H14.17c-.777 0-1.41.632-1.41 1.41v3.547c0 .537.305 1 .75 1.238l-3.412 1.34v-.088c0-.293-.238-.53-.53-.53H7.972c-.293 0-.53.237-.53.53v.53c0 .294.237.532.53.532h1.594l.013-.002.952-.004 5.47-2.148c.073-.03.134-.074.183-.127.48-.227.813-.71.813-1.274V9.91c0-.088-.01-.172-.026-.254.015-.05.025-.1.025-.153zm-15.583.057h1.433c.193 0 .35.156.35.35v3.563c0 .193-.158.35-.35.35H1.414c-.193 0-.35-.157-.35-.35V9.91c0-.192.157-.348.35-.348zm12.407.35c0-.194.157-.35.35-.35h1.416c.193 0 .35.156.35.35v3.546c0 .193-.158.35-.35.35H14.17c-.193 0-.35-.157-.35-.35V9.91z"/></svg>