<svg xmlns="http://www.w3.org/2000/svg" width="17" height="17" viewBox="0 0 17 17"><title>uniE027</title><path d="M15.035 11.818c-.62-.754-1.47-1.822-1.47-2.91v-3.47c0-2.99-2.234-5.42-5.09-5.42S3.4 2.45 3.4 5.438v3.47c0 1.07-.92 2.082-1.505 2.868-.525.706-.94 1.263-.66 1.82.246.49.863.554 1.372.554H5.65c.002 1.564 1.27 2.832 2.834 2.832s2.833-1.268 2.834-2.832h3.116c.324 0 1.082 0 1.342-.55.263-.56-.158-1.072-.74-1.78zm-6.55 4.05c-.95 0-1.72-.77-1.723-1.718h3.444c0 .95-.77 1.72-1.722 1.72zm5.948-2.85H2.606c-.08 0-.15-.002-.205-.005.11-.17.27-.386.402-.562.647-.87 1.73-2.097 1.73-3.542v-3.47c0-2.364 1.71-4.288 3.942-4.288s3.96 1.924 3.96 4.29v3.468c0 1.494.997 2.743 1.726 3.63.123.148.27.327.384.48h-.11z"/></svg>