<svg xmlns="http://www.w3.org/2000/svg" width="17" height="17" viewBox="0 0 17 17"><title>uniE045</title><path d="M12.172 4.653l-5.2 2.235c-.093.048-.17.124-.217.218l-2.382 4.8c-.097.193-.062.425.088.578.097.098.227.15.36.15.073 0 .147-.016.217-.05l5.076-2.108c.093-.045.17-.117.22-.207l2.504-4.93c.107-.193.075-.432-.077-.59s-.392-.197-.587-.097zm-6.23 6.384l1.443-2.95 1.46 1.826-2.904 1.124zM9.706 9.29L8.233 7.445l2.935-1.158-1.46 3.003zM8.5 0C3.806 0 0 3.806 0 8.5S3.806 17 8.5 17c4.695 0 8.5-3.805 8.5-8.5S13.195 0 8.5 0zm0 15.954c-4.1 0-7.438-3.353-7.438-7.454S4.4 1.062 8.5 1.062 15.938 4.4 15.938 8.5 12.6 15.954 8.5 15.954z"/></svg>