<svg xmlns="http://www.w3.org/2000/svg" width="17" height="17" viewBox="0 0 17 17"><title>uniE051</title><path d="M.563 15.644H.58c.27-.01.44-.218.462-.486.018-.197.547-4.965 7.99-4.96l.016 3.05c0 .204.118.392.304.48.184.088.406.06.564-.07l6.89-5.707c.123-.1.193-.25.193-.41s-.073-.31-.196-.41l-6.89-5.655c-.158-.13-.377-.155-.562-.068-.185.088-.304.275-.304.48L9.03 4.87c-3.086.097-5.477 1.09-7.027 2.904-2.522 2.95-1.96 7.24-1.933 7.42.04.26.23.45.492.45zM9.58 9.128c-5.317.003-7.35 1.798-8.51 3.384.17-1.27.666-2.8 1.744-4.05C4.247 6.798 6.557 5.92 9.58 5.92c.294 0 .53-.237.53-.53V3.005l5.52 4.538-5.52 4.58V9.66c0-.142-.055-.278-.155-.377s-.234-.155-.375-.155z"/></svg>