<svg xmlns="http://www.w3.org/2000/svg" width="17" height="17" viewBox="0 0 17 17"><title>uniE032</title><path d="M15.938 1.327H1.063C.48 1.327 0 1.805 0 2.39v12.222c0 .584.478 1.063 1.063 1.063h14.875c.584 0 1.063-.478 1.063-1.063V2.39c0-.584-.477-1.063-1.062-1.063zm0 13.284H1.063v-3.13l4.264-4.13 4.396 4.39c.18.22.504.192.733.02L12.396 10l3.5 3.592c.013.013.028.023.042.035v.982zm0-2.494l-3.122-3.194c-.19-.187-.486-.206-.696-.046l-2 1.744-4.4-4.35c-.093-.115-.23-.184-.376-.194-.146-.005-.29.043-.398.143L1.063 9.997V2.39h14.875v9.727zm-3.72-5.473c.587 0 1.06-.475 1.06-1.06s-.473-1.06-1.06-1.06-1.06.475-1.06 1.06c0 .585.475 1.06 1.06 1.06z"/></svg>