<svg xmlns="http://www.w3.org/2000/svg" width="17" height="17" viewBox="0 0 17 17"><title>uniE061</title><path d="M16.464 11.71c0-.008.003-.017.003-.026V.61c.006-.058.004-.118-.01-.18-.045-.247-.26-.434-.522-.434-.098 0-.188.028-.267.074L5.742 2.654c-.18.044-.31.178-.366.343-.04.075-.066.16-.066.252v9.504c-.506-.338-1.152-.542-1.857-.542-1.62 0-2.933 1.073-2.933 2.395s1.313 2.396 2.933 2.396c1.62 0 2.932-1.073 2.932-2.396 0-.067-.006-.134-.012-.2V3.587l9.03-2.35v8.86c-.504-.338-1.15-.542-1.856-.542-1.62 0-2.932 1.073-2.932 2.395s1.313 2.396 2.932 2.396c1.62 0 2.932-1.073 2.932-2.396 0-.082-.006-.162-.016-.24zm-13 4.227c-1.104 0-1.874-.7-1.874-1.328s.77-1.328 1.875-1.328c.983 0 1.7.554 1.846 1.12v.005c0 .054.01.104.026.153 0 .016.004.033.004.05 0 .627-.77 1.327-1.875 1.327zm10.078-2.657c-1.095 0-1.86-.7-1.86-1.328s.764-1.327 1.86-1.327c1.095 0 1.858.7 1.858 1.327s-.763 1.328-1.858 1.328z"/></svg>