<svg xmlns="http://www.w3.org/2000/svg" width="17" height="17" viewBox="0 0 17 17"><title>uniE08A</title><path d="M4.78 1.895c.522 0 1.464.25 2.99 1.753l.758.746.746-.758c1.06-1.077 2.19-1.746 2.945-1.746 1.018 0 1.822.35 2.606 1.13.738.738 1.145 1.717 1.145 2.76s-.405 2.02-1.15 2.766c-.062.062-3.27 3.525-5.96 6.427-.127.12-.27.138-.348.138-.076 0-.22-.016-.345-.133-.655-.73-5.405-6.01-5.957-6.56-.74-.738-1.146-1.72-1.146-2.76s.407-2.022 1.146-2.76c.72-.717 1.56-1 2.572-1m0-1.064c-1.27 0-2.392.38-3.324 1.312-1.944 1.94-1.944 5.082 0 7.022.555.555 5.94 6.547 5.94 6.547.308.307.71.46 1.113.46s.805-.152 1.112-.46c0 0 5.892-6.36 5.954-6.422 1.943-1.94 1.943-5.084 0-7.023C14.61 1.305 13.534.827 12.22.827c-1.257 0-2.657 1-3.703 2.064C7.437 1.83 6.08.834 4.782.834z"/></svg>