<svg xmlns="http://www.w3.org/2000/svg" width="17" height="17" viewBox="0 0 17 17"><title>uniE07D</title><path d="M8.5 2.125c4.1 0 7.438 2.383 7.438 5.313S12.6 12.75 8.5 12.75l-.44.003c-.292 0-.483-.008-.78-.052l-.596-.084-.382.462c-.176.212-1.072.948-2.06 1.422.2-.532.35-1.112.363-1.687l.005-.032v-.74l-.58-.296C2.146 10.78 1.065 9.21 1.065 7.438c0-2.93 3.337-5.313 7.438-5.313M8.5 1.063C3.805 1.063 0 3.917 0 7.438 0 9.63 1.3 11.54 3.546 12.69c0 .014-.004.023-.004.04 0 .952-.534 2-.847 2.538-.024.058-.038.12-.038.19 0 .266.215.48.482.48.04 0 .103-.008.126-.008.006 0 .01 0 .008.002 1.66-.27 3.486-1.738 3.85-2.18.372.055.624.063.937.063l.44-.002c4.695 0 8.5-2.854 8.5-6.375s-3.805-6.375-8.5-6.375z"/></svg>