<svg xmlns="http://www.w3.org/2000/svg" width="17" height="17" viewBox="0 0 17 17"><title>uniE01B</title><path d="M12.34 1.254c-.426-.2-.828-.387-1.194-.57-.937-.47-1.787-.7-2.598-.7-1.632 0-2.76.942-3.47 1.65l-3.433 3.44c-1.838 1.838-2.13 3.71-.95 6.072.182.367.37.77.57 1.196 1.074 2.297 2.184 4.673 4.002 4.673.05 0 .1-.002.153-.006 1.876-.148 2.408-2.562 2.877-4.692.075-.337.145-.66.218-.95.126-.503.375-.814 1.055-1.496l.093-.094.058-.058.152-.15c.682-.683.994-.93 1.496-1.058.287-.072.61-.143.947-.217 2.13-.47 4.542-1.002 4.688-2.88.147-1.907-2.3-3.053-4.665-4.16zm3.572 4.064c-.103 1.324-3.068 1.715-4.833 2.158-.78.197-1.256.61-1.973 1.327l-.15.15-.15.152c-.718.717-1.13 1.192-1.326 1.974-.442 1.765-.832 4.733-2.155 4.837-.024.002-.048.002-.072.002-1.404 0-2.585-3.192-3.627-5.275-1.058-2.117-.605-3.49.753-4.85l.98-.982 1.46-1.46c.398-.398.722-.722.982-.984.843-.845 1.692-1.34 2.72-1.34.63 0 1.323.184 2.124.585 2.116 1.06 5.377 2.266 5.265 3.702zm-7.963.514H9.01V4.77H7.95V5.83zm0-1.594H9.01V3.175H7.95v1.063zm1.592 0h1.063V3.175H9.542v1.063zm0 1.594h1.063V4.77H9.542V5.83zm-4.065 3.19l.404-.404c.2-.2.2-.522 0-.72s-.52-.2-.72 0l-.404.403-.404-.403c-.2-.2-.522-.2-.72 0s-.2.522 0 .72l.403.405-.404.404c-.198.2-.198.522 0 .72s.523.2.722 0l.404-.403.416.416c.2.198.522.198.72 0s.2-.523 0-.723l-.415-.416z"/></svg>