<svg xmlns="http://www.w3.org/2000/svg" width="17" height="17" viewBox="0 0 17 17"><title>uniE043</title><path d="M16.912 4.905L14.59.465c-.135-.26-.486-.47-.778-.47H8.467L8.45-.01l-.015.002h-5.25c-.29 0-.642.21-.78.47L.09 4.816c-.14.258-.11.663.06.9l7.968 11.11c.086.12.2.18.313.18s.227-.06.313-.176l8.1-11.027c.172-.236.203-.64.068-.9zm-1.267-.13H12.8l1.14-3.264 1.706 3.265zM9.552 1.057h3.42L11.91 4.094 9.55 1.057zm1.542 3.718h-4.94L8.487 1.42l2.606 3.355zM5.21 4.268l-1.064-3.21h3.3l-2.234 3.21zm6.092 1.57l-2.856 8.177-2.714-8.177h5.57zm-4.048 7.96l-5.71-7.96h3.068l2.64 7.96zm5.173-7.96H15.5l-5.86 7.978 2.787-7.978zM3.13 1.368l1.13 3.407H1.317L3.13 1.368z"/></svg>