<svg xmlns="http://www.w3.org/2000/svg" width="17" height="17" viewBox="0 0 17 17"><title>uniE096</title><path d="M8.56-.006c-3.484 0-6.435 2.968-6.435 6.484 0 3.682 3.42 7.447 5.72 10.093.01.012.382.425.84.425h.04c.46 0 .828-.413.838-.424 2.16-2.48 5.313-6.574 5.313-10.092 0-3.516-2.302-6.484-6.314-6.484zm.214 15.864c-.02.02-.046.04-.07.057-.024-.017-.05-.038-.07-.057l-.28-.32c-2.18-2.502-5.167-5.93-5.167-9.06 0-2.94 2.46-5.42 5.373-5.42 3.628 0 5.252 2.722 5.252 5.42 0 2.377-1.695 5.533-5.04 9.38zM8.52 3.21c-1.76 0-3.19 1.428-3.19 3.19S6.76 9.585 8.52 9.585 11.706 8.16 11.706 6.4 10.28 3.21 8.52 3.21zm0 5.313c-1.173 0-2.15-.976-2.15-2.148S7.323 4.25 8.495 4.25c1.172 0 2.125.953 2.125 2.125s-.928 2.148-2.1 2.148z"/></svg>