<svg xmlns="http://www.w3.org/2000/svg" width="17" height="17" viewBox="0 0 17 17"><title>uniE09F</title><path d="M10.87 1.094c-.173-.092-.383-.082-.546.028l-5.33 4.185h-1.77c-.906 0-1.643.643-1.643 1.435l.03 3.505c0 .79.735 1.43 1.64 1.43l1.77.002 5.302 4.195c.09.06.193.09.297.09.085 0 .17-.02.248-.06.174-.093.282-.273.282-.47V1.56c0-.195-.11-.376-.282-.468zm-.78 13.343L5.48 10.71c-.088-.06-.19-.092-.297-.092H3.25c-.34 0-.578-.195-.578-.374L2.644 6.74c0-.175.238-.37.58-.37h1.93c.106 0 .21-.032.297-.09l4.638-3.72v11.876zM13.11 5.77c-.294-.048-.563.148-.612.438s.147.563.436.61c.835.14 1.42.87 1.42 1.773 0 .862-.605 1.606-1.437 1.772-.29.057-.476.337-.418.625.05.253.272.427.52.427.034 0 .07-.003.104-.01 1.328-.264 2.29-1.447 2.29-2.813 0-1.41-.97-2.597-2.305-2.82z"/></svg>