<svg xmlns="http://www.w3.org/2000/svg" width="17" height="17" viewBox="0 0 17 17"><title>uniE009</title><path d="M11.362 2.634c.878 0 1.67.36 2.23.936.694-.134 1.348-.38 1.937-.72-.23.692-.713 1.272-1.343 1.64.616-.074 1.206-.232 1.754-.468-.41.593-.926 1.116-1.523 1.533.006.127.01.255.01.382 0 3.913-3.072 8.427-8.69 8.427-1.723 0-3.33-.492-4.68-1.332.24.028.483.042.73.042 1.43 0 2.747-.473 3.792-1.268-1.338-.023-2.466-.88-2.853-2.056.186.035.378.053.575.053.278 0 .548-.036.804-.104-1.397-.272-2.45-1.47-2.45-2.905v-.038c.413.222.883.355 1.385.37-.82-.53-1.358-1.436-1.358-2.464 0-.543.15-1.052.414-1.488C3.602 4.965 5.85 6.145 8.39 6.27c-.053-.217-.08-.446-.08-.675 0-1.636 1.367-2.962 3.054-2.962m4.577 1.39h.004m-4.582-2.45c-2.086 0-3.815 1.523-4.08 3.493-1.708-.343-3.26-1.247-4.376-2.572-.202-.24-.5-.38-.813-.38-.028 0-.056.002-.083.004-.342.027-.65.218-.826.51-.37.616-.566 1.32-.566 2.037 0 .48.086.945.25 1.382-.175.193-.275.446-.275.712v.037c0 1.04.41 2.007 1.095 2.73-.04.182-.03.373.03.556.235.717.664 1.335 1.22 1.805-.373.083-.76.125-1.152.125-.208 0-.41-.01-.602-.035-.042-.005-.084-.007-.127-.007-.446 0-.85.282-1.002.71-.165.47.018.992.44 1.256 1.57.976 3.383 1.492 5.242 1.492 6.043 0 9.68-4.73 9.75-9.352.494-.41.93-.883 1.3-1.414.136-.177.216-.4.216-.64 0-.36-.18-.68-.456-.872.12-.41-.017-.85-.35-1.122-.193-.158-.43-.238-.67-.238-.183 0-.366.047-.53.142-.352.202-.728.363-1.123.478-.716-.538-1.603-.838-2.514-.838z"/></svg>