<svg xmlns="http://www.w3.org/2000/svg" width="17" height="17" viewBox="0 0 17 17"><title>uniE09C</title><path d="M10.354-.004c-3.667 0-6.64 2.973-6.64 6.64 0 1.636.59 3.133 1.572 4.29l-2.114 2.127-2.246-2.267c-.207-.207-.544-.207-.75 0s-.208.544 0 .75l2.247 2.27L.16 16.083c-.208.207-.208.544 0 .75s.543.208.75 0l2.26-2.273 2.266 2.287c.207.207.544.207.75 0s.208-.544 0-.75l-2.267-2.29 2.114-2.128c1.16.995 2.67 1.598 4.32 1.598 3.666 0 6.64-2.973 6.64-6.64S14.02-.005 10.354-.005zm0 12.228c-3.085 0-5.587-2.502-5.587-5.587s2.5-5.587 5.587-5.587 5.587 2.5 5.587 5.587c0 3.085-2.5 5.587-5.586 5.587z"/></svg>