<svg xmlns="http://www.w3.org/2000/svg" width="17" height="17" viewBox="0 0 17 17"><title>uniE04F</title><path d="M14.344 2.635H11.17v-1.02c0-.878-.715-1.593-1.594-1.593h-2.12c-.878 0-1.593.715-1.593 1.594v1.02H2.656c-.587 0-1.063.475-1.063 1.062v12.218c0 .587.476 1.062 1.063 1.062h11.688c.587 0 1.063-.476 1.063-1.062V3.698c0-.587-.476-1.063-1.063-1.063zm-7.418-1.02c0-.292.238-.53.53-.53h2.12c.293 0 .53.238.53.53v1.02h-3.18v-1.02zm7.418 14.3H2.656V3.697h3.207V4.79s-.014.53.528.53c.6 0 .535-.53.535-.53V3.697h3.18V4.79s-.034.533.53.533c.53 0 .533-.533.533-.533V3.697h3.174v12.218z"/></svg>