<svg xmlns="http://www.w3.org/2000/svg" width="17" height="17" viewBox="0 0 17 17"><title>uniE078</title><path d="M17 8.5C17 3.805 13.194 0 8.5 0S0 3.805 0 8.5C0 13.194 3.805 17 8.5 17S17 13.194 17 8.5zm-15.954 0c0-4.1 3.353-7.438 7.454-7.438S15.938 4.4 15.938 8.5 12.6 15.938 8.5 15.938 1.046 12.6 1.046 8.5zm7.99 3.724V6.24l1.923 1.922c.206.207.543.207.75 0s.207-.544 0-.75L8.49 4.27l-3.222 3.14c-.104.103-.156.24-.156.375s.052.272.156.376c.207.207.544.207.75 0l1.956-1.955v6.017c0 .294.238.53.53.53s.532-.237.532-.53z"/></svg>