<svg xmlns="http://www.w3.org/2000/svg" width="17" height="17" viewBox="0 0 17 17"><title>uniE055</title><path d="M17 6.91V1.295C17 .58 16.42 0 15.707 0H9.973c-.36 0-.905 0-1.26.357l-8.4 8.4c-.2.202-.312.47-.312.755s.112.554.314.756l6.42 6.42c.202.202.47.313.756.313s.554-.11.755-.312l8.4-8.4c.36-.36.358-.877.356-1.376zm-1.107.626l-8.407 8.4-6.42-6.43 8.39-8.39c.083-.053.388-.053.514-.053h5.737c.127 0 .23.104.23.23v5.623c0 .202.002.54-.045.62zm-3.143-5.41c-1.174 0-2.125.95-2.125 2.124s.95 2.125 2.125 2.125 2.125-.95 2.125-2.125-.95-2.125-2.125-2.125zm0 3.187c-.587 0-1.063-.476-1.063-1.063s.476-1.063 1.063-1.063 1.063.476 1.063 1.063-.476 1.063-1.063 1.063z"/></svg>