<svg xmlns="http://www.w3.org/2000/svg" width="17" height="17" viewBox="0 0 17 17"><title>uniE065</title><path d="M1.94 9.026h9.205c.294 0 .53-.238.53-.53s-.236-.532-.53-.532h-9.17l1.92-1.922c.208-.207.208-.544 0-.75s-.543-.208-.75 0L.007 8.51l3.138 3.22c.104.105.24.157.376.157s.273-.053.377-.157c.207-.207.207-.544 0-.75L1.942 9.026zM15.932 0h-9.03c-.588 0-1.064.476-1.064 1.063v4.78h1.07V1.712c0-.354.287-.642.642-.642h7.715c.355 0 .643.288.643.643l.017 13.586c0 .355-.288.643-.643.643H7.55c-.355 0-.643-.29-.643-.644V11.14h-1.07v4.797c0 .587.476 1.063 1.064 1.063h9.032c.587 0 1.063-.476 1.063-1.063V1.062C16.995.475 16.52 0 15.932 0z"/></svg>