<svg xmlns="http://www.w3.org/2000/svg" width="17" height="17" viewBox="0 0 17 17"><title>uniE014</title><path d="M13.163 12.23c-1.682 0-2.637-.79-3.27-1.313-.224-.185-.427-.364-.612-.526-.28-.245-.63-.553-.752-.595l-.065-.003c-.02.002-.07.01-.074.012-.085.034-.384.292-.625.498-.218.187-.467.4-.748.62l-.05.04c-.723.562-1.62 1.263-3.208 1.263-1.18 0-2.34-.533-3.032-1.392-.464-.576-.95-1.578-.642-3.08.037-.18.166-.33.34-.39.173-.064.364-.03.507.088.01.01.375.29.98.29.305 0 .623-.073.944-.216.55-.245.942-.932 1.357-1.396.567-.634 1.21-1.35 2.27-1.36.73 0 1.39.27 1.98.805.585-.532 1.24-.8 1.953-.8 1.08.007 1.736.726 2.315 1.36.422.463.82 1.15 1.37 1.394.322.143.643.215.955.215.63 0 1.02-.287 1.037-.3.146-.108.337-.136.506-.07s.294.214.327.393c.284 1.485-.215 2.48-.684 3.054-.71.87-1.89 1.41-3.08 1.41zM8.48 8.73l.076.003.078.006.055.006c.383.054.74.367 1.28.84.18.157.374.33.59.507.577.478 1.297 1.073 2.603 1.073.885 0 1.756-.392 2.27-1.024.34-.415.516-.908.527-1.474-.25.078-.553.136-.902.136-.46 0-.923-.103-1.378-.305-.75-.335-1.267-1.15-1.72-1.647-.574-.63-.955-1.014-1.53-1.02-.766 0-1.26.483-1.567.846-.1.117-.246.185-.4.185-.154 0-.3-.07-.4-.187-.308-.364-.804-.85-1.558-.85-.583.005-.953.387-1.51 1.01-.45.503-.96 1.32-1.715 1.656-.455.202-.915.305-1.366.305-.34 0-.632-.058-.874-.134 0 .576.168 1.078.504 1.495.497.618 1.345 1 2.215 1 1.228 0 1.906-.53 2.563-1.042l.05-.04c.267-.208.503-.41.71-.588.473-.407.786-.675 1.123-.735 0 0 .16-.027.272-.027z"/></svg>