<svg xmlns="http://www.w3.org/2000/svg" width="17" height="17" viewBox="0 0 17 17"><title>uniE053</title><path d="M17.005 8.46c0 .293-.237.53-.53.53H9.02v5.383c0 1.447-1.177 2.624-2.625 2.624s-2.625-1.178-2.625-2.624c0-.293.238-.53.53-.53s.532.237.532.53c0 .862.7 1.563 1.563 1.563s1.563-.7 1.563-1.563V8.99H.524c-.293 0-.53-.237-.53-.53 0-4.105 3.002-6.71 7.965-6.88V.532c0-.293.237-.53.53-.53s.53.237.53.53V1.58c4.965.17 7.984 2.775 7.984 6.88zm-1.082-.53c-.262-3.33-2.97-5.3-7.432-5.3S1.338 4.6 1.077 7.93h14.847z"/></svg>