<svg xmlns="http://www.w3.org/2000/svg" width="17" height="17" viewBox="0 0 17 17"><title>uniE068</title><path d="M10.103 16.996c-4.828 0-4.865-.2-5.463-.65-.317-.24-.916-.405-3.1-.547-.16-.01-.31-.072-.412-.195-.046-.057-1.14-1.65-1.14-4.2 0-2.515.783-3.66.816-3.714.097-.154.267-.25.45-.25 1.795 0 4.283-2.29 5.956-6.29C7.5.46 7.56.005 8.622.005c.604 0 1.282.433 1.616.988.686 1.134.338 3.57.015 4.872 1.096-.01 3.08-.024 4.023-.024 1.313 0 2.182.783 2.208 1.927.01.378-.04.86-.15 1.11.29.288.662.723.678 1.282.02.722-.453 1.272-.755 1.587.07.21.208.49.194.822-.032.818-.665 1.346-1.06 1.62.034.225.06.648-.013.975-.284 1.305-2.198 1.83-5.275 1.83zM1.82 14.722c1.904.158 2.922.37 3.46.775.414.313.35.437 4.823.437 1.364 0 4.032-.057 4.237-.993.08-.374-.314-.742-.315-.745-.108-.266.012-.58.275-.694.004 0 1.065-.38 1.09-.974.015-.38-.245-.607-.25-.616-.156-.24-.1-.57.136-.733.003-.002.69-.42.673-.987-.014-.45-.608-.768-.626-.78-.133-.075-.23-.206-.26-.357s.004-.308.097-.43c0 0 .27-.43.26-.832-.018-.86-.945-.888-1.144-.888-1.34 0-4.782.014-4.782.014-.186 0-.346-.087-.446-.235s-.107-.332-.05-.5c.52-1.496.81-3.84.33-4.642-.143-.236-.175-.472-.707-.472-.073 0-.248.058-.43.494-1.776 4.247-4.428 6.704-6.6 6.926-.186.427-.538 1.312-.538 2.918 0 1.64.52 2.907.77 3.318z"/></svg>