<svg xmlns="http://www.w3.org/2000/svg" width="17" height="17" viewBox="0 0 17 17"><title>video-camera</title><path d="M12.99 6.75V4.5c0-.827-.677-1.5-1.51-1.5H4v-.5c0-.276.225-.5.5-.5h5.54V1H4.5C3.673 1 3 1.673 3 2.5V3H1.512C.678 3 0 3.673 0 4.5v2C0 7.33.678 8 1.512 8h.504v5.5c0 .827.673 1.5 1.5 1.5h7.964c.834 0 1.512-.673 1.512-1.5v-2.25L17 14.03V3.967L12.99 6.75zM16 12.12L11.99 9.34V13.5c0 .276-.228.5-.51.5H3.515c-.275 0-.5-.224-.5-.5V7H1.512C1.23 7 1 6.778 1 6.5v-2c0-.276.23-.5.512-.5h9.968c.282 0 .512.224.512.5v4.163L16 5.88v6.24z"/></svg>