<svg xmlns="http://www.w3.org/2000/svg" width="17" height="17" viewBox="0 0 17 17"><title>volume-2</title><path d="M9.538 1.094c-.173-.092-.383-.082-.546.028l-5.33 4.185H1.89c-.906 0-1.643.643-1.643 1.435l.027 3.505c0 .79.736 1.43 1.64 1.43l1.77.002 5.303 4.195c.09.06.193.09.297.09.086 0 .17-.02.25-.06.173-.093.28-.273.28-.47V1.56c0-.195-.107-.376-.28-.468zm-.78 13.343l-4.61-3.728c-.088-.06-.19-.092-.297-.092H1.92c-.342 0-.58-.195-.58-.374L1.312 6.74c0-.175.238-.37.58-.37h1.93c.106 0 .21-.032.297-.09l4.636-3.72v11.876zm5.328-5.846c0-1.41-.97-2.596-2.306-2.82-.294-.048-.563.148-.612.438s.147.563.436.61c.835.14 1.42.87 1.42 1.773 0 .862-.605 1.606-1.437 1.772-.288.057-.475.337-.417.625.05.253.272.427.52.427.034 0 .07-.003.104-.01 1.327-.265 2.29-1.448 2.29-2.813zm-.705-4.873c-.273-.102-.58.037-.682.312s.037.58.312.682c1.603.598 2.68 2.157 2.68 3.88s-1.078 3.283-2.68 3.884c-.274.103-.413.41-.31.684.08.214.282.345.498.345.062 0 .125-.01.186-.034 2.014-.754 3.368-2.716 3.368-4.88s-1.355-4.12-3.37-4.873z"/></svg>