<svg xmlns="http://www.w3.org/2000/svg" width="17" height="17" viewBox="0 0 17 17"><title>wallet2</title><path d="M16.994 4.822c.008-.393-.098-1.31-1.292-1.628L3.71.794c-.88 0-1.595.714-1.595 1.593v2.137h-.53c-.877.003-1.59.715-1.59 1.592v8.497c0 .88.716 1.594 1.595 1.594h13.82c.88 0 1.594-.715 1.594-1.594l-.01-9.79zM3.177 2.387c0-.278.214-.506.485-.53l11.72 2.373c.005.002-.086.298-.512.292H3.177V2.387zM15.94 14.613c0 .293-.237.53-.53.53H1.59c-.293 0-.53-.237-.53-.53V6.116c0-.293.237-.53.53-.53h13.282c.52 0 1.07-.18 1.07-.53v9.558zM3.186 9.305c-.587 0-1.063.476-1.063 1.063s.476 1.063 1.063 1.063 1.062-.475 1.062-1.062-.476-1.063-1.062-1.063z"/></svg>