<svg xmlns="http://www.w3.org/2000/svg" width="17" height="17" viewBox="0 0 17 17"><title>widget</title><path d="M2 0h1v1H2V0zm3 0H4v1h1V0zm2 0H6v1h1V0zm2 0H8v1h1V0zm2 0h-1v1h1V0zm2 0h-1v1h1V0zm1 1h1V0h-1v1zM2 17h1v-1H2v1zm2 0h1v-1H4v1zm2 0h1v-1H6v1zm2 0h1v-1H8v1zm2 0h1v-1h-1v1zm2 0h1v-1h-1v1zm2 0h1v-1h-1v1zm2-17v1h1V0h-1zm0 3h1V2h-1v1zm0 2h1V4h-1v1zm0 2h1V6h-1v1zm0 2h1V8h-1v1zm0 2h1v-1h-1v1zm0 2h1v-1h-1v1zm0 2h1v-1h-1v1zm0 2h1v-1h-1v1zM0 1h1V0H0v1zm0 2h1V2H0v1zm0 2h1V4H0v1zm0 2h1V6H0v1zm0 2h1V8H0v1zm0 2h1v-1H0v1zm0 2h1v-1H0v1zm0 2h1v-1H0v1zm0 2h1v-1H0v1zm13.465-9.07c.02.186.035.376.035.57s-.014.384-.035.57l-.037.33-1.44.43c-.024.066-.05.13-.08.194l.712 1.322-.205.258c-.238.3-.51.572-.81.81l-.26.207-1.32-.71-.194.08-.43 1.437-.327.038c-.188.022-.38.035-.573.035s-.385-.013-.573-.035l-.327-.038-.432-1.438c-.065-.026-.13-.052-.193-.08l-1.323.71-.258-.205c-.3-.238-.572-.51-.81-.81l-.204-.258.71-1.322c-.028-.065-.054-.13-.08-.194L3.573 9.4l-.037-.33c-.02-.186-.035-.376-.035-.57s.014-.384.035-.57l.037-.33 1.44-.43c.024-.066.05-.13.08-.194L4.38 5.654l.204-.258c.237-.298.51-.57.81-.81l.26-.207 1.32.71c.064-.028.13-.054.194-.08L7.6 3.574l.327-.038c.376-.044.77-.044 1.146 0l.327.038.432 1.438c.065.025.13.052.193.08l1.322-.71.258.205c.3.238.572.51.81.81l.205.258-.71 1.323.08.192 1.438.433.037.33zm-.965.57c0-.045 0-.09-.003-.135l-1.303-.39-.076-.26c-.052-.176-.123-.35-.21-.513l-.128-.237.642-1.193c-.062-.066-.126-.13-.193-.193l-1.193.64-.24-.127c-.163-.088-.336-.16-.512-.212l-.26-.076-.39-1.3c-.09-.005-.18-.005-.27 0l-.39 1.3-.26.078c-.178.053-.35.124-.512.21l-.237.13-1.194-.643c-.067.062-.13.126-.193.192l.64 1.193-.127.237c-.088.164-.16.336-.212.514l-.076.26-1.3.39c-.003.044-.004.09-.004.134s0 .09.003.134l1.302.39.077.26c.052.178.124.35.212.515l.127.236-.64 1.193c.06.065.125.13.192.192l1.193-.642.237.127c.164.088.337.16.513.212l.26.076.39 1.302c.09.004.182.004.27 0l.392-1.3.26-.078c.176-.052.35-.124.513-.212l.237-.127 1.192.643c.066-.062.13-.127.192-.193l-.642-1.193.127-.237c.088-.164.16-.336.212-.514l.076-.26 1.3-.39c.003-.046.004-.09.004-.136z"/></svg>