<svg xmlns="http://www.w3.org/2000/svg" width="17" height="17" viewBox="0 0 17 17"><title>youtube</title><path d="M8.3 6.422c.438 0 .77-.16 1.007-.484.18-.237.265-.617.265-1.12v-1.66c0-.503-.084-.873-.265-1.11-.238-.32-.57-.483-1.006-.483-.427 0-.76.16-.994.483-.18.238-.266.608-.266 1.11v1.66c0 .504.085.874.266 1.12.235.323.567.484.995.484zm-.407-3.434c0-.436.133-.654.408-.654.286 0 .41.218.41.654V4.98c0 .437-.124.664-.41.664-.274 0-.407-.228-.407-.664V2.988zM10.35 6.07c-.048-.142-.075-.37-.075-.71V1.622h.863v3.48c0 .2 0 .314.01.334.02.133.085.208.2.208.17 0 .35-.133.54-.408V1.622h.862v4.734h-.863v-.522c-.34.398-.663.588-.978.588-.276 0-.475-.113-.56-.35zm3.283 5.74v.437h-.854v-.436c0-.426.142-.645.426-.645s.427.22.427.646zM4.353 1.775C4.147 1.186 3.94.588 3.738 0h1.007l.673 2.495L6.062 0h.968L5.882 3.785v2.57h-.948v-2.57c-.086-.465-.276-1.13-.58-2.01zm10.93 7.01c-.17-.75-.788-1.3-1.518-1.384-1.746-.19-3.51-.19-5.266-.19s-3.52 0-5.257.19c-.738.085-1.346.635-1.526 1.385-.237 1.062-.247 2.22-.247 3.32 0 1.09 0 2.257.247 3.32.17.75.788 1.3 1.518 1.376 1.745.2 3.51.2 5.265.2s3.52 0 5.266-.2c.73-.075 1.337-.625 1.518-1.375.237-1.062.247-2.23.247-3.32 0-1.1 0-2.258-.247-3.32zm-9.8.96H4.47v5.397h-.95V9.744h-.997V8.85h2.96v.893zm2.562 5.397H7.2v-.51c-.342.388-.664.578-.968.578-.274 0-.474-.114-.55-.35-.048-.143-.076-.362-.076-.693v-3.71h.845v3.454c0 .2 0 .303.01.332.02.132.086.2.2.2.17 0 .35-.133.54-.4v-3.585h.845v4.684zm3.226-1.403c0 .437-.02.75-.085.948-.104.342-.342.522-.674.522-.302 0-.597-.17-.882-.522v.456h-.843V8.85h.843v2.06c.275-.342.57-.512.883-.512.333 0 .57.18.675.53.066.19.086.503.086.94v1.87zm3.207-.778H12.78v.824c0 .437.142.654.436.654.21 0 .332-.113.38-.34.01-.048.02-.238.02-.58h.862v.124c0 .275 0 .465-.02.55-.02.19-.095.36-.198.512-.23.332-.58.503-1.024.503s-.78-.16-1.025-.484c-.18-.228-.274-.598-.274-1.1V11.98c0-.502.086-.862.266-1.1.247-.323.58-.484 1.016-.484.428 0 .76.16 1.005.484.172.237.257.597.257 1.1v.98zm-4.05-1.16v2.003c0 .427-.125.635-.37.635-.144 0-.286-.066-.43-.208v-2.855c.144-.143.286-.21.43-.21.245 0 .37.22.37.636z"/></svg>