<svg xmlns="http://www.w3.org/2000/svg" width="17" height="17" viewBox="0 0 17 17"><title>zip</title><path d="M9.667 0H2v17h13V5.308L9.667 0zM10 1.742L13.273 5H10V1.742zM3 16V1h3v1h1V1h2v5h5v10H3zm2-8h1v1H5V8zm1 0V7h1v1H6zm0-2V5h1v1H6zM5 6h1v1H5V6zm0-2h1v1H5V4zm1 0V3h1v1H6zM5 2h1v1H5V2zm1 7.39c-1.103 0-2 .896-2 2s.897 2 2 2c.062 0 .12-.008.22-.02.645-.072 1.217-.456 1.53-1.027.166-.303.25-.624.25-.954 0-1.104-.897-2-2-2zm.873 2.474c-.156.285-.44.477-.762.512L6 12.39c-.552 0-1-.45-1-1s.45-1 1-1 1 .45 1 1c0 .16-.043.32-.127.474z"/></svg>