<svg xmlns="http://www.w3.org/2000/svg" width="17" height="17" viewBox="0 0 17 17"><path d="M3.81 5.696h9.382v6.807c0 .623-.502 1.125-1.113 1.125h-.77v2.32c0 .583-.47 1.052-1.05 1.052-.584 0-1.056-.47-1.056-1.052v-2.32H7.796v2.32C7.796 16.53 7.324 17 6.74 17c-.57 0-1.04-.47-1.04-1.052l-.01-2.32h-.757c-.622 0-1.124-.5-1.124-1.125V5.696zm-1.453-.194c-.582 0-1.053.47-1.053 1.042v4.396c0 .583.47 1.052 1.053 1.052S3.4 11.522 3.4 10.94V6.544c0-.57-.47-1.042-1.043-1.042zm10.865-.174H3.768c0-1.625.972-3.036 2.413-3.77L5.455.217c-.04-.07-.02-.163.05-.204.072-.03.165-.01.206.062l.735 1.35c.625-.278 1.32-.43 2.055-.43s1.43.152 2.055.428l.735-1.35c.04-.07.134-.09.205-.06.072.04.092.132.05.204l-.726 1.338c1.43.736 2.402 2.147 2.402 3.772zm-6.48-2.105c0-.215-.174-.4-.398-.4-.216 0-.39.185-.39.4 0 .214.174.398.39.398.224.002.397-.182.397-.397zm4.303 0c0-.215-.173-.4-.39-.4-.224 0-.396.185-.396.4 0 .214.172.398.396.398.216.002.39-.182.39-.397zm3.598 2.28c-.573 0-1.042.46-1.042 1.04v4.397c0 .583.47 1.052 1.043 1.052.582 0 1.053-.47 1.053-1.052V6.544c0-.582-.47-1.042-1.053-1.042z"/></svg>