<svg xmlns="http://www.w3.org/2000/svg" width="17" height="17" viewBox="0 0 17 17"><path d="M16.47 2.222H14.54c-.292 0-.53.234-.53.52v.668L3.015 7.44v-.27c0-.43-.358-.78-.797-.78H.796c-.44 0-.797.35-.797.78v4.688c0 .43.358.78.797.78H2.22c.437 0 .796-.35.796-.78v-.33l1.034.188c-.023.163-.038.326-.038.49 0 1.898 1.56 3.442 3.48 3.442 1.656 0 3.03-1.128 3.38-2.682l3.14.576v.66c0 .286.238.52.53.52h1.927c.29 0 .53-.234.53-.52V2.74c0-.286-.24-.52-.53-.52zM7.49 14.648c-1.366 0-2.478-1.095-2.478-2.44 0-.105.027-.206.04-.31l4.84.89c-.264 1.08-1.235 1.86-2.4 1.86zm8.51-.926h-.99V12.71L2.017 10.325v1.312H1v-4.25h1.016v1.484L15.01 4.11V3.22H16v10.5z"/></svg>