<svg xmlns="http://www.w3.org/2000/svg" width="17" height="17" viewBox="0 0 17 17"><path d="M17 1.5v7.97c0 .826-.673 1.5-1.5 1.5h-.508v-1h.508c.276 0 .5-.226.5-.5V1.5c0-.275-.224-.5-.5-.5h-14c-.276 0-.5.225-.5.5v7.97c0 .274.224.5.5.5H3v2.89l1.78-1.568.66.75L2 15.077V10.97h-.5c-.827 0-1.5-.674-1.5-1.5V1.5C0 .673.673 0 1.5 0h14c.827 0 1.5.673 1.5 1.5zm-2.98 8.04v3.043c0 .827-.673 1.5-1.5 1.5h-.5v3.064l-3.667-3.064H7.5c-.827 0-1.5-.673-1.5-1.5V9.54c0-.827.673-1.5 1.5-1.5h5.02c.827 0 1.5.673 1.5 1.5zm-1 0c0-.275-.224-.5-.5-.5H7.5c-.276 0-.5.225-.5.5v3.043c0 .275.224.5.5.5h1.217l2.303 1.926v-1.927h1.5c.276 0 .5-.225.5-.5V9.54z"/></svg>