<svg xmlns="http://www.w3.org/2000/svg" width="17" height="17" viewBox="0 0 17 17"><path d="M8.94 6.87l1.08-1.34-.003-.002C10.872 4.558 12.104 4 13.395 4h1.898l-1.646-1.646.707-.707L17.207 4.5l-2.854 2.854-.707-.707L15.293 5h-1.898c-.99 0-1.93.425-2.595 1.16L9.72 7.497l-.78-.627zm-3.09 3.826l-.01-.008C5.173 11.52 4.177 12 3.107 12H0v1h3.107c1.37 0 2.645-.61 3.503-1.676l.01.01.942-1.167-.777-.63-.934 1.16zm7.796-.342L15.293 12h-1.898c-1.052 0-2.03-.47-2.7-1.28l-4.27-5.266-.01.008C5.566 4.536 4.37 4 3.108 4H0v1h3.107c.998 0 1.948.428 2.61 1.17l4.162 5.132-.006.004c.86 1.076 2.143 1.694 3.52 1.694h1.898l-1.646 1.646.707.707 2.854-2.854-2.854-2.855-.707.71z"/></svg>