<svg xmlns="http://www.w3.org/2000/svg" width="17" height="17" viewBox="0 0 17 17"><path d="M8.563 16.5C4.845 16.5 1.5 13.574 1.5 9.594 1.5 5.62 4.6 3.78 5.174 3.48c.684-.364 1.176-.556 1.95-1.175.383-.3.702-.74.803-1.805.555.665 1.22 1.44 1.694 1.76.775.51 1.55.71 2.36 1.22.492.3 3.518 2.15 3.518 6.24 0 4.083-3.226 6.78-6.935 6.78zm5.467-6.597c-.73 0-2.205 1.513-2.98 1.522-.9.018-2.148-1.787-3.953-1.77-1.422.01-2.542 1.14-2.56 2.343-.01.675.21 1.176.674 1.494.31.21.593.337 1.513.337 1.53 0 3.472-1.897 4.365-1.868.71.026 1.812 1.768 2.37 1.804.436.036.664-.164 1.037-.7.364-.548.52-1.405.52-1.888 0-.473-.21-1.275-.985-1.275zm-2.113 4.838c-.31.23-1.003.512-1.987.512s-1.448-.21-1.758-.447c-.045-.036-.027-.036-.12-.036-.1 0-.153.045-.235.108-.073.064-.11.22 0 .328.674.62 1.804.565 2.633.49.84-.08 1.55-.572 1.622-.645.11-.107.082-.2.063-.263-.018-.064-.073-.154-.218-.046zm-.493-1.556c-.182-.118-.445-.137-.69-.137-.248 0-.384-.018-.647.09-.266.11-.54.356-.71.512-.175.153-.202.272-.11.4.09.117.19.044.446-.174.264-.21.438-.4.975-.4s.63.2.737.4c.11.2.12.228.228.174.128-.064.192-.156.128-.312-.064-.154-.173-.427-.356-.554z"/></svg>