<svg xmlns="http://www.w3.org/2000/svg" width="17" height="17" viewBox="0 0 17 17"><path d="M7.84 5.61l-.035.2.673-.087.03-.004.638.08-.03-.18c1.09-.203 3.307-.726 4.574-1.81.494-.423.766-.99.766-1.6s-.272-1.18-.766-1.602c-.942-.808-2.56-.807-3.503 0-.814.697-1.36 1.726-1.71 2.628-.353-.9-.898-1.926-1.712-2.62-.94-.807-2.558-.806-3.5 0-.493.42-.765.988-.765 1.596 0 .608.272 1.174.766 1.595C4.533 4.89 6.75 5.41 7.84 5.61zm2.997-4.242c.29-.25.68-.386 1.1-.386.42 0 .812.137 1.102.386.268.23.415.528.415.84 0 .313-.147.61-.416.84-1.033.884-2.93 1.356-3.967 1.56.245-.89.783-2.4 1.764-3.24zm-6.922.007c.29-.248.68-.385 1.1-.385.42 0 .81.137 1.1.385.977.833 1.515 2.337 1.76 3.223-1.035-.2-2.927-.67-3.96-1.552-.268-.228-.415-.524-.415-.834 0-.31.147-.608.415-.837zM17 6H0v4h1v7h15v-7h1V6zM6.976 7h3.006l1.066 5.843-1.648-.685-1.3 1.205L6.975 7zM1 7h4.96l.353 2H1V7zm14 9H2v-6h4.49l.942 5.343 2.176-2.015 2.752 1.145L11.545 10H15v6zm1-7h-4.638l-.365-2H16v2z"/></svg>