<svg xmlns="http://www.w3.org/2000/svg" width="17" height="17" viewBox="0 0 17 17"><path d="M17 2.615v1.308h-2.615V6.54h-1.308V3.922h-2.615V2.615h2.615V0h1.308v2.615H17zM10.39 12.78c0 1.175-.56 2.125-1.43 2.88C7.785 16.674 6.18 17 4.67 17 2.76 17 0 16.183 0 13.813c0-.48.164-.95.38-1.38.907-1.838 3.747-2.31 5.576-2.36-.336-.44-.653-.95-.653-1.522 0-.336.12-.56.225-.877-.246.03-.48.05-.715.05-1.982 0-3.698-1.46-3.698-3.514 0-1.942 1.5-3.597 3.36-4.005C5.1.07 5.74 0 6.385 0h4.466L9.473.807h-1.38c1.012.633 1.522 1.87 1.522 3.014 0 2.708-2.29 2.912-2.29 4.26 0 1.32 3.066 1.84 3.066 4.7zM7.725 4.853c0-1.553-.84-4.117-2.73-4.117-1.336 0-1.99 1.185-1.99 2.39 0 1.553 1.02 3.985 2.84 3.985 1.398 0 1.88-1.01 1.88-2.257zM8.95 13.66c0-1.43-1.34-2.228-2.38-2.954-.175-.02-.34-.02-.513-.02-1.674 0-4.168.53-4.168 2.656 0 1.96 2.206 2.718 3.84 2.718 1.523 0 3.22-.613 3.22-2.4z"/></svg>