<svg xmlns="http://www.w3.org/2000/svg" width="17" height="17" viewBox="0 0 17 17"><path d="M16.922 7.494c0 .83-.688 1.504-1.535 1.504h-2.325c.06.162.09.337.09.518 0 .79-.628 1.44-1.423 1.496.057.158.088.327.088.504 0 .83-.69 1.506-1.536 1.506h-.136c.05.145.075.3.075.463 0 .835-.69 1.515-1.535 1.515H5.5c-.67 0-1.555-.322-2.336-.606-.507-.185-1.08-.394-1.31-.394H1c-.276 0-.5-.224-.5-.5s.224-.5.5-.5h.855c.403 0 .954.2 1.65.454.704.256 1.5.546 1.995.546h3.185c.29 0 .536-.236.536-.516 0-.292-.26-.454-.52-.463-.27-.01-.486-.235-.48-.508s.227-.49.5-.49h1.56c.297 0 .537-.228.537-.507 0-.264-.22-.483-.498-.5-.272-.018-.48-.245-.47-.516.008-.27.228-.485.5-.485h1.267c.295 0 .535-.225.535-.5 0-.26-.203-.488-.462-.52-.26-.035-.45-.267-.434-.53.018-.263.235-.467.5-.467h3.63c.295 0 .535-.226.535-.504 0-.28-.24-.506-.534-.506h-6.18c-.206 0-.39-.126-.466-.318s-.023-.41.128-.55l1.21-1.113c.46-.46.373-.605.288-.748-.148-.25-.48-.336-.742-.19L2.527 7.36c-.09.052-.176.164-.21.297-.056.223-.255.378-.485.378H1c-.276 0-.5-.224-.5-.5s.224-.5.5-.5h.5c.133-.233.328-.428.572-.564L9.17 3.18c.693-.39 1.632-.145 2.055.566.574.957-.173 1.702-.453 1.982l-.282.26h4.897c.846 0 1.535.676 1.535 1.506z"/></svg>