<svg xmlns="http://www.w3.org/2000/svg" width="17" height="17" viewBox="0 0 17 17"><path d="M.153 6.276C.048 5.856 0 5.5 0 5.158c0-2.48 2.02-4.5 4.5-4.5 1.74 0 3.25.992 4 2.44.75-1.448 2.26-2.44 4-2.44 2.48 0 4.5 2.02 4.5 4.5 0 .342-.047.688-.147 1.09l-.113.37c-.08.33-.228.72-.453 1.198l-.904-.426c.196-.418.322-.75.395-1.04l.112-.37c.073-.295.11-.564.11-.822 0-1.93-1.57-3.5-3.5-3.5S9 3.228 9 5.158H8c0-1.93-1.57-3.5-3.5-3.5S1 3.228 1 5.158c0 .26.038.536.116.847l.1.316c.094.288.235.62.44 1.034L.762 7.8C.534 7.34.376 6.967.264 6.627l-.11-.35zM8.5 15.21c-.807-.632-3.103-2.532-4.977-5.012l-.797.604c2.394 3.167 5.354 5.352 5.478 5.443l.298.218.296-.22c.13-.095 3.187-2.374 5.536-5.438l-.793-.61c-1.847 2.41-4.218 4.367-5.04 5.016zm5.672-7.795l-2.832 2-2.832-2-2.833 2-2.837-2L-.288 9.62l.576.818 2.55-1.798 2.837 2 2.833-2 2.832 2 2.832-2 2.54 1.797.577-.816-3.118-2.205z"/></svg>