<svg xmlns="http://www.w3.org/2000/svg" width="17" height="17" viewBox="0 0 17 17"><path d="M12.5.658c-1.74 0-3.25.992-4 2.44-.75-1.448-2.26-2.44-4-2.44-2.48 0-4.5 2.02-4.5 4.5 0 .343.048.7.154 1.118l.11.35c1.43 4.355 7.658 9.394 7.923 9.605l.313.253.313-.252c.282-.226 6.926-5.597 7.927-9.613l.112-.368c.1-.403.148-.75.148-1.092 0-2.48-2.02-4.5-4.5-4.5zm3.39 5.322l-.114.37c-.81 3.246-5.946 7.727-7.276 8.843C7.218 14.11 2.378 9.856 1.215 6.32l-.1-.315C1.038 5.695 1 5.417 1 5.158c0-1.93 1.57-3.5 3.5-3.5S8 3.228 8 5.158v.252h1v-.252c0-1.93 1.57-3.5 3.5-3.5s3.5 1.57 3.5 3.5c0 .258-.038.527-.11.822z"/></svg>