<svg xmlns="http://www.w3.org/2000/svg" width="17" height="17" viewBox="0 0 17 17"><path d="M16.5 10.867c0 1.71-1.414 3.102-3.148 3.102-.062 0-.117-.01-.172-.01H3.672C1.922 13.86.5 12.524.5 10.79c0-1.165.633-2.18 1.578-2.735-.062-.203-.094-.414-.094-.64 0-1.196.977-2.165 2.195-2.165.5 0 .968.172 1.343.453.766-1.578 2.39-2.672 4.29-2.672 2.632 0 4.757 2.103 4.757 4.69 0 .093-.008.187-.008.28 1.133.47 1.938 1.578 1.938 2.867zM6.438 12.14c.766 0 1.32-.24 1.875-.772-.227-.28-.477-.555-.71-.836-.32.312-.673.508-1.126.508-.555 0-1.03-.367-1.03-.945 0-.57.476-.945 1.015-.945 1.72 0 2.086 3 4.586 3 1.22 0 2.25-.766 2.25-2.047 0-1.297-1.04-2.055-2.273-2.055-.766 0-1.336.22-1.883.758.25.273.484.562.727.844.31-.305.663-.5 1.108-.5.516 0 1.03.367 1.03.914 0 .602-.437.984-1.022.984-1.664 0-2.11-3-4.547-3-1.212 0-2.282.742-2.282 2.03-.002 1.32 1.037 2.063 2.28 2.063z"/></svg>