<svg xmlns="http://www.w3.org/2000/svg" width="17" height="17" viewBox="0 0 17 17"><path d="M12.983 6.94l-.938.938-.707-.707.938-.937c.975-.975.975-2.56 0-3.535s-2.56-.975-3.535 0L5.755 5.686c-.975.975-.975 2.56 0 3.535s2.56.976 3.535 0l.706.708c-.683.683-1.578 1.023-2.475 1.023s-1.79-.34-2.473-1.022c-1.364-1.364-1.364-3.585 0-4.95l2.987-2.986c1.365-1.365 3.584-1.365 4.95 0 1.364 1.363 1.364 3.584 0 4.948zm-6.94 1.094l-.13.13.704.708.13-.13c.976-.975 2.562-.975 3.536 0s.975 2.56 0 3.535L7.26 15.302c-.975.975-2.56.975-3.535 0s-.975-2.56 0-3.535l1.058-1.06-.707-.706-1.058 1.06c-1.364 1.364-1.364 3.585 0 4.95.683.682 1.578 1.022 2.475 1.022s1.792-.34 2.475-1.023l3.023-3.025c1.365-1.364 1.365-3.585 0-4.95-1.365-1.366-3.585-1.363-4.948 0z"/></svg>