<svg xmlns="http://www.w3.org/2000/svg" width="17" height="17" viewBox="0 0 17 17"><path d="M13.85 15.25c-.51.26-1.19.832-1.44 1.072-.187.18-.963.27-1.4.045-.51-.26-.242-.67-1.028-.696-.393-.01-.777-.01-1.16-.01-.34.01-.68.028-1.028.036-1.178.027-1.294.787-2.054.76-.518-.018-1.17-.43-2.295-.66-.786-.162-1.544-.205-1.706-.554-.16-.35.196-.74.222-1.08.027-.456-.34-1.072-.07-1.305.23-.205.722-.054 1.043-.23.34-.197.482-.35.482-.77.125.428-.01.776-.286.946-.17.107-.48.16-.74.135-.206-.02-.33.008-.385.09-.08.097-.054.276.045.508.098.232.214.384.196.67-.01.285-.33.625-.276.866.018.09.107.17.33.232.357.098 1.01.196 1.643.35.706.177 1.438.498 1.894.436 1.357-.188.58-1.643.366-1.99-1.152-1.805-1.91-2.983-2.518-2.52-.152.126-.16-.303-.152-.473.027-.59.322-.803.5-1.26.34-.866.598-1.856 1.116-2.365.386-.5.993-1.313 1.11-1.74-.1-.93-.126-1.912-.143-2.768-.018-.92.125-1.725 1.16-2.286.25-.135.58-.188.93-.188.615-.01 1.302.17 1.74.49.697.52 1.134 1.617 1.08 2.402-.035.616.072 1.25.27 1.91.23.778.598 1.322 1.187 1.947.706.75 1.26 2.222 1.42 3.16.143.876-.054 1.42-.24 1.447-.287.043-.465.945-1.358.91-.57-.027-.625-.366-.786-.66-.26-.456-.518-.313-.616.17-.054.24-.02.598.062.864.16.564.107 1.09.01 1.743-.19 1.232.865 1.464 1.57.874.697-.58.85-.67 1.724-.973 1.33-.456.884-.857.17-1.098-.644-.215-.67-1.296-.44-1.5.055 1.16.662 1.33.912 1.49 1.098.68-.41 1.244-1.063 1.574zm-1.5-4.312c.24-.805.133-1.125-.027-1.885-.125-.57-.652-1.35-1.063-1.59.107.09.304.35.51.74.356.672.713 1.662.48 2.484-.088.32-.302.365-.445.374-.625.073-.26-.75-.518-1.864-.295-1.25-.598-1.34-.67-1.438-.367-1.624-.768-1.463-.885-2.07-.098-.545.474-.99-.303-1.143-.242-.045-.58-.286-.715-.304-.134-.016-.206-.9.294-.928.49-.036.58.554.49.787-.142.23.01.32.25.24.197-.063.072-.58.117-.652-.125-.75-.438-.857-.76-.92-1.232.098-.678 1.456-.803 1.33-.18-.187-.696-.017-.696-.134.01-.696-.224-1.098-.545-1.107-.357-.01-.5.49-.518.776-.027.268.152.832.286.787.09-.027.242-.206.08-.196-.08 0-.204-.197-.222-.43-.01-.232.08-.464.384-.455.348.008.348.704.312.73-.115.08-.26.234-.277.26-.115.188-.338.24-.428.322-.153.16-.188.34-.072.4.41.233.276.5.848.52.375.018.65-.054.91-.134.197-.062.832-.196.965-.43.063-.097.135-.097.18-.07.088.044.106.214-.117.268-.312.09-.625.26-.91.367-.277.115-.366.16-.625.204-.59.107-1.026-.214-.634.17.134.125.26.205.598.197.75-.027 1.58-.93 1.66-.528.018.09-.232.196-.428.295-.696.34-1.187 1.02-1.634.786-.402-.214-.803-1.206-.795-.758.01.687-.902 1.294-.482 2.08-.277.07-.893 1.384-.982 2.062-.053.393.037.875-.062 1.143-.134.393-.74-.375-.544-1.312.035-.16 0-.196-.045-.114-.242.437-.108 1.053.088 1.48.08.19.286.27.438.43.312.356 1.544 1.268 1.76 1.49.276.26.196.866-.376.93.295.553.58.607.572 1.508.34-.178.206-.57.062-.82-.1-.18-.223-.26-.197-.304.018-.027.197-.18.295-.062.303.34.875.4 1.482.32.616-.07 1.277-.285 1.58-.776.143-.232.24-.312.304-.268.07.035.1.196.09.464-.01.286-.126.58-.206.822-.08.277-.107.464.16.474.072-.5.215-.992.25-1.492.046-.57-.365-1.624.082-2.152.116-.143.258-.16.455-.16.025-.715 1.124-.66 1.49-.366 0-.162-.348-.313-.49-.376zm-7.287-2.57c-.063.114-.223.203-.1.222.046.01.17-.1.225-.223.044-.152.09-.233.018-.26-.08-.026-.063.134-.143.26zm2.044-4.84c-.107-.028-.09.132-.035.115.036 0 .08.054.062.134-.018.107-.01.18.072.18.01 0 .026 0 .026-.027.037-.225-.07-.385-.125-.403zm.242.82c-.09.01-.073-.197.213-.18-.18.02-.116.18-.214.18zm.73-.152c.26-.115.35.063.26.1-.09.025-.1-.145-.26-.1zm1.08-.723c-.115.01-.08.062-.025.08.07.02.143.144.16.277 0 .018.09-.018.09-.045.008-.213-.18-.32-.224-.312zm.52-1.928c-.072-.072-.144-.135-.215-.135-.18.018-.09.205-.116.295-.037.098-.17.18-.08.25.08.062.133-.098.303-.16.044-.02.25.008.294-.09.008-.045-.107-.098-.188-.16zm.99 3.945c-.17-.106-.205-.285-.267-.223-.188.205.232.634.41.67.107.02.188-.125.16-.25-.035-.17-.16-.107-.303-.197z"/></svg>