<svg xmlns="http://www.w3.org/2000/svg" width="17" height="17" viewBox="0 0 17 17"><path d="M17 4v1H5V4h12zM5 9h12V8H5v1zm0 4h12v-1H5v1zM2.083 3.48h.01v2.383h.355V3.136h-.314l-.596.32.07.28.475-.256zM1.64 9.572l.218-.2c.574-.555.94-.962.94-1.466 0-.39-.25-.793-.837-.793-.313 0-.58.117-.77.277l.117.26c.127-.105.332-.23.58-.23.406 0 .54.255.54.532-.003.41-.32.764-1.015 1.427l-.29.28v.227h1.74V9.58H1.64v-.008zm.596 2.82v-.01c.336-.12.504-.36.504-.642 0-.33-.243-.65-.78-.65-.294 0-.57.104-.714.21l.097.27c.117-.085.327-.182.546-.182.34 0 .477.193.477.41 0 .324-.34.463-.608.463h-.207v.277h.205c.357 0 .7.164.705.546.005.227-.143.528-.616.528-.257 0-.5-.103-.604-.17l-.1.284c.133.09.4.186.708.186.655 0 .995-.382.995-.818 0-.382-.273-.634-.61-.7z"/></svg>