<svg xmlns="http://www.w3.org/2000/svg" width="17" height="17" viewBox="0 0 17 17"><path d="M9.5 10.972c0 .366-.207.672-.5.846v2.154H8V11.82c-.294-.175-.5-.48-.5-.848 0-.552.447-1 1-1 .55 0 1 .447 1 1zm5.465-2.512v7.08c0 .827-.673 1.5-1.5 1.5h-9.99c-.826 0-1.5-.673-1.5-1.5V8.46c0-.827.674-1.5 1.5-1.5H3.5V4.972c0-2.757 2.243-5 5-5s5 2.243 5 5v1.992c.81.018 1.465.68 1.465 1.496zM4.5 6.96h8V4.972c0-2.206-1.794-4-4-4s-4 1.794-4 4V6.96zm9.465 1.5c0-.264-.207-.474-.465-.493v.004h-10v-.01h-.024c-.275 0-.5.224-.5.5v7.08c0 .276.225.5.5.5h9.99c.274 0 .5-.224.5-.5V8.46z"/></svg>