<svg xmlns="http://www.w3.org/2000/svg" width="17" height="17" viewBox="0 0 17 17"><path d="M15 4v.07l-.013-.06-1.015.222C13.832 2.43 12.338 1 10.5 1 8.66 1 7.16 2.435 7.026 4.242L6 4.02V4H0v11h5.348l5.196 1.48L16 14.873V4h-1zm-4.5-2C11.88 2 13 3.122 13 4.5c0 1.806-1.72 4.21-2.5 5.207C9.72 8.71 8 6.307 8 4.5 8 3.122 9.12 2 10.5 2zM6 5.042l1.08.235c.413 2.27 2.407 4.788 2.92 5.406v4.602l-4-1.14V5.043zM1 5h4v9.017L1 14V5zm10 10.303v-4.62c.514-.62 2.513-3.146 2.92-5.417L15 5.032v9.094l-4 1.177zm.858-10.72c0-.75-.61-1.358-1.358-1.358s-1.358.61-1.358 1.358.61 1.36 1.358 1.36 1.358-.61 1.358-1.36zm-1.716 0c0-.198.16-.358.358-.358s.358.16.358.358-.16.36-.358.36-.358-.162-.358-.36z"/></svg>