<svg xmlns="http://www.w3.org/2000/svg" width="17" height="17" viewBox="0 0 17 17"><path d="M15.664 5.684l-.544-.544c.078-.18.127-.368.14-.562.025-.435-.122-.835-.417-1.13l-1.745-1.745c-.206-.206-.437-.31-.687-.31-.448 0-.768.323-1.107.666l-9.036 9.035-.335 2.955.105.104-.972.972 1.193.222.487-.486.104.104 2.953-.333L14.5 5.935l.456.456c.072.073.094.145.076.246-.026.14-.13.31-.283.464l-3.017 3.017.707.707 3.016-3.017c.303-.302.497-.645.56-.99.078-.426-.047-.83-.352-1.133zm-10.32 7.993l-2.13.24-.234-.234.242-2.126 5.622-5.622 2.12 2.12-5.62 5.622zM11.67 7.35l-2.12-2.122 2.463-2.464c.136-.14.342-.347.376-.354l1.746 1.745c.12.12.13.278.125.36-.01.17-.087.332-.217.463l-2.37 2.37z"/></svg>