<svg xmlns="http://www.w3.org/2000/svg" width="17" height="17" viewBox="0 0 17 17"><path d="M10.72 9.577l-.01-.01c-.014-.01-.023-.024-.037-.034l-.003.004L9 8.255V2.548c1.14.218 2 1.164 2 2.296l.5.06.5-.06c0-1.68-1.31-3.062-3-3.296V0H8v1.548c-1.69.234-3 1.616-3 3.296 0 .942.42 1.838 1.15 2.473l-.004.005.04.03L8 8.748v5.705c-1.14-.218-2-1.164-2-2.296H5c0 1.68 1.31 3.062 3 3.296v1.55h1v-1.55c1.69-.234 3-1.616 3-3.296 0-1.006-.47-1.94-1.28-2.58zM6.82 6.58C6.3 6.136 6 5.505 6 4.845c0-1.132.86-2.078 2-2.296v4.938L6.822 6.58zM9 14.453V9.516l1.104.85c.567.446.896 1.095.896 1.79 0 1.132-.86 2.078-2 2.296z"/></svg>