<svg xmlns="http://www.w3.org/2000/svg" width="17" height="17" viewBox="0 0 17 17"><path d="M6 .265v9.222c-.512-.446-1.173-.726-1.904-.726-1.607 0-2.914 1.31-2.914 2.915S2.49 14.59 4.096 14.59c1.57 0 2.845-1.252 2.903-2.808v-.006c0-.034.01-.066.01-.102s-.01-.067-.01-.1V5.478l9 1.76v4.666c-.513-.45-1.178-.734-1.914-.734-1.607 0-2.914 1.308-2.914 2.914S12.48 17 14.086 17c1.585 0 2.872-1.273 2.907-2.85l.007.003V2.417L6 .265zM4.096 13.59c-1.056 0-1.914-.86-1.914-1.915S3.04 9.76 4.096 9.76c1.02 0 1.85.806 1.904 1.813v.203c-.054 1.008-.883 1.813-1.904 1.813zM7 4.46V1.48l9 1.76v2.98L7 4.46zM14.086 16c-1.056 0-1.914-.858-1.914-1.914s.858-1.914 1.914-1.914S16 13.03 16 14.086 15.142 16 14.086 16z"/></svg>