<svg xmlns="http://www.w3.org/2000/svg" width="17" height="17" viewBox="0 0 17 17"><path d="M8.5.5c-4.41 0-8 3.59-8 8 0 4.28 3.352 7.787 7.63 7.982l1.29.06-2.724-2.724c-.283-.283-.44-.66-.44-1.06s.157-.778.44-1.062c.566-.566 1.555-.566 2.12 0l3.72 3.72.34-.224c2.27-1.486 3.624-3.988 3.624-6.692 0-4.41-3.59-8-8-8zm4.16 13.625L9.525 10.99c-.943-.944-2.592-.944-3.535 0-.472.472-.732 1.1-.732 1.768s.26 1.296.732 1.768l.74.74C3.706 14.485 1.5 11.747 1.5 8.5c0-3.86 3.14-7 7-7s7 3.14 7 7c0 2.23-1.054 4.305-2.84 5.625zM11.5 6.5c-1.103 0-2 .897-2 2s.897 2 2 2 2-.897 2-2-.897-2-2-2zm0 3c-.55 0-1-.45-1-1s.45-1 1-1 1 .45 1 1-.45 1-1 1zM8.5 6C7.672 6 7 5.33 7 4.5S7.672 3 8.5 3c.83 0 1.5.67 1.5 1.5S9.33 6 8.5 6zm-2.75-.11c0 .553-.448 1-1 1s-1-.447-1-1 .448-1 1-1 1 .448 1 1z"/></svg>