<svg xmlns="http://www.w3.org/2000/svg" width="17" height="17" viewBox="0 0 17 17"><path d="M0 0v17h17V0H0zm16 16H1V1h15v15zM4 10.232V13h1v-2.768c.738-.218 1.28-.894 1.28-1.7S5.74 7.047 5 6.83V4H4v2.83c-.738.218-1.28.894-1.28 1.7S3.26 10.016 4 10.233zm.5-2.482c.43 0 .78.35.78.78s-.35.782-.78.782-.78-.35-.78-.78.35-.782.78-.782zm3.5.357V13h1V8.107c.738-.218 1.28-.894 1.28-1.7S9.74 4.922 9 4.704V4H8v.705c-.738.218-1.28.894-1.28 1.7S7.26 7.89 8 8.108zm.5-2.482c.43 0 .78.35.78.78s-.35.783-.78.783-.78-.35-.78-.782.35-.78.78-.78zm4 7.792c.982 0 1.78-.8 1.78-1.78 0-.81-.542-1.484-1.28-1.702V4h-1v5.935c-.738.218-1.28.894-1.28 1.7 0 .983.798 1.782 1.78 1.782zm0-2.563c.43 0 .78.35.78.78s-.35.782-.78.782-.78-.35-.78-.78.35-.782.78-.782z"/></svg>