<svg xmlns="http://www.w3.org/2000/svg" width="17" height="17" viewBox="0 0 17 17"><path d="M8.5.5c-4.418 0-8 3.58-8 8 0 3.275 1.97 6.09 4.79 7.327-.023-.56-.006-1.23.138-1.837l1.03-4.36S6.2 9.12 6.2 8.366c0-1.186.69-2.07 1.545-2.07.728 0 1.08.546 1.08 1.2 0 .73-.468 1.826-.708 2.84-.2.848.426 1.54 1.263 1.54 1.516 0 2.537-1.946 2.537-4.253 0-1.753-1.182-3.066-3.33-3.066-2.426 0-3.937 1.81-3.937 3.83 0 .7.205 1.19.527 1.57.147.175.168.246.115.446l-.163.642c-.055.203-.22.275-.4.2-1.12-.456-1.64-1.68-1.64-3.056 0-2.272 1.916-4.998 5.718-4.998 3.054 0 5.064 2.21 5.064 4.583 0 3.14-1.745 5.483-4.316 5.483-.864 0-1.677-.468-1.955-.998 0 0-.463 1.844-.56 2.2-.17.616-.503 1.232-.807 1.713.72.215 1.48.33 2.267.33 4.418 0 8-3.58 8-8s-3.582-8-8-8z"/></svg>