<svg xmlns="http://www.w3.org/2000/svg" width="17" height="17" viewBox="0 0 17 17"><path d="M15.025 6.225c0 3.82-2.123 6.662-5.246 6.662-1.05 0-2.036-.568-2.366-1.213-.568 2.238-.682 2.667-.682 2.667-.203.747-.62 1.494-.985 2.075-1.043.737-1.14-.404-1.14-.404-.024-.683-.012-1.504.166-2.236 0 0 .19-.785 1.25-5.285-.315-.62-.315-1.544-.315-1.544 0-1.44.835-2.516 1.872-2.516.885 0 1.314.67 1.314 1.467 0 .885-.57 2.213-.86 3.44-.24 1.036.52 1.87 1.53 1.87 1.847 0 3.084-2.363 3.084-5.158 0-2.138-1.44-3.73-4.045-3.73-2.945 0-4.778 2.2-4.778 4.652 0 .848.252 1.442.644 1.91.177.215.202.29.138.543-.05.177-.15.607-.2.77-.064.254-.267.342-.48.254C2.573 9.89 1.94 8.4 1.94 6.73 1.94 3.976 4.267.664 8.87.664c3.716 0 6.155 2.692 6.155 5.562z"/></svg>