<svg xmlns="http://www.w3.org/2000/svg" width="17" height="17" viewBox="0 0 17 17"><path d="M13.17 7.614c-.735 0-1.418.227-1.983.612 1.23-3.472 3.99-3.88 4.134-3.898l-.122-.992c-.05.006-5.126.704-5.563 7.725l.015.002c0 .027-.008.054-.008.08 0 1.946 1.583 3.53 3.528 3.53s3.528-1.584 3.528-3.53-1.584-3.528-3.53-3.528zm0 6.057c-1.396 0-2.53-1.133-2.53-2.527s1.135-2.528 2.53-2.528 2.527 1.134 2.527 2.528-1.134 2.528-2.528 2.528zM3.732 7.615c-.734 0-1.416.227-1.98.612 1.23-3.472 3.99-3.88 4.132-3.898l-.123-.992c-.05.006-5.125.704-5.564 7.725l.015.002c0 .027-.008.054-.008.08 0 1.946 1.583 3.53 3.528 3.53s3.528-1.584 3.528-3.53-1.58-3.528-3.527-3.528zm0 6.057c-1.395 0-2.528-1.133-2.528-2.527S2.34 8.615 3.733 8.615 6.26 9.75 6.26 11.143 5.13 13.67 3.734 13.67z"/></svg>