<svg xmlns="http://www.w3.org/2000/svg" width="17" height="17" viewBox="0 0 17 17"><path d="M7.307 6.862c0-1.946-1.583-3.53-3.53-3.53C1.834 3.333.25 4.917.25 6.863c0 1.945 1.583 3.528 3.528 3.528.734 0 1.416-.227 1.98-.61-1.23 3.47-3.99 3.876-4.132 3.895l.123.992c.05-.006 5.124-.703 5.562-7.724H7.3c0-.028.007-.053.007-.08zm-3.53 2.53c-1.393 0-2.527-1.135-2.527-2.53s1.134-2.528 2.528-2.528c1.395 0 2.53 1.135 2.53 2.53S5.172 9.39 3.777 9.39zm12.957-2.45c0-.027.008-.053.008-.08 0-1.946-1.583-3.53-3.528-3.53s-3.528 1.584-3.528 3.53c0 1.945 1.583 3.528 3.528 3.528.734 0 1.416-.227 1.98-.61-1.23 3.47-3.99 3.876-4.132 3.895l.123.992c.05-.006 5.125-.703 5.563-7.724h-.014zm-3.52 2.45c-1.394 0-2.528-1.135-2.528-2.53s1.134-2.528 2.528-2.528 2.528 1.135 2.528 2.53-1.134 2.527-2.528 2.527z"/></svg>