<svg xmlns="http://www.w3.org/2000/svg" width="17" height="17" viewBox="0 0 17 17"><path d="M17 3.5C17 1.227 12.62 0 8.5 0S0 1.227 0 3.5c0 .15.024.318.08.5H0v9.5C0 15.773 4.38 17 8.5 17s8.5-1.227 8.5-3.5V4h-.08c.056-.182.08-.35.08-.5zM8.5 1C12.793 1 16 2.32 16 3.5c0 .398-.388.835-1.093 1.23C13.487 5.524 11.093 6 8.5 6s-4.988-.475-6.407-1.27C1.388 4.334 1 3.897 1 3.5 1 2.32 4.207 1 8.5 1zm0 15C4.207 16 1 14.68 1 13.5v-1.633c.175.135.367.27.604.403 1.562.874 4.14 1.396 6.896 1.396.345 0 .687-.008 1.023-.024 2.36-.11 4.505-.607 5.872-1.372.237-.134.43-.27.605-.404V13.5c0 1.18-3.207 2.5-7.5 2.5zm6.407-4.603c-1.42.795-3.814 1.27-6.407 1.27-.324 0-.646-.008-.962-.022-2.214-.102-4.203-.552-5.445-1.247C1.39 11.002 1 10.565 1 10.168V8.532c.175.135.368.27.605.403 1.56.874 4.14 1.396 6.895 1.396s5.334-.522 6.895-1.396c.237-.132.43-.268.605-.403v1.634c0 .398-.39.835-1.093 1.23zm0-3.334c-1.42.795-3.814 1.27-6.407 1.27s-4.987-.475-6.406-1.27C1.39 7.67 1 7.23 1 6.833V5.2c.175.135.367.27.604.403C3.166 6.478 5.744 7 8.5 7s5.334-.522 6.896-1.397c.237-.133.43-.268.604-.404v1.633c0 .398-.39.836-1.094 1.23z"/></svg>