<svg xmlns="http://www.w3.org/2000/svg" width="17" height="17" viewBox="0 0 17 17"><path d="M16.5 13.5c0 1.656-1.344 3-3 3h-10c-1.656 0-3-1.344-3-3v-10c0-1.656 1.344-3 3-3h10c1.656 0 3 1.344 3 3v10zm-4.886-4.114c-.583 0-1.114.23-1.51.604l-2.51-1.25c.01-.084.02-.156.02-.24s-.01-.156-.02-.24l2.51-1.25c.395.376.926.605 1.51.605 1.218 0 2.218-1 2.218-2.23 0-1.218-1-2.218-2.22-2.218-1.228 0-2.228 1-2.228 2.22 0 .082.01.155.02.238l-2.51 1.25C6.5 6.51 5.97 6.28 5.387 6.28c-1.22 0-2.22.99-2.22 2.22s1 2.22 2.22 2.22c.583 0 1.114-.23 1.51-.595l2.51 1.25c-.01.083-.02.156-.02.24 0 1.218 1 2.218 2.228 2.218 1.22 0 2.22-1 2.22-2.22 0-1.228-1-2.227-2.22-2.227z"/></svg>