<svg xmlns="http://www.w3.org/2000/svg" width="17" height="17" viewBox="0 0 17 17"><path d="M11.5 10.116c3.033 0 5.5-2.27 5.5-5.058S14.533 0 11.5 0C9.588 0 7.807.938 6.816 2.43 6.11 2.033 5.32 1.824 4.5 1.824 2.02 1.823 0 3.683 0 5.97c0 2.286 2.02 4.146 4.5 4.146.186 0 .375-.013.573-.037.652.587 1.522.92 2.427.92 1.002 0 1.93-.387 2.592-1.07.488.125.95.186 1.408.186zm-1.755-1.33l-.212.267c-.47.593-1.23.947-2.033.947-.724 0-1.414-.29-1.895-.797L5.42 9.01l-.263.046c-.214.037-.43.06-.657.06-1.93 0-3.5-1.41-3.5-3.145 0-1.734 1.57-3.146 3.5-3.146.792 0 1.55.246 2.19.713l.47.343.268-.52C8.166 1.927 9.764 1 11.5 1 13.98 1 16 2.82 16 5.06c0 2.236-2.02 4.057-4.5 4.057-.453 0-.92-.075-1.43-.23l-.325-.102zM11.5 10.5c-1.103 0-2 .897-2 2s.897 2 2 2 2-.897 2-2-.897-2-2-2zm0 3c-.55 0-1-.448-1-1s.45-1 1-1 1 .448 1 1-.45 1-1 1zm3.75.5c-.69 0-1.25.56-1.25 1.25s.56 1.25 1.25 1.25 1.25-.56 1.25-1.25S15.94 14 15.25 14zM15 15.25c0-.138.112-.25.25-.25s.25.112.25.25c0 .275-.5.275-.5 0z"/></svg>