<svg xmlns="http://www.w3.org/2000/svg" width="17" height="17" viewBox="0 0 17 17"><path d="M15.368 9.725c.083.203.132.466.132.807 0 .526-.24.97-.62 1.233.137.234.203.5.203.768 0 .562-.313 1.04-.785 1.288.08.19.127.42.13.706 0 .45-.13.81-.392 1.073-.276.276-.667.417-1.16.417H7.25c-.754 0-1.273-.404-1.653-.7-.22-.17-.426-.332-.57-.332H2.925c-.276 0-.5-.224-.5-.5s.224-.5.5-.5h2.102c.487 0 .857.288 1.184.542.324.25.63.49 1.04.49h5.625c.212 0 .373-.044.452-.124.068-.068.102-.19.1-.362-.002-.436-.09-.53-1.026-.53h-.105c-.276 0-.5-.224-.5-.5s.224-.5.5-.5h1.258c.307 0 .53-.197.53-.468 0-.45-.45-.517-.717-.517h-.75c-.276 0-.5-.224-.5-.5s.224-.5.5-.5h1.437c.33 0 .448-.25.448-.484 0-.49 0-.49-.438-.504-.05 0-.104-.005-.156-.007H12.83c-.276 0-.5-.225-.5-.5s.224-.5.5-.5h.982c.007 0 .013-.005.02-.005h.63c.296 0 .537-.227.537-.505s-.24-.505-.537-.505H10.01c-.15 0-.29-.066-.385-.18-.095-.116-.134-.267-.106-.413l.52-2.734c.06-.273.237-1.047.032-1.39-.053-.09-.182-.184-.34-.184-.196 0-.397.157-.566.44l-3.24 5.234c-.092.147-.253.237-.426.237H2.93c-.275 0-.5-.224-.5-.5s.225-.5.5-.5h2.292l3.088-4.99c.476-.8 1.095-.92 1.42-.92.486 0 .956.263 1.2.67.363.61.237 1.445.086 2.106l-.403 2.125h3.85c.846 0 1.535.675 1.535 1.505 0 .498-.248.94-.63 1.215z"/></svg>