<svg xmlns="http://www.w3.org/2000/svg" width="17" height="17" viewBox="0 0 17 17"><path d="M14.568 9.5c0 .277-.224.5-.5.5h-2.29l-3.09 4.99c-.476.8-1.094.922-1.42.922-.485 0-.955-.264-1.2-.67-.363-.61-.237-1.447-.086-2.107l.403-2.124h-3.85c-.846 0-1.534-.674-1.534-1.504 0-.548.3-1.03.75-1.292-.154-.21-.25-.455-.25-.73 0-.525.24-.97.62-1.232-.138-.235-.204-.502-.204-.77 0-.574.328-1.06.817-1.304-.133-.256-.162-.516-.162-.69C2.57 2.556 3.153 2 4.125 2H9.75c.753 0 1.273.404 1.652.7.22.17.426.332.57.332h2.102c.276 0 .5.224.5.5s-.224.5-.5.5H11.97c-.486 0-.856-.288-1.183-.542C10.465 3.237 10.16 3 9.75 3H4.123c-.467 0-.553.165-.553.488 0 .158 0 .527 1.028.527h.105c.276 0 .5.224.5.5s-.224.5-.5.5H3.445c-.307 0-.53.197-.53.468 0 .45.45.517.718.517h.75c.276 0 .5.224.5.5s-.224.5-.5.5H2.947c-.33 0-.448.25-.448.484 0 .168.365.457.704.513h.966c.276 0 .5.224.5.5s-.224.5-.5.5h-.983c-.007 0-.013.004-.02.004h-.63C2.24 9 2 9.23 2 9.507s.24.505.536.505H6.99c.148 0 .29.067.384.182.095.115.134.266.106.412l-.52 2.734c-.062.273-.238 1.046-.033 1.39.053.088.182.184.34.184.196 0 .397-.157.566-.44l3.24-5.234c.09-.147.25-.237.424-.237h2.57c.278 0 .5.225.5.5z"/></svg>