<svg xmlns="http://www.w3.org/2000/svg" width="17" height="17" viewBox="0 0 17 17"><path d="M17 3H6v3H3.127l-1.19 4H0v4.977h2.002L2 15c0 1.103.897 2 2 2s2-.897 2-2l-.002-.023h5.005c0 .008-.003.015-.003.023 0 1.103.897 2 2 2s2-.897 2-2l-.002-.023H17V3zM3.873 7H6v3H2.98l.893-3zM4 16c-.55 0-1-.45-1-1s.45-1 1-1 1 .45 1 1-.45 1-1 1zm9 0c-.55 0-1-.45-1-1s.45-1 1-1 1 .45 1 1-.45 1-1 1zm3-2.023h-1.29C14.36 13.395 13.727 13 13 13s-1.36.395-1.71.977H5.71C5.36 13.395 4.727 13 4 13s-1.36.395-1.71.977H1V11h6V4h9v9.977z"/></svg>