<svg xmlns="http://www.w3.org/2000/svg" width="17" height="17" viewBox="0 0 17 17"><path d="M15.253 5.038c.01.15.01.302.01.454 0 4.605-3.505 9.912-9.912 9.912-1.973 0-3.807-.572-5.35-1.564.28.032.55.042.842.042 1.63 0 3.127-.55 4.325-1.488-1.532-.032-2.815-1.036-3.257-2.417.215.032.43.054.656.054.314 0 .627-.042.918-.117C1.888 9.59.69 8.187.69 6.493v-.042c.464.26 1.003.42 1.575.443C1.327 6.267.712 5.2.712 3.993c0-.648.173-1.242.475-1.76C2.902 4.348 5.48 5.73 8.37 5.88c-.054-.26-.086-.53-.086-.8 0-1.92 1.554-3.483 3.484-3.483 1.003 0 1.91.42 2.546 1.1.787-.15 1.54-.442 2.21-.84-.258.808-.808 1.488-1.53 1.918.7-.075 1.38-.27 2.006-.54-.475.69-1.068 1.307-1.747 1.803z"/></svg>