<svg xmlns="http://www.w3.org/2000/svg" width="17" height="17" viewBox="0 0 17 17"><path d="M17 3.236c-.626.27-1.305.464-2.007.54.723-.432 1.273-1.11 1.532-1.92-.67.4-1.424.69-2.21.84-.637-.68-1.543-1.1-2.546-1.1-1.932 0-3.485 1.565-3.485 3.484 0 .27.033.54.086.8-2.89-.15-5.468-1.532-7.183-3.647-.302.517-.475 1.11-.475 1.76 0 1.207.615 2.274 1.553 2.9-.57-.022-1.11-.184-1.575-.442v.044c0 1.692 1.197 3.095 2.794 3.42-.29.074-.604.117-.917.117-.226 0-.442-.02-.657-.053.442 1.38 1.726 2.384 3.257 2.417-1.198.938-2.697 1.488-4.326 1.488-.29 0-.56-.01-.84-.042 1.543.992 3.376 1.564 5.35 1.564 6.408 0 9.914-5.307 9.914-9.912 0-.152 0-.302-.01-.454.678-.496 1.27-1.112 1.746-1.802zM14.263 5.49c0 3.702-2.765 8.913-8.913 8.913-.492 0-.98-.04-1.458-.118.67-.276 1.305-.646 1.89-1.104.334-.26.467-.7.333-1.102-.134-.4-.505-.675-.928-.684-.545-.01-1.055-.197-1.467-.51.004 0 .008 0 .012-.002.452-.116.763-.528.75-.994-.01-.467-.342-.862-.8-.955-.65-.132-1.202-.516-1.558-1.046l.104.005h.038c.432 0 .817-.278.95-.692.14-.426-.023-.89-.396-1.14-.63-.42-1.03-1.096-1.098-1.84C3.546 5.8 5.868 6.75 8.32 6.876h.05c.292 0 .57-.126.76-.348.202-.236.283-.552.22-.855-.044-.21-.066-.41-.066-.595 0-1.37 1.114-2.483 2.484-2.483.698 0 1.342.278 1.815.784.116.125.26.216.417.267-.02.146-.006.297.043.444.063.192.18.353.33.47-.09.165-.132.354-.12.545.01.13.01.257.01.386z"/></svg>