<svg xmlns="http://www.w3.org/2000/svg" width="17" height="17" viewBox="0 0 17 17"><path d="M2.134 5.14L3.536 2.55C4.622.904 6.798.457 8.406 1.522l-.55.834c-1.15-.76-2.703-.44-3.464.71L2.99 5.65c-.78 1.188-.464 2.742.687 3.5 1.143.753 2.41.548 3.313-.537l.768.64c-.742.893-1.694 1.353-2.678 1.353-.655 0-1.323-.204-1.954-.62-1.61-1.064-2.056-3.24-.992-4.85zM4.04 8.033l-.13.13.706.708.13-.13c.976-.975 2.562-.975 3.536 0s.975 2.56 0 3.535L5.26 15.3c-.976.976-2.562.976-3.536 0s-.975-2.56 0-3.534l1.058-1.06L2.075 10l-1.058 1.06c-1.364 1.364-1.364 3.585 0 4.95.683.682 1.578 1.022 2.475 1.022s1.792-.34 2.475-1.023l3.023-3.025c1.364-1.364 1.364-3.585 0-4.95-1.367-1.366-3.587-1.363-4.95 0zM10.964 7h4.074V6h-4.074v1zm-.468 1.347l1.95 1.127.5-.865-1.95-1.128-.5.865zm.255-7.19L9.17 3.892l.865.5 1.58-2.736-.865-.5zm5.117 1.568l-.5-.865-4.992 2.882.5.865 4.992-2.882z"/></svg>