<svg xmlns="http://www.w3.org/2000/svg" width="17" height="17" viewBox="0 0 17 17"><path d="M17 16.488c-.063-2.687-2.778-5-6.52-5.61V9.506c.49-.473.84-1.207 1.07-1.833.332-.166.624-.536.794-1.033.238-.69.146-1.324-.206-1.63.028-.238.046-.48.015-.723-.08-.663.065-1.038.194-1.368.106-.278.23-.592.106-.946C12.01.7 10.726 0 8.835 0L8.57.005C7.26.052 6.865.605 6.6 1.12c-.033.062-.077.146-.077.15C4.81 1.425 4.826 2.84 4.84 3.98l.002.37c0 .204.01.418.026.638-.425.3-.504 1.005-.18 1.737.186.415.453.73.75.892.243.674.625 1.47 1.18 1.965v1.283c-3.8.59-6.555 2.907-6.618 5.625L-.012 17H17.01l-.01-.512zM1.054 16c.392-2.094 2.86-3.82 6.122-4.204l.44-.052V9.078l-.215-.15c-.392-.272-.79-.947-1.09-1.85l-.082-.282-.294-.05c-.053-.02-.208-.154-.33-.43-.075-.167-.104-.31-.112-.414l.51.143-.096-.75c-.042-.33-.064-.65-.064-.95l-.003-.38c-.016-1.34.05-1.633.772-1.698.545-.048.752-.45.876-.69.15-.29.28-.542 1.12-.573L8.835 1c.83 0 2.28.17 2.67 1.282 0 .043-.053.177-.09.275-.146.374-.365.94-.255 1.853.024.188-.007.424-.04.675l-.09.805.442-.048c.008.104-.004.27-.075.472-.097.29-.242.438-.237.454h-.36l-.114.342c-.283.853-.65 1.497-1.01 1.768l-.197.15v2.726l.437.055c3.21.4 5.64 2.122 6.03 4.19H1.054z"/></svg>