<svg xmlns="http://www.w3.org/2000/svg" width="17" height="17" viewBox="0 0 17 17"><path d="M15.664 2.69c-.416-.528-1.13-.808-2.063-.808-.263 0-.52.023-.757.06-.87.145-3.02 1.23-3.746 3.517-.05.157-.02.33.085.462.104.13.27.2.433.187.562-.046.982-.013 1.112.132.104.113.142.386.106.768-.046.51-.333 1.1-.634 1.675-.146.264-.59 1.075-.863 1.075-.065 0-.17-.07-.276-.184-.513-.555-.62-1.613-.71-2.548-.032-.308-.06-.602-.104-.88l-.07-.39c-.094-.55-.202-1.174-.373-1.73-.206-.644-.7-1.474-1.42-1.698-.157-.044-.327-.066-.504-.066-.69 0-1.307.33-1.482.43-.733.436-1.326.97-1.9 1.485-.433.387-.88.79-1.386 1.147-.132.094-.21.335-.21.497 0 .19.105.362.275.447.056.03.064.043.11.13.07.14.22.43.64.497.37.055.718-.054 1.007-.145.157-.05.306-.096.403-.096.035 0 .076 0 .16.14.172.288.267.618.367.968.052.178.103.356.166.54.222.61.392 1.278.57 1.984l.158.627c.358 1.475.85 3.493 2.22 4.068.206.088.442.133.702.133.67 0 1.377-.294 1.77-.54 1.166-.687 2.24-1.702 3.284-3.104 1.91-2.558 3.088-5.64 3.293-6.722.163-.866.045-1.54-.363-2.06zm-.62 1.874c-.145.768-1.152 3.688-3.11 6.31-.964 1.294-1.94 2.223-3.002 2.848-.394.246-1.187.5-1.564.34-.907-.38-1.33-2.115-1.637-3.383l-.16-.64c-.185-.73-.36-1.42-.596-2.07-.056-.16-.102-.322-.15-.482-.112-.395-.23-.804-.47-1.204-.246-.416-.588-.627-1.017-.627-.25 0-.48.072-.702.142-.16.05-.31.096-.48.106-.012-.023-.026-.05-.043-.078.378-.298.72-.605 1.054-.906.562-.506 1.093-.983 1.738-1.365.232-.135.626-.293.975-.293.085 0 .163.01.22.025.255.078.592.546.75 1.037.15.49.252 1.08.34 1.6l.07.388c.04.247.065.523.095.812.107 1.092.23 2.328.975 3.13.312.334.65.503 1.008.503.868 0 1.393-.962 1.784-1.68.31-.597.646-1.29.708-1.98.064-.704-.05-1.19-.363-1.533-.314-.345-.76-.444-1.138-.47.807-1.54 2.362-2.116 2.67-2.168.184-.028.39-.047.602-.047.353 0 .986.056 1.277.426.217.278.27.688.165 1.254z"/></svg>