<svg xmlns="http://www.w3.org/2000/svg" width="17" height="17" viewBox="0 0 17 17"><path d="M16.132 2.3c-.58-.735-1.796-.763-2.645-.636-.68.113-2.998 1.13-3.777 3.58 1.387-.114 2.12.1 1.98 1.626-.058.65-.383 1.344-.736 2.024-.426.776-1.2 2.305-2.235 1.2-.92-.99-.864-2.884-1.06-4.143-.13-.707-.256-1.584-.483-2.32-.2-.622-.666-1.37-1.216-1.54-.607-.172-1.358.098-1.796.352C2.774 3.264 1.858 4.424.5 5.385v.1c.452.227.312.594.665.65.835.113 1.625-.78 2.18.155.338.565.437 1.188.648 1.798.296.82.51 1.71.75 2.645.396 1.6.878 3.975 2.263 4.557.695.297 1.756-.1 2.28-.426 1.44-.85 2.59-2.08 3.535-3.352 2.222-2.973 3.425-6.367 3.61-7.343.126-.667.112-1.346-.298-1.87z"/></svg>