<svg xmlns="http://www.w3.org/2000/svg" viewBox="0 123.3 595.3 595.3" enable-background="new 0 123.3 595.3 595.3" width="24" height="24"><path fill="#767676" d="M297.6 123.4C133.2 123.4 0 256.6 0 420.9s133.2 297.6 297.6 297.6 297.6-133.2 297.6-297.6-133.1-297.5-297.6-297.5z"/><path fill="#fff" d="M395.2 411.9l-121-121c-4.5-4.5-10.9-7.3-16.4-7.3s-10.9 2.8-15.4 7.3c-9.1 9.1-9.1 21.8 0 30.9L348 427.4 242.4 533c-9.1 9.1-9.1 21.8 0 30.9 9.1 9.1 22.7 9.1 31.8 0l121-121c4.5-4.5 6.4-10 6.4-15.4 0-6.5-1.8-11-6.4-15.6z"/></svg>