<svg xmlns="http://www.w3.org/2000/svg" viewBox="0 123.3 595.3 595.3" enable-background="new 0 123.3 595.3 595.3" width="24" height="24"><path fill="#767676" d="M518.2 484.2L339.6 305.6c-6.7-6.7-16-10.7-24.2-10.7s-16 4.2-22.7 10.7c-13.4 13.4-13.4 32.2 0 45.6l123.8 123.9H288.1c-100.9 0-155.2-64.9-155.2-155.2V155.8c0-17.9-14.6-32.5-32.5-32.5s-32.5 14.6-32.5 32.5v193.5c0 92.2 98.7 190.8 190.8 190.8h156.7L292.5 662.9c-13.4 13.4-13.4 32.2 0 45.6 13.4 13.4 33.5 13.4 47 0L518 529.9c6.7-6.7 9.5-14.8 9.5-22.7-.1-9.6-2.7-16.2-9.3-23z"/></svg>