<svg xmlns="http://www.w3.org/2000/svg" xmlns:xlink="http://www.w3.org/1999/xlink" width="24" height="24" viewBox="0 0 24 24"><style type="text/css">.st0{fill:#5492B3;} .st1{clip-path:url(#SVGID_4_);} .st2{clip-path:url(#SVGID_10_);fill:#5492B3;} .st3{clip-path:url(#SVGID_12_);} .st4{clip-path:url(#SVGID_14_);} .st5{clip-path:url(#SVGID_16_);fill:#5492B3;}</style><path id="SVGID_1_" class="st0" d="M18.6 12L6.4 24l-1-1 10.9-11L5.4 1l1-1z"/><defs><path id="SVGID_2_" d="M18.6 12L6.4 24l-1-1 10.9-11L5.4 1l1-1z"/></defs><use xlink:href="#SVGID_2_" overflow="visible" fill="#5492B3"/><clipPath id="SVGID_4_"><use xlink:href="#SVGID_2_" overflow="visible"/></clipPath><g class="st1"><path id="SVGID_3_" class="st0" d="M-1380.9-1465.2h2747.8v3673h-2747.8z"/><defs><path id="SVGID_8_" d="M-1380.9-1465.2h2747.8v3673h-2747.8z"/></defs><use xlink:href="#SVGID_8_" overflow="visible" fill="#5492B3"/><clipPath id="SVGID_10_"><use xlink:href="#SVGID_8_" overflow="visible"/></clipPath><path class="st2" d="M-3.3-8.7h30.6v41.6H-3.3z"/><defs><path id="SVGID_11_" d="M18.6 12L6.4 24l-1-1 10.9-11L5.4 1l1-1z"/></defs><use xlink:href="#SVGID_11_" overflow="visible" fill="#5492B3"/><clipPath id="SVGID_12_"><use xlink:href="#SVGID_11_" overflow="visible"/></clipPath><g class="st3"><path id="SVGID_5_" class="st0" d="M18.6 12L6.4 24l-1-1 10.9-11L5.4 1l1-1z"/><path id="SVGID_6_" class="st0" d="M18.6 12L6.4 24l-1-1 10.9-11L5.4 1l1-1z"/><defs><path id="SVGID_13_" d="M18.6 12L6.4 24l-1-1 10.9-11L5.4 1l1-1z"/></defs><use xlink:href="#SVGID_13_" overflow="visible" fill="#5492B3"/><clipPath id="SVGID_14_"><use xlink:href="#SVGID_13_" overflow="visible"/></clipPath><g class="st4"><path id="SVGID_7_" class="st0" d="M-1380.9-1465.2h2747.8v3673h-2747.8z"/><path id="SVGID_9_" class="st0" d="M-1380.9-1465.2h2747.8v3673h-2747.8z"/><defs><path id="SVGID_15_" d="M-1380.9-1465.2h2747.8v3673h-2747.8z"/></defs><use xlink:href="#SVGID_15_" overflow="visible" fill="#5492B3"/><clipPath id="SVGID_16_"><use xlink:href="#SVGID_15_" overflow="visible"/></clipPath><path class="st5" d="M-3.3-8.7h30.6v41.6H-3.3z"/></g></g></g></svg>