<svg xmlns="http://www.w3.org/2000/svg" width="28" height="28" viewBox="-945 527 28 28" enable-background="new -945 527 28 28"><g fill="#fff"><path d="M-926.4 535c-.2-.2-.6-.2-.8 0l-.8.9c-.2.2-.2.6 0 .8.1.1.2.2.4.2.1 0 .3-.1.4-.2l.8-.9c.2-.3.2-.6 0-.8zM-931 535.3c.3 0 .5-.2.5-.6v-1.2c0-.3-.2-.6-.5-.6s-.5.2-.5.6v1.2c0 .4.2.6.5.6zM-934 536.6c.2-.2.2-.6 0-.8l-.8-.9c-.2-.2-.6-.2-.8 0-.2.2-.2.6 0 .8l.8.9c.1.1.2.2.4.2s.3-.1.4-.2zM-925 539.1h-1.2c-.3 0-.5.2-.5.6s.2.6.5.6h1.2c.3 0 .5-.2.5-.6s-.2-.6-.5-.6zM-935.9 539.1h-1.2c-.3 0-.5.2-.5.6s.2.6.5.6h1.2c.3 0 .5-.2.5-.6s-.2-.6-.5-.6zM-930.1 547.3h-1.7c-.2 0-.4.2-.4.4v.8c0 .2.2.4.4.4h1.7c.2 0 .4-.2.4-.4v-.8c0-.2-.2-.4-.4-.4zM-931 536.5h-.1c-1.9.1-3.5 1.8-3.5 3.7 0 .9.3 1.7.8 2.4.8 1 1.3 2.3 1.3 3.7 0 .3.2.5.5.5h2c.3 0 .5-.2.5-.5 0-1.3.5-2.6 1.4-3.8.5-.7.8-1.5.8-2.3 0-1-.4-2-1.1-2.7-.7-.6-1.6-1-2.6-1zm2.1 5.5c-.9 1.2-1.5 2.5-1.6 3.9h-1c-.1-1.4-.7-2.7-1.5-3.8-.4-.5-.6-1.1-.6-1.8 0-1.4 1.2-2.7 2.6-2.7h.1c.7 0 1.4.3 1.9.8s.8 1.2.8 2c-.1.5-.3 1.1-.7 1.6z"/></g></svg>