<svg xmlns="http://www.w3.org/2000/svg" width="144" height="144" viewBox="57 -55 144 144" enable-background="new 57 -55 144 144"><path fill="#B3B3B3" d="M129-55c-39.8 0-72 32.2-72 72s32.2 72 72 72 72-32.2 72-72-32.2-72-72-72z"/><path fill="#fff" d="M162.3 36.8L151.5 26c-2-2-5.8-2-7.9.3l-5.6 5.6c-.3-.3-.6-.6-.9-.6-3.5-2-8.2-4.4-13.2-9.4s-7.6-9.6-9.4-13.2c-.3-.6-.6-.9-.6-1.2l3.5-3.5 1.8-1.8c2.3-2.3 2.3-5.8.3-7.9l-10.8-10.8c-2-2-5.8-2-7.9.3L97.9-13c-.9 1.2-1.8 2.9-2.6 4.4-.6 1.5-.9 2.9-1.2 4.4-1.3 11.8 4.2 22.6 18.8 37.5C133.1 53.5 149.4 52 150.3 52c1.5-.3 2.9-.6 4.4-1.2 1.8-.6 3.2-1.5 4.4-2.6l3.2-2.9c2.1-2.7 2.4-6.2 0-8.5z"/></svg>