<svg xmlns="http://www.w3.org/2000/svg" width="144" height="144" viewBox="57 -55 144 144" enable-background="new 57 -55 144 144"><path fill="#B3B3B3" d="M129-55c-39.8 0-72 32.2-72 72s32.2 72 72 72 72-32.2 72-72-32.2-72-72-72z"/><g fill="#fff"><path d="M95.8 27.5h6.4s6.4-.2 6.4 5.7c0 4.3-6.3 5.1-6.3 5.1h-6.6l.1-10.8zm19.3 21.1c.2.9.8 1.8 2.9 1.8 2.8 0 4.3-.9 4.3-.9v2s-2.9.8-4.5.8c-1.5 0-6-.3-6-4.5 0-3.4 3.7-4.3 5.7-4.3 3.7.2 5.4 1.4 5.4 5.1h-7.8zm0-1.7h5.1s0-1.8-2.5-1.8c-1.7-.1-2.3.8-2.6 1.8zm16-2c.8-.8 2-1.4 4-1.4 4 0 4.8 3.4 4.6 4.3 0 .9-.5 4.3-5.1 4.3-1.8 0-2.9-.6-3.5-1.4v1.1h-3.2V40.1h3.2v4.8zm2.6 5.3c1.8 0 2.8-1.7 2.8-2.5s-.5-2.5-2.9-2.5c-1.8 0-2.5 1.4-2.6 2.1v.9c.1.8.8 2 2.7 2zm27.5-.3v1.8s-1.5.3-2.5.3c-.9 0-3.5-.6-3.5-3.1v-3.8h-2.6v-1.7h2.6v-2h3.2v2h2.6v1.7h-2.6v3.2s0 1.7 1.2 1.7c1.6.1 1.6-.1 1.6-.1zm-9.9-20.7h3.8v9.1h3.2v-9.1h3.8v-1.8h-10.7v1.8h-.1zm-1 .5l.5-1.8s-1.7-.8-4.5-.8-7.2 1.5-7.2 5.8c0 4.1 4.8 5.5 7.7 5.5s3.8-.5 3.8-.5l-.3-2.1s-1.2.5-3.5.5c-2.1 0-4.3-1.7-4.3-3.7 0-1.7 2-3.5 4.6-3.5 1.6 0 3.2.6 3.2.6zm-29.1-2.3s5.4-.3 5.4 2.9c0 2.6-3.1 2.9-3.1 2.9s.9.2 1.2.8c.3.5 2.5 4.5 2.5 4.5H124s-.5-.6-.8-1.1c-.2-.5-.8-1.4-.8-1.4s-.5-1.7-2-1.7h-1.2v4.1h-3.1V27.5l5.1-.1zm-2 4.9h1.7s2.3-.2 2.5-1.5c0-1.4-2.3-1.5-2.3-1.5h-1.8v3h-.1zm13.1 1.7h5.2v-2h-5.2v-2.5h5.7v-2.1h-8.9v10.9h8.9v-2h-5.7V34zm12.7 8.3h3.2v-2.1H145v2.1zm0 9.5h3.2v-8.3H145v8.3zm-34.7-13.5h3.1V27.4h-3.1v10.9zM95.8 41h6.4s6.4-.2 6.4 5.7c0 4.3-6.3 5.1-6.3 5.1h-6.6l.1-10.8zm3 8.8h2.1s4.3-.3 4.3-3.5c0-3.4-4.6-3.7-4.6-3.7h-1.8v7.2zm0-13.5h2.1s4.3-.3 4.3-3.5c0-3.4-4.6-3.7-4.6-3.7h-1.8v7.2zM130.3-3.3v21.8s-12.6-2.3-12.6-10.9c0-7 9.4-10 12.6-10.9zm0-.4c-7.5-.6-24.7 3.1-24.7 10.7 0 5.1 9.1 12.4 24 12.7.6 0 17.5-.6 17.2-18.7-.3-15.4-11.7-18-15.4-18.4v-.9c14.4.9 26 9.7 26 20.3 0 11.2-12.7 20.3-28.4 20.3S100.5 13.2 100.5 2s12.7-20.3 28.4-20.3h1.4v14.6z"/></g></svg>