<svg xmlns="http://www.w3.org/2000/svg" width="144" height="144" viewBox="57 -55 144 144" enable-background="new 57 -55 144 144"><path fill="#B3B3B3" d="M129-55c-39.8 0-72 32.2-72 72s32.2 72 72 72 72-32.2 72-72-32.2-72-72-72z"/><g fill="#fff"><path d="M122.4 28.4h-24c-1.8 0-3.2-1.4-3.2-3.2s1.4-3.2 3.2-3.2h24c1.8 0 3.2 1.4 3.2 3.2 0 1.7-1.8 3.2-3.2 3.2zM115.9 19.4H98.4c-1.8 0-3.2-1.4-3.2-3.2 0-1.8 1.4-3.2 3.2-3.2H116c1.8 0 3.2 1.4 3.2 3.2 0 1.8-1.5 3.2-3.3 3.2zM135 21.5c0 .4 0 .7.4 1.1 0 0 0 .4.4.4.7 1.1 2.2 2.5 4.7 4.3.7.4 2.5 2.2 4.3 1.1 1.4-.7 1.4-2.2 1.4-3.6.7.4 1.8 1.4 3.2 2.5 1.8 1.4 3.2 2.2 4.3 2.2s1.8-.4 2.2-.7c.7-.4 1.1-1.1 1.4-1.8 1.8.7 3.2 1.1 3.2 1.1 1.1 0 1.8-.7 1.8-1.4 0-1.1-.7-1.8-1.4-1.8 0 0-1.1 0-2.5-.7.4-2.5.4-4.7-.4-6.1-.7-1.8-2.5-2.9-4.3-3.2-1.4 0-2.9.4-3.6 1.4-.7 1.1-1.1 2.5.4 5.4 1.1 1.8 2.5 3.2 3.9 4.3 0 .4-.4.4-.4.7-.7.4-1.8-.7-2.2-1.1-5-5-6.8-5.7-7.9-5-1.4.7-1.4 2.2-1.4 2.5v1.8s-.4 0-.4-.4c-2.5-2.2-3.6-3.2-3.9-3.6v-.4c-.4-.4-.7-.7-1.4-.7-1.1.2-1.8 1.1-1.8 1.7zm20.1 0c-.7-.7-1.1-1.4-1.8-2.2-.7-1.1-.7-1.4-.4-1.8h.8c.4 0 1.1.4 1.1 1.1.3.8.3 1.4.3 2.9zM161.9-2.1h-3.2l-6.5 6.4h9.3c1.8 0 3.6 1.8 3.6 3.6v23.4c0 1.8-1.8 3.6-3.6 3.6H95.8c-1.8 0-3.6-1.8-3.6-3.6V7.6C92.2 5.8 94 4 95.8 4h37.7l6.1-6.1H95.8c-5.7 0-10 4.3-10 9.7v23.7c0 5.4 4.3 10 10 10h66.4c5.4 0 10-4.3 10-10V7.6c-.3-5.4-4.6-9.7-10.3-9.7zM167.3-20.5c-1.1-1.1-2.2-1.4-3.6-1.4s-2.5.4-3.6 1.4l-26.9 27c-.7.7-1.4 1.8-1.4 2.5l-2.2 7.2c0 .4 0 .7.4.7 0 0 .4.4.7.4h.4l7.2-2.2c1.1-.4 1.8-.7 2.5-1.4l26.9-26.9c1.1-1.1 1.4-2.2 1.4-3.6-.4-1.2-.8-2.5-1.8-3.7z"/></g></svg>