<svg xmlns="http://www.w3.org/2000/svg" width="144" height="144" viewBox="57 -55 144 144" enable-background="new 57 -55 144 144"><path fill="#B3B3B3" d="M129-55c-39.8 0-72 32.2-72 72s32.2 72 72 72 72-32.2 72-72-32.2-72-72-72z"/><g fill="#fff"><path d="M107.7 35.5h-9.4c-1.7 0-3.1-1.4-3.1-3.1s1.4-3.1 3.1-3.1h9.8c1.7 0 3.1 1.4 3.1 3.1s-1.7 3.1-3.5 3.1zM128.7 21.2H98.3c-1.7 0-3.1-1.4-3.1-3.1s1.4-2.8 3.1-2.8H129c1.7 0 3.1 1.4 3.1 3.1 0 1.8-1.7 2.8-3.4 2.8zM144.7 21.2c1.7 0 3.1.7 4.2 1.4 1-1 2.8-1.4 4.2-1.4 3.8 0 7.3 3.1 7.3 7.3 0 3.8-3.1 7.3-7.3 7.3-1.7 0-3.1-.7-4.2-1.4-1 1-2.8 1.4-4.2 1.4-3.8 0-7.3-3.1-7.3-7.3.3-4.2 3.4-7.3 7.3-7.3zM161.6-12.4H96c-5.7 0-10 4.3-10 9.6v39.2c0 5.4 4.3 10 10 10h66c5.4 0 10-4.3 10-10V-2.8c-.4-5.4-4.6-9.6-10.4-9.6zM96-6.4h66c1.8 0 3.6 1.8 3.6 3.6v6.4H92.4v-6.4c0-1.8 1.5-3.6 3.6-3.6zM161.6 40H96c-1.8 0-3.6-1.8-3.6-3.6V10h73.1v26.4c-.3 1.8-1.7 3.6-3.9 3.6z"/></g></svg>