<svg xmlns="http://www.w3.org/2000/svg" width="144" height="144" viewBox="0 0 160.1 144" enable-background="new 0 0 160.1 144"><path fill="#FFE708" d="M155.5 117.4L91.5 6.2C88.8 1.8 83.5 0 79.1 0s-9.8 1.8-12.4 6.2c0 .9-64 112.9-64 112.9-1.8 1.8-2.7 5.3-2.7 8C0 136 7.1 144 16.9 144h126.3c8.9 0 16.9-7.1 16.9-16.9-1.1-3.5-4.6-9.7-4.6-9.7zm-83.9-79c0-4.7 3.8-8.5 8.5-8.5s8.5 3.8 8.5 8.5v56.2c0 4.7-3.8 8.5-8.5 8.5s-8.5-3.8-8.5-8.5V38.4zm8.4 89.1c-5.7 0-10.3-4.6-10.3-10.3s4.6-10.3 10.3-10.3c5.7 0 10.3 4.6 10.3 10.3s-4.6 10.3-10.3 10.3z"/></svg>