<svg xmlns="http://www.w3.org/2000/svg" width="144" height="144" viewBox="57 -55 144 144" enable-background="new 57 -55 144 144"><path fill="#B3B3B3" d="M129-55c-39.8 0-72 32.2-72 72s32.2 72 72 72 72-32.2 72-72-32.2-72-72-72z"/><path fill="#fff" d="M162-19.4c1.8 0 3.6 1.8 3.6 3.6v66.1c0 1.8-1.8 3.6-3.6 3.6H95.6c-2.1 0-3.6-1.8-3.6-3.6v-66.1c0-1.8 1.4-3.6 3.6-3.6H162m0-6.5H95.6c-5.4 0-9.6 4.3-9.6 10v66.1c0 5.4 4.3 9.6 9.6 9.6H162c5.4 0 10-4.3 10-10v-65.7c-.3-5.7-4.6-10-10-10zM118.3 32.5h5.4l1.1 2.9h3.2l-5-14.3h-3.6l-5 14.3h3.2l.7-2.9zm2.5-8.3l1.8 5.7H119l1.8-5.7zm-7.5 6.8c0-1.4-.4-2.9-2.1-3.6.7-.4 1.8-.7 1.8-2.9 0-1.4-.7-3.6-4.3-3.6h-7.1v14.3h6.1c2.9 0 3.6-.4 4.6-1.4.6-.6 1-1.6 1-2.8zm-9-7.5h3.6c1.4 0 2.1.4 2.1 1.4 0 1.1-1.1 1.4-2.1 1.4h-3.6v-2.8zm3.6 9.3h-3.6v-3.9h3.9c1.1 0 2.1.4 2.1 1.8.1 1.5-.9 2.1-2.4 2.1zm42.5-5.7l6.1 8.2h-3.9l-4.3-6.1-1.4 1.4v4.6H144V21h2.9v5.7l5.4-5.7h3.9l-5.8 6.1zM114 43.2c0-1.4-.4-1.4-1.1-1.8.7-.4 1.1-1.1 1.1-1.8s-.4-2.1-2.1-2.1h-3.6v7.1h1.4v-2.9h1.4c1.1 0 1.1.4 1.1 1.4v1.4h1.8v-1.3zm-2.5-2.4h-1.8V39h1.8c.7 0 1.1.7 1.1 1.1.3.2 0 .7-1.1.7zm5-31.9V6.4c0-.7 0-1.1.4-1.8s.4-1.4.7-2.1c.4-.4.4-.7.7-1.1 0-.4.4-.7.7-1.1.4-.7 1.1-1.4 1.4-1.8.4-.7 1.1-1.1 1.4-1.8.7-.4 1.1-1.1 1.8-1.4s1.4-.7 2.1-.7c.7-.4 1.1-.7 1.8-.7.7-.4 1.8-.7 2.1-.7-.4-.7-.4-1.4-.7-2.1 0-.7-.4-1.4-.4-2.5.7.4 1.4.7 2.1 1.1.7.4 1.4.7 1.8 1.1 1.1.7 2.1 1.8 2.9 2.9.7.7.7 1.8.4 2.9-.7 1.4-1.8 2.5-2.9 3.9-.7.7-1.1 1.1-1.8 1.4-.4.4-.7.4-1.1.7-.4.4-.7.4-1.4.7V.5s.4-1.8.7-2.5v-.4h-.7c-.4 0-1.1 0-1.4.4-.7 0-1.1.4-1.8.4-.7.4-1.1.4-1.8.7s-1.1.7-1.8 1.1c-.4.7-1.1 1.1-1.4 1.8-.4 0-.7.4-.7.7-.4 0-.4.4-.7.7s-.7 1.1-1.1 1.4c0 .7-.4 1.1-.4 1.8 0 .4-.4 1.1-.4 1.4-.1.1-.1.5-.5.9V10 8.9zm-15 28.6h6.1V39h-2.1v6h-1.8v-6h-2.1l-.1-1.5zm16.1 0l-2.5 7.1h1.4l.4-1.4h2.5l.4 1.4h2.1l-2.5-7.1h-1.8zm0 4.7l.7-2.9 1.1 2.9h-1.8zm13.2-29.1c-.7.4-1.1.7-1.8.7-.7.4-1.4.7-2.1.7.4.7.4 1.4.7 2.1.4.7.4 1.4.4 2.5-.7-.4-1.4-.4-2.1-.7-.7-.4-1.4-.7-1.8-1.1-1.1-.7-2.1-1.8-3.2-2.9-.7-1.1-.7-2.1-.4-2.9v-.4c.7-1.4 1.8-2.5 2.9-3.9l1.8-1.8c.4-.4.7-.4 1.1-.7.4-.4.7-.4 1.4-.7v2.8s-.4 1.8-.7 2.5v.4h.7c.4 0 1.1-.4 1.4-.4.7 0 1.1-.4 1.8-.7.7-.4 1.1-.4 1.8-.7.4-.4 1.1-.7 1.8-1.1.4-.4 1.1-.7 1.4-1.4.4 0 .7-.4.7-.7l.7-.7c.4-.4.7-1.1 1.1-1.8.4-.4.4-1.1.7-1.4 0-.4.4-1.1.4-1.4s0-.7.4-1.1v-1.1V.8c0 .7 0 1.1-.4 1.8 0 .7-.4 1.4-.7 2.1 0 .4-.4.7-.4 1.1s-.4.7-.7 1.1c-.4.7-.7 1.1-1.4 1.8-.4.7-1.1 1.1-1.8 1.8-.7.4-1.1 1.1-1.8 1.4-.8.5-1.2.9-1.9 1.2zm6.1 24.4h5V39h-3.6v1.8h3.2v1.4h-3.2v3.2h-1.4v-7.9zm-9.7 0h1.4v7.1h-1.4l-2.9-5v5h-1.4v-7.1h1.4l2.9 5v-5zm28.2 5.7c0-1.4-.4-1.4-1.1-1.8.7-.4 1.1-1.1 1.1-1.8s-.4-2.1-2.1-2.1h-3.6v7.1h1.4v-2.9h1.4c1.1 0 1.1.4 1.1 1.4v1.4h1.8v-1.3zm-2.5-2.4h-1.8V39h1.8c.7 0 1.1.7 1.1 1.1 0 .2-.3.7-1.1.7zm-17.1 1.7c0 2.1-2.1 2.5-2.9 2.5-2.5 0-3.2-1.4-3.2-2.5h1.4c0 .4.4 1.1 1.4 1.1.7 0 1.4 0 1.4-1.1 0-.7-.7-.7-1.4-1.1l-.7-.4c-1.1-.4-2.1-.4-2.1-2.1 0-.7.4-2.1 2.9-2.1 2.1 0 2.9 1.4 2.9 2.5H134c0-.4 0-1.1-1.4-1.1-.7 0-1.4.4-1.4.7 0 .7.4.7.7.7l1.8.4c1 1 2.1 1.5 2.1 2.5zm8.6 1h3.9V45h-5.4v-7.1h5.4v1.4h-3.9v1.4h3.6v1.4h-3.6v1.4zm-12.2-8.2h-2.9V21h3.2l5.7 10V21h2.9v14.3h-2.9l-5.7-10v10h-.3z"/></svg>