<?xml version="1.0" encoding="utf-8"?>
<!-- Generator: Adobe Illustrator 18.1.1, SVG Export Plug-In . SVG Version: 6.00 Build 0)  -->
<svg width="14px" height="14px" version="1.1" id="Layer_1" xmlns="http://www.w3.org/2000/svg" xmlns:xlink="http://www.w3.org/1999/xlink" x="0px" y="0px"
	 viewBox="-287 414.9 12 12" enable-background="new -287 414.9 12 12" xml:space="preserve">
<path fill="#CB2026" d="M-278.5,414.9h-5l-3.5,3.5v5l3.5,3.5h5l3.5-3.5v-5L-278.5,414.9z M-281.7,417.6c0-0.4,0.3-0.7,0.7-0.7
	s0.7,0.3,0.7,0.7v4.7c0,0.4-0.3,0.7-0.7,0.7s-0.7-0.3-0.7-0.7V417.6z M-281,425c-0.5,0-0.9-0.4-0.9-0.9s0.4-0.9,0.9-0.9
	s0.9,0.4,0.9,0.9S-280.5,425-281,425z"/>
</svg>
