<svg xmlns="http://www.w3.org/2000/svg" width="595.3" height="841.9" viewBox="0 0 595.3 841.9"><path fill="#666" d="M297.6 123.3C133.2 123.3 0 256.5 0 420.9s133.2 297.6 297.6 297.6 297.6-133.2 297.6-297.6-133.1-297.6-297.6-297.6zm79.3 410.6s-58.7 93.3-133.2 90c0 0-56.4-10-36.2-65.8 20.2-56 71.3-171 71.3-171s15.7-28-10.6-23.3c0 0-24.2 3.8-54.8 51.9 0 0-8.1 11.5-16.4 7 0 0-9.2-4.3-1.7-15.5 0 0 51.7-81.3 125.6-78.1 0 0 60.7.4 36.2 73.9l-56 136.4s-13.1 28.5 6.1 32.4c0 0 19.8 6.5 52.6-50.4 0 0 6.5-12 17-7.1.1-.1 10.4 5.9.1 19.6zM357.3 307c-25.1 0-45.5-19.8-45.5-44.2s20.4-44.2 45.5-44.2 45.5 19.8 45.5 44.2-20.4 44.2-45.5 44.2z"/></svg>