<svg xmlns="http://www.w3.org/2000/svg" viewBox="0 0 500 500" enable-background="new 0 0 500 500"><path fill="#E7E7E7" d="M250 0C111.9 0 0 111.9 0 250s111.9 250 250 250 250-111.9 250-250S388.1 0 250 0zm66.6 344.9s-49.3 78.4-111.9 75.6c0 0-47.4-8.4-30.4-55.3 17-47 59.9-143.6 59.9-143.6s13.2-23.5-8.9-19.6c0 0-20.3 3.2-46 43.6 0 0-6.8 9.7-13.8 5.9 0 0-7.7-3.6-1.4-13 0 0 43.4-68.3 105.5-65.6 0 0 51 .3 30.4 62.1l-47 114.6s-11 23.9 5.1 27.2c0 0 16.6 5.5 44.2-42.3 0 0 5.5-10.1 14.3-6 0-.2 8.6 4.9 0 16.4zm-16.5-190.6c-21.1 0-38.2-16.6-38.2-37.1s17.1-37.1 38.2-37.1 38.2 16.6 38.2 37.1-17.1 37.1-38.2 37.1z"/></svg>