<svg xmlns="http://www.w3.org/2000/svg" viewBox="0 123.3 595.3 595.3" enable-background="new 0 123.3 595.3 595.3" width="16" height="16"><path fill="#006B8D" d="M536.2 568.6H280.5c-32.6 0-59.1 26.4-59.1 59.1s26.4 59.1 59.1 59.1h255.7c32.6 0 59.1-26.4 59.1-59.1s-26.5-59.1-59.1-59.1zM536.2 361.9H280.5c-32.6 0-59.1 26.4-59.1 59.1s26.4 59.1 59.1 59.1h255.7c32.6 0 59.1-26.4 59.1-59.1s-26.5-59.1-59.1-59.1zM536.2 155.2H280.5c-32.6 0-59.1 26.4-59.1 59.1s26.4 59.1 59.1 59.1h255.7c32.6 0 59.1-26.4 59.1-59.1s-26.5-59.1-59.1-59.1z"/><circle fill="#006B8D" cx="73.8" cy="627.6" r="73.8"/><circle fill="#006B8D" cx="73.8" cy="420.9" r="73.8"/><circle fill="#006B8D" cx="73.8" cy="214.3" r="73.8"/></svg>