<svg xmlns="http://www.w3.org/2000/svg" viewBox="0 123.3 595.3 595.3" enable-background="new 0 123.3 595.3 595.3" width="16" height="16"><path fill="#006B8D" d="M473.9 231.9h50.4L423.5 123.5v54.1c0 30 22.4 54.3 50.4 54.3zM467 257.9v.1c-31.4 0-69.9-40.1-69.9-73.6v-61H136.7c-36.3.2-65.7 29.7-65.7 65.9v463.6c0 36.3 29.4 65.7 65.7 65.7h321.6c36.3 0 65.7-29.4 65.7-65.7v-395h-57zM150.1 171h189.3c8.6 0 15.5 6.9 15.5 15.5S348 202 339.4 202H150.1c-8.6 0-15.5-6.9-15.5-15.5s6.9-15.5 15.5-15.5zm0 68.5h189.3c8.6 0 15.5 6.9 15.5 15.5s-6.9 15.5-15.5 15.5H150.1c-8.6 0-15.5-6.9-15.5-15.5s6.9-15.5 15.5-15.5zm0 67.6h293.5c8.6 0 15.5 6.9 15.5 15.5s-6.9 15.5-15.5 15.5H150.1c-8.6 0-15.5-6.9-15.5-15.5s6.9-15.5 15.5-15.5zm295 371.4h-295c-8.6 0-15.5-6.9-15.5-15.5s6.9-15.5 15.5-15.5h295c8.6 0 15.5 6.9 15.5 15.5s-6.9 15.5-15.5 15.5zm0-68.1h-295c-8.6 0-15.5-6.9-15.5-15.5s6.9-15.5 15.5-15.5h295c8.6 0 15.5 7 15.5 15.5 0 8.6-6.9 15.5-15.5 15.5zm0-68.4h-295c-8.6 0-15.5-6.9-15.5-15.5s6.9-15.5 15.5-15.5h295c8.6 0 15.5 6.9 15.5 15.5s-6.9 15.5-15.5 15.5zm0-68.1h-295c-8.6 0-15.5-6.9-15.5-15.5s6.9-15.5 15.5-15.5h295c8.6 0 15.5 6.9 15.5 15.5s-6.9 15.5-15.5 15.5zm0-68.1h-295c-8.6 0-15.5-6.9-15.5-15.5s6.9-15.5 15.5-15.5h295c8.6 0 15.5 6.9 15.5 15.5s-6.9 15.5-15.5 15.5z"/></svg>