<svg xmlns="http://www.w3.org/2000/svg" width="44" height="44" viewBox="0 0 44 44"><path fill="#fff" d="M7 14.3h29.1v15.4H7z"/><g fill="#006B8D"><path d="M11.7 22.6c-.5 0-.9.2-1.3.6-.3.4-.5 1-.5 1.7s.2 1.3.5 1.7.7.6 1.2.6 1-.2 1.3-.6.5-1 .5-1.7-.2-1.3-.5-1.7c-.3-.4-.7-.6-1.2-.6zM32 22.8h-.4v1.9h.3c.9 0 1.4-.4 1.4-1.1-.1-.6-.5-.8-1.3-.8zM33.8 18.1c0-.4-.1-.8-.3-1.1-.1-.2-.3-.3-.5-.4s-.5-.1-.8-.1h-.6v3.3h.7c.5 0 .9-.1 1.1-.4.2-.4.4-.8.4-1.3zM41.9 23.6l2-1.6-2-1.6 1.8-1.9-2.3-1.2 1.5-2.1-2.4-.9 1.1-2.3-2.5-.5.7-2.5h-2.7l.3-2.5-2.5.3-.1-2.6-2.5.7-.4-2.5-2.3 1.1-.9-2.4-2.1 1.5L25.4.3 23.5 2l-1.6-2-1.6 2L18.4.2l-1.2 2.3L15.1 1l-.9 2.4-2.3-1-.5 2.5L9 4.2l-.1 2.6-2.6-.4.4 2.6-2.6.1.7 2.5-2.5.4 1.1 2.3-2.4.9 1.5 2.1-2.3 1.2 1.7 1.9-2 1.6 2 1.6-1.8 1.9 2.3 1.2-1.5 2.1 2.4.9-1 2.3 2.5.5-.7 2.5h2.6l-.3 2.6 2.5-.4.1 2.6 2.5-.7.5 2.5 2.3-1.1.9 2.4 2.1-1.5 1.2 2.3 1.9-1.8 1.6 2 1.6-2 1.9 1.8 1.2-2.3 2.1 1.5.9-2.4 2.3 1.1.5-2.5 2.5.7.1-2.6 2.6.3-.6-2.5 2.6-.1-.7-2.5 2.5-.5-1.1-2.3 2.4-.9-1.5-2.1 2.3-1.2-1.7-1.8zm-29.2-7.8h.9v4.5h-.9v-4.5zm-3.6 0h.9v3.9h2v.6H9v-4.5h.1zm4.8 11.5c-.6.6-1.3.8-2.3.8-.9 0-1.6-.3-2.2-.9-.5-.6-.8-1.3-.8-2.3s.3-1.7.8-2.3c.5-.6 1.3-.9 2.2-.9s1.7.3 2.2.9c.6.6.8 1.3.8 2.3.1 1-.2 1.8-.7 2.4zm1.7-6.9h-.7v-4.5h1.2l1.1 3.2 1.1-3.2h1.1v4.5h-.9V17l-1.1 3.1h-.8l-1.1-3.2.1 3.5zm4 2.4h-2.5v1.8h2.1v.8h-2.1V28h-1.3v-6h3.8v.8zm11-7h1.9c.7 0 1.2.2 1.6.6.4.4.6.9.6 1.6s-.2 1.3-.6 1.7c-.4.4-.9.6-1.7.6h-1.9v-4.5h.1zm-10.1 0h.9v4.5h-.9v-4.5zm3.9 7h-2.5v1.8H24v.8h-2.1V28h-1.3v-6h3.8v.8zm.2-2.4h-.9v-3.9h-1.6v-.6h4.2v.6h-1.6l-.1 3.9zm4.7 7.6h-3.9v-6h3.8v.8h-2.5v1.7h2.1v.8h-2.1v1.9h2.7v.8h-.1zm.6-7.6h-3v-4.5h2.8v.6h-1.9v1.3h1.5v.6h-1.5v1.4h2v.6h.1zm3.8 7.6l-1.5-2.5h-.7V28h-1.2v-6h2.3c1.2 0 1.8.5 1.8 1.5 0 .4-.1.7-.3 1s-.5.5-.9.7l2 2.8h-1.5z"/></g></svg>