<svg xmlns="http://www.w3.org/2000/svg" viewBox="0 123.3 595.3 595.3" enable-background="new 0 123.3 595.3 595.3" width="16" height="16"><g fill="#006B8D"><path d="M400.3 615.8c51 0 92.3-41.3 92.4-92.3V215.7c0-51.1-41.4-92.4-92.4-92.4H92.4C41.3 123.3 0 164.6 0 215.7v307.9c0 51 41.3 92.3 92.4 92.3h307.9zM92.4 154.1c16.9 0 30.8 13.8 30.8 30.8s-13.8 30.8-30.8 30.8S61.6 202 61.6 185s13.8-30.9 30.8-30.9zM61.6 523.5v-277h369.5v277c0 17-13.8 30.8-30.8 30.8H92.4c-17 0-30.8-13.8-30.8-30.8zM184.5 431.2h30.8V462c0 17 13.8 30.8 30.8 30.8S277 479 277 462v-30.8h30.8c17 0 30.7-13.8 31-30.7 0-17-13.8-30.8-30.8-30.8h-30.8v-30.8c0-17-13.8-30.8-30.8-30.8s-30.8 13.8-30.8 30.8v30.7h-31c-17 0-30.8 13.8-30.8 30.8s13.7 30.8 30.7 30.8zM564.4 236.2c-17 0-30.8 13.8-30.8 30.8v358.2c0 17-13.8 30.8-30.8 30.8H120c-.8-.1-1.8-.1-2.6-.1-17 0-30.8 13.8-30.8 30.8s13.8 30.8 30.8 30.8h385.5c51 0 92.4-41.3 92.4-92.4V267c0-17-13.8-30.8-30.9-30.8z"/></g></svg>