<?xml version="1.0" encoding="utf-8"?>
<!-- Generator: Adobe Illustrator 16.0.0, SVG Export Plug-In . SVG Version: 6.00 Build 0)  -->
<!DOCTYPE svg PUBLIC "-//W3C//DTD SVG 1.1//EN" "http://www.w3.org/Graphics/SVG/1.1/DTD/svg11.dtd">
<svg version="1.1" xmlns="http://www.w3.org/2000/svg" xmlns:xlink="http://www.w3.org/1999/xlink" x="0px" y="0px" width="44px"
	 height="44px" viewBox="0 0 44 44" enable-background="new 0 0 44 44" xml:space="preserve">
<g id="Layer_2">
	<rect x="10.147" y="15.763" fill="#FFFFFF" width="24.495" height="12.476"/>
</g>
<g id="Layer_1">
	<path fill="#006B8D" d="M41.96,23.563L44,21.997l-2.04-1.575l1.767-1.862l-2.262-1.234l1.463-2.129l-2.432-0.864l1.102-2.321
		l-2.527-0.473l0.731-2.461l-2.579-0.082l0.332-2.55l-2.557,0.333l-0.074-2.58l-2.461,0.732l-0.474-2.535l-2.321,1.107l-0.864-2.432
		l-2.129,1.464L25.44,0.273L23.563,2.04L21.996,0l-1.574,2.04L18.56,0.273l-1.234,2.262l-2.129-1.464l-0.865,2.432l-2.321-1.107
		l-0.473,2.535L9.077,4.198l-0.074,2.58L6.445,6.445l0.333,2.55l-2.58,0.082l0.732,2.461l-2.536,0.473l1.109,2.321l-2.432,0.864
		l1.463,2.129L0.273,18.56l1.767,1.862L0,21.997l2.04,1.566L0.273,25.44l2.262,1.234l-1.463,2.129l2.432,0.865l-1.109,2.32
		l2.536,0.473l-0.732,2.462l2.58,0.073l-0.333,2.559l2.557-0.333l0.074,2.579l2.461-0.731l0.473,2.528l2.321-1.102l0.865,2.432
		l2.129-1.464l1.234,2.262l1.862-1.767L21.996,44l1.567-2.04l1.877,1.767l1.234-2.262l2.129,1.464l0.864-2.432l2.321,1.102
		l0.474-2.528l2.461,0.731l0.074-2.579l2.557,0.333l-0.332-2.559l2.579-0.073l-0.731-2.462l2.527-0.473l-1.102-2.32l2.432-0.865
		l-1.463-2.129l2.262-1.234L41.96,23.563z M17.643,24.923h-1.589l-1.434-2.586c-0.399-0.71-0.835-1.582-1.16-2.365l-0.03,0.007
		c0.044,0.888,0.059,1.833,0.059,2.927v2.025h-1.382v-6.719h1.767l1.389,2.461c0.399,0.703,0.798,1.538,1.094,2.299h0.029
		c-0.096-0.887-0.133-1.796-0.133-2.801v-1.959h1.39V24.923z M23.26,24.923h-4.287v-6.711h4.146v1.242h-2.616v1.389h2.461v1.25
		h-2.461v1.589h2.756V24.923z M30.674,24.931h-1.648l-0.569-2.89c-0.133-0.681-0.236-1.301-0.317-2.069h-0.016
		c-0.125,0.754-0.229,1.389-0.384,2.069l-0.636,2.89h-1.655v-0.008l-1.589-6.711h1.618l0.511,2.771
		c0.146,0.799,0.287,1.664,0.398,2.344h0.015c0.104-0.732,0.273-1.53,0.443-2.357l0.569-2.742h1.611l0.539,2.822
		c0.148,0.784,0.26,1.508,0.363,2.255h0.014c0.097-0.747,0.244-1.53,0.385-2.328l0.547-2.742h1.537L30.674,24.931z"/>
</g>
</svg>
