<svg xmlns="http://www.w3.org/2000/svg" viewBox="0 123.3 595.3 595.3" enable-background="new 0 123.3 595.3 595.3" width="44" height="44"><path fill="#006B8D" d="M567.7 442.1l27.6-21.2-27.6-21.3 23.9-25.2-30.6-16.7 19.8-28.8-32.9-11.7 14.9-31.4-34.2-6.4 9.9-33.3-34.9-1.1 4.5-34.5-34.6 4.5-1-34.9-33.3 9.9-6.4-34.3-31.4 15-11.7-32.9-28.8 19.8-16.7-30.6-25.4 23.9-21.2-27.6-21.3 27.6-25.2-23.9-16.7 30.6-28.8-19.8-11.7 32.9-31.4-15-6.4 34.3-33.3-9.9-1 34.9-34.6-4.5 4.5 34.5-34.9 1.1 9.9 33.3-34.3 6.4 15 31.4-32.9 11.7 19.8 28.8-30.6 16.7 23.9 25.2L0 420.9l27.6 21.2-23.9 25.4 30.6 16.7L14.5 513l32.9 11.7-15 31.4 34.3 6.4-9.9 33.3 34.9 1-4.5 34.6 34.6-4.5 1 34.9 33.3-9.9 6.4 34.2 31.4-14.9 11.7 32.9 28.8-19.8 16.7 30.6 25.2-23.9 21.3 27.6 21.2-27.6 25.4 23.9 16.7-30.6 28.8 19.8 11.7-32.9 31.4 14.9 6.4-34.2 33.3 9.9 1-34.9 34.6 4.5-4.5-34.6 34.9-1-9.9-33.3 34.2-6.4-14.9-31.4 32.9-11.7-19.8-28.8 30.6-16.7-23.9-25.4zm-329 18.4h-21.5l-19.4-35c-5.4-9.6-11.3-21.4-15.7-32l-.4.1c.6 12 .8 24.8.8 39.6v27.4h-18.7V369.7h23.9l18.8 33.3c5.4 9.5 10.8 20.8 14.8 31.1h.4c-1.3-12-1.8-24.3-1.8-37.9v-26.5h18.8v90.8zm76 0h-58v-90.8h56.1v16.8h-35.4v18.8h33.3v16.9h-33.3v21.5h37.3v16.8zm100.3.1h-22.3l-7.7-39.1c-1.8-9.2-3.2-17.6-4.3-28h-.2c-1.7 10.2-3.1 18.8-5.2 28l-8.6 39.1h-22.4v-.1l-21.5-90.8h21.9l6.9 37.5c2 10.8 3.9 22.5 5.4 31.7h.2c1.4-9.9 3.7-20.7 6-31.9l7.7-37.1h21.8l7.3 38.2c2 10.6 3.5 20.4 4.9 30.5h.2c1.3-10.1 3.3-20.7 5.2-31.5l7.4-37.1h20.8L415 460.6z"/></svg>