<svg xmlns="http://www.w3.org/2000/svg" width="16" height="16" viewBox="0 0 16 16"><path fill="#949494" d="M14.4 1.5v-.3c0-.7-.6-1.2-1.2-1.2S12 .6 12 1.2v.2H4.1v-.2C4.1.6 3.5 0 2.8 0S1.6.6 1.6 1.2v.2H0v13.2c0 .8.6 1.4 1.3 1.4h13.3c.7 0 1.3-.6 1.3-1.3V1.5h-1.5zm-1.8 0v-.3c0-.3.3-.6.6-.6s.6.3.6.6V2c0 .3-.3.6-.6.6s-.6-.3-.6-.6v-.5zm-10.3 0v-.3c0-.3.3-.6.6-.6s.6.3.6.6V2c0 .3-.3.6-.6.6s-.6-.3-.6-.6v-.5zm13 13v.2c0 .4-.3.7-.7.7H1.3c-.3 0-.7-.3-.7-.7V4.9h14.7v9.6zM1.7 6.5H5V8H1.7zM6.4 6.5h3.3V8H6.4zM11 6.5h3.3V8H11zM1.7 9.2H5v1.5H1.7zM6.4 9.2h3.3v1.5H6.4zM11 9.2h3.3v1.5H11zM1.7 12H5v1.5H1.7zM6.4 12h3.3v1.5H6.4zM11 12h3.3v1.5H11z"/></svg>