<svg xmlns="http://www.w3.org/2000/svg" viewBox="0 0 500 500" enable-background="new 0 0 500 500" width="20" height="20"><path d="M249.8 0C111.8 0-.2 111.9-.2 249.9c0 138.2 112 250.1 250 250.1 138.1 0 250-112 250-250.1C499.7 111.9 387.9 0 249.8 0zm17.7 389c-5.9 5.2-12.6 7.7-20.2 7.7-7.9 0-14.8-2.5-20.6-7.7-5.9-5-8.8-12.3-8.8-21.4 0-8.1 2.9-15 8.5-20.5s12.7-8.4 20.9-8.4c8.1 0 15 2.8 20.5 8.4 5.5 5.5 8.4 12.4 8.4 20.5 0 9.1-2.8 16.3-8.7 21.4zM340 209.6c-4.4 8.2-9.8 15.5-15.9 21.4-6.1 6-17.2 16.1-33.1 30.3-4.4 3.9-7.9 7.5-10.6 10.6-2.6 3.1-4.6 5.9-6 8.4-1.3 2.5-2.4 5-2.9 7.6-.7 2.5-1.8 7-3.2 13.2-2.4 13.4-10.2 20.2-23 20.2-6.7 0-12.3-2.2-17-6.6-4.6-4.4-6.8-10.9-6.8-19.7 0-10.8 1.7-20.2 5-28.2 3.3-7.9 7.8-14.9 13.4-20.9 5.5-6 13-13.1 22.5-21.4 8.2-7.3 14.2-12.7 18-16.5 3.6-3.6 6.8-7.8 9.2-12.3 2.5-4.5 3.8-9.5 3.8-14.8 0-10.3-3.9-19.1-11.6-26.1-7.7-7.1-17.6-10.7-29.7-10.7-14.2 0-24.7 3.6-31.4 10.8s-12.3 17.7-17.1 31.7c-4.4 14.7-12.8 21.9-25 21.9-7.3 0-13.4-2.5-18.3-7.6-5-5-7.5-10.6-7.5-16.5 0-12.3 3.9-24.7 11.8-37.4 7.9-12.6 19.4-23 34.5-31.3 15.1-8.2 32.8-12.4 52.9-12.4 18.7 0 35.3 3.4 49.6 10.3 14.4 7 25.4 16.3 33.3 28.2 7.8 11.9 11.7 24.8 11.7 38.8.1 11.1-2.2 20.6-6.6 29z"/></svg>