<svg xmlns="http://www.w3.org/2000/svg" width="144" height="144" viewBox="0 0 144 144"><path fill="#4D4D4D" d="M72 0C32.2 0 0 32.2 0 72s32.2 72 72 72 72-32.2 72-72S111.8 0 72 0zm5.5 116.4c-.4.9-1 1.8-1.7 2.5s-1.5 1.2-2.4 1.7c-.9.4-1.9.6-3 .6s-2.1-.2-3-.6c-.9-.4-1.8-1-2.5-1.7s-1.2-1.5-1.7-2.5c-.4-.9-.6-2-.6-3 0-1.1.2-2.1.6-3 .4-.9 1-1.7 1.7-2.5.7-.7 1.5-1.3 2.5-1.7.9-.4 2-.6 3-.6s2.1.2 3 .6c.9.4 1.7 1 2.4 1.7s1.2 1.5 1.7 2.5c.4.9.6 1.9.6 3s-.2 2.1-.6 3zm18.4-61.8c-1.3 2.9-2.9 5.7-4.9 8.3-2 2.7-4.1 5.3-6.3 7.8-2.3 2.6-4.4 5.2-6.3 7.9-2 2.7-3.6 5.5-4.9 8.5-1.3 3-2 6.2-2 9.7h-3.3c0-4.1.4-7.7 1.1-11 .8-3.2 1.7-6.1 2.8-8.8 1.1-2.7 2.3-5.1 3.7-7.5 1.3-2.3 2.6-4.7 3.7-7.1 1.1-2.4 2.1-4.9 2.8-7.5.8-2.7 1.1-5.6 1.1-8.9 0-3.1-.4-5.7-1.1-8-.8-2.3-1.8-4.2-3.2-5.7-1.4-1.5-3-2.6-4.9-3.4-1.9-.7-3.9-1.1-6.1-1.1-1.9 0-3.7.2-5.3.7-1.6.4-3 1.1-4.2 1.9-1.2.8-2.1 1.8-2.8 2.9-.7 1.1-1 2.3-1 3.6 0 1.3.2 2.4.7 3.3.5.8 1 1.6 1.5 2.3.5.7 1 1.4 1.5 2.2.5.7.7 1.7.7 2.8 0 2-.5 3.6-1.6 4.7-1.1 1.2-2.4 1.8-3.9 1.8-1.1 0-2.1-.2-3-.7-.9-.5-1.7-1.2-2.4-2.1-.7-.9-1.2-2-1.6-3.2-.4-1.2-.6-2.6-.6-4.1 0-3.8.8-7 2.3-9.7 1.6-2.7 3.5-4.9 6-6.5 2.4-1.7 5.2-2.9 8.2-3.7 3-.8 5.9-1.2 8.8-1.2 3.8 0 7.3.5 10.6 1.5 3.2 1 6 2.5 8.4 4.4 2.3 1.9 4.2 4.2 5.5 7s2 5.9 2 9.3c-.1 3.6-.7 6.7-2 9.6z"/></svg>