<svg xmlns="http://www.w3.org/2000/svg" width="24" height="24" viewBox="0 0 24 24"><path d="M272.5 203.3"/><path fill="#fff" d="M21.5 1.5c.5 0 1 .5 1 1v19c0 .5-.5 1-1 1h-19c-.5 0-1-.5-1-1v-19c0-.5.5-1 1-1h19m0-1.5h-19C1.1 0 0 1.1 0 2.5v19C0 22.9 1.1 24 2.5 24h19c1.4 0 2.5-1.1 2.5-2.5v-19C24 1.1 22.9 0 21.5 0zM18.9 12.2V4.9c0-.4-.3-.8-.8-.8s-.8.3-.8.8v7.3c-.8.1-1.4.9-1.4 1.7v2.2c0 .9.6 1.6 1.4 1.7V19c0 .4.3.8.8.8s.8-.3.8-.8v-1.2c.8-.1 1.4-.9 1.4-1.7v-2.2c.1-.8-.6-1.5-1.4-1.7zm0 1.7v2.2c0 .1-.1.2-.2.2h-.9c-.1 0-.2-.1-.2-.2v-2.2c0-.1.1-.2.2-.2h.9c.1 0 .2.1.2.2zM12.4 4.2h-.9c-1 0-1.8.8-1.8 1.8v2.2c0 .9.6 1.6 1.4 1.7v9.2c0 .4.3.8.8.8s.8-.3.8-.8V9.9c.8-.1 1.4-.9 1.4-1.7V5.9c.1-.9-.7-1.7-1.7-1.7zm-1.1 1.7c0-.1.1-.2.2-.2h.9c.1 0 .2.1.2.2v2.2c0 .1-.1.2-.2.2h-.9c-.1 0-.2-.1-.2-.2V5.9zM6.6 10.1V4.9c0-.4-.3-.8-.8-.8s-.7.4-.7.8v5.2c-.8.1-1.4.9-1.4 1.7V14c0 .9.6 1.6 1.4 1.7V19c0 .4.3.8.8.8s.8-.3.8-.8v-3.3c.7-.1 1.3-.8 1.3-1.7v-2.2c0-.8-.6-1.5-1.4-1.7zm-.1 1.7V14c0 .1-.1.2-.2.2h-.9c-.1 0-.2-.1-.2-.2v-2.2c0-.1.1-.2.2-.2h.9c.1 0 .2.1.2.2z"/></svg>