<svg xmlns="http://www.w3.org/2000/svg" xmlns:xlink="http://www.w3.org/1999/xlink" width="16" height="16" viewBox="0 0 16 16"><defs><path id="a" d="M13.1 6.7h-1V4.3C12.2 1.9 10.3 0 8 0S3.8 1.9 3.8 4.3c0 .3.3.6.6.6.4 0 .6-.3.6-.6 0-1.7 1.3-3.1 3-3.1 1.6 0 3 1.4 3 3.1v2.4H2.9c-.3 0-.6.3-.6.6v7.2c0 .8.7 1.5 1.5 1.5h8.4c.8 0 1.5-.7 1.5-1.5V7.3c0-.4-.2-.6-.6-.6zm-.6 7.8c0 .2-.1.3-.3.3H3.8c-.2 0-.3-.1-.3-.3V7.9h9v6.6z"/></defs><use xlink:href="#a" overflow="visible" fill-rule="evenodd" clip-rule="evenodd" fill="#949494"/><clipPath id="b"><use xlink:href="#a" overflow="visible"/></clipPath><g clip-path="url(#b)"><defs><path id="c" d="M-38.9-347.1h286v507.3h-286z"/></defs><use xlink:href="#c" overflow="visible" fill="#949494"/><clipPath id="d"><use xlink:href="#c" overflow="visible"/></clipPath><path clip-path="url(#d)" fill="#949494" d="M-1.5-3.8h19.1v23.6H-1.5z"/></g><defs><path id="e" d="M8 13.2c.3 0 .6-.3.6-.6v-2.2c0-.4-.3-.7-.6-.7s-.6.3-.6.6v2.2c0 .4.3.7.6.7"/></defs><use xlink:href="#e" overflow="visible" fill-rule="evenodd" clip-rule="evenodd" fill="#949494"/><clipPath id="f"><use xlink:href="#e" overflow="visible"/></clipPath><g clip-path="url(#f)"><defs><path id="g" d="M-38.9-347.1h286v507.3h-286z"/></defs><use xlink:href="#g" overflow="visible" fill="#949494"/><clipPath id="h"><use xlink:href="#g" overflow="visible"/></clipPath><path clip-path="url(#h)" fill="#949494" d="M3.6 5.9h8.8V17H3.6z"/></g></svg>