<svg xmlns="http://www.w3.org/2000/svg" viewBox="0 123.3 595.3 595.3" enable-background="new 0 123.3 595.3 595.3" width="18" height="18"><path fill="#CB2026" d="M297.4 123.2C133.1 123.2-.2 256.4-.2 420.7c0 164.6 133.3 297.8 297.6 297.8 164.4 0 297.6-133.3 297.6-297.8 0-164.3-133.2-297.5-297.6-297.5zm21.1 463.1c-7 6.2-15 9.2-24 9.2-9.4 0-17.6-3-24.5-9.2-7-6-10.5-14.6-10.5-25.5 0-9.7 3.4-17.8 10.1-24.4 6.7-6.6 15.1-10 24.9-10 9.7 0 17.8 3.3 24.4 10 6.6 6.6 10 14.8 10 24.4 0 10.9-3.4 19.5-10.4 25.5zm86.3-213.6c-5.2 9.8-11.7 18.4-18.9 25.5-7.3 7.2-20.5 19.2-39.4 36.1-5.2 4.7-9.4 8.9-12.6 12.6-3.1 3.7-5.5 7-7.1 10-1.6 3-2.8 6-3.5 9.1-.8 3-2.1 8.3-3.8 15.7-2.9 16-12.1 24-27.4 24-8 0-14.7-2.6-20.2-7.9-5.5-5.2-8.1-13-8.1-23.4 0-12.9 2-24.1 6-33.6 3.9-9.4 9.3-17.7 15.9-24.9 6.6-7.2 15.5-15.6 26.8-25.5 9.8-8.7 16.9-15.1 21.4-19.6 4.3-4.3 8.1-9.3 11-14.7 3-5.4 4.5-11.3 4.5-17.6 0-12.3-4.6-22.7-13.8-31.1-9.2-8.4-21-12.7-35.4-12.7-16.9 0-29.4 4.3-37.4 12.9s-14.7 21.1-20.3 37.8c-5.2 17.5-15.2 26.1-29.8 26.1-8.7 0-15.9-3-21.8-9.1-5.9-6-8.9-12.6-8.9-19.7 0-14.6 4.7-29.4 14-44.5 9.4-15 23.1-27.4 41.1-37.3 18-9.8 39-14.8 63-14.8 22.3 0 42 4.1 59.1 12.3 17.1 8.3 30.3 19.4 39.6 33.6 9.3 14.2 13.9 29.5 13.9 46.2.1 13.2-2.6 24.6-7.9 34.5z"/></svg>