<svg xmlns="http://www.w3.org/2000/svg" width="17" height="17" viewBox="0 0 17 17"><title>action-undo</title><path fill="#fff" d="M16.437 15.644h-.018c-.27-.01-.44-.218-.462-.486-.018-.197-.564-4.965-8.006-4.96v3.05c0 .204-.118.392-.304.48-.184.088-.406.06-.564-.07L.194 7.95c-.123-.1-.193-.25-.193-.41s.073-.31.197-.41l6.89-5.655c.158-.13.377-.155.562-.068.184.088.303.275.303.48V4.87c3.087.097 5.495 1.09 7.045 2.904 2.522 2.95 1.96 7.24 1.933 7.42-.038.26-.23.45-.49.45zM7.42 9.128c5.317.003 7.35 1.798 8.51 3.384-.17-1.27-.666-2.8-1.744-4.05-1.433-1.663-3.743-2.54-6.766-2.54-.294 0-.53-.237-.53-.53V3.005L1.37 7.543l5.52 4.58V9.66c0-.142.055-.278.155-.377s.235-.155.375-.155z"/></svg>