<svg xmlns="http://www.w3.org/2000/svg" width="17" height="17" viewBox="0 0 17 17"><title>book-open</title><path fill="#fff" d="M15.806.026L8.783 1.928c-.178.048-.566.047-.744-.003L1.196.03C.587-.14-.005.3-.005.93v12.918c0 .533.404 1.042.918 1.185l6.843 1.896c.183.05.42.078.663.078.167 0 .414-.013.642-.075l7.023-1.902c.516-.138.92-.647.92-1.182V.93c0-.628-.59-1.07-1.198-.905zM7.97 15.886L1.18 14.01c-.05-.014-.123-.108-.123-.16V1.097L7.755 2.95c.065.018.138.032.214.044v12.893zm7.973-2.037c0 .05-.086.143-.137.157L9.03 15.842V2.962l.03-.007 6.883-1.86V13.85zm-5.285-7.77c.048 0 .096-.005.144-.02l3.718-1.045c.283-.08.447-.373.368-.655s-.375-.446-.655-.368l-3.718 1.046c-.283.08-.447.373-.368.655.066.235.28.388.51.388zm0 3.19c.048 0 .096-.007.144-.02l3.718-1.047c.283-.08.447-.373.368-.655s-.375-.446-.655-.368l-3.718 1.046c-.283.08-.447.373-.368.655.066.236.28.39.51.39zm0 3.186c.048 0 .096-.006.144-.02l3.718-1.046c.283-.08.447-.373.368-.655s-.375-.446-.655-.368l-3.718 1.046c-.283.08-.447.373-.368.655.066.234.28.388.51.388zM6.55 5.038L2.834 3.992c-.28-.078-.576.086-.655.368s.085.575.368.655L6.264 6.06c.048.015.096.02.144.02.232 0 .445-.152.51-.387.08-.282-.084-.575-.367-.655zm0 3.188L2.834 7.18c-.28-.078-.576.086-.655.368s.085.575.368.655L6.264 9.25c.048.013.096.02.144.02.232 0 .445-.154.51-.39.08-.28-.084-.574-.367-.654zm0 3.187l-3.717-1.046c-.28-.078-.576.086-.655.368s.085.575.368.655l3.718 1.046c.048.014.096.02.144.02.232 0 .445-.153.51-.388.08-.282-.084-.575-.367-.655z"/></svg>