<svg xmlns="http://www.w3.org/2000/svg" width="17" height="17" viewBox="0 0 17 17"><title>bubbles</title><path fill="#fff" d="M7.053 11.278c3.834 0 6.805-2.19 6.76-5.44 0-2.874-3.043-5.173-6.877-5.173S-.006 2.963-.006 5.84c0 1.79.878 3.7 2.713 4.637l-.003.03c0 .78-.648 1.846-.903 2.286h.002c-.02.048-.032.1-.032.155 0 .218.176.393.393.393.032 0 .084-.006.103-.006.005 0 .007 0 .007.002 1.356-.222 3.358-1.747 3.654-2.11.304.046.51.053.765.053.108 0 .224-.003.36-.003zM5.49 10.135l-.68.565c-.158.182-.843.754-1.434 1.126.36-1.024.344-1.348.344-1.348l.05-.65-.58-.296C1.72 8.78 1.058 7.212 1.058 5.84c0-2.285 2.637-4.11 5.88-4.11s5.813 1.825 5.813 4.11c-.01 2.534-2.422 4.393-5.664 4.393 0 0-.495.02-1.003-.056l-.593-.042zm11.516-.005c0-1.44-.563-2.538-1.966-3.362-.034.383-.143.794-.262 1.155.907.627 1.166 1.27 1.166 2.207 0 1.146-.534 1.977-1.775 2.612l-.53.262s.055 1.36.137 1.706c-1.037-.76-1.393-1.395-1.393-1.395l-.56.086c-.22.033-.818.034-.818.034-1.443 0-2.513-.344-3.425-1.058.25-.015-1.48-.015-1.518.02 1.055 1.288 2.78 2.1 4.945 2.1l.31.002c.22 0 .4-.006.662-.045.256.312 1.696 1.685 2.868 1.876 0-.002 0-.002.006-.002.016 0 .06.006.09.006.187 0 .34-.15.34-.34 0-.048-.012-.093-.03-.134h.002c-.22-.38-.567-1.49-.567-2.162 0-.01-.004-.018-.004-.027 1.586-.81 2.32-1.993 2.32-3.54z"/></svg>