<svg xmlns="http://www.w3.org/2000/svg" width="17" height="17" viewBox="0 0 17 17"><title>camcorder</title><path fill="#fff" d="M10.594 3.708c.02 0 .04.017.04.037v2.123c0 .393.216.754.563.938.156.083.327.124.498.124.21 0 .45-.06.628-.182l3.614-2.046v7.577l-3.634-1.985c-.182-.127-.395-.192-.61-.192-.167 0-.335.04-.49.12-.35.183-.57.546-.572.94l-.002 2.09c0 .02-.017.037-.038.037H1.1c-.022 0-.04-.016-.04-.037l.004-9.51c0-.02.017-.036.038-.036h9.49m5.85-.53c-.113 0-.337.033-.464.16l-4.283 2.53V3.746c0-.607-.493-1.1-1.1-1.1H1.102c-.61 0-1.1.492-1.1 1.1L0 13.255c0 .606.493 1.1 1.1 1.1h9.492c.61 0 1.1-.494 1.1-1.1l.003-2.09 4.366 2.546c.13.128.27.112.384.112.118 0 .205-.036.216-.04.206-.086.34-.285.34-.51V3.728c0-.224-.133-.424-.34-.51-.012-.004-.1-.04-.22-.04z"/></svg>