<svg xmlns="http://www.w3.org/2000/svg" width="17" height="17" viewBox="0 0 17 17"><title>check2</title><path fill="#fff" d="M8.5 0C3.806 0 0 3.806 0 8.5S3.806 17 8.5 17c4.695 0 8.5-3.805 8.5-8.5S13.195 0 8.5 0zm0 15.954c-4.1 0-7.438-3.353-7.438-7.454S4.4 1.062 8.5 1.062 15.938 4.4 15.938 8.5 12.6 15.954 8.5 15.954zM11.892 5.39l-4.987 5.018L4.66 8.162c-.208-.207-.545-.207-.752 0s-.207.544 0 .75l2.63 2.63c.206.208.543.208.75 0 .024-.023.044-.05.063-.076l5.293-5.325c.207-.206.207-.543 0-.75s-.544-.207-.752 0z"/></svg>