<svg xmlns="http://www.w3.org/2000/svg" width="17" height="17" viewBox="0 0 17 17"><title>chemistry</title><path fill="#fff" d="M13.454 16.115l-2.83-3.348v-5.87h.355c.293 0 .53-.237.53-.53s-.238-.53-.53-.53h-.886c-.294 0-.53.237-.53.53v6.604c0 .133.048.26.136.357l2.164 2.612H5.136L7.3 13.326c.088-.097.137-.224.137-.356V6.367c0-.294-.238-.53-.53-.53H6.02c-.293 0-.53.237-.53.53s.238.53.53.53h.355v5.87l-2.83 3.348c-.14.156-.175.38-.09.572s.275.316.486.316h9.12c.21 0 .4-.124.487-.316s.05-.416-.09-.572zM7.97 5.307c.584 0 1.06-.475 1.06-1.06s-.475-1.06-1.06-1.06c-.587 0-1.06.476-1.06 1.06s.473 1.06 1.06 1.06zm3.46-1.577c1.035 0 1.875-.836 1.875-1.866s-.84-1.866-1.875-1.866c-1.035 0-1.875.836-1.875 1.866s.84 1.866 1.875 1.866zm-.008-2.673c.443 0 .802.358.802.8s-.36.798-.802.798-.802-.36-.802-.8c0-.44.36-.798.802-.798z"/></svg>