<svg xmlns="http://www.w3.org/2000/svg" width="17" height="17" viewBox="0 0 17 17"><title>cloud-upload</title><path fill="#fff" d="M12.667 4.316c-.74-1.966-2.334-3.21-4.74-3.21-3.06 0-5.202 2.272-5.386 5.237C1.066 6.815 0 8.32 0 10.026c0 2.088 1.64 3.85 3.583 3.85h1.535c.293 0 .53-.237.53-.53s-.237-.53-.53-.53H3.583c-1.366 0-2.537-1.278-2.537-2.79 0-1.336.937-2.54 2.11-2.743L3.64 7.2l-.044-.487-.004-.006c0-2.588 1.703-4.54 4.336-4.54 2.11 0 3.296 1.04 3.844 2.813l.114.366.383.008c1.973.04 3.703 1.643 3.703 3.632 0 1.81-1.2 3.828-3.016 3.828h-1.214c-.293 0-.53.238-.53.53s.237.532.53.532l1.21-.002c2.656-.07 4.04-2.608 4.04-4.89 0-2.45-1.922-4.41-4.324-4.67zM8.897 8.55l-.005-.01-.134-.14c-.074-.078-.172-.116-.27-.116-.098 0-.196.038-.27.116l-.134.14c-.003.004-.003.007-.006.01L6.16 10.67c-.148.155-.148.406 0 .562l.134.09c.148.156.39.106.537-.05l1.132-1.26v5.353c0 .293.238.53.53.53s.532-.237.532-.53v-5.348l1.168 1.29c.148.154.39.204.537.05l.133-.092c.148-.156.148-.407 0-.562L8.897 8.55z"/></svg>