<svg xmlns="http://www.w3.org/2000/svg" width="17" height="17" viewBox="0 0 17 17"><title>control-rewind</title><path fill="#fff" d="M9.528 3.286L1.14 8.5l8.388 5.214v-4.1l6.375 4.1V3.284l-6.375 4.1V3.14m-.044-.915c.178 0 .377.044.538.134.337.187.568.543.568.93v2.188l4.95-3.09c.172-.107.356-.16.55-.16.178 0 .262.043.423.133.337.187.452.543.452.93v10.428c0 .386-.12.74-.458.93-.16.088-.294.133-.472.133-.195 0-.345-.054-.516-.16l-4.93-3.092v2.19c0 .385-.23.74-.568.928-.16.09-.35.134-.527.134-.194 0-.395-.053-.566-.16L.537 9.406C.226 9.213.035 8.87.035 8.504s.19-.708.5-.902l8.39-5.214c.17-.107.365-.16.56-.16z"/></svg>