<svg xmlns="http://www.w3.org/2000/svg" width="17" height="17" viewBox="0 0 17 17"><title>control-end</title><path fill="#fff" d="M15.67 0c-.292 0-.53.238-.53.53v7.804c-.048-.302-.223-.572-.488-.737L2.438.183c-.17-.106-.366-.16-.56-.16-.18 0-.356.044-.517.134-.336.187-.545.543-.545.93L.798 15.914c0 .386.21.74.546.93.16.088.338.133.516.133.194 0 .39-.053.56-.16l12.232-7.414c.265-.164.44-.434.488-.736v7.803c0 .294.238.532.53.532s.532-.238.532-.53V.53c0-.292-.238-.53-.53-.53zM1.86 15.914l.016-14.83L14.09 8.5 1.86 15.913z"/></svg>