<svg xmlns="http://www.w3.org/2000/svg" width="17" height="17" viewBox="0 0 17 17"><title>crop</title><path fill="#fff" d="M16.47 13.28h-2.126V3.42l1.983-1.98c.207-.207.207-.544 0-.75s-.544-.208-.75 0l-1.97 1.966H3.72V.53c0-.293-.24-.53-.532-.53s-.53.238-.53.53v2.126H.53c-.294 0-.53.238-.53.53s.237.532.53.532h2.125v10.094c0 .05.016.093.028.138.005.02.004.04.012.06.053.134.16.24.293.294.023.01.048.008.07.014.043.01.083.026.128.026h10.094v2.125c0 .293.238.53.53.53s.532-.238.532-.53v-2.126h2.125c.293 0 .53-.238.53-.53s-.238-.532-.53-.532zM12.54 3.72l-8.824 8.81V3.72h8.824zM4.47 13.28l8.81-8.798v8.8H4.47z"/></svg>