<svg xmlns="http://www.w3.org/2000/svg" width="17" height="17" viewBox="0 0 17 17"><title>envelope-open</title><path fill="#fff" d="M16.99 7.857c-.024-.188-.094-.36-.202-.506h.003l-.014-.014c-.054-.072-.118-.135-.19-.19L9.66.447c-.6-.6-1.652-.602-2.254 0L.48 7.093c-.15.14-.48.516-.48.886v7.96c0 .584.48 1.063 1.064 1.063H15.94c.583 0 1.062-.478 1.062-1.063V8c.004-.048 0-.096-.01-.143zm-12.51 4.2l-3.42 3.148V9.043l3.42 3.015zm1.09.44c.04-.026.075-.055.107-.09l.016-.023 2.344-2.158c.12-.097.263-.148.413-.148.152 0 .305.053.407.133l6.368 5.73H1.832l3.74-3.444zm7.005-.37l3.36-2.982v6.007l-3.36-3.024zM1.723 7.353L8.156 1.2c.1-.1.234-.156.376-.156s.275.056.376.156l6 5.717h-.017l.912.926-4.023 3.57-2.246-2.02c-.626-.49-1.524-.512-2.186.023l-2.084 1.92L1.25 7.792l.448-.44h.024z"/></svg>