<svg xmlns="http://www.w3.org/2000/svg" width="17" height="17" viewBox="0 0 17 17"><title>equalizer</title><path fill="#fff" d="M2.657 6.44V.53c0-.292-.238-.53-.53-.53s-.532.238-.532.53V6.44c-.92.237-1.6 1.07-1.6 2.06s.682 1.826 1.6 2.063v5.908c0 .293.238.53.53.53s.532-.237.532-.53V10.56c.918-.237 1.6-1.07 1.6-2.06s-.682-1.825-1.6-2.062zm-.525 3.123H2.12C1.534 9.56 1.06 9.083 1.06 8.5s.474-1.06 1.058-1.063H2.133c.583.004 1.057.48 1.057 1.063s-.474 1.06-1.057 1.063zm6.9.064V.53c0-.292-.238-.53-.53-.53S7.97.238 7.97.53v9.096c-.92.237-1.6 1.07-1.6 2.06s.682 1.826 1.6 2.063v2.72c0 .292.238.53.53.53s.532-.238.532-.53v-2.72c.917-.238 1.6-1.07 1.6-2.062s-.682-1.823-1.6-2.06zm-.525 3.124h-.012c-.584-.002-1.057-.478-1.057-1.062s.475-1.06 1.06-1.063h.01c.584.003 1.058.48 1.058 1.063s-.474 1.06-1.057 1.063zm6.9-9.498V.532c0-.294-.238-.532-.53-.532s-.532.238-.532.53v2.72c-.92.238-1.6 1.07-1.6 2.062s.682 1.825 1.6 2.062v9.095c0 .292.238.53.53.53s.532-.238.532-.53V7.373c.917-.237 1.6-1.07 1.6-2.06s-.682-1.824-1.6-2.062zm-.525 3.124H14.87c-.585-.003-1.06-.48-1.06-1.063s.475-1.06 1.058-1.063H14.88c.584.004 1.058.48 1.058 1.063s-.473 1.06-1.057 1.063z"/></svg>