<svg xmlns="http://www.w3.org/2000/svg" width="17" height="17" viewBox="0 0 17 17"><title>eye2</title><path fill="#fff" d="M8.558 5.336c-1.76 0-3.188 1.427-3.188 3.187s1.427 3.188 3.188 3.188 3.188-1.426 3.188-3.187c0-1.76-1.427-3.187-3.188-3.187zm0 5.312c-1.172 0-2.15-.976-2.15-2.148s.954-2.125 2.126-2.125 2.125.953 2.125 2.125-.93 2.148-2.102 2.148zm8.437-2.27c-.006-.028-.003-.056-.01-.083-.004-.01-.01-.018-.015-.027-.006-.015-.004-.033-.012-.048-1.545-3.538-4.875-5.574-8.424-5.574S1.588 4.68.042 8.216c-.007.016-.006.03-.01.048-.005.01-.012.016-.016.026-.008.027-.005.055-.01.082-.01.048-.02.094-.02.143s.01.094.02.143c.005.027.002.056.01.08.003.013.01.018.015.03.007.014.005.032.012.046 1.546 3.537 4.91 5.54 8.46 5.54s6.91-2 8.457-5.537c.007-.015.005-.03.01-.048.005-.01.012-.017.015-.028.008-.026.006-.054.01-.082.01-.048.02-.094.02-.143 0-.047-.01-.093-.02-.14zM8.5 13.29c-3.01 0-5.972-1.586-7.428-4.775 1.442-3.18 4.444-4.806 7.46-4.806 3.017 0 5.953 1.628 7.395 4.81-1.44 3.177-4.41 4.77-7.427 4.77z"/></svg>