<svg xmlns="http://www.w3.org/2000/svg" width="17" height="17" viewBox="0 0 17 17"><title>feed</title><path fill="#fff" d="M1.69 5.483c-.3 0-.543.243-.543.544s.243.544.544.544c5.03 0 8.723 3.726 8.723 8.756 0 .3.243.544.544.544s.544-.243.544-.544c0-5.65-4.158-9.843-9.81-9.843zm.006-5.44c-.3 0-.544.244-.544.545s.243.544.544.544c7.806 0 14.156 6.35 14.156 14.155 0 .3.243.544.544.544s.544-.242.544-.543C16.94 6.882 10.1.044 1.696.044zm1.36 10.907C1.403 10.95.06 12.297.06 13.953s1.344 3.003 2.995 3.003 2.995-1.348 2.995-3.003c0-1.656-1.344-3.003-2.995-3.003zm0 4.955c-1.074 0-1.946-.876-1.946-1.952s.873-1.95 1.945-1.95c1.073 0 1.946.874 1.946 1.95s-.872 1.952-1.945 1.952z"/></svg>