<svg xmlns="http://www.w3.org/2000/svg" width="17" height="17" viewBox="0 0 17 17"><title>fire</title><path fill="#fff" d="M8.44 16.988c-4.004 0-6.845-2.777-6.845-6.604 0-2.032 1.218-4.22 1.27-4.312.106-.188.313-.29.53-.267.214.028.39.182.446.39.004.013.332 1.242.766 1.924.29.458.586.782.918 1.008-.225-.974-.397-2.44-.117-3.942C6.177 1.06 9.424.072 9.563.032c.18-.05.37-.005.505.12s.198.31.163.49c-.004.03-.54 2.92.598 5.38.103.225.248.484.403.744.045-.357.114-.737.22-1.105.417-1.46 1.496-1.958 1.542-1.978.18-.082.39-.055.546.067s.23.32.194.514c-.006.036-.156 1.03.69 2.44.764 1.272.984 2.097.984 3.68 0 3.825-2.93 6.602-6.965 6.602zM3.25 7.764c-.293.736-.593 1.714-.593 2.62 0 3.21 2.394 5.54 5.783 5.54 3.42 0 5.902-2.33 5.902-5.54 0-1.387-.17-2.03-.833-3.134-.443-.737-.66-1.4-.766-1.926-.105.17-.203.378-.274.63-.324 1.13-.242 2.455-.24 2.47.015.236-.13.455-.354.535s-.474 0-.61-.195c-.04-.057-.986-1.394-1.402-2.295C9 4.6 9.014 2.58 9.102 1.415c-.875.51-2.22 1.65-2.65 3.966-.42 2.256.395 4.51.404 4.532.07.184.033.393-.096.54s-.33.214-.524.168c-.066-.016-1.56-.405-2.53-1.93-.172-.274-.327-.605-.458-.927z"/></svg>