<svg xmlns="http://www.w3.org/2000/svg" width="17" height="17" viewBox="0 0 17 17"><title>flag2</title><path fill="#fff" d="M11.29 1.583C8.632 1.583 7.924-.01 4.56-.01c-2.17 0-3.498 1.637-3.498 1.637V16.48c0 .293.238.53.53.53s.532-.237.532-.53V9.71c.56-.363 1.334-.69 2.302-.69 3.364 0 4.338 1.595 6.994 1.595s4.516-1.594 4.516-1.594V-.01s-1.992 1.594-4.648 1.594zm3.585 6.896c-.6.39-1.872 1.072-3.453 1.072-1.044 0-1.757-.287-2.66-.65-1.1-.442-2.348-.944-4.334-.944-.908 0-1.678.228-2.302.534V2.06c.4-.365 1.272-1.01 2.435-1.01 1.563 0 2.443.38 3.374.78.928.4 1.887.814 3.356.814 1.415 0 2.658-.39 3.586-.812v6.646z"/></svg>