<svg xmlns="http://www.w3.org/2000/svg" width="17" height="17" viewBox="0 0 17 17"><title>frame</title><path fill="#fff" d="M3.72 1.86H.53c-.292 0-.53.237-.53.53v3.188c0 .293.238.53.53.53s.532-.237.532-.53V2.922h2.656c.293 0 .53-.238.53-.53s-.237-.532-.53-.532zm12.75 9.03c-.294 0-.532.24-.532.532v2.656h-2.656c-.293 0-.53.238-.53.53s.237.532.53.532h3.188c.293 0 .53-.238.53-.53v-3.19c0-.292-.237-.53-.53-.53zM3.72 14.08H1.062v-2.656c0-.293-.238-.53-.53-.53S0 11.128 0 11.42v3.188c0 .293.24.53.532.53H3.72c.293 0 .53-.237.53-.53s-.237-.53-.53-.53zm12.75-12.22h-3.19c-.292 0-.53.24-.53.532s.238.53.53.53h2.657v2.657c0 .293.238.53.53.53S17 5.87 17 5.578V2.39c0-.294-.24-.532-.532-.532z"/></svg>