<svg xmlns="http://www.w3.org/2000/svg" width="17" height="17" viewBox="0 0 17 17"><title>ghost</title><path fill="#fff" d="M8.5-.002c-3.805 0-6.9 3.32-6.9 7.398v9.076c0 .22.134.416.34.495.06.024.126.036.19.036.147 0 .29-.06.394-.175l2.002-2.21 1.568 2.165c.1.137.257.218.426.22h.004c.168 0 .326-.08.426-.215l1.574-2.114 1.547 2.11c.1.138.26.218.43.218s.327-.08.427-.217l1.587-2.163 1.96 2.202c.145.164.38.222.585.143.205-.078.34-.276.34-.496V7.396c0-4.08-3.095-7.397-6.9-7.397zm5.84 15.077l-1.47-1.65c-.106-.12-.26-.188-.42-.177-.16.008-.31.087-.405.216l-1.546 2.11-1.545-2.108c-.1-.136-.258-.217-.426-.217h-.003c-.168 0-.326.078-.426.213l-1.57 2.11L5 13.464c-.094-.13-.24-.21-.4-.217h-.03c-.15 0-.293.062-.394.174L2.66 15.094V7.396c0-3.493 2.62-6.335 5.84-6.335s5.838 2.843 5.838 6.336v7.68zm-3.184-9.23c-.586 0-1.06.476-1.06 1.06s.474 1.06 1.06 1.06 1.06-.475 1.06-1.06c0-.585-.474-1.06-1.06-1.06zm-5.312 0c-.586 0-1.06.476-1.06 1.06s.474 1.06 1.06 1.06 1.06-.475 1.06-1.06c0-.585-.474-1.06-1.06-1.06z"/></svg>