<svg xmlns="http://www.w3.org/2000/svg" width="17" height="17" viewBox="0 0 17 17"><title>globe-alt</title><path fill="#fff" d="M15.43 6.88c0-2.802-1.476-5.344-3.95-6.8-.253-.15-.58-.063-.727.19s-.064.58.19.727c2.145 1.262 3.426 3.462 3.426 5.883 0 4.024-2.922 6.944-6.946 6.944-.9 0-1.773-.17-2.595-.5-.273-.112-.583.02-.693.292s.02.582.293.692c.95.384 1.957.58 2.994.58h.01v1.045H5.89c-.306 0-.554.237-.554.53s.25.53.555.53h4.2c.306 0 .554-.237.554-.53s-.25-.53-.555-.53h-1.6v-1.11c4.08-.473 6.942-3.666 6.942-7.943zm-2.16.048c0-3.232-2.618-5.867-5.85-5.867S1.57 3.698 1.57 6.93s2.62 5.834 5.85 5.834c3.233 0 5.85-2.603 5.85-5.834zm-10.64 0c0-2.64 2.15-4.805 4.79-4.805s4.788 2.164 4.788 4.805S10.06 11.7 7.42 11.7 2.63 9.568 2.63 6.928z"/></svg>