<svg xmlns="http://www.w3.org/2000/svg" width="17" height="17" viewBox="0 0 17 17"><title>globe</title><path fill="#fff" d="M17.017 8.5c0-4.516-3.547-8.22-8.007-8.484C8.918.006 8.826 0 8.732 0 8.704 0 8.677 0 8.65.002 8.6.003 8.55 0 8.5 0 3.804 0-.017 3.81-.017 8.5S3.803 17 8.5 17l.15-.003c.028 0 .055.004.083.004.093 0 .186-.006.278-.016 4.46-.264 8.008-3.967 8.008-8.484zm-1.585 2.736c-.293-.085-1.028-.27-2.325-.422.107-.734.166-1.51.166-2.315 0-.636-.037-1.252-.104-1.844 1.643-.196 2.363-.444 2.41-.46l-.197-.56c.37.882.574 1.85.574 2.862 0 .966-.187 1.89-.524 2.736zM4.74 8.5c0-.594.04-1.175.11-1.733.862.068 1.893.118 3.103.13v3.686c-1.18.01-2.186.06-3.033.124-.117-.7-.18-1.442-.18-2.207zm4.274-7.367c1.303.377 2.418 2.186 2.918 4.584-.803.064-1.77.11-2.918.122V1.132zm-1.06.013v4.692c-1.136-.01-2.107-.058-2.924-.12.51-2.368 1.634-4.163 2.923-4.572zm0 10.496v4.213c-1.203-.38-2.262-1.97-2.813-4.1.794-.06 1.73-.102 2.813-.113zm1.06 4.225V11.64c1.095.01 2.026.055 2.81.116-.542 2.16-1.595 3.76-2.81 4.11zm0-5.284V6.897c1.217-.01 2.24-.063 3.09-.133.07.56.11 1.14.11 1.736 0 .766-.063 1.508-.176 2.21-.837-.068-1.84-.116-3.024-.127zm6.173-5.37c-.16.05-.83.24-2.175.398-.3-1.592-.84-2.954-1.546-3.936 1.62.704 2.94 1.964 3.72 3.538zm-9.23-3.71c-.867.996-1.574 2.427-1.96 4.12-1.204-.13-1.925-.284-2.214-.353.842-1.737 2.34-3.1 4.174-3.766zm-4.57 4.76c.206.055.98.247 2.417.406-.082.587-.128 1.2-.128 1.83 0 .8.073 1.573.203 2.302-1.236.133-1.996.293-2.337.375-.323-.832-.502-1.734-.502-2.678 0-.78.122-1.533.346-2.24zm.623 5.895c.386-.082 1.078-.207 2.102-.314.403 1.49 1.06 2.75 1.845 3.652-1.68-.61-3.076-1.805-3.947-3.338zm9.456 3.168c.635-.884 1.137-2.076 1.45-3.466 1.052.12 1.713.262 2.046.346-.797 1.38-2.023 2.48-3.496 3.12z"/></svg>