<svg xmlns="http://www.w3.org/2000/svg" width="17" height="17" viewBox="0 0 17 17"><title>graph</title><path fill="#fff" d="M15.672 3.72c-.734 0-1.328.594-1.328 1.327 0 .15.03.293.076.428l-3.237 2.788c-.227-.18-.51-.294-.823-.294-.36 0-.687.144-.927.378l-2.536-1.27c-.05-.69-.618-1.234-1.32-1.234-.732 0-1.327.595-1.327 1.328 0 .2.048.39.128.56l-2.586 2.98c-.145-.053-.3-.087-.464-.087-.733 0-1.328.595-1.328 1.328s.595 1.328 1.328 1.328 1.328-.594 1.328-1.327c0-.177-.036-.345-.1-.5l2.63-3.02c.124.04.254.067.392.067.386 0 .73-.168.974-.432l2.48 1.244c.01.726.598 1.313 1.327 1.313.733 0 1.327-.595 1.327-1.328 0-.024-.006-.046-.007-.07l3.455-2.967c.164.073.345.115.537.115.734 0 1.328-.594 1.328-1.328s-.594-1.328-1.328-1.328z"/></svg>