<svg xmlns="http://www.w3.org/2000/svg" width="17" height="17" viewBox="0 0 17 17"><title>grid</title><path fill="#fff" d="M15.938 17h-5.313c-.587 0-1.063-.476-1.063-1.063v-5.313c0-.587.476-1.063 1.063-1.063h5.313c.587 0 1.063.477 1.063 1.064v5.313C17 16.524 16.526 17 15.94 17zm0-6.375h-5.313v5.313h5.313v-5.313zm0-3.187h-5.313c-.587 0-1.063-.476-1.063-1.063V1.062C9.562.475 10.038 0 10.625 0h5.313C16.525 0 17 .474 17 1.06v5.313c0 .587-.475 1.063-1.062 1.063zm0-6.375h-5.313v5.313h5.313V1.063zM6.375 17H1.062C.475 17 0 16.524 0 15.937v-5.313C0 10.037.474 9.56 1.06 9.56h5.313c.587 0 1.063.477 1.063 1.064v5.313c0 .587-.476 1.063-1.063 1.063zm0-6.375H1.062v5.313h5.313v-5.313zm0-3.187H1.062C.475 7.438 0 6.962 0 6.375V1.062C0 .475.474 0 1.06 0h5.313c.587 0 1.063.475 1.063 1.062v5.313c0 .587-.476 1.063-1.063 1.063zm0-6.375H1.062v5.313h5.313V1.063z"/></svg>