<svg xmlns="http://www.w3.org/2000/svg" width="17" height="17" viewBox="0 0 17 17"><title>layers2</title><path fill="#fff" d="M.363 5.01L8.25 9.305c.08.043.167.065.254.065s.173-.02.252-.064l7.97-4.295c.174-.093.282-.275.28-.473s-.116-.378-.292-.468L8.826.062c-.15-.076-.328-.077-.48 0L.377 4.067c-.175.09-.29.268-.292.466s.104.38.277.475zm8.223-3.876l6.743 3.424-6.824 3.677-6.743-3.672 6.823-3.43zm8.038 6.84l-1.577-.8-1.138.613 1.327.674-6.823 3.678L1.67 8.466l1.417-.712-1.135-.618-1.665.837c-.176.09-.29.268-.293.466s.104.38.277.474L8.16 13.21c.08.042.167.064.254.064s.173-.02.252-.064l7.97-4.295c.174-.093.282-.276.28-.474s-.115-.377-.29-.466zm0 3.72l-1.494-.735-1.138.613 1.245.608-6.823 3.678-6.743-3.672 1.318-.596-1.135-.618-1.566.72c-.176.09-.29.27-.293.467s.104.38.277.474L8.16 16.93c.08.042.167.064.254.064s.173-.02.252-.064l7.97-4.295c.174-.093.282-.276.28-.474s-.115-.377-.29-.466z"/></svg>