<svg xmlns="http://www.w3.org/2000/svg" width="17" height="17" viewBox="0 0 17 17"><title>link2</title><path fill="#fff" d="M4.908 12.16c.104.104.24.156.376.156s.272-.052.376-.156l6.436-6.486c.207-.207.207-.544 0-.75s-.544-.208-.75 0l-6.437 6.485c-.21.206-.21.543 0 .75zM7.9 11.028c.176.774-.014 1.534-.612 2.132l-2.146 2.08c-.452.45-1.052.7-1.69.7s-1.24-.25-1.69-.7c-.932-.933-.932-2.45-.006-3.377L3.852 9.7c.452-.45 1.052-.7 1.69-.7.218 0 .43.04.634.096l.83-.83c-.464-.215-.963-.328-1.464-.328-.884 0-1.767.337-2.442 1.01l-2.09 2.158c-1.35 1.348-1.35 3.535 0 4.884.673.674 1.557 1.01 2.44 1.01s1.768-.336 2.443-1.01l2.14-2.074c1.032-1.03 1.256-2.47.71-3.73l-.843.84zm8.09-10.02C15.316.336 14.432 0 13.55 0s-1.77.337-2.443 1.01l-2.14 2.075c-1.07 1.07-1.287 2.664-.66 3.952l.823-.824c-.244-.814-.057-1.73.582-2.37l2.146-2.08c.452-.45 1.052-.7 1.69-.7.64 0 1.24.25 1.69.7.933.933.933 2.45.006 3.377l-2.146 2.146c-.45.45-1.052.7-1.69.7-.163 0-.306.016-.462-.015l-.846.847c.423.176.857.23 1.308.23.883 0 1.767-.336 2.44-1.01l2.142-2.14c1.348-1.35 1.348-3.535 0-4.884z"/></svg>