<svg xmlns="http://www.w3.org/2000/svg" width="17" height="17" viewBox="0 0 17 17"><title>lock-open</title><path fill="#fff" d="M13.28 6.393H5.696L5.42 5.16c-.47-1.75.346-3.494 2.21-3.993 1.844-.494 3.47.563 3.947 2.343l.226.896c.076.283.367.452.65.376s.453-.367.377-.65l-.226-.897C11.974.88 9.774-.508 7.354.14c-2.43.652-3.58 2.98-2.96 5.295l.214.958h-.89c-1.17 0-2.124.953-2.124 2.125v6.375c0 1.172.953 2.125 2.125 2.125h9.562c1.172 0 2.125-.953 2.125-2.125V8.518c0-1.172-.953-2.125-2.125-2.125zm1.064 8.5c0 .586-.477 1.063-1.063 1.063H3.72c-.586 0-1.063-.477-1.063-1.063V8.518c0-.586.477-1.062 1.063-1.062h9.563c.587 0 1.064.477 1.064 1.062v6.375zM8.5 9.58c-.587 0-1.063.477-1.063 1.064 0 .392.215.73.53.915v1.74c0 .293.24.53.532.53s.53-.237.53-.53v-1.74c.316-.185.53-.524.53-.916 0-.587-.475-1.063-1.062-1.063z"/></svg>