<svg xmlns="http://www.w3.org/2000/svg" width="17" height="17" viewBox="0 0 17 17"><title>login</title><path fill="#fff" d="M8.84 10.98c-.207.207-.207.544 0 .75.105.105.24.157.377.157s.272-.052.376-.156l3.138-3.22-3.137-3.22c-.207-.208-.544-.208-.75 0s-.21.543 0 .75l1.92 1.922H.53c-.294 0-.53.238-.53.53s.237.532.53.532h10.267L8.842 10.98zM15.94 0H6.377C5.79 0 5.314.476 5.314 1.063v4.78h1.07V1.712c0-.354.288-.642.643-.642h8.246c.355 0 .643.288.643.643l.017 13.586c0 .355-.287.643-.643.643H7.027c-.355 0-.643-.29-.643-.644V11.14h-1.07v4.797c0 .587.476 1.063 1.063 1.063h9.562c.586 0 1.062-.476 1.062-1.063V1.062C17.002.475 16.526 0 15.94 0z"/></svg>