<svg xmlns="http://www.w3.org/2000/svg" width="17" height="17" viewBox="0 0 17 17"><title>magic-wand</title><path fill="#fff" d="M16.942 7.128l-1.706-2.55.85-2.97c.052-.186 0-.386-.138-.523s-.336-.188-.524-.133l-2.964.865L9.9.092c-.162-.108-.37-.12-.54-.032-.172.088-.283.264-.29.457l-.09 3.087-2.433 1.902c-.152.12-.228.312-.197.503s.163.35.346.414l2.282.818c-.015.012-.032.023-.046.037l-8.81 8.81c-.208.207-.208.544 0 .75.103.105.24.157.375.157s.272-.052.376-.156l8.81-8.81c.035-.034.062-.073.085-.113l.893 2.45c.067.182.227.313.42.343.026.004.053.006.08.006.164 0 .32-.075.42-.206l1.89-2.443 3.053-.11c.194-.006.368-.117.456-.29s.073-.38-.036-.54zm-3.76-.113c-.158.005-.305.08-.402.206L11.328 9.1l-.813-2.23c-.054-.15-.17-.266-.32-.32l-2.234-.8 1.87-1.462c.126-.097.2-.245.205-.403l.07-2.373 1.97 1.326c.13.088.295.113.446.07l2.28-.666-.653 2.282c-.043.152-.017.315.072.446l1.336 1.96-2.372.085z"/></svg>