<svg xmlns="http://www.w3.org/2000/svg" width="17" height="17" viewBox="0 0 17 17"><title>note</title><path fill="#fff" d="M13.27 15.942H1.05V2.662h7.465L9.59 1.625l-.03-.028H1.05c-.587 0-1.063.476-1.063 1.063v13.282c0 .587.476 1.063 1.063 1.063h12.22c.586 0 1.062-.476 1.062-1.063v-7.78L13.27 9.176v6.766zM16.174.688c-.48-.46-1.01-.692-1.573-.692-.882 0-1.527.57-1.702.745-.25.246-7.29 7.278-7.29 7.278-.056.056-.097.125-.117.202-.19.705-1.146 3.835-1.155 3.866-.05.16-.005.335.113.452.085.085.198.13.314.13.046 0 .092-.007.137-.02.03-.012 3.26-1.056 3.793-1.215.07-.02.134-.06.186-.11.334-.33 6.807-6.704 7.33-7.245.543-.56.812-1.14.802-1.728-.01-.58-.292-1.14-.837-1.662zm-.727 2.65c-.296.306-2.61 2.593-6.88 6.8l-.327.322c-.49.15-1.662.528-2.548.814.285-.942.628-2.08.78-2.62.912-.91 6.946-6.934 7.175-7.16.045-.046.452-.437.954-.437.286 0 .56.13.84.397.332.32.504.627.508.913.005.295-.163.622-.5.97z"/></svg>