<svg xmlns="http://www.w3.org/2000/svg" width="17" height="17" viewBox="0 0 17 17"><title>pin3</title><path fill="#fff" d="M16.848 6.303L10.736.16c-.132-.132-.322-.186-.503-.14-.18.043-.325.18-.38.357-.37 1.184-.41 2.255-.13 3.232-.026.017-.05.036-.073.06L6.81 6.51c-.917-.426-1.903-.656-2.885-.656-.624 0-1.236.092-1.82.273-.176.056-.312.2-.357.38s.008.37.14.502l3.634 3.658L.44 15.832l-.443 1.164 1.07-.413 5.2-5.164 3.684 3.706c.102.102.238.157.378.157.042 0 .084-.005.127-.015.18-.045.325-.18.38-.36.482-1.547.34-3.21-.337-4.7l2.9-2.9c.01-.01.018-.022.027-.033.438.125.89.192 1.362.192.585 0 1.205-.084 1.842-.282.176-.055.312-.2.357-.38s-.008-.37-.14-.5zm-6.835 7.38l-6.687-6.73c1.716-.2 3.567.49 4.907 1.83 1.333 1.333 1.984 3.176 1.78 4.9zm-.048-4.444c-.28-.428-.605-.834-.98-1.21-.373-.372-.78-.7-1.21-.984l2.392-2.392c.244.424.56.83.946 1.217.396.397.815.717 1.255.965L9.965 9.24zm1.9-4.12c-1.023-1.02-1.416-2.16-1.208-3.533l4.763 4.788c-1.372.197-2.517-.214-3.556-1.254z"/></svg>