<svg xmlns="http://www.w3.org/2000/svg" width="17" height="17" viewBox="0 0 17 17"><title>plane</title><path fill="#fff" d="M15.51 1.094c.174 0 .296.032.36.057.076.204.178.93-.573 1.683l-3.835 3.835.028.476c.058.996.166 2.78.26 4.31.08 1.36.16 2.646.164 2.755.003.074.004.092-.066.176-.157.19-.45.513-.696.78-.382-1.03-1.185-3.204-1.63-4.422l-.57-1.567-1.178 1.18-2.168 2.084-.302.302-.01.426c-.006.34-.005.95-.004 1.49 0 .374.002.715 0 .903-.006.01.072.02.064.033l-.148-.237c-.437-.697-1.042-1.662-1.227-1.963l-.136-.22-.222-.134c-.806-.488-1.698-1.05-2.243-1.4.018-.01.033.047.046.04h.035c.172 0 .455.004.773.008.415.006.886.012 1.247.012.138 0 .26 0 .36-.003l.426-.01.3-.3 2.09-2.154L7.83 8.058l-1.56-.574c-1.17-.43-3.416-1.27-4.466-1.664.27-.248.594-.543.783-.7.053-.043.094-.065.122-.065h.036l2.978.194 4.136.267.48.03 3.834-3.836c.54-.537 1.068-.617 1.336-.617m0-1.06c-.627 0-1.397.24-2.085.93L9.93 4.457C7.96 4.333 2.915 4 2.79 3.996l-.08-.002c-.17 0-.464.033-.8.31C1.52 4.627.7 5.397.7 5.397c-.2.198-.3.444-.275.674.015.14.09.394.433.528.208.082 3.518 1.32 5.046 1.882l-2.088 2.153c-.092.002-.207.003-.336.003-.636 0-1.623-.02-2.02-.02h-.123c-.12.004-.37-.056-1.027.494l-.047.044c-.197.197-.243.394-.248.524-.004.134.032.327.225.482.116.094 1.608 1.05 2.83 1.788.294.478 1.644 2.623 1.714 2.74.103.173.27.272.472.278h.017c.196 0 .396-.097.593-.288.556-.65.48-.92.482-1.033.01-.355-.006-1.858.007-2.454l2.168-2.085c.554 1.522 1.765 4.798 1.846 5.007.134.342.388.418.528.432.023.003.046.004.07.004.21 0 .426-.098.604-.276 0 0 .768-.815 1.094-1.212s.314-.735.308-.894c-.003-.11-.31-5.127-.424-7.086l3.497-3.497C17.287 2.345 17.09.85 16.63.39c-.204-.203-.616-.358-1.118-.358z"/></svg>