<svg xmlns="http://www.w3.org/2000/svg" width="17" height="17" viewBox="0 0 17 17"><title>present</title><path fill="#fff" d="M17 5.32c0-.586-.476-1.062-1.063-1.062h-1.814c.47-.463.77-1.07.77-1.817 0-.92-.53-1.92-2.012-1.92C10.93.52 9.3 2.6 8.53 3.766 7.765 2.6 6.084.52 4.13.52c-1.483 0-2.01 1-2.01 1.92 0 .748.308 1.355.787 1.818H1.063C.476 4.258 0 4.734 0 5.32V8.5h1.072v6.917c0 .587.476 1.063 1.063 1.063H14.88c.587 0 1.063-.476 1.063-1.063V8.5h1.06V5.32zm-4.12-3.737c.658 0 .95.276.95.858 0 1.18-1.316 1.818-2.555 1.818h-1.8c.756-1.12 2.085-2.675 3.406-2.675zm-8.748 0c1.32 0 2.7 1.553 3.455 2.674h-1.8c-1.238 0-2.605-.653-2.605-1.833 0-.58.293-.84.95-.84zM15.938 7.44H9.032V5.32h6.906v2.12zM1.063 5.32H7.97v2.12H1.062V5.32zm1.07 3.18H7.97v6.917H2.134V8.5zm12.746 6.917H9.03V8.5h5.85v6.917z"/></svg>