<svg xmlns="http://www.w3.org/2000/svg" width="17" height="17" viewBox="0 0 17 17"><title>puzzle</title><path fill="#fff" d="M8.5 17.003c-.337 0-.654-.13-.892-.368L.36 9.388c-.49-.493-.49-1.294 0-1.786l2.655-2.654c.164-.164.415-.203.622-.095s.317.336.277.564c-.027.152-.04.274-.04.384 0 1.163.947 2.128 2.11 2.128 1.164 0 2.013-.965 2.013-2.127 0-1.163-.85-2.11-2.013-2.11-.11 0-.23.013-.382.04-.23.043-.457-.072-.564-.277s-.07-.458.095-.622L7.608.356c.48-.477 1.308-.476 1.786 0l1.812 1.812c.378-1.176 1.482-2.03 2.78-2.03C15.6.138 16.91 1.45 16.91 3.06c0 1.3-.853 2.403-2.03 2.78l1.76 1.76c.492.493.492 1.294.002 1.786l-7.246 7.246c-.24.24-.556.37-.893.37zM2.904 6.56l-1.79 1.792c-.078.078-.078.206 0 .285l7.244 7.245c.102.1.182.102.285 0l7.244-7.246c.078-.078.078-.206 0-.285L13.33 5.8c-.16-.16-.2-.404-.102-.607s.313-.323.54-.295l.08.01c.046.006.09.014.137.014 1.025 0 1.86-.834 1.86-1.86 0-1.025-.835-1.86-1.86-1.86s-1.858.835-1.858 1.86c0 .043.007.085.012.127l.01.095c.024.224-.096.44-.3.536-.2.096-.444.055-.603-.104L8.64 1.107c-.1-.1-.18-.102-.284 0L6.744 2.72c1.383.342 2.314 1.593 2.314 3.08 0 1.748-1.327 3.19-3.076 3.19-1.486 0-2.737-1.047-3.08-2.43z"/></svg>