<svg xmlns="http://www.w3.org/2000/svg" width="17" height="17" viewBox="0 0 17 17"><title>refresh</title><path fill="#fff" d="M8.258 14.917c0-.003-.005-.005-.006-.008l-1.526-2.386c-.108-.178-.343-.24-.527-.14l-.137.083c-.183.1-.18.358-.07.536l.977 1.518c-.083-.017-.168-.032-.25-.054-1.713-.448-3.163-1.608-3.977-3.18-.77-1.487-.914-3.183-.407-4.778S3.992 3.612 5.48 2.843c.252-.13.35-.442.22-.695s-.442-.352-.695-.22c-1.73.895-3.06 2.41-3.652 4.268s-.422 3.833.474 5.564c.95 1.832 2.637 3.182 4.632 3.704.022.006.045.01.068.015l-1.35.684c-.183.1-.243.326-.135.504l.052.136c.11.178.296.24.478.14l2.47-1.264.01-.004.167-.09c.092-.05.152-.133.176-.225.025-.09.014-.193-.04-.28l-.1-.16zm6.914-9.59c-.947-1.832-2.583-3.182-4.578-3.705-.142-.037-.287-.066-.432-.095l1.325-.672c.183-.1.292-.326.183-.504l-.052-.134c-.11-.178-.345-.24-.527-.142L8.62 1.34c-.003 0-.006 0-.01.002l-.165.09c-.092.05-.152.133-.176.225-.026.092-.015.193.04.282l.098.16c.002.003.005.005.006.008L9.94 4.493c.108.178.343.24.526.14l.12-.082c.183-.1.195-.357.087-.534L9.69 2.49c.216.034.43.074.64.13 1.715.45 3.112 1.608 3.926 3.18.77 1.486.913 3.182.406 4.777s-1.605 2.896-3.09 3.666c-.254.13-.352.442-.22.695.09.177.27.278.457.278.08 0 .16-.02.236-.058 1.73-.895 3.01-2.412 3.6-4.27.59-1.857.42-3.833-.475-5.563z"/></svg>