<svg xmlns="http://www.w3.org/2000/svg" width="17" height="17" viewBox="0 0 17 17"><title>reload2</title><path fill="#fff" d="M8.488 0C4.24 0 .786 3.455.786 7.702c0 3.992 3.076 7.33 7.032 7.672l-1.525.773c-.188.103-.3.336-.19.52l.055.138c.112.184.355.25.543.146l2.546-1.302.01-.004.17-.093c.095-.05.158-.136.183-.23.025-.094.013-.2-.043-.29l-.1-.167-.008-.008L7.886 12.4c-.112-.185-.354-.25-.543-.147l-.124.086c-.188.102-.2.367-.09.55l.93 1.44c-.006 0-.01-.003-.015-.003C4.57 14.1 1.85 11.19 1.85 7.702c0-3.66 2.977-6.64 6.638-6.64s6.657 2.978 6.657 6.64c0 2.108-.968 4.044-2.656 5.312-.236.176-.283.51-.107.744s.51.282.744.106c1.958-1.47 3.08-3.717 3.08-6.162C16.208 3.455 12.738 0 8.49 0z"/></svg>