<svg xmlns="http://www.w3.org/2000/svg" width="17" height="17" viewBox="0 0 17 17"><title>settings2</title><path fill="#fff" d="M15.946 6.89l-1.363-.302c-.106-.34-.245-.665-.405-.978l.738-1.23c.275-.44.415-1.087 0-1.502l-.752-.75c-.415-.416-1.115-.34-1.538-.048l-1.196.762c-.31-.16-.635-.3-.972-.408l-.306-1.38C10.062.548 9.618 0 9.032 0H7.967c-.587 0-.946.556-1.063 1.063l-.34 1.363c-.36.115-.706.26-1.036.435l-1.227-.78c-.423-.293-1.123-.368-1.538.047l-.75.75c-.416.416-.277 1.064 0 1.504l.775 1.295c-.146.293-.275.597-.374.913l-1.363.303C.547 6.983 0 7.426 0 8.01v1.063c0 .587.555.946 1.062 1.063l1.38.345c.095.294.215.575.35.847l-.777 1.295c-.275.44-.415 1.087 0 1.502l.752.75c.415.416 1.115.34 1.538.048l1.23-.783c.33.174.678.322 1.04.436l.34 1.36c.116.506.476 1.062 1.063 1.062H9.04c.588 0 1.03-.548 1.122-1.054l.307-1.384c.333-.108.653-.244.96-.403l1.197.764c.423.294 1.123.37 1.538-.046l.752-.75c.415-.416.275-1.064 0-1.503l-.738-1.23c.147-.292.276-.595.38-.91l1.38-.346C16.444 10.018 17 9.658 17 9.07V8.01c0-.587-.548-1.03-1.054-1.12zM15.938 9c-.045.03-.13.076-.238.1l-1.97.493-.183.558c-.083.253-.19.508-.317.76l-.267.524 1.04 1.735c.067.105.098.2.108.256l-.698.698c-.067-.02-.144-.05-.18-.074l-1.75-1.115-.544.28c-.262.137-.53.25-.798.336l-.58.188-.437 1.978c-.02.106-.077.19-.116.222H8.05c-.03-.045-.076-.13-.1-.238l-.49-1.956-.565-.18c-.292-.092-.583-.214-.866-.364l-.547-.288-1.75 1.115c-.07.048-.147.076-.216.076l-.697-.678c.01-.055.038-.146.096-.24l1.087-1.81-.258-.52c-.12-.245-.216-.476-.29-.704l-.183-.558-1.95-.488c-.123-.028-.21-.074-.258-.106V8.01h.002c.018 0 .105-.06.178-.074l2.004-.444.184-.586c.075-.24.177-.487.312-.76l.258-.52-1.075-1.793c-.067-.107-.097-.202-.107-.258l.7-.698c.067.022.143.05.18.074l1.782 1.137.546-.288c.28-.15.57-.27.862-.363l.565-.18.485-1.94c.028-.122.073-.21.106-.257h.988c-.007.01.06.104.075.18l.445 2.016.58.187c.27.088.543.202.808.34l.544.28 1.712-1.09c.07-.05.147-.076.216-.076l.697.678c-.01.055-.04.146-.096.24l-1.052 1.75.268.525c.145.283.255.55.337.812l.184.587 1.964.435c.12.022.21.09.23.128l-.007.943zm-7.43-3.693c-1.765 0-3.2 1.433-3.2 3.193s1.434 3.193 3.2 3.193 3.2-1.433 3.2-3.193-1.436-3.193-3.2-3.193zM8.5 10.625c-1.172 0-2.125-.953-2.125-2.125S7.328 6.375 8.5 6.375c1.172 0 2.125.953 2.125 2.125s-.953 2.125-2.125 2.125z"/></svg>