<svg xmlns="http://www.w3.org/2000/svg" width="17" height="17" viewBox="0 0 17 17"><title>share-alt2</title><path fill="#fff" d="M14.972 15.76H1.16V5.137h4.276L6.51 4.1l-.028-.027H1.16C.57 4.073.095 4.55.095 5.136V15.76c0 .588.476 1.064 1.063 1.064H14.97c.587 0 1.063-.476 1.063-1.063V7.45l-1.063 1.013v7.298zM4.485 11.51h1.07C6.3 7.287 9.98 4.074 14.418 4.074c.186 0 .363.002.542.003l-1.947 1.946c-.207.207-.207.544 0 .75.104.105.24.157.376.157s.27-.053.374-.157l3.138-3.22L13.764.33c-.207-.206-.543-.206-.75 0-.208.208-.208.545 0 .752L14.94 3.01h-.502c-5.03 0-9.19 3.684-9.956 8.5z"/></svg>