<svg xmlns="http://www.w3.org/2000/svg" width="17" height="17" viewBox="0 0 17 17"><title>shuffle</title><path fill="#fff" d="M6.68 8.398l.65-.917L5.1 4.44H.046V5.5h4.507L6.678 8.4zM15.252 5.5l-1.287 1.155c-.155.148-.205.39-.05.537l.09.134c.157.148.408.148.563 0l2.12-1.918c.003-.003.006-.003.01-.006l.14-.134c.078-.075.116-.172.116-.27 0-.097-.038-.196-.116-.27l-.14-.133-.01-.006-2.154-1.967c-.155-.148-.406-.148-.562 0l-.09.134c-.156.148-.106.39.05.537l1.262 1.145h-3.848L4.553 14H.046v1.063H5.1l6.796-9.563h3.357zm1.445 8.657c-.003-.003-.006-.004-.01-.006l-2.153-1.965c-.155-.148-.406-.148-.562 0l-.09.134c-.156.147-.106.388.05.536l1.266 1.15L11.894 14l-1.9-2.94-.652.918 2.003 3.084 3.9.005-1.282 1.15c-.155.148-.205.39-.05.537l.09.134c.157.148.408.148.563 0l2.12-1.918c.004-.003.007-.003.01-.006l.14-.134c.08-.075.117-.172.117-.27 0-.097-.038-.195-.116-.27l-.14-.133z"/></svg>