<svg xmlns="http://www.w3.org/2000/svg" width="17" height="17" viewBox="0 0 17 17"><title>size-actual</title><path fill="#fff" d="M6.362 5.757l-.01-3.835c-.006-.215-.183-.342-.398-.347H5.68c-.214-.005-.384.182-.38.397l.016 2.577L.896.17C.687-.035.35-.035.143.17s-.207.545 0 .752l4.4 4.36-2.507.007c-.215-.006-.414.142-.446.395l.002.273c.005.215.183.393.397.397l3.81-.017.01.002.194.005c.107.003.204-.04.272-.11.07-.068.095-.164.093-.272l-.022-.194c0-.005.015-.008.015-.01zm4.362.478c.07.07.165.112.272.11l.194-.006c.004 0 .006-.002.01-.003l3.81.017c.216-.005.393-.182.398-.397v-.273c-.032-.253-.23-.4-.445-.396l-2.508-.007 4.4-4.36c.208-.206.208-.543 0-.75s-.543-.207-.75 0l-4.42 4.378.015-2.577c.005-.214-.165-.4-.38-.396h-.273c-.215.005-.393.133-.397.347l-.01 3.836c0 .004.014.006.014.01l-.02.194c-.003.108.022.204.09.273zm-4.448 4.513c-.07-.07-.165-.11-.272-.11l-.194.006-.01.002-3.81-.017c-.216.004-.393.18-.398.396v.273c.032.252.23.4.445.395l2.51.007-4.403 4.376c-.207.207-.207.544 0 .75s.544.208.75 0l4.422-4.39-.015 2.59c-.004.215.166.402.38.397h.274c.215-.006.393-.134.397-.348l.012-3.835c0-.004-.015-.006-.015-.01l.02-.21c.003-.11-.022-.205-.09-.274zm6.176.954l2.51-.007c.216.005.415-.143.447-.396l-.002-.274c-.005-.215-.183-.392-.397-.397H11.2c-.003 0-.006-.003-.01-.003l-.227-.005c-.107-.003-.204.072-.272.142-.07.07-.094.165-.092.273l.02.194c0 .005-.014.007-.014.01l.01 3.836c.006.215.183.342.398.347h.29c.214.006.384-.18.38-.396l-.016-2.565 4.437 4.367c.207.206.544.206.75 0s.208-.545 0-.752l-4.403-4.376z"/></svg>