<svg xmlns="http://www.w3.org/2000/svg" width="17" height="17" viewBox="0 0 17 17"><title>social-facebook</title><path fill="#fff" d="M9.658 1.336c.063 0 .1.003.1.003h1.387l-.007 1.593H9.76c-.758 0-.74.648-.74.648V6.11H11.7L11.327 7.7H9.01v7.965H7.416V7.7H5.3l-.003-1.592h2.12V3.63c0-2.16 1.794-2.293 2.24-2.293m1.488.002h.003M9.658.273c-.382 0-1.128.063-1.835.49-.67.402-1.467 1.226-1.467 2.866v1.414H5.298c-.282 0-.553.113-.753.312s-.31.47-.31.754l.004 1.592c0 .585.476 1.06 1.062 1.06h1.053v6.902c0 .587.477 1.063 1.064 1.063h1.59c.588 0 1.064-.476 1.064-1.063V8.76h1.255c.47 0 .886-.31 1.018-.762l.375-1.592c.094-.32.032-.668-.17-.936s-.515-.426-.85-.426h-1.62V3.996h1.056c.584 0 1.06-.474 1.062-1.06l.007-1.54V1.34c0-.587-.474-1.063-1.06-1.063H9.79C9.76.273 9.715.272 9.66.272z"/></svg>