<svg xmlns="http://www.w3.org/2000/svg" width="17" height="17" viewBox="0 0 17 17"><title>social-youtube</title><path fill="#fff" d="M15.618 3.15c-.46-.332-1.744-.773-7.122-.773-5.763 0-6.618.506-6.893.67-1.46.878-1.6 4.763-1.612 5.55.02 1.04.187 4.5 1.612 5.357.274.165 1.124.668 6.894.668 5.382 0 6.663-.438 7.122-.768 1.245-.895 1.388-3.98 1.39-5.27-.002-1.038-.11-4.514-1.39-5.435zm-.62 9.842c-.186.133-1.25.568-6.503.568-5.08 0-6.145-.394-6.346-.516-.514-.308-1.055-1.94-1.097-4.45.042-2.504.59-4.332 1.097-4.635.202-.123 1.272-.52 6.345-.52 5.25 0 6.315.438 6.502.572.455.328.942 2.053.95 4.576-.008 2.562-.5 4.08-.95 4.404zm-3.038-4.91L7.18 5.15c-.164-.1-.37-.103-.536-.01s-.27.272-.27.464v5.868c0 .192.103.368.27.463.08.046.17.07.26.07.096 0 .19-.026.275-.077l4.78-2.934c.158-.096.256-.27.256-.455s-.097-.36-.257-.456zM7.437 10.53V6.544l3.22 1.993-3.22 1.993z"/></svg>