<svg xmlns="http://www.w3.org/2000/svg" width="17" height="17" viewBox="0 0 17 17"><title>social-tumblr</title><path fill="#fff" d="M8.766 1.058v3.717h3.724v1.593H8.782l-.005 4.624c0 .86.045 1.41.135 1.656.142.386.657.88 1.613.88.742 0 1.743-.223 2.493-.784v2.48c-.626.297-1.207.418-1.714.538s-1.057.18-1.646.18c-.656 0-2.55-.018-3.33-2-.14-.355-.21-.873-.21-1.55V6.37H3.98l.01-1.63c.708 0 2.833-.43 2.833-3.683h1.942m0-1.064h-1.94c-.588 0-1.064.476-1.064 1.063 0 2.43-1.354 2.62-1.77 2.62-.584 0-1.06.473-1.062 1.057l-.01 1.63c-.002.282.11.553.31.754s.47.314.752.314h1.077v4.958c0 .82.093 1.455.284 1.94.48 1.22 1.618 2.673 4.318 2.673.67 0 1.305-.07 1.89-.21l.117-.027c.496-.117 1.13-.262 1.81-.586.37-.176.605-.55.605-.96v-2.478c0-.402-.227-.77-.587-.95-.15-.076-.313-.113-.476-.113-.225 0-.45.073-.636.213-.63.474-1.44.573-1.855.573-.425 0-.583-.154-.618-.195-.018-.082-.07-.394-.07-1.277l.005-3.562h2.646c.587 0 1.063-.475 1.063-1.062V4.775c0-.587-.475-1.063-1.062-1.063H9.826V1.058c0-.587-.476-1.063-1.063-1.063z"/></svg>