<svg xmlns="http://www.w3.org/2000/svg" width="17" height="17" viewBox="0 0 17 17"><title>symbol-male</title><path fill="#fff" d="M16.988.376c.002-.108-.023-.204-.093-.273-.07-.07-.165-.112-.272-.108L16.43 0c-.005 0-.007 0-.012.002l-4.873-.017c-.215.005-.392.182-.397.397v.273c.032.253.23.4.445.396l3.573.008-4.252 4.227c-1.154-.967-2.64-1.55-4.263-1.55-3.667 0-6.64 2.973-6.64 6.64s2.973 6.642 6.64 6.642c3.668 0 6.642-2.973 6.642-6.64 0-1.663-.612-3.18-1.62-4.346l4.264-4.238-.016 3.638c-.005.215.165.4.38.397h.273c.215-.006.393-.134.397-.348l.01-4.9c0-.003-.014-.006-.014-.01l.02-.193zm-4.75 10c0 3.084-2.5 5.586-5.586 5.586s-5.587-2.5-5.587-5.587 2.5-5.587 5.587-5.587c3.086 0 5.587 2.5 5.587 5.587z"/></svg>