<svg xmlns="http://www.w3.org/2000/svg" width="17" height="17" viewBox="0 0 17 17"><title>user-unfollow</title><path fill="#fff" d="M13.267 6.373V3.718c0-1.758-2.434-3.716-4.78-3.716S3.704 1.96 3.704 3.718v2.655c0 1.16.53 3.507 2.015 4.7l-4.667 2.2s-1.062.474-1.062 1.063v1.594c0 .587.476 1.062 1.063 1.062h10.093V15.93H1.054v-1.077c0-.422.317-.555.444-.613l4.666-2.202c.334-.154.565-.47.61-.836s-.102-.728-.39-.958c-1.103-.886-1.617-2.834-1.617-3.87V3.717c0-1.11 1.932-2.654 3.72-2.654 1.805 0 3.718 1.52 3.718 2.654v2.655c0 1.022-.425 2.977-1.564 3.874-.29.228-.44.592-.397.96.043.367.275.685.612.84l.3.138.467-.86-.324-.244c1.472-1.157 1.97-3.432 1.97-4.707zm2.083 8.216l1.502-1.504c.207-.207.207-.544 0-.75s-.544-.208-.75 0l-1.504 1.502-1.502-1.503c-.207-.207-.544-.207-.75 0s-.208.544 0 .75l1.5 1.504-1.5 1.5c-.208.208-.208.545 0 .752s.543.207.75 0l1.502-1.503L16.1 16.84c.208.207.545.207.752 0s.207-.544 0-.75l-1.502-1.503z"/></svg>