<svg xmlns="http://www.w3.org/2000/svg" width="17" height="17" viewBox="0 0 17 17"><title>user-following</title><path fill="#fff" d="M1.054 15.934v-1.078c0-.422.317-.555.444-.613l4.666-2.202c.334-.153.565-.47.61-.834s-.102-.728-.39-.958c-1.103-.886-1.617-2.834-1.617-3.87V3.72c0-1.11 1.932-2.654 3.72-2.654 1.805 0 3.72 1.52 3.72 2.654v2.655c0 1.022-.426 2.977-1.566 3.874-.29.23-.44.593-.397.96s.275.687.612.84l2.693 1.283.633-.898-2.882-1.35c1.472-1.158 1.97-3.434 1.97-4.71V3.722c0-1.757-2.434-3.715-4.78-3.715S3.705 1.963 3.705 3.72v2.656c0 1.16.53 3.507 2.015 4.7l-4.666 2.202s-1.062.473-1.062 1.062v1.594c0 .587.475 1.062 1.062 1.062h10.62l-.863-1.062H1.056zm15.75-3.923c-.23-.18-.565-.14-.746.092l-2.272 3.465-1.412-1.412c-.207-.207-.544-.207-.75 0s-.208.544 0 .75l1.877 1.88c.208.206.545.206.752 0 .05-.05.088-.11.114-.172l2.528-3.857c.18-.23.14-.565-.09-.745z"/></svg>