<svg xmlns="http://www.w3.org/2000/svg" width="17" height="17" viewBox="0 0 17 17"><title>user2</title><path fill="#fff" d="M8.495 1.063c1.804 0 3.717 1.52 3.717 2.654v2.655c0 1.022-.425 2.977-1.565 3.874-.29.23-.44.592-.398.96s.274.686.61.84l4.624 2.192c.036.016.443.085.443.653v1.038H1.062v-1.077c0-.42.318-.554.445-.612l4.665-2.202c.335-.154.566-.47.61-.835s-.102-.727-.39-.957c-1.103-.886-1.617-2.834-1.617-3.87V3.716c0-1.11 1.933-2.654 3.72-2.654M8.496 0C6.15 0 3.712 1.958 3.712 3.716V6.37c0 1.16.53 3.508 2.015 4.7L1.06 13.274S0 13.746 0 14.335v1.594c0 .586.474 1.06 1.06 1.06h14.87c.586 0 1.06-.474 1.06-1.06v-1.595c0-.624-1.06-1.062-1.06-1.062l-4.624-2.192c1.472-1.157 1.97-3.433 1.97-4.708V3.717C13.276 1.96 10.842 0 8.496 0z"/></svg>