<svg xmlns="http://www.w3.org/2000/svg" width="17" height="17" viewBox="0 0 17 17"><title>volume-off</title><path fill="#fff" d="M9.555 1.094c-.173-.092-.383-.082-.546.028L3.677 5.307h-1.77c-.905 0-1.642.643-1.642 1.435l.028 3.505c0 .79.736 1.43 1.64 1.43l1.77.002 5.303 4.195c.09.06.193.09.297.09.086 0 .17-.02.25-.06.173-.093.28-.273.28-.47V1.56c0-.195-.107-.376-.28-.468zm-.78 13.343l-4.61-3.728c-.088-.06-.19-.092-.297-.092H1.936c-.34 0-.58-.195-.58-.374L1.33 6.74c0-.175.238-.37.58-.37h1.93c.106 0 .21-.032.297-.09l4.637-3.72v11.876zm6.067-5.93l1.736-1.756c.207-.206.207-.543 0-.75s-.544-.207-.75 0l-1.733 1.753L12.363 6c-.207-.207-.544-.207-.75 0s-.208.544 0 .75l1.735 1.758-1.72 1.74c-.207.207-.207.544 0 .75s.544.208.752 0l1.715-1.735L15.81 11c.207.206.544.206.75 0s.208-.545 0-.752l-1.718-1.74z"/></svg>