<svg xmlns="http://www.w3.org/2000/svg" width="17" height="17" viewBox="0 0 17 17"><title>wrench</title><path fill="#fff" d="M16.707 3.585c-.18-.083-.392-.05-.54.08l-2.68 2.405-2.417-2.48L13.464.825c.13-.15.162-.358.08-.54s-.26-.294-.456-.294h-.144c-1.48 0-4.034.128-5.174 1.285l-.23.228c-1.217 1.24-1.433 3.277-.792 4.824l-6.13 6.257c-.828.838-.828 2.197 0 3.035l.747.758c.413.42.955.628 1.497.628s1.083-.21 1.497-.628l6.22-6.27c.588.317 1.395.525 2.072.525 1.085 0 2.114-.438 2.897-1.233l.226-.23c1.24-1.256 1.22-3.94 1.225-5.12.002-.2-.114-.383-.294-.467zM15.035 8.45l-.197.23c-.593.602-1.37.89-2.186.89-.404 0-.948-.075-1.315-.228-.332-.138-.64-.337-.916-.588L3.61 15.62c-.2.204-.464.315-.747.315s-.55-.112-.75-.314l-.747-.757c-.413-.42-.413-1.1 0-1.518L8.02 6.557c-.223-.325-.375-.68-.466-1.046-.256-1.035-.107-2.466.698-3.287l.23-.23c.69-.7 2.48-.908 3.472-.97l-1.948 2.25c-.174.202-.165.506.02.696l3.08 3.16c.187.19.49.202.69.024L15.964 5.2c-.065 1.053-.27 2.58-.93 3.25z"/></svg>