<?xml version="1.0" encoding="utf-8"?>
<!-- Generator: Adobe Illustrator 21.0.0, SVG Export Plug-In . SVG Version: 6.00 Build 0)  -->
<svg version="1.1" id="Layer_1" xmlns="http://www.w3.org/2000/svg" xmlns:xlink="http://www.w3.org/1999/xlink" x="0px" y="0px"
	 width="130px" height="131px" viewBox="0 0 130 131" style="enable-background:new 0 0 130 131;" xml:space="preserve">
<style type="text/css">
	.st0{fill:#FFFFFF;}
</style>
<title>Calendar - simple-line-icons</title>
<desc>Created with Sketch.</desc>
<path class="st0" d="M127.7,14.7c-1.6-1.6-3.5-2.3-5.8-2.3H89.4V4.2c0-1.1-0.4-2.1-1.2-2.9s-1.8-1.2-2.9-1.2s-2.1,0.4-2.9,1.2
	s-1.2,1.8-1.2,2.9v8.1H48.8V4.2c0-1.1-0.4-2.1-1.2-2.9s-1.8-1.2-2.9-1.2s-2.1,0.4-2.9,1.2s-1.2,1.8-1.2,2.9v8.1H8.1
	c-2.3,0-4.2,0.8-5.8,2.3S0,18.2,0,20.4V122c0,2.2,0.8,4.1,2.3,5.7s3.5,2.4,5.8,2.4h113.8c2.3,0,4.2-0.8,5.8-2.4s2.3-3.5,2.3-5.7
	V20.4C130,18.2,129.2,16.2,127.7,14.7z M121.9,122H8.1V20.4h32.5v4.1c0,1.1,0.4,2.1,1.2,2.9s1.8,1.2,2.9,1.2s2.1-0.4,2.9-1.2
	s1.2-1.8,1.2-2.9v-4.1h32.5v4.1c0,1.1,0.4,2.1,1.2,2.9s1.8,1.2,2.9,1.2s2.1-0.4,2.9-1.2s1.2-1.8,1.2-2.9v-4.1h32.5V122z"/>
</svg>
