<?xml version="1.0" encoding="utf-8"?>
<!-- Generator: Adobe Illustrator 21.1.0, SVG Export Plug-In . SVG Version: 6.00 Build 0)  -->
<svg version="1.1" id="Layer_1" xmlns="http://www.w3.org/2000/svg" xmlns:xlink="http://www.w3.org/1999/xlink" x="0px" y="0px"
	 width="24px" height="24px" viewBox="0 0 24 24" style="enable-background:new 0 0 24 24;" xml:space="preserve">
<title>Group 25 Copy</title>
<desc>Created with Sketch.</desc>
<g id="UI---element-testing">
	<g id="ICONOGRAPHY" transform="translate(-465.000000, -5675.000000)">
		<g id="Group-25-Copy" transform="translate(465.000000, 5675.000000)">
			<g id="Group-15-Copy-3">
				<path id="Oval-3" d="M12,22.9c6,0,10.9-4.9,10.9-10.9S18,1.1,12,1.1S1.1,6,1.1,12S6,22.9,12,22.9z M12,23.9
					C5.4,23.9,0.1,18.6,0.1,12S5.4,0.1,12,0.1S23.9,5.4,23.9,12S18.6,23.9,12,23.9z"/>
			</g>
			<polygon id="icon77---themify" points="17.7,7.2 11,17.4 7.3,14.1 7.8,13.5 10.9,16.3 17.1,6.8 			"/>
		</g>
	</g>
</g>
</svg>
