<?xml version="1.0" encoding="UTF-8"?>
<svg width="25px" height="25px" viewBox="0 0 25 25" version="1.1" xmlns="http://www.w3.org/2000/svg" xmlns:xlink="http://www.w3.org/1999/xlink">
    <!-- Generator: Sketch 42 (36781) - http://www.bohemiancoding.com/sketch -->
    <title>icon__newsletter--black</title>
    <desc>Created with Sketch.</desc>
    <defs></defs>
    <g id="Artwork" stroke="none" stroke-width="1" fill="none" fill-rule="evenodd">
        <g id="ICONOGRAPHY" transform="translate(-187.000000, -5171.000000)" fill="#000000">
            <g id="icon__newsletter--black" transform="translate(187.000000, 5171.000000)">
                <g id="Group-23">
                    <path d="M24.5017539,0 C24.7296196,0 24.8761025,0.089517334 24.941207,0.268554688 C25.0063115,0.447592041 24.9737597,0.691730225 24.8435507,1.00097656 L14.8581992,24.2919922 C14.7768186,24.5198579 14.6669564,24.6866857 14.5286093,24.7924805 C14.3902623,24.8982753 14.2478483,24.9511719 14.1013632,24.9511719 C13.9711543,24.9511719 13.8409472,24.9064132 13.7107382,24.8168945 C13.5805293,24.7273759 13.4584602,24.5930999 13.3445273,24.4140625 L9.38944918,17.9443359 C9.16158346,17.553709 8.82385897,17.1346051 8.37626558,16.6870117 C7.9286722,16.2394183 7.50956832,15.8935559 7.11894137,15.6494141 L0.527144491,11.5478516 C0.152793661,11.3037097 -0.0221720373,11.0310887 0.0022421473,10.7299805 C0.0266563319,10.4288722 0.242311727,10.188803 0.649214804,10.0097656 L23.9646445,0.122070312 C24.0623012,0.0895180664 24.1558875,0.0610352783 24.2454062,0.0366210938 C24.3349249,0.0122069092 24.4203733,0 24.5017539,0 Z M7.94901949,14.2578125 C8.11178072,14.3554692 8.27860848,14.4734694 8.44950777,14.6118164 C8.62040706,14.7501635 8.79537276,14.9007153 8.97441012,15.0634766 L20.5222617,3.3203125 L2.6023398,10.9375 L7.94901949,14.2578125 Z M13.9792929,22.3388672 L21.6453086,4.39453125 L10.0730429,16.1621094 C10.219528,16.3248706 10.353804,16.4876294 10.475875,16.6503906 C10.5979459,16.8131519 10.6996701,16.9759106 10.7810507,17.1386719 L13.9792929,22.3388672 Z" id="Paper-plane---simple-line-icons"></path>
                </g>
            </g>
        </g>
    </g>
</svg>