<?xml version="1.0" encoding="utf-8"?>
<!-- Generator: Adobe Illustrator 21.0.2, SVG Export Plug-In . SVG Version: 6.00 Build 0)  -->
<svg version="1.1" id="Layer_1" xmlns="http://www.w3.org/2000/svg" xmlns:xlink="http://www.w3.org/1999/xlink" x="0px" y="0px"
	 width="24px" height="23px" viewBox="0 0 24 23" style="enable-background:new 0 0 24 23;" xml:space="preserve">
<style type="text/css">
	.st0{clip-path:url(#SVGID_2_);}
	.st1{clip-path:url(#SVGID_4_);}
</style>
<title>icon146 - themify</title>
<desc>Created with Sketch.</desc>
<g>
	<defs>
		<rect id="SVGID_1_" x="-779" y="-2188" width="1580" height="4399"/>
	</defs>
	<clipPath id="SVGID_2_">
		<use xlink:href="#SVGID_1_"  style="overflow:visible;"/>
	</clipPath>
	<g class="st0">
		<text transform="matrix(1 0 0 1 -613 825)" style="font-family:'MyriadPro-Regular'; font-size:25px;">!</text>
	</g>
</g>
<g>
	<defs>
		<rect id="SVGID_3_" x="-779" y="-2188" width="1580" height="4399"/>
	</defs>
	<clipPath id="SVGID_4_">
		<use xlink:href="#SVGID_3_"  style="overflow:visible;"/>
	</clipPath>
	<g class="st1">
		<text transform="matrix(1 0 0 1 -613 825)" style="font-family:'MyriadPro-Regular'; font-size:25px;">!</text>
	</g>
</g>
<g>
	<g>
		<path d="M22.5,4.5l1.5,0v16.4l-8.2,2.3L8,21l-8,0V4.5l9,0v0.1l1.5,0.3c0-0.7,0.2-1.3,0.5-1.9s0.7-1.1,1.1-1.5s1-0.8,1.6-1
			S15,0,15.7,0c0.7,0,1.4,0.1,2,0.3c0.6,0.3,1.2,0.6,1.6,1s0.8,0.9,1.1,1.5s0.5,1.2,0.5,1.8L22.5,4.5L22.5,4.5L22.5,4.5z M1.5,6
			v13.4l6,0V6L1.5,6z M9,6v13.7l6,1.6v-6.8c-0.2-0.3-0.5-0.7-0.9-1.2c-0.4-0.5-0.9-1.2-1.3-1.9c-0.5-0.7-0.9-1.5-1.3-2.4
			s-0.7-1.7-0.8-2.6L9,6L9,6z M15.7,1.4c-0.5,0-1,0.1-1.4,0.3c-0.5,0.2-0.9,0.5-1.2,0.8s-0.6,0.8-0.8,1.2S12,4.7,12,5.3
			c0,0.6,0.1,1.3,0.4,2.1c0.3,0.8,0.6,1.5,1,2.2s0.8,1.4,1.2,2c0.4,0.6,0.8,1.1,1.1,1.4c0.3-0.3,0.7-0.8,1.1-1.4
			c0.4-0.6,0.8-1.3,1.2-2s0.7-1.4,1-2.2c0.3-0.8,0.4-1.5,0.4-2.1c0-0.6-0.1-1.1-0.3-1.5S18.7,3,18.4,2.6S17.7,2,17.2,1.8
			S16.3,1.5,15.7,1.4z M16.5,21.5l6-1.8V6.1l-1.6,0.3c-0.1,0.9-0.4,1.7-0.8,2.6c-0.4,0.8-0.8,1.7-1.3,2.4c-0.4,0.8-0.9,1.4-1.3,2
			c-0.4,0.5-0.7,1-0.9,1.2V21.5L16.5,21.5z"/>
	</g>
	<path d="M15.7,6.9c-0.8,0-1.5-0.7-1.5-1.5s0.7-1.5,1.5-1.5s1.5,0.7,1.5,1.5S16.6,6.9,15.7,6.9z M15.7,4.8c-0.3,0-0.6,0.3-0.6,0.6
		c0,0.3,0.3,0.6,0.6,0.6s0.6-0.3,0.6-0.6C16.3,5.1,16.1,4.8,15.7,4.8z"/>
</g>
</svg>
