<?xml version="1.0" encoding="utf-8"?>
<!-- Generator: Adobe Illustrator 21.0.0, SVG Export Plug-In . SVG Version: 6.00 Build 0)  -->
<svg version="1.1" id="Layer_1" xmlns="http://www.w3.org/2000/svg" xmlns:xlink="http://www.w3.org/1999/xlink" x="0px" y="0px"
	 width="29.92188px" height="25.89844px" viewBox="0 0 29.92188 25.89844" style="enable-background:new 0 0 29.92188 25.89844;"
	 xml:space="preserve">
<style type="text/css">
	.st0{clip-path:url(#SVGID_2_);}
</style>
<title>“ copy</title>
<desc>Created with Sketch.</desc>
<g>
	<defs>
		<path id="SVGID_1_" d="M7.10938,25.89844c0.88542,0,1.69922-0.14974,2.44141-0.44922
			c0.74219-0.29948,1.38672-0.70964,1.9336-1.23047c0.54687-0.52083,0.97005-1.15234,1.26953-1.89453
			c0.29948-0.74219,0.44921-1.55599,0.44921-2.44141c0-0.96354-0.18229-1.83594-0.54687-2.61719s-0.85286-1.43229-1.46484-1.95312
			c-0.61198-0.52083-1.32813-0.92448-2.14844-1.21094s-1.67318-0.42968-2.55859-0.42968c-0.46875,0-0.87891,0.04557-1.23047,0.13671
			c-0.35156,0.09115-0.63802,0.16928-0.85938,0.23438c-0.22132,0.0651-0.38409,0.07812-0.48828,0.03906
			C3.80208,14.04297,3.75,13.88021,3.75,13.59375c0-0.72884,0.25391-1.63378,0.76172-2.71484
			c0.50781-1.08073,1.13932-2.1875,1.89453-3.32032c0.75521-1.13281,1.58854-2.23307,2.5-3.30078
			c0.91146-1.06771,1.78385-1.95312,2.61719-2.65625L10.07812,0c-1.48437,1.32812-2.83854,2.70182-4.0625,4.12109
			C4.79167,5.54037,3.73047,7.01172,2.83203,8.53516c-0.89844,1.52343-1.59505,3.10546-2.08984,4.74609
			C0.2474,14.92187,0,16.60156,0,18.32031c0,1.09375,0.16927,2.10286,0.50781,3.02734S1.32812,23.07292,1.95312,23.75
			s1.3737,1.20443,2.24609,1.58203C5.07161,25.70964,6.04166,25.89844,7.10938,25.89844z M23.82812,25.89844
			c0.88542,0,1.69922-0.14974,2.44141-0.44922c0.74219-0.29948,1.38672-0.70964,1.93359-1.23047
			c0.54688-0.52083,0.97006-1.15234,1.26954-1.89453s0.44922-1.55599,0.44922-2.44141c0-0.96354-0.1823-1.83594-0.54688-2.61719
			s-0.85286-1.43229-1.46484-1.95312s-1.32813-0.92448-2.14844-1.21094c-0.82031-0.28646-1.67318-0.42968-2.5586-0.42968
			c-0.46874,0-0.8789,0.04557-1.23046,0.13671c-0.35157,0.09115-0.63802,0.16928-0.85938,0.23438
			c-0.22098,0.0651-0.38374,0.07812-0.48828,0.03906c-0.10417-0.03906-0.15625-0.20182-0.15625-0.48828
			c0-0.72884,0.25391-1.63378,0.76172-2.71484c0.50781-1.08073,1.13932-2.1875,1.89453-3.32032
			c0.7551-1.13281,1.58844-2.23307,2.5-3.30078c0.91134-1.06771,1.78374-1.95312,2.61719-2.65625L26.79688,0
			c-1.48438,1.32812-2.83855,2.70182-4.0625,4.12109c-1.22396,1.41928-2.28516,2.89063-3.1836,4.41407
			c-0.89844,1.52343-1.59505,3.10546-2.08984,4.74609c-0.49479,1.64062-0.74219,3.32031-0.74219,5.03906
			c0,1.09375,0.16927,2.10286,0.50781,3.02734c0.33854,0.92448,0.82032,1.72526,1.44532,2.40234s1.37369,1.20443,2.24609,1.58203
			C21.79032,25.70964,22.76037,25.89844,23.82812,25.89844z"/>
	</defs>
	<clipPath id="SVGID_2_">
		<use xlink:href="#SVGID_1_"  style="overflow:visible;"/>
	</clipPath>
	<rect x="-5" y="-5" class="st0" width="39.92188" height="35.89844"/>
</g>
</svg>
