<?xml version="1.0" encoding="UTF-8" standalone="no"?>
<svg width="144px" height="144px" viewBox="0 0 144 144" version="1.1" xmlns="http://www.w3.org/2000/svg" xmlns:xlink="http://www.w3.org/1999/xlink">
    <!-- Generator: Sketch 41.2 (35397) - http://www.bohemiancoding.com/sketch -->
    <title>icon__callout--info--inner-white</title>
    <desc>Created with Sketch.</desc>
    <defs></defs>
    <g id="Symbols" stroke="none" stroke-width="1" fill="none" fill-rule="evenodd">
        <g id="icon__callout--info--inner-white">
            <circle id="Oval-3-Copy-5" fill="#B1CEDE" cx="72" cy="72" r="72"></circle>
            <path d="M77.2924805,51.5107422 C78.5652441,51.5107422 79.7818776,51.2580566 80.9423828,50.7526855 C82.102864,50.2473145 83.104248,49.5641299 83.9465332,48.703125 C84.7888184,47.8421201 85.4626465,46.8407412 85.9680176,45.6989746 C86.4733887,44.557208 86.7260742,43.3499326 86.7260742,42.0771484 C86.7260742,40.8043643 86.4733887,39.6064453 85.9680176,38.4833984 C85.4626465,37.3603516 84.7888184,36.3683291 83.9465332,35.5073242 C83.104248,34.6463193 82.102864,33.9631348 80.9423828,33.4577637 C79.7819016,32.9523926 78.5652664,32.699707 77.2924805,32.699707 C75.982298,32.699707 74.7563045,32.9523926 73.614502,33.4577637 C72.4727371,33.9631348 71.4807129,34.6463193 70.6384277,35.5073242 C69.7961426,36.3683291 69.1223145,37.3603516 68.6169434,38.4833984 C68.1115723,39.6064453 67.8588867,40.8043643 67.8588867,42.0771484 C67.8588867,43.3499326 68.1115723,44.557208 68.6169434,45.6989746 C69.1223145,46.8402751 69.8055007,47.8416609 70.6665039,48.703125 C71.5275071,49.5641299 72.5288894,50.2473145 73.6706543,50.7526855 C74.8124192,51.2580566 76.0196946,51.5107422 77.2924805,51.5107422 Z M65.8374023,108.673828 C68.233236,108.673828 70.4606126,108.280762 72.5195312,107.494629 C74.5784499,106.708496 76.4595535,105.632243 78.1628418,104.265869 C79.8661301,102.899495 81.4103196,101.289795 82.7954102,99.4367676 C84.1805024,97.5837402 85.415854,95.5716149 86.5014648,93.4003906 L84.6484375,92.1088867 C82.4772141,95.9272461 80.5586746,98.6131996 78.8928223,100.166748 C77.22697,101.720296 75.8512376,102.49707 74.765625,102.49707 C73.8297532,102.49707 73.1933594,102.235027 72.8564453,101.710938 C72.5195312,101.186848 72.3510742,100.400716 72.3510742,99.3525391 C72.3510742,98.8658851 72.4165847,98.2950035 72.5476074,97.6398926 C72.6786301,96.9847816 72.8377273,96.3109535 73.0249023,95.6184082 C73.2120774,94.9258629 73.4086106,94.2426758 73.614502,93.5688477 C73.8203933,92.8950195 74.0169265,92.2960618 74.2041016,91.7719727 L80.5493164,71.4448242 C81.1108398,69.6105132 81.5787766,67.9727388 81.953125,66.5314941 C82.3274734,65.0902495 82.6082351,63.7987456 82.7954102,62.6569824 C82.9825852,61.5152192 83.1136062,60.467041 83.1884766,59.5124512 C83.2633469,58.5578613 83.3007812,57.6313477 83.3007812,56.7329102 L57.3022461,58.1928711 L56.7407227,60.3828125 L60.6152344,60.3828125 C62.3746708,60.3828125 63.6568157,60.5699858 64.4616699,60.9443359 C65.2665199,61.318686 65.6689453,62.0486665 65.6689453,63.1342773 C65.6689453,63.6209321 65.5940758,64.1730957 65.4443359,64.7907715 C65.2945961,65.4084473 65.1074219,66.1290679 64.8828125,66.9526367 L56.965332,93.1757812 C56.628418,94.2239458 56.2915039,95.4405802 55.9545898,96.8256836 C55.6176758,98.210775 55.4866539,99.7456055 55.5615234,101.430176 C55.5615234,102.104004 55.7206215,102.862061 56.0388184,103.704346 C56.3570153,104.546631 56.8998207,105.332764 57.6672363,106.062744 C58.434652,106.792725 59.4828293,107.4104 60.8117676,107.915771 C62.1407058,108.421143 63.815918,108.673828 65.8374023,108.673828 Z" id="i-copy-5" fill="#FFFFFF"></path>
        </g>
    </g>
</svg>