<?xml version="1.0" encoding="UTF-8" standalone="no"?>
<svg width="144px" height="144px" viewBox="0 0 144 144" version="1.1" xmlns="http://www.w3.org/2000/svg" xmlns:xlink="http://www.w3.org/1999/xlink">
    <!-- Generator: Sketch 41.2 (35397) - http://www.bohemiancoding.com/sketch -->
    <title>icon__callout--error--inner-white</title>
    <desc>Created with Sketch.</desc>
    <defs></defs>
    <g id="Symbols" stroke="none" stroke-width="1" fill="none" fill-rule="evenodd">
        <g id="icon__callout--error--inner-white">
            <polygon id="Polygon-2-Copy-2" fill="#EB4D57" points="144 42.1766235 144 101.823376 101.823376 144 42.1766235 144 6.15268732e-14 101.823376 0 42.1766235 42.1766235 0 101.823376 0"></polygon>
            <path d="M71.1054688,86.1523438 L72.8242188,86.1523438 C72.8242188,84.6126308 73.065918,82.6342773 73.5493164,80.2172852 C74.0327148,77.800293 74.6324864,75.1953125 75.3486328,72.4023438 C76.0647792,69.609375 76.8525391,66.7447928 77.7119141,63.8085938 C78.5712891,60.8723947 79.3769531,58.1152344 80.1289062,55.5371094 C80.6302089,53.4960938 81.0598964,51.5625 81.4179688,49.7363281 C81.7760411,47.9101562 81.9550781,46.3704449 81.9550781,45.1171875 C81.9550781,43.2910156 81.7223302,41.652832 81.2568359,40.2026367 C80.7913417,38.7524414 80.1289062,37.5170898 79.2695312,36.496582 C78.4101562,35.4760742 77.3717442,34.6972656 76.1542969,34.1601562 C74.9368495,33.6230469 73.5761719,33.3544922 72.0722656,33.3544922 C70.4967451,33.3544922 69.0823565,33.6409527 67.8291016,34.2138672 C66.5758466,34.7867817 65.5016279,35.5924457 64.6064453,36.6308594 C63.7112636,37.669273 63.0309239,38.9135742 62.5654297,40.3637695 C62.0999354,41.8139648 61.8671875,43.3984375 61.8671875,45.1171875 C61.8671875,46.3704449 62.07308,47.9101562 62.4848633,49.7363281 C62.8966466,51.5625 63.3889963,53.4960938 63.9619141,55.5371094 C64.7138672,58.1152344 65.5016271,60.8723947 66.3251953,63.8085938 C67.1487537,66.7447928 67.9186102,69.609375 68.6347656,72.4023438 C69.3509112,75.1953125 69.9417315,77.800293 70.4072266,80.2172852 C70.8727216,82.6342773 71.1054688,84.6126308 71.1054688,86.1523438 Z M72.1796875,111.074219 C73.289713,111.074219 74.3549805,110.850423 75.3754883,110.402832 C76.3959961,109.955241 77.309082,109.337565 78.1147461,108.549805 C78.9204102,107.762044 79.5649414,106.848959 80.0483398,105.810547 C80.5317383,104.772135 80.7734375,103.680014 80.7734375,102.53418 C80.7734375,101.424153 80.5317383,100.340983 80.0483398,99.284668 C79.5649414,98.2283526 78.9204102,97.2973633 78.1147461,96.4916992 C77.309082,95.6860352 76.3959961,95.0415039 75.3754883,94.5581055 C74.3549805,94.074707 73.289713,93.8330078 72.1796875,93.8330078 C71.0338544,93.8330078 69.9417315,94.074707 68.9033203,94.5581055 C67.8649091,95.0415039 66.9428711,95.6860352 66.137207,96.4916992 C65.331543,97.2973633 64.6870117,98.2283526 64.2036133,99.284668 C63.7202148,100.340974 63.4785156,101.424145 63.4785156,102.53418 C63.4785156,103.68001 63.7202148,104.772133 64.2036133,105.810547 C64.6870117,106.848957 65.331543,107.762043 66.137207,108.549805 C66.9428711,109.337565 67.8649091,109.955241 68.9033203,110.402832 C69.94172,110.850423 71.0338421,111.074219 72.1796875,111.074219 Z" id="!-copy-3" fill="#FFFFFF"></path>
        </g>
    </g>
</svg>