<?xml version="1.0" encoding="utf-8"?>
<!-- Generator: Adobe Illustrator 21.0.2, SVG Export Plug-In . SVG Version: 6.00 Build 0)  -->
<svg version="1.1" id="Layer_1" xmlns="http://www.w3.org/2000/svg" xmlns:xlink="http://www.w3.org/1999/xlink" x="0px" y="0px"
	 width="44px" height="44px" viewBox="0 0 44 44" style="enable-background:new 0 0 44 44;" xml:space="preserve">
<style type="text/css">
	.st0{fill:none;}
	.st1{fill:#333333;}
</style>
<g>
	<path class="st0" d="M-98.8-495.8v663.3H76.3v-663.3H-98.8z M43.7,25.4l-2.3,1.2l1.5,2.1l-2.4,0.9l1.1,2.3l-2.5,0.5l0.7,2.5
		L37.2,35l0.3,2.6L35,37.2l-0.1,2.6l-2.5-0.7L32,41.6l-2.3-1.1l-0.9,2.4l-2.1-1.5l-1.2,2.3L23.6,42L22,44l-1.6-2l-1.9,1.8l-1.2-2.3
		l-2.1,1.5l-0.9-2.4L12,41.6l-0.5-2.5l-2.5,0.7L9,37.2l-2.6,0.3L6.8,35l-2.6-0.1l0.7-2.5L2.4,32l1.1-2.3l-2.4-0.9l1.5-2.1l-2.3-1.2
		L2,23.6L0,22l2-1.6l-1.8-1.9l2.3-1.2l-1.5-2.1l2.4-0.9L2.4,12l2.5-0.5L4.2,9.1L6.8,9L6.4,6.4L9,6.8l0.1-2.6l2.5,0.7L12,2.4l2.3,1.1
		l0.9-2.4l2.1,1.5l1.2-2.3L20.4,2L22,0l1.6,2l1.9-1.8l1.2,2.3l2.1-1.5l0.9,2.4L32,2.4l0.5,2.5l2.5-0.7L35,6.8l2.6-0.3L37.2,9
		l2.6,0.1l-0.7,2.5l2.5,0.5l-1.1,2.3l2.4,0.9l-1.5,2.1l2.3,1.2L42,20.4l2,1.6l-2,1.6L43.7,25.4z"/>
	<g>
		<path class="st1" d="M42,23.6l2-1.6l-2-1.6l1.8-1.9l-2.3-1.2l1.5-2.1l-2.4-0.9l1.1-2.3l-2.5-0.5l0.7-2.5L37.2,9l0.3-2.5L35,6.8
			l-0.1-2.6l-2.5,0.7L32,2.4l-2.3,1.1l-0.9-2.4l-2.1,1.5l-1.2-2.3L23.6,2L22,0l-1.6,2l-1.9-1.8l-1.2,2.3l-2.1-1.5l-0.9,2.4L12,2.4
			l-0.5,2.5L9.1,4.2L9,6.8L6.4,6.4L6.8,9L4.2,9.1l0.7,2.5L2.4,12l1.1,2.3l-2.4,0.9l1.5,2.1l-2.3,1.2L2,20.4L0,22l2,1.6l-1.8,1.9
			l2.3,1.2l-1.5,2.1l2.4,0.9L2.4,32l2.5,0.5l-0.7,2.5L6.8,35l-0.3,2.6L9,37.2l0.1,2.6l2.5-0.7l0.5,2.5l2.3-1.1l0.9,2.4l2.1-1.5
			l1.2,2.3l1.9-1.8l1.6,2l1.6-2l1.9,1.8l1.2-2.3l2.1,1.5l0.9-2.4l2.3,1.1l0.5-2.5l2.5,0.7l0.1-2.6l2.6,0.3L37.2,35l2.6-0.1l-0.7-2.5
			l2.5-0.5l-1.1-2.3l2.4-0.9l-1.5-2.1l2.3-1.2L42,23.6z M9.9,16.4c-0.2-0.1-0.5-0.2-0.8-0.2l0.1-0.3h4l3.2,7.6
			c0-0.1,0.1-0.3,0.1-0.5c0.1-0.2,0.1-0.5,0.2-0.7c0.1-0.3,0.1-0.5,0.2-0.8l0.2-0.9c0.2-0.7,0.3-1.4,0.5-2.1
			c0.1-0.5,0.2-0.8,0.2-1.1c0-0.3,0-0.5-0.1-0.7c-0.1-0.2-0.2-0.3-0.4-0.3c-0.2-0.1-0.4-0.1-0.6-0.1h-0.1l0.1-0.3h3.7l-0.1,0.3h-0.1
			c-0.3,0-0.6,0-0.8,0.1c-0.2,0.1-0.4,0.2-0.6,0.4s-0.3,0.4-0.4,0.7c-0.1,0.3-0.2,0.6-0.3,1l-2.2,9h-0.8l-4.2-9.8l-1.8,7.1
			c-0.1,0.4-0.2,0.7-0.2,1s0,0.5,0.1,0.7c0.1,0.2,0.2,0.3,0.4,0.4c0.2,0.1,0.4,0.1,0.7,0.1h0.1L10,27.2H6.4l0.1-0.3h0.2
			c0.3,0,0.5,0,0.7-0.1c0.2-0.1,0.4-0.2,0.5-0.4C8,26.2,8.1,26,8.3,25.7c0.1-0.3,0.2-0.6,0.3-1l1.9-7.7
			C10.3,16.8,10.1,16.6,9.9,16.4z M21.1,25.4c0,0.2,0.1,0.4,0.2,0.6c0.1,0.2,0.2,0.3,0.3,0.4c0.1,0.1,0.3,0.2,0.6,0.2
			c0.2,0,0.3,0,0.5-0.1c0.2-0.1,0.4-0.1,0.6-0.3c0.2-0.1,0.4-0.3,0.6-0.5c0.2-0.2,0.4-0.5,0.6-0.8l0.3,0.2c-0.2,0.3-0.5,0.6-0.7,0.9
			c-0.3,0.3-0.5,0.5-0.8,0.7c-0.3,0.2-0.6,0.3-1,0.4c-0.3,0.1-0.7,0.2-1.1,0.2c-0.4,0-0.7-0.1-1.1-0.2s-0.6-0.3-0.9-0.5
			c-0.2-0.2-0.4-0.5-0.6-0.9c-0.1-0.3-0.2-0.7-0.2-1.2c0-0.4,0.1-0.9,0.2-1.3c0.1-0.4,0.3-0.8,0.5-1.1c0.2-0.4,0.5-0.7,0.8-1
			s0.7-0.5,1-0.8s0.8-0.4,1.2-0.5c0.4-0.1,0.9-0.2,1.4-0.2c0.3,0,0.6,0,0.8,0.1s0.4,0.2,0.6,0.3c0.2,0.1,0.3,0.3,0.4,0.5
			c0.1,0.2,0.1,0.4,0.1,0.6c0,0.3-0.1,0.6-0.2,0.9c-0.1,0.2-0.3,0.5-0.6,0.7c-0.2,0.2-0.5,0.3-0.8,0.5c-0.3,0.1-0.6,0.3-1,0.3
			c-0.3,0.1-0.7,0.2-1,0.2c-0.3,0.1-0.6,0.1-0.9,0.2c0,0,0,0.1,0,0.1s0,0.1,0,0.2c0,0.1,0,0.1,0,0.2s0,0.1,0,0.1
			C21.1,24.9,21.1,25.1,21.1,25.4z M37.3,22.7c-0.1,0.5-0.2,0.9-0.4,1.4s-0.4,0.9-0.6,1.2c-0.2,0.4-0.5,0.7-0.8,1
			c-0.3,0.3-0.7,0.5-1,0.7c-0.4,0.2-0.8,0.3-1.2,0.3c-1.4,0-2.2-0.7-2.2-2h0c-0.2,0.3-0.3,0.6-0.5,0.9c-0.2,0.2-0.4,0.5-0.6,0.6
			s-0.4,0.3-0.7,0.4c-0.3,0.1-0.6,0.1-0.9,0.1c-0.3,0-0.6,0-0.8-0.1c-0.3-0.1-0.5-0.2-0.6-0.3c-0.2-0.1-0.3-0.3-0.4-0.6
			s-0.2-0.5-0.2-0.8c0-0.3,0-0.6,0.1-1s0.2-0.8,0.3-1.2l0.6-1.9c0.1-0.2,0.1-0.4,0.1-0.6c0-0.2-0.1-0.3-0.2-0.3
			c-0.1-0.1-0.3-0.1-0.5-0.1h-0.6l0.1-0.3l3.8-0.1c0,0.1,0,0.3,0,0.4c0,0.2-0.1,0.3-0.1,0.5c0,0.2-0.1,0.4-0.1,0.6
			c-0.1,0.2-0.1,0.4-0.2,0.6l-0.3,1.1c-0.1,0.2-0.1,0.4-0.2,0.6s-0.1,0.4-0.2,0.7c0,0.2-0.1,0.4-0.1,0.6c0,0.2,0,0.4,0,0.5
			c0,0.3,0.1,0.6,0.2,0.7c0.1,0.2,0.3,0.2,0.5,0.2c0.2,0,0.3-0.1,0.5-0.2c0.2-0.1,0.3-0.3,0.4-0.5c0.1-0.2,0.3-0.4,0.4-0.7
			s0.2-0.5,0.3-0.8l1.2-4.4h2.4l-0.8,3.1c-0.1,0.5-0.2,0.9-0.3,1.3c-0.1,0.4-0.1,0.7-0.1,1c0,0.4,0.1,0.6,0.2,0.8s0.4,0.3,0.6,0.3
			c0.2,0,0.4-0.1,0.6-0.2c0.2-0.1,0.4-0.3,0.6-0.5s0.4-0.5,0.5-0.8s0.3-0.6,0.4-0.9s0.2-0.6,0.3-0.9c0.1-0.3,0.1-0.6,0.1-0.8
			c0-0.2,0-0.3-0.1-0.4c-0.1-0.1-0.1-0.2-0.2-0.3c-0.1-0.1-0.2-0.2-0.2-0.2c-0.1-0.1-0.2-0.1-0.2-0.2c-0.1-0.1-0.2-0.3-0.3-0.4
			c-0.1-0.1-0.1-0.3-0.1-0.5c0-0.2,0.1-0.4,0.2-0.5s0.3-0.2,0.5-0.2c0.2,0,0.3,0,0.4,0.1c0.1,0.1,0.2,0.2,0.3,0.3s0.2,0.3,0.2,0.5
			c0,0.2,0.1,0.4,0.1,0.6C37.4,21.8,37.4,22.3,37.3,22.7z"/>
		<path class="st1" d="M23,22.7c0.2-0.2,0.3-0.5,0.4-0.8c0.1-0.3,0.2-0.6,0.2-0.9c0-0.3,0-0.5-0.1-0.7c-0.1-0.1-0.2-0.2-0.4-0.2
			c-0.2,0-0.4,0.1-0.6,0.3s-0.4,0.4-0.6,0.7c-0.2,0.3-0.3,0.7-0.5,1.1c-0.1,0.4-0.2,0.9-0.3,1.4c0.4-0.1,0.8-0.2,1.1-0.4
			C22.6,23.2,22.8,23,23,22.7z"/>
	</g>
</g>
</svg>
