<?xml version="1.0" encoding="UTF-8" standalone="no"?>
<svg width="144px" height="147px" viewBox="0 0 144 147" version="1.1" xmlns="http://www.w3.org/2000/svg" xmlns:xlink="http://www.w3.org/1999/xlink">
    <!-- Generator: Sketch 41.2 (35397) - http://www.bohemiancoding.com/sketch -->
    <title>icon__callout--warning--inner-white</title>
    <desc>Created with Sketch.</desc>
    <defs></defs>
    <g id="Symbols" stroke="none" stroke-width="1" fill="none" fill-rule="evenodd">
        <g id="icon__callout--warning--inner-white">
            <path d="M69.7662306,4.46753883 C70.9999074,2.00018527 73.0040702,2.00814042 74.2337694,4.46753883 L141.766231,139.532461 C142.999907,141.999815 141.767003,144 139.001376,144 L4.99862383,144 C2.23796012,144 1.00407021,141.99186 2.23376942,139.532461 L69.7662306,4.46753883 Z" id="Triangle-Copy" fill="#FFE4B4"></path>
            <path d="M71.6289062,101.019531 L73.2851562,101.019531 C73.2851562,99.5358078 73.5180664,97.6293945 73.9838867,95.300293 C74.449707,92.9711914 75.0276687,90.4609375 75.7177734,87.7695312 C76.4078781,85.078125 77.1669922,82.3177094 77.9951172,79.4882812 C78.8232422,76.6588531 79.5996094,74.0019531 80.3242188,71.5175781 C80.8072922,69.5507812 81.2213547,67.6875 81.5664062,65.9277344 C81.9114578,64.1679688 82.0839844,62.6842469 82.0839844,61.4765625 C82.0839844,59.7167969 81.8597,58.1381836 81.4111328,56.7407227 C80.9625656,55.3432617 80.3242188,54.152832 79.4960938,53.1694336 C78.6679688,52.1860352 77.6673172,51.4355469 76.4941406,50.9179688 C75.3209641,50.4003906 74.0097656,50.1416016 72.5605469,50.1416016 C71.042318,50.1416016 69.6793617,50.4176453 68.4716797,50.9697266 C67.2639977,51.5218078 66.2288414,52.298175 65.3662109,53.2988281 C64.5035813,54.2994813 63.8479812,55.4985352 63.3994141,56.8959961 C62.9508469,58.293457 62.7265625,59.8203125 62.7265625,61.4765625 C62.7265625,62.6842469 62.924968,64.1679688 63.3217773,65.9277344 C63.7185867,67.6875 64.1930328,69.5507812 64.7451172,71.5175781 C65.4697266,74.0019531 66.2288406,76.6588531 67.0224609,79.4882812 C67.8160718,82.3177094 68.5579335,85.078125 69.2480469,87.7695312 C69.9381508,90.4609375 70.5074867,92.9711914 70.9560547,95.300293 C71.4046227,97.6293945 71.6289062,99.5358078 71.6289062,101.019531 Z M72.6640625,125.035156 C73.7337234,125.035156 74.7602539,124.819498 75.7436523,124.388184 C76.7270508,123.956869 77.6069336,123.361654 78.3833008,122.602539 C79.159668,121.843424 79.7807617,120.963542 80.246582,119.962891 C80.7124023,118.962239 80.9453125,117.909831 80.9453125,116.805664 C80.9453125,115.736002 80.7124023,114.69222 80.246582,113.674316 C79.7807617,112.656412 79.159668,111.759277 78.3833008,110.98291 C77.6069336,110.206543 76.7270508,109.585449 75.7436523,109.119629 C74.7602539,108.653809 73.7337234,108.420898 72.6640625,108.420898 C71.5598961,108.420898 70.5074867,108.653809 69.5068359,109.119629 C68.5061852,109.585449 67.6176758,110.206543 66.8413086,110.98291 C66.0649414,111.759277 65.4438477,112.656412 64.9780273,113.674316 C64.512207,114.692212 64.2792969,115.735994 64.2792969,116.805664 C64.2792969,117.909828 64.512207,118.962237 64.9780273,119.962891 C65.4438477,120.963541 66.0649414,121.843423 66.8413086,122.602539 C67.6176758,123.361654 68.5061852,123.956869 69.5068359,124.388184 C70.5074757,124.819498 71.5598843,125.035156 72.6640625,125.035156 Z" id="!-copy-5" fill="#FFFFFF"></path>
        </g>
    </g>
</svg>