<?xml version="1.0" encoding="UTF-8" standalone="no"?>
<svg width="37px" height="34px" viewBox="0 0 37 34" version="1.1" xmlns="http://www.w3.org/2000/svg" xmlns:xlink="http://www.w3.org/1999/xlink">
    <!-- Generator: Sketch 40 (33762) - http://www.bohemiancoding.com/sketch -->
    <title>icon192 - themify copy</title>
    <desc>Created with Sketch.</desc>
    <defs></defs>
    <g id="Artwork" stroke="none" stroke-width="1" fill="none" fill-rule="evenodd">
        <g id="INTERACTIONS" transform="translate(-1252.000000, -612.000000)" fill="#4D4D4D">
            <path d="M1289,612.648438 L1252,612.648438 L1252,621.392578 L1254.16797,621.392578 L1254.16797,645.3125 L1286.83203,645.3125 L1286.83203,621.392578 L1289,621.392578 L1289,612.648438 Z M1284.66406,643.144531 L1256.33594,643.144531 L1256.33594,621.392578 L1284.66406,621.392578 L1284.66406,643.144531 Z M1286.83203,619.224609 L1254.16797,619.224609 L1254.16797,614.816406 L1286.83203,614.816406 L1286.83203,619.224609 Z M1265.08008,632.232422 L1275.99219,632.232422 C1276.57032,632.232422 1277.12435,632.124025 1277.6543,631.907227 C1278.18425,631.690429 1278.65397,631.377281 1279.06348,630.967773 C1279.47298,630.558266 1279.78613,630.100588 1280.00293,629.594727 C1280.21973,629.088865 1280.32812,628.52279 1280.32812,627.896484 C1280.32812,627.318356 1280.21973,626.764326 1280.00293,626.234375 C1279.78613,625.704424 1279.47298,625.234703 1279.06348,624.825195 C1278.65397,624.415688 1278.18425,624.10254 1277.6543,623.885742 C1277.12435,623.668944 1276.57032,623.560547 1275.99219,623.560547 L1265.08008,623.560547 C1264.45377,623.560547 1263.87565,623.668944 1263.3457,623.885742 C1262.81575,624.10254 1262.35807,624.415688 1261.97266,624.825195 C1261.58724,625.234703 1261.27409,625.704424 1261.0332,626.234375 C1260.79232,626.764326 1260.67188,627.318356 1260.67188,627.896484 C1260.67188,628.52279 1260.79232,629.088865 1261.0332,629.594727 C1261.27409,630.100588 1261.58724,630.558266 1261.97266,630.967773 C1262.35807,631.377281 1262.81575,631.690429 1263.3457,631.907227 C1263.87565,632.124025 1264.45377,632.232422 1265.08008,632.232422 L1265.08008,632.232422 Z M1265.08008,625.728516 L1275.99219,625.728516 C1276.28125,625.728516 1276.55827,625.788736 1276.82324,625.90918 C1277.08822,626.029623 1277.31706,626.186197 1277.50977,626.378906 C1277.70247,626.571616 1277.85905,626.800454 1277.97949,627.06543 C1278.09994,627.330405 1278.16016,627.60742 1278.16016,627.896484 C1278.16016,628.185548 1278.09994,628.462564 1277.97949,628.727539 C1277.85905,628.992514 1277.70247,629.221353 1277.50977,629.414062 C1277.31706,629.606772 1277.08822,629.763346 1276.82324,629.883789 C1276.55827,630.004232 1276.28125,630.064453 1275.99219,630.064453 L1265.08008,630.064453 C1264.74284,630.064453 1264.45378,630.004232 1264.21289,629.883789 C1263.972,629.763346 1263.74317,629.606772 1263.52637,629.414062 C1263.30957,629.221353 1263.153,628.992514 1263.05664,628.727539 C1262.96029,628.462564 1262.91211,628.185548 1262.91211,627.896484 C1262.91211,627.60742 1262.96029,627.330405 1263.05664,627.06543 C1263.153,626.800454 1263.30957,626.571616 1263.52637,626.378906 C1263.74317,626.186197 1263.972,626.029623 1264.21289,625.90918 C1264.45378,625.788736 1264.74284,625.728516 1265.08008,625.728516 L1265.08008,625.728516 Z" id="icon192---themify-copy"></path>
        </g>
    </g>
</svg>