<?xml version="1.0" encoding="utf-8"?>
<!-- Generator: Adobe Illustrator 21.0.2, SVG Export Plug-In . SVG Version: 6.00 Build 0)  -->
<svg version="1.0" id="Layer_1" xmlns="http://www.w3.org/2000/svg" xmlns:xlink="http://www.w3.org/1999/xlink" x="0px" y="0px"
	 width="5.1px" height="6.8px" viewBox="0 0 5.1 6.8" style="enable-background:new 0 0 5.1 6.8;" xml:space="preserve">
<style type="text/css">
	.st0{clip-path:url(#SVGID_2_);}
	.st1{clip-path:url(#SVGID_4_);}
	.st2{fill:#FFFFFF;}
</style>
<g>
	<g>
		<defs>
			<path id="SVGID_1_" d="M0.6,5.9h4.1V2.2H2.8V0.4H0.6V5.9z M3.2,0.6v1.2h1.2L3.2,0.6z M3.1,0l2,2v4.3H0.3V0H3.1z"/>
		</defs>
		<clipPath id="SVGID_2_">
			<use xlink:href="#SVGID_1_"  style="overflow:visible;"/>
		</clipPath>
		<g class="st0">
			<defs>
				<rect id="SVGID_3_" x="-119.7" y="-1458.9" width="495.7" height="1878"/>
			</defs>
			<clipPath id="SVGID_4_">
				<use xlink:href="#SVGID_3_"  style="overflow:visible;"/>
			</clipPath>
			<rect x="-1.3" y="-1.6" class="st1" width="7.9" height="9.4"/>
		</g>
	</g>
	<g>
		<path class="st2" d="M0.4,6.4c0.1,0.1,0.1,0.1,0.2,0.1h2.7c0.1,0,0.2,0,0.2-0.1c0.1-0.1,0.1-0.1,0.1-0.2V4.4c0-0.1,0-0.2-0.1-0.2
			C3.4,4.2,3.4,4.1,3.3,4.1H0.6c-0.1,0-0.2,0-0.2,0.1C0.3,4.3,0.3,4.4,0.3,4.4v1.8C0.3,6.3,0.3,6.4,0.4,6.4z M1.7,4.8
			c0.1-0.1,0.1-0.1,0.2-0.1s0.2,0,0.2,0.1C2.2,4.9,2.2,4.9,2.2,5c0,0.1,0,0.1,0,0.2c0,0-0.1,0.1-0.1,0.1v0.5c0,0,0,0.1,0,0.1
			c0,0-0.1,0-0.1,0s-0.1,0-0.1,0c0,0,0-0.1,0-0.1V5.3c0,0-0.1-0.1-0.1-0.1s0-0.1,0-0.2C1.6,4.9,1.7,4.9,1.7,4.8z"/>
		<g>
			<path d="M1.8,5.3v0.5c0,0,0,0.1,0,0.1c0,0,0.1,0,0.1,0s0.1,0,0.1,0c0,0,0-0.1,0-0.1V5.3c0,0,0.1-0.1,0.1-0.1c0,0,0-0.1,0-0.2
				c0-0.1,0-0.2-0.1-0.2C2.1,4.8,2,4.7,1.9,4.7s-0.2,0-0.2,0.1S1.6,4.9,1.6,5c0,0.1,0,0.1,0,0.2S1.7,5.3,1.8,5.3z"/>
			<path d="M3.7,4C3.7,4,3.7,4,3.7,4C3.5,3.9,3.4,3.8,3.3,3.8H3.1V3.3c0-0.2,0-0.3-0.1-0.5S2.9,2.5,2.8,2.4C2.7,2.3,2.6,2.2,2.4,2.1
				C2.3,2.1,2.1,2,1.9,2c-0.2,0-0.3,0-0.5,0.1C1.3,2.2,1.2,2.3,1.1,2.4S0.9,2.6,0.8,2.8C0.8,2.9,0.7,3.1,0.7,3.3v0.6H0.6
				c-0.1,0-0.3,0-0.4,0.1c0,0,0,0-0.1,0.1C0.1,4.1,0,4.3,0,4.4v1.8c0,0.2,0.1,0.3,0.2,0.4c0,0,0,0,0,0c0.1,0.1,0.2,0.2,0.4,0.2h2.7
				c0.2,0,0.3-0.1,0.4-0.2c0,0,0,0,0,0c0.1-0.1,0.2-0.3,0.2-0.4V4.4C3.9,4.3,3.8,4.1,3.7,4z M1,3.3C1,3,1.1,2.8,1.3,2.6
				s0.4-0.3,0.6-0.3c0.3,0,0.5,0.1,0.7,0.3C2.8,2.8,2.8,3,2.8,3.3v0.6H1V3.3z M0.3,4.4c0-0.1,0-0.2,0.1-0.2c0.1-0.1,0.1-0.1,0.2-0.1
				h2.7c0.1,0,0.2,0,0.2,0.1c0.1,0.1,0.1,0.1,0.1,0.2v1.8c0,0.1,0,0.2-0.1,0.2C3.4,6.5,3.4,6.5,3.3,6.5H0.6c-0.1,0-0.2,0-0.2-0.1
				C0.3,6.4,0.3,6.3,0.3,6.2V4.4z"/>
		</g>
	</g>
</g>
</svg>
