<?xml version="1.0" encoding="utf-8"?>
<!-- Generator: Adobe Illustrator 21.0.0, SVG Export Plug-In . SVG Version: 6.00 Build 0)  -->
<svg version="1.1" id="Layer_1" xmlns="http://www.w3.org/2000/svg" xmlns:xlink="http://www.w3.org/1999/xlink" x="0px" y="0px"
	 width="8px" height="14px" viewBox="0 0 8 14" style="enable-background:new 0 0 8 14;" xml:space="preserve">
<style type="text/css">
	.st0{clip-path:url(#SVGID_2_);}
	.st1{clip-path:url(#SVGID_4_);fill:#FFFFFF;}
	.st2{fill:#FFFFFF;}
	.st3{clip-path:url(#SVGID_8_);}
	.st4{clip-path:url(#SVGID_10_);fill:#FFFFFF;}
</style>
<g>
	<g>
		<defs>
			<polygon id="SVGID_1_" points="7.8,7 0.8,13.9 0.2,13.3 6.5,7 0.2,0.7 0.8,0.1 			"/>
		</defs>
		<use xlink:href="#SVGID_1_"  style="overflow:visible;fill:#FFFFFF;"/>
		<clipPath id="SVGID_2_">
			<use xlink:href="#SVGID_1_"  style="overflow:visible;"/>
		</clipPath>
		<g class="st0">
			<g>
				<defs>
					<rect id="SVGID_3_" x="-796.9" y="-842.4" width="1580" height="2112"/>
				</defs>
				<use xlink:href="#SVGID_3_"  style="overflow:visible;fill:#FFFFFF;"/>
				<clipPath id="SVGID_4_">
					<use xlink:href="#SVGID_3_"  style="overflow:visible;"/>
				</clipPath>
				<rect x="-4.8" y="-4.9" class="st1" width="17.6" height="23.9"/>
			</g>
		</g>
		<g class="st0">
			<g>
				<polygon id="SVGID_5_" class="st2" points="7.8,7 0.8,13.9 0.2,13.3 6.5,7 0.2,0.7 0.8,0.1 				"/>
			</g>
			<g>
				<defs>
					<polygon id="SVGID_6_" points="7.8,7 0.8,13.9 0.2,13.3 6.5,7 0.2,0.7 0.8,0.1 					"/>
				</defs>
				<use xlink:href="#SVGID_6_"  style="overflow:visible;fill:#FFFFFF;"/>
				<clipPath id="SVGID_8_">
					<use xlink:href="#SVGID_6_"  style="overflow:visible;"/>
				</clipPath>
				<g class="st3">
					<g>
						<rect id="SVGID_7_" x="-796.9" y="-842.4" class="st2" width="1580" height="2112"/>
					</g>
					<g>
						<defs>
							<rect id="SVGID_9_" x="-796.9" y="-842.4" width="1580" height="2112"/>
						</defs>
						<use xlink:href="#SVGID_9_"  style="overflow:visible;fill:#FFFFFF;"/>
						<clipPath id="SVGID_10_">
							<use xlink:href="#SVGID_9_"  style="overflow:visible;"/>
						</clipPath>
						<rect x="-4.8" y="-4.9" class="st4" width="17.6" height="23.9"/>
					</g>
				</g>
			</g>
		</g>
	</g>
</g>
</svg>
