<?xml version="1.0" encoding="utf-8"?>
<!-- Generator: Adobe Illustrator 21.0.2, SVG Export Plug-In . SVG Version: 6.00 Build 0)  -->
<svg version="1.1" id="Layer_1" xmlns="http://www.w3.org/2000/svg" xmlns:xlink="http://www.w3.org/1999/xlink" x="0px" y="0px"
	 viewBox="0 0 724.2 246.4" style="enable-background:new 0 0 724.2 246.4;" xml:space="preserve">
<style type="text/css">
	.st0{fill:#E30513;}
</style>
<title>logo__icaew--medium</title>
<g>
	<path d="M199.2,150.6H199c-1.9-1.6-4.2-2.7-6.6-3.5c-3-0.8-6.1-1-9.2-0.5c-2.6,0.2-2.9,0-4.8,1c-4.6,2.5-9.2,5-12.1,6.5
		c-2.1,1.2-4.3,2.2-6.5,3c-2.4,0.8-23.2,6.9-37.9,11.1c-2.4,0.7-2.9,0.5-3.5-1.9c-1.7-7-3.7-15.5-4.8-20.2c-1.4-6.2-2.4-12.6-3-18.9
		c-1-8.4-2.8-16.2-4.7-20.2c-1.5-3-4.3-7.9-16.5-10.5c-4.5-1-15.8-4.8-19-15.4c-0.5-1.7-2.4-11.9,3.2-16.2
		c2.9-2.2,8.5-6.9,11.8-12.8c2.3-4.2,6.5-14.2,0-24C83.9,25.5,87,9.3,71.3,1.7C67.9,0.1,64-0.5,61.1,0.5c-1.7,0.6-2.6,1.3-4.2,1.1
		C52.6,1,48.1,1.9,44.3,4.2c-2.2,1.5-3.9,3.6-5,6c-0.7,1.3-1.2,1.5-2.9,2.3c-5.8,2.6-9.7,8.3-9.9,14.7c-0.3,5.4,2.8,10.9,2.9,14
		c0.1,4.6,1.9,9,4.9,12.4c0.5,0.4,1.2,0.4,1.7-0.1c0.2-0.3,0.4-0.6,0.3-1c-0.7-5.6,1.3-8.7,1.6-11.7c0.1-9.1,5-12.6,9.1-13.9
		c3.3-1,8.2-1.3,11.4,0.1s3.8,5.2,3.4,8.3c-0.1,1.5-0.8,2.9-2,3.9c-2,1.5-4.7,0.7-6.3,3.6c-2.3,4.2-0.5,18.7,0,21.8
		c0.5,3.5,0.1,5.6-0.8,6.8c-1.4,1.7-4.1,1.2-6.8,0.1c-0.3-0.1-0.6-0.1-0.9,0c-0.4,0.1-0.7,0.5-0.8,0.9c-0.3,2.2,0.7,7,2.7,11.5
		c3.8,8.7,10.5,14.6,12.4,17c4.9,6.2,7.8,15.7-4,18.5c-8.7,2.1-20.1-0.4-24.9-4c-2.8-2-5-4.7-6.4-7.8c-1.6-4.4-1.1-9.4,1.4-13.3
		c0.4-0.4,0.4-1.1,0.2-1.6c0-0.1-0.1-0.3-0.1-0.4c-0.3-0.4-0.8-0.6-1.3-0.5c-3,1-7.6,1.7-11.7,3.6c-4,1.8-7.4,5.3-8.9,11.3
		c-1.7,6.6-2.8,13.3-3.4,20v75.2c3.5-8.6,6.4-16.1,7-17.4c2.8-6.4,7.1-19.9,9.2-29.5c0.2-0.9,1.1-1.4,2-1.1c0.4,0.1,0.8,0.4,1,0.8
		c1.1,4.8,7.2,21.1,7.5,30.2c0.1,4.6-3.5,13-4.7,18.2c-0.1,0.2-0.1,0.4,0,0.6c0.1,0.3,0.3,0.5,0.5,0.6c0.3,0.1,0.6,0.1,0.8-0.1
		c1.5-1.4,2.9-3,4.4-4.4c1.9-1.7,3.8-3.4,5.8-4.9c2.6-2,5.3-3.9,8.1-5.6c3-1.8,6.1-3.2,9.2-4.8c3.9-1.9,7.8-3.9,11.6-5.9
		c6.1-3.2,11.8-6.9,17.2-11.2c0.8-0.5,1.8-0.3,2.3,0.4c0.4,0.5,0.4,1.3,0,1.8c-11.6,16-44.1,30.5-56.8,48.2
		c-6.2,8.5-10.4,18.2-12.2,28.6h91.2c-0.5-3.9-1.4-7.8-2.5-11.6c-2-7-5.1-15.1-7.7-22c-3.4-9.2-6.4-17.8-7-22.6
		c-1.2-10.7,1.8-21.1,5.3-29.9c0.8-2.1,2.8-1.9,3.5,0.4c1.6,5.5,5.5,19,7.4,24.8c1.5,4.7,3.8,6.9,5.6,7.2c1.3,0.1,2.6-0.2,3.8-0.9
		c15.8-6.9,52.6-23.7,54.7-24.6s5.3,0,9.1-0.5c6.9-0.7,10.3-4.5,16.5-4.2c1.4,0.1,3.9-0.9,4.2-2.5S200.6,155.1,199.2,150.6z"/>
	<g>
		<polygon points="650,130.3 665.9,76 666.2,76 682.1,130.3 701.3,130.3 724.2,50.1 704,50.1 691.1,103.4 690.7,103.4 676.3,50.1 
			656.2,50.1 641.9,103.4 641.5,103.4 628.8,50.1 608,50.1 630.8,130.3 		"/>
		<path d="M480.5,71.5l10,27.5h-20.2L480.5,71.5z M464.7,114.6h31l6.2,15.8h21.5l-33.3-80.2h-18.8l-33.7,80.2h21.1L464.7,114.6z"/>
		<polygon points="593.8,113.8 556.5,113.8 556.5,97.1 589.8,97.1 589.8,81.6 556.5,81.6 556.5,66.4 591.8,66.4 591.8,50.1 
			537.8,50.1 537.8,130.3 593.8,130.3 		"/>
		<rect x="316" y="50.1" width="19.5" height="80.2"/>
		<path d="M368.2,120.7c3.9,3.8,8.6,6.7,13.7,8.7c5.5,2.1,11.3,3.1,17.2,3.1c6.2,0.1,12.3-1.1,18-3.6c5-2.2,9.5-5.6,13.1-9.7
			l-13.5-12.7c-1.8,2.5-4.2,4.5-6.9,5.9c-3.1,1.6-6.6,2.4-10.1,2.3c-3.2,0-6.3-0.6-9.2-1.8c-2.7-1.1-5.2-2.8-7.2-5
			c-2.1-2.3-3.7-4.9-4.7-7.8c-1.2-3.2-1.7-6.6-1.7-10c0-3.3,0.5-6.7,1.7-9.8c1.1-2.9,2.7-5.5,4.8-7.8c2.1-2.2,4.5-4,7.3-5.2
			c3-1.3,6.1-1.9,9.4-1.9c3.1,0,6.2,0.6,9.1,1.8c2.9,1.1,5.3,3.1,7.1,5.5l13.1-13.1c-3.6-4-8.2-7-13.3-8.8c-10.9-4-22.9-4-33.8-0.1
			c-5.1,1.9-9.8,4.7-13.8,8.4c-4,3.7-7.1,8.3-9.2,13.3c-4.4,11.1-4.5,23.5-0.1,34.7C361.2,112.3,364.3,116.9,368.2,120.7"/>
	</g>
	<g>
		<path class="st0" d="M193,150.9c0.7,0.1,1.4,0,2.1,0c3-33.7,8.7-99.1,8.7-99.9c0-0.6-0.4-1.2-1.1-1.2c-0.6-0.1-1.2,0.3-1.3,0.9
			c-0.1,0.6-9.8,66.9-14.7,100.2C189.2,151,191.9,150.8,193,150.9z"/>
		<path class="st0" d="M260,72.2c-0.5-0.4-1.2-0.3-1.6,0.2l-61,78.9c0.1,0.1,0.2,0.2,0.3,0.4c0.2,0.6,0,1.3-0.4,1.8
			c-1.1,1.2-2.6,2-4.2,2.3c-2.1,0.4-4.6,0-6.1,0.5c-0.4,0.1-0.9,0.2-1,1l-0.1,0.5l-1.7,11.8c-0.4,2.6,1.4,4.9,3.9,5.3
			c1.8,0.3,3.5-0.5,4.5-2c1.3-1.9,67.3-98.5,67.7-99.1C260.7,73.3,260.5,72.5,260,72.2z"/>
	</g>
</g>
</svg>
