<?xml version="1.0" encoding="utf-8"?>
<!-- Generator: Adobe Illustrator 21.0.2, SVG Export Plug-In . SVG Version: 6.00 Build 0)  -->
<svg version="1.1" id="Layer_1" xmlns="http://www.w3.org/2000/svg" xmlns:xlink="http://www.w3.org/1999/xlink" x="0px" y="0px"
	 width="350.6px" height="56.1px" viewBox="0 0 350.6 56.1" style="enable-background:new 0 0 350.6 56.1;" xml:space="preserve">
<style type="text/css">
	.st0{fill:#231F20;}
	.st1{fill:#ED1C24;}
</style>
<title>Masthead Web-01</title>
<g id="_Group_2">
	<path id="_Compound_Path_" class="st0" d="M41.4,38.5H12.6c0.4,4.4,4.8,7.5,9.5,7.5c3.4,0.2,6.7-1.4,8.8-4.2l9.1,5.8
		c-3.8,5.4-10,8.5-18.1,8.5c-12,0-21.9-7.6-21.9-21c0-13,9.4-21.4,21.5-21.4c11.8,0,20,8.1,20,21.7C41.5,36.5,41.5,37.6,41.4,38.5z
		 M29.4,30.3c0-4.2-2.6-7.6-7.8-7.6c-5,0-8.7,3.5-9,7.6H29.4z"/>
</g>
<g id="_Group_3">
	<path id="_Compound_Path_2" class="st0" d="M74.7,27.9c-1.7-2-4.3-3.2-7-3.2c-5.5,0-9.2,4.7-9.2,10.2s3.6,10.2,9.4,10.2
		c2.7,0.1,5.3-1,7.1-3l7.3,8.9c-3.3,3.2-8.9,5.1-14.7,5.1c-12.6,0-22.3-8-22.3-21.2c0-13,9.8-21.2,22.2-21.2
		c5.7,0,11.7,2.2,14.8,5.4L74.7,27.9z"/>
	<path id="_Compound_Path_3" class="st0" d="M104.5,56.1c-12,0-22.1-8.3-22.1-21.4s10.1-21,22.1-21s22.2,8,22.2,21
		S116.6,56.1,104.5,56.1z M104.5,24.6c-6.2,0-9.4,5-9.4,10.2s3.3,10.3,9.4,10.3s9.4-5.2,9.4-10.3S110.7,24.6,104.5,24.6z"/>
	<path id="_Compound_Path_4" class="st0" d="M158,54.8V33.1c0-4.4-1.2-8.4-5.9-8.4s-7,4-7,8.6v21.6h-13.2V15h12.7v5.5h0.1
		c1.8-3.5,6.4-6.6,11.9-6.6c10.7,0,14.6,8.3,14.6,16.3v24.6L158,54.8z"/>
	<path id="_Compound_Path_5" class="st0" d="M198,56.1c-12,0-22.1-8.3-22.1-21.4s10.1-21,22.1-21s22.2,8,22.2,21
		S210.1,56.1,198,56.1z M198,24.6c-6.2,0-9.4,5-9.4,10.2s3.3,10.3,9.4,10.3s9.4-5.2,9.4-10.3S204.2,24.6,198,24.6z"/>
</g>
<g id="_Group_4">
	<path id="_Compound_Path_6" class="st0" d="M276,54.8V33.1c0-4.6-1-8.4-5.7-8.4c-4.5,0-6.6,4.2-6.6,8.6v21.5h-13.1V32.1
		c0-4.6-1.8-7.4-5.7-7.4c-4.2,0-6.6,3.8-6.6,8.6v21.6h-13.2V15h12.7v5.5h0.2c2.5-4.2,7-6.8,11.9-6.6c5.8,0,9.8,2.5,12,6.8
		c2.7-4.4,7.6-7,12.7-6.8c10.8,0,14.5,8.8,14.5,16.3v24.6H276z"/>
</g>
<g id="_Group_5">
	<path id="_Compound_Path_7" class="st0" d="M314.5,20.5c4.9-4.4,11.2-6.8,17.8-6.7c13.4,0,18.3,6.6,18.3,21v20.1h-12v-4.2h-0.2
		c-2,3.3-6.6,5.2-11.3,5.2c-6.3,0-14.5-3.1-14.5-12.5c0-11.5,14-13.4,25.6-13.4v-0.6c0-3.9-3.1-5.8-7.2-5.8
		c-3.7,0.1-7.2,1.6-9.8,4.1L314.5,20.5z M338.6,37.5h-1.7c-5.8,0-12.2,0.7-12.2,5.4c0,3,3,4.1,5.7,4.1c5.3,0,8.2-3.2,8.2-8.2V37.5z"
		/>
</g>
<g id="_Group_6">
	<path id="_Path_" class="st0" d="M297,26.4c0-0.1-0.5-1.3-0.6-1.4c0,0,0-0.1-0.1-0.1c-0.1,0-0.1,0-0.2,0.1
		c-0.2,0.5-0.6,1.2-0.8,1.7c0,0,0,0.1,0,0.1l0.6,1.4c0,0.1,0.1,0.1,0.2,0.1c0,0,0,0,0.1-0.1c0.1-0.2,0.5-1.2,0.8-1.7
		C297,26.5,297,26.5,297,26.4z"/>
	<g id="_Group_7">
		<path id="_Path_2" class="st0" d="M304.3,45.5c-1.4,3.1-6,7.2-7.2,9.4h3.2c1.4-1.8,4-4.1,5.3-6.2c0.1-0.1,0.1-0.3,0.1-0.5
			c-0.3-0.7-1-2.5-1.1-2.7c0-0.1-0.1-0.1-0.2-0.1C304.4,45.4,304.4,45.4,304.3,45.5C304.4,45.4,304.3,45.4,304.3,45.5z"/>
		<path id="_Path_3" class="st0" d="M307.1,51.7l-0.8-1.9c0,0,0-0.1-0.1-0.1c0,0-0.1,0-0.1,0c-1.3,1.8-3.4,3.1-5,5.1h3.2
			c1-0.8,1.9-1.7,2.7-2.8C307.1,51.9,307.1,51.8,307.1,51.7z"/>
		<path id="_Path_4" class="st0" d="M303.8,43.4l-6-15c0-0.1-0.1-0.1-0.1-0.1c-0.1,0-0.1,0-0.1,0.1c-0.3,0.5-0.5,1.2-0.8,1.7
			c0,0,0,0.1,0,0.1c0.7,1.9,2.9,7.1,3.6,9.6c0.2,0.6,0.3,1.2,0.4,1.9c0,2.6-2.8,6.1-4.6,9s-1.6,4.2-1.6,4.2h1.8
			c1.1-2.1,6.2-7.1,7.5-11.1C303.8,43.6,303.8,43.5,303.8,43.4z"/>
		<path id="_Path_5" class="st0" d="M307.4,53c-0.8,0.7-1.7,1.4-2.2,1.8h3.2l-0.7-1.8c0-0.1-0.1-0.1-0.1-0.1
			C307.5,53,307.4,53,307.4,53z"/>
	</g>
	<g id="_Group_8">
		<path id="_Path_6" class="st0" d="M319.2,25c-0.3-0.3-0.8-0.2-0.9-0.6s-0.3-0.2-0.5-0.2h-1.6c-0.2,0-0.4,0-0.6-0.2
			c-0.3-0.2-3.4-2.2-4.8-3.1c-0.3-0.1-0.5-0.4-0.5-0.7c-0.1-0.5-0.6-2.5-0.8-3.3c-0.2-0.7-0.3-1.5-0.4-2.2c-0.1-0.8-0.3-1.6-0.5-2.4
			c-0.2-0.4-0.5-0.9-1.9-1.2c-1-0.2-1.9-0.9-2.2-1.8c-0.1-0.2-0.3-1.4,0.4-1.9c0.6-0.4,1-0.9,1.4-1.5c0.5-0.9,0.5-1.9,0-2.8
			c-0.2-0.3,0.2-2.2-1.7-3.1c-0.4-0.2-0.8-0.2-1.2-0.1c-0.2,0.1-0.3,0.2-0.5,0.1c-0.5-0.1-1,0-1.5,0.3c-0.3,0.2-0.5,0.4-0.6,0.7
			c-0.1,0.2-0.1,0.2-0.3,0.3c-0.7,0.3-1.1,1-1.2,1.7c0.1,0.6,0.2,1.1,0.3,1.6c0,0.5,0.2,1.1,0.6,1.5c0.1,0.1,0.1,0.1,0.2,0
			c0,0,0.1-0.1,0-0.1c0-0.5,0-0.9,0.2-1.4c-0.1-0.7,0.4-1.4,1.1-1.6c0.4-0.1,0.9-0.1,1.3,0c0.3,0.2,0.5,0.6,0.4,1
			c0,0.2-0.1,0.3-0.2,0.5c-0.2,0.2-0.5,0.1-0.7,0.4c-0.2,0.8-0.2,1.7,0,2.6c0.1,0.3,0,0.6-0.1,0.8c-0.2,0.2-0.5,0.1-0.8,0
			c0,0-0.1,0-0.1,0c0,0-0.1,0.1-0.1,0.1c0,0.5,0.1,0.9,0.3,1.3c0.4,0.7,0.9,1.4,1.5,2c0.6,0.7,0.9,1.8-0.5,2.2c-1,0.2-2.1,0-3-0.5
			c-0.9-0.5-1.1-1.7-0.6-2.5c0,0,0,0,0,0c0-0.1,0-0.1,0-0.2c0-0.1-0.1-0.1-0.2-0.1c-0.5,0.1-0.9,0.2-1.4,0.4c-0.5,0.3-0.9,0.8-1,1.3
			c-0.3,1.1-0.4,2.3-0.5,3.4c-0.2,1.1-0.4,2.2-0.8,3.3c0,0.1-0.1,0.2-0.2,0.2c-1-0.4-1.9-0.8-2.8-1.3c-0.2-0.1-0.4-0.2-0.5-0.4
			l-1.2-1.1c-0.2-0.1-0.4-0.2-0.6-0.2c-0.3,0-0.7,0-1,0c-0.1,0-0.1,0-0.2-0.1l-0.6-1.7c-0.1-0.3-0.4-0.4-0.7-0.3
			c-0.3,0.1-0.4,0.4-0.3,0.7c0.1,0.2,0.4,1,0.7,1.7c0,0,0,0.1,0,0.1c0,0-0.1,0.1-0.1,0.1c-0.1,0-0.3,0.1-0.3,0.3s0.3,0.3,0.2,0.5
			c0,0.1-0.1,0.2-0.1,0.2c0,0.2,0.1,0.3,0.3,0.4s0.3,0.5,0.8,0.7c0.1,0,0.1,0.1,0.1,0.1c0.8,1.9,8.8,21.4,9.1,22
			c0.1,0.1,0.2,0.2,0.3,0.1c0,0,0,0,0,0c0.1-0.1,0.1-0.2,0.1-0.3c-0.3-0.7-5.7-14.6-8.4-21.7c0,0,0-0.1,0-0.1c0,0,0.1-0.1,0.1-0.1
			c0.2,0,0.5,0,0.8,0c0.2,0,0.5,0.1,0.7,0.3c0.9,0.6,3.2,2.4,4.2,3c0.2,0.1,0.4,0.2,0.7,0.1c0.3-0.2,0.5-0.5,0.7-0.9
			c0.5-1.1,0.8-2.3,1.1-3.5c0-0.1,0.1-0.1,0.2-0.1c0.1,0,0.2,0.1,0.2,0.1c0.4,1.2,0.7,2.4,0.9,3.6c-0.1,0.7-0.3,1.4-0.5,2.1
			c0,0,0,0.1,0,0.1c0,0,0.1,0,0.1,0c0.6-0.6,1.2-1.1,1.9-1.6c1.7-0.8,3.2-1.7,4.7-2.7c0.1-0.1,0.2,0,0.3,0c0.1,0.1,0.1,0.2,0,0.2
			c-1.4,1.9-5.2,3.6-6.7,5.7c-0.5,0.8-0.4,1.2-0.4,1.3l2,5.2c0,0.1,0.1,0.1,0.2,0.1c0,0,0,0,0,0l0.9-0.8c0.1-0.1,0.3-0.1,0.3,0
			c0,0,0,0,0,0.1c0.2,0.7,1.2,3.2,1.4,3.7c0.1,0.2,0,0.3-0.2,0.4c-0.1,0.1-0.3,0-0.4-0.1c0,0,0,0,0,0l-1-2.6c0-0.1-0.1-0.1-0.2,0
			c0,0,0,0,0,0l-0.6,0.5c0,0,0,0.1,0,0.2l2,5.2c0,0.1,0.1,0.1,0.2,0c0,0,0,0,0,0l0.9-0.8c0.1-0.1,0.2-0.1,0.3,0c0,0,0,0.1,0,0.1
			c0.2,0.7,1.2,3.1,1.4,3.7c0.1,0.1,0,0.3-0.1,0.4c-0.2,0.1-0.3,0-0.4-0.2c0,0,0,0,0,0l-1-2.6c0-0.1-0.1-0.1-0.2-0.1c0,0,0,0,0,0
			l-0.6,0.6c0,0,0,0.1,0,0.2c1.3,3.5,2.8,7.4,2.9,7.7c0,0.1,0.1,0.1,0.2,0.1c0.1,0,0.1-0.1,0.1-0.1c0.5-3.7,2.4-13.3,1.4-19.1
			c-0.3-1.7-1.8-4.8-1.9-6.1c-0.1-1.2,0.1-2.4,0.6-3.5c0.1-0.2,0.3-0.2,0.4,0.1l0.9,2.9c0.1,0.5,0.2,0.7,0.5,0.8
			c1.8,0.9,6.2,2.9,6.5,3s0.9,0.4,1.3,0.6c0.8,0.3,1.3,0.1,1.9,0.5c0.1,0.1,0.5,0.1,0.6,0s0.5-0.6,0.7-1l0,0v-0.1
			C319.6,25.4,319.4,25.2,319.2,25z"/>
	</g>
</g>
<g id="_Group_9">
	<path id="_Path_7" class="st1" d="M319,25.4l1-11.6c0-0.1-0.1-0.1-0.1-0.1c-0.1,0-0.1,0-0.1,0.1l-1.6,11.1
		C318.4,25.1,318.7,25.3,319,25.4z"/>
	<path id="_Path_8" class="st1" d="M326.6,16.3c-0.1,0-0.1,0-0.2,0l-7.2,9.3c0.2,0.1,0.3,0.2,0.3,0.2s-0.4,0.2-0.7,0.2
		s-0.5-0.3-0.7-0.3s-0.1,0-0.2,0.2l-0.3,1.8c0,0.3,0.2,0.6,0.5,0.6c0.2,0,0.4-0.1,0.5-0.2l8-11.6C326.7,16.4,326.7,16.3,326.6,16.3
		C326.6,16.3,326.6,16.3,326.6,16.3z"/>
</g>
</svg>
