<?xml version="1.0" encoding="utf-8"?>
<!-- Generator: Adobe Illustrator 21.0.2, SVG Export Plug-In . SVG Version: 6.00 Build 0)  -->
<svg version="1.1" id="Layer_1" xmlns="http://www.w3.org/2000/svg" xmlns:xlink="http://www.w3.org/1999/xlink" x="0px" y="0px"
	 viewBox="0 0 678.6 253.9" style="enable-background:new 0 0 678.6 253.9;" xml:space="preserve">
<style type="text/css">
	.st0{fill:#E30513;}
</style>
<title>logo__icaew--large</title>
<g>
	<path d="M269.9,151.6c-3.8-1-5.9-0.8-9.5-0.5c-2.6,0.2-3,0-4.9,1c-4.7,2.6-9.5,5.2-12.5,6.7c-2.1,1.3-4.4,2.3-6.7,3.1
		c-2.5,0.8-23.9,7.1-39,11.5c-2.5,0.7-3,0.6-3.6-2c-1.7-7.2-3.8-16-5-20.9c-1.4-6.4-2.5-12.9-3.1-19.5c-1-8.7-2.9-16.7-4.9-20.8
		c-1.5-3.1-4.5-8.2-17-10.8c-4.6-1-16.3-5-19.5-15.9c-0.5-1.7-2.5-12.3,3.3-16.7c3-2.3,8.8-7.1,12.1-13.1c2.4-4.3,6.7-14.6,0-24.7
		c-1.5-2.7,1.6-19.4-14.5-27.2c-3.5-1.7-7.5-2.3-10.5-1.3c-1.8,0.6-2.7,1.4-4.3,1.1c-4.5-0.6-9.2,0.4-13.1,2.7
		c-2.3,1.6-4,3.7-5.2,6.2c-0.7,1.3-1.3,1.6-3,2.3c-6,2.7-10,8.5-10.2,15.1c-0.3,5.5,2.9,11.2,3,14.4c0.1,4.7,1.9,9.3,5.1,12.8
		c0.4,0.5,1.2,0.6,1.7,0.2c0.4-0.3,0.5-0.8,0.4-1.3c-0.8-5.8,1.3-8.9,1.6-12.1c0.1-9.4,5.1-13,9.3-14.3c3.4-1.1,8.4-1.3,11.7,0.1
		s4,5.4,3.5,8.5c-0.1,1.6-0.9,3-2.1,4c-2,1.5-4.9,0.7-6.5,3.7c-2.4,4.4-0.5,19.3,0,22.5c0.5,3.6,0.1,5.8-0.9,7
		c-1.5,1.8-4.2,1.2-7,0.1c-0.3-0.1-0.6-0.1-0.9,0c-0.4,0.2-0.7,0.5-0.8,1c-0.3,2.2,0.7,7.2,2.7,11.9c3.9,8.9,10.9,15.1,12.8,17.6
		c5.1,6.4,8,16.2-4.1,19.1c-9,2.2-20.7-0.4-25.6-4.1c-10-7.5-8.6-17.1-5.3-22.2c0.4-0.4,0.5-1.1,0.2-1.6c-0.3-0.4-0.9-0.6-1.4-0.5
		c-3.1,1-7.8,1.7-12.1,3.7c-4.1,1.9-7.6,5.5-9.2,11.7c-3.6,14.2-3.3,22-4.7,30.3c-1.9,11.4-3.9,18.1-6.7,28.6
		c-0.3,1.1-1.9,9.4-3,11.1c-0.1,0.1-0.2,0.2-0.3,0.3c-8.2,5.2-14.9,8.8-23.8,13.8c-2.4,1.2-5.3,1.6-7.9,1c-1.7-0.4-3.5-0.7-5.3-0.8
		c-3-0.3-5.1-0.3-7.4-0.4c-0.7,0-1.2-0.4-1.5-1.1c-2.1-5.5-5-13.4-5.6-15c-1.1-2.4-3.9-3.4-6.2-2.3c-2.2,1-3.3,3.5-2.5,5.7
		c0.6,1.4,3.7,9.1,5.9,14.6c0.1,0.4,0.1,0.8-0.1,1.1c-0.2,0.3-0.6,0.6-1,0.6c-1.2,0.2-2.4,0.8-2.4,2.3c0,2,2.5,2.7,1.8,4.5
		c-0.4,0.7-0.7,1.4-0.9,2.2c-0.2,1.4,1,2.7,2.9,3.9c2.1,1.3,2.7,4.7,7.4,6.3c0.6,0.1,1.2,0.6,1.4,1.2L30.5,254h8.1
		c-7.3-18.5-14.3-36.5-14.6-37.3c-0.2-0.5-0.1-0.9,0.2-1.1c2.9-1.5,5.7-3.1,8.3-4.9c2.4-1.8,10.1-4.9,11.6-5.2
		c12.6-3,20.9-5.4,29.9-9.2c1.9-0.8,3.2-3.3,4.7-6.7c2.9-6.6,7.3-20.5,9.5-30.4c0.2-0.7,0.8-1.3,1.6-1.3c0.8,0,1.4,0.5,1.6,1.2
		c1.1,4.8,7.4,21.8,7.7,31.3c0.2,4.7-3.6,13.5-4.8,18.8c-0.1,0.3,0,0.7,0.3,0.9c0.3,0.1,0.6,0.1,0.9-0.1c4.9-5.4,10.5-10,16.6-13.9
		c11.4-6.9,27-11.9,41.5-23.7c0.7-0.6,1.8-0.5,2.4,0.2c0.5,0.6,0.5,1.6,0,2.2c-11.9,16.5-45.4,31.4-58.5,49.7
		c-6.4,8.7-10.7,18.8-12.6,29.4h94c-0.5-4.1-1.4-8.1-2.6-12c-2.1-7.2-5.3-15.5-7.9-22.6c-3.5-9.5-6.6-18.3-7.2-23.3
		c-1.3-11,1.9-21.8,5.4-30.8c0.9-2.2,2.9-1.9,3.6,0.5c1.7,5.6,5.7,19.6,7.6,25.5c1.5,4.8,3.9,7.1,5.8,7.5c1.4,0.1,2.7-0.3,3.9-0.9
		c16.3-7.1,54.3-24.4,56.4-25.3s5.5-0.1,9.4-0.5c7.1-0.8,10.6-4.6,17-4.3c1.4,0.1,4-0.9,4.3-2.5s3.6-5.2,2.1-9.9h-0.2
		C274.7,153.6,272.4,152.4,269.9,151.6z"/>
	<g>
		<polygon points="627.5,106.2 638.4,68.8 638.7,68.8 649.6,106.2 662.8,106.2 678.6,50.9 664.7,50.9 655.8,87.7 655.5,87.7 
			645.6,50.9 631.7,50.9 621.9,87.7 621.6,87.7 612.9,50.9 598.5,50.9 614.2,106.2 		"/>
		<path d="M510.6,65.6l6.9,19h-13.9L510.6,65.6z M499.8,95.3h21.4l4.3,10.9h14.8l-23-55.3h-13l-23.2,55.3h14.5L499.8,95.3z"/>
		<polygon points="588.7,94.8 563,94.8 563,83.3 586,83.3 586,72.6 563,72.6 563,62.1 587.3,62.1 587.3,50.9 550.1,50.9 
			550.1,106.2 588.7,106.2 		"/>
		<rect x="397.3" y="50.9" width="13.4" height="55.3"/>
		<path d="M433.2,99.6c2.7,2.6,5.9,4.7,9.4,6c3.8,1.4,7.8,2.2,11.8,2.1c4.3,0.1,8.5-0.8,12.5-2.5c3.5-1.5,6.6-3.8,9.1-6.7l-9.3-8.8
			c-1.2,1.7-2.9,3.1-4.8,4.1c-2.2,1.1-4.6,1.6-7,1.6c-2.2,0-4.3-0.4-6.3-1.2c-1.9-0.8-3.6-2-5-3.5c-1.4-1.6-2.5-3.4-3.2-5.4
			c-0.8-2.2-1.2-4.5-1.2-6.9c0-2.3,0.4-4.6,1.2-6.8c0.7-2,1.8-3.8,3.3-5.4c1.4-1.5,3.1-2.7,5-3.6c2-0.9,4.2-1.3,6.5-1.3
			c2.1,0,4.3,0.4,6.2,1.2c2,0.8,3.7,2.1,4.9,3.8l9.1-9.1c-2.5-2.8-5.7-4.8-9.2-6.1c-7.5-2.7-15.8-2.7-23.3,0
			c-3.5,1.3-6.8,3.3-9.5,5.8c-2.7,2.6-4.9,5.7-6.4,9.2c-3,7.7-3,16.2,0,23.9C428.4,93.8,430.5,97,433.2,99.6"/>
	</g>
	<g>
		<path class="st0" d="M270.4,155.5c0.7,0.1,1.5,0,2.2,0c3-34.8,9-102.2,9-103c0-0.6-0.4-1.2-1.1-1.3c-0.6-0.1-1.2,0.4-1.3,1
			c-0.1,0.6-10.1,68.9-15.2,103.2C266.5,155.6,269.4,155.4,270.4,155.5z"/>
		<path class="st0" d="M339.5,74.4c-0.5-0.4-1.2-0.3-1.6,0.2L275,155.9c0.1,0.1,0.2,0.2,0.3,0.4c0.2,0.6,0.1,1.3-0.4,1.9
			c-1.2,1.2-2.7,2.1-4.3,2.4c-2.2,0.4-4.7,0-6.3,0.5c-0.4,0.1-0.9,0.2-1.1,1l-0.1,0.5l-1.8,12.2c-0.3,2.6,1.5,5.1,4.2,5.4
			c1.8,0.2,3.5-0.5,4.5-2c1.3-2,69.3-101.5,69.8-102.1C340.1,75.5,340,74.8,339.5,74.4z"/>
	</g>
</g>
</svg>
