<?xml version="1.0" encoding="utf-8"?>
<!-- Generator: Adobe Illustrator 21.0.2, SVG Export Plug-In . SVG Version: 6.00 Build 0)  -->
<svg version="1.0" id="Layer_1" xmlns="http://www.w3.org/2000/svg" xmlns:xlink="http://www.w3.org/1999/xlink" x="0px" y="0px"
	 viewBox="0 0 56 56" style="enable-background:new 0 0 56 56;" xml:space="preserve">
<style type="text/css">
	.st0{fill:#D00016;}
	.st1{fill:#E2DEDC;}
</style>
<title>icon94 - themify</title>
<desc>Created with Sketch.</desc>
<g>
	<path class="st0" d="M49.8,44.7c0.3-0.3,0.5-0.7,0.7-1C50.3,44.1,50.1,44.4,49.8,44.7z"/>
	<path class="st0" d="M25.1,0.7h0.1C25.2,0.6,25.1,0.7,25.1,0.7z"/>
	<path class="st0" d="M28,55.5L28,55.5c-0.3,0-0.6,0-0.9,0C27.4,55.5,27.7,55.5,28,55.5z"/>
	<path class="st0" d="M28,0.5c-0.4,0-0.7,0-1.1,0C27.3,0.5,27.7,0.5,28,0.5L28,0.5z"/>
	<path class="st0" d="M11,6.4c0.5-0.4,1-0.7,1.5-1.1C11.9,5.7,11.4,6.1,11,6.4z"/>
	<path class="st0" d="M13.1,4.9c0.5-0.3,1.1-0.7,1.7-1C14.1,4.2,13.6,4.6,13.1,4.9z"/>
	<path class="st0" d="M15.4,3.6c0.5-0.2,0.9-0.5,1.4-0.7C16.3,3.1,15.9,3.3,15.4,3.6z"/>
	<path class="st0" d="M52.8,39.8c-0.1,0.2-0.2,0.4-0.3,0.6C52.6,40.2,52.7,40,52.8,39.8z"/>
	<path class="st1" d="M50.4,18.6c-1.3-2.9-3-5.5-5.2-7.7S40.4,7,37.5,5.7S31.4,3.8,28,3.8c-3.3,0-6.4,0.6-9.4,1.9s-5.5,3-7.7,5.2
		c-2.1,2.2-3.9,4.7-5.2,7.7c-1.3,2.9-2,6.1-1.9,9.5c-0.1,3.4,0.6,6.5,1.9,9.5c1.3,2.9,3.1,5.5,5.2,7.7s4.7,3.9,7.7,5.2
		s6.1,1.9,9.4,1.9c3.4,0,6.6-0.6,9.5-1.9s5.5-3,7.7-5.2s4-4.7,5.2-7.7c1.3-2.9,1.9-6.1,2-9.5C52.3,24.7,51.6,21.5,50.4,18.6z
		 M22.7,42.1l-2.4-2.3L32.2,28L20.3,16.2l2.4-2.3L36.8,28L22.7,42.1z"/>
	<path class="st0" d="M52,41.3c-0.3,0.6-0.7,1.2-1.1,1.8C51.4,42.5,51.7,41.9,52,41.3z"/>
	<path class="st0" d="M0.5,28.2c0,5.6,1.8,10.8,4.7,15.1c-1-1.4-1.8-3-2.5-4.6C1.3,35.4,0.6,31.9,0.5,28.2z"/>
	<path class="st0" d="M8.4,8.7c-4.9,4.9-7.9,11.7-7.9,19.1c0.1-3.7,0.8-7.2,2.2-10.5C4.1,14.1,6,11.2,8.4,8.7z"/>
	<path class="st0" d="M55.5,28.2c0-0.1,0-0.1,0-0.2s0-0.1,0-0.2c0,0.1,0,0.1,0,0.2S55.5,28.1,55.5,28.2z"/>
	<path class="st0" d="M25.9,0.6c0.3,0,0.5,0,0.8-0.1C26.4,0.5,26.2,0.6,25.9,0.6z"/>
	<path class="st0" d="M6.7,45.3c-0.4-0.5-0.9-1.1-1.3-1.7C5.8,44.2,6.2,44.8,6.7,45.3z"/>
	<path class="st0" d="M26.6,55.5c-0.1,0-0.2,0-0.3,0C26.4,55.4,26.5,55.5,26.6,55.5z"/>
	<path class="st0" d="M8.3,47.2c-0.4-0.5-0.9-0.9-1.3-1.4C7.5,46.3,7.9,46.8,8.3,47.2z"/>
	<path class="st0" d="M16.9,53.2c-0.6-0.3-1.1-0.5-1.7-0.8C15.8,52.6,16.3,52.9,16.9,53.2z"/>
	<path class="st0" d="M14.9,52.2c-2.2-1.2-4.2-2.7-6.1-4.5C10.6,49.5,12.7,51,14.9,52.2z"/>
	<path class="st0" d="M8.9,8.2C9.3,7.8,9.8,7.4,10.2,7C9.8,7.4,9.3,7.8,8.9,8.2z"/>
	<path d="M51,43.1c0.4-0.6,0.7-1.2,1.1-1.8c0.2-0.3,0.3-0.6,0.5-0.9c0.1-0.2,0.2-0.4,0.3-0.6c0.2-0.4,0.4-0.7,0.6-1.1
		c1.5-3.2,2.2-6.8,2.1-10.5c0-0.1,0-0.1,0-0.2s0-0.1,0-0.2c0.1-3.7-0.6-7.3-2.1-10.5c-1.5-3.4-3.4-6.3-5.9-8.8S42.1,4,38.7,2.6
		c-3.3-1.4-6.9-2.1-10.6-2.1l0,0c-0.4,0-0.7,0-1.1,0c-0.1,0-0.2,0-0.3,0c-0.3,0-0.5,0-0.8,0.1c-0.2,0-0.5,0-0.7,0.1h-0.1
		c-2.7,0.3-5.3,0.9-7.7,1.9c-0.2,0.1-0.4,0.2-0.6,0.3c-0.5,0.2-1,0.4-1.4,0.7c-0.2,0.1-0.5,0.2-0.7,0.4c-0.6,0.3-1.1,0.6-1.7,1
		c-0.2,0.1-0.4,0.3-0.6,0.4c-0.5,0.3-1,0.7-1.5,1.1c-0.2,0.2-0.5,0.4-0.7,0.6C9.8,7.4,9.3,7.8,8.9,8.2C8.8,8.3,8.7,8.4,8.6,8.5
		C8.5,8.6,8.5,8.6,8.4,8.7C6,11.3,4,14.1,2.6,17.3s-2.1,6.8-2.2,10.5c0,0.1,0,0.1,0,0.2s0,0.1,0,0.2c0.1,3.7,0.8,7.1,2.2,10.5
		c0.7,1.7,1.5,3.2,2.5,4.6c0.1,0.1,0.1,0.2,0.2,0.3c0.4,0.6,0.8,1.1,1.3,1.7c0.1,0.2,0.3,0.3,0.4,0.5c0.4,0.5,0.8,1,1.3,1.4
		c0.1,0.1,0.2,0.2,0.2,0.3c0.1,0.1,0.2,0.1,0.2,0.2c1.9,1.8,3.9,3.3,6.1,4.5c0.1,0,0.2,0.1,0.3,0.1c0.5,0.3,1.1,0.6,1.7,0.8
		c0.2,0.1,0.3,0.2,0.5,0.2c2.8,1.2,5.7,1.9,8.9,2c0.1,0,0.2,0,0.3,0c0.2,0,0.3,0,0.5,0c0.3,0,0.6,0,0.9,0c0,0,0,0,0.1,0
		c3.7,0,7.2-0.7,10.6-2.1c3.4-1.4,6.3-3.4,8.8-5.9c0.8-0.9,1.6-1.8,2.3-2.8c0.3-0.3,0.5-0.7,0.7-1C50.7,43.5,50.8,43.3,51,43.1z
		 M45.2,45.3c-2.2,2.2-4.8,3.9-7.7,5.2s-6.1,1.9-9.5,1.9c-3.3,0-6.4-0.6-9.4-1.9s-5.6-3-7.7-5.2S7,40.5,5.7,37.6
		c-1.3-3-2-6.1-1.9-9.5c-0.1-3.4,0.6-6.6,1.9-9.5c1.3-3,3.1-5.5,5.2-7.7c2.2-2.2,4.7-3.9,7.7-5.2s6.1-1.9,9.4-1.9
		c3.4,0,6.6,0.6,9.5,1.9s5.5,3,7.7,5.2s3.9,4.8,5.2,7.7c1.2,2.9,1.9,6.1,2,9.5c-0.1,3.4-0.7,6.6-2,9.5
		C49.2,40.6,47.4,43.1,45.2,45.3z"/>
	<polygon points="20.3,16.2 32.2,28 20.3,39.8 22.7,42.1 36.8,28 22.7,13.9 	"/>
</g>
</svg>
