<?xml version="1.0" encoding="utf-8"?>
<!-- Generator: Adobe Illustrator 21.0.2, SVG Export Plug-In . SVG Version: 6.00 Build 0)  -->
<svg version="1.1" id="Layer_1" xmlns="http://www.w3.org/2000/svg" xmlns:xlink="http://www.w3.org/1999/xlink" x="0px" y="0px"
	 viewBox="0 0 55.1 55" style="enable-background:new 0 0 55.1 55;" xml:space="preserve">
<style type="text/css">
	.st0{fill-rule:evenodd;clip-rule:evenodd;fill:#E2DEDC;}
	.st1{clip-path:url(#SVGID_2_);}
	.st2{clip-path:url(#SVGID_4_);}
</style>
<title>icon94 - themify</title>
<desc>Created with Sketch.</desc>
<g>
	<path class="st0" d="M4.7,17.8c-1.3,3-2,6.2-2,9.7s0.7,6.7,2,9.7c1.3,3,3.1,5.6,5.3,7.9c2.2,2.2,4.9,4,7.9,5.3c3,1.3,6.2,2,9.7,2
		s6.7-0.7,9.7-2c3-1.3,5.6-3.1,7.9-5.3c2.2-2.2,4-4.9,5.3-7.9c1.3-3,2-6.2,2-9.7s-0.7-6.7-2-9.7c-1.3-3-3.1-5.6-5.3-7.9
		c-2.2-2.2-4.9-4-7.9-5.3c-3-1.3-6.2-2-9.7-2s-6.7,0.7-9.7,2c-3,1.3-5.6,3.1-7.9,5.3C7.8,12.2,6,14.8,4.7,17.8z"/>
	<g>
		<g>
			<defs>
				<path id="SVGID_1_" d="M3.3,27.5c0,3.4,0.6,6.5,1.9,9.5c1.3,2.9,3,5.5,5.2,7.7c2.2,2.2,4.7,3.9,7.7,5.2c2.9,1.3,6.1,1.9,9.5,1.9
					s6.5-0.6,9.5-1.9c2.9-1.3,5.5-3,7.7-5.2c2.2-2.2,3.9-4.7,5.2-7.7c1.3-2.9,1.9-6.1,1.9-9.5S51.2,21,49.9,18
					c-1.3-2.9-3-5.5-5.2-7.7c-2.2-2.2-4.7-3.9-7.7-5.2c-2.9-1.3-6.1-1.9-9.5-1.9S21,3.9,18.1,5.2c-2.9,1.3-5.5,3-7.7,5.2
					c-2.2,2.2-3.9,4.7-5.2,7.7C3.9,21,3.3,24.1,3.3,27.5z M0.1,27.5c0-3.8,0.7-7.4,2.1-10.7c1.4-3.3,3.4-6.2,5.9-8.8
					c2.5-2.5,5.4-4.5,8.8-5.9C20.2,0.7,23.8,0,27.6,0c3.8,0,7.4,0.7,10.7,2.1c3.3,1.4,6.2,3.4,8.8,5.9c2.5,2.5,4.5,5.4,5.9,8.8
					c1.4,3.3,2.1,6.9,2.1,10.7s-0.7,7.4-2.1,10.7c-1.4,3.3-3.4,6.2-5.9,8.8c-2.5,2.5-5.4,4.5-8.8,5.9c-3.3,1.4-6.9,2.1-10.7,2.1
					s-7.4-0.7-10.7-2.1c-3.3-1.4-6.2-3.4-8.8-5.9s-4.5-5.4-5.9-8.8C0.8,34.9,0.1,31.3,0.1,27.5z M19.9,39.3l11.8-11.8L19.9,15.7
					l2.3-2.3l14.2,14.1L22.2,41.6L19.9,39.3z"/>
			</defs>
			<clipPath id="SVGID_2_">
				<use xlink:href="#SVGID_1_"  style="overflow:visible;"/>
			</clipPath>
			<g class="st1">
				<defs>
					<rect id="SVGID_3_" x="-1343.9" y="-932.6" width="1580" height="1472"/>
				</defs>
				<clipPath id="SVGID_4_">
					<use xlink:href="#SVGID_3_"  style="overflow:visible;"/>
				</clipPath>
				<rect x="-4.9" y="-5" class="st2" width="65" height="65"/>
			</g>
		</g>
	</g>
</g>
</svg>
