<?xml version="1.0" encoding="utf-8"?>
<!-- Generator: Adobe Illustrator 21.0.2, SVG Export Plug-In . SVG Version: 6.00 Build 0)  -->
<svg version="1.1" id="Layer_1" xmlns="http://www.w3.org/2000/svg" xmlns:xlink="http://www.w3.org/1999/xlink" x="0px" y="0px"
	 width="55.1px" height="55px" viewBox="0 0 55.1 55" style="enable-background:new 0 0 55.1 55;" xml:space="preserve">
<style type="text/css">
	.st0{clip-path:url(#SVGID_2_);}
	.st1{clip-path:url(#SVGID_4_);}
</style>
<title>icon94 - themify</title>
<desc>Created with Sketch.</desc>
<g>
	<g>
		<defs>
			<path id="SVGID_1_" d="M51.8,27.5c0-3.4-0.6-6.5-1.9-9.5c-1.3-2.9-3-5.5-5.2-7.7c-2.2-2.2-4.7-3.9-7.7-5.2
				c-2.9-1.3-6.1-1.9-9.5-1.9S21,3.9,18.1,5.2c-2.9,1.3-5.5,3-7.7,5.2c-2.2,2.2-3.9,4.7-5.2,7.7c-1.3,2.9-1.9,6.1-1.9,9.5
				S3.9,34,5.2,37c1.3,2.9,3,5.5,5.2,7.7c2.2,2.2,4.7,3.9,7.7,5.2c2.9,1.3,6.1,1.9,9.5,1.9s6.5-0.6,9.5-1.9c2.9-1.3,5.5-3,7.7-5.2
				c2.2-2.2,3.9-4.7,5.2-7.7C51.2,34,51.8,30.9,51.8,27.5z M55.1,27.5c0,3.8-0.7,7.4-2.1,10.7c-1.4,3.3-3.4,6.2-5.9,8.8
				c-2.5,2.5-5.4,4.5-8.8,5.9c-3.3,1.4-6.9,2.1-10.7,2.1s-7.4-0.7-10.7-2.1c-3.3-1.4-6.2-3.4-8.8-5.9c-2.5-2.5-4.5-5.4-5.9-8.8
				c-1.4-3.3-2.1-6.9-2.1-10.7c0-3.8,0.7-7.4,2.1-10.7c1.4-3.3,3.4-6.2,5.9-8.8c2.5-2.5,5.4-4.5,8.8-5.9C20.2,0.7,23.8,0,27.6,0
				s7.4,0.7,10.7,2.1c3.3,1.4,6.2,3.4,8.8,5.9s4.5,5.4,5.9,8.8C54.3,20.1,55.1,23.7,55.1,27.5z M35.2,15.7L23.4,27.5l11.8,11.8
				l-2.3,2.3L18.7,27.5l14.2-14.1L35.2,15.7z"/>
		</defs>
		<clipPath id="SVGID_2_">
			<use xlink:href="#SVGID_1_"  style="overflow:visible;"/>
		</clipPath>
		<g class="st0">
			<defs>
				<rect id="SVGID_3_" x="-180.9" y="-484.4" width="1580" height="1472"/>
			</defs>
			<clipPath id="SVGID_4_">
				<use xlink:href="#SVGID_3_"  style="overflow:visible;"/>
			</clipPath>
			<rect x="-4.9" y="-5" class="st1" width="65" height="65"/>
		</g>
	</g>
</g>
</svg>
