<?xml version="1.0" encoding="utf-8"?>
<!-- Generator: Adobe Illustrator 21.0.2, SVG Export Plug-In . SVG Version: 6.00 Build 0)  -->
<svg version="1.0" id="Layer_1" xmlns="http://www.w3.org/2000/svg" xmlns:xlink="http://www.w3.org/1999/xlink" x="0px" y="0px"
	 viewBox="0 0 56 56" style="enable-background:new 0 0 56 56;" xml:space="preserve">
<style type="text/css">
	.st0{fill:#D00016;}
	.st1{fill:#FFFFFF;}
</style>
<title>icon94 - themify</title>
<desc>Created with Sketch.</desc>
<g>
	<path class="st0" d="M6.2,11.3c-0.3,0.3-0.5,0.7-0.7,1C5.7,11.9,5.9,11.6,6.2,11.3z"/>
	<path class="st0" d="M30.9,55.3h-0.1C30.8,55.4,30.9,55.3,30.9,55.3z"/>
	<path class="st0" d="M28,0.5L28,0.5c0.3,0,0.6,0,0.9,0C28.6,0.5,28.3,0.5,28,0.5z"/>
	<path class="st0" d="M28,55.5c0.4,0,0.7,0,1.1,0C28.7,55.5,28.3,55.5,28,55.5L28,55.5z"/>
	<path class="st0" d="M45,49.6c-0.5,0.4-1,0.7-1.5,1.1C44.1,50.3,44.6,49.9,45,49.6z"/>
	<path class="st0" d="M42.9,51.1c-0.5,0.3-1.1,0.7-1.7,1C41.9,51.8,42.4,51.4,42.9,51.1z"/>
	<path class="st0" d="M40.6,52.4c-0.5,0.2-0.9,0.5-1.4,0.7C39.7,52.9,40.1,52.7,40.6,52.4z"/>
	<path class="st0" d="M3.2,16.2c0.1-0.2,0.2-0.4,0.3-0.6C3.4,15.8,3.3,16,3.2,16.2z"/>
	<path class="st1" d="M5.6,37.4c1.3,2.9,3,5.5,5.2,7.7s4.8,3.9,7.7,5.2s6.1,1.9,9.5,1.9c3.3,0,6.4-0.6,9.4-1.9s5.5-3,7.7-5.2
		c2.1-2.2,3.9-4.7,5.2-7.7c1.3-2.9,2-6.1,1.9-9.5c0.1-3.4-0.6-6.5-1.9-9.5c-1.3-2.9-3.1-5.5-5.2-7.7c-2.1-2.2-4.7-3.9-7.7-5.2
		S31.3,3.6,28,3.6c-3.4,0-6.6,0.6-9.5,1.9s-5.5,3-7.7,5.2s-4,4.7-5.2,7.7c-1.3,2.9-1.9,6.1-2,9.5C3.7,31.3,4.4,34.5,5.6,37.4z
		 M33.3,13.9l2.4,2.3L23.8,28l11.9,11.8l-2.4,2.3L19.2,28L33.3,13.9z"/>
	<path class="st0" d="M4,14.7c0.3-0.6,0.7-1.2,1.1-1.8C4.6,13.5,4.3,14.1,4,14.7z"/>
	<path class="st0" d="M55.5,27.8c0-5.6-1.8-10.8-4.7-15.1c1,1.4,1.8,3,2.5,4.6C54.7,20.6,55.4,24.1,55.5,27.8z"/>
	<path class="st0" d="M47.6,47.3c4.9-4.9,7.9-11.7,7.9-19.1c-0.1,3.7-0.8,7.2-2.2,10.5C51.9,41.9,50,44.8,47.6,47.3z"/>
	<path class="st0" d="M0.5,27.8c0,0.1,0,0.1,0,0.2s0,0.1,0,0.2c0-0.1,0-0.1,0-0.2S0.5,27.9,0.5,27.8z"/>
	<path class="st0" d="M30.1,55.4c-0.3,0-0.5,0-0.8,0.1C29.6,55.5,29.8,55.4,30.1,55.4z"/>
	<path class="st0" d="M49.3,10.7c0.4,0.5,0.9,1.1,1.3,1.7C50.2,11.8,49.8,11.2,49.3,10.7z"/>
	<path class="st0" d="M29.4,0.5c0.1,0,0.2,0,0.3,0C29.6,0.6,29.5,0.5,29.4,0.5z"/>
	<path class="st0" d="M47.7,8.8c0.4,0.5,0.9,0.9,1.3,1.4C48.5,9.7,48.1,9.2,47.7,8.8z"/>
	<path class="st0" d="M39.1,2.8c0.6,0.3,1.1,0.5,1.7,0.8C40.2,3.4,39.7,3.1,39.1,2.8z"/>
	<path class="st0" d="M41.1,3.8c2.2,1.2,4.2,2.7,6.1,4.5C45.4,6.5,43.3,5,41.1,3.8z"/>
	<path class="st0" d="M47.1,47.8c-0.4,0.4-0.9,0.8-1.3,1.2C46.2,48.6,46.7,48.2,47.1,47.8z"/>
	<path d="M5,12.9c-0.4,0.6-0.7,1.2-1.1,1.8c-0.2,0.3-0.3,0.6-0.5,0.9c-0.1,0.2-0.2,0.4-0.3,0.6c-0.2,0.4-0.4,0.7-0.6,1.1
		C1,20.5,0.3,24.1,0.4,27.8c0,0.1,0,0.1,0,0.2s0,0.1,0,0.2C0.3,31.9,1,35.5,2.5,38.7C4,42.1,5.9,45,8.4,47.5s5.5,4.5,8.9,5.9
		c3.3,1.4,6.9,2.1,10.6,2.1l0,0c0.4,0,0.7,0,1.1,0c0.1,0,0.2,0,0.3,0c0.3,0,0.5,0,0.8-0.1c0.2,0,0.5,0,0.7-0.1h0.1
		c2.7-0.3,5.3-0.9,7.7-1.9c0.2-0.1,0.4-0.2,0.6-0.3c0.5-0.2,1-0.4,1.4-0.7c0.2-0.1,0.5-0.2,0.7-0.4c0.6-0.3,1.1-0.6,1.7-1
		c0.2-0.1,0.4-0.3,0.6-0.4c0.5-0.3,1-0.7,1.5-1.1c0.2-0.2,0.5-0.4,0.7-0.6c0.4-0.3,0.9-0.7,1.3-1.1c0.1-0.1,0.2-0.2,0.3-0.3
		c0.1-0.1,0.1-0.1,0.2-0.2c2.4-2.6,4.4-5.4,5.8-8.6c1.4-3.2,2.1-6.8,2.2-10.5c0-0.1,0-0.1,0-0.2s0-0.1,0-0.2
		c-0.1-3.7-0.8-7.1-2.2-10.5c-0.7-1.7-1.5-3.2-2.5-4.6c-0.1-0.1-0.1-0.2-0.2-0.3c-0.4-0.6-0.8-1.1-1.3-1.7c-0.1-0.2-0.3-0.3-0.4-0.5
		c-0.4-0.5-0.8-1-1.3-1.4c-0.1-0.1-0.2-0.2-0.2-0.3c-0.1-0.1-0.2-0.1-0.2-0.2c-1.9-1.8-3.9-3.3-6.1-4.5c-0.1,0-0.2-0.1-0.3-0.1
		c-0.5-0.3-1.1-0.6-1.7-0.8c-0.2-0.1-0.3-0.2-0.5-0.2c-2.8-1.2-5.7-1.9-8.9-2c-0.1,0-0.2,0-0.3,0c-0.2,0-0.3,0-0.5,0
		c-0.3,0-0.6,0-0.9,0c0,0,0,0-0.1,0c-3.7,0-7.2,0.7-10.6,2.1C14,4.2,11.1,6.2,8.6,8.7C7.8,9.6,7,10.5,6.3,11.5
		c-0.3,0.3-0.5,0.7-0.7,1C5.3,12.5,5.2,12.7,5,12.9z M10.8,10.7c2.2-2.2,4.8-3.9,7.7-5.2s6.1-1.9,9.5-1.9c3.3,0,6.4,0.6,9.4,1.9
		s5.6,3,7.7,5.2c2.1,2.2,3.9,4.8,5.2,7.7c1.3,3,2,6.1,1.9,9.5c0.1,3.4-0.6,6.6-1.9,9.5c-1.3,3-3.1,5.5-5.2,7.7
		c-2.2,2.2-4.7,3.9-7.7,5.2c-3,1.3-6.1,1.9-9.4,1.9c-3.4,0-6.6-0.6-9.5-1.9c-2.9-1.3-5.5-3-7.7-5.2c-2.2-2.2-3.9-4.8-5.2-7.7
		c-1.2-2.9-1.9-6.1-2-9.5c0.1-3.4,0.7-6.6,2-9.5C6.8,15.4,8.6,12.9,10.8,10.7z"/>
	<polygon points="35.7,39.8 23.8,28 35.7,16.2 33.3,13.9 19.2,28 33.3,42.1 	"/>
</g>
</svg>
