<?xml version="1.0" encoding="utf-8"?>
<!-- Generator: Adobe Illustrator 21.0.0, SVG Export Plug-In . SVG Version: 6.00 Build 0)  -->
<svg version="1.1" xmlns="http://www.w3.org/2000/svg" xmlns:xlink="http://www.w3.org/1999/xlink" x="0px" y="0px" width="3000px"
	 height="23.29845px" viewBox="0 0 3000 23.29845" style="enable-background:new 0 0 3000 23.29845;" xml:space="preserve">
<style type="text/css">
	.st0{fill:#FFFFFF;}
	.st1{fill:#CCCCCC;}
	.st2{fill:#E30613;}
	.st3{display:none;}
	.st4{display:inline;}
	.st5{clip-path:url(#SVGID_2_);fill:#E30613;}
	.st6{clip-path:url(#SVGID_4_);fill:#E30613;}
</style>
<g id="Layer_1">
	<g>
		<polygon class="st0" points="1520.40039,0.18323 1479.59961,0.18323 1500,20.68323 		"/>
		<g>
			<polygon class="st1" points="1479.526,0.1 0,0.1 0,0.20004 1479.62549,0.20004 			"/>
			<polygon class="st1" points="3000,0.1 1520.44775,0.1 1520.34827,0.20004 3000,0.20004 			"/>
		</g>
		<path class="st2" d="M1520.53711,0.03622c-0.05396-0.05048-0.13794-0.04803-0.18896,0.00635v0.00006l-20.3479,20.47241
			l-20.34912-20.47272c-0.0498-0.05377-0.13501-0.05676-0.18896-0.0058c-0.05396,0.05048-0.05688,0.1358-0.00806,0.19055
			l19.62915,22.67865c0.00586,0.00708,0.01099,0.01404,0.01685,0.02063c0.00122,0.00122,0.00317,0.00244,0.00415,0.0036
			l0.00391,0.00531l0.00098-0.00043c0.24048,0.25372,0.56653,0.36279,0.89026,0.34967
			c0.32434,0.01349,0.65125-0.09546,0.89172-0.34949v0.00049l0.00513-0.00531c0.00098-0.00128,0.00195-0.00244,0.00293-0.00366
			c0.00708-0.00653,0.01196-0.0141,0.01709-0.02057l19.62891-22.6792l-0.00098,0.00006
			C1520.59521,0.17202,1520.59229,0.08724,1520.53711,0.03622z"/>
	</g>
</g>
<g id="dividers_masked" class="st3">
	<g class="st4">
		<g>
			<defs>
				<path id="SVGID_1_" d="M1499.10425,22.92995l0.00403,0.00533l0.00098-0.00046c0.44006,0.46451,1.17102,0.48711,1.63904,0.04842
					c0.46899-0.43915,0.49695-1.17403,0.06702-1.64736v-0.00052l-0.005-0.00539c-0.0011-0.00117-0.00208-0.00234-0.00305-0.00357
					c-0.00598-0.00656-0.01294-0.01214-0.01904-0.0187l-21.13696-21.26538c-0.04993-0.05378-0.13501-0.05679-0.18896-0.00578
					c-0.05408,0.05048-0.05701,0.13579-0.00806,0.19054l19.62903,22.67865c0.00598,0.00708,0.01099,0.01403,0.01697,0.02059
					C1499.10132,22.92755,1499.10327,22.92878,1499.10425,22.92995"/>
			</defs>
			<clipPath id="SVGID_2_">
				<use xlink:href="#SVGID_1_"  style="overflow:visible;"/>
			</clipPath>
			
				<rect x="1474.87866" y="-5.4064" transform="matrix(0.12187 -0.99255 0.99255 0.12187 1296.97571 1489.37683)" class="st5" width="30.64816" height="34.22913"/>
		</g>
		<g>
			<defs>
				<path id="SVGID_3_" d="M1499.18921,21.33019l-0.005,0.00539l0.0011,0.00046c-0.43005,0.47333-0.4021,1.20827,0.06592,1.64742
					c0.46802,0.43869,1.20007,0.41603,1.64001-0.04842v0.00046l0.005-0.00533c0.00098-0.00123,0.00208-0.0024,0.00305-0.00364
					c0.00696-0.00656,0.01196-0.0141,0.01697-0.02059l19.62903-22.67916l-0.00098,0.00006
					c0.0509-0.05481,0.04797-0.1396-0.00708-0.1906c-0.05396-0.05049-0.13794-0.04806-0.18896,0.0063V0.0426l-21.13599,21.26526
					c-0.00696,0.0061-0.01404,0.01168-0.02002,0.01824C1499.19226,21.32778,1499.19031,21.32902,1499.18921,21.33019"/>
			</defs>
			<clipPath id="SVGID_4_">
				<use xlink:href="#SVGID_3_"  style="overflow:visible;"/>
			</clipPath>
			
				<rect x="1492.68311" y="-3.61597" transform="matrix(0.99255 -0.12187 0.12187 0.99255 9.82691 184.08511)" class="st6" width="34.22815" height="30.64842"/>
		</g>
	</g>
</g>
</svg>
