<?xml version="1.0" encoding="utf-8"?>
<!-- Generator: Adobe Illustrator 18.0.0, SVG Export Plug-In . SVG Version: 6.00 Build 0)  -->
<!DOCTYPE svg PUBLIC "-//W3C//DTD SVG 1.1//EN" "http://www.w3.org/Graphics/SVG/1.1/DTD/svg11.dtd">
<svg version="1.1" id="Layer_1" xmlns="http://www.w3.org/2000/svg" xmlns:xlink="http://www.w3.org/1999/xlink" x="0px" y="0px"
	 viewBox="0 187 595.3 467.9" enable-background="new 0 187 595.3 467.9" xml:space="preserve" width="16px" height="16px">
<g>
	<path d="M57.1,331.2c7.5,5.2,30.1,21.1,68,47.4c37.9,26.3,66.8,46.3,87,60.5c2.3,1.7,6.9,4.9,14.2,10.1c7.3,5.2,13.2,9.5,18,12.5
		c4.9,3.2,10.5,6.9,17.3,10.7c6.7,4,13.2,6.9,19,8.9c6.1,2,11.5,3.1,16.5,3.1h0.4h0.4c5.1,0,10.5-1.1,16.5-3.1
		c6.1-2,12.4-5.1,19-8.9c6.7-4,12.5-7.5,17.3-10.7c4.9-3.2,10.7-7.5,18-12.5c7.3-5.1,11.9-8.5,14.2-10.1
		c20.5-14.2,72.3-50.2,155.5-107.9c16.2-11.3,29.8-24.9,40.5-41c11-16,16.2-32.6,16.2-50.2c0-14.5-5.2-27.1-15.8-37.5
		C569,192.2,556.6,187,542.1,187h-489c-17,0-30.1,5.7-39.3,17.3S0,230.2,0,247.5c0,13.9,6.1,29.2,18.2,45.4
		C30.4,309.2,43.3,322,57.1,331.2z"/>
	<path d="M561.8,366.9c-72.7,49.2-127.7,87.3-165.4,114.7c-12.5,9.3-22.9,16.5-30.8,21.7c-7.9,5.2-18.2,10.5-31.4,16
		c-13.2,5.5-25.4,8.1-36.4,8.1h-0.1h-0.4c-11.3,0-23.5-2.6-36.4-8.1c-13.2-5.5-23.5-10.7-31.4-16c-7.9-5.2-18-12.5-30.8-21.7
		c-30-21.9-84.9-60.1-165-114.7C21.1,358.4,9.8,348.9,0,338v263.8c0,14.5,5.2,27.1,15.6,37.5s22.9,15.6,37.5,15.6h489
		c14.5,0,27.1-5.2,37.5-15.6c10.4-10.4,15.6-22.9,15.6-37.5V338C585.8,348.4,574.6,358.2,561.8,366.9z"/>
</g>
</svg>
