<?xml version="1.0" encoding="utf-8"?>
<!-- Generator: Adobe Illustrator 17.1.0, SVG Export Plug-In . SVG Version: 6.00 Build 0)  -->
<!DOCTYPE svg PUBLIC "-//W3C//DTD SVG 1.1//EN" "http://www.w3.org/Graphics/SVG/1.1/DTD/svg11.dtd">
<svg version="1.1" id="Layer_1" xmlns="http://www.w3.org/2000/svg" xmlns:xlink="http://www.w3.org/1999/xlink" x="0px" y="0px"
	 viewBox="0 0 500 500" enable-background="new 0 0 500 500" xml:space="preserve" width="16px" height="16px">
<path d="M406.1,437.4v31.2c0,17.3-14,31.2-31.2,31.2H125c-17.2,0-31.2-14-31.2-31.2v-31.2C42,437.4,0,395.4,0,343.6v-93.7
	c0-51.8,42-93.7,93.7-93.7v-125C93.7,14,107.7,0,125,0h249.9c17.3,0,31.2,14,31.2,31.2v125c51.7,0,93.7,42,93.7,93.7v93.7
	C499.8,395.4,457.9,437.4,406.1,437.4z M125,468.6h249.9v-125H125V468.6z M374.9,31.2H125v125h31.2V62.5h187.4v93.7h31.2V31.2z
	 M187.4,93.7v62.5h125V93.7H187.4z M374.9,218.7h-31.2v31.2h31.2V218.7z M374.9,281.2H125c-34.5,0-62.5,28-62.5,62.5v31.2h31.2
	v-31.2c0-17.3,14-31.2,31.2-31.2h249.9c17.3,0,31.2,14,31.2,31.2v31.2h31.2v-31.2C437.4,309.2,409.4,281.2,374.9,281.2z
	 M437.4,218.7h-31.2v31.2h31.2V218.7z"/>
</svg>
