<?xml version="1.0" encoding="utf-8"?>
<!-- Generator: Adobe Illustrator 17.1.0, SVG Export Plug-In . SVG Version: 6.00 Build 0)  -->
<!DOCTYPE svg PUBLIC "-//W3C//DTD SVG 1.1//EN" "http://www.w3.org/Graphics/SVG/1.1/DTD/svg11.dtd">
<svg version="1.1" id="Layer_1" xmlns="http://www.w3.org/2000/svg" xmlns:xlink="http://www.w3.org/1999/xlink" x="0px" y="0px"
	 viewBox="0 0 500 392.9" enable-background="new 0 0 500 392.9" xml:space="preserve" width="16px" height="16px">
<g>
	<path fill="#4D4D4D" d="M48,121.1c6.3,4.4,25.3,17.7,57.1,39.8s56.1,38.9,73.1,50.8c1.9,1.4,5.8,4.1,11.9,8.5
		c6.1,4.4,11.1,8,15.1,10.5c4.1,2.7,8.8,5.8,14.5,9c5.6,3.4,11.1,5.8,16,7.5c5.1,1.7,9.7,2.6,13.9,2.6h0.3h0.3
		c4.3,0,8.8-0.9,13.9-2.6c5.1-1.7,10.4-4.3,16-7.5c5.6-3.4,10.5-6.3,14.5-9c4.1-2.7,9-6.3,15.1-10.5c6.1-4.3,10-7.1,11.9-8.5
		c17.2-11.9,60.7-42.2,130.6-90.6c13.6-9.5,25-20.9,34-34.4c9.2-13.4,13.6-27.4,13.6-42.2c0-12.2-4.4-22.8-13.3-31.5
		C477.9,4.4,467.5,0,455.3,0H44.6c-14.3,0-25.3,4.8-33,14.5S0,36.2,0,50.7c0,11.7,5.1,24.5,15.3,38.1
		C25.5,102.5,36.4,113.3,48,121.1z"/>
	<path fill="#4D4D4D" d="M471.9,151c-61.1,41.3-107.3,73.3-138.9,96.3c-10.5,7.8-19.2,13.9-25.9,18.2c-6.6,4.4-15.3,8.8-26.4,13.4
		c-11.1,4.6-21.3,6.8-30.6,6.8H250h-0.3c-9.5,0-19.7-2.2-30.6-6.8c-11.1-4.6-19.7-9-26.4-13.4c-6.6-4.4-15.1-10.5-25.9-18.2
		c-25.2-18.4-71.3-50.5-138.6-96.3C17.7,143.9,8.2,135.9,0,126.7v221.6c0,12.2,4.4,22.8,13.1,31.5c8.7,8.7,19.2,13.1,31.5,13.1
		h410.7c12.2,0,22.8-4.4,31.5-13.1c8.7-8.7,13.1-19.2,13.1-31.5V126.7C492,135.5,482.6,143.7,471.9,151z"/>
</g>
</svg>
