<?xml version="1.0" encoding="utf-8"?>
<!-- Generator: Adobe Illustrator 17.1.0, SVG Export Plug-In . SVG Version: 6.00 Build 0)  -->
<!DOCTYPE svg PUBLIC "-//W3C//DTD SVG 1.1//EN" "http://www.w3.org/Graphics/SVG/1.1/DTD/svg11.dtd">
<svg version="1.1" id="Layer_1" xmlns="http://www.w3.org/2000/svg" xmlns:xlink="http://www.w3.org/1999/xlink" x="0px" y="0px"
	 viewBox="0 0 500 184.6" enable-background="new 0 0 500 184.6" xml:space="preserve" width="16px" height="16px">
<g>
	<g>
		<path fill="#FFFFFF" d="M32.1,184.6l87.9,0c17.5,0,31.7-14.8,31.7-32.9v-44.3c2.2-0.6,4.4-1.3,6.8-1.9
			c21.7-6.2,51.5-14.7,91.7-14.7c40.4,0,70.2,8.5,91.9,14.8c2.3,0.7,4.5,1.3,6.6,1.9l0,29.7l0,14.6c0,18.1,14.2,32.9,31.7,32.9
			l87.9,0c17.5,0,31.7-14.8,31.7-32.9l-0.7-24.8l0,0c-1.1-9.4-3.8-19-7.8-28.2c-3.9-8.7-8.4-16.1-13.7-22.8
			C435.5,22,369.5,0,250.2,0C85.4,0,25.1,72.7,22.6,75.8c-5.5,7-10,14.5-13.7,22.9c-4,9.1-6.6,18.7-7.8,28.1l-0.5,0l-0.3,24.8
			C0.4,169.8,14.6,184.6,32.1,184.6z"/>
	</g>
</g>
</svg>
