<?xml version="1.0" encoding="utf-8"?>
<!-- Generator: Adobe Illustrator 17.1.0, SVG Export Plug-In . SVG Version: 6.00 Build 0)  -->
<!DOCTYPE svg PUBLIC "-//W3C//DTD SVG 1.1//EN" "http://www.w3.org/Graphics/SVG/1.1/DTD/svg11.dtd">
<svg version="1.1" id="Layer_1" xmlns="http://www.w3.org/2000/svg" xmlns:xlink="http://www.w3.org/1999/xlink" x="0px" y="0px"
	 viewBox="0 0 500 500" enable-background="new 0 0 500 500" xml:space="preserve" width="28px" height="28px">
<path fill="#CC0000" d="M250,0C111.9,0,0,111.9,0,250s111.9,250,250,250s250-111.9,250-250S388.1,0,250,0z"/>
<g>
	<path fill="#FFFFFF" d="M131.2,205.7c3.7,2.6,14.9,10.4,33.6,23.4s33,22.9,43,29.9c1.1,0.8,3.4,2.4,7,5s6.5,4.7,8.9,6.2
		c2.4,1.6,5.2,3.4,8.5,5.3c3.3,2,6.5,3.4,9.4,4.4c3,1,5.7,1.5,8.2,1.5h0.2h0.2c2.5,0,5.2-0.5,8.2-1.5s6.1-2.5,9.4-4.4
		c3.3-2,6.2-3.7,8.5-5.3c2.4-1.6,5.3-3.7,8.9-6.2s5.9-4.2,7-5c10.1-7,35.7-24.8,76.8-53.3c8-5.6,14.7-12.3,20-20.2
		c5.4-7.9,8-16.1,8-24.8c0-7.2-2.6-13.4-7.8-18.5c-5.2-5.1-11.3-7.7-18.5-7.7H129.2c-8.4,0-14.9,2.8-19.4,8.5s-6.8,12.8-6.8,21.3
		c0,6.9,3,14.4,9,22.4C118,194.8,124.4,201.1,131.2,205.7z"/>
	<path fill="#FFFFFF" d="M380.5,223.3c-35.9,24.3-63.1,43.1-81.7,56.6c-6.2,4.6-11.3,8.2-15.2,10.7c-3.9,2.6-9,5.2-15.5,7.9
		c-6.5,2.7-12.5,4-18,4H250h-0.2c-5.6,0-11.6-1.3-18-4c-6.5-2.7-11.6-5.3-15.5-7.9s-8.9-6.2-15.2-10.7
		c-14.8-10.8-41.9-29.7-81.5-56.6c-6.2-4.2-11.8-8.9-16.6-14.3v130.3c0,7.2,2.6,13.4,7.7,18.5s11.3,7.7,18.5,7.7h241.5
		c7.2,0,13.4-2.6,18.5-7.7s7.7-11.3,7.7-18.5V209C392.3,214.2,386.8,219,380.5,223.3z"/>
</g>
</svg>
