<?xml version="1.0" encoding="utf-8"?>
<!-- Generator: Adobe Illustrator 17.1.0, SVG Export Plug-In . SVG Version: 6.00 Build 0)  -->
<!DOCTYPE svg PUBLIC "-//W3C//DTD SVG 1.1//EN" "http://www.w3.org/Graphics/SVG/1.1/DTD/svg11.dtd">
<svg version="1.1" id="Layer_1" xmlns="http://www.w3.org/2000/svg" xmlns:xlink="http://www.w3.org/1999/xlink" x="0px" y="0px"
	 viewBox="0 0 500 500" enable-background="new 0 0 500 500" xml:space="preserve" width="28px" height="28px">
<path fill="#1985BC" d="M250,0C111.9,0,0,111.9,0,250s111.9,250,250,250s250-111.9,250-250S388.1,0,250,0z"/>
<g>
	<g>
		<g>
			<path fill="#FFFFFF" d="M110.6,201.7h59.8v192.2h-59.8C110.6,393.9,110.6,201.7,110.6,201.7z M140.5,106.1
				c19.1,0,34.6,15.5,34.6,34.6s-15.5,34.6-34.6,34.6s-34.6-15.5-34.6-34.6C105.9,121.7,121.4,106.1,140.5,106.1"/>
			<path fill="#FFFFFF" d="M207.9,201.7h57.3v26.2h0.8c8-15.1,27.5-31,56.5-31c60.4,0,71.6,39.8,71.6,91.6v105.4h-59.7v-93.5
				c0-22.3-0.4-51-31-51c-31.1,0-35.8,24.3-35.8,49.3v95.1h-59.7L207.9,201.7L207.9,201.7z"/>
		</g>
	</g>
</g>
</svg>
