<?xml version="1.0" encoding="utf-8"?>
<!-- Generator: Adobe Illustrator 17.1.0, SVG Export Plug-In . SVG Version: 6.00 Build 0)  -->
<!DOCTYPE svg PUBLIC "-//W3C//DTD SVG 1.1//EN" "http://www.w3.org/Graphics/SVG/1.1/DTD/svg11.dtd">
<svg version="1.1" id="Layer_1" xmlns="http://www.w3.org/2000/svg" xmlns:xlink="http://www.w3.org/1999/xlink" x="0px" y="0px"
	 viewBox="0 0 500 500" enable-background="new 0 0 500 500" xml:space="preserve" width="32px" height="32px">
<g>
	<path fill="#25CEF5" d="M250,0C111.9,0,0,111.9,0,250s111.9,250,250,250s250-111.9,250-250S388.1,0,250,0z"/>
</g>
<path fill="#FFFFFF" d="M385.7,281.5c2.1-9.5,3.2-19.4,3.2-29.5c0-75.9-61.5-137.4-137.4-137.4c-8,0-15.9,0.7-23.5,2
	c-12.3-7.7-26.8-12.2-42.4-12.2c-44,0-79.7,35.7-79.7,79.7c0,14.7,4,28.5,11,40.3c-1.8,8.9-2.8,18.2-2.8,27.6
	c0,75.9,61.5,137.4,137.4,137.4c8.6,0,17-0.8,25.2-2.3c11.2,6,24,9.4,37.7,9.4c44,0,79.7-35.7,79.7-79.7
	C394,304.2,391,292.2,385.7,281.5z M321.9,317.5c-6.3,9-15.7,16.1-27.9,21.2c-12,5-26.5,7.5-42.9,7.5c-19.7,0-36.3-3.5-49.2-10.3
	c-9.2-5-16.8-11.8-22.6-20.1c-5.8-8.4-8.8-16.7-8.8-24.8c0-5.1,1.9-9.4,5.7-13c3.7-3.5,8.5-5.3,14.3-5.3c4.7,0,8.8,1.4,12.1,4.2
	c3.2,2.7,5.9,6.7,8.1,11.8c2.4,5.6,5.1,10.3,7.9,14c2.7,3.6,6.5,6.6,11.5,8.9c5,2.4,11.7,3.6,20,3.6c11.4,0,20.7-2.4,27.7-7.2
	c6.9-4.6,10.2-10.2,10.2-17.1c0-5.4-1.7-9.7-5.3-13c-3.8-3.5-8.7-6.2-14.7-8.1c-6.2-1.9-14.7-4-25.2-6.2c-14.3-3.1-26.4-6.7-36-10.8
	c-9.9-4.2-17.8-10-23.6-17.3c-5.9-7.4-8.9-16.6-8.9-27.5c0-10.4,3.1-19.7,9.3-27.8c6.2-8,15.2-14.2,26.7-18.5
	c11.4-4.2,25-6.3,39.9-6.6c12.3,0,23.1,1.4,32.1,4.2c9.1,2.8,16.7,6.6,22.7,11.3c6.1,4.7,10.6,9.8,13.4,15
	c2.9,5.3,4.3,10.6,4.3,15.7c0,5-1.9,9.4-5.6,13.3c-3.8,3.9-8.5,5.9-14.1,5.9c-5.1,0-9-1.3-11.8-3.7c-2.6-2.3-5.2-5.8-8.2-10.9
	c-3.4-6.6-7.5-11.7-12.3-15.3c-4.6-3.5-12.3-5.3-22.9-5.3c-9.8,0-17.9,2-23.8,5.9c-5.7,3.8-8.5,8.1-8.5,13.2c0,3.1,0.9,5.7,2.7,8
	c2,2.4,4.7,4.5,8.2,6.2c3.7,1.8,7.4,3.3,11.1,4.3c3.8,1.1,10.2,2.7,19,4.7c11.1,2.3,21.4,5,30.4,7.9c9.1,2.9,17.1,6.5,23.5,10.7
	c6.6,4.3,11.8,9.8,15.5,16.4s5.6,14.7,5.6,24.2C331.5,298.2,328.3,308.5,321.9,317.5z"/>
</svg>
