<?xml version="1.0" encoding="utf-8"?>
<!-- Generator: Adobe Illustrator 18.0.0, SVG Export Plug-In . SVG Version: 6.00 Build 0)  -->
<!DOCTYPE svg PUBLIC "-//W3C//DTD SVG 1.1//EN" "http://www.w3.org/Graphics/SVG/1.1/DTD/svg11.dtd">
<svg version="1.1" id="Layer_1" xmlns="http://www.w3.org/2000/svg" xmlns:xlink="http://www.w3.org/1999/xlink" x="0px" y="0px"
	 viewBox="0 123.3 595.3 595.2" enable-background="new 0 123.3 595.3 595.2" xml:space="preserve" width="32px" height="32px">
<path fill="#FFFFFF" d="M482.8,499.2h-74.5c-14.9,0-26.9-12.5-26.9-27.9v-12.4v-25.2c-1.8-0.5-3.7-1.1-5.6-1.7
	c-18.5-5.4-43.7-12.5-78-12.5c-34.1,0-59.4,7.3-77.7,12.5c-2,0.5-3.9,1.1-5.7,1.7v37.6c0,15.4-12,27.9-26.9,27.9h-74.5
	c-14.9,0-26.9-12.5-27-28l0.2-21.1h0.5c1.1-8,3.2-16.1,6.7-23.8c3.1-7.1,6.9-13.5,11.7-19.4c2.1-2.6,53.2-64.3,193-64.3
	c101.2,0,157.2,18.7,193,64.4c4.5,5.7,8.3,11.9,11.7,19.3c3.3,7.9,5.7,16,6.7,23.9l0.6,21.1C509.7,486.6,497.7,499.2,482.8,499.2z"
	/>
</svg>
