<?xml version="1.0" encoding="utf-8"?>
<!-- Generator: Adobe Illustrator 17.1.0, SVG Export Plug-In . SVG Version: 6.00 Build 0)  -->
<!DOCTYPE svg PUBLIC "-//W3C//DTD SVG 1.1//EN" "http://www.w3.org/Graphics/SVG/1.1/DTD/svg11.dtd">
<svg version="1.1" id="Layer_1" xmlns="http://www.w3.org/2000/svg" xmlns:xlink="http://www.w3.org/1999/xlink" x="0px" y="0px"
	 viewBox="0 0 500 500" enable-background="new 0 0 500 500" xml:space="preserve" width="28px" height="28px">
<g>
	<path fill="#FFFFFF" d="M394.5,160.5c-10.6,4.7-22,7.9-34,9.3c12.2-7.3,21.6-18.9,26-32.8c-11.4,6.8-24.1,11.7-37.6,14.4
		c-10.8-11.5-26.2-18.7-43.2-18.7c-32.7,0-59.2,26.5-59.2,59.2c0,4.6,0.5,9.2,1.5,13.5c-49.2-2.5-92.9-26-122.1-61.9
		c-5.1,8.7-8,18.9-8,29.8c0,20.5,10.5,38.7,26.3,49.3c-9.7-0.3-18.8-3-26.8-7.4c0,0.2,0,0.5,0,0.7c0,28.7,20.4,52.6,47.5,58.1
		c-5,1.4-10.2,2.1-15.6,2.1c-3.8,0-7.5-0.4-11.1-1.1c7.5,23.5,29.4,40.7,55.3,41.1c-20.3,15.9-45.8,25.4-73.6,25.4
		c-4.8,0-9.5-0.3-14.1-0.8c26.2,16.8,57.3,26.6,90.8,26.6c108.9,0,168.5-90.2,168.5-168.5c0-2.6-0.1-5.1-0.2-7.7
		C376.5,182.8,386.5,172.3,394.5,160.5z"/>
</g>
</svg>
