<?xml version="1.0" encoding="utf-8"?>
<!-- Generator: Adobe Illustrator 18.0.0, SVG Export Plug-In . SVG Version: 6.00 Build 0)  -->
<!DOCTYPE svg PUBLIC "-//W3C//DTD SVG 1.1//EN" "http://www.w3.org/Graphics/SVG/1.1/DTD/svg11.dtd">
<svg version="1.1" id="Layer_1" xmlns="http://www.w3.org/2000/svg" xmlns:xlink="http://www.w3.org/1999/xlink" x="0px" y="0px"
	 viewBox="66.1 123.3 529.2 595" enable-background="new 66.1 123.3 529.2 595" xml:space="preserve" width="32px" height="32px">
<g>
	<path fill="#FFFFFF" d="M496.1,520.4c-22.7,0-43.6,7.7-60.4,20.6L263,437.4c0.8-5.4,1.4-10.7,1.4-16.2c0-5.6-0.6-11-1.4-16.2
		l172.8-103.6c16.8,12.9,37.6,20.6,60.4,20.6c54.8,0,99.2-44.4,99.2-99.2s-44.4-99.5-99.2-99.5s-99.2,44.4-99.2,99.2
		c0,5.6,0.6,11,1.4,16.2L225.6,342.2c-16.8-12.9-37.6-20.6-60.4-20.6c-54.8,0-99.2,44.4-99.2,99.2s44.4,99.2,99.2,99.2
		c22.7,0,43.6-7.7,60.4-20.6L398.4,603c-0.8,5.4-1.4,10.7-1.4,16.2c0,54.8,44.4,99.2,99.2,99.2s99.2-44.4,99.2-99.2
		S550.9,520.4,496.1,520.4z"/>
</g>
</svg>
