<?xml version="1.0" encoding="utf-8"?>
<!-- Generator: Adobe Illustrator 18.1.1, SVG Export Plug-In . SVG Version: 6.00 Build 0)  -->
<svg version="1.1" id="Layer_1" xmlns="http://www.w3.org/2000/svg" xmlns:xlink="http://www.w3.org/1999/xlink" x="0px" y="0px"
	 width="28px" height="28px" viewBox="-283 406.9 28 28" enable-background="new -283 406.9 28 28" xml:space="preserve">
<path fill="#FFFFFF" d="M-269,412.3c-4.9,0-8.9,3.5-8.9,7.8c0,2.2,1.1,4.2,2.7,5.6c-0.3,2.1-2.7,2.9-2.5,3.5c2,0.9,5.9-0.9,6.9-1.4
	c0.6,0.1,1.3,0.2,1.9,0.2c4.9,0,8.8-3.6,8.8-7.9S-264.1,412.3-269,412.3z"/>
<path fill="#6DAF2B" d="M-269.4,404.8c-8.8,0-16,7.2-16,16c0,8.8,7.2,16,16,16s16-7.2,16-16S-260.6,404.8-269.4,404.8z M-268.9,428
	c-0.6,0-1.3-0.1-1.9-0.2c-1,0.5-4.9,2.3-6.9,1.4c-0.2-0.6,2.2-1.4,2.5-3.5c-1.6-1.4-2.7-3.4-2.7-5.6c0-4.3,4-7.8,8.9-7.8
	c4.9,0,8.9,3.5,8.9,7.8C-260.1,424.4-264,428-268.9,428z"/>
</svg>
