<?xml version="1.0" encoding="utf-8"?>
<!-- Generator: Adobe Illustrator 18.0.0, SVG Export Plug-In . SVG Version: 6.00 Build 0)  -->
<!DOCTYPE svg PUBLIC "-//W3C//DTD SVG 1.1//EN" "http://www.w3.org/Graphics/SVG/1.1/DTD/svg11.dtd">
<svg version="1.1" xmlns="http://www.w3.org/2000/svg" xmlns:xlink="http://www.w3.org/1999/xlink" x="0px" y="0px"
	 viewBox="0 123.3 595.3 595.3" enable-background="new 0 123.3 595.3 595.3" xml:space="preserve" width="32px" height="32px">
<g id="Layer_2">
	<rect x="102" y="223.9" fill="#FFFFFF" stroke="#000000" stroke-miterlimit="10" width="379" height="394"/>
</g>
<g id="Layer_1">
	<path fill="#1985BC" d="M297.6,123.3C133.2,123.3,0,256.5,0,420.9s133.2,297.6,297.6,297.6s297.6-133.2,297.6-297.6
		S462.1,123.3,297.6,123.3z M202.9,592.3h-71.2V363.4h71.2V592.3z M167.3,332c-22.7,0-41.2-18.5-41.2-41.2
		c0-22.6,18.5-41.2,41.2-41.2s41.2,18.5,41.2,41.2S190,332,167.3,332z M469.2,592.3h-71.1V480.9c0-26.5-0.5-60.7-36.9-60.7
		c-37,0-42.6,28.9-42.6,58.7v113.2h-71.1V363.4h68.2v31.2h1c9.5-18,32.7-36.9,67.3-36.9c71.9,0,85.2,47.4,85.2,109.1V592.3z"/>
</g>
</svg>
