<?xml version="1.0" encoding="utf-8"?>
<!-- Generator: Adobe Illustrator 18.0.0, SVG Export Plug-In . SVG Version: 6.00 Build 0)  -->
<!DOCTYPE svg PUBLIC "-//W3C//DTD SVG 1.1//EN" "http://www.w3.org/Graphics/SVG/1.1/DTD/svg11.dtd">
<svg version="1.1" id="Layer_1" xmlns="http://www.w3.org/2000/svg" xmlns:xlink="http://www.w3.org/1999/xlink" x="0px" y="0px"
	 width="32px" height="32px" viewBox="0 0 32 32" enable-background="new 0 0 32 32" xml:space="preserve">
<path fill="#6DAF2B" d="M16,0C7.2,0,0,7.2,0,16s7.2,16,16,16s16-7.2,16-16S24.8,0,16,0z M16.5,23.2c-0.6,0-1.3-0.1-1.9-0.2
	c-1,0.5-4.9,2.3-6.9,1.4c-0.2-0.6,2.2-1.4,2.5-3.5c-1.6-1.4-2.7-3.4-2.7-5.6c0-4.3,4-7.8,8.9-7.8c4.9,0,8.9,3.5,8.9,7.8
	S21.4,23.2,16.5,23.2z"/>
</svg>
