<?xml version="1.0" encoding="utf-8"?>
<!-- Generator: Adobe Illustrator 18.0.0, SVG Export Plug-In . SVG Version: 6.00 Build 0)  -->
<!DOCTYPE svg PUBLIC "-//W3C//DTD SVG 1.1//EN" "http://www.w3.org/Graphics/SVG/1.1/DTD/svg11.dtd">
<svg version="1.1" xmlns="http://www.w3.org/2000/svg" xmlns:xlink="http://www.w3.org/1999/xlink" x="0px" y="0px"
	 viewBox="0 123.3 595.3 595.3" enable-background="new 0 123.3 595.3 595.3" xml:space="preserve" width="32px" height="32px">
<g id="Layer_2">
	<rect x="119" y="268.9" fill="#FFFFFF" width="375" height="308"/>
</g>
<g id="Layer_1">
	<path fill="#5EA9DD" d="M297.6,123.3C133.2,123.3,0,256.5,0,420.9s133.2,297.6,297.6,297.6s297.6-133.2,297.6-297.6
		S462.1,123.3,297.6,123.3z M434.4,350.8c0.1,3.1,0.2,6.1,0.2,9.2c0,93.2-71,200.6-200.6,200.6c-39.9,0-76.9-11.7-108.1-31.7
		c5.5,0.6,11.1,1,16.8,1c33.1,0,63.5-11.3,87.6-30.2c-30.8-0.5-56.9-21-65.8-48.9c4.3,0.8,8.7,1.3,13.2,1.3c6.4,0,12.6-0.8,18.6-2.5
		c-32.3-6.5-56.6-35-56.6-69.2c0-0.2,0-0.6,0-0.8c9.5,5.2,20.4,8.5,31.9,8.8c-18.8-12.6-31.3-34.3-31.3-58.7c0-13,3.5-25.1,9.5-35.5
		c34.8,42.7,86.8,70.7,145.4,73.7c-1.2-5.1-1.8-10.6-1.8-16.1c0-38.9,31.5-70.5,70.5-70.5c20.2,0,38.6,8.6,51.4,22.3
		c16.1-3.2,31.2-9,44.8-17.1c-5.2,16.5-16.4,30.4-31,39.1c14.3-1.7,27.9-5.5,40.5-11.1C460.2,328.4,448.2,340.9,434.4,350.8z"/>
</g>
</svg>
