<?xml version="1.0" encoding="utf-8"?>
<!-- Generator: Adobe Illustrator 18.0.0, SVG Export Plug-In . SVG Version: 6.00 Build 0)  -->
<!DOCTYPE svg PUBLIC "-//W3C//DTD SVG 1.1//EN" "http://www.w3.org/Graphics/SVG/1.1/DTD/svg11.dtd">
<svg version="1.1" xmlns="http://www.w3.org/2000/svg" xmlns:xlink="http://www.w3.org/1999/xlink" x="0px" y="0px"
	 viewBox="0 123.3 595.3 595.3" enable-background="new 0 123.3 595.3 595.3" xml:space="preserve" width="32px" height="32px">
<g id="Layer_2">
	<g>
		<path fill="#4D4D4D" d="M156.2,368.2c4.4,3.1,17.7,12.4,40,27.9c22.3,15.5,39.3,27.3,51.2,35.6c1.3,1,4,2.9,8.3,6
			c4.3,3.1,7.7,5.6,10.6,7.4c2.9,1.9,6.2,4,10.1,6.3c3.9,2.4,7.7,4,11.2,5.2c3.6,1.2,6.8,1.8,9.8,1.8h0.2h0.2c3,0,6.2-0.6,9.8-1.8
			s7.3-3,11.2-5.2c3.9-2.4,7.4-4.4,10.1-6.3c2.9-1.9,6.3-4.4,10.6-7.4c4.3-3,7-5,8.3-6c12-8.3,42.5-29.5,91.4-63.5
			c9.5-6.7,17.5-14.6,23.8-24c6.4-9.4,9.5-19.2,9.5-29.5c0-8.6-3.1-16-9.3-22c-6.2-6.1-13.5-9.2-22-9.2H153.8
			c-10,0-17.7,3.3-23.1,10.1c-5.4,6.8-8.1,15.2-8.1,25.4c0,8.2,3.6,17.1,10.7,26.7C140.5,355.2,148.1,362.7,156.2,368.2z"/>
		<path fill="#4D4D4D" d="M453,389.2c-42.7,28.9-75.1,51.3-97.3,67.4c-7.4,5.5-13.5,9.8-18.1,12.7c-4.6,3.1-10.7,6.2-18.5,9.4
			c-7.7,3.2-14.9,4.8-21.4,4.8h-0.1h-0.2c-6.7,0-13.8-1.5-21.4-4.8c-7.7-3.2-13.8-6.3-18.5-9.4c-4.6-3.1-10.6-7.4-18.1-12.7
			c-17.6-12.9-49.9-35.4-97-67.4c-7.4-5-14-10.6-19.8-17v155.1c0,8.6,3.1,16,9.2,22c6.1,6.1,13.5,9.2,22,9.2h287.5
			c8.6,0,16-3.1,22-9.2c6.1-6.1,9.2-13.5,9.2-22V372.1C467.1,378.3,460.5,384,453,389.2z"/>
	</g>
</g>
<g id="Layer_1">
</g>
</svg>
