<?xml version="1.0" encoding="utf-8"?>
<!-- Generator: Adobe Illustrator 18.0.0, SVG Export Plug-In . SVG Version: 6.00 Build 0)  -->
<!DOCTYPE svg PUBLIC "-//W3C//DTD SVG 1.1//EN" "http://www.w3.org/Graphics/SVG/1.1/DTD/svg11.dtd">
<svg version="1.1" xmlns="http://www.w3.org/2000/svg" xmlns:xlink="http://www.w3.org/1999/xlink" x="0px" y="0px"
	 viewBox="0 123.3 595.3 595.3" enable-background="new 0 123.3 595.3 595.3" xml:space="preserve" width="32px" height="32px">
<g id="Layer_2">
	<rect x="102" y="235.9" fill="#FFFFFF" width="381" height="379"/>
</g>
<g id="Layer_1">
	<g>
		<path fill="#25CEF5" d="M369.5,416.4c-7.6-5-17.1-9.3-28-12.7c-10.7-3.5-23-6.7-36.2-9.4c-10.5-2.4-18.1-4.3-22.6-5.6
			c-4.4-1.2-8.8-3-13.2-5.1c-4.2-2-7.4-4.5-9.8-7.4c-2.1-2.7-3.2-5.8-3.2-9.5c0-6.1,3.3-11.2,10.1-15.7c7-4.6,16.7-7,28.3-7
			c12.6,0,21.8,2.1,27.3,6.3c5.7,4.3,10.6,10.4,14.6,18.2c3.6,6.1,6.7,10.2,9.8,13c3.3,2.9,8,4.4,14,4.4c6.7,0,12.3-2.4,16.8-7
			c4.4-4.6,6.7-9.9,6.7-15.8c0-6.1-1.7-12.4-5.1-18.7c-3.3-6.2-8.7-12.3-16-17.9c-7.1-5.6-16.2-10.1-27-13.5
			c-10.7-3.3-23.6-5-38.2-5c-17.7,0.4-33.9,2.9-47.5,7.9c-13.7,5.1-24.4,12.5-31.8,22c-7.4,9.6-11.1,20.7-11.1,33.1
			c0,13,3.6,23.9,10.6,32.7c6.9,8.7,16.3,15.6,28.1,20.6c11.4,4.9,25.8,9.2,42.9,12.9c12.5,2.6,22.6,5.1,30,7.4
			c7.1,2.3,13,5.5,17.5,9.6c4.3,3.9,6.3,9,6.3,15.5c0,8.2-3.9,14.9-12.1,20.4c-8.3,5.7-19.4,8.6-33,8.6c-9.9,0-17.9-1.4-23.8-4.3
			c-6-2.7-10.5-6.3-13.7-10.6c-3.3-4.4-6.5-10-9.4-16.7c-2.6-6.1-5.8-10.8-9.6-14c-3.9-3.3-8.8-5-14.4-5c-6.9,0-12.6,2.1-17,6.3
			c-4.5,4.3-6.8,9.4-6.8,15.5c0,9.6,3.6,19.5,10.5,29.5c6.9,9.9,16,18,26.9,23.9c15.4,8.1,35.1,12.3,58.6,12.3
			c19.5,0,36.8-3,51.1-8.9c14.5-6.1,25.7-14.5,33.2-25.2c7.6-10.7,11.4-23,11.4-36.6c0-11.3-2.3-21-6.7-28.8
			S377.4,421.5,369.5,416.4z"/>
		<path fill="#25CEF5" d="M297.6,123.3C133.2,123.3,0,256.5,0,420.9s133.2,297.6,297.6,297.6s297.6-133.2,297.6-297.6
			S462.1,123.3,297.6,123.3z M374.3,595.4c-16.3,0-31.5-4-44.9-11.2c-9.8,1.8-19.8,2.7-30,2.7c-90.4,0-163.6-73.2-163.6-163.6
			c0-11.2,1.2-22.3,3.3-32.9c-8.3-14-13.1-30.5-13.1-48c0-52.4,42.5-94.9,94.9-94.9c18.6,0,35.8,5.4,50.5,14.5
			c9-1.5,18.5-2.4,28-2.4c90.4,0,163.6,73.2,163.6,163.6c0,12-1.3,23.8-3.8,35.1c6.3,12.7,9.9,27,10,42
			C469.2,552.9,426.7,595.4,374.3,595.4z"/>
	</g>
</g>
</svg>
