<?xml version="1.0" encoding="utf-8"?>
<!-- Generator: Adobe Illustrator 18.0.0, SVG Export Plug-In . SVG Version: 6.00 Build 0)  -->
<!DOCTYPE svg PUBLIC "-//W3C//DTD SVG 1.1//EN" "http://www.w3.org/Graphics/SVG/1.1/DTD/svg11.dtd">
<svg version="1.1" xmlns="http://www.w3.org/2000/svg" xmlns:xlink="http://www.w3.org/1999/xlink" x="0px" y="0px"
	 viewBox="0 123.3 595.3 595.3" enable-background="new 0 123.3 595.3 595.3" xml:space="preserve" width="32px" height="32px">
<g id="Layer_2">
	<g>
		<path fill="#4D4D4D" d="M126.3,249.5v65.7c152.6,0,276.9,124.4,276.9,277.2h65.8C469.1,403.3,315.3,249.5,126.3,249.5z"/>
		<path fill="#4D4D4D" d="M126.2,365.9v65.7c42.9,0,83,16.8,113.3,47c30.2,30.2,47,70.7,47,113.7h66.1
			C352.5,467.5,251,365.9,126.2,365.9z"/>
		<path fill="#4D4D4D" d="M171.8,501c-25.2,0-45.6,20.5-45.6,45.6c0,25.2,20.5,45.5,45.6,45.5c25.2,0,45.7-20.4,45.7-45.5
			C217.5,521.5,197,501,171.8,501z"/>
	</g>
</g>
<g id="Layer_1">
</g>
</svg>
