<?xml version="1.0" encoding="utf-8"?>
<!-- Generator: Adobe Illustrator 18.0.0, SVG Export Plug-In . SVG Version: 6.00 Build 0)  -->
<!DOCTYPE svg PUBLIC "-//W3C//DTD SVG 1.1//EN" "http://www.w3.org/Graphics/SVG/1.1/DTD/svg11.dtd">
<svg version="1.1" xmlns="http://www.w3.org/2000/svg" xmlns:xlink="http://www.w3.org/1999/xlink" x="0px" y="0px"
	 viewBox="0 123.3 595.3 595.3" enable-background="new 0 123.3 595.3 595.3" xml:space="preserve" width="32px" height="32px">
<g id="Layer_2">
	<rect x="108" y="226.9" fill="#FFFFFF" stroke="#000000" stroke-miterlimit="10" width="375" height="383"/>
</g>
<g id="Layer_1">
	<path fill="#FE9900" d="M297.6,123.3C133.2,123.3,0,256.5,0,420.9s133.2,297.6,297.6,297.6s297.6-133.2,297.6-297.6
		S462.1,123.3,297.6,123.3z M171.8,592c-25.1,0-45.6-20.2-45.6-45.5c0-25.1,20.4-45.6,45.6-45.6s45.7,20.6,45.7,45.6
		C217.5,571.7,197,592,171.8,592z M286.6,592.4c0-43-16.8-83.5-47-113.7c-30.4-30.2-70.5-47-113.3-47v-65.7
		c124.8,0,226.3,101.6,226.4,226.4H286.6z M403.2,592.4c0-152.7-124.3-277.2-276.9-277.2v-65.7c188.9,0,342.8,153.8,342.8,342.9
		H403.2z"/>
</g>
</svg>
