<?xml version="1.0" encoding="utf-8"?>
<!-- Generator: Adobe Illustrator 18.0.0, SVG Export Plug-In . SVG Version: 6.00 Build 0)  -->
<!DOCTYPE svg PUBLIC "-//W3C//DTD SVG 1.1//EN" "http://www.w3.org/Graphics/SVG/1.1/DTD/svg11.dtd">
<svg version="1.1" id="Layer_1" xmlns="http://www.w3.org/2000/svg" xmlns:xlink="http://www.w3.org/1999/xlink" x="0px" y="0px"
	 width="28px" height="28px" viewBox="0 0 28 28" enable-background="new 0 0 28 28" xml:space="preserve">
<path fill="#CD201F" d="M14,0C6.3,0,0,6.3,0,14s6.3,14,14,14s14-6.3,14-14S21.7,0,14,0z"/>
<g id="Lozenge">
	<g>
		<path fill="#FFFFFF" d="M22.9,10.3c0,0-0.2-1.3-0.7-1.8c-0.7-0.7-1.5-0.7-1.8-0.8C17.8,7.5,14,7.5,14,7.5l0,0c0,0-3.8,0-6.4,0.2
			c-0.4,0-1.1,0-1.8,0.8c-0.5,0.6-0.7,1.8-0.7,1.8s-0.2,1.5-0.2,3v1.4c0,1.5,0.2,3,0.2,3s0.2,1.3,0.7,1.8c0.7,0.7,1.6,0.7,2,0.8
			c1.5,0.1,6.2,0.2,6.2,0.2s3.8,0,6.4-0.2c0.4,0,1.1,0,1.8-0.8c0.5-0.6,0.7-1.8,0.7-1.8s0.2-1.5,0.2-3v-1.4
			C23.1,11.8,22.9,10.3,22.9,10.3z M12.1,16.3v-5.1l4.9,2.6L12.1,16.3z"/>
	</g>
</g>
</svg>
