<?xml version="1.0" encoding="utf-8"?>
<!-- Generator: Adobe Illustrator 18.0.0, SVG Export Plug-In . SVG Version: 6.00 Build 0)  -->
<!DOCTYPE svg PUBLIC "-//W3C//DTD SVG 1.1//EN" "http://www.w3.org/Graphics/SVG/1.1/DTD/svg11.dtd">
<svg version="1.1" xmlns="http://www.w3.org/2000/svg" xmlns:xlink="http://www.w3.org/1999/xlink" x="0px" y="0px"
	 viewBox="0 123.3 595.3 595.3" enable-background="new 0 123.3 595.3 595.3" xml:space="preserve" width="32px" height="32px">
<g id="Layer_2">
	<rect x="145" y="229.9" fill="#FFFFFF" stroke="#000000" stroke-miterlimit="10" width="277" height="393"/>
</g>
<g id="Layer_1">
	<path fill="#3B589C" d="M297.6,123.3C133.2,123.3,0,256.5,0,420.9s133.2,297.6,297.6,297.6s297.6-133.2,297.6-297.6
		S462.1,123.3,297.6,123.3z M386,307.1h-32c-25.1,0-30,12-30,29.5v38.7h60l-7.9,60.5H324v155.4h-62.5V435.8h-52.3v-60.5h52.3v-44.6
		c0-51.8,31.7-80,77.9-80c22.1,0,41.1,1.7,46.7,2.4V307.1z"/>
</g>
</svg>
