<?xml version="1.0" encoding="utf-8"?>
<!-- Generator: Adobe Illustrator 18.0.0, SVG Export Plug-In . SVG Version: 6.00 Build 0)  -->
<!DOCTYPE svg PUBLIC "-//W3C//DTD SVG 1.1//EN" "http://www.w3.org/Graphics/SVG/1.1/DTD/svg11.dtd">
<svg version="1.1" xmlns="http://www.w3.org/2000/svg" xmlns:xlink="http://www.w3.org/1999/xlink" x="0px" y="0px"
	 viewBox="0 123.3 595.3 595.3" enable-background="new 0 123.3 595.3 595.3" xml:space="preserve" width="32px" height="32px">
<g id="Layer_2">
	<rect x="91" y="245.9" fill="#FFFFFF" stroke="#000000" stroke-miterlimit="10" width="394" height="354"/>
</g>
<g id="Layer_1">
	<path fill="#CC0000" d="M297.6,123.3C133.2,123.3,0,256.5,0,420.9s133.2,297.6,297.6,297.6s297.6-133.2,297.6-297.6
		S462.1,123.3,297.6,123.3z M472.5,527.3c0,8.6-3.1,16-9.2,22c-6.1,6.1-13.5,9.2-22,9.2H153.8c-8.6,0-16-3.1-22-9.2
		c-6.1-6.1-9.2-13.5-9.2-22V372.1c5.7,6.4,12.4,12,19.8,17c47.1,32,79.4,54.5,97,67.4c7.5,5.4,13.5,9.6,18.1,12.7
		c4.6,3.1,10.7,6.2,18.5,9.4c7.6,3.2,14.8,4.8,21.4,4.8h0.2h0.1c6.5,0,13.7-1.5,21.4-4.8c7.7-3.2,13.8-6.3,18.5-9.4
		c4.6-3,10.7-7.3,18.1-12.7c22.1-16.1,54.5-38.5,97.3-67.4c7.5-5.1,14-10.8,19.5-17V527.3z M463.1,344.2c-6.3,9.4-14.3,17.4-23.8,24
		c-48.9,33.9-79.4,55.1-91.4,63.5c-1.3,1-4,3-8.3,6c-4.3,3-7.7,5.5-10.6,7.4c-2.7,1.9-6.2,3.9-10.1,6.3c-3.9,2.3-7.6,4-11.2,5.2
		c-3.6,1.2-6.8,1.8-9.8,1.8h-0.2h-0.2c-3,0-6.2-0.6-9.8-1.8c-3.5-1.2-7.3-2.9-11.2-5.2c-3.9-2.3-7.3-4.4-10.1-6.3
		c-2.9-1.8-6.3-4.3-10.6-7.4c-4.3-3.1-7-5-8.3-6c-11.9-8.3-28.9-20.1-51.2-35.6c-22.3-15.5-35.6-24.8-40-27.9
		c-8.1-5.5-15.7-13-22.9-22.6c-7.1-9.5-10.7-18.5-10.7-26.7c0-10.1,2.7-18.6,8.1-25.4c5.4-6.8,13.1-10.1,23.1-10.1h287.5
		c8.6,0,15.8,3.1,22,9.2c6.2,6.1,9.3,13.5,9.3,22C472.7,325,469.6,334.7,463.1,344.2z"/>
</g>
</svg>
