<?xml version="1.0" encoding="utf-8"?>
<!-- Generator: Adobe Illustrator 18.0.0, SVG Export Plug-In . SVG Version: 6.00 Build 0)  -->
<!DOCTYPE svg PUBLIC "-//W3C//DTD SVG 1.1//EN" "http://www.w3.org/Graphics/SVG/1.1/DTD/svg11.dtd">
<svg version="1.1" id="Layer_1" xmlns="http://www.w3.org/2000/svg" xmlns:xlink="http://www.w3.org/1999/xlink" x="0px" y="0px"
	 viewBox="0 123.3 595.3 595.2" enable-background="new 0 123.3 595.3 595.2" xml:space="preserve" width="32px" height="32px">
<g id="Layer_2">
</g>
<g id="Layer_1_1_">
	<rect x="95" y="220.9" fill="#FFFFFF" width="400" height="393"/>
	<path fill="#006A8D" d="M297.6,123.3C133.2,123.3,0,256.5,0,420.9s133.2,297.6,297.6,297.6s297.6-133.2,297.6-297.6
		S462.1,123.3,297.6,123.3z M465.6,392.8L396.9,472l10.5,98.8c1.2,10.8-6.3,17.1-16.8,13.9l-92.9-28.2l-92.9,28.2
		c-10.5,3.1-18-3.1-16.8-13.9l10.5-98.8l-68.7-79.2c-7.1-8.2-4.3-16.9,6.3-19.3l93.1-21.3l57.7-88.9c6-9.2,15.5-9.2,21.4,0
		l57.7,88.9l93.1,21.3C469.9,375.9,472.8,384.6,465.6,392.8z"/>
</g>
</svg>
