<?xml version="1.0" encoding="utf-8"?>
<!-- Generator: Adobe Illustrator 18.0.0, SVG Export Plug-In . SVG Version: 6.00 Build 0)  -->
<!DOCTYPE svg PUBLIC "-//W3C//DTD SVG 1.1//EN" "http://www.w3.org/Graphics/SVG/1.1/DTD/svg11.dtd">
<svg version="1.1" xmlns="http://www.w3.org/2000/svg" xmlns:xlink="http://www.w3.org/1999/xlink" x="0px" y="0px"
	 viewBox="0 123.3 595.3 595.3" enable-background="new 0 123.3 595.3 595.3" xml:space="preserve" width="32px" height="32px">
<g id="Layer_2">
</g>
<g id="Layer_1">
	<g>
		<g>
			<g>
				<path fill="#4D4D4D" d="M131.7,363.4h71.2v228.8h-71.2C131.7,592.2,131.7,363.4,131.7,363.4z M167.3,249.6
					c22.7,0,41.2,18.5,41.2,41.2c0,22.7-18.5,41.2-41.2,41.2s-41.2-18.5-41.2-41.2C126.1,268.1,144.5,249.6,167.3,249.6"/>
				<path fill="#4D4D4D" d="M247.5,363.4h68.2v31.2h1c9.5-18,32.7-36.9,67.3-36.9c71.9,0,85.2,47.4,85.2,109.1v125.5h-71.1V480.9
					c0-26.5-0.5-60.7-36.9-60.7c-37,0-42.6,28.9-42.6,58.7v113.2h-71.1L247.5,363.4L247.5,363.4z"/>
			</g>
		</g>
	</g>
</g>
</svg>
