<?xml version="1.0" encoding="utf-8"?>
<!-- Generator: Adobe Illustrator 18.0.0, SVG Export Plug-In . SVG Version: 6.00 Build 0)  -->
<!DOCTYPE svg PUBLIC "-//W3C//DTD SVG 1.1//EN" "http://www.w3.org/Graphics/SVG/1.1/DTD/svg11.dtd">
<svg version="1.1" xmlns="http://www.w3.org/2000/svg" xmlns:xlink="http://www.w3.org/1999/xlink" x="0px" y="0px"
	 viewBox="0 123.3 595.3 595.3" enable-background="new 0 123.3 595.3 595.3" xml:space="preserve" width="32px" height="32px">
<g id="Layer_2">
	<path fill="#4D4D4D" d="M459.2,458.7c2.5-11.3,3.8-23.1,3.8-35.1c0-90.4-73.2-163.6-163.6-163.6c-9.5,0-18.9,0.8-28,2.4
		c-14.6-9.2-31.9-14.5-50.5-14.5c-52.4,0-94.9,42.5-94.9,94.9c0,17.5,4.8,33.9,13.1,48c-2.1,10.6-3.3,21.7-3.3,32.9
		c0,90.4,73.2,163.6,163.6,163.6c10.2,0,20.2-1,30-2.7c13.3,7.1,28.6,11.2,44.9,11.2c52.4,0,94.9-42.5,94.9-94.9
		C469.1,485.7,465.5,471.4,459.2,458.7z M383.2,501.5c-7.5,10.7-18.7,19.2-33.2,25.2c-14.3,6-31.5,8.9-51.1,8.9
		c-23.5,0-43.2-4.2-58.6-12.3c-11-6-20-14-26.9-23.9c-6.9-10-10.5-19.9-10.5-29.5c0-6.1,2.3-11.2,6.8-15.5c4.4-4.2,10.1-6.3,17-6.3
		c5.6,0,10.5,1.7,14.4,5c3.8,3.2,7,8,9.6,14c2.9,6.7,6.1,12.3,9.4,16.7c3.2,4.3,7.7,7.9,13.7,10.6c6,2.9,13.9,4.3,23.8,4.3
		c13.6,0,24.6-2.9,33-8.6c8.2-5.5,12.1-12.1,12.1-20.4c0-6.4-2-11.5-6.3-15.5c-4.5-4.2-10.4-7.4-17.5-9.6c-7.4-2.3-17.5-4.8-30-7.4
		c-17-3.7-31.4-8-42.9-12.9c-11.8-5-21.2-11.9-28.1-20.6c-7-8.8-10.6-19.8-10.6-32.7c0-12.4,3.7-23.5,11.1-33.1
		c7.4-9.5,18.1-16.9,31.8-22c13.6-5,29.8-7.5,47.5-7.9c14.6,0,27.5,1.7,38.2,5c10.8,3.3,19.9,7.9,27,13.5c7.3,5.6,12.6,11.7,16,17.9
		c3.5,6.3,5.1,12.6,5.1,18.7c0,6-2.3,11.2-6.7,15.8c-4.5,4.6-10.1,7-16.8,7c-6.1,0-10.7-1.5-14-4.4c-3.1-2.7-6.2-6.9-9.8-13
		c-4-7.9-8.9-13.9-14.6-18.2c-5.5-4.2-14.6-6.3-27.3-6.3c-11.7,0-21.3,2.4-28.3,7c-6.8,4.5-10.1,9.6-10.1,15.7
		c0,3.7,1.1,6.8,3.2,9.5c2.4,2.9,5.6,5.4,9.8,7.4c4.4,2.1,8.8,3.9,13.2,5.1c4.5,1.3,12.1,3.2,22.6,5.6c13.2,2.7,25.5,6,36.2,9.4
		c10.8,3.5,20.4,7.7,28,12.7c7.9,5.1,14,11.7,18.5,19.5s6.7,17.5,6.7,28.8C394.7,478.6,390.9,490.8,383.2,501.5z"/>
</g>
<g id="Layer_1">
</g>
</svg>
