<?xml version="1.0" encoding="utf-8"?>
<!-- Generator: Adobe Illustrator 18.0.0, SVG Export Plug-In . SVG Version: 6.00 Build 0)  -->
<!DOCTYPE svg PUBLIC "-//W3C//DTD SVG 1.1//EN" "http://www.w3.org/Graphics/SVG/1.1/DTD/svg11.dtd">
<svg version="1.1" xmlns="http://www.w3.org/2000/svg" xmlns:xlink="http://www.w3.org/1999/xlink" x="0px" y="0px"
	 viewBox="0 123.3 595.3 595.3" enable-background="new 0 123.3 595.3 595.3" xml:space="preserve" width="32px" height="32px">
<g id="Layer_2">
	<g>
		<path fill="#4D4D4D" d="M468.7,314.7c-12.6,5.6-26.2,9.4-40.5,11.1c14.5-8.7,25.7-22.5,31-39.1c-13.6,8.1-28.7,13.9-44.8,17.1
			c-12.9-13.7-31.2-22.3-51.4-22.3c-38.9,0-70.5,31.5-70.5,70.5c0,5.5,0.6,11,1.8,16.1c-58.6-3-110.6-31-145.4-73.7
			c-6.1,10.4-9.5,22.5-9.5,35.5c0,24.4,12.5,46.1,31.3,58.7c-11.5-0.4-22.4-3.6-31.9-8.8c0,0.2,0,0.6,0,0.8
			c0,34.2,24.3,62.6,56.6,69.2c-6,1.7-12.1,2.5-18.6,2.5c-4.5,0-8.9-0.5-13.2-1.3c8.9,28,35,48.5,65.8,48.9
			c-24.2,18.9-54.5,30.2-87.6,30.2c-5.7,0-11.3-0.4-16.8-1c31.2,20,68.2,31.7,108.1,31.7c129.7,0,200.6-107.4,200.6-200.6
			c0-3.1-0.1-6.1-0.2-9.2C447.2,341.2,459.2,328.7,468.7,314.7z"/>
	</g>
</g>
<g id="Layer_1">
</g>
</svg>
