<!-- Generated by IcoMoon.io -->
<svg version="1.1" xmlns="http://www.w3.org/2000/svg" width="17" height="17" viewBox="0 0 17 17">
<title>call-end</title>
<path d="M15.966 3.313c0 0.018-0.002 0.032-0.004 0.044-0.434 0.299-2.863 1.903-3.317 2.194-0.048 0.001-0.169-0.015-0.342-0.106-0.185-0.097-0.723-0.399-1.476-0.828l-0.586-0.334-0.552 0.388c-0.41 0.289-1.303 0.976-2.661 2.335-1.364 1.364-2.050 2.253-2.337 2.662l-0.388 0.552 0.335 0.586c0.324 0.568 0.713 1.253 0.83 1.477 0.094 0.179 0.102 0.301 0.102 0.335 0 0.005 0 0.010-0.001 0.014-0.255 0.407-1.902 2.888-2.203 3.326-0.042 0.007-0.135 0.001-0.25-0.080-0.934-0.674-1.909-1.631-2.048-2.005 0.094-1.993 1.845-4.789 4.94-7.884s5.889-4.846 7.875-4.938c0.376 0.134 1.338 1.109 2.007 2.034 0.047 0.069 0.074 0.153 0.074 0.232M16.995 3.313c0-0.281-0.085-0.58-0.265-0.838-0.018-0.025-1.797-2.525-2.828-2.492-2.896 0.092-6.299 2.906-8.644 5.251s-5.16 5.748-5.252 8.655v0.024c0 1.018 2.468 2.807 2.493 2.824 0.671 0.47 1.409 0.298 1.709-0.129 0.183-0.26 2.075-3.105 2.288-3.454 0.093-0.152 0.138-0.337 0.138-0.539 0-0.26-0.076-0.548-0.224-0.829-0.144-0.274-0.616-1.103-0.848-1.509 0.251-0.358 0.894-1.197 2.219-2.521 1.315-1.315 2.161-1.964 2.521-2.217 0.406 0.231 1.235 0.703 1.508 0.846 0.515 0.272 1.029 0.303 1.375 0.082 0.327-0.207 3.151-2.091 3.42-2.286 0.254-0.184 0.39-0.512 0.39-0.868v0z"></path>
</svg>
