<!-- Generated by IcoMoon.io -->
<svg version="1.1" xmlns="http://www.w3.org/2000/svg" width="17" height="17" viewBox="0 0 17 17">
<title>call-in</title>
<path d="M16.607 12.81c-0.26-0.183-3.105-2.075-3.454-2.288-0.152-0.093-0.337-0.138-0.539-0.138-0.26 0-0.548 0.076-0.829 0.224-0.274 0.144-1.103 0.616-1.509 0.848-0.358-0.251-1.197-0.894-2.521-2.219-1.315-1.315-1.964-2.161-2.217-2.521 0.231-0.406 0.703-1.235 0.846-1.508 0.272-0.515 0.303-1.029 0.082-1.375-0.207-0.327-2.091-3.184-2.286-3.453-0.183-0.254-0.512-0.391-0.868-0.391-0.281 0-0.58 0.085-0.838 0.265-0.025 0.018-2.525 1.83-2.492 2.861 0.092 2.896 2.906 6.299 5.251 8.644s5.748 5.16 8.655 5.253h0.024c1.018 0 2.807-2.468 2.824-2.493 0.469-0.671 0.298-1.409-0.129-1.709zM15.873 13.9c-0.674 0.933-1.631 1.908-2.005 2.048-1.993-0.093-4.789-1.845-7.884-4.94s-4.846-5.889-4.938-7.875c0.134-0.376 1.109-1.338 2.034-2.007 0.069-0.047 0.153-0.075 0.232-0.075 0.018 0 0.032 0.002 0.044 0.004 0.299 0.434 1.903 2.863 2.194 3.317 0.001 0.048-0.015 0.169-0.106 0.342-0.097 0.185-0.399 0.723-0.828 1.476l-0.334 0.586 0.388 0.552c0.289 0.41 0.976 1.303 2.335 2.661 1.364 1.365 2.253 2.050 2.662 2.337l0.552 0.388 0.586-0.335c0.568-0.324 1.253-0.713 1.477-0.83 0.179-0.094 0.301-0.102 0.335-0.102 0.005 0 0.010 0 0.014 0.001 0.407 0.255 2.888 1.902 3.326 2.203 0.007 0.043 0.001 0.135-0.080 0.25zM10.689 6.251c0.069 0.069 0.165 0.112 0.272 0.109l0.194-0.005c0.004 0 0.006-0.002 0.011-0.002l3.81 0.017c0.214-0.005 0.392-0.182 0.397-0.397l0-0.273c-0.032-0.253-0.231-0.401-0.446-0.396l-2.515-0.007 4.349-4.343c0.207-0.207 0.207-0.544 0-0.751s-0.544-0.207-0.751 0l-4.361 4.355 0.015-2.57c0.005-0.215-0.165-0.402-0.38-0.397l-0.273 0c-0.215 0.005-0.393 0.133-0.397 0.348l-0.011 3.835c0 0.004 0.015 0.006 0.015 0.010l-0.021 0.194c-0.002 0.108 0.023 0.204 0.093 0.273z"></path>
</svg>
