<!-- Generated by IcoMoon.io -->
<svg version="1.1" xmlns="http://www.w3.org/2000/svg" width="17" height="17" viewBox="0 0 17 17">
<title>clock</title>
<path d="M8.5 0c-4.694 0-8.5 3.806-8.5 8.5s3.806 8.5 8.5 8.5c4.695 0 8.5-3.805 8.5-8.5s-3.805-8.5-8.5-8.5zM8.5 15.954c-4.101 0-7.438-3.353-7.438-7.454s3.337-7.438 7.438-7.438 7.438 3.337 7.438 7.438-3.337 7.454-7.438 7.454zM9.031 8.284v-5.097c0-0.293-0.238-0.531-0.531-0.531s-0.531 0.238-0.531 0.531v5.313c0 0.15 0.063 0.286 0.164 0.382 0.009 0.010 0.016 0.022 0.026 0.031l2.629 2.63c0.207 0.207 0.544 0.207 0.751 0s0.207-0.544 0-0.751l-2.507-2.507z"></path>
</svg>
