<!-- Generated by IcoMoon.io -->
<svg version="1.1" xmlns="http://www.w3.org/2000/svg" width="17" height="17" viewBox="0 0 17 17">
<title>drawer</title>
<path d="M16.983 8.467l-1.951-6.758c-0.064-0.23-0.273-0.39-0.512-0.39h-12.208c-0.241 0-0.451 0.162-0.514 0.395l-1.783 6.414c-0.033 0.125-0.017 0.249 0.033 0.358-0.029 0.096-0.049 0.196-0.049 0.302v5.832c0 0.587 0.476 1.063 1.063 1.063h14.875c0.587 0 1.063-0.476 1.063-1.063v-5.832c0-0.028-0.006-0.055-0.008-0.083 0.014-0.076 0.014-0.157-0.009-0.237zM2.721 2.381h11.395l1.546 5.343h-4.953c-0.024 1.275-0.928 2.153-2.209 2.153s-2.169-0.878-2.192-2.153h-5.076l1.49-5.343zM15.938 14.619h-14.875v-5.832h4.368c0.464 1.335 1.59 2.153 3.069 2.153s2.622-0.818 3.086-2.153h4.352v5.832z"></path>
</svg>
