<!-- Generated by IcoMoon.io -->
<svg version="1.1" xmlns="http://www.w3.org/2000/svg" width="17" height="17" viewBox="0 0 17 17">
<title>envelope-open</title>
<path d="M16.989 7.857c-0.023-0.188-0.093-0.36-0.201-0.506h0.003l-0.015-0.015c-0.054-0.072-0.118-0.135-0.189-0.191l-6.927-6.697c-0.601-0.601-1.652-0.602-2.254 0l-6.926 6.645c-0.15 0.139-0.479 0.516-0.479 0.886v7.961c0 0.584 0.478 1.063 1.063 1.063h14.875c0.584 0 1.063-0.478 1.063-1.063v-7.94c0.004-0.048-0.001-0.096-0.010-0.143zM4.479 12.058l-3.418 3.147v-6.162l3.418 3.015zM5.571 12.496c0.038-0.025 0.074-0.054 0.106-0.090 0.006-0.007 0.010-0.015 0.016-0.022l2.344-2.158c0.12-0.097 0.263-0.148 0.413-0.148 0.152 0 0.305 0.053 0.407 0.133l6.368 5.729h-13.393l3.739-3.444zM12.575 12.128l3.361-2.983v6.007l-3.361-3.024zM1.723 7.352l6.433-6.152c0.101-0.1 0.234-0.156 0.376-0.156s0.275 0.056 0.376 0.156l5.999 5.717h-0.016l0.911 0.926-4.023 3.57-2.245-2.020c-0.626-0.49-1.524-0.512-2.186 0.023l-2.084 1.919-4.014-3.542 0.448-0.441h0.024z"></path>
</svg>
