<!-- Generated by IcoMoon.io -->
<svg version="1.1" xmlns="http://www.w3.org/2000/svg" width="17" height="17" viewBox="0 0 17 17">
<title>flag</title>
<path d="M11.289 1.583c-2.656 0-3.364-1.594-6.729-1.594-2.17 0-3.498 1.638-3.498 1.638v14.853c0 0.293 0.238 0.531 0.531 0.531s0.531-0.238 0.531-0.531v-6.771c0.56-0.362 1.334-0.688 2.302-0.688 3.364 0 4.338 1.594 6.994 1.594s4.516-1.594 4.516-1.594v-9.031c0 0-1.992 1.594-4.648 1.594zM14.875 8.479c-0.6 0.392-1.872 1.073-3.453 1.073-1.044 0-1.757-0.287-2.66-0.65-1.1-0.442-2.348-0.944-4.334-0.944-0.908 0-1.678 0.228-2.302 0.534v-6.433c0.4-0.364 1.272-1.008 2.435-1.008 1.562 0 2.442 0.379 3.373 0.78 0.928 0.4 1.887 0.813 3.356 0.813 1.415 0 2.658-0.391 3.586-0.812v6.646z"></path>
</svg>
