<!-- Generated by IcoMoon.io -->
<svg version="1.1" xmlns="http://www.w3.org/2000/svg" width="17" height="17" viewBox="0 0 17 17">
<title>frame</title>
<path d="M3.719 1.859h-3.188c-0.293 0-0.531 0.238-0.531 0.531v3.188c0 0.293 0.238 0.531 0.531 0.531s0.531-0.238 0.531-0.531v-2.656h2.656c0.293 0 0.531-0.238 0.531-0.531s-0.238-0.531-0.531-0.531zM16.469 10.891c-0.293 0-0.531 0.238-0.531 0.531v2.656h-2.656c-0.293 0-0.531 0.238-0.531 0.531s0.238 0.531 0.531 0.531h3.188c0.293 0 0.531-0.238 0.531-0.531v-3.188c0-0.293-0.238-0.531-0.531-0.531zM3.719 14.078h-2.656v-2.656c0-0.293-0.238-0.531-0.531-0.531s-0.531 0.238-0.531 0.531v3.188c0 0.293 0.238 0.531 0.531 0.531h3.188c0.293 0 0.531-0.238 0.531-0.531s-0.238-0.531-0.531-0.531zM16.469 1.859h-3.188c-0.293 0-0.531 0.238-0.531 0.531s0.238 0.531 0.531 0.531h2.656v2.656c0 0.293 0.238 0.531 0.531 0.531s0.531-0.238 0.531-0.531v-3.188c0-0.293-0.238-0.531-0.531-0.531z"></path>
</svg>
