<!-- Generated by IcoMoon.io -->
<svg version="1.1" xmlns="http://www.w3.org/2000/svg" width="17" height="17" viewBox="0 0 17 17">
<title>layers</title>
<path d="M0.363 5.010l7.887 4.295c0.079 0.043 0.167 0.065 0.254 0.065 0.087 0 0.173-0.021 0.252-0.064l7.97-4.295c0.174-0.094 0.282-0.276 0.279-0.474s-0.115-0.378-0.291-0.468l-7.888-4.006c-0.15-0.076-0.328-0.077-0.479-0.001l-7.97 4.006c-0.176 0.089-0.29 0.268-0.293 0.466s0.104 0.381 0.277 0.475zM8.586 1.134l6.743 3.424-6.823 3.677-6.743-3.672 6.823-3.429zM16.624 7.974l-1.577-0.801-1.138 0.614 1.328 0.674-6.823 3.677-6.743-3.672 1.416-0.712-1.135-0.618-1.665 0.837c-0.176 0.089-0.29 0.268-0.293 0.466s0.104 0.381 0.277 0.475l7.887 4.295c0.079 0.043 0.167 0.065 0.254 0.065 0.087 0 0.173-0.021 0.252-0.064l7.97-4.295c0.174-0.093 0.282-0.276 0.279-0.474s-0.114-0.378-0.29-0.467zM16.624 11.693l-1.494-0.734-1.138 0.614 1.245 0.608-6.823 3.677-6.743-3.672 1.317-0.596-1.135-0.618-1.566 0.721c-0.176 0.089-0.29 0.268-0.293 0.466s0.104 0.381 0.277 0.475l7.887 4.295c0.079 0.043 0.167 0.065 0.254 0.065 0.087 0 0.173-0.021 0.252-0.064l7.97-4.295c0.174-0.093 0.282-0.276 0.279-0.474s-0.114-0.378-0.29-0.467z"></path>
</svg>
