<!-- Generated by IcoMoon.io -->
<svg version="1.1" xmlns="http://www.w3.org/2000/svg" width="17" height="17" viewBox="0 0 17 17">
<title>like</title>
<path d="M10.103 16.996c-4.828 0-4.865-0.2-5.463-0.651-0.317-0.239-0.916-0.404-3.101-0.546-0.159-0.010-0.309-0.071-0.411-0.194-0.046-0.057-1.139-1.65-1.139-4.201 0-2.514 0.782-3.66 0.815-3.713 0.097-0.155 0.267-0.25 0.45-0.25 1.795 0 4.283-2.291 5.956-6.29 0.289-0.692 0.349-1.147 1.412-1.147 0.604 0 1.282 0.433 1.616 0.988 0.686 1.134 0.338 3.57 0.015 4.872 1.096-0.009 3.079-0.024 4.023-0.024 1.313 0 2.182 0.783 2.208 1.927 0.009 0.378-0.041 0.86-0.15 1.11 0.289 0.288 0.662 0.723 0.678 1.282 0.020 0.723-0.453 1.273-0.755 1.588 0.069 0.21 0.208 0.489 0.194 0.822-0.033 0.819-0.666 1.347-1.060 1.622 0.033 0.224 0.058 0.647-0.014 0.974-0.284 1.305-2.198 1.829-5.275 1.829zM1.82 14.722c1.904 0.158 2.922 0.371 3.459 0.775 0.415 0.313 0.351 0.437 4.824 0.437 1.364 0 4.032-0.057 4.237-0.993 0.081-0.375-0.314-0.743-0.315-0.746-0.108-0.266 0.012-0.579 0.275-0.694 0.004-0.002 1.065-0.382 1.089-0.975 0.016-0.379-0.244-0.607-0.25-0.616-0.155-0.24-0.098-0.569 0.137-0.733 0.003-0.002 0.69-0.419 0.673-0.987-0.013-0.451-0.607-0.768-0.625-0.779-0.133-0.076-0.229-0.207-0.26-0.358s0.004-0.308 0.097-0.43c0 0 0.27-0.429 0.26-0.832-0.019-0.862-0.946-0.889-1.145-0.889-1.34 0-4.782 0.014-4.782 0.014-0.186 0.001-0.346-0.087-0.446-0.235s-0.107-0.333-0.049-0.502c0.519-1.495 0.809-3.84 0.328-4.641-0.142-0.236-0.174-0.472-0.706-0.472-0.074 0-0.249 0.058-0.432 0.494-1.775 4.247-4.427 6.704-6.598 6.926-0.187 0.427-0.539 1.312-0.539 2.918 0 1.639 0.519 2.907 0.769 3.318z"></path>
</svg>
