<!-- Generated by IcoMoon.io -->
<svg version="1.1" xmlns="http://www.w3.org/2000/svg" width="17" height="17" viewBox="0 0 17 17">
<title>lock</title>
<path d="M13.281 6.375h-0.531v-2.028c0-2.438-1.764-4.347-4.27-4.347-2.516 0-4.23 1.95-4.23 4.347v2.028h-0.531c-1.172 0-2.125 0.953-2.125 2.125v6.375c0 1.172 0.953 2.125 2.125 2.125h9.563c1.172 0 2.125-0.953 2.125-2.125v-6.375c0-1.172-0.953-2.125-2.125-2.125zM5.313 4.347c0-1.811 1.238-3.285 3.168-3.285 1.91 0 3.207 1.443 3.207 3.285v2.028h-6.375v-2.028zM14.344 14.875c0 0.586-0.477 1.063-1.063 1.063h-9.563c-0.586 0-1.063-0.477-1.063-1.063v-6.375c0-0.586 0.477-1.063 1.063-1.063h9.563c0.586 0 1.063 0.477 1.063 1.063v6.375zM8.5 9.563c-0.587 0-1.063 0.476-1.063 1.063 0 0.392 0.215 0.731 0.531 0.915v1.741c0 0.293 0.238 0.531 0.531 0.531s0.531-0.238 0.531-0.531v-1.741c0.316-0.184 0.531-0.523 0.531-0.915 0-0.587-0.476-1.063-1.063-1.063z"></path>
</svg>
