<!-- Generated by IcoMoon.io -->
<svg version="1.1" xmlns="http://www.w3.org/2000/svg" width="17" height="17" viewBox="0 0 17 17">
<title>logout</title>
<path d="M1.94 9.026h9.205c0.294 0 0.531-0.238 0.531-0.531s-0.237-0.531-0.531-0.531h-9.171l1.922-1.922c0.207-0.207 0.207-0.544 0-0.751s-0.544-0.207-0.751 0l-3.138 3.221 3.138 3.221c0.104 0.104 0.24 0.156 0.376 0.156s0.272-0.052 0.376-0.156c0.207-0.207 0.207-0.544 0-0.751l-1.955-1.955zM15.932 0h-9.031c-0.587 0-1.063 0.476-1.063 1.063v4.781h1.069v-4.133c0-0.355 0.288-0.643 0.643-0.643h7.715c0.355 0 0.643 0.288 0.643 0.643l0.017 13.585c0 0.355-0.288 0.643-0.643 0.643h-7.732c-0.355 0-0.643-0.288-0.643-0.643v-4.157l-1.069 0.001v4.797c0 0.587 0.475 1.063 1.063 1.063h9.031c0.587 0 1.063-0.476 1.063-1.063v-14.875c-0-0.587-0.476-1.063-1.063-1.063z"></path>
</svg>
