<!-- Generated by IcoMoon.io -->
<svg version="1.1" xmlns="http://www.w3.org/2000/svg" width="17" height="17" viewBox="0 0 17 17">
<title>screen-desktop</title>
<path d="M15.938 1.591h-14.875c-0.584 0-1.063 0.478-1.063 1.062v9.034c0 0.584 0.478 1.062 1.063 1.062h6.906v1.597h-2.656c-0.293 0-0.531 0.238-0.531 0.531s0.238 0.531 0.531 0.531h6.375c0.293 0 0.531-0.238 0.531-0.531s-0.238-0.531-0.531-0.531h-2.656v-1.597h6.906c0.584 0 1.063-0.478 1.063-1.062v-9.034c0-0.584-0.478-1.063-1.063-1.063zM15.938 11.688h-14.875v-9.034h14.875v9.034z"></path>
</svg>
