<!-- Generated by IcoMoon.io -->
<svg version="1.1" xmlns="http://www.w3.org/2000/svg" width="17" height="17" viewBox="0 0 17 17">
<title>speedometer</title>
<path d="M8.5 0.6c-4.681 0-8.489 3.809-8.489 8.49 0 2.941 1.489 5.631 3.983 7.195 0.248 0.157 0.576 0.081 0.732-0.168s0.081-0.576-0.168-0.732c-0.898-0.564-1.644-1.296-2.215-2.14l0.557-0.322c0.254-0.147 0.341-0.471 0.194-0.726s-0.473-0.341-0.726-0.194l-0.558 0.322c-0.405-0.839-0.652-1.756-0.719-2.713h0.591c0.294 0 0.531-0.238 0.531-0.531s-0.238-0.531-0.531-0.531h-0.589c0.070-0.974 0.328-1.898 0.74-2.732l0.534 0.308c0.083 0.048 0.175 0.071 0.265 0.071 0.184 0 0.362-0.095 0.461-0.266 0.147-0.254 0.060-0.579-0.194-0.726l-0.529-0.305c0.533-0.777 1.21-1.449 1.992-1.976l0.299 0.518c0.099 0.171 0.277 0.266 0.461 0.266 0.090 0 0.182-0.023 0.265-0.071 0.254-0.147 0.341-0.471 0.194-0.726l-0.298-0.516c0.819-0.395 1.721-0.642 2.672-0.711v0.662c0 0.294 0.238 0.531 0.531 0.531s0.531-0.238 0.531-0.531v-0.664c0.973 0.068 1.895 0.322 2.729 0.73l-0.288 0.499c-0.147 0.254-0.060 0.579 0.194 0.726 0.083 0.048 0.175 0.071 0.265 0.071 0.184 0 0.362-0.095 0.461-0.266l0.287-0.497c0.775 0.528 1.446 1.198 1.974 1.973l-0.498 0.287c-0.254 0.147-0.341 0.471-0.194 0.726 0.099 0.171 0.277 0.266 0.461 0.266 0.090 0 0.182-0.023 0.265-0.071l0.5-0.289c0.408 0.835 0.663 1.757 0.731 2.73h-0.583c-0.294 0-0.531 0.238-0.531 0.531s0.238 0.531 0.531 0.531h0.583c-0.067 0.944-0.309 1.85-0.705 2.678l-0.526-0.304c-0.254-0.147-0.58-0.059-0.726 0.194s-0.060 0.579 0.194 0.726l0.528 0.305c-0.583 0.867-1.352 1.617-2.28 2.188-0.25 0.154-0.327 0.482-0.174 0.731 0.101 0.163 0.274 0.253 0.453 0.253 0.095 0 0.192-0.025 0.278-0.079 2.531-1.559 4.042-4.263 4.042-7.232 0-4.681-3.809-8.489-8.49-8.489zM12.42 7.433c0.254-0.147 0.341-0.471 0.194-0.726s-0.472-0.341-0.726-0.194l-2.886 1.666c-0.154-0.087-0.33-0.141-0.519-0.141-0.586 0-1.060 0.475-1.060 1.059s0.474 1.060 1.060 1.060c0.586 0 1.060-0.475 1.060-1.060 0-0.001-0-0.002-0-0.003l2.877-1.661z"></path>
</svg>
