<!-- Generated by IcoMoon.io -->
<svg version="1.1" xmlns="http://www.w3.org/2000/svg" width="17" height="17" viewBox="0 0 17 17">
<title>symbol-female</title>
<path d="M10.354-0.004c-3.667 0-6.641 2.973-6.641 6.641 0 1.635 0.592 3.132 1.573 4.289l-2.114 2.127-2.246-2.267c-0.207-0.207-0.544-0.207-0.751 0s-0.207 0.544 0 0.751l2.248 2.269-2.264 2.277c-0.207 0.207-0.207 0.544 0 0.751s0.544 0.207 0.751 0l2.26-2.274 2.266 2.287c0.207 0.207 0.544 0.207 0.751 0s0.207-0.544 0-0.751l-2.268-2.289 2.115-2.128c1.161 0.996 2.669 1.599 4.319 1.599 3.667 0 6.641-2.973 6.641-6.641s-2.973-6.641-6.64-6.641zM10.354 12.224c-3.085 0-5.587-2.502-5.587-5.587s2.501-5.587 5.587-5.587 5.587 2.501 5.587 5.587c0 3.085-2.501 5.587-5.587 5.587z"></path>
</svg>
