<?xml version="1.0" encoding="utf-8"?>
<!-- Generator: Adobe Illustrator 18.1.1, SVG Export Plug-In . SVG Version: 6.00 Build 0)  -->
<svg version="1.1" id="Layer_1" xmlns="http://www.w3.org/2000/svg" xmlns:xlink="http://www.w3.org/1999/xlink" x="0px" y="0px"
	 width="32px" height="32px" viewBox="-281 404.9 32 32" enable-background="new -281 404.9 32 32" xml:space="preserve">
<g id="Layer_2">
	<g>
		<g>
			<path fill="#006A8D" d="M-270.6,412.3c0.1,0,0.2,0,0.2,0c0.6-0.1,1.1-0.6,0.9-1.1c-0.4-1.7-0.4-3.4,0-5.1c0-0.1,0-0.1,0-0.2
				c0-0.4-0.4-0.8-1-0.9c-0.1,0-0.2,0-0.2,0c-0.5,0-1,0.3-1.2,0.7c-0.5,2-0.5,3.9,0,5.9C-271.7,412-271.2,412.3-270.6,412.3z"/>
			<path fill="#006A8D" d="M-259,412.3c0.1,0,0.2,0,0.2,0c0.6-0.1,1.1-0.6,0.9-1.1c-0.4-1.7-0.4-3.4,0-5.1c0-0.1,0-0.1,0-0.2
				c0-0.4-0.4-0.8-1-0.9c-0.1,0-0.2,0-0.2,0c-0.5,0-1,0.3-1.2,0.7c-0.5,2-0.5,3.9,0,5.9C-260,412-259.5,412.3-259,412.3z"/>
		</g>
		<g>
			<path fill="#006A8D" d="M-249.3,412.4C-249.3,412.4-249.3,412.4-249.3,412.4c-0.1-2.2-1.9-3.9-4.2-3.9h-3.2
				c0,0.8,0.1,1.5,0.3,2.3c0.2,0.6,0.1,1.3-0.3,1.8c-0.4,0.6-1.1,1-1.8,1.2c-0.2,0-0.3,0-0.5,0c-1.2,0-2.3-0.8-2.6-1.8
				c-0.3-1.1-0.4-2.3-0.4-3.4h-6.3c0,0.8,0.1,1.5,0.3,2.3c0.2,0.6,0.1,1.3-0.3,1.8c-0.4,0.6-1.1,1-1.8,1.2c-0.2,0-0.3,0-0.5,0
				c-1.2,0-2.3-0.8-2.6-1.8c-0.3-1.1-0.4-2.3-0.4-3.4h-2.8c-2.3,0-4.2,1.8-4.2,4v20.3c0,2.2,1.9,4,4.2,4h5.6h17.4
				c2.3,0,4.2-1.8,4.2-4v-9.3V412.4L-249.3,412.4C-249.3,412.5-249.3,412.4-249.3,412.4z M-251.2,432.8c0,1.1-1,2.1-2.3,2.1h-6h-11
				h-6c-1.3,0-2.3-0.9-2.3-2.1V417h27.5l0,0v6.7L-251.2,432.8L-251.2,432.8L-251.2,432.8z"/>
		</g>
	</g>
</g>
<g id="Layer_3">
	<path fill="#006A8D" d="M-265.8,420.4c0,1.1-0.9,2-2,2h-1c-1.1,0-2-0.9-2-2l0,0c0-1.1,0.9-2,2-2h1
		C-266.7,418.4-265.8,419.3-265.8,420.4L-265.8,420.4z"/>
	<path fill="#006A8D" d="M-259.2,420.4c0,1.1-0.9,2-2,2h-1c-1.1,0-2-0.9-2-2l0,0c0-1.1,0.9-2,2-2h1
		C-260.1,418.4-259.2,419.3-259.2,420.4L-259.2,420.4z"/>
	<path fill="#006A8D" d="M-252.7,420.4c0,1.1-0.9,2-2,2h-1c-1.1,0-2-0.9-2-2l0,0c0-1.1,0.9-2,2-2h1
		C-253.6,418.4-252.7,419.3-252.7,420.4L-252.7,420.4z"/>
	<path fill="#006A8D" d="M-272.4,426c0,1.1-0.9,2-2,2h-1c-1.1,0-2-0.9-2-2l0,0c0-1.1,0.9-2,2-2h1C-273.2,424-272.4,424.9-272.4,426
		L-272.4,426z"/>
	<path fill="#006A8D" d="M-265.8,426c0,1.1-0.9,2-2,2h-1c-1.1,0-2-0.9-2-2l0,0c0-1.1,0.9-2,2-2h1C-266.7,424-265.8,424.9-265.8,426
		L-265.8,426z"/>
	<path fill="#006A8D" d="M-259.2,426c0,1.1-0.9,2-2,2h-1c-1.1,0-2-0.9-2-2l0,0c0-1.1,0.9-2,2-2h1C-260.1,424-259.2,424.9-259.2,426
		L-259.2,426z"/>
	<path fill="#006A8D" d="M-252.7,426c0,1.1-0.9,2-2,2h-1c-1.1,0-2-0.9-2-2l0,0c0-1.1,0.9-2,2-2h1C-253.6,424-252.7,424.9-252.7,426
		L-252.7,426z"/>
	<path fill="#006A8D" d="M-272.4,431.6c0,1.1-0.9,2-2,2h-1c-1.1,0-2-0.9-2-2l0,0c0-1.1,0.9-2,2-2h1
		C-273.2,429.6-272.4,430.5-272.4,431.6L-272.4,431.6z"/>
	<path fill="#006A8D" d="M-265.8,431.6c0,1.1-0.9,2-2,2h-1c-1.1,0-2-0.9-2-2l0,0c0-1.1,0.9-2,2-2h1
		C-266.7,429.6-265.8,430.5-265.8,431.6L-265.8,431.6z"/>
	<path fill="#006A8D" d="M-259.2,431.6c0,1.1-0.9,2-2,2h-1c-1.1,0-2-0.9-2-2l0,0c0-1.1,0.9-2,2-2h1
		C-260.1,429.6-259.2,430.5-259.2,431.6L-259.2,431.6z"/>
	<path fill="#006A8D" d="M-252.7,431.6c0,1.1-0.9,2-2,2h-1c-1.1,0-2-0.9-2-2l0,0c0-1.1,0.9-2,2-2h1
		C-253.6,429.6-252.7,430.5-252.7,431.6L-252.7,431.6z"/>
</g>
</svg>
