<?xml version="1.0" encoding="utf-8"?>
<!-- Generator: Adobe Illustrator 18.1.1, SVG Export Plug-In . SVG Version: 6.00 Build 0)  -->
<svg version="1.1" id="Layer_1" xmlns="http://www.w3.org/2000/svg" xmlns:xlink="http://www.w3.org/1999/xlink" x="0px" y="0px"
	 width="32px" height="32px" viewBox="-281 404.9 32 32" enable-background="new -281 404.9 32 32" xml:space="preserve">
<g>
	<path fill="none" d="M-279.7,431.9c0,2,1.7,3.7,3.7,3.7h22c2,0,3.7-1.7,3.7-3.7v-19.4h-29.4V431.9z"/>
	<path fill="#006A8D" d="M-254,407.1h-2.3c0,0.7,0,1.4,0.2,2c0.1,0.4,0,0.8-0.2,1.1c-0.2,0.4-0.7,0.6-1.1,0.7l-0.1,0
		c-0.1,0-0.2,0-0.2,0c-0.8,0-1.4-0.5-1.6-1.1c-0.2-0.9-0.3-1.8-0.3-2.7h-10.8c0,0.7,0,1.4,0.2,2c0.1,0.4,0,0.8-0.2,1.1
		c-0.2,0.4-0.7,0.6-1.1,0.7l-0.1,0c-0.1,0-0.2,0-0.2,0c-0.8,0-1.4-0.5-1.6-1.1c-0.2-0.9-0.3-1.8-0.3-2.7h-2.3c-2.8,0-5,2.3-5,5v19.8
		c0,2.8,2.3,5,5,5h22c2.8,0,5-2.3,5-5v-19.8C-249,409.4-251.3,407.1-254,407.1z M-250.3,431.9c0,2-1.7,3.7-3.7,3.7h-22
		c-2,0-3.7-1.7-3.7-3.7v-19.4h29.4V431.9z"/>
	<path fill="#006A8D" d="M-271.8,410.1c0.1,0,0.1,0,0.2,0c0.5-0.1,0.8-0.4,0.7-0.8c-0.3-1.2-0.3-2.4,0-3.7c0,0,0-0.1,0-0.1
		c0-0.3-0.3-0.6-0.7-0.6c-0.1,0-0.1,0-0.2,0c-0.4,0-0.7,0.2-0.8,0.5c-0.4,1.4-0.4,2.8,0,4.2C-272.6,409.9-272.2,410.1-271.8,410.1z"
		/>
	<path fill="#006A8D" d="M-257.7,410.1c0.1,0,0.1,0,0.2,0c0.5-0.1,0.8-0.4,0.7-0.8c-0.3-1.2-0.3-2.4,0-3.7c0,0,0-0.1,0-0.1
		c0-0.3-0.3-0.6-0.7-0.6c-0.1,0-0.1,0-0.2,0c-0.4,0-0.7,0.2-0.8,0.5c-0.4,1.4-0.4,2.8,0,4.2C-258.4,409.9-258.1,410.1-257.7,410.1z"
		/>
</g>
</svg>
