<?xml version="1.0" encoding="utf-8"?>
<!-- Generator: Adobe Illustrator 18.0.0, SVG Export Plug-In . SVG Version: 6.00 Build 0)  -->
<!DOCTYPE svg PUBLIC "-//W3C//DTD SVG 1.1//EN" "http://www.w3.org/Graphics/SVG/1.1/DTD/svg11.dtd">
<svg version="1.1" id="Layer_1" xmlns="http://www.w3.org/2000/svg" xmlns:xlink="http://www.w3.org/1999/xlink" x="0px" y="0px"
	 viewBox="0 141.3 595.3 595.3" enable-background="new 0 141.3 595.3 595.3" xml:space="preserve" width="32px" height="32px">
<g id="Layer_2">
	<g>
		<g>
			<path fill="#FFFFFF" d="M191.8,277.3c1.4,0,3-0.1,4.5-0.2c12-1.9,19.7-11.1,17.2-20.6c-8.3-31.7-8.3-64,0-95.7
				c0.2-1.2,0.5-2.4,0.5-3.4c0-8.1-7.1-15.3-17.7-16.9c-1.4-0.2-3.1-0.5-4.5-0.5c-10.2,0-19.4,5.7-21.6,13.9
				c-9.6,36.4-9.6,73.4,0,109.8C172.4,271.7,181.6,277.3,191.8,277.3z"/>
			<path fill="#FFFFFF" d="M409.2,277.3c1.4,0,3-0.1,4.5-0.2c12-1.9,19.7-11.1,17.2-20.6c-8.3-31.7-8.3-64,0-95.7
				c0.2-1.2,0.5-2.4,0.5-3.4c0-8.1-7.1-15.3-17.7-16.9c-1.4-0.2-3.1-0.5-4.5-0.5c-10.2,0-19.4,5.7-21.6,13.9
				c-9.6,36.4-9.6,73.4,0,109.8C389.6,271.7,398.9,277.3,409.2,277.3z"/>
		</g>
		<g>
			<path fill="#FFFFFF" d="M589.3,280.8c0-0.6,0-1.3,0-1.8c-1.2-39.7-35.7-71.7-77.8-71.7h-59.2c-0.1,14,1.7,28.2,5.2,42.2
				c3.1,11.5,1.1,23.4-5.6,33.7c-7.3,11.3-19.7,19.1-34,21.5c-3,0.5-5.9,0.7-8.9,0.7c-23.2,0-43-14.2-48.5-34.5
				c-5.6-21-8.2-42.2-8.2-63.4H234.7c-0.1,14,1.7,28.2,5.2,42.2c3.1,11.5,1.1,23.4-5.6,33.7c-7.3,11.3-19.7,19.1-34,21.5
				c-3,0.5-5.9,0.7-8.9,0.7c-23.2,0-43-14.2-48.5-34.5c-5.6-21-8.2-42.2-8.2-63.4H82.9C40,207.8,5,240.9,5,281.7v379.1
				c0,40.8,35,74,77.9,74H187h324.4c42.9,0,77.9-33.2,77.9-74V487.4v-206v-0.2C589.3,281,589.3,280.9,589.3,280.8z M553.9,660.3
				c0,21.2-19.1,38.5-42.5,38.5H400H194.3H82.9c-23.4,0-42.5-17.4-42.5-38.5V365.6H554l0,0v125.2v169.6H553.9z"/>
		</g>
	</g>
</g>
<g id="Layer_3">
	<path fill="#FFFFFF" d="M283.2,413.2c0,20.5-16.6,37.1-37.1,37.1h-17.9c-20.5,0-37.1-16.6-37.1-37.1l0,0
		c0-20.5,16.6-37.1,37.1-37.1h17.9C266.6,376.1,283.2,392.7,283.2,413.2L283.2,413.2z"/>
	<path fill="#FFFFFF" d="M405.2,413.2c0,20.5-16.6,37.1-37.1,37.1h-17.9c-20.5,0-37.1-16.6-37.1-37.1l0,0
		c0-20.5,16.6-37.1,37.1-37.1h17.9C388.6,376.1,405.2,392.7,405.2,413.2L405.2,413.2z"/>
	<path fill="#FFFFFF" d="M527.1,413.2c0,20.5-16.6,37.1-37.1,37.1h-17.9c-20.5,0-37.1-16.6-37.1-37.1l0,0
		c0-20.5,16.6-37.1,37.1-37.1h17.9C510.5,376.1,527.1,392.7,527.1,413.2L527.1,413.2z"/>
	<path fill="#FFFFFF" d="M160.9,517.2c0,20.5-16.6,37.1-37.1,37.1h-18c-20.5,0-37.1-16.6-37.1-37.1l0,0c0-20.5,16.6-37.1,37.1-37.1
		h17.9C144.3,480,160.9,496.7,160.9,517.2L160.9,517.2z"/>
	<path fill="#FFFFFF" d="M282.9,517.2c0,20.5-16.6,37.1-37.1,37.1h-17.9c-20.5,0-37.1-16.6-37.1-37.1l0,0
		c0-20.5,16.6-37.1,37.1-37.1h17.9C266.3,480,282.9,496.7,282.9,517.2L282.9,517.2z"/>
	<path fill="#FFFFFF" d="M404.8,517.2c0,20.5-16.6,37.1-37.1,37.1h-17.9c-20.5,0-37.1-16.6-37.1-37.1l0,0
		c0-20.5,16.6-37.1,37.1-37.1h17.9C388.2,480,404.8,496.7,404.8,517.2L404.8,517.2z"/>
	<path fill="#FFFFFF" d="M526.7,517.2c0,20.5-16.6,37.1-37.1,37.1h-17.9c-20.5,0-37.1-16.6-37.1-37.1l0,0
		c0-20.5,16.6-37.1,37.1-37.1h17.9C510.2,480,526.7,496.7,526.7,517.2L526.7,517.2z"/>
	<path fill="#FFFFFF" d="M160.9,621.2c0,20.5-16.6,37.1-37.1,37.1h-18c-20.5,0-37.1-16.6-37.1-37.1l0,0c0-20.5,16.6-37.1,37.1-37.1
		h17.9C144.3,584.1,160.9,600.6,160.9,621.2L160.9,621.2z"/>
	<path fill="#FFFFFF" d="M282.9,621.2c0,20.5-16.6,37.1-37.1,37.1h-17.9c-20.5,0-37.1-16.6-37.1-37.1l0,0
		c0-20.5,16.6-37.1,37.1-37.1h17.9C266.3,584.1,282.9,600.6,282.9,621.2L282.9,621.2z"/>
	<path fill="#FFFFFF" d="M404.8,621.2c0,20.5-16.6,37.1-37.1,37.1h-17.9c-20.5,0-37.1-16.6-37.1-37.1l0,0
		c0-20.5,16.6-37.1,37.1-37.1h17.9C388.2,584.1,404.8,600.6,404.8,621.2L404.8,621.2z"/>
	<path fill="#FFFFFF" d="M526.7,621.2c0,20.5-16.6,37.1-37.1,37.1h-17.9c-20.5,0-37.1-16.6-37.1-37.1l0,0
		c0-20.5,16.6-37.1,37.1-37.1h17.9C510.2,584.1,526.7,600.6,526.7,621.2L526.7,621.2z"/>
</g>
</svg>
