<?xml version="1.0" encoding="utf-8"?>
<!-- Generator: Adobe Illustrator 18.0.0, SVG Export Plug-In . SVG Version: 6.00 Build 0)  -->
<!DOCTYPE svg PUBLIC "-//W3C//DTD SVG 1.1//EN" "http://www.w3.org/Graphics/SVG/1.1/DTD/svg11.dtd">
<svg version="1.1" id="Layer_2" xmlns="http://www.w3.org/2000/svg" xmlns:xlink="http://www.w3.org/1999/xlink" x="0px" y="0px"
	 viewBox="0 265.5 595.3 595.3" enable-background="new 0 265.5 595.3 595.3" xml:space="preserve" width="40px" height="40px">
<g>
	<g>
		<path fill="#FFFFFF" d="M152.5,396.5c1.2,0,2.4-0.1,3.7-0.2c9.8-1.5,16.1-9,14-16.8c-6.8-25.8-6.8-52.1,0-78
			c0.2-1,0.4-1.9,0.4-2.9c0-6.5-5.8-12.5-14.4-13.8c-1.2-0.2-2.5-0.4-3.7-0.4c-8.3,0-15.8,4.6-17.6,11.3c-7.9,29.6-7.9,59.8,0,89.4
			C136.7,392,144.2,396.5,152.5,396.5z"/>
		<path fill="#FFFFFF" d="M329.7,396.5c1.2,0,2.4-0.1,3.7-0.2c9.8-1.5,16.1-9,14-16.8c-6.8-25.8-6.8-52.1,0-78
			c0.2-1,0.4-1.9,0.4-2.9c0-6.5-5.8-12.5-14.4-13.8c-1.2-0.2-2.5-0.4-3.7-0.4c-8.3,0-15.8,4.6-17.6,11.3c-7.9,29.6-7.9,59.8,0,89.4
			C313.7,392,321.3,396.5,329.7,396.5z"/>
	</g>
	<path fill="#FFFFFF" d="M134.9,677.6c6.2,7.1,13.5,12.4,21.8,15.5c8.2,3.1,17,4.6,26.3,4.6c9.4,0,18.3-1.5,26.5-4.6
		c8.3-3.1,15.6-8.2,21.9-15.5c6.3-7.3,11.3-16.9,15-28.9c3.7-12.1,5.5-27.1,5.5-45.1c0-17.5-1.8-32.1-5.5-44.2
		c-3.7-11.9-8.7-21.4-15-28.7c-6.3-7.1-13.6-12.4-21.9-15.5c-8.2-3.1-17.1-4.6-26.5-4.6c-9.3,0-18,1.5-26.3,4.6
		c-8.2,3.1-15.5,8.2-21.8,15.5c-6.2,7.1-11.2,16.8-14.8,28.7c-3.7,11.9-5.5,26.7-5.5,44.2c0,18,1.8,33.1,5.5,45.1
		C123.7,660.8,128.7,670.4,134.9,677.6z M152.6,592.3c0.1-4.4,0.4-8.9,1-13.5c0.5-4.6,1.4-9.2,2.6-13.8c1.2-4.5,3-8.6,5.2-12.3
		c2.3-3.6,5.1-6.5,8.6-8.7c3.5-2.3,7.7-3.3,13-3.3c5.1,0,9.5,1.1,13.1,3.3c3.6,2.3,6.5,5.1,8.8,8.7c2.3,3.6,4,7.6,5.2,12.3
		c1.2,4.5,2,9.2,2.6,13.8s1,9.2,1.1,13.5c0.1,4.4,0.1,8.1,0.1,11.2c0,5.1-0.2,11.3-0.5,18.7c-0.4,7.3-1.4,14.3-3.3,21.1
		c-1.9,6.8-4.9,12.6-9,17.4c-4.2,4.8-10.2,7.3-18,7.3c-7.6,0-13.6-2.4-17.6-7.3c-4-4.8-7-10.6-8.9-17.4c-1.9-6.8-3-13.8-3.3-21.1
		c-0.4-7.3-0.5-13.5-0.5-18.7C152.5,600.4,152.5,596.8,152.6,592.3z"/>
	<g>
		<path fill="#FFFFFF" d="M322.2,740.1H63.7c-19,0-34.6-14.2-34.6-31.4V468.4h418.6v102c9.4-1.8,18.9-2.7,28.8-2.7V399.6
			c0-33.2-28.5-60.2-63.5-60.2h-48.2c-0.1,11.4,1.3,23,4.3,34.4c2.5,9.4,0.8,19-4.5,27.4c-6,9.2-16.1,15.6-27.7,17.5
			c-2.4,0.4-4.9,0.6-7.3,0.6c-18.9,0-35.1-11.5-39.5-28.1c-4.5-17.1-6.7-34.4-6.7-51.7h-95.8c-0.1,11.4,1.3,23,4.3,34.4
			c2.5,9.4,0.8,19-4.5,27.4c-6,9.2-16.1,15.6-27.7,17.5c-2.4,0.4-4.9,0.6-7.3,0.6c-18.9,0-35.1-11.5-39.5-28.1
			c-4.5-17.1-6.7-34.4-6.7-51.7H63.7c-35,0-63.5,27-63.5,60.2v309C0.2,742,28.7,769,63.7,769h264.4
			C325.3,759.6,323.2,750,322.2,740.1z"/>
	</g>
	<g>
		<path fill="#FFFFFF" d="M476.5,604c-65.6,0-118.9,53.3-118.9,118.9s53.3,118.9,118.9,118.9S595.4,788.6,595.4,723
			C595.4,657.5,542.1,604,476.5,604z M533.1,737.5H491v42.1c0,8-6.5,14.5-14.5,14.5s-14.5-6.5-14.5-14.5v-42.1h-42.1
			c-8,0-14.5-6.5-14.5-14.5c0-8,6.5-14.5,14.5-14.5h42.1v-42.1c0-8,6.5-14.5,14.5-14.5c8,0,14.5,6.5,14.5,14.5v42.1h42.1
			c8,0,14.5,6.5,14.5,14.5C547.7,730.9,541.2,737.5,533.1,737.5z"/>
	</g>
	<g>
		<path fill="#FFFFFF" d="M361.1,694.4h1v-3.7C361.7,691.9,361.3,693.2,361.1,694.4z"/>
		<path fill="#FFFFFF" d="M324.2,691c5.8-28,19.2-53.2,37.9-73.5V514.2h-30.1c-1.1,6.9-3.3,12.6-6.7,17.3
			c-3.3,4.6-7.5,8.3-12.4,11.2s-10.4,4.8-16.5,6c-6.2,1.1-12.5,1.5-19,1.4v27.5h47V691L324.2,691L324.2,691z"/>
	</g>
</g>
</svg>
