<?xml version="1.0" encoding="utf-8"?>
<!-- Generator: Adobe Illustrator 18.0.0, SVG Export Plug-In . SVG Version: 6.00 Build 0)  -->
<!DOCTYPE svg PUBLIC "-//W3C//DTD SVG 1.1//EN" "http://www.w3.org/Graphics/SVG/1.1/DTD/svg11.dtd">
<svg version="1.1" id="Layer_1" xmlns="http://www.w3.org/2000/svg" xmlns:xlink="http://www.w3.org/1999/xlink" x="0px" y="0px"
	 viewBox="0 123.3 595.3 595.1" enable-background="new 0 123.3 595.3 595.1" xml:space="preserve" width="16px" height="16px">
<path fill="#FFFFFF" d="M465,145.7L297.6,313.1L130.2,145.7c-29.9-29.9-78-29.9-107.9,0s-29.9,78,0,107.9l167.4,167.4L21.9,588.7
	l0,0c-29,29.9-29,77.7,0.7,107.3c29.5,29.5,77.5,29.8,107.3,0.6l0,0l167.7-167.7l167.7,167.7l0,0c29.9,29.2,77.7,29.2,107.3-0.6
	c29.5-29.5,29.8-77.5,0.6-107.3l0,0L405.5,420.9l167.4-167.4c29.9-29.9,29.9-78,0-107.9S494.7,116,465,145.7z"/>
</svg>
