<?xml version="1.0" encoding="utf-8"?>
<!-- Generator: Adobe Illustrator 18.0.0, SVG Export Plug-In . SVG Version: 6.00 Build 0)  -->
<!DOCTYPE svg PUBLIC "-//W3C//DTD SVG 1.1//EN" "http://www.w3.org/Graphics/SVG/1.1/DTD/svg11.dtd">
<svg version="1.1" id="Layer_1" xmlns="http://www.w3.org/2000/svg" xmlns:xlink="http://www.w3.org/1999/xlink" x="0px" y="0px"
	 viewBox="-0.1 123.3 595.3 595.3" enable-background="new -0.1 123.3 595.3 595.3" xml:space="preserve" width="32px" height="32px">
<g id="Layer_1_1_">
	<path fill="#006B8D" d="M91.9,127.8c3.2-3,7-4.5,11.5-4.5h192.8c4.5,0,8.5,1.4,11.7,4.4c3.2,3,4.8,6.9,4.8,11.9v155.1
		c0,6.4,2.1,11.8,6.5,16.1c4.3,4.3,9.6,6.5,16.1,6.5h155.8c5,0,9.2,1.5,12.3,4.8c3.2,3.2,4.8,7,4.8,11.7v368.4
		c0,4.5-1.5,8.5-4.8,11.7c-3.2,3.2-7.3,4.8-12.3,4.8H103.5c-4.5,0-8.5-1.5-11.7-4.8s-4.8-7-4.8-11.7V139.7
		C87.1,134.7,88.7,130.8,91.9,127.8z M365.1,270.9h137.4c3.7,0,5.5-1.8,5.5-5.5v-28.7c0-1.3-0.7-2.7-2-4L396.7,125.3
		c-1.3-1.3-2.7-2-4-2h-27.4c-3.7,0-5.5,2-5.5,6.2v136C359.8,269.1,361.6,270.9,365.1,270.9L365.1,270.9z M150.1,202h99.3
		c8.6,0,15.5-6.9,15.5-15.5c0-8.6-6.9-15.5-15.5-15.5h-99.3c-8.6,0-15.5,6.9-15.5,15.5C134.7,195.1,141.6,202,150.1,202z
		 M445.2,502.5h-295c-8.6,0-15.5,6.9-15.5,15.5c0,8.6,6.9,15.5,15.5,15.5h295c8.6,0,15.5-6.9,15.5-15.5
		C460.6,509.4,453.7,502.5,445.2,502.5z M150.1,270.5h99.3c8.6,0,15.5-6.9,15.5-15.5s-6.9-15.5-15.5-15.5h-99.3
		c-8.6,0-15.5,6.9-15.5,15.5S141.6,270.5,150.1,270.5z M150.1,338.1h99.3c8.6,0,15.5-6.9,15.5-15.5c0-8.6-6.9-15.5-15.5-15.5h-99.3
		c-8.6,0-15.5,6.9-15.5,15.5C134.7,331.2,141.6,338.1,150.1,338.1z M154.2,404h0.2l27.1,48.7h21v-78.2h-19.2v48.2h-0.2L156,374.5
		h-21v78.2h19.2V404z M279.8,435.4h-43.1v-14.9H275v-15.8h-38.3v-13.7h41.9v-16.3h-62.4v78.2h63.6V435.4z M326.2,452.9l10.7-53.9
		h0.2l10.7,53.9h20.4l21.5-78.2h-20.4l-11.1,57.1h-0.2l-11.5-57.1h-19.2l-11.5,57.1h-0.2l-11.1-57.1h-20.4l21.2,78.2H326.2z
		 M405.1,378.4c-3.1,1.9-5.6,4.4-7.5,7.4c-1.9,3-2.9,6.7-2.9,11c0,3.6,0.7,6.7,2,9.2c1.3,2.5,3.1,4.6,5.2,6.3
		c2.1,1.7,4.6,3.1,7.4,4.3c2.7,1.1,5.5,2,8.2,2.9c2.9,0.8,5.6,1.5,8.2,2.1c2.6,0.6,5,1.3,7.1,2.1c2.1,0.8,3.8,1.8,5.1,2.9
		s1.9,2.5,1.9,4.3c0,1.4-0.4,2.7-1.1,3.7c-0.7,1.1-1.7,1.9-2.9,2.5c-1.2,0.6-2.5,1.1-4,1.3c-1.5,0.4-3,0.5-4.5,0.5
		c-4.4,0-7.9-1-10.5-2.6c-2.6-1.7-4-4.9-4.3-9.5h-20.4c0,5,1,9.3,2.7,12.9c1.9,3.5,4.4,6.3,7.5,8.7c3.1,2.3,6.8,3.9,10.8,4.9
		c4,1,8.3,1.5,12.9,1.5c4.3,0,8.5-0.4,12.6-1.3c4-0.8,7.7-2.3,11-4.3s5.7-4.6,7.6-8c1.9-3.3,2.9-7.5,2.9-12.5c0-3.6-0.6-6.5-2-9
		c-1.3-2.5-3-4.6-5.1-6.3s-4.5-3.1-7.3-4.3c-2.7-1.1-5.5-2-8.3-2.9c-2.9-0.8-5.6-1.5-8.3-2c-2.7-0.6-5.1-1.3-7.3-2
		c-2.1-0.7-3.9-1.5-5.1-2.5c-1.3-1-1.9-2.1-1.9-3.7c0-1.3,0.4-2.4,1-3.2c0.6-0.8,1.4-1.5,2.4-2c1-0.5,2-0.8,3.2-1.1
		c1.2-0.2,2.3-0.4,3.5-0.4c1.5,0,3.1,0.1,4.6,0.5c1.5,0.4,2.9,0.8,4.2,1.5c1.2,0.7,2.1,1.7,2.9,2.9c0.7,1.2,1.1,2.7,1,4.4H458
		c0-4.4-1-8.2-2.7-11.3c-1.8-3.2-4.2-5.8-7.1-7.9c-3-2-6.3-3.6-10-4.5c-3.8-1-7.6-1.4-11.4-1.4c-3.7,0-7.4,0.4-11.2,1.3
		C411.6,375.1,408.2,376.5,405.1,378.4z M269.9,578.9H143.1c-4.6,0-8.3,2.5-8.3,5.5v89.4c0,3,3.7,5.5,8.3,5.5h126.7
		c4.6,0,8.3-2.5,8.3-5.5v-89.4C278.1,581.4,274.4,578.9,269.9,578.9z M451.3,578.9H324.7c-4.6,0-8.3,2.5-8.3,5.5v89.4
		c0,3,3.7,5.5,8.3,5.5h126.7c4.6,0,8.3-2.5,8.3-5.5v-89.4C459.7,581.4,456,578.9,451.3,578.9z"/>
</g>
<g id="Layer_2">
</g>
</svg>
