<?xml version="1.0" encoding="utf-8"?>
<!-- Generator: Adobe Illustrator 18.0.0, SVG Export Plug-In . SVG Version: 6.00 Build 0)  -->
<!DOCTYPE svg PUBLIC "-//W3C//DTD SVG 1.1//EN" "http://www.w3.org/Graphics/SVG/1.1/DTD/svg11.dtd">
<svg version="1.1" id="Layer_1" xmlns="http://www.w3.org/2000/svg" xmlns:xlink="http://www.w3.org/1999/xlink" x="0px" y="0px"
	 viewBox="0 123.3 595.3 595.3" enable-background="new 0 123.3 595.3 595.3" xml:space="preserve" width="21px" height="21px">
<g>
	<path fill="#006B8D" d="M126.1,173H26.2C11.7,173,0,184.6,0,199.1c0,14.5,11.7,26.2,26.2,26.2h99.9c14.4,0,26.2-11.7,26.2-26.2
		C152.3,184.6,140.6,173,126.1,173z"/>
	<path fill="#006B8D" d="M586.4,267c-7.7-9.6-19.6-15.2-32.7-15.2H126.8c-0.6,0-1.2,0-1.8,0c-22.7,0-41.2,18.5-41.2,41.2
		c0,3.7,0.5,7.4,1.4,10.7l0,0L164.7,578c3.5,11,13.6,18.3,25,18.3H210c-5.2,7.5-8.2,16.5-8.2,26.4c0,25.6,20.7,46.3,46.3,46.3
		s46.3-20.7,46.3-46.3c0-9.8-3.1-18.9-8.2-26.4h125.2c-5.2,7.5-8.2,16.5-8.2,26.4c0,25.6,20.7,46.3,46.3,46.3
		c25.6,0,46.3-20.7,46.3-46.3c0-9.8-3.1-18.9-8.2-26.4h21.1c14.4,0,26.2-11.7,26.2-26.2c0-14.4-11.7-26.2-26.2-26.2h-300l-20.4-65
		h327c23,0,43.9-16.9,48.8-39.3l30.1-137.4C597.1,289.5,594.2,276.6,586.4,267z"/>
</g>
</svg>
