<?xml version="1.0" encoding="utf-8"?>
<!-- Generator: Adobe Illustrator 18.1.1, SVG Export Plug-In . SVG Version: 6.00 Build 0)  -->
<svg version="1.1" id="Capa_1" xmlns="http://www.w3.org/2000/svg" xmlns:xlink="http://www.w3.org/1999/xlink" x="0px" y="0px"
	 width="24px" height="24px" viewBox="357.1 4.9 24 24" enable-background="new 357.1 4.9 24 24" xml:space="preserve">
<path fill="#CCCCCC" d="M378.6,9.2H374V7.4c0-1.4-1.1-2.5-2.5-2.5h-4.9c-1.4,0-2.5,1.1-2.5,2.5v1.9h-4.6c-1.4,0-2.5,1.1-2.5,2.5
	v14.6c0,1.4,1.1,2.5,2.5,2.5h19c1.4,0,2.5-1.1,2.5-2.5V11.7C381.1,10.4,380,9.2,378.6,9.2z M365.7,7.4c0-0.5,0.5-1,1-1h4.9
	c0.5,0,1,0.5,1,1v1.9h-6.9V7.4z M362.5,27.4H361V10.7h1.5V27.4z M369.5,25.4h-0.8c-0.4,0-0.7-0.3-0.7-0.7s0.3-0.7,0.7-0.7h0.8
	c0.4,0,0.7,0.3,0.7,0.7S369.9,25.4,369.5,25.4z M377.3,27.4h-1.5V10.7h1.5V27.4z"/>
</svg>
