<?xml version="1.0" encoding="utf-8"?>
<!-- Generator: Adobe Illustrator 18.1.1, SVG Export Plug-In . SVG Version: 6.00 Build 0)  -->
<svg version="1.1" id="Capa_1" xmlns="http://www.w3.org/2000/svg" xmlns:xlink="http://www.w3.org/1999/xlink" x="0px" y="0px"
	 width="24px" height="24px" viewBox="4 -4 24 24" enable-background="new 4 -4 24 24" xml:space="preserve">
<path fill="#FFFFFF" d="M27.8,18.6L17.3,8.1L27.8-2.4c0.3-0.3,0.3-0.9,0-1.2c-0.2-0.2-0.4-0.3-0.6-0.3s-0.4,0.1-0.6,0.3L16,6.9
	L5.5-3.7C5.2-4,4.6-4,4.3-3.7S4-2.8,4.3-2.5L14.8,8L4.3,18.5c-0.3,0.3-0.3,0.9,0,1.2s0.9,0.3,1.2,0L16,9.2l10.5,10.5
	c0.2,0.2,0.4,0.3,0.6,0.3s0.4-0.1,0.6-0.3C28.1,19.5,28.1,18.9,27.8,18.6z"/>
</svg>
