<?xml version="1.0" encoding="utf-8"?>
<!-- Generator: Adobe Illustrator 18.1.1, SVG Export Plug-In . SVG Version: 6.00 Build 0)  -->
<svg version="1.1" id="Capa_1" xmlns="http://www.w3.org/2000/svg" xmlns:xlink="http://www.w3.org/1999/xlink" x="0px" y="0px"
	 width="24px" height="24px" viewBox="357.1 4.9 24 24" enable-background="new 357.1 4.9 24 24" xml:space="preserve">
<path fill="#CCCCCC" d="M380.9,27.4l-10.5-10.5l10.5-10.5c0.3-0.3,0.3-0.9,0-1.2c-0.2-0.2-0.4-0.3-0.6-0.3s-0.4,0.1-0.6,0.3
	l-10.5,10.5L358.6,5.1c-0.3-0.3-0.9-0.3-1.2,0s-0.3,0.9,0,1.2l10.5,10.5l-10.5,10.5c-0.3,0.3-0.3,0.9,0,1.2s0.9,0.3,1.2,0l10.5-10.5
	l10.5,10.5c0.2,0.2,0.4,0.3,0.6,0.3s0.4-0.1,0.6-0.3C381.2,28.3,381.2,27.7,380.9,27.4z"/>
</svg>
