<?xml version="1.0" encoding="utf-8"?>
<!-- Generator: Adobe Illustrator 18.1.1, SVG Export Plug-In . SVG Version: 6.00 Build 0)  -->
<svg version="1.1" id="Capa_1" xmlns="http://www.w3.org/2000/svg" xmlns:xlink="http://www.w3.org/1999/xlink" x="0px" y="0px"
	 width="24px" height="24px" viewBox="357.1 4.9 24 24" enable-background="new 357.1 4.9 24 24" xml:space="preserve">
<g>
	<polygon fill="#CCCCCC" points="368,7.7 368.6,7.7 368.3,6.9 	"/>
	<path fill="#CCCCCC" d="M375.1,5.5c0-0.3-0.3-0.6-0.6-0.6h-10.7c-0.3,0-0.6,0.3-0.6,0.6V10h12V5.5z M364.8,8.5h-0.5V6.4h0.5V8.5z
		 M366.3,8.6c-0.6,0-1.1-0.5-1.1-1.1c0-0.7,0.5-1.1,1.1-1.1c0.5,0,0.7,0.1,0.8,0.2l-0.1,0.3c-0.1,0-0.3-0.1-0.6-0.1
		c-0.3,0-0.7,0.3-0.7,0.8c0,0.4,0.4,0.8,0.7,0.8c0.3,0,0.5-0.1,0.6-0.1l0.1,0.3C366.9,8.5,366.7,8.6,366.3,8.6z M368.9,8.5L368.7,8
		h-0.8l-0.2,0.5h-0.4l0.9-2.2h0.3l0.8,2.2H368.9z M371.1,8.5h-1.4V6.4h1.4v0.3h-0.9v0.5h0.7v0.3h-0.7v0.6h0.9V8.5z M373.3,8.5H373
		l-0.4-1.1l-0.4,1.1H372l-0.7-2.2h0.5l0.5,1.5l0.3-0.9l-0.2-0.6h0.5l0.4,1.4l0.5-1.4h0.4L373.3,8.5z"/>
	<path fill="#CCCCCC" d="M375.1,18.3v-8h-12v18.6C375.5,28.9,375.1,20.1,375.1,18.3z M366,28.7L366,28.7c0-0.1,0-0.2,0-0.2
		c2.5-1.3,3.4-2.7,3.4-2.7l0.3,0.8c-1,1-2.9,2-3.2,2.1C366.4,28.6,366.2,28.7,366,28.7z M366.9,26.3c0.9-1.2,1.1-2.2,1.1-2.2
		c0.1-0.4,0-0.8-0.1-1.1c-0.1-0.2-1.1-2.9-1.1-2.9c0-0.1,0.3-0.5,0.3-0.5l1.8,4.7c-0.3,0.8-1.5,2.6-2.8,3.9
		C366.2,27.4,366.6,26.8,366.9,26.3z M366.5,19.2c0,0,0.3-0.5,0.3-0.5l0.2,0.6c0,0.1-0.3,0.5-0.3,0.5L366.5,19.2z M369,24.6l0.3,0.9
		c0,0-0.9,1.5-3.3,3c0-0.1,0-0.2,0-0.2C366.1,28.2,368.3,26.3,369,24.6z M367,28.5L367,28.5c2.1-0.8,2.9-1.7,2.9-1.7l0.3,0.7
		C369.4,27.9,368.5,28.2,367,28.5z M373.8,17l-1.2,2.8c0,0,0,0,0,0c0.1,0.1,0.1,0.2,0.1,0.3c0,0.2-0.2,0.4-0.4,0.4
		c-0.2,0-0.4-0.2-0.4-0.5c0-0.1,0.1-0.3,0.2-0.3c0,0,0,0,0,0l0-0.4c0,0-0.5-0.1-1.9-1.1c-0.1-0.1-0.1-0.2-0.1-0.3c0,0,0-0.1,0-0.2
		c0-0.1-0.1-0.2-0.2-0.2c-0.2,0-0.2,0.3-0.2,0.5c0,0.3,0.5,1.2,0.5,3.2c0,2-0.4,4.2-0.4,4.2l-1.1-3.3l0.2-0.2l0.3,0.9
		c0,0,0.1-0.1,0.1-0.2c0-0.1-0.3-1-0.4-1.1c0,0-0.1,0-0.1,0c-0.1,0.1-0.2,0.2-0.2,0.2l-0.4-1l0.2-0.2l0.3,0.9c0,0,0.1-0.1,0.1-0.2
		c0-0.1-0.3-1-0.4-1.1c0,0-0.1,0-0.1,0c-0.1,0.1-0.2,0.2-0.2,0.2l-0.5-1.5c0,0,0.2-0.7,1.2-1.2c0.1,0,0.3-0.1,0.2-0.2
		c0-0.2-0.2-0.1-0.4-0.1c-0.1,0.1-0.6,0.4-0.8,0.3c-0.1-0.1,0-0.2,0-0.4c0-0.1-0.1-0.5-0.3-0.4c-0.2,0-0.2,0.2-0.2,0.2l-0.4,0.7
		c0,0-0.1,0.2-0.3,0.2c-0.5,0-1.5-0.5-1.5-0.5c0.5,2.4,0.6,3,1,5.4c0,0,0,0,0,0c0,0,0,0,0,0c0,0-1.3-5.5-1.3-5.5s-0.1,0-0.1,0
		c0,0-0.2,0-0.3-0.4c0-0.1,0.1-0.2,0.2-0.2c0.1,0,0.1,0,0.1,0l-0.1-0.7c0,0,0-0.2,0.1-0.2c0.1,0,0.1,0,0.1,0s0.1,0.2,0.2,0.2
		c0,0,0.1,0.7,0.1,0.7s0.1,0.2,0.2,0.2c0.1,0,1.1,0.3,1.2,0.3c0.1,0,0.3,0,0.5-0.4c0.2-0.3,0.3-0.7,0.4-1c0.1-0.4,0.1-0.8,0.5-1.1
		c0.1-0.1,0.2-0.1,0.2-0.1c0,0,0,0.1,0,0.1c-0.1,0.1-0.1,0.2-0.1,0.3c0,0.2,0.1,0.7,0.9,0.7c0.3,0,0.6-0.1,0.6-0.4
		c0-0.1,0-0.3-0.6-0.7c-0.1,0-0.1-0.1,0.1-0.3c0.1-0.1,0.2-0.1,0.2-0.3c0-0.2-0.4-0.9-0.3-1.1c0.1-0.2,0.3-0.2,0.3-0.5
		c0-0.3-0.3-0.4-0.5-0.4c-0.2,0-0.4,0.1-0.4,0.2c0,0.1,0,0.2-0.1,0.2c-0.1,0-0.2-0.1-0.2-0.5c0,0,0-0.4,0.4-0.6
		c0.2-0.1,0.2-0.1,0.3-0.2c0.1-0.1,0.2-0.1,0.3-0.1c0.1,0,0.1,0,0.2,0c0.1,0,0.2,0,0.2,0c0.1,0,0.4,0.1,0.5,0.4c0.1,0.2,0,0.3,0,0.6
		c0,0.1,0.1,0.3,0.1,0.4c0,0.4-0.3,0.6-0.5,0.9c-0.2,0.2-0.2,0.4-0.2,0.4c0,0,0,0.8,1,1c0.2,0,0.4,0.3,0.4,0.7
		c0,0.6-0.1,1.4-0.1,1.4s0,0.6,0.3,0.8l1.2,0.8l-0.2-2.3l0-0.6c0,0,0,0,0,0c0,0,0,0,0,0l0.1,0.6l0.2,2.4c0,0,0,0,0.1,0
		c0.1,0,0.2,0.1,0.2,0.2c0,0.3-0.2,0.3-0.2,0.3l0,0.3c0,0,0,0,0,0c0,0,0,0,0,0c0,0,0,0,0.1,0c0,0,0,0,0,0l1.2-2.8l0.3-0.5
		c0,0,0,0,0,0c0,0,0,0,0,0L373.8,17z"/>
	
		<ellipse transform="matrix(6.727541e-02 -0.9977 0.9977 6.727541e-02 327.1192 390.3283)" fill="#CCCCCC" cx="372.3" cy="20.2" rx="0.2" ry="0.1"/>
</g>
</svg>
