<?xml version="1.0" encoding="utf-8"?>
<!-- Generator: Adobe Illustrator 18.1.1, SVG Export Plug-In . SVG Version: 6.00 Build 0)  -->
<svg version="1.1" id="Capa_1" xmlns="http://www.w3.org/2000/svg" xmlns:xlink="http://www.w3.org/1999/xlink" x="0px" y="0px"
	 width="24px" height="24px" viewBox="357.1 4.9 24 24" enable-background="new 357.1 4.9 24 24" xml:space="preserve">
<g>
	<g>
		<defs>
			<path id="SVGID_1_" d="M376.5,22.7c-3.2-1.2-4.2-2.1-4.2-4.2c0-1.2,0.9-0.9,1.4-3.3c0.2-0.9,0.9,0,1.2-2.3c0-0.9-0.7-1.2-0.7-1.2
				s0.2-1.4,0.2-2.3c0-1.2-1.2-4.4-5.5-4.4s-5.1,3.5-4.8,4.7c0,0.9,0.2,2.3,0.2,2.3s-0.7,0.2-0.7,1.2c0,2.3,0.9,1.2,1.2,2.3
				c0.7,2.3,1.4,1.9,1.4,3.3c0,2.1-0.9,3.3-4.2,4.2c-3.2,0.9-4.8,2.3-4.8,3.3v2.6h24v-2.6C381.3,25.1,379.5,23.9,376.5,22.7z"/>
		</defs>
		<clipPath id="SVGID_2_">
			<use xlink:href="#SVGID_1_"  overflow="visible"/>
		</clipPath>
		<g clip-path="url(#SVGID_2_)">
			<defs>
				<rect id="SVGID_3_" x="-27.2" y="-433.7" width="1219.8" height="4524.9"/>
			</defs>
			<clipPath id="SVGID_4_">
				<use xlink:href="#SVGID_3_"  overflow="visible"/>
			</clipPath>
			<rect x="353.3" y="1.1" clip-path="url(#SVGID_4_)" fill="#CCCCCC" width="31.7" height="31.5"/>
		</g>
	</g>
</g>
</svg>
