<?xml version="1.0" encoding="utf-8"?>
<!-- Generator: Adobe Illustrator 18.1.1, SVG Export Plug-In . SVG Version: 6.00 Build 0)  -->
<svg version="1.1" id="Capa_1" xmlns="http://www.w3.org/2000/svg" xmlns:xlink="http://www.w3.org/1999/xlink" x="0px" y="0px"
	 width="24px" height="24px" viewBox="357.1 4.9 24 24" enable-background="new 357.1 4.9 24 24" xml:space="preserve">
<g>
	<defs>
		<path id="SVGID_1_" d="M369.3,11.4h-2.2c-0.1,0-0.2-0.1-0.2-0.2v-0.9c0-0.1,0.1-0.2,0.2-0.2h2.2c0.1,0,0.2,0.1,0.2,0.2v0.9
			C369.5,11.3,369.4,11.4,369.3,11.4z M359.6,28.9c-1.4,0-2.5-1.1-2.5-2.5v-19c0-1.4,1.1-2.5,2.5-2.5h19c1.4,0,2.5,1.1,2.5,2.5v19
			c0,1.4-1.1,2.5-2.5,2.5H359.6z M369.3,12.9c0.9,0,1.6-0.6,1.7-1.4h5.2c0.4,0,0.8-0.3,0.8-0.8c0-0.4-0.3-0.8-0.8-0.8H371
			c-0.1-0.8-0.9-1.4-1.7-1.4h-2.2c-0.9,0-1.6,0.6-1.7,1.4h-3.3c-0.4,0-0.8,0.3-0.8,0.8c0,0.4,0.3,0.8,0.8,0.8h3.3
			c0.1,0.8,0.9,1.4,1.7,1.4H369.3z M375.2,19.1c1,0,1.8-0.8,1.8-1.7v-0.9c0-1-0.8-1.7-1.8-1.7H373c-0.9,0-1.6,0.6-1.7,1.4h-9.2
			c-0.4,0-0.8,0.3-0.8,0.8s0.3,0.8,0.8,0.8h9.2c0.1,0.8,0.9,1.4,1.7,1.4H375.2z M367.2,25.2c0.9,0,1.6-0.6,1.7-1.4h7.3
			c0.4,0,0.8-0.3,0.8-0.7c0-0.4-0.3-0.8-0.8-0.8h-7.3c-0.1-0.8-0.9-1.4-1.7-1.4H365c-0.9,0-1.6,0.6-1.7,1.4h-1.2
			c-0.4,0-0.8,0.3-0.8,0.8c0,0.4,0.3,0.7,0.8,0.7h1.2c0.1,0.8,0.9,1.4,1.7,1.4H367.2z M375.4,17.3v-0.9c0-0.1-0.1-0.2-0.2-0.2H373
			c-0.1,0-0.2,0.1-0.2,0.2v0.9c0,0.1,0.1,0.2,0.2,0.2h2.2C375.3,17.6,375.4,17.5,375.4,17.3z M367.4,23.5v-0.9
			c0-0.1-0.1-0.2-0.2-0.2H365c-0.1,0-0.2,0.1-0.2,0.2v0.9c0,0.1,0.1,0.2,0.2,0.2h2.2C367.3,23.7,367.4,23.6,367.4,23.5z"/>
	</defs>
	<clipPath id="SVGID_2_">
		<use xlink:href="#SVGID_1_"  overflow="visible"/>
	</clipPath>
	<g clip-path="url(#SVGID_2_)">
		<defs>
			<rect id="SVGID_3_" x="-488.9" y="-420.4" width="1185" height="4395.8"/>
		</defs>
		<clipPath id="SVGID_4_">
			<use xlink:href="#SVGID_3_"  overflow="visible"/>
		</clipPath>
		<rect x="353.4" y="1.1" clip-path="url(#SVGID_4_)" fill="#CCCCCC" width="31.5" height="31.5"/>
	</g>
</g>
</svg>
