<?xml version="1.0" encoding="utf-8"?>
<!-- Generator: Adobe Illustrator 18.1.1, SVG Export Plug-In . SVG Version: 6.00 Build 0)  -->
<svg version="1.1" id="Capa_1" xmlns="http://www.w3.org/2000/svg" xmlns:xlink="http://www.w3.org/1999/xlink" x="0px" y="0px"
	 width="24px" height="24px" viewBox="357.1 4.9 24 24" enable-background="new 357.1 4.9 24 24" xml:space="preserve">
<g>
	<path fill="#CCCCCC" d="M380.4,24.8l-4.1-4.2c-0.2-0.2-0.3-0.3-0.5-0.3c-0.3,0-0.4,0.1-0.6,0.3c-0.6,0.9-1.4,1.6-2.2,2.2
		c-0.2,0.2-0.3,0.3-0.3,0.5c0,0.3,0.1,0.4,0.3,0.6l4.1,4.2c0.4,0.4,1,0.7,1.7,0.7s1.3-0.3,1.7-0.7C381.4,27.3,381.4,25.7,380.4,24.8
		z"/>
	<path fill="#CCCCCC" d="M376.5,14.5c0-5.3-4.4-9.6-9.7-9.6s-9.7,4.4-9.7,9.7c0,5.3,4.4,9.6,9.7,9.6S376.5,19.8,376.5,14.5z
		 M366.8,21.3c-3.8,0-6.8-3-6.8-6.8c0-3.8,3-6.8,6.8-6.8c3.7,0,6.8,3,6.8,6.8C373.6,18.3,370.6,21.3,366.8,21.3z"/>
</g>
</svg>
