<?xml version="1.0" encoding="utf-8"?>
<!-- Generator: Adobe Illustrator 18.1.1, SVG Export Plug-In . SVG Version: 6.00 Build 0)  -->
<svg version="1.1" id="Capa_1" xmlns="http://www.w3.org/2000/svg" xmlns:xlink="http://www.w3.org/1999/xlink" x="0px" y="0px"
	 width="24px" height="24px" viewBox="357.1 4.9 24 24" enable-background="new 357.1 4.9 24 24" xml:space="preserve">
<linearGradient id="SVGID_1_" gradientUnits="userSpaceOnUse" x1="357.1401" y1="16.885" x2="381.0576" y2="16.885">
	<stop  offset="0" style="stop-color:#006A8D"/>
	<stop  offset="1" style="stop-color:#B5EAE3"/>
</linearGradient>
<path fill="url(#SVGID_1_)" d="M380.8,7.7c-0.4-0.3-0.9-0.3-1.2,0.1l-14.8,16.3l-6-7.3c-0.3-0.4-0.9-0.4-1.2-0.1
	c-0.4,0.3-0.4,0.9-0.1,1.2L364,26c0.2,0.2,0.4,0.3,0.7,0.3c0,0,0,0,0,0c0.2,0,0.5-0.1,0.6-0.3l15.5-17.1
	C381.2,8.6,381.1,8,380.8,7.7z"/>
</svg>
