<svg xmlns="http://www.w3.org/2000/svg" width="17" height="17" viewBox="0 0 17 17"><title>briefcase</title><path d="M15.938 3.18h-4.243V2.15c0-.88-.715-1.594-1.594-1.594H6.907c-.88 0-1.594.715-1.594 1.594v1.03h-4.25C.48 3.18 0 3.656 0 4.24v11.141c0 .584.478 1.063 1.063 1.063h14.875c.584 0 1.063-.478 1.063-1.063V4.243c0-.585-.477-1.063-1.062-1.063zM6.375 2.15c0-.294.238-.532.53-.532h3.196c.294 0 .532.238.532.53v1.03H6.375v-1.03zM1.063 4.24h14.875v3.724h-5.85V7.42c0-.586-.477-1.063-1.063-1.063H7.967c-.586 0-1.063.477-1.063 1.063v.544H1.062V4.24zm7.963 5.856h-1.06V7.42h1.06v2.676zm-7.963 5.286V9.027h5.842v1.07c0 .585.477 1.062 1.063 1.062h1.058c.586 0 1.063-.478 1.063-1.064v-1.07h5.85v6.356H1.063z"/></svg>