<svg xmlns="http://www.w3.org/2000/svg" width="17" height="17" viewBox="0 0 17 17"><title>directions</title><path d="M16.885 3.09L15.23 1.24c-.1-.113-.245-.178-.397-.178H9.018V.498C9.018.223 8.78 0 8.488 0s-.532.223-.532.498v.564H3.71c-.295 0-.532.238-.532.53v3.714c0 .294.238.53.53.53h4.248v1.065H2.17c-.153 0-.298.066-.398.18L.117 8.96c-.178.2-.178.504 0 .706l1.655 1.864c.1.114.245.162.397.162h5.786v4.81c0 .274.238.497.53.497s.532-.224.532-.5v-4.808h4.258c.294 0 .53-.238.53-.53V7.43c0-.294-.237-.53-.53-.53H9.018V5.836h5.815c.152 0 .297-.065.397-.18l1.655-1.864c.178-.2.178-.504 0-.705zm-4.14 7.54H2.404L1.224 9.314l1.183-1.35h10.338v2.666zm1.848-5.855H4.24v-2.65h10.353l1.183 1.316-1.183 1.334z"/></svg>