<svg xmlns="http://www.w3.org/2000/svg" width="17" height="17" viewBox="0 0 17 17"><title>earphones</title><path d="M16.997 10.037c.002-.35-.053-1.668-.095-2.046C16.42 3.663 12.905.52 8.548.52 4.01.52.333 4.017.084 8.653.08 8.753.04 9.473.04 9.9l-.002.238c-.022.098-.035.2-.035.304v4.626c0 .778.633 1.41 1.41 1.41h1.434c.778 0 1.412-.632 1.412-1.41v-4.626c0-.778-.635-1.41-1.413-1.41H1.414c-.098 0-.193.01-.285.028l.016-.35c.22-4.064 3.44-7.128 7.403-7.128 3.805 0 6.874 2.745 7.297 6.526.018.158.04.56.06.962-.105-.024-.21-.04-.32-.04H14.17c-.777 0-1.41.633-1.41 1.41v4.61c0 .78.633 1.412 1.41 1.412h1.417c.778 0 1.412-.633 1.412-1.41v-4.61c0-.088-.012-.172-.027-.254.015-.05.026-.1.026-.153zm-15.584.057h1.433c.193 0 .35.156.35.35v4.625c0 .192-.158.348-.35.348H1.413c-.193 0-.35-.156-.35-.35v-4.625c.002-.193.158-.35.35-.35zm14.522 4.958c0 .193-.157.35-.35.35H14.17c-.193 0-.35-.157-.35-.35v-4.61c0-.192.157-.348.35-.348h1.416c.193 0 .35.156.35.35v4.608z"/></svg>