<svg xmlns="http://www.w3.org/2000/svg" width="17" height="17" viewBox="0 0 17 17"><title>envelope-letter</title><path d="M16.99 7.857c-.024-.188-.094-.36-.202-.506h.003l-.014-.014c-.054-.072-.118-.135-.19-.19L13.813 4.35V2.636c0-.294-.238-.53-.53-.53h-1.683L9.66.45c-.6-.6-1.652-.602-2.254 0L5.474 2.105H3.72c-.295 0-.532.238-.532.53v1.75L.48 7.093c-.288.19-.48.516-.48.886v7.96c0 .584.48 1.063 1.064 1.063H15.94c.583 0 1.062-.478 1.062-1.063V8c.004-.048 0-.096-.01-.143zM4.463 12.045L1.062 15.2V9.045l3.402 3.002zm1.024.498c.07-.03.135-.075.19-.137.027-.032.05-.067.07-.104l2.288-2.124c.12-.097.263-.148.413-.148.15 0 .304.053.406.133l6.372 5.776H1.825l3.662-3.398zm7.102-.428l3.347-2.97v6.004l-3.347-3.035zm2.317-5.198h-.016l.912.926-1.99 1.767V5.82l1.095 1.096zM8.157 1.2c.1-.1.233-.155.375-.155s.275.056.376.156l1.073.905H7.086l1.07-.904zm4.592 1.967v7.385l-.952.845-2.263-2.05c-.626-.49-1.524-.513-2.186.022l-2.103 1.95-.997-.88V3.167h8.5zM1.722 7.35L3.187 5.89V9.5L1.25 7.794l.45-.44h.023z"/></svg>