<svg xmlns="http://www.w3.org/2000/svg" width="17" height="17" viewBox="0 0 17 17"><title>film</title><path d="M13.28 4.52h1.064c.293 0 .53-.238.53-.53v-.532c0-.293-.237-.53-.53-.53H13.28c-.292 0-.53.237-.53.53v.53c0 .294.238.532.53.532zm0 3.188h1.064c.293 0 .53-.238.53-.53v-.532c0-.293-.237-.53-.53-.53H13.28c-.292 0-.53.237-.53.53v.53c0 .294.238.532.53.532zm0 3.187h1.064c.293 0 .53-.238.53-.53v-.532c0-.293-.237-.53-.53-.53H13.28c-.292 0-.53.237-.53.53v.53c0 .294.238.532.53.532zm0 3.188h1.064c.293 0 .53-.238.53-.53v-.532c0-.292-.237-.53-.53-.53H13.28c-.292 0-.53.238-.53.53v.532c0 .293.238.53.53.53zM2.657 4.52H3.72c.292 0 .53-.238.53-.53v-.532c0-.293-.238-.53-.53-.53H2.655c-.293 0-.53.237-.53.53v.53c0 .294.237.532.53.532zm0 3.188H3.72c.292 0 .53-.238.53-.53v-.532c0-.293-.238-.53-.53-.53H2.655c-.293 0-.53.237-.53.53v.53c0 .294.237.532.53.532zm0 3.187H3.72c.292 0 .53-.238.53-.53v-.532c0-.293-.238-.53-.53-.53H2.655c-.293 0-.53.237-.53.53v.53c0 .294.237.532.53.532zm0 3.188H3.72c.292 0 .53-.238.53-.53v-.532c0-.292-.238-.53-.53-.53H2.655c-.293 0-.53.238-.53.53v.532c0 .293.237.53.53.53zM15.938.263H1.063C.48.264 0 .744 0 1.328v14.347c0 .584.478 1.063 1.063 1.063h14.875c.584 0 1.063-.478 1.063-1.063V1.327C17 .743 16.524.264 15.94.264zm0 15.41H1.063V1.326h14.875v14.347z"/></svg>