<svg xmlns="http://www.w3.org/2000/svg" width="17" height="17" viewBox="0 0 17 17"><title>list</title><path d="M1.594 7.438H.53c-.292 0-.53.238-.53.53v1.064c0 .293.238.53.53.53h1.064c.293 0 .53-.237.53-.53V7.97c0-.294-.237-.532-.53-.532zm14.875.53H5.312c-.293 0-.53.24-.53.532s.237.53.53.53H16.47c.292 0 .53-.237.53-.53s-.238-.53-.53-.53zM1.593 11.69H.53c-.292 0-.53.238-.53.53v1.064c0 .293.238.53.53.53h1.064c.293 0 .53-.237.53-.53V12.22c0-.294-.237-.532-.53-.532zm14.875.53H5.312c-.293 0-.53.24-.53.532s.237.53.53.53H16.47c.292 0 .53-.237.53-.53s-.238-.53-.53-.53zM1.593 3.19H.53c-.292 0-.53.238-.53.53v1.064c0 .293.238.53.53.53h1.064c.293 0 .53-.237.53-.53V3.72c0-.294-.237-.532-.53-.532zm3.72 1.593h11.155c.292 0 .53-.237.53-.53s-.238-.53-.53-.53H5.312c-.293 0-.53.237-.53.53s.237.53.53.53z"/></svg>