<svg xmlns="http://www.w3.org/2000/svg" width="17" height="17" viewBox="0 0 17 17"><title>paper-clip</title><path d="M2.867 16.728c-.72 0-1.413-.298-1.964-.85-1.223-1.227-1.223-3.222 0-4.448l9.534-10.124c1.488-1.49 3.766-1.356 5.43.31.744.745 1.162 1.82 1.147 2.952-.016 1.12-.453 2.19-1.2 2.94l-7.205 7.67c-.202.215-.538.225-.752.023s-.224-.538-.023-.752l7.216-7.682c.565-.566.89-1.368.9-2.212s-.292-1.642-.835-2.186c-1.02-1.022-2.68-1.557-3.915-.32L1.666 12.172c-.82.822-.82 2.142-.01 2.953.378.38.83.564 1.308.535.474-.03.962-.272 1.373-.685L11.923 6.9c.275-.274.827-.95.265-1.513-.318-.32-.542-.3-.616-.293-.21.02-.456.164-.71.42l-5.71 6.07c-.202.215-.538.226-.75.024-.215-.2-.225-.54-.024-.752l5.72-6.084c.45-.452.91-.697 1.378-.74.365-.03.908.046 1.463.602.82.824.72 2.033-.255 3.008L5.1 15.715c-.607.608-1.338.96-2.072 1.006-.054.005-.108.006-.162.006z"/></svg>