<svg xmlns="http://www.w3.org/2000/svg" width="17" height="17" viewBox="0 0 17 17"><title>playlist</title><path d="M.56 1.06h7.438c.293 0 .53-.24.53-.532s-.237-.53-.53-.53H.56c-.293 0-.53.237-.53.53s.237.53.53.53zm0 3.186h7.438c.293 0 .53-.238.53-.53s-.237-.532-.53-.532H.56c-.293 0-.53.238-.53.53s.237.532.53.532zm7.97 2.656c0-.293-.24-.53-.532-.53H.56c-.293 0-.53.237-.53.53s.237.53.53.53h7.438c.293 0 .53-.237.53-.53zm8.285-1.514L11.62.193c-.164-.165-.41-.197-.607-.1-.208.072-.36.267-.36.5v11.76c-.562-.416-1.3-.672-2.114-.672-1.762 0-3.19 1.193-3.19 2.662s1.428 2.662 3.19 2.662c1.76 0 3.188-1.192 3.188-2.662 0-.067-.006-.132-.012-.197V1.792l4.347 4.347c.207.206.544.206.75 0s.208-.545 0-.752zm-6.16 9.006c-.04.74-.9 1.54-2.128 1.54-1.256 0-2.13-.838-2.13-1.59s.874-1.592 2.13-1.592c1.227 0 2.09.8 2.127 1.54v.1z"/></svg>