<svg xmlns="http://www.w3.org/2000/svg" width="17" height="17" viewBox="0 0 17 17"><title>printer</title><path d="M15.817 4.232h-2.004V.008H3.187v4.224H1.183C.53 4.232 0 4.762 0 5.416v7.203c0 .652.53 1.183 1.183 1.183h2.004v3.188h10.626v-3.187h2.004c.653 0 1.184-.53 1.184-1.184V5.415c0-.653-.53-1.184-1.183-1.184zM4.25 1.054h8.5v3.178h-8.5V1.054zm8.5 14.876h-8.5v-5.85h8.5v5.85zm3.188-3.31c0 .068-.054.122-.12.122h-2.005V9.017H3.187v3.725H1.183c-.067 0-.12-.054-.12-.122V5.417c0-.067.053-.122.12-.122h14.634c.067 0 .12.054.12.122v7.203zm-2.125-6.254h-.53c-.294 0-.532.238-.532.53s.24.532.532.532h.53c.294 0 .532-.238.532-.53s-.238-.532-.53-.532z"/></svg>