<svg xmlns="http://www.w3.org/2000/svg" width="17" height="17" viewBox="0 0 17 17"><title>support</title><path d="M8.5 0C3.806 0 0 3.806 0 8.5S3.806 17 8.5 17 17 13.194 17 8.5 13.194 0 8.5 0zm2.125 1.378c2.394.714 4.277 2.603 4.992 4.997H12.17c-.37-.64-.905-1.173-1.545-1.545V1.377zm1.056 7.125c0 1.76-1.423 3.184-3.18 3.184S5.32 10.26 5.32 8.503 6.743 5.318 8.5 5.318s3.18 1.426 3.18 3.185zM7.44 1.143c.347-.05.702-.076 1.063-.076s.716.027 1.064.077v3.25c-.34-.087-.695-.138-1.063-.138s-.72.052-1.062.14V1.143zm-1.063.235V4.83c-.64.373-1.174.907-1.546 1.546H1.382C2.098 3.982 3.98 2.092 6.375 1.38zM1.068 8.503c0-.362.03-.717.08-1.065h3.245c-.088.34-.137.697-.137 1.065 0 .366.048.72.135 1.06H1.15c-.05-.347-.08-.7-.08-1.06zm5.307 7.125c-2.396-.714-4.28-2.606-4.994-5.003h3.445c.372.642.907 1.178 1.55 1.55v3.452zm3.188.233c-.347.05-.702.078-1.063.078s-.715-.027-1.063-.077v-3.25c.34.09.695.14 1.063.14s.723-.052 1.063-.14v3.25zm1.062-.232v-3.452c.642-.373 1.177-.91 1.55-1.55h3.443c-.714 2.396-2.598 4.29-4.993 5.003zm1.984-6.065c.086-.34.134-.693.134-1.06 0-.368-.05-.725-.137-1.065h3.244c.05.35.082.703.082 1.065 0 .36-.03.713-.08 1.06H12.61z"/></svg>