<svg xmlns="http://www.w3.org/2000/svg" width="17" height="17" viewBox="0 0 17 17"><title>target</title><path d="M16.47 7.97h-1.62c-.255-3.098-2.722-5.563-5.82-5.82V.533c0-.293-.237-.53-.53-.53s-.53.237-.53.53v1.62c-3.097.255-5.565 2.72-5.82 5.817H.53c-.293 0-.53.237-.53.53s.237.53.53.53H2.15c.255 3.097 2.723 5.563 5.82 5.82v1.618c0 .293.237.53.53.53s.53-.237.53-.53v-1.62c3.097-.255 5.565-2.72 5.82-5.817h1.62c.292 0 .53-.237.53-.53s-.238-.53-.53-.53zm-8.5-4.756V7.97H3.213c.25-2.51 2.245-4.507 4.755-4.756zM3.212 9.03h4.755v4.756c-2.51-.25-4.506-2.245-4.755-4.755zm5.818 4.756V9.03h4.756c-.25 2.51-2.245 4.507-4.755 4.756zm0-5.817V3.213c2.51.25 4.507 2.245 4.756 4.755H9.03z"/></svg>