<svg xmlns="http://www.w3.org/2000/svg" width="17" height="17" viewBox="0 0 17 17"><title>trash</title><path d="M14.888 2.64h-3.74V1.19c0-.672-.548-1.203-1.22-1.203H7.07c-.673 0-1.22.53-1.22 1.204v1.45H2.11c-.294 0-.532.238-.532.53s.238.532.53.532h.732l1.233 12.284c.052.575.54 1.026 1.115 1.026h6.62c.574 0 1.064-.45 1.115-1.02L14.16 3.7h.73c.294 0 .53-.238.53-.53s-.237-.532-.53-.532zM6.914 1.19c0-.086.07-.157.158-.157h2.855c.087 0 .158.07.158.158v1.45H6.913V1.19zm4.952 14.7c-.003.03-.037.06-.056.06H5.19c-.02 0-.055-.03-.058-.064L3.91 3.703h9.18L11.865 15.89z"/></svg>