<svg xmlns="http://www.w3.org/2000/svg" width="17" height="17" viewBox="0 0 17 17"><title>user-follow</title><path d="M1.064 14.853c0-.422.317-.555.444-.613l4.666-2.202c.334-.154.565-.47.61-.835s-.102-.728-.39-.958C5.292 9.36 4.778 7.41 4.778 6.375V3.718c0-1.11 1.932-2.655 3.72-2.655 1.805 0 3.718 1.52 3.718 2.654v2.654c0 1.022-.425 2.977-1.565 3.874-.29.23-.44.592-.398.96s.275.686.612.84l1.592.755.262-1.06-1.41-.66c1.47-1.158 1.97-3.434 1.97-4.71V3.72c0-1.76-2.435-3.717-4.78-3.717S3.713 1.96 3.713 3.72v2.654c0 1.16.53 3.507 2.015 4.7l-4.667 2.202S0 13.75 0 14.338v1.594c0 .587.476 1.062 1.063 1.062H12.75V15.93l-11.686.002v-1.078zm15.404-1.043h-1.594v-1.594c0-.294-.238-.53-.53-.53s-.532.237-.532.53v1.594h-1.594c-.293 0-.53.238-.53.53s.237.532.53.532h1.594v1.594c0 .293.238.53.53.53s.532-.237.532-.53v-1.594h1.594c.293 0 .53-.238.53-.53s-.237-.532-.53-.532z"/></svg>