<svg xmlns="http://www.w3.org/2000/svg" viewBox="-245 377 120 40" enable-background="new -245 377 120 40"><path d="M-188.4 386.2h6s6-.1 5.9 5.3c-.1 4-5.8 4.6-5.8 4.6h-6.1v-9.9zm18 19.5c.2.8.7 1.6 2.6 1.7 2.5.1 4-.9 4-.9v1.9s-2.8.7-4.1.7c-1.4 0-5.5-.3-5.5-4.1 0-3 3.4-4 5.3-4 3.4.1 5 1.3 5 4.8 0-.1-5.6-.1-7.3-.1zm0-1.6h4.6s0-1.7-2.3-1.7c-1.6 0-2.2 1-2.3 1.7zm14.6-1.8c.7-.7 1.8-1.3 3.7-1.3 3.8 0 4.4 3.1 4.3 4-.1.9-.3 4-4.7 4-1.6 0-2.6-.5-3.3-1.3v1h-3v-10.9h3v4.5zm2.5 5c1.7-.1 2.5-1.6 2.5-2.3s-.4-2.3-2.6-2.3c-1.7 0-2.3 1.3-2.4 1.9v.8c.2.8.7 1.9 2.5 1.9zm25.6-.3l.1 1.7s-1.4.3-2.3.3-3.3-.5-3.3-2.8v-3.5h-2.4v-1.6h2.4v-1.9h3v1.9h2.5v1.6h-2.4v3s0 1.5 1.2 1.5c1.1.1 1.2-.2 1.2-.2zm-9.2-19.2h3.5v8.4h3v-8.4h3.6v-1.7h-10l-.1 1.7zm-1.2.5l.3-1.7s-1.5-.7-4.2-.7c-2.6 0-6.7 1.5-6.7 5.4 0 3.8 4.4 5.2 7.1 5.2 2.7 0 3.6-.4 3.6-.4l-.3-1.9s-1.2.3-3.3.3c-2-.1-4-1.6-4-3.4.1-1.6 1.9-3.3 4.2-3.3 1.9-.1 3.3.5 3.3.5zm-26.7-2.2s5-.3 5 2.6c0 2.4-2.8 2.6-2.8 2.6s.8.1 1.1.7c.3.5 2.3 4.1 2.3 4.1h-3s-.5-.6-.7-1c-.2-.4-.7-1.3-.7-1.3s-.4-1.5-1.9-1.5c-.1 0-.6 0-1.1-.1v3.9h-2.9V386h4.7v.1zm-1.8 4.5h1.6s2.2-.1 2.3-1.5c.1-1.3-2.1-1.5-2.1-1.5h-1.7l-.1 3zm12.1 1.6h4.8v-1.9h-4.8V388h5.2v-1.9h-8.2v10h8.3v-1.8h-5.3v-2.1zm11.8 7.8h3v-2h-3v2zm0 8.8h3v-7.7h-3v7.7zm-32.3-12.6h2.9v-10.1h-2.9v10.1zm-13.4 2.5h6s6-.1 5.9 5.3c-.1 4-5.8 4.6-5.8 4.6h-6.1v-9.9zm2.9 8.1h1.9s4-.3 4-3.3-4.2-3.4-4.2-3.4h-1.7v6.7zm0-12.5h1.9s4-.3 4-3.3c0-3.1-4.2-3.4-4.2-3.4h-1.7v6.7zM-215.5 392.2v20.2s-11.7-2.1-11.7-10.1c0-6.4 8.7-9.3 11.7-10.1zm0-.4c-7-.5-23 2.8-23 10 0 4.7 8.5 11.6 22.1 11.8.5 0 16.1-.6 15.9-17.4-.2-14.1-10.7-16.5-14.1-17v-.8c13.4.9 24 8.9 24 18.7 0 10.4-11.8 18.8-26.3 18.8s-26.3-8.5-26.3-18.8 11.8-18.8 26.3-18.8h1.3l.1 13.5z"/></svg>