<svg xmlns="http://www.w3.org/2000/svg" viewBox="0 369.2 595.3 103.6" enable-background="new 0 369.2 595.3 103.6" width="272" height="48"><g fill="#CA2027"><path d="M498 417.8s-2 3.1-2 3.2l1.5 3.9s1.7-3 2-3.3l-1.5-3.8zM589.4 465.7c-2.4-1-3.9-3-3.9-11.8v-36.1c0-9-2.5-21.3-27.7-21.3-20.4 0-31.4 9.8-31.4 17.7v.2l-1.3-.8c-2.4-1.7-2.1-5.5-2.1-5.5s.6-5.7.8-9.5c.2-2.9-1.1-4.6-2.5-4.9-7.1-1.1-6.9-6.4-6.9-6.5 0-.1-.1-1.7 1.2-3.1 1.5-1.7 3.1-3.2 3.3-5.8.1-1-.6-1.8-.6-2.7-.1-1.5.6-2.5-.1-3.8-1-1.5-3-2.4-3.5-2.5-.4-.1-1.3 0-1.7 0-.2 0-.5-.1-1.2-.1-.6 0-1.9.4-2.3.8-.2.2-.4.5-1.9 1.2-2.7 1.2-2.7 4-2.7 4 0 2.3 1.1 3.2 1.5 3.1.5 0 .5-.7.5-1.7s1-1.5 2.4-1.5c1.3 0 3.3 1 3.3 2.7 0 2-1.3 2.1-2.3 3.7-.8 1.5 1.8 5.8 1.8 7.4s-.8 1.8-1.3 2.1c-1.2.8-1.2 1.4-.7 1.8 3.8 2.7 4 4 4 4.8 0 1.7-2.1 2.5-4 2.5-5.1 0-6.1-3.5-6.1-4.6 0-1.1.2-1.8 1-2.4.1-.1.4-.4.1-.6-.2-.2-.8 0-1.4.6-2.5 2-2.5 5.1-3.2 7.5-.7 2-1.4 4.3-2.6 6.5-1.2 2.3-2.7 2.4-3.5 2.4-.7 0-7.1-1.8-8-2-.8-.2-1.2-1.7-1.2-1.7s-.7-4.2-.8-4.4c-.1-.2-1.1-1.4-1.1-1.4s-.2-.4-.7-.2c-.7.1-.6 1.1-.6 1.1l1 4.6h-.5c-.5 0-1.2.5-1.1 1.4.2 2.9 1.5 2.9 1.8 2.9.4 0 .7.1.7.1s8.5 37 8.6 37.3c0 .1.1.2.2.2s.1-.1.1-.2c-2.7-16.3-3.5-20.5-6.8-36.6 0 0 6.4 3.5 9.9 3.5 1.4 0 2.3-1.3 2.3-1.3l2.7-4.4s.5-1 1.5-1.1c1.2-.1 2.3 2.1 2.3 3 0 .8-1 1.9-.2 2.4 1 .6 4.4-1.9 5.1-2.3.7-.5 2.1-.5 2.4.5.2.7-1.1 1.3-1.7 1.7-6.4 3.7-8 8.2-8 8.2l3.6 10.1s.5-.7 1.1-1.3c.5-.5.8-.4 1-.4.6.2 2.9 6.7 2.9 7.3s-.8 1.3-.8 1.3l-2-5.8-1.1 1.2 2.5 7s.5-.7 1.1-1.2c.5-.5.7-.4.8-.4.7.2 2.9 6.7 2.9 7.3s-.8 1.3-.8 1.3l-2-5.8-1.1 1.2 7.7 22s2.4-15.2 2.4-28.7c0-13.3-2.9-19.9-3.1-21.8-.2-2 .1-3.7 1.4-3.7.5 0 1.1.6 1.1 1.4v1.2c0 .2.1 1.3 1 1.8 6.1 4.3 9.4 6 11.2 6.5.7.2 1.4.5 2.1.7 0 .1 0 .1-.1.2-.5.4-.7 1-.8 1.5-.1 1.2.7 2.1 1.8 2.1 1.1.1 1.9-.8 2-1.9 0-.6-.1-1.3-.5-1.5v-.1c3.1 0 5-1.3 5.8-4.5 2.6-13.9 7.4-17.9 13.5-17.9 6.3 0 10.4 4.5 10.4 14.3v9c-3.6 3.8-16.4 7.4-27.1 10.2-11.8 3.3-15 9.4-15 17.4 0 11.2 6.5 21.5 21.3 21.5 9.4 0 16-6.3 21.2-9.5 1.3 5.5 3.9 9.5 11.3 9.5s12.9-1.5 17.4-4.3v-2.1c-2 .4-4.3.4-6-.2zM535 425c-.4 0-.6-.4-.6-.8s.4-.7.7-.7.6.4.6.8-.3.7-.7.7zm31.2 28.6c0 8.8-6.1 11-9.9 11-7.7 0-11.9-7.7-11.9-16.7 0-7 2-10.8 7.5-13.3 4.9-2.6 10.8-5.2 14.3-6.9v25.9zm-67.4 17.1h-8.5v-3.5c10.4 0 19.3-7.4 14.5-22.9-.5-1.3-1.2-3.1-1.9-5.1-2.1-5.6-4.8-12.4-4.8-12.4.4-.6 2-3.3 2-3.3l11.3 29.6c-.3 5.3-4.7 15.7-12.6 17.6zm15.9-8.9c-.5 2.9-2.4 6.2-5 8.9H502.5c5.4-3.1 8.9-10 9.9-15.2l.7 2 1.6 4.3zm1.4 3.6l2 5.2-.1.1h-6.3c1.8-2.1 3.1-4.6 3.8-7l.6 1.7zm20.4-42.9c-.7 0-1.5 0-2.4-.2l-.2-1.8-.2-2.4-1-10.8v-2.9s0-.1.1-.1c0 0 .1 0 .1.1l.7 2.7 1.1 11.2.2 2.3.1 1.3c0 .1 0 .1.1.1h.4c.1 0 .1 0 .1-.1l5.6-13.1 1.4-2.5s.1-.1.1 0v.1l-.8 2.7-5.4 13.4zM20.8 432c-.1 16.9 4.5 31.9 20.1 31.9 10.8 0 16.9-4.9 21.7-15.2l2.6 1.3c-4.8 13.2-13.5 22.7-30.7 22.7C7.9 472.6 0 455.8 0 434.6c0-20.8 9.3-38.2 35-38.2 28.1 0 31 19.6 31 30 0 4-2.1 5.5-7.5 5.5H20.8v.1zm20.2-3.9c3.8 0 4.9-1.4 4.9-5.5 0-9.5-1.5-22.3-11.8-22.3-10.8 0-13.2 16.8-13.2 27.7H41zM134.3 449.5c-4.5 16.9-17.5 23-31.1 23-21.3 0-33.8-12.5-33.8-37.3 0-23 12.1-38.8 36.8-38.8 14.2 0 26.9 6.3 26.9 15.8 0 6.3-6.4 8.8-11.2 8.8-3.6 0-6-1.4-6.5-4.8-1.8-9.9-3.8-16.1-11.2-16.1-7.7 0-13.8 10.5-13.8 31 0 21.7 8.3 32.6 19.6 32.6 8.5 0 16.7-3 22-15.4l2.3 1.2zM173.7 396.5c26.1 0 36.6 14.4 36.6 38.2 0 23.7-10.5 38-36.8 38-26.1 0-36.9-14.3-36.9-38s10.8-38.2 36.9-38.2h.2zm-16 38.4c0 20 4.9 34.3 15.8 34.3 11.2 0 15.7-14.3 15.7-34.4 0-20.2-4.6-34.5-15.7-34.5-11 0-15.8 14.3-15.8 34.4v.2zM283.4 460.1c0 6.8.6 6.5 9.3 7.3v3.5h-37.5v-3.5c6.3-.5 8.5-.4 8.5-7v-41.1c0-9.8-4.4-14.8-12.4-14.8-6.5 0-11.3 3.6-13.3 7.5-1 2-1.4 5.4-1.4 8.7v39.5c0 6.8 2.1 6.4 8.3 7v3.5h-37.4v-3.5c8.7-.5 9.3-1.1 9.3-7.9v-47c0-6.1-1-7.4-3.8-7.7l-4.8-.8v-3l26.2-4.3 2 10.5c9.5-5.8 16.3-10.7 25.2-10.7 14.9 0 21.7 9 21.7 23.2v40.6h.1zM326.3 396.5c26.1 0 36.6 14.4 36.6 38.2 0 23.7-10.5 38-36.8 38-26.1 0-36.9-14.3-36.9-38s10.8-38.2 36.9-38.2h.2zm-15.9 38.4c0 20 4.9 34.3 15.8 34.3 11.2 0 15.7-14.3 15.7-34.4 0-20.2-4.5-34.5-15.7-34.5-11 0-15.8 14.3-15.8 34.4v.2zM369.3 412.4c0-6.1-1-7.4-3.8-7.7l-4.5-.8v-3l26.1-4.3 2 10.4c8.3-5.4 14.9-10.5 24.8-10.5 10.8 0 16.5 5.8 19.5 11.7 6.8-4.4 15.4-11.7 26-11.7 15.1 0 21.8 8.8 21.8 23.1v39.9c0 6.5.6 7.3 9.3 7.9v3.5H453v-3.5c6.3-.5 8.6-.4 8.6-7v-40.8c0-9.9-5.2-14.9-12.7-14.9-5.5.1-10.7 2.9-12.6 9.2-1 2-1.3 4.4-1.3 7.9v38.8c0 6.8 2.4 6.4 8.7 7v3.5h-36.8v-3.5c6.3-.5 8.5-.4 8.5-7v-41c0-9.3-4-14.9-11.8-14.9-6.4 0-11.9 3-13.7 9.8-.6 2-.8 4.5-.8 7.3v38.8c0 6.5 2.1 6.4 8.5 7v3.5h-37.5v-3.5c8.9-.5 9.3-1.3 9.3-7.9v-47.1h-.1z"/></g></svg>