<svg xmlns="http://www.w3.org/2000/svg" viewBox="0 345.3 595.3 151.1" enable-background="new 0 345.3 595.3 151.1" width="336" height="84"><g><linearGradient id="a" gradientUnits="userSpaceOnUse" x1="-309.407" y1="187.803" x2="27.227" y2="382.158" gradientTransform="matrix(.302 0 0 .302 71.146 330.263)"><stop offset="0" stop-color="#8B0304"/><stop offset="1" stop-color="#ED1C24"/></linearGradient><path fill="url(#a)" d="M75.3 429.9v-50.4H0v117c78 0 75.3-55.4 75.3-66.6zm0-80.7c0-2.2-1.8-3.9-3.9-3.9H3.9c-2.2 0-3.9 1.8-3.9 3.9v28.2h75.3v-28.2z"/><g fill="#fff"><path d="M7.5 368.2v-13.6h2.9v13.7l-2.9-.1zM24.7 367.5c-1 .5-2.3 1-4.9 1-4 0-7.2-2.9-7.2-7.1 0-4.2 3.1-7.1 7.2-7.1 2.8 0 4.1.7 4.8 1l-.8 2c-.6-.3-1.6-.8-3.6-.8-2.2 0-4.5 2-4.5 4.9 0 2.8 2.3 4.9 4.5 4.9 1.9 0 3-.5 3.7-.8l.8 2zM36.1 368.2l-1-3.1h-4.8l-1.1 3.1h-2.6l5.6-13.7h2l5.1 13.7h-3.2zm-3.3-9.9l-1.9 5h3.5l-1.6-5zM49.9 368.2h-8.8v-13.6h8.6v2.1H44v3.5h4.1v2.1H44v3.8h5.9v2.1zM64 368.4h-1.8l-2.2-6.9-2.5 6.9h-1.8l-4.5-13.8h2.9l3 9.3 2-5.4-1.3-3.9h2.9l2.8 9 3.1-9H69l-5 13.8z"/></g><g fill="#fff"><path d="M23 432.6s-1.9 2.8-1.9 3l1.4 3.7s1.5-2.7 1.9-3.1l-1.4-3.6zM57.5 437.1l.2 1.8c0 .1.1.2.2.2h.2c.1 0 .2 0 .4.1.1 0 .2-.1.2-.1l7.4-17.5 1.9-3.3c0-.1.1-.1.2-.1s.1.1.1.2l-1 3.6-7.3 17.7c0 .1-.1.2 0 .3.5.4.7 1.3.7 2.1-.1 1.5-1.3 2.7-2.7 2.6-1.4-.1-2.4-1.4-2.3-2.9.1-.8.4-1.7 1-2.1.1-.1.1-.2.1-.3l-.2-2.4s-3.1-.9-12.2-6.9c-.8-.5-.8-1.4-.8-1.7v-1.1c0-.8-.5-1.3-1-1.3-1.2 0-1.6 1.6-1.4 3.5s2.9 7.9 2.9 20.3c0 12.5-2.2 26.6-2.2 26.6l-7.2-20.5 1-1.1 1.9 5.4s.9-.6.8-1.2c-.1-.6-2.1-6.5-2.7-6.7-.1 0-.4-.2-.8.3-.5.5-.9 1.1-.9 1.1l-2.3-6.5 1-1.1 1.9 5.4s.9-.6.8-1.2c-.1-.6-2.1-6.5-2.7-6.7-.1 0-.4-.2-.8.3-.5.5-.9 1.1-.9 1.1l-3.3-9.5s1.5-4.2 7.5-7.7c.5-.3 1.7-.8 1.5-1.5-.3-1-1.5-.9-2.2-.5-.7.4-3.8 2.7-4.8 2.1-.7-.5.2-1.5.2-2.2 0-.8-.9-2.9-2.1-2.7-1 .1-1.5 1-1.5 1l-2.6 4.1s-.8 1.1-2.1 1.2c-3.2.1-9.6-3-9.6-3 3.2 15 3.8 18.8 6.4 34 0 .1 0 .2-.1.2-.2 0-.2-.1-.2-.2s-7.9-34.6-7.9-34.6-.3-.2-.7-.2c-.3 0-1.5 0-1.7-2.7-.1-.9.6-1.3 1-1.3h.4L8 417.1s-.2-.9.5-1c.6-.1.7.3.7.3s.9 1.1 1 1.4.7 4.1.7 4.1.4 1.4 1.1 1.6 7 1.8 7.8 1.7c.7 0 2.1-.2 3.2-2.2 1.1-2.1 1.8-4.1 2.4-6.1.7-2.2.7-5 3.1-6.9.6-.5 1.1-.8 1.4-.6.2.2 0 .4-.2.5-.6.5-.9 1.2-.9 2.2 0 1 .8 4.2 5.6 4.3 1.8 0 3.8-.8 3.8-2.3 0-.7-.3-1.9-3.8-4.5-.4-.3-.4-.8.7-1.6.5-.3 1.2-.5 1.2-2s-2.4-5.5-1.6-6.9c.8-1.4 2.1-1.5 2.1-3.4 0-1.7-1.9-2.6-3.1-2.6-1.4.1-2.2.6-2.2 1.5s0 1.5-.5 1.6-1.4-.8-1.5-2.9c0 0 0-2.7 2.5-3.8 1.5-.7 1.5-.8 1.8-1.1.4-.4 1.5-.8 2.1-.8.6 0 .8.1 1 .1.3 0 1.2-.1 1.5 0 .4.1 2.3.9 3.1 2.3.7 1.2.1 2.2.1 3.5 0 .9.7 1.7.6 2.5-.2 2.4-1.7 3.8-3.1 5.4-1.1 1.3-1 2.7-1 2.8 0 .2-.3 5.1 6.4 6.1 1.4.2 2.5 1.9 2.3 4.5-.2 3.6-.7 8.9-.7 8.9s-.3 3.6 2 5.1l7.8 5.1-1.3-14.4.1-3.8c0-.1 0-.1.1-.1s.1 0 .1.1l.9 3.6 1.4 14.9h.6c.4 0 1.1.4 1.1 1 .1 1.9-1.1 1.9-1.4 1.9zm.5 3.7c-.5 0-.9.4-1 1 0 .6.3 1 .8 1.1.5 0 .9-.4 1-1 .1-.6-.4-1.1-.8-1.1zM30.9 466.3s-1.4 6.8-6.9 14.1c-2.1 2.7-4.5 6.9-5.5 11.6 8.3-8.2 15.7-19.6 17.8-24.6L25 437.9s-1.5 2.5-1.9 3.1c0 0 6.5 16.8 7 18.3.7 1.8 1.5 4.3.8 7zM18.5 492.2c-.1.5-.2 1-.2 1.5 15.4-9.6 20.8-18.8 20.8-18.8l-2.1-5.5c-4.8 11-18.5 22.8-18.5 22.8zM21.5 494.8c-1.1.2-2.3.4-3.4.6 0-.5.1-1 .2-1.5 15.8-8 21.6-17 21.6-17l1.9 4.9c-6.2 6.3-18.6 12.2-20.3 13zM44.2 487.8c-4.7 2.3-10.4 4.6-19.6 6.5h-.2c13.3-5.3 18.2-10.6 18.2-10.6l1.6 4.1z"/></g><g fill="#fff"><path d="M135.5 411.2h-3.3l-2.2-6.4h-8.6l-2.4 6.4h-2.7l9-22h2l8.2 22zm-6.3-8.6l-3.4-9.4-3.6 9.4h7zM168.7 395.7l-5.7 15.6h-1.9l-4.6-12-4.7 12H150l-5.4-15.3 2.6-.7 4.1 12.3 4.6-12h1.9l4.6 12 4-12.3 2.3.4zM186.1 403.2c0 2.4-.7 4.4-2.2 6s-3.3 2.3-5.5 2.3c-2.3 0-4.1-.8-5.6-2.3-1.5-1.5-2.2-3.6-2.2-6s.7-4.4 2.2-5.9c1.4-1.5 3.3-2.3 5.6-2.3 2.2 0 4 .8 5.4 2.3 1.5 1.7 2.3 3.7 2.3 5.9zm-3.1 0c0-1.9-.4-3.4-1.3-4.5-.8-1.1-2-1.6-3.5-1.6-1.4 0-2.5.6-3.4 1.6-.8 1.1-1.2 2.6-1.2 4.5 0 2 .4 3.6 1.2 4.7.8 1.1 2 1.7 3.5 1.7s2.6-.6 3.4-1.7c.9-1.1 1.3-2.7 1.3-4.7zM199.1 396.7l-1.4 1.9c-1-.5-1.7-.8-2.1-.8-1.1 0-1.8.6-2.2 1.9-.3.9-.4 2.2-.4 4v7.4h-2.8v-15.7h2.8v2.2l.7-1c.7-1 1.5-1.6 2.6-1.6.8.2 1.8.7 2.8 1.7zM204.4 411.2h-2.8v-23h2.8v23zM223.7 411.2H221v-2.4c-1.5 1.9-3.4 2.8-5.5 2.8-2.2 0-4-.8-5.3-2.5-1.2-1.5-1.8-3.4-1.8-5.7 0-2.4.7-4.4 2.2-5.9s3.2-2.3 5.4-2.3c2 0 3.7.8 5 2.3v-9.3h2.7v23zm-2.7-8.1c0-1.8-.4-3.2-1.3-4.3-.9-1.1-2.1-1.6-3.5-1.6s-2.6.5-3.4 1.6c-.8 1-1.3 2.5-1.3 4.4 0 2 .4 3.6 1.3 4.8.8 1.2 2 1.8 3.4 1.8 1.5 0 2.6-.6 3.5-1.8.8-1.4 1.3-3 1.3-4.9zM239.6 411.2h-2.8v-23h2.8v23zM257.2 403.5h-10.6c0 1.9.6 3.3 1.5 4.4 1 1.1 2.3 1.7 3.9 1.7 1.4 0 2.8-.5 4.1-1.4l.8 1.5c-1.9 1.2-3.7 1.8-5.6 1.8-2.4 0-4.3-.8-5.7-2.4-1.4-1.6-2-3.6-2-6 0-2.3.7-4.2 2-5.7s3.1-2.3 5.3-2.3c2.9 0 4.8 1.3 5.7 3.9.4 1.1.6 2.6.6 4.5zm-2.7-1.7c0-1.3-.2-2.4-.7-3.2-.6-1-1.6-1.5-2.8-1.5-1.2 0-2.2.4-2.9 1.2s-1.2 2-1.3 3.4l7.7.1zM272.6 411.2h-3c-.2-.6-.3-.9-.3-1-.1-.3-.1-.7-.1-1.3-1.3 1.8-3 2.7-5.1 2.7-1.3 0-2.3-.4-3.1-1.2-.8-.8-1.3-1.9-1.3-3.2 0-2 1.1-3.5 3.2-4.6 1-.5 2.3-1 3.6-1.4 1-.3 1.9-.5 2.6-.6-.2-2.4-1.4-3.6-3.4-3.6-1.3 0-2.6.6-4 1.7l-1.1-1.4c1.5-1.4 3.4-2.1 5.6-2.1 2.2 0 3.8.7 4.7 2 .4.5.6 1.1.7 1.6.2.6.2 1.6.2 2.9v4.5c0 1.4 0 2.4.1 3 .2.6.4 1.3.7 2zm-3.4-7.2v-1.5c-.1 0-.7.1-1.9.4-3.2.7-4.8 2-4.8 3.9 0 .8.2 1.4.7 1.9.4.5 1 .7 1.8.7 1 0 1.9-.3 2.6-1 .6-.6 1-1.2 1.3-1.9.2-.9.3-1.7.3-2.5zM290.6 411.2h-2.7v-2.4c-1.5 1.9-3.4 2.8-5.5 2.8-2.2 0-4-.8-5.3-2.5-1.2-1.5-1.8-3.4-1.8-5.7 0-2.4.7-4.4 2.2-5.9s3.2-2.3 5.4-2.3c2 0 3.7.8 5 2.3v-9.3h2.7v23zm-2.7-8.1c0-1.8-.4-3.2-1.3-4.3-.9-1.1-2.1-1.6-3.5-1.6s-2.6.5-3.4 1.6c-.8 1-1.3 2.5-1.3 4.4 0 2 .4 3.6 1.3 4.8.8 1.2 2 1.8 3.4 1.8 1.5 0 2.6-.6 3.5-1.8.9-1.4 1.3-3 1.3-4.9zM307.7 403.5h-10.6c0 1.9.6 3.3 1.5 4.4s2.3 1.7 3.9 1.7c1.4 0 2.8-.5 4.1-1.4l.8 1.5c-1.9 1.2-3.7 1.8-5.6 1.8-2.4 0-4.3-.8-5.7-2.4-1.4-1.6-2-3.6-2-6 0-2.3.7-4.2 2-5.7s3.1-2.3 5.3-2.3c2.9 0 4.8 1.3 5.7 3.9.4 1.1.6 2.6.6 4.5zm-2.7-1.7c0-1.3-.2-2.4-.7-3.2-.6-1-1.6-1.5-2.8-1.5-1.2 0-2.2.4-2.9 1.2-.8.8-1.2 2-1.3 3.4l7.7.1zM320.4 396.7l-1.4 1.9c-1-.5-1.7-.8-2.1-.8-1.1 0-1.8.6-2.2 1.9-.3.9-.4 2.2-.4 4v7.4h-2.8v-15.7h2.8v2.2l.7-1c.7-1 1.5-1.6 2.6-1.6.9.2 1.8.7 2.8 1.7zM345.1 403.2c0 2.4-.7 4.4-2.2 6s-3.3 2.3-5.5 2.3c-2.3 0-4.1-.8-5.6-2.3-1.5-1.5-2.2-3.6-2.2-6s.7-4.4 2.2-5.9c1.4-1.5 3.3-2.3 5.6-2.3 2.2 0 4 .8 5.4 2.3 1.5 1.7 2.3 3.7 2.3 5.9zm-3 0c0-1.9-.4-3.4-1.3-4.5-.8-1.1-2-1.6-3.5-1.6-1.4 0-2.5.6-3.4 1.6-.8 1.1-1.2 2.6-1.2 4.5 0 2 .4 3.6 1.2 4.7s2 1.7 3.5 1.7 2.6-.6 3.4-1.7c.8-1.1 1.3-2.7 1.3-4.7zM356.1 388.9l-.6 1.4c-.5-.2-1-.2-1.4-.2-1 0-1.7.4-2 1.3-.1.3-.2 1.1-.2 2.3v2h3.8v1.7h-3.8v14h-2.8v-14h-2.5v-1.7h2.5V394c0-1.8.3-3.1.8-3.9.9-1.3 2.2-1.9 3.8-1.9.9 0 1.7.2 2.4.7zM374.9 410.6c-1.1.7-2.3 1-3.4 1-1.7 0-2.9-.6-3.7-1.9-.5-.7-.7-2-.7-4.1v-8.5h-2.2v-1.7h2.2v-3.8l2.8-.9v4.7h4.1v1.7h-4.1v8.3c0 1.6.2 2.7.5 3.3.3.6.9.9 1.8.9.7 0 1.4-.2 2.1-.6l.6 1.6zM390.8 411.2H388v-8.8c0-1.7-.2-2.9-.6-3.6-.6-1.1-1.6-1.6-3.1-1.6-1.9 0-3.2.8-3.9 2.3-.3.7-.4 1.8-.4 3.4v8.2h-2.8v-23h2.8v9.3c1.6-1.6 3.4-2.3 5.4-2.3 2.6 0 4.3 1 5 3.1.2.7.4 2.1.4 4.1v8.9zM407.9 403.5h-10.6c0 1.9.6 3.3 1.5 4.4s2.3 1.7 3.9 1.7c1.4 0 2.8-.5 4.1-1.4l.8 1.5c-1.9 1.2-3.7 1.8-5.6 1.8-2.4 0-4.3-.8-5.7-2.4-1.4-1.6-2-3.6-2-6 0-2.3.7-4.2 2-5.7s3.1-2.3 5.3-2.3c2.9 0 4.8 1.3 5.7 3.9.4 1.1.6 2.6.6 4.5zm-2.7-1.7c0-1.3-.2-2.4-.7-3.2-.6-1-1.6-1.5-2.8-1.5-1.2 0-2.2.4-2.9 1.2-.8.8-1.2 2-1.3 3.4l7.7.1zM431.6 411.2h-3c-.2-.6-.3-.9-.3-1-.1-.3-.1-.7-.1-1.3-1.3 1.8-3 2.7-5.1 2.7-1.3 0-2.3-.4-3.1-1.2-.8-.8-1.3-1.9-1.3-3.2 0-2 1.1-3.5 3.2-4.6 1-.5 2.3-1 3.6-1.4 1-.3 1.9-.5 2.6-.6-.2-2.4-1.4-3.6-3.4-3.6-1.3 0-2.6.6-4 1.7l-1.1-1.4c1.5-1.4 3.4-2.1 5.6-2.1 2.2 0 3.8.7 4.7 2 .4.5.6 1.1.7 1.6.2.6.2 1.6.2 2.9v4.5c0 1.4 0 2.4.1 3 .2.6.4 1.3.7 2zm-3.4-7.2v-1.5c-.1 0-.7.1-1.9.4-3.2.7-4.8 2-4.8 3.9 0 .8.2 1.4.7 1.9.4.5 1 .7 1.8.7 1 0 1.9-.3 2.6-1 .6-.6 1-1.2 1.3-1.9.1-.9.3-1.7.3-2.5zM447.4 410c-1.5 1.1-3.2 1.6-5.2 1.6-2.3 0-4.2-.8-5.7-2.4-1.5-1.5-2.2-3.5-2.2-5.8 0-2.4.8-4.4 2.3-5.9 1.5-1.5 3.5-2.3 5.9-2.3 1.7 0 3.1.4 4.4 1.3l-1 1.6c-1.1-.6-2.2-.9-3.2-.9-1.7 0-3 .6-4 1.7s-1.5 2.6-1.5 4.4c0 2 .5 3.5 1.5 4.7s2.3 1.7 4 1.7c1.3 0 2.6-.4 3.8-1.2l.9 1.5zM462.4 410c-1.5 1.1-3.2 1.6-5.2 1.6-2.3 0-4.2-.8-5.7-2.4-1.5-1.5-2.2-3.5-2.2-5.8 0-2.4.8-4.4 2.3-5.9 1.5-1.5 3.5-2.3 5.9-2.3 1.7 0 3.1.4 4.4 1.3l-1 1.6c-1.1-.6-2.2-.9-3.2-.9-1.7 0-3 .6-4 1.7s-1.5 2.6-1.5 4.4c0 2 .5 3.5 1.5 4.7 1 1.2 2.3 1.7 4 1.7 1.3 0 2.6-.4 3.8-1.2l.9 1.5zM479.9 403.2c0 2.4-.7 4.4-2.2 6-1.4 1.6-3.3 2.3-5.5 2.3-2.3 0-4.1-.8-5.6-2.3-1.5-1.5-2.2-3.6-2.2-6s.7-4.4 2.2-5.9c1.4-1.5 3.3-2.3 5.6-2.3 2.2 0 4 .8 5.4 2.3 1.6 1.7 2.3 3.7 2.3 5.9zm-3 0c0-1.9-.4-3.4-1.3-4.5-.8-1.1-2-1.6-3.5-1.6-1.4 0-2.5.6-3.4 1.6-.8 1.1-1.2 2.6-1.2 4.5 0 2 .4 3.6 1.2 4.7.8 1.1 2 1.7 3.5 1.7s2.6-.6 3.4-1.7c.9-1.1 1.3-2.7 1.3-4.7zM497.6 411.2h-2.8v-2c-1.6 1.6-3.4 2.3-5.4 2.3-2.6 0-4.3-1-5-3.1-.2-.7-.4-2.1-.4-4.1v-8.8h2.8v8.8c0 1.7.2 2.9.6 3.6.6 1.1 1.6 1.6 3.1 1.6 1.9 0 3.2-.8 3.9-2.3.3-.7.5-1.9.5-3.4v-8.2h2.8l-.1 15.6zM516.6 411.2h-2.8v-8.8c0-1.7-.2-2.9-.6-3.6-.6-1.1-1.6-1.6-3.1-1.6-1.9 0-3.2.8-3.9 2.3-.3.7-.4 1.8-.4 3.4v8.2H503v-15.7h2.8v2c1.5-1.6 3.4-2.3 5.4-2.3 2.6 0 4.3 1 5 3.1.2.7.4 2.1.4 4.1v8.9zM530 410.6c-1.1.7-2.3 1-3.4 1-1.7 0-2.9-.6-3.7-1.9-.5-.7-.7-2-.7-4.1v-8.5H520v-1.7h2.2v-3.8l2.8-.9v4.7h4.1v1.7H525v8.3c0 1.6.2 2.7.5 3.3.3.6.9.9 1.8.9.7 0 1.4-.2 2.1-.6l.6 1.6zM544.4 411.2h-3c-.2-.6-.3-.9-.3-1-.1-.3-.1-.7-.1-1.3-1.3 1.8-3 2.7-5.1 2.7-1.3 0-2.3-.4-3.1-1.2-.8-.8-1.3-1.9-1.3-3.2 0-2 1.1-3.5 3.2-4.6 1-.5 2.3-1 3.6-1.4 1-.3 1.9-.5 2.6-.6-.2-2.4-1.4-3.6-3.4-3.6-1.3 0-2.6.6-4 1.7l-1.1-1.4c1.5-1.4 3.4-2.1 5.6-2.1 2.2 0 3.8.7 4.7 2 .4.5.6 1.1.7 1.6.2.6.2 1.6.2 2.9v4.5c0 1.4 0 2.4.1 3 .2.6.4 1.3.7 2zM541 404v-1.5c-.1 0-.7.1-1.9.4-3.2.7-4.8 2-4.8 3.9 0 .8.2 1.4.7 1.9.4.5 1 .7 1.8.7 1 0 1.9-.3 2.6-1 .6-.6 1-1.2 1.3-1.9.2-.9.3-1.7.3-2.5zM562.2 411.2h-2.8v-8.8c0-1.7-.2-2.9-.6-3.6-.6-1.1-1.6-1.6-3.1-1.6-1.9 0-3.2.8-3.9 2.3-.3.7-.4 1.8-.4 3.4v8.2h-2.8v-15.7h2.8v2c1.5-1.6 3.4-2.3 5.4-2.3 2.6 0 4.3 1 5 3.1.2.7.4 2.1.4 4.1v8.9zM579.1 410c-1.5 1.1-3.2 1.6-5.2 1.6-2.3 0-4.2-.8-5.7-2.4-1.5-1.5-2.2-3.5-2.2-5.8 0-2.4.8-4.4 2.3-5.9 1.5-1.5 3.5-2.3 5.9-2.3 1.7 0 3.1.4 4.4 1.3l-1 1.6c-1.1-.6-2.2-.9-3.2-.9-1.7 0-3 .6-4 1.7s-1.5 2.6-1.5 4.4c0 2 .5 3.5 1.5 4.7s2.3 1.7 4 1.7c1.3 0 2.6-.4 3.8-1.2l.9 1.5zM595.3 395.8l-7.8 17.7c-.9 2-1.7 3.3-2.5 4.1-1.1 1-2.6 1.5-4.5 1.5h-.7V417h.7c1.1 0 1.9-.1 2.4-.4s1-.8 1.5-1.6c.3-.5 1-2 2.2-4.5l-6.4-14.3 2.8-.7 4.8 12.1 5.1-12.1 2.4.3z"/></g><g fill="#fff"><path d="M130.2 448.4h-3c-.2-.6-.3-.9-.3-1-.1-.3-.1-.7-.1-1.3-1.3 1.8-3 2.7-5.1 2.7-1.3 0-2.3-.4-3.1-1.2-.8-.8-1.3-1.9-1.3-3.2 0-2 1.1-3.5 3.2-4.6 1-.5 2.3-1 3.6-1.4 1-.3 1.9-.5 2.6-.6-.2-2.4-1.4-3.6-3.4-3.6-1.3 0-2.6.6-4 1.7l-1.1-1.4c1.5-1.4 3.4-2.1 5.6-2.1 2.2 0 3.8.7 4.7 2 .4.5.6 1.1.7 1.6.2.6.2 1.6.2 2.9v4.5c0 1.4 0 2.4.1 3 .2.6.4 1.3.7 2zm-3.5-7.2v-1.5c-.1 0-.7.1-1.9.4-3.2.7-4.8 2-4.8 3.9 0 .8.2 1.4.7 1.9.5.5 1 .7 1.8.7 1 0 1.9-.3 2.6-1 .6-.6 1-1.2 1.3-1.9.2-1 .4-1.8.3-2.5zM148 448.4h-2.8v-8.8c0-1.7-.2-2.9-.6-3.6-.6-1.1-1.6-1.6-3.1-1.6-1.9 0-3.2.8-3.9 2.3-.3.7-.4 1.8-.4 3.4v8.2h-2.8v-15.7h2.8v2c1.5-1.6 3.4-2.3 5.4-2.3 2.6 0 4.3 1 5 3.1.2.7.4 2.1.4 4.1v8.9zM167.1 448.4h-2.7V446c-1.5 1.9-3.4 2.8-5.5 2.8-2.2 0-4-.8-5.3-2.5-1.2-1.5-1.8-3.4-1.8-5.7 0-2.4.7-4.4 2.2-5.9 1.4-1.6 3.2-2.3 5.4-2.3 2 0 3.7.8 5 2.3v-9.3h2.7v23zm-2.7-8.1c0-1.8-.4-3.2-1.3-4.3-.9-1.1-2.1-1.6-3.5-1.6s-2.6.5-3.4 1.6c-.8 1-1.3 2.5-1.3 4.4 0 2 .4 3.6 1.3 4.8s2 1.8 3.4 1.8c1.5 0 2.6-.6 3.5-1.8.8-1.4 1.3-3 1.3-4.9zM187.1 426l-.6 1.4c-.5-.2-1-.2-1.4-.2-1 0-1.7.4-2 1.3-.1.3-.2 1.1-.2 2.3v2h3.8v1.7h-3.8v14h-2.8v-14h-2.5v-1.7h2.5v-1.5c0-1.8.3-3.1.8-3.9.9-1.3 2.2-1.9 3.8-1.9.8-.1 1.6.1 2.4.5zM192.8 427.7c0 .5-.2.9-.5 1.3-.4.4-.8.5-1.3.5s-.9-.2-1.3-.5-.5-.7-.5-1.2c0-1.2.6-1.9 1.8-1.9.5 0 .9.2 1.3.5.4.4.5.8.5 1.3zm-.4 20.7h-2.8v-15.7h2.8v15.7zM211.1 448.4h-2.8v-8.8c0-1.7-.2-2.9-.6-3.6-.6-1.1-1.6-1.6-3.1-1.6-1.9 0-3.2.8-3.9 2.3-.3.7-.4 1.8-.4 3.4v8.2h-2.8v-15.7h2.8v2c1.5-1.6 3.4-2.3 5.4-2.3 2.6 0 4.3 1 5 3.1.2.7.4 2.1.4 4.1v8.9zM227.9 448.4h-3c-.2-.6-.3-.9-.3-1-.1-.3-.1-.7-.1-1.3-1.3 1.8-3 2.7-5.1 2.7-1.3 0-2.3-.4-3.1-1.2-.8-.8-1.3-1.9-1.3-3.2 0-2 1.1-3.5 3.2-4.6 1-.5 2.3-1 3.6-1.4 1-.3 1.9-.5 2.6-.6-.2-2.4-1.4-3.6-3.4-3.6-1.3 0-2.6.6-4 1.7l-1.1-1.4c1.5-1.4 3.4-2.1 5.6-2.1 2.2 0 3.8.7 4.7 2 .4.5.6 1.1.7 1.6.2.6.2 1.6.2 2.9v4.5c0 1.4 0 2.4.1 3 .2.6.4 1.3.7 2zm-3.4-7.2v-1.5c-.1 0-.7.1-1.9.4-3.2.7-4.8 2-4.8 3.9 0 .8.2 1.4.7 1.9.5.5 1 .7 1.8.7 1 0 1.9-.3 2.6-1 .6-.6 1-1.2 1.3-1.9.2-1 .3-1.8.3-2.5zM245.8 448.4H243v-8.8c0-1.7-.2-2.9-.6-3.6-.6-1.1-1.6-1.6-3.1-1.6-1.9 0-3.2.8-3.9 2.3-.3.7-.4 1.8-.4 3.4v8.2h-2.8v-15.7h2.8v2c1.5-1.6 3.4-2.3 5.4-2.3 2.6 0 4.3 1 5 3.1.2.7.4 2.1.4 4.1v8.9zM262.6 447.1c-1.5 1.1-3.2 1.6-5.2 1.6-2.3 0-4.2-.8-5.7-2.4-1.5-1.5-2.2-3.5-2.2-5.8 0-2.4.8-4.4 2.3-5.9 1.5-1.5 3.5-2.3 5.9-2.3 1.7 0 3.1.4 4.4 1.3l-1 1.6c-1.1-.6-2.2-.9-3.2-.9-1.7 0-3 .6-4 1.7s-1.5 2.6-1.5 4.4c0 2 .5 3.5 1.5 4.7 1 1.2 2.3 1.7 4 1.7 1.3 0 2.6-.4 3.8-1.2l.9 1.5zM278.2 440.7h-10.6c0 1.9.6 3.3 1.5 4.4 1 1.1 2.3 1.7 3.9 1.7 1.4 0 2.8-.5 4.1-1.4l.8 1.5c-1.9 1.2-3.7 1.8-5.6 1.8-2.4 0-4.3-.8-5.7-2.4-1.4-1.6-2-3.6-2-6 0-2.3.7-4.2 2-5.7s3.1-2.3 5.3-2.3c2.9 0 4.8 1.3 5.7 3.9.4 1.1.6 2.6.6 4.5zm-2.7-1.8c0-1.3-.2-2.4-.7-3.2-.6-1-1.6-1.5-2.8-1.5-1.2 0-2.2.4-2.9 1.2-.8.8-1.2 2-1.3 3.4l7.7.1zM305.5 440.2c0 2.5-.7 4.5-2.2 6.1-1.4 1.6-3.2 2.4-5.4 2.4-1.9 0-3.6-.8-5-2.5v9.9h-2.7v-23.5h2.7v2.4c1.3-1.8 3.2-2.8 5.6-2.8 2.1 0 3.8.7 5.1 2.2 1.3 1.6 1.9 3.5 1.9 5.8zm-3 .1c0-1.9-.4-3.3-1.3-4.4-.8-1.1-2-1.6-3.4-1.6-1.5 0-2.7.6-3.6 1.8-.9 1.2-1.3 2.7-1.3 4.7 0 1.9.4 3.3 1.3 4.4.9 1.1 2.1 1.6 3.6 1.6 1.6 0 2.8-.7 3.6-2.1.8-1.2 1.1-2.7 1.1-4.4zM318.6 433.9l-1.4 1.9c-1-.5-1.7-.8-2.1-.8-1.1 0-1.8.6-2.2 1.9-.3.9-.4 2.2-.4 4v7.4h-2.8v-15.7h2.8v2.2l.7-1c.7-1 1.5-1.6 2.6-1.6.8.1 1.7.7 2.8 1.7zM334.7 440.4c0 2.4-.7 4.4-2.2 6s-3.3 2.3-5.5 2.3c-2.3 0-4.1-.8-5.6-2.3-1.5-1.5-2.2-3.6-2.2-6s.7-4.4 2.2-5.9c1.5-1.5 3.3-2.3 5.6-2.3 2.2 0 4 .8 5.4 2.3 1.6 1.7 2.3 3.6 2.3 5.9zm-3 0c0-1.9-.4-3.4-1.3-4.5-.8-1.1-2-1.6-3.5-1.6-1.4 0-2.5.6-3.4 1.6-.8 1.1-1.2 2.6-1.2 4.5 0 2 .4 3.6 1.2 4.7.8 1.1 2 1.7 3.5 1.7s2.6-.6 3.4-1.7c.9-1.1 1.3-2.7 1.3-4.7zM345.8 426l-.6 1.4c-.5-.2-1-.2-1.4-.2-1 0-1.7.4-2 1.3-.1.3-.2 1.1-.2 2.3v2h3.8v1.7h-3.8v14h-2.8v-14h-2.5v-1.7h2.5v-1.5c0-1.8.3-3.1.8-3.9.9-1.3 2.2-1.9 3.8-1.9.8-.1 1.6.1 2.4.5zM360 440.7h-10.6c0 1.9.6 3.3 1.5 4.4 1 1.1 2.3 1.7 3.9 1.7 1.4 0 2.8-.5 4.1-1.4l.8 1.5c-1.9 1.2-3.7 1.8-5.6 1.8-2.4 0-4.3-.8-5.7-2.4-1.4-1.6-2-3.6-2-6 0-2.3.7-4.2 2-5.7s3.1-2.3 5.3-2.3c2.9 0 4.8 1.3 5.7 3.9.4 1.1.6 2.6.6 4.5zm-2.7-1.8c0-1.3-.2-2.4-.7-3.2-.6-1-1.6-1.5-2.8-1.5-1.2 0-2.2.4-2.9 1.2-.8.8-1.2 2-1.3 3.4l7.7.1zM372.6 444.2c0 1.4-.5 2.5-1.5 3.3-1 .8-2.3 1.3-3.8 1.3-1.8 0-3.4-.7-5-2l1.4-1.6c1.1 1.1 2.3 1.6 3.4 1.6.8 0 1.4-.2 1.9-.6.5-.4.7-1 .7-1.7 0-.6-.2-1.1-.5-1.5-.3-.4-1-1-2.2-1.8-1.3-.9-2.1-1.6-2.5-2-.8-.9-1.3-1.8-1.3-2.8 0-1.2.5-2.2 1.4-2.9s2.1-1.2 3.5-1.2c1.5 0 2.8.5 4.1 1.4l-1.1 1.5c-.9-.7-1.8-1-2.9-1-.7 0-1.2.2-1.7.5s-.7.7-.7 1.3c0 .7.6 1.5 1.9 2.4 1.9 1.4 3.2 2.4 3.8 3.2.8.7 1.1 1.6 1.1 2.6zM385.6 444.2c0 1.4-.5 2.5-1.5 3.3-1 .8-2.3 1.3-3.8 1.3-1.8 0-3.4-.7-5-2l1.4-1.6c1.1 1.1 2.3 1.6 3.4 1.6.8 0 1.4-.2 1.9-.6.5-.4.7-1 .7-1.7 0-.6-.2-1.1-.5-1.5-.3-.4-1-1-2.2-1.8-1.3-.9-2.1-1.6-2.5-2-.8-.9-1.3-1.8-1.3-2.8 0-1.2.5-2.2 1.4-2.9s2.1-1.2 3.5-1.2c1.5 0 2.8.5 4.1 1.4l-1.1 1.5c-.9-.7-1.8-1-2.9-1-.7 0-1.2.2-1.7.5-.4.3-.7.7-.7 1.3 0 .7.6 1.5 1.9 2.4 1.9 1.4 3.2 2.4 3.8 3.2.8.7 1.1 1.6 1.1 2.6zM392.6 427.7c0 .5-.2.9-.5 1.3-.4.4-.8.5-1.3.5s-.9-.2-1.3-.5-.5-.7-.5-1.2c0-1.2.6-1.9 1.8-1.9.5 0 .9.2 1.3.5.3.4.5.8.5 1.3zm-.4 20.7h-2.8v-15.7h2.8v15.7zM411.3 440.4c0 2.4-.7 4.4-2.2 6s-3.3 2.3-5.5 2.3c-2.3 0-4.1-.8-5.6-2.3-1.5-1.5-2.2-3.6-2.2-6s.7-4.4 2.2-5.9c1.5-1.5 3.3-2.3 5.6-2.3 2.2 0 4 .8 5.4 2.3 1.6 1.7 2.3 3.6 2.3 5.9zm-3 0c0-1.9-.4-3.4-1.3-4.5-.8-1.1-2-1.6-3.5-1.6-1.4 0-2.5.6-3.4 1.6-.8 1.1-1.2 2.6-1.2 4.5 0 2 .4 3.6 1.2 4.7.8 1.1 2 1.7 3.5 1.7s2.6-.6 3.4-1.7c.9-1.1 1.3-2.7 1.3-4.7zM429.2 448.4h-2.8v-8.8c0-1.7-.2-2.9-.6-3.6-.6-1.1-1.6-1.6-3.1-1.6-1.9 0-3.2.8-3.9 2.3-.3.7-.4 1.8-.4 3.4v8.2h-2.8v-15.7h2.8v2c1.5-1.6 3.4-2.3 5.4-2.3 2.6 0 4.3 1 5 3.1.2.7.4 2.1.4 4.1v8.9z"/></g></g></svg>