<svg xmlns="http://www.w3.org/2000/svg" xmlns:xlink="http://www.w3.org/1999/xlink" viewBox="0 0 500 166" enable-background="new 0 0 500 166" width="80" height="52"><defs><path id="a" d="M393.3.4V166c110.4.1 106.6-78.4 106.6-94.3V.4H393.3zM20.2.4C9 .4 0 9.4 0 20.5V166h387.8V.3L20.2.4z"/></defs><clipPath id="b"><use xlink:href="#a" overflow="visible"/></clipPath><linearGradient id="c" gradientUnits="userSpaceOnUse" x1="-175.512" y1="547.258" x2="-170.898" y2="547.258" gradientTransform="matrix(89.613 51.738 51.738 -89.613 -12552.439 58079.168)"><stop offset="0" stop-color="#871913"/><stop offset=".191" stop-color="#921813"/><stop offset=".523" stop-color="#AE1714"/><stop offset=".953" stop-color="#DC1416"/><stop offset="1" stop-color="#E11416"/></linearGradient><path clip-path="url(#b)" fill="url(#c)" d="M125.9-217.7L575.4 41.8 377.7 384.1-71.7 124.6z"/><path fill="#fff" d="M38.8 47.9h14.8v70.3H38.8z"/><defs><path id="d" d="M-62.3-62h614.7v323H-62.3z"/></defs><clipPath id="e"><use xlink:href="#d" overflow="visible"/></clipPath><path clip-path="url(#e)" fill="#fff" d="M127.2 114.4c-5 2.6-11.8 5.1-25.1 5.1C81.2 119.5 65 104.6 65 83c0-21.5 16.2-36.6 37.1-36.6 14.6 0 21.4 3.4 24.4 5.1l-4.2 10.1c-2.8-1.4-8.4-4-18.6-4-11.3 0-23 10.2-23 25.3 0 14.5 11.7 25.2 23 25.2 10 0 15.3-2.3 19.1-3.9l4.4 10.2zM185.5 118.2l-5.4-15.8h-24.8l-5.9 15.8H136l28.7-70.5H175l25.9 70.5h-15.4zM168.6 67L159 92.6h18L168.6 67zM256.9 118.2h-45.3V47.9h44v11h-29.1v17.7h21.3v11h-21.3v19.7h30.4zM329.5 118.9h-9.2l-11.5-35.3-12.8 35.3h-9.2l-23.1-71h14.8L293.7 96l10.1-27.8-6.6-20.3h14.9l14.4 46.6 15.9-46.6h13zM425.8 75.5s-2.6 4-2.7 4.2l2 5.2s2.2-3.8 2.6-4.3l-1.9-5.1zM474.6 81.9l.2 2.5c0 .1.1.3.3.2h.3c.2 0 .3 0 .5.1.2 0 .2-.1.3-.2l10.5-24.7 2.6-4.6c0-.1.1-.1.2-.1s.1.1.1.2l-1.5 5.1-10.3 25c0 .1-.1.3 0 .4.7.5 1 1.8.9 3-.1 2.1-1.9 3.8-3.8 3.6-2-.1-3.4-2-3.3-4.1.1-1.2.6-2.3 1.5-2.9.2-.1.1-.2.1-.4l-.3-3.4s-4.4-1.3-17.3-9.8c-1.1-.7-1.2-2-1.2-2.4v-1.6c0-1.1-.7-1.8-1.4-1.8-1.7 0-2.2 2.3-1.9 4.9.3 2.6 4.1 11.1 4.1 28.7-.1 17.6-3.1 37.7-3.1 37.7l-10.2-29 1.4-1.6 2.7 7.7s1.2-.9 1.2-1.7c-.1-.8-2.9-9.2-3.8-9.5-.1-.1-.5-.3-1.2.4s-1.3 1.6-1.3 1.6l-3.2-9.2 1.4-1.6 2.7 7.7s1.2-.9 1.2-1.7c-.1-.8-2.9-9.2-3.8-9.6-.1-.1-.5-.3-1.2.4s-1.3 1.6-1.3 1.6L432 79.4s2-6 10.6-10.9c.7-.4 2.4-1.1 2.1-2.1-.4-1.4-2.2-1.3-3.1-.7-1 .6-5.4 3.8-6.7 3-1-.6.2-2 .3-3.2.1-1.2-1.3-4.1-3-3.9-1.4.2-2 1.4-2 1.4l-3.6 5.8s-1.1 1.6-2.9 1.7c-4.6.1-13.5-4.3-13.5-4.3 4.5 21.3 5.4 26.7 9 48.2 0 .1 0 .3-.1.3-.2 0-.3-.1-.3-.3-.1-.3-11.3-49.1-11.3-49.1s-.5-.2-1-.2c-.4 0-2.2 0-2.4-3.8-.1-1.2.9-1.9 1.4-1.9h.6l-1.3-6.2s-.2-1.3.7-1.5c.8-.1 1 .4 1 .4s1.3 1.6 1.4 1.9c.1.3 1 5.8 1 5.8s.6 1.9 1.6 2.2c1 .3 10 2.5 11 2.4 1 0 3-.3 4.6-3.2 1.6-2.9 2.6-5.9 3.4-8.6 1-3.1 1-7.1 4.3-9.9.8-.7 1.6-1.1 1.9-.8.3.3-.1.6-.2.7-.9.7-1.2 1.6-1.2 3.1s1.1 6 7.9 6c2.5 0 5.4-1.1 5.4-3.3 0-1-.4-2.7-5.4-6.3-.6-.4-.6-1.2.9-2.3.7-.5 1.8-.7 1.8-2.8 0-2-3.5-7.8-2.3-9.8 1.2-2 3-2.1 3-4.8 0-2.4-2.6-3.7-4.4-3.6-1.9.1-3.2.8-3.2 2.1s0 2.2-.7 2.2c-.7.1-2-1.2-2.1-4.1 0 0 0-3.8 3.6-5.4 2.1-.9 2.2-1.2 2.5-1.5.6-.6 2.2-1.1 3-1.1.9 0 1.1.1 1.5.1.5 0 1.7-.2 2.2 0 .6.1 3.3 1.3 4.5 3.3 1 1.7.1 3.1.2 5 .1 1.3 1 2.4.8 3.6-.4 3.4-2.4 5.4-4.4 7.6-1.6 1.8-1.5 3.8-1.5 4s-.4 7.3 9.1 8.7c1.9.3 3.5 2.6 3.3 6.4-.3 5.1-1 12.6-1 12.6s-.4 5.1 2.8 7.2l11 7.2-1.9-20.3.1-5.3c0-.1.1-.2.1-.2.1 0 .2.1.2.1l1.3 5.1 2 21h.8c.6 0 1.6.5 1.6 1.5-.2 3.4-2 3.3-2.4 3.3m.7 5.3c-.7 0-1.3.6-1.4 1.4 0 .8.5 1.5 1.2 1.6.7 0 1.3-.6 1.4-1.4 0-.9-.5-1.6-1.2-1.6M437 123.2s-2 9.7-9.8 20c-2.9 3.8-6.4 9.8-7.8 16.5 11.8-11.6 22.2-27.7 25.1-34.8l-16-41.9s-2.2 3.5-2.6 4.4c0 0 9.1 23.8 9.9 26 1.1 2.5 2.2 6 1.2 9.8M419.4 159.9c-.1.6-.2 1.4-.3 2 21.9-13.6 29.5-26.6 29.5-26.6l-3-7.8c-6.7 15.7-26.2 32.4-26.2 32.4M423.7 163.5c-1.6.3-3.2.6-4.8.8.1-.8.1-1.5.2-2.2 22.3-11.2 30.5-24.1 30.5-24.1l2.6 6.9c-8.6 9.2-26.1 17.5-28.5 18.6"/><path clip-path="url(#e)" fill="#fff" d="M455.9 153.7c-6.7 3.3-14.7 6.6-27.8 9.1h-.2c18.8-7.5 25.7-15 25.7-15l2.3 5.9z"/></svg>