<svg xmlns="http://www.w3.org/2000/svg" viewBox="0 0 250 500" enable-background="new 0 0 250 500" width="46" height="92"><linearGradient id="a" gradientUnits="userSpaceOnUse" x1="51.006" y1="137.952" x2="387.626" y2="332.299" gradientTransform="translate(-124.554)"><stop offset="0" stop-color="#8B0304"/><stop offset="1" stop-color="#ED1C24"/></linearGradient><path fill="url(#a)" d="M249.7 279.5V112.8H.6v387c257.9.2 249.1-183.2 249.1-220.3zm0-266.6c0-7.2-5.8-12.9-13-12.9H13.6C6.4 0 .6 5.8.6 12.9v93.4h249.1V12.9z"/><g fill="#fff"><path d="M25.5 75.7V30.6H35v45.2h-9.5zM82.3 73.3c-3.2 1.7-7.6 3.3-16.1 3.3-13.4 0-23.8-9.6-23.8-23.4 0-13.8 10.4-23.5 23.8-23.5 9.4 0 13.7 2.2 15.7 3.3l-2.7 6.5c-1.8-.9-5.4-2.6-12-2.6-7.2 0-14.8 6.6-14.8 16.2 0 9.3 7.5 16.2 14.8 16.2 6.4 0 9.8-1.5 12.3-2.5l2.8 6.5zM119.8 75.7l-3.5-10.2h-15.9l-3.8 10.2H88l18.4-45.3h6.6l16.7 45.3h-9.9zm-10.9-32.9l-6.2 16.5h11.6l-5.4-16.5zM165.6 75.7h-29.1V30.6h28.3v7h-18.7V49h13.7v7h-13.7v12.7h19.5v7zM212.3 76.1h-5.9L199 53.4l-8.3 22.7h-5.9L170 30.6h9.5l9.8 30.9 6.5-17.9-4.2-13h9.5l9.3 29.9 10.2-29.9h8.3l-16.6 45.5z"/></g><g fill="#fff"><path d="M76.5 288.4s-6.1 9.3-6.2 9.9l4.6 12.1s5.1-9 6.1-10.2l-4.5-11.8zM190.7 303.3l.5 5.9c.1.3.2.6.6.6h.8c.4 0 .8.1 1.2.2.4.1.5-.2.7-.4l24.4-57.8 6.1-10.9c.1-.2.3-.3.5-.2.2.1.2.3.2.5l-3.5 12-24.1 58.5c-.1.2-.3.6.1.9 1.6 1.3 2.4 4.3 2.2 7-.3 5-4.3 8.8-8.9 8.5-4.6-.3-8-4.6-7.7-9.6.2-2.8 1.3-5.5 3.4-6.8.4-.2.3-.5.3-.9l-.8-8.1s-10.2-3.1-40.4-22.9c-2.5-1.6-2.7-4.7-2.8-5.6-.1-.8 0-3.1.1-3.8 0-2.6-1.6-4.3-3.2-4.3-4-.1-5.2 5.4-4.5 11.4.7 6 9.7 26 9.5 67.2-.1 41.2-7.4 88.1-7.4 88.1L114.2 365l3.2-3.8 6.3 17.9s2.9-2.1 2.7-3.9c-.2-1.8-6.9-21.5-8.9-22.3-.3-.1-1.2-.7-2.7.9-1.6 1.7-3.1 3.8-3.1 3.8l-7.6-21.6 3.2-3.8 6.3 17.9s2.9-2.1 2.7-3.9c-.2-1.8-6.9-21.5-8.9-22.3-.3-.1-1.2-.7-2.7 1-1.6 1.7-3.1 3.8-3.1 3.8l-11-31.3s4.8-14 24.7-25.4c1.6-.9 5.6-2.6 5-5-.9-3.3-5-3-7.4-1.6-2.3 1.4-12.7 8.9-15.8 7-2.4-1.5.5-4.8.6-7.4.1-2.7-3.1-9.6-6.9-9.1-3.2.4-4.8 3.3-4.8 3.3l-8.5 13.6s-2.5 3.8-6.8 3.9c-10.7.2-31.6-9.9-31.6-9.9 10.5 49.7 12.7 62.3 21.1 112.5.1.2.1.7-.3.7-.5.1-.6-.3-.8-.7C59 379 32.9 265 32.9 265s-1.1-.6-2.3-.5c-1 0-5 0-5.6-8.8-.2-2.9 2-4.4 3.4-4.3l1.4.1-2.9-14.4s-.6-3.1 1.7-3.4c1.8-.3 2.3.9 2.3.9s2.9 3.8 3.2 4.5c.3.7 2.4 13.6 2.4 13.6s1.4 4.5 3.8 5.2c2.4.7 23.3 5.8 25.6 5.7 2.3-.1 6.9-.6 10.7-7.4 3.7-6.8 6-13.7 8-20.1 2.3-7.3 2.4-16.6 10.1-23 2-1.7 3.7-2.6 4.5-1.8.6.7-.1 1.4-.5 1.7-2.1 1.6-2.9 3.9-2.9 7.2 0 3.4 2.7 14 18.5 14.1 5.8.1 12.6-2.7 12.5-7.6 0-2.4-.9-6.4-12.6-14.8-1.4-1-1.4-2.8 2.2-5.4 1.5-1.1 4.1-1.7 4.1-6.5s-8.1-18.3-5.4-22.8c2.7-4.6 6.9-5 6.9-11.3 0-5.5-6.1-8.6-10.2-8.5-4.5.2-7.4 1.8-7.4 4.8s0 5-1.6 5.2c-1.6.2-4.6-2.8-4.8-9.6 0 0 0-8.8 8.4-12.5 4.9-2.2 5-2.8 5.9-3.6 1.4-1.3 5.1-2.5 7.1-2.5s2.6.3 3.5.3c1.1 0 3.9-.4 5.1-.1 1.4.3 7.7 2.9 10.4 7.6 2.3 3.9.3 7.2.4 11.7.1 3 2.2 5.6 1.9 8.4-.8 7.9-5.7 12.6-10.4 17.8-3.8 4.2-3.5 8.8-3.5 9.4 0 .5-.9 17 21.1 20.2 4.5.7 8.3 6.1 7.7 14.9-.8 12-2.4 29.5-2.4 29.5s-1 12 6.5 16.9l25.8 16.8-4.4-47.6.2-12.5c0-.2.1-.4.3-.4.2 0 .3.1.4.3l2.9 12 4.7 49.1s.6-.1 1.9-.1c1.4 0 3.7 1.3 3.8 3.5.4 6.6-3.6 6.5-4.6 6.4zm1.6 12.3c-1.6-.1-3.1 1.4-3.2 3.3-.1 1.9 1.1 3.5 2.7 3.6 1.7.1 3.1-1.3 3.2-3.2.2-1.9-1.1-3.6-2.7-3.7zM102.8 400s-4.6 22.6-22.8 46.7c-6.8 9-14.8 22.9-18.2 38.5 27.5-27.2 52-64.7 58.8-81.3L83.3 306s-5.1 8.2-6.1 10.2c0 0 21.4 55.6 23.2 60.7 2.1 5.9 4.7 14 2.4 23.1zM61.7 485.7c-.3 1.5-.6 3.2-.8 4.8 51.1-31.9 68.9-62.3 68.9-62.3l-6.9-18.2c-15.7 36.6-61.2 75.7-61.2 75.7zM71.7 494.2c-3.7.7-7.5 1.3-11.3 1.9.1-1.7.3-3.4.5-5.1 52.2-26.3 71.4-56.3 71.4-56.3l6.2 16.2c-20.2 21.2-61.1 40.6-66.8 43.3zM146.9 471.2c-15.6 7.7-34.4 15.3-64.9 21.4h-.6c44-17.6 60.2-35.1 60.2-35.1l5.3 13.7z"/></g></svg>