<svg xmlns="http://www.w3.org/2000/svg" xmlns:xlink="http://www.w3.org/1999/xlink" width="85" height="47.3" viewBox="-175.9 458.2 85 47.3" enable-background="new -175.9 458.2 85 47.3"><defs><path id="a" d="M-109 467.8V496c18.8 0 18.1-13.3 18.1-16v-12.1H-109zm-63.5 0c-1.9 0-3.4 1.5-3.4 3.4V496h66v-28.2h-62.6z"/></defs><clipPath id="b"><use xlink:href="#a" overflow="visible"/></clipPath><linearGradient id="c" gradientUnits="userSpaceOnUse" x1="-383.541" y1="123.149" x2="-383.044" y2="123.149" gradientTransform="matrix(141.646 81.78 -81.78 141.646 64228.004 14382.752)"><stop offset="0" stop-color="#82181B"/><stop offset=".295" stop-color="#9B1C1E"/><stop offset=".921" stop-color="#DB2727"/><stop offset="1" stop-color="#E42828"/></linearGradient><path clip-path="url(#b)" fill="url(#c)" d="M-154.5 430.7l76.5 44.2-33.6 58.2-76.5-44.1z"/><path fill="#fff" d="M-169.3 475.9h2.5v12h-2.5zM-154.3 487.2c-.8.4-2 .9-4.3.9-3.5 0-6.3-2.5-6.3-6.2s2.8-6.2 6.3-6.2c2.5 0 3.6.6 4.2.9l-.7 1.7c-.5-.2-1.4-.7-3.2-.7-1.9 0-3.9 1.7-3.9 4.3 0 2.5 2 4.3 3.9 4.3 1.7 0 2.6-.4 3.2-.7l.8 1.7zM-144.3 487.9l-.9-2.7h-4.2l-1 2.7h-2.3l4.9-12h1.7l4.4 12h-2.6zm-2.9-8.7l-1.6 4.4h3.1l-1.5-4.4zM-132.2 487.9h-7.7v-12h7.5v1.9h-5v3h3.7v1.9h-3.7v3.3h5.2zM-119.9 487.9h-1.5l-2-6-2.2 6h-1.5l-3.9-12h2.5l2.6 8.2 1.7-4.8-1.1-3.4h2.5l2.4 7.9 2.8-7.9h2.2zM-103.5 481.1l-.4.7.3.9s.4-.6.4-.7l-.3-.9zM-95.2 483.2v.4s0 .1 0 0h.2l1.8-4.2.4-.8-.3.9-1.7 4.3v.1c.1.1.2.3.2.5 0 .4-.3.6-.6.6s-.6-.3-.6-.7c0-.2.1-.4.2-.5v-.1l-.1-.6s-.7-.2-2.9-1.7c-.2-.1-.2-.3-.2-.4v-.3c0-.2-.1-.3-.2-.3-.3 0-.4.4-.3.8 0 .4.7 1.9.7 4.9 0 3-.5 6.4-.5 6.4l-1.7-4.9.2-.3.5 1.3s.2-.1.2-.3-.5-1.6-.6-1.6c0 0-.1 0-.2.1s-.2.3-.2.3l-.5-1.6.2-.3.5 1.3s.2-.1.2-.3c0-.1-.5-1.6-.6-1.6 0 0-.1-.1-.2.1-.1.1-.2.3-.2.3l-.8-2.3s.3-1 1.8-1.8c.1-.1.4-.2.4-.4-.1-.2-.4-.2-.5-.1-.2.1-.9.6-1.1.5-.2-.1 0-.3 0-.5s-.2-.7-.5-.7c-.2 0-.3.2-.3.2l-.6 1s-.2.3-.5.3c-.8 0-2.3-.7-2.3-.7.8 3.6.9 4.5 1.5 8.2h-.1c0-.1-1.9-8.3-1.9-8.3h-.2c-.1 0-.4 0-.4-.6 0-.2.1-.3.2-.3h.1l-.2-1s0-.2.1-.2.2.1.2.1l.2.3c0 .1.2 1 .2 1s.1.3.3.4c.2 0 1.7.4 1.9.4.2 0 .5 0 .8-.5.3-.5.4-1 .6-1.5.2-.5.2-1.2.7-1.7.1-.1.3-.2.3-.1v.1c-.1.1-.2.3-.2.5s.2 1 1.3 1c.4 0 .9-.2.9-.6 0-.2-.1-.5-.9-1.1-.1-.1-.1-.2.2-.4.1-.1.3-.1.3-.5s-.6-1.3-.4-1.7c.2-.3.5-.4.5-.8s-.4-.6-.7-.6c-.3 0-.5.1-.5.3s0 .4-.1.4-.3-.2-.3-.7c0 0 0-.6.6-.9.4-.2.4-.2.4-.3.1-.1.4-.2.5-.2h.7c.1 0 .6.2.8.6.2.3 0 .5 0 .8 0 .2.2.4.1.6-.1.6-.4.9-.8 1.3-.3.3-.2.6-.2.7 0 0-.1 1.2 1.5 1.5.3 0 .6.4.6 1.1-.1.9-.2 2.1-.2 2.1s-.1.9.5 1.2l1.9 1.2-.3-3.5v-.9l.2.9.3 3.6h.1s.3.1.3.3c-.3.5-.6.5-.7.5m.2.9c-.1 0-.2.1-.2.2s.1.3.2.3.2-.1.2-.2c0-.2-.1-.3-.2-.3M-101.6 482.2s-.3 1.6-1.7 3.4c-.5.6-1.1 1.7-1.3 2.8 2-2 3.8-4.7 4.3-5.9l-2.7-7.1s-.4.6-.4.7c0 0 1.6 4 1.7 4.4.1.5.3 1.1.1 1.7M-104.6 484.5c0 .1 0 .2-.1.3 3.7-2.3 5-4.5 5-4.5l-.5-1.3c-1 2.6-4.4 5.5-4.4 5.5M-103.8 484c-.3 0-.5.1-.8.1v-.4c3.8-1.9 5.2-4.1 5.2-4.1l.4 1.2c-1.4 1.6-4.4 3-4.8 3.2"/><path fill="#fff" d="M-98.4 481.6c-1.1.6-2.5 1.1-4.7 1.6 3.2-1.3 4.4-2.6 4.4-2.6l.3 1z"/></svg>