<?xml version="1.0" encoding="utf-8"?>
<!-- Generator: Adobe Illustrator 18.1.1, SVG Export Plug-In . SVG Version: 6.00 Build 0)  -->
<svg version="1.1" id="Layer_1" xmlns="http://www.w3.org/2000/svg" xmlns:xlink="http://www.w3.org/1999/xlink" x="0px" y="0px"
	 viewBox="-298 390 14 14" enable-background="new -298 390 14 14" xml:space="preserve">
<path fill="#CC0000" d="M-287.1,390.6l-3.9,3.9l-3.9-3.9c-0.7-0.7-1.8-0.7-2.5,0c-0.7,0.7-0.7,1.8,0,2.5l3.9,3.9l-3.9,3.9l0,0
	c-0.7,0.7-0.7,1.8,0,2.5c0.7,0.7,1.8,0.7,2.5,0l0,0l3.9-3.9l3.9,3.9l0,0c0.7,0.7,1.8,0.7,2.5,0c0.7-0.7,0.7-1.8,0-2.5l0,0l-3.9-3.9
	l3.9-3.9c0.7-0.7,0.7-1.8,0-2.5C-285.3,389.9-286.4,389.9-287.1,390.6z"/>
</svg>
