<?xml version="1.0" encoding="utf-8"?>
<!-- Generator: Adobe Illustrator 17.1.0, SVG Export Plug-In . SVG Version: 6.00 Build 0)  -->
<!DOCTYPE svg PUBLIC "-//W3C//DTD SVG 1.1//EN" "http://www.w3.org/Graphics/SVG/1.1/DTD/svg11.dtd">
<svg version="1.1" id="Layer_1" xmlns="http://www.w3.org/2000/svg" xmlns:xlink="http://www.w3.org/1999/xlink" x="0px" y="0px"
	 viewBox="0 0 500 500" enable-background="new 0 0 500 500" xml:space="preserve" width="14px" height="14px">
<path fill="#666666" d="M389.2,22L249.6,161.6L110,22C85-3,44.9-3,19.8,22s-24.9,65,0,90.2l139.6,139.6L19.4,391.9l0,0
	c-24.3,24.9-24.3,65,0.4,89.5c24.5,24.5,64.8,24.9,89.5,0.4l0,0l140.1-140.1l140.1,140.1l0,0c24.9,24.3,65,24.3,89.5-0.4
	c24.5-24.5,24.9-64.8,0.4-89.5l0,0L339.3,251.8L479,112.2c24.9-24.9,24.9-65,0-90.2C454.5-3,414.2-2.5,389.2,22z"/>
</svg>
