<!-- Generated by IcoMoon.io -->
<svg version="1.1" xmlns="http://www.w3.org/2000/svg" width="17" height="17" viewBox="0 0 17 17">
<title>bar-chart2</title>
<path fill="#fff" d="M4.517 5.312h-3.72c-0.294 0-0.531 0.238-0.531 0.531v10.625c0 0.294 0.238 0.531 0.531 0.531h3.72c0.294 0 0.531-0.238 0.531-0.531v-10.625c0-0.294-0.238-0.531-0.531-0.531zM3.985 15.938h-2.657v-9.563h2.657v9.563zM10.355 8.471h-3.72c-0.294 0-0.531 0.238-0.531 0.531v7.466c0 0.294 0.238 0.531 0.531 0.531h3.72c0.294 0 0.531-0.238 0.531-0.531v-7.466c0-0.294-0.237-0.531-0.531-0.531zM9.824 15.938h-2.658v-6.404h2.658v6.404zM16.203 0h-3.714c-0.294 0-0.531 0.238-0.531 0.531v15.938c0 0.294 0.238 0.531 0.531 0.531h3.714c0.294 0 0.531-0.238 0.531-0.531v-15.938c0-0.294-0.238-0.531-0.531-0.531zM15.672 15.938h-2.652v-14.875h2.652v14.875z"></path>
</svg>
