<!-- Generated by IcoMoon.io -->
<svg version="1.1" xmlns="http://www.w3.org/2000/svg" width="17" height="17" viewBox="0 0 17 17">
<title>book-open</title>
<path fill="#fff" d="M15.806 0.026l-7.023 1.902c-0.178 0.048-0.566 0.047-0.744-0.003l-6.842-1.896c-0.611-0.168-1.202 0.272-1.202 0.901v12.918c0 0.533 0.404 1.042 0.918 1.185l6.843 1.896c0.183 0.051 0.419 0.079 0.663 0.079 0.168 0 0.415-0.013 0.643-0.075l7.023-1.902c0.516-0.139 0.921-0.648 0.921-1.183v-12.918c0-0.628-0.591-1.070-1.199-0.905zM7.969 15.887l-6.789-1.877c-0.051-0.014-0.123-0.108-0.123-0.161v-12.751l6.698 1.852c0.065 0.018 0.138 0.032 0.214 0.044v12.893zM15.943 13.849c0 0.052-0.086 0.144-0.137 0.158l-6.775 1.835v-12.881c0.010-0.002 0.020-0.004 0.030-0.006l6.882-1.861v12.757zM10.658 6.081c0.048 0 0.096-0.006 0.144-0.020l3.718-1.046c0.283-0.080 0.447-0.373 0.368-0.655s-0.375-0.446-0.655-0.368l-3.718 1.046c-0.283 0.080-0.447 0.373-0.368 0.655 0.066 0.235 0.279 0.388 0.511 0.388zM10.658 9.269c0.048 0 0.096-0.006 0.144-0.020l3.718-1.046c0.283-0.080 0.447-0.373 0.368-0.655s-0.375-0.446-0.655-0.368l-3.718 1.046c-0.283 0.080-0.447 0.373-0.368 0.655 0.066 0.235 0.279 0.388 0.511 0.388zM10.658 12.456c0.048 0 0.096-0.006 0.144-0.020l3.718-1.046c0.283-0.080 0.447-0.373 0.368-0.655s-0.375-0.446-0.655-0.368l-3.718 1.046c-0.283 0.080-0.447 0.373-0.368 0.655 0.066 0.234 0.279 0.388 0.511 0.388zM6.551 5.038l-3.718-1.046c-0.281-0.078-0.576 0.086-0.655 0.368s0.085 0.575 0.368 0.655l3.718 1.046c0.048 0.014 0.096 0.020 0.144 0.020 0.232 0 0.445-0.153 0.511-0.388 0.079-0.282-0.085-0.575-0.368-0.655zM6.551 8.226l-3.718-1.046c-0.281-0.078-0.576 0.086-0.655 0.368s0.085 0.575 0.368 0.655l3.718 1.046c0.048 0.014 0.096 0.020 0.144 0.020 0.232 0 0.445-0.153 0.511-0.388 0.079-0.282-0.085-0.575-0.368-0.655zM6.551 11.413l-3.718-1.046c-0.281-0.078-0.576 0.086-0.655 0.368s0.085 0.575 0.368 0.655l3.718 1.046c0.048 0.014 0.096 0.020 0.144 0.020 0.232 0 0.445-0.153 0.511-0.388 0.079-0.282-0.085-0.575-0.368-0.655z"></path>
</svg>
