<!-- Generated by IcoMoon.io -->
<svg version="1.1" xmlns="http://www.w3.org/2000/svg" width="17" height="17" viewBox="0 0 17 17">
<title>briefcase2</title>
<path fill="#fff" d="M15.938 3.179h-4.243v-1.029c0-0.879-0.715-1.594-1.594-1.594h-3.195c-0.879 0-1.594 0.715-1.594 1.594v1.029h-4.249c-0.584 0-1.063 0.478-1.063 1.063v3.723h-0.001v1.063h0.001v6.355c0 0.584 0.478 1.063 1.063 1.063h14.875c0.584 0 1.063-0.478 1.063-1.063v-11.141c0-0.584-0.478-1.062-1.063-1.062zM6.375 2.149c0-0.293 0.238-0.531 0.531-0.531h3.195c0.293 0 0.531 0.238 0.531 0.531v1.029h-4.257v-1.029zM1.063 4.241h14.875v3.723h-5.85v-0.544c0-0.586-0.477-1.063-1.063-1.063h-1.058c-0.586 0-1.063 0.477-1.063 1.063v0.544h-5.842v-3.723zM9.026 10.096h-1.059v-2.675h1.058l0.001 2.675zM1.063 15.382v-6.355h5.842v1.069c0 0.586 0.477 1.063 1.063 1.063h1.058c0.586 0 1.063-0.477 1.063-1.063v-1.069h5.85v6.355h-14.875z"></path>
</svg>
