<!-- Generated by IcoMoon.io -->
<svg version="1.1" xmlns="http://www.w3.org/2000/svg" width="17" height="17" viewBox="0 0 17 17">
<title>bubble</title>
<path fill="#fff" d="M8.5 2.125c4.101 0 7.438 2.383 7.438 5.313s-3.337 5.313-7.438 5.313l-0.44 0.002c-0.292 0-0.483-0.008-0.781-0.052l-0.595-0.085-0.382 0.462c-0.176 0.212-1.072 0.948-2.060 1.422 0.201-0.532 0.349-1.112 0.363-1.687l0.005-0.032v-0.741l-0.579-0.296c-1.886-0.965-2.967-2.534-2.967-4.306 0-2.929 3.337-5.313 7.438-5.313M8.5 1.063c-4.695 0-8.5 2.854-8.5 6.375 0 2.192 1.299 4.103 3.546 5.252 0 0.014-0.004 0.023-0.004 0.039 0 0.953-0.534 2-0.847 2.539h0.001c-0.025 0.058-0.039 0.121-0.039 0.189 0 0.267 0.215 0.481 0.482 0.481 0.040 0 0.104-0.008 0.127-0.008 0.006 0 0.009 0 0.008 0.002 1.66-0.271 3.486-1.738 3.849-2.181 0.373 0.056 0.625 0.064 0.938 0.064 0.132 0 0.274-0.002 0.44-0.002 4.694 0 8.5-2.854 8.5-6.375s-3.806-6.375-8.5-6.375v0z"></path>
</svg>
