<!-- Generated by IcoMoon.io -->
<svg version="1.1" xmlns="http://www.w3.org/2000/svg" width="17" height="17" viewBox="0 0 17 17">
<title>bubbles</title>
<path fill="#fff" d="M7.053 11.278c3.834 0 6.805-2.19 6.759-5.439 0-2.875-3.042-5.174-6.876-5.174s-6.942 2.298-6.942 5.174c0 1.791 0.878 3.7 2.713 4.638 0 0.011-0.003 0.019-0.003 0.031 0 0.778-0.648 1.845-0.903 2.285h0.001c-0.020 0.048-0.032 0.1-0.032 0.155 0 0.218 0.176 0.393 0.393 0.393 0.032 0 0.084-0.007 0.103-0.007 0.005 0 0.007 0 0.007 0.002 1.356-0.222 3.358-1.747 3.654-2.109 0.304 0.045 0.51 0.052 0.765 0.052 0.108-0 0.224-0.002 0.36-0.002zM5.49 10.135l-0.68 0.565c-0.158 0.182-0.843 0.754-1.434 1.126 0.359-1.024 0.344-1.348 0.344-1.348l0.050-0.65-0.579-0.296c-1.472-0.753-2.134-2.32-2.134-3.692 0-2.285 2.637-4.111 5.88-4.111s5.813 1.826 5.813 4.111c-0.010 2.534-2.422 4.393-5.664 4.393 0 0-0.495 0.019-1.003-0.056l-0.593-0.042zM17.006 10.13c0-1.44-0.563-2.538-1.966-3.362-0.034 0.383-0.143 0.794-0.262 1.155 0.907 0.627 1.166 1.271 1.166 2.207 0 1.146-0.534 1.977-1.775 2.612l-0.529 0.262c0 0 0.055 1.361 0.137 1.706-1.037-0.76-1.393-1.395-1.393-1.395l-0.559 0.086c-0.221 0.032-0.819 0.033-0.819 0.033-1.443 0-2.513-0.344-3.425-1.058 0.248-0.015-1.481-0.015-1.519 0.019 1.055 1.289 2.78 2.102 4.945 2.102 0.118 0 0.217 0.001 0.311 0.001 0.22 0 0.398-0.006 0.661-0.045 0.257 0.312 1.697 1.685 2.869 1.876-0.001-0.001 0.001-0.001 0.006-0.001 0.016 0 0.061 0.006 0.089 0.006 0.188 0 0.34-0.151 0.34-0.34 0-0.048-0.011-0.093-0.028-0.134h0.001c-0.22-0.38-0.567-1.49-0.567-2.162 0-0.010-0.003-0.018-0.003-0.027 1.586-0.811 2.32-1.994 2.32-3.541z"></path>
</svg>
