<!-- Generated by IcoMoon.io -->
<svg version="1.1" xmlns="http://www.w3.org/2000/svg" width="17" height="17" viewBox="0 0 17 17">
<title>chemistry</title>
<path fill="#fff" d="M13.454 16.115l-2.829-3.348v-5.869h0.354c0.294 0 0.531-0.238 0.531-0.531s-0.238-0.531-0.531-0.531h-0.885c-0.294 0-0.531 0.238-0.531 0.531v6.604c0 0.132 0.049 0.258 0.137 0.356l2.164 2.612h-6.728l2.164-2.612c0.088-0.097 0.137-0.224 0.137-0.356v-6.605c0-0.294-0.238-0.531-0.531-0.531h-0.885c-0.294 0-0.531 0.238-0.531 0.531s0.238 0.531 0.531 0.531h0.354v5.869l-2.829 3.348c-0.141 0.156-0.176 0.38-0.091 0.572s0.275 0.316 0.486 0.316h9.12c0.21 0 0.4-0.124 0.486-0.316s0.049-0.416-0.091-0.572zM7.969 5.307c0.585 0 1.060-0.475 1.060-1.060s-0.474-1.059-1.060-1.059c-0.586 0-1.060 0.475-1.060 1.059s0.474 1.060 1.060 1.060zM11.43 3.73c1.035 0 1.875-0.836 1.875-1.866s-0.839-1.866-1.875-1.866c-1.035 0-1.875 0.836-1.875 1.866s0.84 1.866 1.875 1.866zM11.422 1.057c0.443 0 0.802 0.358 0.802 0.799s-0.36 0.799-0.802 0.799-0.802-0.359-0.802-0.799c0-0.441 0.36-0.799 0.802-0.799z"></path>
</svg>
