<!-- Generated by IcoMoon.io -->
<svg version="1.1" xmlns="http://www.w3.org/2000/svg" width="17" height="17" viewBox="0 0 17 17">
<title>close2</title>
<path fill="#fff" d="M8.5 0c-4.694 0-8.5 3.806-8.5 8.5s3.806 8.5 8.5 8.5c4.695 0 8.5-3.805 8.5-8.5s-3.805-8.5-8.5-8.5zM8.5 15.954c-4.101 0-7.438-3.353-7.438-7.454s3.337-7.438 7.438-7.438 7.438 3.337 7.438 7.438-3.337 7.454-7.438 7.454zM11.505 5.495c-0.207-0.207-0.544-0.207-0.751 0l-2.254 2.254-2.254-2.254c-0.207-0.207-0.544-0.207-0.751 0s-0.207 0.544 0 0.751l2.254 2.254-2.254 2.254c-0.207 0.207-0.207 0.544 0 0.751s0.544 0.207 0.751 0l2.254-2.254 2.254 2.254c0.207 0.207 0.544 0.207 0.751 0s0.207-0.544 0-0.751l-2.254-2.254 2.254-2.254c0.208-0.208 0.208-0.544 0-0.751z"></path>
</svg>
