<!-- Generated by IcoMoon.io -->
<svg version="1.1" xmlns="http://www.w3.org/2000/svg" width="17" height="17" viewBox="0 0 17 17">
<title>cloud-download</title>
<path fill="#fff" d="M12.667 4.316c-0.741-1.966-2.334-3.211-4.739-3.211-3.061 0-5.203 2.273-5.387 5.238-1.476 0.472-2.541 1.978-2.541 3.683 0 2.088 1.641 3.851 3.583 3.851h0.472c0.293 0 0.531-0.238 0.531-0.531s-0.238-0.531-0.531-0.531h-0.472c-1.366 0-2.537-1.277-2.537-2.789 0-1.336 0.937-2.541 2.111-2.743l0.482-0.083-0.043-0.487-0.004-0.006c0-2.588 1.703-4.54 4.336-4.54 2.11 0 3.296 1.040 3.844 2.813l0.113 0.366 0.383 0.008c1.973 0.041 3.704 1.643 3.704 3.632 0 1.811-1.2 3.828-3.017 3.828h-0.151c-0.293 0-0.531 0.238-0.531 0.531s0.238 0.531 0.531 0.531v-0.002c2.656-0.070 4.188-2.608 4.188-4.889-0.001-2.453-1.922-4.412-4.325-4.67zM10.73 12.874c-0.148-0.155-0.389-0.155-0.537 0l-1.168 1.289v-5.348c0-0.293-0.238-0.531-0.531-0.531s-0.531 0.238-0.531 0.531v5.353l-1.131-1.261c-0.148-0.155-0.389-0.188-0.537-0.033l-0.134 0.073c-0.148 0.156-0.148 0.406 0 0.562l1.918 2.121c0.003 0.003 0.003 0.006 0.006 0.009l0.134 0.141c0.075 0.078 0.172 0.116 0.27 0.116 0.097 0.001 0.195-0.038 0.269-0.116l0.134-0.141c0.003-0.003 0.004-0.006 0.006-0.009l1.966-2.154c0.148-0.155 0.148-0.339 0-0.495l-0.134-0.107z"></path>
</svg>
