<!-- Generated by IcoMoon.io -->
<svg version="1.1" xmlns="http://www.w3.org/2000/svg" width="17" height="17" viewBox="0 0 17 17">
<title>control-pause2</title>
<path fill="#fff" d="M6.911 0h-3.722c-0.293 0-0.531 0.238-0.531 0.531v15.938c0 0.293 0.238 0.531 0.531 0.531h3.722c0.294 0 0.531-0.238 0.531-0.531v-15.938c0-0.294-0.238-0.531-0.531-0.531zM6.38 15.938h-2.66v-14.875h2.66v14.875zM13.811 0h-3.703c-0.294 0-0.531 0.238-0.531 0.531v15.938c0 0.293 0.238 0.531 0.531 0.531h3.703c0.294 0 0.531-0.238 0.531-0.531v-15.938c0-0.294-0.237-0.531-0.531-0.531zM13.28 15.938h-2.641v-14.875h2.641v14.875z"></path>
</svg>
