<!-- Generated by IcoMoon.io -->
<svg version="1.1" xmlns="http://www.w3.org/2000/svg" width="17" height="17" viewBox="0 0 17 17">
<title>crop</title>
<path fill="#fff" d="M16.469 13.281h-2.125v-9.86l1.983-1.981c0.207-0.207 0.207-0.544 0-0.751s-0.544-0.207-0.751 0l-1.969 1.967h-9.888v-2.125c0-0.294-0.238-0.531-0.531-0.531s-0.531 0.238-0.531 0.531v2.125h-2.125c-0.294 0-0.531 0.238-0.531 0.531s0.238 0.531 0.531 0.531h2.125v10.094c0 0.049 0.016 0.093 0.028 0.138 0.005 0.020 0.004 0.041 0.012 0.060 0.053 0.134 0.159 0.24 0.293 0.294 0.023 0.009 0.048 0.008 0.071 0.014 0.042 0.011 0.082 0.026 0.127 0.026h10.094v2.125c0 0.294 0.238 0.531 0.531 0.531s0.531-0.238 0.531-0.531v-2.125h2.125c0.294 0 0.531-0.238 0.531-0.531s-0.238-0.531-0.531-0.531zM12.542 3.719l-8.824 8.812v-8.812h8.824zM4.47 13.281l8.811-8.799v8.799h-8.811z"></path>
</svg>
