<!-- Generated by IcoMoon.io -->
<svg version="1.1" xmlns="http://www.w3.org/2000/svg" width="17" height="17" viewBox="0 0 17 17">
<title>directions</title>
<path fill="#fff" d="M16.885 3.089l-1.655-1.848c-0.101-0.114-0.245-0.179-0.397-0.179h-5.815v-0.564c0-0.275-0.238-0.498-0.531-0.498s-0.531 0.223-0.531 0.498v0.564h-4.247c-0.294 0-0.531 0.238-0.531 0.531v3.713c0 0.294 0.238 0.531 0.531 0.531h4.247v1.064h-5.787c-0.152 0-0.297 0.065-0.397 0.178l-1.655 1.881c-0.178 0.201-0.178 0.504 0 0.706l1.655 1.864c0.101 0.114 0.245 0.162 0.397 0.162h5.787v4.809c0 0.275 0.238 0.498 0.531 0.498s0.531-0.223 0.531-0.498v-4.809h4.258c0.294 0 0.531-0.238 0.531-0.531v-3.729c0-0.294-0.238-0.531-0.531-0.531h-4.258v-1.064h5.815c0.152 0 0.297-0.065 0.397-0.179l1.655-1.865c0.178-0.201 0.178-0.504 0-0.705zM12.744 10.63h-10.338l-1.183-1.316 1.183-1.35h10.338v2.666zM14.593 4.775h-10.354v-2.651h10.354l1.183 1.317-1.183 1.333z"></path>
</svg>
