<!-- Generated by IcoMoon.io -->
<svg version="1.1" xmlns="http://www.w3.org/2000/svg" width="17" height="17" viewBox="0 0 17 17">
<title>direction2</title>
<path fill="#fff" d="M16.052 4.95l-2.974-3.188c-0.101-0.108-0.241-0.169-0.389-0.169h-4.435l-0.017-1.096c0-0.275-0.238-0.498-0.531-0.498s-0.498 0.223-0.498 0.498l-0.016 1.096h-5.856c-0.294 0-0.531 0.238-0.531 0.531v6.375c0 0.294 0.238 0.531 0.531 0.531h5.849v7.471c0 0.275 0.238 0.498 0.531 0.498s0.531-0.223 0.531-0.498v-7.471h4.442c0.147 0 0.288-0.061 0.389-0.169l2.974-3.188c0.19-0.204 0.19-0.521 0-0.725zM12.459 7.969h-10.591v-5.313h10.591l2.478 2.656-2.478 2.656z"></path>
</svg>
