<!-- Generated by IcoMoon.io -->
<svg version="1.1" xmlns="http://www.w3.org/2000/svg" width="17" height="17" viewBox="0 0 17 17">
<title>disc</title>
<path fill="#fff" d="M8.5 0c-4.695 0-8.5 3.805-8.5 8.5s3.805 8.5 8.5 8.5 8.5-3.805 8.5-8.5-3.805-8.5-8.5-8.5zM15.938 8.5c0 1.101-0.242 2.146-0.673 3.087l-4.702-2.516c0.050-0.182 0.079-0.373 0.079-0.571 0-1.183-0.959-2.142-2.142-2.142-0.243 0-0.475 0.042-0.692 0.117l-2.816-4.531c1.046-0.562 2.24-0.882 3.508-0.882 4.101 0 7.438 3.337 7.438 7.438zM8.5 7.421c0.595 0 1.079 0.484 1.079 1.079s-0.484 1.079-1.079 1.079-1.079-0.484-1.079-1.079 0.484-1.079 1.079-1.079zM4.094 2.513l2.825 4.546c-0.012 0.014-0.026 0.027-0.038 0.042l-4.701-2.515c0.502-0.806 1.152-1.51 1.914-2.072zM1.063 8.5c0-1.057 0.223-2.063 0.623-2.974l4.721 2.526c-0.031 0.145-0.048 0.294-0.048 0.448 0 1.183 0.959 2.142 2.142 2.142 0.206 0 0.404-0.031 0.593-0.085l2.825 4.545c-1.024 0.532-2.186 0.835-3.418 0.835-4.101 0-7.438-3.337-7.438-7.438zM12.824 14.546l-2.814-4.527c0.008-0.008 0.016-0.017 0.024-0.025l4.72 2.526c-0.511 0.791-1.166 1.479-1.93 2.027z"></path>
</svg>
