<!-- Generated by IcoMoon.io -->
<svg version="1.1" xmlns="http://www.w3.org/2000/svg" width="17" height="17" viewBox="0 0 17 17">
<title>envelope-letter</title>
<path fill="#fff" d="M16.989 7.857c-0.023-0.188-0.093-0.36-0.201-0.506h0.003l-0.015-0.015c-0.054-0.072-0.118-0.135-0.189-0.191l-2.775-2.795v-1.714c0-0.294-0.238-0.531-0.531-0.531h-1.682l-1.939-1.655c-0.601-0.601-1.652-0.602-2.254 0l-1.932 1.655h-1.755c-0.294 0-0.531 0.238-0.531 0.531v1.749l-2.708 2.708c-0.288 0.19-0.479 0.516-0.479 0.886v7.961c0 0.584 0.478 1.063 1.063 1.063h14.875c0.584 0 1.063-0.478 1.063-1.063v-7.94c0.004-0.048-0.001-0.096-0.010-0.143zM4.464 12.045l-3.402 3.156v-6.157l3.402 3.002zM5.488 12.543c0.070-0.030 0.135-0.075 0.189-0.137 0.028-0.032 0.051-0.067 0.070-0.104l2.289-2.124c0.12-0.097 0.263-0.148 0.413-0.148 0.152 0 0.305 0.053 0.407 0.133l6.372 5.776h-13.403l3.662-3.397zM12.59 12.115l3.347-2.97v6.004l-3.347-3.034zM14.907 6.917h-0.016l0.911 0.926-1.991 1.767v-3.789l1.096 1.095zM8.156 1.201c0.101-0.1 0.234-0.156 0.376-0.156s0.275 0.056 0.376 0.156l1.073 0.904h-2.896l1.071-0.904zM12.749 3.167v7.385l-0.951 0.845-2.263-2.051c-0.626-0.49-1.524-0.512-2.186 0.023l-2.102 1.95-0.997-0.88v-7.271h8.5zM1.723 7.351l1.464-1.463v3.613l-1.936-1.708 0.448-0.441h0.024z"></path>
</svg>
