<!-- Generated by IcoMoon.io -->
<svg version="1.1" xmlns="http://www.w3.org/2000/svg" width="17" height="17" viewBox="0 0 17 17">
<title>eyeglasses</title>
<path fill="#fff" d="M17.023 10.821c-0.016-0.23-0.88-5.301-1.015-6.113-0.013-0.078-0.023-0.161-0.035-0.248-0.104-0.816-0.299-2.335-2.747-2.335-0.294 0-0.531 0.238-0.531 0.531s0.238 0.531 0.531 0.531c1.513 0 1.593 0.621 1.693 1.408 0.013 0.101 0.025 0.197 0.040 0.287 0.062 0.374 0.344 1.862 0.587 3.337-0.623-0.475-1.399-0.76-2.243-0.76-1.355 0-2.562 0.73-3.225 1.816-0.319-0.121-0.86-0.271-1.584-0.271-0.713 0-1.237 0.152-1.561 0.284-0.645-1.093-1.831-1.828-3.192-1.828-0.884 0-1.706 0.311-2.355 0.827 0.246-1.494 0.538-3.022 0.601-3.404 0.015-0.090 0.028-0.186 0.040-0.287 0.101-0.787 0.181-1.408 1.693-1.408 0.294 0 0.531-0.238 0.531-0.531s-0.238-0.531-0.531-0.531c-2.448 0-2.643 1.519-2.747 2.335-0.011 0.087-0.022 0.17-0.035 0.248-0.135 0.812-0.946 5.85-0.962 6.080-0.004 0.051 0.002 0.1 0.012 0.148-0.005 0.077-0.012 0.153-0.012 0.231 0 2.048 1.716 3.708 3.763 3.708s3.708-1.66 3.708-3.708c0-0.31-0.042-0.609-0.114-0.896 0.218-0.088 0.611-0.205 1.159-0.205 0.534 0 0.937 0.107 1.167 0.188-0.076 0.293-0.122 0.597-0.122 0.913 0 2.048 1.716 3.708 3.763 3.708s3.708-1.66 3.708-3.708c0-0.056-0.006-0.11-0.008-0.165 0.016-0.058 0.025-0.118 0.020-0.182zM3.741 13.812c-1.464 0-2.701-1.212-2.701-2.645s1.237-2.645 2.701-2.645c1.459 0 2.645 1.187 2.645 2.645s-1.187 2.645-2.645 2.645zM13.303 13.812c-1.464 0-2.701-1.212-2.701-2.645s1.237-2.645 2.701-2.645c1.262 0 2.318 0.888 2.581 2.072 0.011 0.108 0.020 0.21 0.027 0.304 0.003 0.045 0.015 0.087 0.031 0.127 0.003 0.048 0.007 0.095 0.007 0.143 0 1.459-1.187 2.645-2.645 2.645z"></path>
</svg>
