<!-- Generated by IcoMoon.io -->
<svg version="1.1" xmlns="http://www.w3.org/2000/svg" width="17" height="17" viewBox="0 0 17 17">
<title>feed</title>
<path fill="#fff" d="M1.691 5.483c-0.301 0-0.544 0.243-0.544 0.544s0.243 0.544 0.544 0.544c5.030 0 8.722 3.725 8.722 8.755 0 0.3 0.243 0.544 0.544 0.544s0.544-0.243 0.544-0.544c0-5.651-4.159-9.843-9.81-9.843zM1.696 0.044c-0.301 0-0.544 0.243-0.544 0.544s0.243 0.544 0.544 0.544c7.806 0 14.156 6.35 14.156 14.155 0 0.3 0.243 0.544 0.544 0.544s0.544-0.243 0.544-0.544c-0-8.405-6.839-15.243-15.244-15.243zM3.055 10.95c-1.651 0-2.994 1.347-2.994 3.003s1.343 3.003 2.994 3.003 2.995-1.348 2.995-3.003c0-1.656-1.344-3.003-2.995-3.003zM3.055 15.905c-1.073 0-1.945-0.876-1.945-1.952s0.873-1.951 1.945-1.951c1.073 0 1.946 0.875 1.946 1.951s-0.873 1.952-1.946 1.952z"></path>
</svg>
