<!-- Generated by IcoMoon.io -->
<svg version="1.1" xmlns="http://www.w3.org/2000/svg" width="17" height="17" viewBox="0 0 17 17">
<title>film</title>
<path fill="#fff" d="M13.281 4.52h1.063c0.293 0 0.531-0.238 0.531-0.531v-0.531c0-0.293-0.238-0.531-0.531-0.531h-1.063c-0.293 0-0.531 0.238-0.531 0.531v0.531c0 0.293 0.238 0.531 0.531 0.531zM13.281 7.708h1.063c0.293 0 0.531-0.238 0.531-0.531v-0.531c0-0.293-0.238-0.531-0.531-0.531h-1.063c-0.293 0-0.531 0.238-0.531 0.531v0.531c0 0.293 0.238 0.531 0.531 0.531zM13.281 10.895h1.063c0.293 0 0.531-0.238 0.531-0.531v-0.531c0-0.293-0.238-0.531-0.531-0.531h-1.063c-0.293 0-0.531 0.238-0.531 0.531v0.531c0 0.293 0.238 0.531 0.531 0.531zM13.281 14.083h1.063c0.293 0 0.531-0.238 0.531-0.531v-0.531c0-0.293-0.238-0.531-0.531-0.531h-1.063c-0.293 0-0.531 0.238-0.531 0.531v0.531c0 0.293 0.238 0.531 0.531 0.531zM2.656 4.52h1.063c0.293 0 0.531-0.238 0.531-0.531v-0.531c0-0.293-0.238-0.531-0.531-0.531h-1.063c-0.293 0-0.531 0.238-0.531 0.531v0.531c0 0.293 0.238 0.531 0.531 0.531zM2.656 7.708h1.063c0.293 0 0.531-0.238 0.531-0.531v-0.531c0-0.293-0.238-0.531-0.531-0.531h-1.063c-0.293 0-0.531 0.238-0.531 0.531v0.531c0 0.293 0.238 0.531 0.531 0.531zM2.656 10.895h1.063c0.293 0 0.531-0.238 0.531-0.531v-0.531c0-0.293-0.238-0.531-0.531-0.531h-1.063c-0.293 0-0.531 0.238-0.531 0.531v0.531c0 0.293 0.238 0.531 0.531 0.531zM2.656 14.083h1.063c0.293 0 0.531-0.238 0.531-0.531v-0.531c0-0.293-0.238-0.531-0.531-0.531h-1.063c-0.293 0-0.531 0.238-0.531 0.531v0.531c0 0.293 0.238 0.531 0.531 0.531zM15.938 0.264h-14.875c-0.584 0-1.063 0.478-1.063 1.063v14.347c0 0.584 0.478 1.063 1.063 1.063h14.875c0.584 0 1.063-0.478 1.063-1.063v-14.347c0-0.584-0.478-1.063-1.063-1.063zM15.938 15.673h-14.875v-14.347h14.875v14.347z"></path>
</svg>
