<!-- Generated by IcoMoon.io -->
<svg version="1.1" xmlns="http://www.w3.org/2000/svg" width="17" height="17" viewBox="0 0 17 17">
<title>graph</title>
<path fill="#fff" d="M15.672 3.719c-0.734 0-1.328 0.595-1.328 1.328 0 0.151 0.031 0.293 0.076 0.428l-3.237 2.788c-0.227-0.181-0.511-0.294-0.823-0.294-0.361 0-0.687 0.145-0.927 0.379l-2.536-1.27c-0.049-0.689-0.618-1.234-1.319-1.234-0.733 0-1.328 0.595-1.328 1.328 0 0.201 0.048 0.389 0.128 0.56l-2.586 2.981c-0.145-0.054-0.3-0.088-0.464-0.088-0.733 0-1.328 0.595-1.328 1.328s0.595 1.328 1.328 1.328 1.328-0.595 1.328-1.328c0-0.177-0.036-0.345-0.099-0.499l2.628-3.020c0.125 0.039 0.255 0.066 0.393 0.066 0.386 0 0.731-0.168 0.974-0.432l2.48 1.244c0.009 0.726 0.598 1.313 1.327 1.313 0.734 0 1.328-0.595 1.328-1.328 0-0.024-0.006-0.046-0.007-0.069l3.455-2.968c0.164 0.073 0.345 0.115 0.537 0.115 0.734 0 1.328-0.594 1.328-1.328s-0.594-1.328-1.328-1.328z"></path>
</svg>
