<!-- Generated by IcoMoon.io -->
<svg version="1.1" xmlns="http://www.w3.org/2000/svg" width="17" height="17" viewBox="0 0 17 17">
<title>heart2</title>
<path fill="#fff" d="M4.781 1.895c0.521 0 1.463 0.249 2.99 1.753l0.757 0.746 0.746-0.758c1.060-1.077 2.189-1.746 2.945-1.746 1.019 0 1.823 0.349 2.607 1.131 0.738 0.737 1.145 1.716 1.145 2.758s-0.406 2.022-1.152 2.767c-0.061 0.062-3.27 3.525-5.959 6.427-0.127 0.12-0.271 0.138-0.348 0.138-0.076 0-0.219-0.017-0.345-0.134-0.655-0.729-5.405-6.010-5.957-6.561-0.739-0.737-1.146-1.718-1.146-2.76s0.407-2.021 1.146-2.758c0.719-0.718 1.56-1.001 2.572-1.001M4.781 0.833c-1.27 0-2.391 0.38-3.323 1.312-1.944 1.939-1.944 5.082 0 7.022 0.555 0.555 5.941 6.547 5.941 6.547 0.307 0.307 0.71 0.46 1.112 0.46s0.804-0.152 1.111-0.46c0 0 5.892-6.359 5.954-6.422 1.943-1.94 1.943-5.084 0-7.023-0.965-0.963-2.042-1.441-3.357-1.441-1.256 0-2.656 1.001-3.702 2.064-1.079-1.062-2.436-2.058-3.735-2.058v0z"></path>
</svg>
