<!-- Generated by IcoMoon.io -->
<svg version="1.1" xmlns="http://www.w3.org/2000/svg" width="17" height="17" viewBox="0 0 17 17">
<title>home2</title>
<path fill="#fff" d="M16.879 8.523l-7.975-8.353c-0.1-0.105-0.239-0.163-0.383-0.163s-0.283 0.059-0.383 0.163l-8.016 8.353c-0.203 0.212-0.196 0.548 0.016 0.751s0.548 0.197 0.751-0.016l0.714-0.744v7.949c0 0.294 0.238 0.531 0.531 0.531h3.711c0.293 0 0.53-0.237 0.531-0.53l0.017-5.307h4.233v5.305c0 0.294 0.238 0.531 0.531 0.531h3.71c0.294 0 0.531-0.238 0.531-0.531v-7.952l0.714 0.748c0.104 0.108 0.244 0.163 0.383 0.163 0.132 0 0.265-0.049 0.368-0.148 0.211-0.203 0.218-0.539 0.015-0.751zM14.336 7.551v8.381h-2.647v-5.305c0-0.294-0.238-0.531-0.531-0.531h-5.294c-0.293 0-0.53 0.237-0.531 0.53l-0.017 5.307h-2.651v-8.381c0-0.044-0.007-0.086-0.017-0.127l5.873-6.12 5.834 6.113c-0.011 0.043-0.019 0.087-0.019 0.134z"></path>
</svg>
