<!-- Generated by IcoMoon.io -->
<svg version="1.1" xmlns="http://www.w3.org/2000/svg" width="17" height="17" viewBox="0 0 17 17">
<title>list2</title>
<path fill="#fff" d="M1.594 7.438h-1.063c-0.293 0-0.531 0.238-0.531 0.531v1.063c0 0.293 0.238 0.531 0.531 0.531h1.063c0.293 0 0.531-0.238 0.531-0.531v-1.063c0-0.293-0.238-0.531-0.531-0.531zM16.469 7.969h-11.156c-0.293 0-0.531 0.238-0.531 0.531s0.238 0.531 0.531 0.531h11.156c0.293 0 0.531-0.238 0.531-0.531s-0.238-0.531-0.531-0.531zM1.594 11.688h-1.063c-0.293 0-0.531 0.238-0.531 0.531v1.063c0 0.293 0.238 0.531 0.531 0.531h1.063c0.293 0 0.531-0.238 0.531-0.531v-1.063c0-0.293-0.238-0.531-0.531-0.531zM16.469 12.219h-11.156c-0.293 0-0.531 0.238-0.531 0.531s0.238 0.531 0.531 0.531h11.156c0.293 0 0.531-0.238 0.531-0.531s-0.238-0.531-0.531-0.531zM1.594 3.188h-1.063c-0.293 0-0.531 0.238-0.531 0.531v1.063c0 0.293 0.238 0.531 0.531 0.531h1.063c0.293 0 0.531-0.238 0.531-0.531v-1.063c0-0.293-0.238-0.531-0.531-0.531zM5.313 4.781h11.156c0.293 0 0.531-0.238 0.531-0.531s-0.238-0.531-0.531-0.531h-11.156c-0.293 0-0.531 0.238-0.531 0.531s0.238 0.531 0.531 0.531z"></path>
</svg>
