<!-- Generated by IcoMoon.io -->
<svg version="1.1" xmlns="http://www.w3.org/2000/svg" width="17" height="17" viewBox="0 0 17 17">
<title>lock-open</title>
<path fill="#fff" d="M13.281 6.393h-7.586l-0.275-1.233c-0.469-1.749 0.346-3.494 2.209-3.993 1.845-0.494 3.471 0.563 3.948 2.343l0.226 0.896c0.076 0.283 0.367 0.452 0.651 0.376s0.452-0.367 0.376-0.651l-0.226-0.896c-0.631-2.355-2.829-3.743-5.249-3.094-2.43 0.651-3.581 2.979-2.961 5.294l0.214 0.958h-0.889c-1.172 0-2.125 0.953-2.125 2.125v6.375c0 1.172 0.953 2.125 2.125 2.125h9.563c1.172 0 2.125-0.953 2.125-2.125v-6.375c0-1.172-0.953-2.125-2.125-2.125zM14.344 14.893c0 0.586-0.477 1.063-1.063 1.063h-9.563c-0.586 0-1.063-0.477-1.063-1.063v-6.375c0-0.586 0.477-1.062 1.063-1.062h9.563c0.586 0 1.063 0.477 1.063 1.062v6.375zM8.5 9.581c-0.587 0-1.063 0.476-1.063 1.063 0 0.392 0.215 0.731 0.531 0.915v1.741c0 0.293 0.238 0.531 0.531 0.531s0.531-0.238 0.531-0.531v-1.741c0.316-0.184 0.531-0.523 0.531-0.915 0-0.587-0.476-1.063-1.063-1.063z"></path>
</svg>
