<!-- Generated by IcoMoon.io -->
<svg version="1.1" xmlns="http://www.w3.org/2000/svg" width="17" height="17" viewBox="0 0 17 17">
<title>music-tone</title>
<path fill="#fff" d="M14.155 5.367l-5.195-5.195c-0.165-0.165-0.41-0.197-0.608-0.1-0.208 0.072-0.359 0.267-0.359 0.5v11.761c-0.563-0.417-1.302-0.673-2.115-0.673-1.761 0-3.189 1.192-3.189 2.661s1.429 2.662 3.189 2.662c1.762 0 3.189-1.192 3.189-2.662 0-0.065-0.006-0.129-0.012-0.193v-12.357l4.347 4.347c0.207 0.207 0.544 0.207 0.751 0s0.207-0.544 0-0.751zM5.867 15.914c-1.256 0-2.131-0.839-2.131-1.592s0.875-1.591 2.131-1.591c1.229 0 2.092 0.804 2.127 1.544v0.094c-0.036 0.74-0.898 1.544-2.127 1.544z"></path>
</svg>
