<!-- Generated by IcoMoon.io -->
<svg version="1.1" xmlns="http://www.w3.org/2000/svg" width="17" height="17" viewBox="0 0 17 17">
<title>note</title>
<path fill="#fff" d="M13.27 15.942h-12.219v-13.281h7.464l1.074-1.035-0.028-0.028h-8.511c-0.587 0-1.063 0.476-1.063 1.063v13.281c0 0.587 0.476 1.063 1.063 1.063h12.219c0.587 0 1.063-0.476 1.063-1.063v-7.78l-1.063 1.014v6.766zM16.174 0.688c-0.479-0.46-1.009-0.692-1.573-0.692-0.883 0-1.528 0.571-1.703 0.745-0.249 0.245-7.291 7.277-7.291 7.277-0.055 0.056-0.096 0.125-0.116 0.202-0.191 0.705-1.147 3.835-1.156 3.866-0.049 0.16-0.005 0.335 0.113 0.452 0.085 0.085 0.198 0.13 0.314 0.13 0.046 0 0.092-0.007 0.137-0.021 0.032-0.011 3.262-1.055 3.794-1.214 0.070-0.021 0.134-0.059 0.186-0.11 0.335-0.331 6.808-6.704 7.332-7.245 0.542-0.559 0.811-1.14 0.801-1.728-0.010-0.581-0.292-1.141-0.837-1.662zM15.447 3.339c-0.296 0.305-2.611 2.592-6.88 6.799l-0.327 0.322c-0.49 0.151-1.662 0.528-2.548 0.814 0.285-0.942 0.628-2.080 0.78-2.619 0.912-0.911 6.946-6.935 7.175-7.162 0.045-0.045 0.452-0.436 0.954-0.436 0.285 0 0.559 0.13 0.838 0.397 0.333 0.32 0.505 0.627 0.509 0.913 0.005 0.295-0.163 0.622-0.501 0.971z"></path>
</svg>
