<!-- Generated by IcoMoon.io -->
<svg version="1.1" xmlns="http://www.w3.org/2000/svg" width="17" height="17" viewBox="0 0 17 17">
<title>paper-plane</title>
<path fill="#fff" d="M16.669 0c-0.101 0-0.224 0.029-0.367 0.089l-15.849 6.725c-0.571 0.242-0.607 0.709-0.080 1.037l4.478 2.79c0.526 0.328 1.223 1.031 1.547 1.561l2.685 4.396c0.154 0.252 0.34 0.377 0.519 0.377 0.198 0 0.386-0.152 0.515-0.452l6.778-15.834c0.184-0.43 0.079-0.689-0.226-0.689zM5.405 9.694l-3.63-2.261 12.179-5.167-7.839 7.972c-0.24-0.212-0.483-0.402-0.71-0.543zM9.508 15.195l-2.165-3.545c-0.128-0.209-0.296-0.432-0.485-0.654l7.876-8.008-5.226 12.207z"></path>
</svg>
