<!-- Generated by IcoMoon.io -->
<svg version="1.1" xmlns="http://www.w3.org/2000/svg" width="17" height="17" viewBox="0 0 17 17">
<title>paper-clip</title>
<path fill="#fff" d="M2.867 16.728c-0.721 0-1.413-0.298-1.964-0.85-1.223-1.227-1.223-3.222-0-4.448l9.534-10.124c1.488-1.49 3.766-1.356 5.429 0.309 0.745 0.746 1.163 1.822 1.148 2.953-0.016 1.119-0.453 2.19-1.2 2.939l-7.205 7.671c-0.201 0.215-0.537 0.225-0.751 0.023s-0.224-0.539-0.023-0.753l7.216-7.682c0.564-0.566 0.888-1.368 0.9-2.212s-0.293-1.642-0.836-2.186c-1.020-1.022-2.681-1.557-3.915-0.32l-9.534 10.124c-0.82 0.822-0.819 2.142-0.011 2.953 0.379 0.38 0.83 0.564 1.309 0.535 0.474-0.029 0.962-0.272 1.373-0.685l7.586-8.074c0.275-0.275 0.827-0.951 0.265-1.514-0.318-0.319-0.542-0.299-0.616-0.293-0.21 0.019-0.456 0.164-0.71 0.419l-5.71 6.072c-0.202 0.214-0.538 0.225-0.751 0.023-0.214-0.201-0.224-0.539-0.023-0.752l5.72-6.084c0.45-0.452 0.909-0.697 1.378-0.739 0.365-0.032 0.908 0.045 1.463 0.601 0.822 0.824 0.72 2.033-0.254 3.008l-7.586 8.073c-0.606 0.608-1.337 0.961-2.071 1.006-0.054 0.004-0.108 0.005-0.162 0.005z"></path>
</svg>
