<!-- Generated by IcoMoon.io -->
<svg version="1.1" xmlns="http://www.w3.org/2000/svg" width="17" height="17" viewBox="0 0 17 17">
<title>playlist</title>
<path fill="#fff" d="M0.56 1.059h7.438c0.293 0 0.531-0.238 0.531-0.531s-0.238-0.531-0.531-0.531h-7.438c-0.293 0-0.531 0.238-0.531 0.531s0.238 0.531 0.531 0.531zM0.56 4.246h7.438c0.293 0 0.531-0.238 0.531-0.531s-0.238-0.531-0.531-0.531h-7.438c-0.293 0-0.531 0.238-0.531 0.531s0.238 0.531 0.531 0.531zM8.529 6.902c0-0.293-0.238-0.531-0.531-0.531h-7.438c-0.293 0-0.531 0.238-0.531 0.531s0.238 0.531 0.531 0.531h7.438c0.293 0 0.531-0.238 0.531-0.531zM16.815 5.388l-5.195-5.195c-0.164-0.165-0.409-0.197-0.607-0.1-0.208 0.072-0.359 0.267-0.359 0.5v11.761c-0.563-0.417-1.302-0.673-2.115-0.673-1.761 0-3.189 1.192-3.189 2.661s1.428 2.662 3.189 2.662c1.762 0 3.189-1.192 3.189-2.662 0-0.067-0.006-0.132-0.012-0.197v-12.353l4.347 4.347c0.207 0.207 0.544 0.207 0.751 0s0.207-0.544 0-0.751zM10.654 14.394c-0.038 0.739-0.9 1.541-2.127 1.541-1.256 0-2.131-0.839-2.131-1.592s0.875-1.591 2.131-1.591c1.227 0 2.089 0.801 2.127 1.54v0.101z"></path>
</svg>
