<!-- Generated by IcoMoon.io -->
<svg version="1.1" xmlns="http://www.w3.org/2000/svg" width="17" height="17" viewBox="0 0 17 17">
<title>pointer</title>
<path fill="#fff" d="M8.561-0.006c-3.485 0-6.436 2.968-6.436 6.484 0 3.682 3.42 7.447 5.721 10.093 0.009 0.011 0.381 0.424 0.839 0.424h0.041c0.458 0 0.827-0.413 0.837-0.424 2.159-2.482 5.313-6.575 5.313-10.093 0-3.516-2.302-6.484-6.314-6.484zM8.774 15.858c-0.019 0.019-0.046 0.039-0.070 0.057-0.024-0.017-0.051-0.038-0.071-0.057l-0.278-0.32c-2.181-2.502-5.168-5.929-5.168-9.060 0-2.939 2.461-5.421 5.373-5.421 3.628 0 5.252 2.723 5.252 5.421 0 2.377-1.695 5.533-5.039 9.38zM8.519 3.211c-1.76 0-3.188 1.427-3.188 3.188s1.427 3.187 3.188 3.187 3.188-1.427 3.188-3.187-1.427-3.188-3.188-3.188zM8.519 8.523c-1.172 0-2.149-0.976-2.149-2.148s0.953-2.125 2.125-2.125c1.172 0 2.125 0.953 2.125 2.125s-0.928 2.148-2.101 2.148z"></path>
</svg>
