<!-- Generated by IcoMoon.io -->
<svg version="1.1" xmlns="http://www.w3.org/2000/svg" width="17" height="17" viewBox="0 0 17 17">
<title>refresh</title>
<path fill="#fff" d="M8.258 14.917c-0.001-0.003-0.005-0.005-0.006-0.008l-1.526-2.385c-0.108-0.178-0.343-0.241-0.527-0.141l-0.136 0.084c-0.183 0.1-0.179 0.358-0.071 0.536l0.978 1.518c-0.083-0.018-0.168-0.033-0.25-0.055-1.713-0.448-3.163-1.608-3.977-3.181-0.769-1.486-0.914-3.182-0.407-4.777s1.656-2.896 3.143-3.665c0.253-0.131 0.352-0.442 0.221-0.695s-0.442-0.352-0.695-0.221c-1.731 0.896-3.061 2.412-3.652 4.269s-0.422 3.833 0.474 5.564c0.949 1.832 2.637 3.182 4.632 3.704 0.023 0.006 0.046 0.009 0.069 0.015l-1.35 0.685c-0.183 0.1-0.243 0.326-0.135 0.504l0.052 0.136c0.109 0.178 0.296 0.241 0.478 0.141l2.471-1.265c0.003-0.002 0.006-0.002 0.010-0.004l0.166-0.091c0.092-0.050 0.152-0.132 0.176-0.224 0.025-0.092 0.014-0.194-0.041-0.282l-0.099-0.16zM15.172 5.326c-0.947-1.831-2.583-3.181-4.578-3.704-0.142-0.037-0.287-0.066-0.432-0.095l1.325-0.672c0.183-0.1 0.292-0.326 0.183-0.504l-0.052-0.135c-0.109-0.178-0.345-0.241-0.527-0.142l-2.471 1.265c-0.003 0.002-0.006 0.001-0.010 0.003l-0.165 0.091c-0.092 0.050-0.152 0.132-0.176 0.224-0.025 0.092-0.014 0.193 0.041 0.282l0.098 0.161c0.002 0.003 0.005 0.005 0.006 0.008l1.526 2.385c0.108 0.178 0.343 0.241 0.526 0.141l0.12-0.083c0.183-0.1 0.195-0.358 0.087-0.535l-0.983-1.525c0.216 0.033 0.431 0.073 0.641 0.129 1.714 0.449 3.111 1.608 3.925 3.18 0.769 1.486 0.913 3.182 0.406 4.777s-1.605 2.896-3.091 3.666c-0.253 0.131-0.351 0.442-0.22 0.695 0.092 0.177 0.271 0.278 0.458 0.278 0.080 0 0.16-0.019 0.237-0.058 1.731-0.895 3.009-2.412 3.599-4.269 0.59-1.858 0.422-3.834-0.474-5.564z"></path>
</svg>
