<!-- Generated by IcoMoon.io -->
<svg version="1.1" xmlns="http://www.w3.org/2000/svg" width="17" height="17" viewBox="0 0 17 17">
<title>screen-tablet</title>
<path fill="#fff" d="M13.815 0h-10.63c-0.88 0-1.594 0.713-1.594 1.594v13.813c0 0.88 0.713 1.594 1.594 1.594h10.63c0.88 0 1.594-0.713 1.594-1.594v-13.813c0-0.88-0.713-1.594-1.594-1.594zM14.346 15.406c0 0.293-0.238 0.531-0.531 0.531h-10.63c-0.293 0-0.531-0.238-0.531-0.531v-13.813c0-0.293 0.238-0.531 0.531-0.531h10.63c0.293 0 0.531 0.238 0.531 0.531v13.813zM8.501 13.284c-0.586 0-1.060 0.475-1.060 1.060s0.474 1.060 1.060 1.060c0.585 0 1.060-0.475 1.060-1.060s-0.474-1.060-1.060-1.060zM9.563 1.594h-2.125c-0.293 0-0.531 0.238-0.531 0.531s0.238 0.531 0.531 0.531h2.125c0.293 0 0.531-0.238 0.531-0.531s-0.238-0.531-0.531-0.531z"></path>
</svg>
