<!-- Generated by IcoMoon.io -->
<svg version="1.1" xmlns="http://www.w3.org/2000/svg" width="17" height="17" viewBox="0 0 17 17">
<title>share2</title>
<path fill="#fff" d="M14.344 11.688c-0.875 0-1.648 0.425-2.132 1.077l-6.995-3.565c0.061-0.223 0.096-0.457 0.096-0.7 0-0.304-0.053-0.594-0.147-0.866l7.035-3.414c0.483 0.661 1.262 1.092 2.144 1.092 1.467 0 2.656-1.189 2.656-2.656s-1.189-2.656-2.656-2.656-2.656 1.189-2.656 2.656c0 0.206 0.026 0.406 0.070 0.599l-7.136 3.463c-0.486-0.536-1.185-0.874-1.966-0.874-1.467 0-2.656 1.189-2.656 2.656s1.189 2.656 2.656 2.656c0.845 0 1.596-0.396 2.082-1.010l7.024 3.58c-0.048 0.199-0.075 0.405-0.075 0.618 0 1.467 1.189 2.656 2.656 2.656s2.656-1.189 2.656-2.656-1.189-2.656-2.656-2.656zM14.344 1.063c0.88 0 1.594 0.714 1.594 1.594s-0.714 1.594-1.594 1.594-1.594-0.714-1.594-1.594 0.714-1.594 1.594-1.594zM2.656 10.094c-0.88 0-1.594-0.714-1.594-1.594s0.713-1.594 1.594-1.594c0.88 0 1.594 0.714 1.594 1.594s-0.714 1.594-1.594 1.594zM14.344 15.938c-0.88 0-1.594-0.714-1.594-1.594s0.714-1.594 1.594-1.594 1.594 0.714 1.594 1.594-0.714 1.594-1.594 1.594z"></path>
</svg>
