<!-- Generated by IcoMoon.io -->
<svg version="1.1" xmlns="http://www.w3.org/2000/svg" width="17" height="17" viewBox="0 0 17 17">
<title>shield2</title>
<path fill="#fff" d="M15.073 2.399c-0.197-0.184-0.457-0.286-0.725-0.286-0.024 0-0.049 0.001-0.073 0.003-0.015 0.001-0.186 0.011-0.453 0.011-0.443 0-1.306-0.030-2.124-0.231-1.057-0.26-2.276-1.464-2.631-1.701-0.178-0.119-0.384-0.179-0.59-0.179s-0.411 0.060-0.59 0.178c-0.043 0.029-1.32 1.395-2.569 1.702-0.818 0.201-1.698 0.231-2.14 0.231-0.267 0-0.438-0.010-0.454-0.011-0.023-0.002-0.047-0.003-0.070-0.003-0.269 0-0.529 0.102-0.727 0.287-0.215 0.201-0.337 0.482-0.337 0.776v2.657c0 9.822 6.427 11.087 6.7 11.136 0.062 0.011 0.125 0.017 0.188 0.017s0.126-0.006 0.188-0.017c0.273-0.049 6.747-1.314 6.747-11.136v-2.657c0.001-0.295-0.122-0.576-0.337-0.777zM14.349 5.832c0 9.046-5.872 10.090-5.872 10.090s-5.825-1.044-5.825-10.090c0-2.319 0-2.657 0-2.657s0.201 0.014 0.526 0.014c0.557 0 1.495-0.041 2.393-0.262 1.471-0.361 2.906-1.85 2.906-1.85s1.498 1.489 2.968 1.85c0.9 0.221 1.821 0.262 2.378 0.262 0.325 0 0.526-0.014 0.526-0.014s0 0.338 0 2.657zM10.751 5.748c-0.207-0.207-0.544-0.207-0.751 0l-1.503 1.503-1.503-1.503c-0.207-0.207-0.544-0.207-0.751 0s-0.207 0.544 0 0.751l1.503 1.503-1.503 1.503c-0.207 0.207-0.207 0.544 0 0.751s0.544 0.207 0.751 0l1.503-1.503 1.503 1.503c0.207 0.207 0.544 0.207 0.751 0s0.207-0.544 0-0.751l-1.503-1.503 1.503-1.503c0.207-0.207 0.207-0.544 0-0.751z"></path>
</svg>
