<!-- Generated by IcoMoon.io -->
<svg version="1.1" xmlns="http://www.w3.org/2000/svg" width="17" height="17" viewBox="0 0 17 17">
<title>shuffle</title>
<path fill="#fff" d="M6.679 8.398l0.652-0.917-2.23-3.043h-5.056v1.063h4.507l2.126 2.897zM15.253 5.501l-1.287 1.154c-0.155 0.148-0.205 0.389-0.050 0.537l0.091 0.134c0.156 0.148 0.407 0.148 0.562 0l2.121-1.918c0.003-0.003 0.006-0.003 0.009-0.006l0.141-0.134c0.078-0.075 0.116-0.172 0.116-0.27 0.001-0.097-0.038-0.196-0.116-0.269l-0.141-0.134c-0.003-0.003-0.006-0.004-0.009-0.006l-2.154-1.966c-0.155-0.148-0.406-0.148-0.562 0l-0.091 0.134c-0.155 0.148-0.105 0.389 0.050 0.537l1.263 1.145h-3.848l-6.795 9.563h-4.507v1.063h5.055l6.795-9.563h3.357zM16.698 14.157c-0.003-0.003-0.006-0.004-0.009-0.006l-2.154-1.966c-0.155-0.148-0.406-0.148-0.562 0l-0.091 0.134c-0.155 0.148-0.105 0.389 0.050 0.537l1.267 1.149-3.304-0.005-1.9-2.939-0.652 0.917 2.003 3.084 3.9 0.005-1.282 1.15c-0.155 0.148-0.205 0.389-0.050 0.537l0.091 0.134c0.156 0.148 0.407 0.148 0.562 0l2.121-1.918c0.003-0.003 0.006-0.003 0.009-0.006l0.141-0.134c0.078-0.075 0.116-0.172 0.116-0.27 0.001-0.097-0.038-0.195-0.116-0.269l-0.141-0.134z"></path>
</svg>
