<!-- Generated by IcoMoon.io -->
<svg version="1.1" xmlns="http://www.w3.org/2000/svg" width="17" height="17" viewBox="0 0 17 17">
<title>size-fullscreen</title>
<path fill="#fff" d="M11.387 6.361l4.57-4.542-0.015 2.574c-0.005 0.215 0.165 0.401 0.38 0.397l0.273-0c0.215-0.005 0.393-0.133 0.397-0.347l0.011-3.835c0-0.004-0.015-0.007-0.015-0.010l0.021-0.194c0.002-0.108-0.023-0.204-0.093-0.273s-0.165-0.112-0.272-0.109l-0.194 0.005c-0.004 0-0.007 0.001-0.011 0.002l-3.81-0.017c-0.215 0.005-0.392 0.182-0.397 0.397l-0.001 0.273c0.033 0.253 0.232 0.401 0.446 0.396l2.511 0.007-4.554 4.526c-0.207 0.207-0.207 0.544 0 0.751s0.544 0.207 0.751 0zM5.629 10.639l-4.57 4.528 0.015-2.56c0.005-0.215-0.165-0.402-0.38-0.397l-0.289 0.001c-0.215 0.005-0.393 0.133-0.397 0.348l-0.011 3.835c0 0.004 0.015 0.006 0.015 0.010l-0.021 0.194c-0.002 0.108 0.023 0.205 0.093 0.273 0.069 0.070 0.165 0.112 0.272 0.109l0.194-0.005c0.004 0 0.006-0.002 0.011-0.002l3.827 0.017c0.215-0.005 0.392-0.183 0.397-0.397l0.001-0.273c-0.033-0.253-0.232-0.401-0.446-0.396l-2.511-0.007 4.553-4.525c0.207-0.207 0.207-0.544 0-0.751s-0.543-0.208-0.751-0zM17.003 16.392l-0.011-3.835c-0.005-0.215-0.182-0.342-0.397-0.348l-0.273-0.001c-0.215-0.005-0.385 0.182-0.38 0.397l0.015 2.574-4.57-4.541c-0.207-0.207-0.544-0.207-0.751 0s-0.207 0.544 0 0.751l4.553 4.525-2.511 0.007c-0.215-0.005-0.414 0.144-0.446 0.396l0.001 0.273c0.005 0.215 0.183 0.392 0.397 0.397l3.81-0.017c0.004 0 0.007 0.002 0.011 0.002l0.194 0.005c0.107 0.003 0.204-0.039 0.272-0.109 0.070-0.069 0.095-0.165 0.093-0.273l-0.021-0.194c0-0.004 0.015-0.007 0.015-0.010zM1.827 1.085l2.511-0.007c0.215 0.005 0.414-0.143 0.446-0.396l-0.001-0.273c-0.005-0.215-0.183-0.393-0.397-0.397l-3.827 0.016c-0.004-0.001-0.007-0.002-0.011-0.002l-0.194-0.005c-0.107-0.003-0.204 0.039-0.272 0.109-0.070 0.069-0.095 0.165-0.093 0.273l0.021 0.194c0 0.004-0.015 0.006-0.015 0.010l0.011 3.835c0.005 0.215 0.182 0.342 0.397 0.347l0.289 0c0.215 0.005 0.385-0.182 0.38-0.397l-0.015-2.56 4.57 4.528c0.207 0.207 0.544 0.207 0.751 0s0.207-0.544 0-0.751l-4.554-4.525z"></path>
</svg>
