<!-- Generated by IcoMoon.io -->
<svg version="1.1" xmlns="http://www.w3.org/2000/svg" width="17" height="17" viewBox="0 0 17 17">
<title>social-youtube</title>
<path fill="#fff" d="M15.618 3.149c-0.461-0.331-1.744-0.772-7.122-0.772-5.763 0-6.618 0.506-6.893 0.671-1.46 0.877-1.599 4.762-1.612 5.549 0.018 1.040 0.186 4.501 1.611 5.357 0.274 0.165 1.124 0.668 6.894 0.668 5.382 0 6.663-0.438 7.122-0.768 1.245-0.895 1.388-3.979 1.391-5.27-0.003-1.038-0.112-4.514-1.391-5.435zM14.997 12.992c-0.185 0.133-1.248 0.568-6.502 0.568-5.079 0-6.145-0.394-6.346-0.516-0.513-0.308-1.054-1.94-1.096-4.45 0.042-2.504 0.59-4.332 1.097-4.635 0.202-0.122 1.272-0.519 6.345-0.519 5.249 0 6.315 0.438 6.502 0.572 0.455 0.328 0.942 2.053 0.949 4.576-0.007 2.562-0.498 4.079-0.949 4.404zM11.96 8.082l-4.78-2.933c-0.164-0.099-0.369-0.102-0.536-0.008s-0.27 0.271-0.27 0.463v5.868c0 0.192 0.103 0.368 0.27 0.463 0.081 0.046 0.171 0.069 0.261 0.069 0.095 0 0.19-0.025 0.274-0.076l4.78-2.934c0.159-0.096 0.257-0.269 0.257-0.455s-0.097-0.359-0.257-0.455zM7.437 10.53v-3.986l3.221 1.993-3.221 1.993z"></path>
</svg>
