<!-- Generated by IcoMoon.io -->
<svg version="1.1" xmlns="http://www.w3.org/2000/svg" width="17" height="17" viewBox="0 0 17 17">
<title>social-tumblr</title>
<path fill="#fff" d="M8.766 1.058v3.717h3.724v1.593h-3.708l-0.005 4.624c0 0.86 0.045 1.411 0.135 1.656 0.142 0.386 0.657 0.88 1.613 0.88 0.742 0 1.743-0.223 2.493-0.784v2.479c-0.626 0.298-1.207 0.419-1.714 0.539s-1.057 0.18-1.646 0.18c-0.656 0-2.551-0.018-3.329-1.999-0.14-0.356-0.21-0.874-0.21-1.552v-6.020h-2.139l0.010-1.629c0.708 0 2.833-0.43 2.833-3.683h1.942M8.766-0.004h-1.942c-0.587 0-1.063 0.476-1.063 1.063 0 2.432-1.355 2.621-1.77 2.621-0.585 0-1.060 0.473-1.063 1.057l-0.010 1.629c-0.002 0.283 0.11 0.554 0.309 0.755s0.47 0.313 0.753 0.313h1.077v4.958c0 0.82 0.093 1.455 0.284 1.94 0.479 1.219 1.617 2.673 4.317 2.673 0.669 0 1.305-0.070 1.89-0.209l0.117-0.028c0.496-0.117 1.129-0.262 1.81-0.586 0.37-0.176 0.605-0.549 0.605-0.959v-2.479c0-0.402-0.227-0.77-0.587-0.95-0.15-0.076-0.313-0.113-0.476-0.113-0.225 0-0.449 0.072-0.636 0.212-0.632 0.474-1.442 0.573-1.856 0.573-0.425 0-0.583-0.154-0.618-0.195-0.018-0.083-0.069-0.395-0.069-1.278l0.004-3.562h2.646c0.587 0 1.063-0.476 1.063-1.063v-1.593c0-0.587-0.476-1.063-1.063-1.063h-2.662v-2.654c0-0.587-0.476-1.063-1.063-1.063v0z"></path>
</svg>
