<!-- Generated by IcoMoon.io -->
<svg version="1.1" xmlns="http://www.w3.org/2000/svg" width="17" height="17" viewBox="0 0 17 17">
<title>speech</title>
<path fill="#fff" d="M15.938 1.056h-14.875c-0.587 0-1.063 0.476-1.063 1.062v9.587c0 0.587 0.476 1.063 1.063 1.063h2.117v2.645c0 0.214 0.129 0.407 0.326 0.49 0.066 0.028 0.137 0.041 0.205 0.041 0.137 0 0.271-0.053 0.372-0.152l3.072-3.024h8.782c0.587 0 1.063-0.476 1.063-1.063v-9.587c0-0.587-0.476-1.063-1.063-1.063zM15.938 11.706h-9.217l-2.478 2.439v-2.439h-3.18v-9.587h14.875v9.587zM3.719 7.454h9.563c0.293 0 0.531-0.238 0.531-0.531s-0.238-0.531-0.531-0.531h-9.563c-0.293 0-0.531 0.238-0.531 0.531s0.238 0.531 0.531 0.531zM3.719 5.329h9.563c0.293 0 0.531-0.238 0.531-0.531s-0.238-0.531-0.531-0.531h-9.563c-0.293 0-0.531 0.238-0.531 0.531s0.238 0.531 0.531 0.531zM3.719 9.579h6.375c0.293 0 0.531-0.238 0.531-0.531s-0.238-0.531-0.531-0.531h-6.375c-0.293 0-0.531 0.238-0.531 0.531s0.238 0.531 0.531 0.531z"></path>
</svg>
