<!-- Generated by IcoMoon.io -->
<svg version="1.1" xmlns="http://www.w3.org/2000/svg" width="17" height="17" viewBox="0 0 17 17">
<title>star2</title>
<path fill="#fff" d="M8.5 1.286l2.282 4.733 5.19 0.771-3.759 3.749 0.126 0.752 0.752 4.485-4.592-2.47-4.592 2.471 0.752-4.486 0.126-0.752-3.758-3.75 5.19-0.771 0.341-0.706 1.942-4.026M8.5 0.258c-0.476 0-0.909 0.269-1.112 0.688l-1.924 3.995-4.428 0.658c-0.455 0.068-0.832 0.379-0.979 0.803-0.146 0.426-0.036 0.895 0.286 1.214l3.244 3.241-0.753 4.493c-0.076 0.453 0.12 0.907 0.504 1.172 0.211 0.145 0.459 0.218 0.708 0.218 0.205 0 0.409-0.050 0.594-0.149l3.86-2.078 3.86 2.078c0.186 0.099 0.39 0.149 0.594 0.149 0.248 0 0.496-0.073 0.708-0.218 0.384-0.265 0.58-0.719 0.503-1.172l-0.753-4.493 3.246-3.241c0.321-0.32 0.431-0.789 0.285-1.214s-0.525-0.736-0.979-0.803l-4.427-0.658-1.925-3.995c-0.201-0.42-0.635-0.688-1.112-0.688v0z"></path>
</svg>
