<!-- Generated by IcoMoon.io -->
<svg version="1.1" xmlns="http://www.w3.org/2000/svg" width="17" height="17" viewBox="0 0 17 17">
<title>support2</title>
<path fill="#fff" d="M8.5 0c-4.694 0-8.5 3.806-8.5 8.5s3.806 8.5 8.5 8.5 8.5-3.806 8.5-8.5-3.806-8.5-8.5-8.5zM10.625 1.378c2.394 0.714 4.277 2.603 4.992 4.997h-3.446c-0.372-0.64-0.906-1.173-1.546-1.545v-3.453zM11.681 8.503c0 1.759-1.424 3.184-3.181 3.184s-3.181-1.426-3.181-3.184 1.425-3.185 3.181-3.185 3.181 1.426 3.181 3.185zM7.438 1.144c0.347-0.050 0.702-0.077 1.063-0.077s0.715 0.027 1.063 0.077v3.251c-0.34-0.088-0.695-0.139-1.063-0.139s-0.722 0.052-1.063 0.139v-3.251zM6.375 1.378v3.453c-0.64 0.372-1.174 0.906-1.546 1.545h-3.446c0.715-2.394 2.598-4.284 4.992-4.997zM1.068 8.503c0-0.362 0.031-0.717 0.081-1.065h3.244c-0.088 0.341-0.137 0.697-0.137 1.065 0 0.366 0.048 0.721 0.135 1.060h-3.243c-0.049-0.347-0.080-0.7-0.080-1.060zM6.375 15.628c-2.396-0.714-4.28-2.606-4.994-5.003h3.444c0.372 0.642 0.907 1.178 1.549 1.55v3.452zM9.563 15.861c-0.347 0.050-0.702 0.077-1.063 0.077s-0.715-0.027-1.063-0.077v-3.25c0.34 0.088 0.695 0.139 1.063 0.139s0.723-0.052 1.063-0.139v3.25zM10.625 15.628v-3.452c0.642-0.373 1.177-0.909 1.549-1.55h3.444c-0.714 2.396-2.598 4.289-4.993 5.003zM12.609 9.563c0.087-0.339 0.135-0.693 0.135-1.060 0-0.368-0.049-0.725-0.137-1.065h3.244c0.050 0.349 0.081 0.703 0.081 1.065 0 0.36-0.031 0.713-0.080 1.060h-3.243z"></path>
</svg>
