<!-- Generated by IcoMoon.io -->
<svg version="1.1" xmlns="http://www.w3.org/2000/svg" width="17" height="17" viewBox="0 0 17 17">
<title>target2</title>
<path fill="#fff" d="M16.469 7.969h-1.618c-0.256-3.097-2.723-5.562-5.82-5.818v-1.619c0-0.293-0.238-0.531-0.531-0.531s-0.531 0.238-0.531 0.531v1.619c-3.096 0.256-5.564 2.722-5.82 5.818h-1.617c-0.293 0-0.531 0.238-0.531 0.531s0.238 0.531 0.531 0.531h1.617c0.256 3.096 2.724 5.562 5.82 5.818v1.619c0 0.293 0.238 0.531 0.531 0.531s0.531-0.238 0.531-0.531v-1.619c3.096-0.256 5.564-2.722 5.82-5.818h1.618c0.293 0 0.531-0.238 0.531-0.531s-0.238-0.531-0.531-0.531zM7.969 3.214v4.755h-4.755c0.249-2.51 2.245-4.506 4.755-4.755zM3.213 9.031h4.755v4.755c-2.51-0.249-4.506-2.245-4.755-4.755zM9.031 13.786v-4.755h4.755c-0.249 2.51-2.245 4.506-4.755 4.755zM9.031 7.969v-4.755c2.51 0.249 4.506 2.245 4.755 4.755h-4.755z"></path>
</svg>
