<!-- Generated by IcoMoon.io -->
<svg version="1.1" xmlns="http://www.w3.org/2000/svg" width="17" height="17" viewBox="0 0 17 17">
<title>user-following</title>
<path fill="#fff" d="M1.054 15.934v-1.078c0-0.422 0.317-0.555 0.444-0.613l4.666-2.202c0.334-0.154 0.565-0.47 0.61-0.835s-0.102-0.728-0.389-0.958c-1.104-0.886-1.618-2.834-1.618-3.871v-2.655c0-1.11 1.932-2.654 3.721-2.654 1.804 0 3.718 1.52 3.718 2.654v2.655c0 1.022-0.425 2.977-1.565 3.874-0.291 0.229-0.441 0.592-0.398 0.96s0.275 0.686 0.612 0.84l2.693 1.282 0.633-0.898-2.883-1.35c1.472-1.158 1.97-3.434 1.97-4.709v-2.655c0-1.758-2.434-3.716-4.78-3.716s-4.783 1.958-4.783 3.716v2.655c0 1.16 0.529 3.507 2.015 4.7l-4.666 2.202c0 0-1.062 0.473-1.062 1.062v1.594c0 0.587 0.475 1.062 1.062 1.062h10.62l-0.863-1.062-9.756 0zM16.804 12.011c-0.231-0.181-0.565-0.14-0.746 0.091l-2.272 3.465-1.412-1.412c-0.207-0.207-0.544-0.207-0.751 0s-0.207 0.544 0 0.751l1.878 1.878c0.207 0.207 0.544 0.207 0.751 0 0.050-0.050 0.088-0.109 0.114-0.171l2.528-3.857c0.181-0.231 0.14-0.565-0.091-0.745z"></path>
</svg>
