<!-- Generated by IcoMoon.io -->
<svg version="1.1" xmlns="http://www.w3.org/2000/svg" width="17" height="17" viewBox="0 0 17 17">
<title>user2</title>
<path fill="#fff" d="M8.495 1.063c1.804 0 3.717 1.52 3.717 2.654v2.655c0 1.022-0.425 2.977-1.565 3.874-0.291 0.229-0.441 0.592-0.398 0.96s0.275 0.686 0.612 0.84l4.623 2.192c0.036 0.016 0.443 0.085 0.443 0.653l0.001 1.037-14.867 0.001v-1.078c0-0.422 0.317-0.555 0.444-0.613l4.665-2.202c0.335-0.154 0.566-0.47 0.61-0.835s-0.102-0.728-0.389-0.958c-1.104-0.886-1.618-2.834-1.618-3.871v-2.655c0-1.11 1.933-2.654 3.721-2.654M8.495 0c-2.346 0-4.783 1.958-4.783 3.716v2.655c0 1.16 0.529 3.507 2.015 4.7l-4.666 2.202c0 0-1.062 0.473-1.062 1.062v1.594c0 0.587 0.475 1.062 1.062 1.062h14.868c0.587 0 1.062-0.475 1.062-1.062v-1.594c0-0.624-1.062-1.062-1.062-1.062l-4.623-2.192c1.472-1.158 1.97-3.434 1.97-4.709v-2.655c0-1.758-2.434-3.716-4.78-3.716v0z"></path>
</svg>
