<!-- Generated by IcoMoon.io -->
<svg version="1.1" xmlns="http://www.w3.org/2000/svg" width="17" height="17" viewBox="0 0 17 17">
<title>user-female</title>
<path fill="#fff" d="M15.938 13.326l-4.623-2.192c0.617-0.309 3.026-0.407 3.225-0.951 0 0-0.952-1.461-1.184-3.359-0.090-0.737-0.245-1.703-0.398-3.065-0.249-2.208-2.106-3.759-4.452-3.759-0.001 0-0.003 0-0.004 0s-0.003 0-0.004 0c-2.346 0-4.203 1.551-4.452 3.759-0.154 1.361-0.308 2.328-0.398 3.065-0.232 1.898-1.184 3.359-1.184 3.359 0.199 0.544 2.608 0.642 3.225 0.951l-4.624 2.193c0 0-1.062 0.373-1.062 1.253v1.403c0 0.587 0.475 1.018 1.062 1.018h14.876c0.587 0 1.062-0.431 1.062-1.018v-1.403c0-0.88-1.062-1.253-1.062-1.253zM1.063 15.938v-1.359c0-0.057 0.201-0.193 0.364-0.255 0.035-0.012 0.057-0.022 0.090-0.039l4.623-2.192c0.367-0.174 0.603-0.543 0.607-0.949s-0.223-0.78-0.586-0.962c-0.36-0.181-0.836-0.27-1.581-0.399-0.177-0.031-0.419-0.075-0.653-0.121 0.304-0.682 0.64-1.637 0.772-2.717 0.033-0.269 0.075-0.571 0.121-0.906 0.080-0.57 0.18-1.293 0.278-2.162 0.185-1.641 1.582-2.815 3.397-2.815 0.001 0 0.003 0 0.004 0s0.003 0 0.004 0c1.815 0 3.211 1.174 3.397 2.815 0.098 0.869 0.198 1.592 0.278 2.162 0.047 0.335 0.089 0.638 0.121 0.906 0.132 1.079 0.469 2.034 0.772 2.717-0.235 0.047-0.476 0.090-0.653 0.121-0.746 0.129-1.221 0.218-1.581 0.399-0.363 0.182-0.59 0.556-0.586 0.962s0.24 0.775 0.607 0.949l4.623 2.192c0.033 0.016 0.055 0.026 0.090 0.039 0.163 0.062 0.34 0.198 0.364 0.255l0.001 1.358h-14.876z"></path>
</svg>
