<!-- Generated by IcoMoon.io -->
<svg version="1.1" xmlns="http://www.w3.org/2000/svg" width="17" height="17" viewBox="0 0 17 17">
<title>volume-1</title>
<path fill="#fff" d="M10.87 1.094c-0.173-0.092-0.383-0.082-0.546 0.028l-5.331 4.185-1.77 0.001c-0.905 0-1.642 0.642-1.642 1.434l0.028 3.505c0 0.789 0.736 1.431 1.641 1.431l1.77 0.001 5.302 4.196c0.089 0.060 0.193 0.091 0.297 0.091 0.086 0 0.171-0.021 0.249-0.062 0.174-0.092 0.282-0.272 0.282-0.469v-13.874c-0-0.196-0.109-0.377-0.282-0.469zM10.089 14.437l-4.609-3.728c-0.088-0.059-0.191-0.091-0.297-0.091l-1.932-0.001c-0.341 0-0.579-0.194-0.579-0.373l-0.028-3.505c0-0.174 0.238-0.368 0.579-0.368l1.932-0.001c0.105 0 0.209-0.032 0.296-0.091l4.637-3.719v11.876zM13.112 5.771c-0.294-0.049-0.563 0.147-0.612 0.437s0.147 0.563 0.436 0.611c0.835 0.139 1.419 0.868 1.419 1.772 0 0.861-0.604 1.605-1.436 1.771-0.288 0.057-0.475 0.337-0.417 0.625 0.050 0.253 0.272 0.427 0.52 0.427 0.034 0 0.070-0.003 0.104-0.010 1.328-0.264 2.291-1.447 2.291-2.813-0-1.412-0.97-2.598-2.306-2.82z"></path>
</svg>
