<!-- Generated by IcoMoon.io -->
<svg version="1.1" xmlns="http://www.w3.org/2000/svg" width="17" height="17" viewBox="0 0 17 17">
<title>arrow-down</title>
<path d="M0 8.5c0 4.695 3.806 8.5 8.5 8.5s8.5-3.805 8.5-8.5c0-4.694-3.805-8.5-8.5-8.5s-8.5 3.806-8.5 8.5zM15.954 8.5c0 4.101-3.353 7.438-7.454 7.438s-7.438-3.337-7.438-7.438 3.337-7.438 7.438-7.438 7.454 3.337 7.454 7.438zM7.963 4.776v5.984l-1.922-1.922c-0.207-0.207-0.544-0.207-0.751 0s-0.207 0.544 0 0.751l3.221 3.138 3.221-3.138c0.104-0.104 0.156-0.24 0.156-0.376s-0.052-0.272-0.156-0.376c-0.207-0.207-0.544-0.207-0.751 0l-1.955 1.955v-6.017c0-0.294-0.238-0.531-0.531-0.531s-0.532 0.238-0.532 0.531z"></path>
</svg>
