<!-- Generated by IcoMoon.io -->
<svg version="1.1" xmlns="http://www.w3.org/2000/svg" width="17" height="17" viewBox="0 0 17 17">
<title>compass</title>
<path d="M12.172 4.653l-5.199 2.235c-0.094 0.048-0.17 0.124-0.218 0.218l-2.382 4.801c-0.097 0.192-0.062 0.424 0.088 0.577 0.096 0.098 0.226 0.15 0.358 0.15 0.074 0 0.148-0.016 0.218-0.050l5.076-2.108c0.093-0.045 0.17-0.117 0.219-0.207l2.505-4.929c0.107-0.193 0.075-0.432-0.077-0.59s-0.392-0.197-0.587-0.097zM5.941 11.037l1.444-2.95 1.459 1.826-2.903 1.124zM9.707 9.29l-1.474-1.845 2.935-1.158-1.461 3.003zM8.5 0c-4.694 0-8.5 3.806-8.5 8.5s3.806 8.5 8.5 8.5c4.695 0 8.5-3.805 8.5-8.5s-3.805-8.5-8.5-8.5zM8.5 15.954c-4.101 0-7.438-3.353-7.438-7.454s3.337-7.438 7.438-7.438 7.438 3.337 7.438 7.438-3.337 7.454-7.438 7.454z"></path>
</svg>
