<!-- Generated by IcoMoon.io -->
<svg version="1.1" xmlns="http://www.w3.org/2000/svg" width="17" height="17" viewBox="0 0 17 17">
<title>docs</title>
<path d="M12.75 0h-5.844c-0.587 0-1.063 0.476-1.063 1.063h5.844v4.25h4.25v8.5h-3.719v1.063h3.719c0.587 0 1.063-0.476 1.063-1.063v-9.562l-4.25-4.25zM12.75 4.25v-2.748l2.747 2.748h-2.747zM1.063 2.125c-0.587 0-1.063 0.476-1.063 1.063v12.75c0 0.587 0.476 1.063 1.063 1.063h9.031c0.587 0 1.063-0.476 1.063-1.063v-9.562l-4.25-4.25h-5.844zM10.094 15.938h-9.031v-12.75h4.781v4.25h4.25v8.5zM6.906 6.375v-2.748l2.747 2.748h-2.747z"></path>
</svg>
