<!-- Generated by IcoMoon.io -->
<svg version="1.1" xmlns="http://www.w3.org/2000/svg" width="17" height="17" viewBox="0 0 17 17">
<title>drop</title>
<path d="M8.473 16.978c-3.209 0-5.82-2.575-5.82-5.74 0-3.697 5.174-10.705 5.394-11.002 0.1-0.134 0.256-0.213 0.423-0.214 0.186-0.002 0.325 0.076 0.426 0.209 0.223 0.291 5.451 7.176 5.451 11.008 0 3.165-2.635 5.741-5.873 5.741zM8.479 1.456c-1.235 1.754-4.764 7.007-4.764 9.782 0 2.579 2.134 4.678 4.758 4.678 2.653 0 4.811-2.098 4.811-4.678 0-2.878-3.555-8.052-4.805-9.782z"></path>
</svg>
