<!-- Generated by IcoMoon.io -->
<svg version="1.1" xmlns="http://www.w3.org/2000/svg" width="17" height="17" viewBox="0 0 17 17">
<title>earphones-alt</title>
<path d="M16.997 9.505c0.002-0.35-0.053-1.668-0.095-2.046-0.483-4.329-3.997-7.471-8.354-7.471-4.538 0-8.215 3.497-8.464 8.133-0.005 0.101-0.043 0.819-0.045 1.247l-0.001 0.238c-0.022 0.098-0.035 0.2-0.035 0.304v3.564c0 0.778 0.633 1.411 1.411 1.411h1.433c0.778 0 1.412-0.633 1.412-1.411v-3.563c0-0.778-0.634-1.411-1.412-1.411h-1.433c-0.098 0-0.193 0.010-0.285 0.029 0.008-0.172 0.015-0.308 0.017-0.35 0.219-4.064 3.439-7.128 7.403-7.128 3.806 0 6.875 2.745 7.298 6.526 0.018 0.158 0.041 0.559 0.059 0.962-0.103-0.024-0.209-0.040-0.319-0.040h-1.416c-0.778 0-1.411 0.633-1.411 1.411v3.547c0 0.537 0.305 1 0.749 1.238l-3.411 1.339v-0.087c0-0.293-0.238-0.531-0.531-0.531h-1.594c-0.293 0-0.531 0.238-0.531 0.531v0.531c0 0.293 0.238 0.531 0.531 0.531h1.594c0.005 0 0.008-0.001 0.013-0.001l0.952-0.004 5.471-2.148c0.072-0.030 0.133-0.074 0.182-0.127 0.479-0.226 0.813-0.709 0.813-1.273v-3.547c0-0.087-0.011-0.171-0.026-0.253 0.015-0.049 0.025-0.1 0.025-0.153zM1.414 9.562h1.433c0.193 0 0.349 0.156 0.349 0.349v3.564c0 0.193-0.157 0.349-0.349 0.349h-1.433c-0.193 0-0.349-0.156-0.349-0.349v-3.564c0-0.193 0.156-0.349 0.349-0.349zM13.821 9.911c0-0.193 0.156-0.349 0.349-0.349h1.416c0.193 0 0.349 0.156 0.349 0.349v3.547c0 0.193-0.157 0.349-0.349 0.349h-1.416c-0.193 0-0.349-0.156-0.349-0.349v-3.547z"></path>
</svg>
