<!-- Generated by IcoMoon.io -->
<svg version="1.1" xmlns="http://www.w3.org/2000/svg" width="17" height="17" viewBox="0 0 17 17">
<title>equalizer</title>
<path d="M2.657 6.439v-5.908c0-0.293-0.238-0.531-0.531-0.531s-0.531 0.238-0.531 0.531v5.907c-0.919 0.237-1.6 1.070-1.6 2.061s0.682 1.825 1.6 2.062v5.907c0 0.293 0.238 0.531 0.531 0.531s0.531-0.238 0.531-0.531v-5.908c0.918-0.237 1.599-1.070 1.599-2.061s-0.681-1.824-1.599-2.061zM2.132 9.563c-0.002 0-0.004-0.001-0.006-0.001s-0.005 0.001-0.007 0.001c-0.584-0.003-1.057-0.479-1.057-1.063s0.474-1.060 1.058-1.063c0.002 0 0.005 0.001 0.007 0.001s0.004-0.001 0.006-0.001c0.583 0.004 1.057 0.479 1.057 1.063s-0.474 1.059-1.057 1.063zM9.032 9.627v-9.096c0-0.293-0.238-0.531-0.531-0.531s-0.531 0.238-0.531 0.531v9.095c-0.919 0.237-1.6 1.070-1.6 2.061s0.682 1.825 1.6 2.062v2.72c0 0.293 0.238 0.531 0.531 0.531s0.531-0.238 0.531-0.531v-2.72c0.917-0.237 1.599-1.070 1.599-2.061s-0.681-1.823-1.599-2.061zM8.507 12.751c-0.002 0-0.004-0.001-0.006-0.001s-0.005 0.001-0.007 0.001c-0.584-0.003-1.057-0.479-1.057-1.063s0.475-1.060 1.059-1.063c0.002 0 0.004 0.001 0.006 0.001s0.003-0.001 0.005-0.001c0.584 0.003 1.058 0.479 1.058 1.063s-0.474 1.059-1.057 1.063zM15.407 3.252v-2.721c0-0.293-0.238-0.531-0.531-0.531s-0.531 0.238-0.531 0.531v2.72c-0.919 0.237-1.6 1.070-1.6 2.061s0.682 1.825 1.6 2.062v9.095c0 0.293 0.238 0.531 0.531 0.531s0.531-0.238 0.531-0.531v-9.095c0.917-0.237 1.599-1.070 1.599-2.061s-0.681-1.823-1.599-2.061zM14.882 6.376c-0.002 0-0.004-0.001-0.006-0.001s-0.005 0.001-0.007 0.001c-0.584-0.003-1.058-0.479-1.058-1.063s0.474-1.060 1.057-1.063c0.002 0 0.005 0.001 0.007 0.001s0.004-0.001 0.006-0.001c0.583 0.004 1.057 0.479 1.057 1.063s-0.473 1.059-1.057 1.063z"></path>
</svg>
