<!-- Generated by IcoMoon.io -->
<svg version="1.1" xmlns="http://www.w3.org/2000/svg" width="17" height="17" viewBox="0 0 17 17">
<title>eye</title>
<path d="M8.558 5.336c-1.76 0-3.188 1.427-3.188 3.187s1.427 3.188 3.188 3.188 3.188-1.427 3.188-3.188c0-1.76-1.427-3.187-3.188-3.187zM8.558 10.648c-1.172 0-2.149-0.976-2.149-2.148s0.953-2.125 2.125-2.125c1.172 0 2.125 0.953 2.125 2.125s-0.929 2.148-2.101 2.148zM16.995 8.377c-0.006-0.027-0.003-0.055-0.011-0.082-0.003-0.011-0.010-0.018-0.014-0.027-0.006-0.015-0.004-0.033-0.012-0.048-1.545-3.538-4.875-5.574-8.424-5.574s-6.946 2.033-8.492 5.571c-0.007 0.015-0.006 0.030-0.011 0.047-0.004 0.010-0.011 0.016-0.015 0.026-0.008 0.027-0.005 0.055-0.010 0.082-0.010 0.048-0.019 0.094-0.019 0.143s0.009 0.094 0.019 0.143c0.005 0.027 0.002 0.056 0.010 0.081 0.003 0.012 0.011 0.017 0.015 0.028 0.006 0.015 0.004 0.033 0.011 0.047 1.546 3.537 4.91 5.54 8.459 5.54s6.912-1.999 8.458-5.537c0.008-0.015 0.006-0.031 0.012-0.048 0.004-0.009 0.011-0.016 0.014-0.027 0.008-0.026 0.006-0.054 0.011-0.082 0.009-0.048 0.018-0.094 0.018-0.143 0-0.047-0.009-0.093-0.018-0.141zM8.5 13.291c-3.010 0-5.972-1.587-7.428-4.776 1.442-3.179 4.444-4.806 7.461-4.806 3.016 0 5.952 1.629 7.394 4.81-1.441 3.178-4.41 4.772-7.427 4.772z"></path>
</svg>
