<!-- Generated by IcoMoon.io -->
<svg version="1.1" xmlns="http://www.w3.org/2000/svg" width="17" height="17" viewBox="0 0 17 17">
<title>game-controller</title>
<path d="M12.339 1.254c-0.425-0.199-0.827-0.387-1.193-0.571-0.937-0.47-1.787-0.698-2.598-0.698-1.632 0-2.761 0.941-3.469 1.65l-3.434 3.438c-1.838 1.839-2.131 3.712-0.951 6.073 0.183 0.367 0.371 0.769 0.571 1.196 1.074 2.297 2.184 4.673 4.002 4.673 0.051 0 0.101-0.002 0.153-0.006 1.876-0.147 2.408-2.561 2.877-4.691 0.075-0.337 0.145-0.661 0.218-0.951 0.126-0.502 0.375-0.813 1.055-1.495l0.093-0.094 0.058-0.058 0.151-0.151c0.682-0.682 0.994-0.93 1.496-1.057 0.287-0.072 0.61-0.143 0.947-0.217 2.129-0.47 4.542-1.002 4.688-2.881 0.147-1.906-2.299-3.052-4.665-4.16zM15.912 5.318c-0.103 1.324-3.068 1.715-4.833 2.158-0.78 0.197-1.255 0.61-1.972 1.327-0.050 0.050-0.1 0.1-0.151 0.151s-0.1 0.101-0.15 0.151c-0.717 0.717-1.129 1.192-1.325 1.974-0.443 1.766-0.833 4.734-2.156 4.838-0.024 0.002-0.048 0.002-0.072 0.002-1.404 0-2.585-3.191-3.627-5.274-1.058-2.117-0.605-3.49 0.753-4.849 0.261-0.261 0.585-0.585 0.982-0.983 0.406-0.406 0.888-0.889 1.46-1.461 0.397-0.397 0.721-0.721 0.981-0.983 0.843-0.844 1.692-1.339 2.721-1.339 0.628 0 1.322 0.184 2.123 0.585 2.116 1.061 5.377 2.266 5.265 3.702zM7.949 5.832h1.063v-1.063h-1.063v1.063zM7.949 4.238h1.063v-1.063h-1.063v1.063zM9.542 4.238h1.063v-1.063h-1.063v1.063zM9.542 5.832h1.063v-1.063h-1.063v1.063zM5.477 9.022l0.404-0.404c0.199-0.199 0.199-0.522 0-0.721s-0.522-0.199-0.721 0l-0.404 0.404-0.404-0.404c-0.199-0.199-0.522-0.199-0.721 0s-0.199 0.522 0 0.721l0.404 0.404-0.404 0.404c-0.199 0.199-0.199 0.522 0 0.721s0.522 0.199 0.721 0l0.404-0.404 0.416 0.416c0.199 0.199 0.522 0.199 0.721 0s0.199-0.522 0-0.722l-0.416-0.416z"></path>
</svg>
