<!-- Generated by IcoMoon.io -->
<svg version="1.1" xmlns="http://www.w3.org/2000/svg" width="17" height="17" viewBox="0 0 17 17">
<title>hourglass</title>
<path d="M13.83 1.073h-1.070v3.576c0 1.733-0.941 3.044-2.957 4.071 2.093 1.059 2.973 2.36 2.973 4.301 0 1.264-0.006 2.324-0.010 2.907h1.064c0.294 0 0.531 0.237 0.531 0.531s-0.238 0.531-0.531 0.531h-10.66c-0.294 0-0.531-0.238-0.531-0.531s0.238-0.531 0.531-0.531h1.095c-0.004-0.583-0.010-1.644-0.010-2.907 0-1.941 0.868-3.241 2.957-4.301-2.013-1.027-2.941-2.338-2.941-4.071v-3.576h-1.102c-0.294 0-0.531-0.237-0.531-0.531s0.238-0.531 0.531-0.531h10.66c0.294 0 0.531 0.238 0.531 0.531s-0.238 0.531-0.532 0.531zM5.317 13.020c0 1.267 0.006 2.328 0.010 2.907h6.378c0.004-0.58 0.010-1.641 0.010-2.907 0-1.478-0.55-2.624-3.207-3.725-2.657 1.102-3.19 2.248-3.19 3.725zM11.698 1.073h-6.364v3.576c0 1.019 0.343 2.331 3.174 3.495 2.832-1.164 3.191-2.476 3.191-3.495v-3.576z"></path>
</svg>
