<!-- Generated by IcoMoon.io -->
<svg version="1.1" xmlns="http://www.w3.org/2000/svg" width="17" height="17" viewBox="0 0 17 17">
<title>login</title>
<path d="M8.841 10.98c-0.208 0.207-0.208 0.544 0 0.751 0.104 0.104 0.24 0.156 0.376 0.156s0.272-0.052 0.376-0.156l3.138-3.221-3.138-3.221c-0.207-0.207-0.544-0.207-0.751 0s-0.208 0.544 0 0.751l1.922 1.922h-10.234c-0.294 0-0.531 0.238-0.531 0.531s0.238 0.531 0.531 0.531h10.267l-1.955 1.955zM15.94 0h-9.563c-0.587 0-1.063 0.476-1.063 1.063v4.781h1.070v-4.133c0-0.355 0.288-0.643 0.643-0.643h8.246c0.355 0 0.643 0.288 0.643 0.643l0.017 13.585c0 0.355-0.287 0.643-0.643 0.643h-8.263c-0.355 0-0.643-0.288-0.643-0.643v-4.157l-1.070 0.001v4.797c0 0.587 0.476 1.063 1.063 1.063h9.562c0.587 0 1.063-0.476 1.063-1.063v-14.875c-0-0.587-0.476-1.063-1.063-1.063z"></path>
</svg>
