<!-- Generated by IcoMoon.io -->
<svg version="1.1" xmlns="http://www.w3.org/2000/svg" width="17" height="17" viewBox="0 0 17 17">
<title>loop</title>
<path d="M15.938 1.691h-14.875c-0.587 0-1.063 0.476-1.063 1.063v9.563c0 0.587 0.476 1.063 1.063 1.063h2.656c0.34 0 0.531-0.437 0.531-0.531v-0c0-0.097-0.181-0.538-0.531-0.538h-2.008c-0.355 0-0.643-0.288-0.643-0.643v-8.246c0-0.355 0.288-0.643 0.643-0.643l13.585-0.017c0.355 0 0.643 0.288 0.643 0.643v8.263c0 0.355-0.288 0.643-0.643 0.643h-6.693l1.261-1.144c0.155-0.148 0.205-0.389 0.050-0.537l-0.091-0.134c-0.156-0.148-0.407-0.148-0.562 0l-2.154 1.966c-0.003 0.003-0.006 0.004-0.009 0.006l-0.141 0.134c-0.078 0.074-0.116 0.172-0.116 0.269-0.001 0.098 0.038 0.195 0.116 0.27l0.141 0.134c0.003 0.003 0.006 0.003 0.009 0.006l2.12 1.918c0.155 0.148 0.406 0.148 0.562 0l0.091-0.134c0.155-0.148 0.105-0.389-0.050-0.537l-1.281-1.148h7.388c0.587 0 1.063-0.475 1.063-1.063v-9.563c0-0.587-0.476-1.063-1.063-1.063z"></path>
</svg>
