<!-- Generated by IcoMoon.io -->
<svg version="1.1" xmlns="http://www.w3.org/2000/svg" width="17" height="17" viewBox="0 0 17 17">
<title>magnifier</title>
<path d="M16.845 16.088l-5.162-5.194c0.962-1.152 1.542-2.635 1.542-4.253 0-3.667-2.973-6.641-6.641-6.641s-6.641 2.973-6.641 6.641c0 3.667 2.973 6.641 6.641 6.641 1.666 0 3.188-0.615 4.354-1.629l5.155 5.187c0.207 0.207 0.544 0.207 0.751 0s0.207-0.544 0-0.751zM6.584 12.228c-3.085 0-5.587-2.501-5.587-5.587s2.501-5.587 5.587-5.587 5.587 2.501 5.587 5.587-2.501 5.587-5.587 5.587z"></path>
</svg>
