<!-- Generated by IcoMoon.io -->
<svg version="1.1" xmlns="http://www.w3.org/2000/svg" width="17" height="17" viewBox="0 0 17 17">
<title>microphone</title>
<path d="M8.481 11.688h0.126c1.477 0 2.549-1.089 2.549-2.589v-6.332c0-1.551-1.12-2.766-2.549-2.766h-0.126c-1.455 0-2.638 1.241-2.638 2.766v6.332c0 1.476 1.134 2.589 2.638 2.589zM6.906 2.766c0-0.94 0.707-1.704 1.575-1.704h0.126c0.847 0 1.486 0.733 1.486 1.704v6.332c0 0.913-0.597 1.527-1.486 1.527h-0.126c-0.928 0-1.575-0.628-1.575-1.527v-6.332zM13.281 5.844c-0.294 0-0.531 0.238-0.531 0.531v2.209c0 3.161-1.128 4.697-3.449 4.697h-1.579c-3.035 0-3.472-2.554-3.472-4.697v-2.209c0-0.293-0.238-0.531-0.531-0.531s-0.531 0.238-0.531 0.531v2.209c0 3.661 1.525 5.76 4.534 5.76h0.247v1.594h-2.656c-0.293 0-0.531 0.238-0.531 0.531s0.238 0.531 0.531 0.531h6.375c0.293 0 0.531-0.238 0.531-0.531s-0.238-0.531-0.531-0.531h-2.656v-1.594h0.27c2.058 0 4.511-0.999 4.511-5.76v-2.209c0-0.293-0.238-0.531-0.531-0.531z"></path>
</svg>
