<!-- Generated by IcoMoon.io -->
<svg version="1.1" xmlns="http://www.w3.org/2000/svg" width="17" height="17" viewBox="0 0 17 17">
<title>power</title>
<path d="M11.647 2.724c-0.266-0.124-0.581-0.010-0.706 0.256s-0.010 0.582 0.256 0.706c2.695 1.262 4.159 4.183 3.559 7.103-0.712 3.468-4.112 5.708-7.58 4.997-1.68-0.345-3.058-1.323-4.002-2.755s-1.274-3.146-0.929-4.826c0.41-1.996 1.704-3.641 3.549-4.514 0.265-0.125 0.379-0.442 0.253-0.707s-0.441-0.377-0.707-0.253c-2.15 1.017-3.657 2.934-4.135 5.26-0.402 1.958-0.018 3.955 1.082 5.624s2.718 2.808 4.676 3.211c0.505 0.104 1.010 0.154 1.507 0.154 3.477 0 6.602-2.442 7.328-5.978 0.699-3.403-1.007-6.808-4.149-8.279zM8.5 6.906c0.293 0 0.531-0.238 0.531-0.531v-5.844c0-0.293-0.238-0.531-0.531-0.531s-0.531 0.238-0.531 0.531v5.844c0 0.293 0.238 0.531 0.531 0.531z"></path>
</svg>
