<!-- Generated by IcoMoon.io -->
<svg version="1.1" xmlns="http://www.w3.org/2000/svg" width="17" height="17" viewBox="0 0 17 17">
<title>reload</title>
<path d="M8.488 0c-4.247 0-7.702 3.455-7.702 7.702 0 3.992 3.076 7.33 7.032 7.672l-1.525 0.773c-0.188 0.103-0.3 0.336-0.189 0.519l0.054 0.139c0.112 0.184 0.355 0.249 0.543 0.146l2.545-1.303c0.003-0.002 0.007-0.002 0.010-0.004l0.171-0.093c0.094-0.052 0.157-0.137 0.182-0.231 0.026-0.094 0.014-0.199-0.042-0.291l-0.101-0.166c-0.002-0.003-0.005-0.005-0.007-0.008l-1.572-2.456c-0.112-0.184-0.354-0.249-0.543-0.146l-0.124 0.086c-0.188 0.103-0.201 0.368-0.089 0.551l0.928 1.439c-0.005-0-0.010-0.002-0.014-0.002-3.474-0.228-6.196-3.138-6.196-6.625 0-3.661 2.978-6.64 6.639-6.64s6.657 2.978 6.657 6.64c0 2.108-0.968 4.044-2.656 5.312-0.235 0.176-0.282 0.509-0.106 0.744s0.509 0.282 0.744 0.106c1.958-1.471 3.081-3.717 3.081-6.162-0-4.247-3.472-7.702-7.719-7.702z"></path>
</svg>
