<!-- Generated by IcoMoon.io -->
<svg version="1.1" xmlns="http://www.w3.org/2000/svg" width="17" height="17" viewBox="0 0 17 17">
<title>size-actual</title>
<path d="M6.362 5.757l-0.011-3.835c-0.005-0.215-0.182-0.342-0.397-0.347l-0.273-0c-0.215-0.005-0.385 0.182-0.38 0.397l0.015 2.577-4.421-4.378c-0.207-0.207-0.544-0.207-0.751 0s-0.207 0.544 0 0.751l4.401 4.36-2.508 0.007c-0.215-0.005-0.414 0.143-0.446 0.396l0.001 0.273c0.005 0.215 0.183 0.393 0.397 0.397l3.81-0.017c0.004 0 0.007 0.002 0.011 0.002l0.194 0.005c0.107 0.003 0.204-0.039 0.272-0.109 0.070-0.069 0.095-0.165 0.093-0.273l-0.021-0.194c0-0.004 0.015-0.007 0.015-0.010zM10.724 6.235c0.069 0.069 0.165 0.112 0.272 0.109l0.194-0.005c0.004 0 0.006-0.001 0.011-0.002l3.81 0.017c0.215-0.005 0.392-0.182 0.397-0.397l0.001-0.273c-0.033-0.253-0.232-0.401-0.446-0.396l-2.508-0.007 4.401-4.36c0.207-0.207 0.207-0.544 0-0.751s-0.544-0.207-0.751 0l-4.42 4.378 0.015-2.577c0.005-0.215-0.165-0.401-0.38-0.397l-0.273 0c-0.215 0.005-0.393 0.133-0.397 0.347l-0.011 3.835c0 0.004 0.015 0.006 0.015 0.010l-0.021 0.194c-0.002 0.108 0.023 0.204 0.092 0.273zM6.276 10.748c-0.069-0.069-0.165-0.111-0.272-0.109l-0.194 0.005c-0.004 0-0.006 0.002-0.011 0.002l-3.81-0.017c-0.215 0.005-0.392 0.182-0.397 0.397l-0.001 0.273c0.033 0.253 0.232 0.401 0.446 0.396l2.511 0.007-4.404 4.376c-0.207 0.207-0.207 0.544 0 0.751s0.544 0.207 0.751 0l4.421-4.392-0.015 2.591c-0.005 0.215 0.165 0.402 0.38 0.397l0.273-0.001c0.215-0.005 0.393-0.133 0.397-0.347l0.011-3.835c0-0.004-0.015-0.006-0.015-0.010l0.021-0.211c0.002-0.108-0.023-0.204-0.092-0.273zM12.452 11.702l2.511-0.007c0.215 0.005 0.414-0.143 0.446-0.396l-0.001-0.273c-0.005-0.215-0.183-0.392-0.397-0.397h-3.81c-0.004-0-0.007-0.002-0.011-0.002l-0.227-0.005c-0.107-0.003-0.204 0.072-0.272 0.142-0.070 0.069-0.095 0.165-0.093 0.273l0.021 0.194c0 0.004-0.015 0.006-0.015 0.010l0.011 3.835c0.005 0.215 0.182 0.342 0.397 0.347l0.289 0.001c0.215 0.005 0.385-0.182 0.38-0.397l-0.015-2.565 4.437 4.367c0.207 0.207 0.544 0.207 0.751 0s0.207-0.544 0-0.751l-4.404-4.376z"></path>
</svg>
