<!-- Generated by IcoMoon.io -->
<svg version="1.1" xmlns="http://www.w3.org/2000/svg" width="17" height="17" viewBox="0 0 17 17">
<title>social-twitter</title>
<path d="M11.362 2.634c0.878 0 1.671 0.359 2.229 0.936 0.695-0.134 1.349-0.379 1.938-0.719-0.228 0.691-0.712 1.271-1.342 1.638 0.616-0.073 1.206-0.231 1.754-0.467-0.41 0.593-0.927 1.116-1.524 1.533 0.006 0.127 0.009 0.255 0.009 0.382 0 3.913-3.071 8.427-8.688 8.427-1.724 0-3.33-0.492-4.68-1.332 0.239 0.028 0.482 0.042 0.728 0.042 1.43 0 2.748-0.473 3.793-1.268-1.337-0.023-2.465-0.88-2.852-2.056 0.186 0.035 0.378 0.053 0.575 0.053 0.278 0 0.548-0.036 0.804-0.104-1.397-0.271-2.449-1.468-2.449-2.904 0-0.013 0-0.026 0-0.038 0.412 0.222 0.882 0.355 1.384 0.371-0.82-0.532-1.359-1.437-1.359-2.465 0-0.543 0.151-1.052 0.414-1.488 1.506 1.791 3.755 2.97 6.293 3.094-0.052-0.216-0.079-0.445-0.079-0.674 0-1.636 1.367-2.962 3.054-2.962M15.941 4.023h0.003M11.362 1.572c-2.086 0-3.815 1.524-4.081 3.494-1.707-0.343-3.259-1.247-4.375-2.572-0.202-0.241-0.501-0.379-0.813-0.379-0.028 0-0.056 0.001-0.083 0.003-0.342 0.027-0.649 0.218-0.826 0.511-0.371 0.615-0.566 1.319-0.566 2.036 0 0.479 0.086 0.945 0.249 1.382-0.174 0.193-0.274 0.446-0.274 0.712v0.038c0 1.041 0.411 2.007 1.095 2.73-0.039 0.182-0.031 0.373 0.029 0.556 0.236 0.717 0.665 1.335 1.221 1.805-0.373 0.083-0.759 0.125-1.152 0.125-0.208 0-0.41-0.011-0.602-0.035-0.042-0.005-0.084-0.007-0.127-0.007-0.446 0-0.851 0.281-1.002 0.71-0.165 0.47 0.018 0.991 0.441 1.255 1.569 0.976 3.382 1.492 5.241 1.492 6.043 0 9.679-4.731 9.749-9.352 0.495-0.409 0.932-0.883 1.302-1.414 0.135-0.177 0.215-0.399 0.215-0.639 0-0.362-0.181-0.681-0.456-0.873 0.119-0.409-0.017-0.851-0.349-1.122-0.194-0.158-0.432-0.238-0.671-0.238-0.183 0-0.366 0.047-0.531 0.142-0.351 0.202-0.727 0.363-1.122 0.478-0.716-0.538-1.603-0.838-2.514-0.838v0z"></path>
</svg>
