<!-- Generated by IcoMoon.io -->
<svg version="1.1" xmlns="http://www.w3.org/2000/svg" width="17" height="17" viewBox="0 0 17 17">
<title>symbol-male</title>
<path d="M16.988 0.376c0.002-0.108-0.023-0.204-0.093-0.273-0.069-0.069-0.165-0.112-0.272-0.108l-0.194 0.005c-0.004 0-0.006 0.001-0.011 0.002l-4.873-0.017c-0.215 0.005-0.392 0.182-0.397 0.397l-0.001 0.273c0.033 0.253 0.232 0.401 0.446 0.396l3.573 0.007-4.252 4.227c-1.154-0.967-2.64-1.55-4.263-1.55-3.668 0-6.641 2.973-6.641 6.641s2.973 6.641 6.641 6.641c3.667 0 6.641-2.973 6.641-6.641 0-1.662-0.612-3.18-1.621-4.345l4.265-4.239-0.016 3.638c-0.005 0.215 0.165 0.401 0.38 0.397l0.273-0.001c0.215-0.005 0.393-0.133 0.397-0.347l0.011-4.898c0-0.004-0.015-0.007-0.015-0.010l0.021-0.194zM12.239 10.375c0 3.085-2.501 5.587-5.587 5.587s-5.587-2.501-5.587-5.587 2.501-5.587 5.587-5.587c3.086-0 5.587 2.501 5.587 5.587z"></path>
</svg>
