<!-- Generated by IcoMoon.io -->
<svg version="1.1" xmlns="http://www.w3.org/2000/svg" width="17" height="17" viewBox="0 0 17 17">
<title>uniE001</title>
<path d="M12.385 13.867l-3.345-1.853c1.243-0.978 1.581-2.9 1.581-3.978v-2.243c0-1.485-1.974-3.14-3.956-3.14s-4.008 1.655-4.008 3.14v2.243c0 0.98 0.415 2.962 1.671 3.969l-3.431 1.861c0 0-0.896 0.399-0.896 0.898v1.346c0 0.495 0.402 0.898 0.896 0.898h11.488c0.495 0 0.897-0.402 0.897-0.898v-1.346c0-0.528-0.897-0.898-0.897-0.898zM12.219 15.946h-11.157v-0.95c0.076-0.056 0.183-0.12 0.267-0.158 0.025-0.011 0.050-0.023 0.074-0.037l3.431-1.861c0.313-0.17 0.52-0.484 0.552-0.839s-0.116-0.702-0.394-0.924c-0.891-0.714-1.273-2.296-1.273-3.14v-2.243c0-0.763 1.439-2.077 2.945-2.077 1.535 0 2.893 1.296 2.893 2.077v2.243c0 0.832-0.258 2.421-1.175 3.142-0.281 0.221-0.432 0.568-0.402 0.924s0.237 0.673 0.55 0.844l3.345 1.853c0.029 0.016 0.067 0.034 0.098 0.047 0.078 0.033 0.175 0.089 0.245 0.138v0.961zM16.103 11.222l-3.394-1.853c1.243-0.978 1.631-2.9 1.631-3.978v-2.243c0-1.485-2.023-3.156-4.006-3.156-1.288 0-2.606 0.7-3.372 1.597 0.437 0.027 0.919 0.028 1.336 0.16 0.56-0.436 1.268-0.695 2.036-0.695 1.535 0 2.943 1.312 2.943 2.094v2.243c0 0.832-0.308 2.421-1.225 3.142-0.281 0.221-0.432 0.568-0.402 0.924s0.237 0.673 0.55 0.844l3.394 1.853c0.029 0.016 0.067 0.034 0.098 0.047 0.078 0.033 0.175 0.089 0.245 0.138v0.945h-2.145c0.324 0.244 0.422 0.594 0.547 1.063h1.763c0.495 0 0.897-0.402 0.897-0.898v-1.33c-0-0.529-0.897-0.898-0.897-0.898z"></path>
</svg>
