<!-- Generated by IcoMoon.io -->
<svg version="1.1" xmlns="http://www.w3.org/2000/svg" width="17" height="17" viewBox="0 0 17 17">
<title>uniE07C</title>
<path d="M8.5 0c-4.694 0-8.5 3.806-8.5 8.5s3.806 8.5 8.5 8.5c4.695 0 8.5-3.805 8.5-8.5s-3.805-8.5-8.5-8.5zM1.063 8.5c0-1.864 0.691-3.569 1.828-4.875l10.49 10.49c-1.307 1.144-3.014 1.84-4.88 1.84-4.101 0-7.438-3.353-7.438-7.454zM14.128 13.361l-10.486-10.486c1.304-1.128 3.002-1.812 4.857-1.812 4.101 0 7.438 3.337 7.438 7.438 0 1.854-0.683 3.553-1.809 4.861z"></path>
</svg>
