<!-- Generated by IcoMoon.io -->
<svg version="1.1" xmlns="http://www.w3.org/2000/svg" width="17" height="17" viewBox="0 0 17 17">
<title>uniE012</title>
<path d="M15.511 1.094v0c0.173 0 0.295 0.032 0.359 0.057 0.076 0.203 0.178 0.93-0.573 1.682l-3.835 3.835 0.028 0.476c0.058 0.996 0.166 2.78 0.259 4.309 0.082 1.361 0.16 2.647 0.165 2.756 0.003 0.075 0.004 0.093-0.066 0.177-0.157 0.19-0.449 0.513-0.696 0.781-0.382-1.030-1.185-3.205-1.629-4.423l-0.57-1.567-1.179 1.179-2.168 2.085-0.302 0.301-0.009 0.426c-0.007 0.34-0.006 0.951-0.005 1.489 0.001 0.375 0.002 0.716-0.001 0.904-0.005 0.009 0.073 0.019 0.065 0.032-0.046-0.074-0.096-0.154-0.148-0.237-0.437-0.697-1.042-1.662-1.227-1.963l-0.135-0.22-0.222-0.134c-0.806-0.487-1.698-1.048-2.243-1.399 0.019-0.011 0.034 0.047 0.047 0.040h0.035c0.171 0 0.454 0.004 0.772 0.008 0.415 0.006 0.886 0.012 1.247 0.012 0.138 0 0.261-0.001 0.36-0.003l0.426-0.010 0.301-0.301 2.088-2.153 1.175-1.175-1.559-0.574c-1.172-0.431-3.417-1.269-4.467-1.664 0.269-0.248 0.594-0.543 0.783-0.699 0.053-0.044 0.094-0.066 0.122-0.066l0.037 0.001c0.117 0.006 1.572 0.101 2.978 0.193 1.493 0.097 3.178 0.207 4.136 0.268l0.479 0.030 3.835-3.836c0.539-0.538 1.068-0.618 1.336-0.618M15.511 0.032c-0.628 0-1.398 0.241-2.086 0.93l-3.496 3.496c-1.969-0.125-7.013-0.458-7.138-0.462-0.022-0.001-0.050-0.002-0.081-0.002-0.17 0-0.464 0.033-0.799 0.309-0.393 0.325-1.212 1.095-1.212 1.095-0.198 0.198-0.298 0.444-0.274 0.674 0.015 0.139 0.090 0.394 0.433 0.528 0.208 0.082 3.518 1.32 5.046 1.882l-2.088 2.153c-0.092 0.002-0.207 0.003-0.336 0.003-0.636 0-1.623-0.021-2.019-0.021-0.052 0-0.094 0-0.124 0.001-0.12 0.004-0.369-0.056-1.027 0.494l-0.047 0.044c-0.197 0.197-0.243 0.394-0.248 0.524-0.004 0.134 0.032 0.327 0.225 0.482 0.116 0.094 1.608 1.049 2.831 1.788 0.293 0.478 1.643 2.623 1.713 2.739 0.103 0.174 0.271 0.273 0.472 0.279 0.006 0 0.011 0 0.017 0 0.196 0 0.396-0.097 0.593-0.288 0.556-0.651 0.479-0.92 0.482-1.033 0.009-0.355-0.006-1.858 0.007-2.454l2.168-2.085c0.554 1.522 1.765 4.798 1.846 5.007 0.135 0.342 0.389 0.418 0.529 0.432 0.023 0.003 0.046 0.004 0.069 0.004 0.21 0 0.427-0.099 0.605-0.277 0 0 0.768-0.815 1.094-1.212s0.314-0.735 0.308-0.894c-0.003-0.111-0.31-5.127-0.424-7.086l3.497-3.497c1.239-1.24 1.042-2.734 0.582-3.194-0.203-0.204-0.615-0.359-1.117-0.359v0z"></path>
</svg>
