<!-- Generated by IcoMoon.io -->
<svg version="1.1" xmlns="http://www.w3.org/2000/svg" width="17" height="17" viewBox="0 0 17 17">
<title>uniE051</title>
<path d="M0.563 15.644c0.006 0 0.012 0 0.018-0.001 0.269-0.009 0.438-0.217 0.461-0.485 0.018-0.197 0.547-4.965 7.989-4.96l0.017 3.049c0 0.205 0.118 0.393 0.304 0.481 0.184 0.088 0.406 0.061 0.564-0.070l6.889-5.707c0.124-0.101 0.194-0.252 0.194-0.411s-0.072-0.31-0.195-0.411l-6.889-5.654c-0.159-0.13-0.378-0.155-0.563-0.068-0.185 0.088-0.304 0.275-0.304 0.48l-0.017 2.982c-3.087 0.098-5.478 1.091-7.028 2.905-2.522 2.951-1.96 7.241-1.933 7.419 0.039 0.26 0.23 0.452 0.492 0.452zM9.58 9.128c-0.001 0-0.001 0-0.001 0-5.316 0.003-7.348 1.798-8.508 3.384 0.17-1.27 0.665-2.801 1.743-4.051 1.433-1.662 3.743-2.538 6.766-2.538 0.294 0 0.531-0.238 0.531-0.531v-2.387l5.519 4.538-5.519 4.58v-2.464c0-0.141-0.056-0.277-0.156-0.376s-0.234-0.155-0.375-0.155z"></path>
</svg>
