<!-- Generated by IcoMoon.io -->
<svg version="1.1" xmlns="http://www.w3.org/2000/svg" width="17" height="17" viewBox="0 0 17 17">
<title>uniE086</title>
<path d="M16.991 3.852c0.016-0.102 0.003-0.207-0.041-0.303-0.134-0.588-0.559-0.892-1.278-0.892h-13.813c-0.632 0-1.313 0.232-1.648 0.689-0.029 0.022-0.057 0.047-0.082 0.076-0.107 0.124-0.145 0.282-0.121 0.432-0.005 0.043-0.009 0.086-0.009 0.131v8.5c0 0.88 0.979 1.859 1.859 1.859h13.813c0.88 0 1.328-0.979 1.328-1.859v-8.5c0-0.047-0.006-0.088-0.009-0.133zM1.859 3.719h13.813c0.003 0 0.005 0 0.007 0l-7.179 5.722-7.15-5.698c0.163-0.030 0.363-0.023 0.509-0.023zM15.672 13.281h-13.813c-0.293 0-0.797-0.504-0.797-0.797v-7.611l7.090 5.672c0.1 0.086 0.224 0.129 0.348 0.129s0.248-0.043 0.348-0.129l7.089-5.672v7.611c0 0.293 0.028 0.797-0.266 0.797z"></path>
</svg>
