<!-- Generated by IcoMoon.io -->
<svg version="1.1" xmlns="http://www.w3.org/2000/svg" width="17" height="17" viewBox="0 0 17 17">
<title>uniE016</title>
<path d="M15.942 0.999v-0.482c0-0.294-0.238-0.531-0.531-0.531h-3.729c-0.294 0-0.531 0.238-0.531 0.531v2.169c0 0.001 0.001 0.002 0.001 0.002v6.599c0 1.599-0.902 2.9-2.501 2.9s-2.8-1.3-2.8-2.9v-8.289h-0.002v-0.482c0-0.294-0.238-0.531-0.531-0.531h-3.729c-0.294 0-0.531 0.238-0.531 0.531v2.169c0 0.011 0.006 0.020 0.006 0.031v6.815c0 4.132 3.3 7.482 7.432 7.482s7.448-3.349 7.448-7.482v-8.533h-0.001zM14.88 1.049v2.131h-2.661v-2.131h2.661zM4.786 1.049v2.131h-2.661v-2.131h2.661zM8.495 15.951c-3.54 0-6.369-2.88-6.369-6.419v-5.29h2.662v5.047c0 2.188 1.674 3.962 3.862 3.962s3.564-1.774 3.564-3.962v-5.047h2.667v5.29c0 3.539-2.846 6.419-6.386 6.419z"></path>
</svg>
