<!-- Generated by IcoMoon.io -->
<svg version="1.1" xmlns="http://www.w3.org/2000/svg" width="17" height="17" viewBox="0 0 17 17">
<title>uniE0A0</title>
<path d="M9.538 1.094c-0.173-0.092-0.383-0.082-0.546 0.028l-5.331 4.185-1.77 0.001c-0.905 0-1.642 0.642-1.642 1.434l0.028 3.505c0 0.789 0.736 1.431 1.641 1.431l1.77 0.001 5.302 4.196c0.089 0.060 0.193 0.091 0.297 0.091 0.086 0 0.171-0.021 0.249-0.062 0.174-0.092 0.282-0.272 0.282-0.469v-13.874c0-0.196-0.108-0.377-0.282-0.469zM8.757 14.437l-4.609-3.728c-0.088-0.059-0.191-0.091-0.297-0.091l-1.932-0.001c-0.341 0-0.579-0.194-0.579-0.373l-0.028-3.505c0-0.174 0.238-0.368 0.579-0.368l1.932-0.001c0.105 0 0.209-0.032 0.296-0.091l4.637-3.719v11.876zM14.086 8.591c0-1.411-0.97-2.597-2.306-2.82-0.294-0.049-0.563 0.147-0.612 0.437s0.147 0.563 0.436 0.611c0.835 0.139 1.419 0.868 1.419 1.772 0 0.861-0.604 1.605-1.436 1.771-0.288 0.057-0.475 0.337-0.417 0.625 0.050 0.253 0.272 0.427 0.52 0.427 0.034 0 0.070-0.003 0.104-0.010 1.327-0.265 2.291-1.448 2.291-2.813zM13.381 3.717c-0.274-0.102-0.581 0.037-0.683 0.312s0.037 0.581 0.312 0.683c1.603 0.598 2.679 2.157 2.679 3.879s-1.077 3.284-2.678 3.885c-0.275 0.103-0.414 0.409-0.311 0.684 0.080 0.214 0.282 0.345 0.498 0.345 0.062 0 0.125-0.011 0.186-0.034 2.014-0.755 3.368-2.717 3.368-4.88s-1.355-4.122-3.37-4.874z"></path>
</svg>
