<!-- Generated by IcoMoon.io -->
<svg version="1.1" xmlns="http://www.w3.org/2000/svg" width="17" height="17" viewBox="0 0 17 17">
<title>uniE03D</title>
<path d="M16.997 10.037c0.002-0.35-0.053-1.668-0.095-2.046-0.483-4.329-3.997-7.471-8.354-7.471-4.538 0-8.215 3.497-8.464 8.133-0.005 0.101-0.043 0.819-0.045 1.247l-0.001 0.238c-0.022 0.098-0.035 0.2-0.035 0.304v4.626c0 0.778 0.633 1.411 1.411 1.411h1.433c0.778 0 1.412-0.633 1.412-1.411v-4.626c0-0.778-0.634-1.411-1.412-1.411h-1.433c-0.098 0-0.193 0.010-0.285 0.029 0.008-0.172 0.015-0.309 0.017-0.35 0.219-4.064 3.439-7.128 7.403-7.128 3.806 0 6.875 2.745 7.298 6.526 0.018 0.158 0.041 0.559 0.059 0.962-0.104-0.024-0.209-0.040-0.319-0.040h-1.416c-0.778 0-1.411 0.633-1.411 1.411v4.61c0 0.779 0.633 1.411 1.411 1.411h1.416c0.778 0 1.412-0.633 1.412-1.411v-4.61c0-0.087-0.011-0.171-0.026-0.253 0.015-0.049 0.026-0.1 0.026-0.153zM1.413 10.094h1.433c0.193 0 0.349 0.156 0.349 0.349v4.626c0 0.193-0.157 0.349-0.349 0.349h-1.433c-0.193 0-0.349-0.156-0.349-0.349v-4.626c0.001-0.193 0.157-0.349 0.349-0.349zM15.935 15.052c0 0.193-0.157 0.349-0.349 0.349h-1.416c-0.193 0-0.349-0.156-0.349-0.349v-4.609c0-0.193 0.156-0.349 0.349-0.349h1.416c0.193 0 0.349 0.156 0.349 0.349v4.609z"></path>
</svg>
