<!-- Generated by IcoMoon.io -->
<svg version="1.1" xmlns="http://www.w3.org/2000/svg" width="17" height="17" viewBox="0 0 17 17">
<title>uniE01C</title>
<path d="M8.441 16.988c-4.005 0-6.846-2.777-6.846-6.604 0-2.032 1.218-4.22 1.27-4.312 0.106-0.188 0.313-0.291 0.53-0.267 0.214 0.028 0.391 0.182 0.446 0.391 0.003 0.012 0.331 1.241 0.765 1.923 0.291 0.459 0.586 0.783 0.918 1.009-0.225-0.974-0.397-2.439-0.117-3.942 0.769-4.127 4.017-5.114 4.156-5.154 0.179-0.051 0.369-0.005 0.505 0.119s0.198 0.311 0.163 0.492c-0.005 0.029-0.542 2.918 0.597 5.38 0.103 0.224 0.248 0.483 0.403 0.743 0.044-0.357 0.113-0.737 0.218-1.105 0.418-1.46 1.497-1.959 1.543-1.979 0.18-0.082 0.39-0.055 0.546 0.067s0.23 0.32 0.194 0.515c-0.006 0.036-0.156 1.030 0.69 2.439 0.764 1.273 0.984 2.098 0.984 3.68 0 3.826-2.929 6.603-6.965 6.603zM3.249 7.764c-0.292 0.736-0.592 1.714-0.592 2.62 0 3.211 2.394 5.541 5.783 5.541 3.42 0 5.902-2.33 5.902-5.541 0-1.387-0.171-2.031-0.833-3.134-0.442-0.737-0.66-1.399-0.765-1.926-0.105 0.17-0.203 0.378-0.274 0.629-0.324 1.132-0.242 2.456-0.241 2.47 0.016 0.237-0.129 0.456-0.353 0.536s-0.474 0.001-0.611-0.194c-0.040-0.057-0.985-1.394-1.401-2.295-0.865-1.869-0.85-3.89-0.762-5.055-0.875 0.51-2.219 1.649-2.651 3.966-0.42 2.255 0.396 4.509 0.405 4.531 0.071 0.184 0.033 0.393-0.096 0.541s-0.33 0.213-0.524 0.167c-0.066-0.016-1.561-0.405-2.529-1.931-0.173-0.273-0.328-0.604-0.459-0.926z"></path>
</svg>
