<!-- Generated by IcoMoon.io -->
<svg version="1.1" xmlns="http://www.w3.org/2000/svg" width="17" height="17" viewBox="0 0 17 17">
<title>uniE029</title>
<path d="M16.951 12.143l-1.366-2.512c-0.002-0.003-0.002-0.007-0.004-0.010l-0.097-0.168c-0.054-0.093-0.14-0.153-0.236-0.176-0.095-0.023-0.199-0.009-0.289 0.049l-0.163 0.105c-0.003 0.002-0.005 0.005-0.008 0.007l-2.417 1.632c-0.181 0.116-0.239 0.36-0.132 0.546l0.109 0.12c0.108 0.186 0.353 0.193 0.534 0.077l1.445-0.983c-0.342 2.756-2.569 4.871-5.295 5.116v-10.652h2.126c0.293 0 0.531-0.238 0.531-0.531s-0.238-0.531-0.531-0.531h-2.149c-0.004-0.014-0.007-0.028-0.013-0.041 0.948-0.22 1.655-1.069 1.655-2.084 0-1.183-0.959-2.142-2.142-2.142s-2.141 0.959-2.141 2.142c0 1.010 0.699 1.854 1.639 2.080-0.006 0.015-0.010 0.030-0.014 0.045h-2.148c-0.293 0-0.531 0.238-0.531 0.531s0.238 0.531 0.531 0.531h2.125v10.651c-2.726-0.245-4.95-2.36-5.293-5.115l1.443 0.981c0.181 0.116 0.426 0.109 0.534-0.077l0.109-0.12c0.108-0.186 0.049-0.43-0.132-0.546l-2.417-1.632c-0.003-0.002-0.005-0.005-0.008-0.007l-0.164-0.105c-0.090-0.058-0.194-0.073-0.289-0.049s-0.181 0.083-0.236 0.176l-0.097 0.169c-0.002 0.003-0.002 0.006-0.003 0.010l-1.366 2.512c-0.108 0.185-0.049 0.43 0.132 0.546l0.151 0.057c0.181 0.116 0.403 0.011 0.511-0.175l0.795-1.477c0.488 3.399 3.405 5.94 6.861 5.94 3.454 0 6.374-2.541 6.862-5.939l0.794 1.475c0.108 0.186 0.33 0.291 0.511 0.175l0.151-0.057c0.181-0.117 0.24-0.361 0.132-0.546zM7.429 2.108c0-0.595 0.484-1.079 1.079-1.079s1.079 0.484 1.079 1.079-0.484 1.079-1.079 1.079c-0.595-0-1.079-0.484-1.079-1.079z"></path>
</svg>
