<!-- Generated by IcoMoon.io -->
<svg version="1.1" xmlns="http://www.w3.org/2000/svg" width="17" height="17" viewBox="0 0 17 17">
<title>uniE02F</title>
<path d="M17 5.321c0-0.587-0.476-1.063-1.063-1.063h-1.814c0.469-0.463 0.77-1.070 0.77-1.817 0-0.92-0.529-1.92-2.012-1.92-1.952 0-3.583 2.079-4.35 3.244-0.767-1.165-2.448-3.244-4.4-3.244-1.484 0-2.012 1-2.012 1.92 0 0.747 0.309 1.354 0.788 1.817h-1.844c-0.587 0-1.063 0.476-1.063 1.063v3.18h1.072v6.916c0 0.587 0.476 1.063 1.063 1.063h12.745c0.587 0 1.063-0.476 1.063-1.063v-6.916h1.059v-3.18zM12.881 1.583c0.657 0 0.95 0.276 0.95 0.858 0 1.18-1.317 1.817-2.556 1.817h-1.799c0.755-1.121 2.084-2.675 3.405-2.675zM4.132 1.583c1.321 0 2.7 1.553 3.455 2.674h-1.799c-1.239 0-2.606-0.653-2.606-1.833 0-0.581 0.293-0.841 0.95-0.841zM15.938 7.439h-6.906v-2.118h6.906v2.118zM1.063 5.321h6.906v2.118h-6.906v-2.118zM2.134 8.501h5.834v6.916h-5.834v-6.916zM14.879 15.417h-5.848v-6.916h5.848v6.916z"></path>
</svg>
