<!-- Generated by IcoMoon.io -->
<svg version="1.1" xmlns="http://www.w3.org/2000/svg" width="17" height="17" viewBox="0 0 17 17">
<title>uniE08D</title>
<path d="M4.908 12.16c0.104 0.104 0.24 0.156 0.376 0.156s0.272-0.052 0.376-0.156l6.436-6.486c0.207-0.207 0.207-0.544 0-0.751s-0.544-0.207-0.751 0l-6.436 6.486c-0.208 0.207-0.208 0.544 0 0.751zM7.9 11.028c0.176 0.774-0.014 1.534-0.612 2.132l-2.146 2.079c-0.452 0.451-1.052 0.7-1.69 0.7s-1.239-0.249-1.69-0.7c-0.932-0.932-0.932-2.449-0.006-3.376l2.096-2.162c0.452-0.451 1.052-0.7 1.69-0.7 0.218 0 0.429 0.039 0.634 0.095l0.829-0.829c-0.463-0.216-0.962-0.329-1.463-0.329-0.884 0-1.767 0.337-2.442 1.011l-2.091 2.157c-1.348 1.348-1.348 3.535 0 4.884 0.674 0.674 1.558 1.011 2.442 1.011s1.767-0.337 2.442-1.011l2.141-2.074c1.031-1.031 1.255-2.469 0.708-3.731l-0.842 0.842zM15.99 1.009c-0.674-0.674-1.558-1.011-2.441-1.011s-1.768 0.337-2.442 1.011l-2.14 2.074c-1.069 1.069-1.287 2.664-0.661 3.952l0.824-0.824c-0.244-0.815-0.057-1.732 0.582-2.371l2.146-2.079c0.452-0.451 1.052-0.7 1.691-0.7 0.638 0 1.239 0.249 1.69 0.7 0.932 0.932 0.932 2.449 0.005 3.376l-2.146 2.146c-0.451 0.451-1.052 0.7-1.69 0.7-0.163 0-0.306 0.016-0.462-0.015l-0.846 0.847c0.423 0.176 0.857 0.231 1.308 0.231 0.883 0 1.767-0.337 2.441-1.011l2.141-2.141c1.348-1.348 1.348-3.534-0-4.883z"></path>
</svg>
