<!-- Generated by IcoMoon.io -->
<svg version="1.1" xmlns="http://www.w3.org/2000/svg" width="17" height="17" viewBox="0 0 17 17">
<title>uniE04F</title>
<path d="M14.344 2.635h-3.174v-1.019c0-0.879-0.715-1.594-1.594-1.594h-2.119c-0.879 0-1.594 0.715-1.594 1.594v1.019h-3.207c-0.587 0-1.063 0.476-1.063 1.063v12.218c0 0.587 0.476 1.062 1.063 1.062h11.688c0.587 0 1.063-0.476 1.063-1.062v-12.218c0-0.587-0.476-1.063-1.063-1.063zM6.926 1.616c0-0.293 0.238-0.531 0.531-0.531h2.119c0.293 0 0.531 0.238 0.531 0.531v1.019h-3.181v-1.019zM14.344 15.915h-11.688v-12.218h3.207v1.093c0 0-0.014 0.531 0.528 0.531 0.598 0 0.534-0.531 0.534-0.531v-1.093h3.181v1.093c0 0-0.035 0.533 0.529 0.533 0.531 0 0.533-0.533 0.533-0.533v-1.093h3.174v12.218z"></path>
</svg>
