<!-- Generated by IcoMoon.io -->
<svg version="1.1" xmlns="http://www.w3.org/2000/svg" width="17" height="17" viewBox="0 0 17 17">
<title>uniE075</title>
<path d="M15.938 1.592h-4.254v-1.059c0-0.294-0.238-0.531-0.531-0.531s-0.531 0.238-0.531 0.531v1.059h-4.25v-1.059c0-0.294-0.238-0.531-0.531-0.531s-0.531 0.238-0.531 0.531v1.059h-4.246c-0.587 0-1.063 0.476-1.063 1.063v13.281c0 0.587 0.476 1.063 1.063 1.063h14.875c0.587 0 1.063-0.476 1.063-1.063v-13.281c0-0.587-0.476-1.062-1.063-1.062zM15.938 15.935h-14.875v-13.281h4.246v0.535c0 0.294 0.238 0.531 0.531 0.531s0.531-0.238 0.531-0.531v-0.535h4.25v0.535c0 0.294 0.238 0.531 0.531 0.531s0.531-0.238 0.531-0.531v-0.535h4.254v13.281zM12.219 8.498h1.063c0.293 0 0.531-0.238 0.531-0.531v-1.063c0-0.293-0.238-0.531-0.531-0.531h-1.063c-0.293 0-0.531 0.238-0.531 0.531v1.063c0 0.293 0.238 0.531 0.531 0.531zM12.219 12.748h1.063c0.293 0 0.531-0.238 0.531-0.531v-1.063c0-0.293-0.238-0.531-0.531-0.531h-1.063c-0.293 0-0.531 0.238-0.531 0.531v1.063c0 0.294 0.238 0.531 0.531 0.531zM9.031 10.623h-1.063c-0.293 0-0.531 0.238-0.531 0.531v1.063c0 0.294 0.238 0.531 0.531 0.531h1.063c0.293 0 0.531-0.238 0.531-0.531v-1.063c0-0.293-0.238-0.531-0.531-0.531zM9.031 6.373h-1.063c-0.293 0-0.531 0.238-0.531 0.531v1.063c0 0.293 0.238 0.531 0.531 0.531h1.063c0.293 0 0.531-0.238 0.531-0.531v-1.063c0-0.294-0.238-0.531-0.531-0.531zM4.781 6.373h-1.063c-0.293 0-0.531 0.238-0.531 0.531v1.063c0 0.293 0.238 0.531 0.531 0.531h1.063c0.293 0 0.531-0.238 0.531-0.531v-1.063c0-0.294-0.238-0.531-0.531-0.531zM4.781 10.623h-1.063c-0.293 0-0.531 0.238-0.531 0.531v1.063c0 0.294 0.238 0.531 0.531 0.531h1.063c0.293 0 0.531-0.238 0.531-0.531v-1.063c0-0.293-0.238-0.531-0.531-0.531z"></path>
</svg>
