<!-- Generated by IcoMoon.io -->
<svg version="1.1" xmlns="http://www.w3.org/2000/svg" width="17" height="17" viewBox="0 0 17 17">
<title>uniE00D</title>
<path d="M8.5 0.005c-1.16 0-2.266 0.234-3.274 0.657-0.035 0.011-0.069 0.026-0.102 0.044-3.009 1.308-5.12 4.309-5.12 7.794 0 4.684 3.811 8.495 8.495 8.495s8.496-3.811 8.496-8.495c0-4.685-3.811-8.496-8.496-8.496zM15.933 8.5c0 0.059-0.003 0.118-0.005 0.177-0.814-0.216-2.879-0.622-5.425-0.062-0.224-0.513-0.473-1.039-0.752-1.574-0.023-0.045-0.046-0.088-0.069-0.132 2.725-1.052 3.883-2.468 4.362-3.353 1.174 1.315 1.889 3.047 1.889 4.944zM13.24 2.78c-0.248 0.584-1.146 2.092-4.063 3.186-1.31-2.394-2.328-3.83-2.899-4.559 0.702-0.22 1.447-0.339 2.221-0.339 1.8 0 3.453 0.644 4.741 1.713zM5.247 1.818c0.452 0.553 1.501 1.943 2.907 4.49-3.32 1.001-6.017 0.881-6.953 0.793 0.445-2.327 1.977-4.272 4.046-5.283zM1.067 8.5c0-0.114 0.003-0.228 0.009-0.342 0.32 0.032 0.816 0.068 1.466 0.068 1.443 0 3.614-0.178 6.126-0.965 0.047 0.089 0.094 0.178 0.142 0.27 0.24 0.461 0.456 0.916 0.654 1.362-0.454 0.143-0.92 0.317-1.392 0.531-3.032 1.373-4.452 3.332-4.958 4.189-1.266-1.333-2.046-3.134-2.046-5.113zM3.92 14.348c0.27-0.511 1.504-2.558 4.589-3.955 0.464-0.21 0.922-0.378 1.368-0.513 1.008 2.562 1.358 4.674 1.464 5.488-0.876 0.364-1.835 0.566-2.841 0.566-1.727 0-3.317-0.594-4.58-1.585zM12.345 14.859c-0.153-1.023-0.534-2.945-1.427-5.241 2.464-0.491 4.415-0.009 4.908 0.134-0.369 2.162-1.672 4.009-3.48 5.106z"></path>
</svg>
