<!-- Generated by IcoMoon.io -->
<svg version="1.1" xmlns="http://www.w3.org/2000/svg" width="17" height="17" viewBox="0 0 17 17">
<title>uniE00B</title>
<path d="M9.658 1.336c0.063 0 0.1 0.003 0.1 0.003h1.387l-0.007 1.594h-1.378c-0.758 0-0.741 0.648-0.741 0.648v2.527h2.683l-0.375 1.592h-2.318v7.965h-1.592l-0.001-7.965h-2.115l-0.004-1.592h2.12c0 0 0-1.949 0-2.477 0-2.16 1.794-2.294 2.24-2.294M11.145 1.339h0.003M9.658 0.274v0c-0.382 0-1.128 0.063-1.835 0.489-0.669 0.403-1.467 1.227-1.467 2.867v1.414h-1.058c-0.282 0-0.553 0.113-0.753 0.312s-0.311 0.471-0.31 0.754l0.004 1.592c0.002 0.585 0.477 1.059 1.063 1.059h1.053l0.001 6.903c0 0.587 0.476 1.063 1.063 1.063h1.592c0.587 0 1.063-0.476 1.063-1.063v-6.903h1.255c0.471 0 0.887-0.311 1.019-0.763l0.375-1.592c0.094-0.321 0.032-0.668-0.169-0.936s-0.516-0.426-0.85-0.426h-1.621v-1.048l1.056-0.001c0.585 0 1.060-0.473 1.063-1.058l0.007-1.54c0.001-0.020 0.002-0.039 0.002-0.059 0-0.587-0.475-1.063-1.061-1.063h-1.36c-0.031-0.002-0.075-0.003-0.13-0.003v0z"></path>
</svg>
