<!-- Generated by IcoMoon.io -->
<svg version="1.1" xmlns="http://www.w3.org/2000/svg" width="17" height="17" viewBox="0 0 17 17">
<title>uniE05F</title>
<path d="M16.008 0.825c-0.579-0.555-1.217-0.836-1.899-0.836-1.066 0-1.843 0.689-2.056 0.899-0.299 0.296-10.511 10.512-10.511 10.512-0.067 0.067-0.115 0.151-0.14 0.242-0.23 0.851-1.384 4.627-1.395 4.665-0.059 0.193-0.006 0.404 0.136 0.547 0.103 0.102 0.239 0.157 0.379 0.157 0.055 0 0.111-0.008 0.165-0.026 0.039-0.013 3.937-1.273 4.578-1.464 0.084-0.025 0.162-0.071 0.225-0.133 0.405-0.401 9.93-9.819 10.562-10.472 0.654-0.674 0.979-1.376 0.966-2.085-0.013-0.701-0.353-1.375-1.010-2.006zM11.884 2.587c0.271 0.066 0.909 0.28 1.561 0.938 0.659 0.665 0.837 1.424 0.87 1.597-2.089 2.078-6.897 6.835-8.793 8.71-0.175-0.408-0.458-0.899-0.913-1.357-0.556-0.56-1.121-0.876-1.557-1.054 1.876-1.876 6.775-6.777 8.832-8.834zM2.331 12.318c0.292 0.078 0.898 0.303 1.516 0.926 0.476 0.48 0.701 1.009 0.802 1.332-0.738 0.237-2.355 0.796-3.383 1.127 0.304-1.002 0.819-2.562 1.065-3.385zM15.28 4.157c-0.022 0.022-0.058 0.059-0.101 0.102-0.168-0.432-0.462-0.988-0.972-1.502-0.521-0.525-1.050-0.835-1.473-1.019 0.036-0.036 0.064-0.064 0.075-0.075 0.061-0.060 0.613-0.587 1.3-0.587 0.396 0 0.784 0.181 1.156 0.537 0.44 0.422 0.667 0.839 0.674 1.238 0.007 0.408-0.214 0.847-0.659 1.306z"></path>
</svg>
