<!-- Generated by IcoMoon.io -->
<svg version="1.1" xmlns="http://www.w3.org/2000/svg" width="17" height="17" viewBox="0 0 17 17">
<title>uniE071</title>
<path d="M2.401 1.086l12.215 7.414-12.231 7.415 0.016-14.829M2.401 0.023c-0.178 0-0.355 0.044-0.516 0.134-0.337 0.187-0.546 0.543-0.546 0.929l-0.016 14.829c0 0.386 0.209 0.741 0.546 0.929 0.161 0.089 0.338 0.134 0.516 0.134 0.194 0 0.39-0.053 0.561-0.16l12.231-7.415c0.312-0.194 0.502-0.535 0.502-0.902s-0.19-0.708-0.502-0.902l-12.214-7.414c-0.171-0.106-0.366-0.16-0.561-0.16v0z"></path>
</svg>
