<!-- Generated by IcoMoon.io -->
<svg version="1.1" xmlns="http://www.w3.org/2000/svg" width="17" height="17" viewBox="0 0 17 17">
<title>uniE05E</title>
<path d="M9.556 1.551c-0.293 0-0.531 0.238-0.531 0.531s0.238 0.531 0.531 0.531c3.759 0 6.382 2.747 6.382 6.506s-3.058 6.818-6.818 6.818c-3.759 0-6.506-2.716-6.506-6.476 0-0.293-0.238-0.531-0.531-0.531s-0.531 0.238-0.531 0.531c0 4.345 3.224 7.538 7.569 7.538s7.88-3.535 7.88-7.881c0-4.345-3.099-7.569-7.444-7.569zM7.973 7.442v-6.91c0-0.293-0.238-0.531-0.531-0.531-4.138 0-7.442 3.304-7.442 7.442 0 0.293 0.238 0.531 0.531 0.531h6.91c0.293 0 0.531-0.238 0.531-0.531zM6.91 6.91h-5.826c0.257-3.129 2.697-5.57 5.826-5.826v5.826z"></path>
</svg>
