<!-- Generated by IcoMoon.io -->
<svg version="1.1" xmlns="http://www.w3.org/2000/svg" width="17" height="17" viewBox="0 0 17 17">
<title>uniE031</title>
<path d="M16.848 6.303l-6.112-6.143c-0.132-0.132-0.322-0.186-0.503-0.141-0.181 0.044-0.325 0.18-0.381 0.358-0.368 1.184-0.41 2.255-0.129 3.232-0.026 0.018-0.050 0.037-0.073 0.060l-2.841 2.84c-0.916-0.425-1.902-0.655-2.884-0.655-0.624 0-1.236 0.092-1.819 0.273-0.177 0.056-0.313 0.199-0.358 0.379s0.008 0.371 0.139 0.503l3.635 3.659-5.083 5.164-0.442 1.164 1.069-0.413 5.202-5.164 3.683 3.707c0.101 0.102 0.237 0.157 0.377 0.157 0.042 0 0.084-0.005 0.127-0.015 0.181-0.045 0.325-0.181 0.381-0.359 0.481-1.548 0.34-3.21-0.338-4.7l2.9-2.901c0.010-0.010 0.018-0.022 0.027-0.033 0.438 0.125 0.891 0.192 1.362 0.192 0.585 0 1.205-0.084 1.842-0.282 0.177-0.055 0.313-0.199 0.358-0.379s-0.008-0.37-0.139-0.502zM10.013 13.682l-6.687-6.73c1.716-0.2 3.567 0.491 4.907 1.831 1.333 1.333 1.984 3.176 1.78 4.899zM9.965 9.239c-0.279-0.427-0.605-0.833-0.98-1.208-0.373-0.373-0.78-0.702-1.211-0.985l2.393-2.392c0.244 0.424 0.559 0.83 0.946 1.217 0.396 0.396 0.815 0.716 1.255 0.964l-2.403 2.404zM11.864 5.121c-1.022-1.022-1.415-2.16-1.207-3.534l4.763 4.788c-1.372 0.197-2.517-0.214-3.556-1.254z"></path>
</svg>
