<!-- Generated by IcoMoon.io -->
<svg version="1.1" xmlns="http://www.w3.org/2000/svg" width="17" height="17" viewBox="0 0 17 17">
<title>uniE00C</title>
<path d="M16.99 3.731c-0.012-0.17-0.104-0.323-0.249-0.414l-4.735-2.955c-0.193-0.12-0.439-0.105-0.615 0.038l-2.892 2.34-2.892-2.34c-0.176-0.142-0.424-0.158-0.615-0.038l-4.735 2.955c-0.144 0.090-0.237 0.244-0.249 0.414s0.058 0.335 0.188 0.444l2.743 2.305-2.35 1.846c-0.134 0.105-0.21 0.269-0.203 0.439s0.094 0.326 0.236 0.421l2.174 1.45c-0.107 0.097-0.175 0.236-0.175 0.392v2.131c0 0.185 0.096 0.356 0.253 0.453l5.345 3.029c0.085 0.052 0.182 0.078 0.278 0.078s0.193-0.027 0.279-0.079l5.283-3.029c0.157-0.097 0.253-0.268 0.253-0.452v-2.499c0-0.034-0.004-0.068-0.010-0.1l2.059-1.373c0.142-0.094 0.229-0.25 0.236-0.42s-0.068-0.333-0.202-0.439l-2.339-1.845 2.744-2.306c0.13-0.109 0.201-0.274 0.188-0.444zM12.23 6.486l-3.73 2.337-3.73-2.337 3.73-2.428 3.73 2.428zM1.441 3.832l3.793-2.367 2.364 1.912-3.774 2.457-2.382-2.001zM3.817 7.142l3.751 2.351-2.126 1.627-3.619-2.412 1.994-1.566zM3.686 11.226l1.483 0.989c0.188 0.126 0.437 0.117 0.617-0.020l2.148-1.644v4.695l-4.249-2.385v-1.634zM13.252 12.86l-4.254 2.419v-4.778l2.202 1.693c0.095 0.073 0.21 0.11 0.324 0.11 0.103 0 0.205-0.029 0.295-0.089l1.433-0.956v1.601zM15.165 8.707l-3.62 2.413-2.116-1.626 3.752-2.351 1.983 1.565zM13.176 5.834l-3.774-2.457 2.364-1.912 3.793 2.367-2.383 2.001z"></path>
</svg>
