<!-- Generated by IcoMoon.io -->
<svg version="1.1" xmlns="http://www.w3.org/2000/svg" width="17" height="17" viewBox="0 0 17 17">
<title>wrench</title>
<path d="M16.707 3.585c-0.179-0.083-0.392-0.051-0.541 0.080l-2.678 2.405-2.418-2.48 2.394-2.765c0.13-0.15 0.162-0.358 0.081-0.54s-0.26-0.294-0.457-0.294h-0.144c-1.48 0-4.034 0.127-5.174 1.284l-0.23 0.228c-1.217 1.241-1.433 3.277-0.792 4.824l-6.131 6.257c-0.827 0.838-0.827 2.197 0 3.035l0.748 0.759c0.413 0.419 0.955 0.628 1.497 0.628s1.083-0.21 1.497-0.628l6.221-6.271c0.588 0.318 1.395 0.526 2.072 0.526 1.085 0 2.114-0.438 2.897-1.233l0.227-0.23c1.239-1.256 1.219-3.939 1.225-5.12 0.001-0.201-0.115-0.383-0.295-0.467zM15.035 8.45l-0.197 0.23c-0.593 0.602-1.37 0.891-2.186 0.891-0.404 0-0.948-0.076-1.315-0.229-0.332-0.138-0.64-0.337-0.916-0.588l-6.81 6.867c-0.2 0.203-0.465 0.314-0.748 0.314s-0.549-0.112-0.749-0.314l-0.748-0.758c-0.413-0.419-0.413-1.099-0-1.518l6.654-6.788c-0.223-0.325-0.375-0.679-0.466-1.046h-0c-0.256-1.036-0.107-2.467 0.698-3.288l0.229-0.231c0.69-0.7 2.481-0.907 3.473-0.968l-1.948 2.25c-0.174 0.201-0.165 0.505 0.020 0.695l3.080 3.16c0.187 0.192 0.489 0.203 0.69 0.025l2.168-1.953c-0.065 1.052-0.269 2.579-0.929 3.249z"></path>
</svg>
