<?xml version="1.0" encoding="utf-8"?>
<!-- Generator: Adobe Illustrator 18.1.1, SVG Export Plug-In . SVG Version: 6.00 Build 0)  -->
<svg version="1.1" id="Layer_2" xmlns="http://www.w3.org/2000/svg" xmlns:xlink="http://www.w3.org/1999/xlink" x="0px" y="0px"
	 width="12px" height="12px" viewBox="-8 12 12 12" enable-background="new -8 12 12 12" xml:space="preserve">
<g>
	<path fill="#93A1A2" d="M2.8,12.6h-9.5c-0.7,0-1.2,0.6-1.2,1.2s0.6,1.2,1.2,1.2h9.5c0.7,0,1.2-0.6,1.2-1.2
		C4,13.2,3.4,12.6,2.8,12.6z"/>
	<path fill="#93A1A2" d="M2.8,16.8h-9.5C-7.4,16.8-8,17.3-8,18c0,0.7,0.6,1.2,1.2,1.2h9.5C3.4,19.2,4,18.7,4,18
		C4,17.3,3.4,16.8,2.8,16.8z"/>
	<path fill="#93A1A2" d="M2.8,20.9h-9.5c-0.7,0-1.2,0.6-1.2,1.2c0,0.7,0.6,1.2,1.2,1.2h9.5c0.7,0,1.2-0.6,1.2-1.2
		C4,21.5,3.4,20.9,2.8,20.9z"/>
</g>
</svg>
