<?xml version="1.0" encoding="utf-8"?>
<!-- Generator: Adobe Illustrator 18.0.0, SVG Export Plug-In . SVG Version: 6.00 Build 0)  -->
<!DOCTYPE svg PUBLIC "-//W3C//DTD SVG 1.1//EN" "http://www.w3.org/Graphics/SVG/1.1/DTD/svg11.dtd">
<svg version="1.1" id="Layer_2" xmlns="http://www.w3.org/2000/svg" xmlns:xlink="http://www.w3.org/1999/xlink" x="0px" y="0px"
	 viewBox="0 154.3 595.3 533.4" enable-background="new 0 154.3 595.3 533.4" xml:space="preserve" width="12px" height="12px">
<path fill="#006A8D" d="M534.2,154.3H61.1C27.4,154.3,0,181.6,0,215.3s27.4,61.1,61.1,61.1h473c33.7,0,61.1-27.4,61.1-61.1
	C595.3,181.8,567.9,154.3,534.2,154.3z"/>
<path fill="#006A8D" d="M534.2,359.9H61.1C27.4,359.9,0,387.3,0,420.9S27.4,482,61.1,482h473c33.7,0,61.1-27.4,61.1-61.1
	C595.3,387.3,567.9,359.9,534.2,359.9z"/>
<path fill="#006A8D" d="M534.2,565.4H61.1C27.4,565.4,0,592.7,0,626.6s27.4,61.1,61.1,61.1h473c33.7,0,61.1-27.4,61.1-61.1
	C595.3,592.9,567.9,565.4,534.2,565.4z"/>
</svg>
