<?xml version="1.0" encoding="utf-8"?>
<!-- Generator: Adobe Illustrator 19.2.1, SVG Export Plug-In . SVG Version: 6.00 Build 0)  -->
<svg version="1.1" id="Layer_2" xmlns="http://www.w3.org/2000/svg" xmlns:xlink="http://www.w3.org/1999/xlink" x="0px" y="0px"
	 viewBox="0 0 12 12" style="enable-background:new 0 0 12 12;" xml:space="preserve">
<style type="text/css">
	.st0{fill:#4D4D4D;}
</style>
<path class="st0" d="M10.8,0H1.2C0.6,0,0,0.6,0,1.2s0.6,1.2,1.2,1.2h9.5c0.7,0,1.2-0.6,1.2-1.2C12,0.6,11.4,0,10.8,0z"/>
<path class="st0" d="M10.8,4.1H1.2C0.6,4.1,0,4.7,0,5.4s0.6,1.2,1.2,1.2h9.5c0.7,0,1.2-0.6,1.2-1.2C12,4.7,11.4,4.1,10.8,4.1z"/>
<path class="st0" d="M10.8,8.3H1.2C0.6,8.3,0,8.8,0,9.5s0.6,1.2,1.2,1.2h9.5c0.7,0,1.2-0.6,1.2-1.2C12,8.8,11.4,8.3,10.8,8.3z"/>
</svg>
