<?xml version="1.0" encoding="utf-8"?>
<!-- Generator: Adobe Illustrator 18.0.0, SVG Export Plug-In . SVG Version: 6.00 Build 0)  -->
<!DOCTYPE svg PUBLIC "-//W3C//DTD SVG 1.1//EN" "http://www.w3.org/Graphics/SVG/1.1/DTD/svg11.dtd">
<svg version="1.1" id="Layer_1" xmlns="http://www.w3.org/2000/svg" xmlns:xlink="http://www.w3.org/1999/xlink" x="0px" y="0px"
	 viewBox="0 123.3 595.3 595.3" enable-background="new 0 123.3 595.3 595.3" xml:space="preserve" width="20px" height="20px">
<path fill="#4D4D4D" d="M590.6,428.1c-5.7,9.2-15.6,14.2-25.6,14.2c-5.5,0-11-1.4-16-4.6L297.6,220.4L46.2,437.8
	c-14.2,8.8-32.9,4.5-41.7-9.6s-4.5-32.7,9.6-41.7l267.4-227.4c9.8-6.1,22.3-6.1,32,0L581,386.5C595.3,395.4,599.6,414,590.6,428.1z
	 M493.4,444.5L313.6,286.8c-9.8-6.1-22.3-6.1-32,0L101.8,444.5c-8.8,5.5-14.2,15.2-14.2,25.6v187c0,16.7,13.6,30.2,30.2,30.2h69.1
	c16.7,0,30.2-13.6,30.2-30.2V556.8c0-27.7,52.9-50.4,80.6-50.4s80.6,22.6,80.6,50.4v100.2c0,16.7,13.6,30.2,30.2,30.2h68.8
	c16.7,0,30.2-13.6,30.2-30.2v-187C507.7,459.7,502.3,449.9,493.4,444.5z"/>
</svg>
