<?xml version="1.0" encoding="utf-8"?>
<!-- Generator: Adobe Illustrator 18.1.1, SVG Export Plug-In . SVG Version: 6.00 Build 0)  -->
<svg version="1.1" id="Layer_1" xmlns="http://www.w3.org/2000/svg" xmlns:xlink="http://www.w3.org/1999/xlink" x="0px" y="0px"
	 width="28px" height="28px" viewBox="0 4 28 28" enable-background="new 0 4 28 28" xml:space="preserve">
<g>
	<path fill="#93A1A2" d="M27.1,27.2l-4.8-4.9c-0.2-0.2-0.4-0.3-0.6-0.3c-0.3,0-0.5,0.1-0.7,0.4c-0.7,1-1.6,1.9-2.6,2.6
		c-0.2,0.2-0.3,0.4-0.4,0.6c0,0.3,0.1,0.5,0.3,0.7l4.8,4.9c0.5,0.5,1.2,0.8,2,0.8s1.5-0.3,2-0.8C28.2,30.1,28.2,28.3,27.1,27.2z"/>
	<path fill="#93A1A2" d="M11.3,26.5c6.2,0,11.3-5.1,11.3-11.3S17.5,4,11.3,4S0,9.1,0,15.3S5.1,26.5,11.3,26.5z M11.3,7.4
		c4.3,0,7.9,3.5,7.9,7.9s-3.5,7.9-7.9,7.9s-7.9-3.5-7.9-7.9S6.9,7.4,11.3,7.4z"/>
</g>
</svg>
