<?xml version="1.0" encoding="utf-8"?>
<!-- Generator: Adobe Illustrator 18.0.0, SVG Export Plug-In . SVG Version: 6.00 Build 0)  -->
<!DOCTYPE svg PUBLIC "-//W3C//DTD SVG 1.1//EN" "http://www.w3.org/Graphics/SVG/1.1/DTD/svg11.dtd">
<svg version="1.1" id="Layer_1" xmlns="http://www.w3.org/2000/svg" xmlns:xlink="http://www.w3.org/1999/xlink" x="0px" y="0px"
	 viewBox="0 123.2 595.3 595.3" enable-background="new 0 123.2 595.3 595.3" xml:space="preserve" width="28px" height="28px">
<g>
	<path d="M575.9,615.6L474.4,512.4c-3.6-3.6-8.2-5.6-13.1-5.6c-6,0-11.4,2.9-15,7.9c-15.4,21.1-33.8,39.5-54.9,54.9
		c-4.5,3.3-7.4,8.2-7.7,13.6c-0.4,5.4,1.5,10.6,5.5,14.5l101.4,103.2c11.4,11.4,26.5,17.6,42.6,17.6s31.3-6.3,42.6-17.7
		C599.4,677.4,599.4,639.2,575.9,615.6z"/>
	<path d="M239.4,602c132,0,239.4-107.4,239.4-239.4S371.3,123.3,239.4,123.3S0,230.7,0,362.7S107.4,602,239.4,602z M239.4,195.1
		c92.4,0,167.5,75.1,167.5,167.5s-75.1,167.5-167.5,167.5s-167.6-75-167.6-167.4S147,195.1,239.4,195.1z"/>
</g>
</svg>
