<?xml version="1.0" encoding="utf-8"?>
<!-- Generator: Adobe Illustrator 17.1.0, SVG Export Plug-In . SVG Version: 6.00 Build 0)  -->
<!DOCTYPE svg PUBLIC "-//W3C//DTD SVG 1.1//EN" "http://www.w3.org/Graphics/SVG/1.1/DTD/svg11.dtd">
<svg version="1.1" id="Layer_1" xmlns="http://www.w3.org/2000/svg" xmlns:xlink="http://www.w3.org/1999/xlink" x="0px" y="0px"
	 viewBox="0 0 500 500" enable-background="new 0 0 500 500" xml:space="preserve" width="22px" height="22px">
<g>
	<path fill="#FFFFFF" d="M483.7,413.5l-85.2-86.7c-3-3-6.9-4.7-11-4.7c-5,0-9.6,2.4-12.6,6.6c-12.9,17.7-28.4,33.2-46.1,46.1
		c-3.8,2.8-6.2,6.9-6.5,11.4c-0.3,4.5,1.3,8.9,4.6,12.2l85.2,86.7c9.6,9.6,22.3,14.8,35.8,14.8c13.5,0,26.3-5.3,35.8-14.9
		C503.5,465.4,503.5,433.3,483.7,413.5z"/>
	<path fill="#FFFFFF" d="M201.1,402.1c110.9,0,201.1-90.2,201.1-201.1S311.9,0,201.1,0S0,90.2,0,201.1S90.2,402.1,201.1,402.1z
		 M201.1,60.3c77.6,0,140.7,63.1,140.7,140.7s-63.1,140.7-140.7,140.7S60.3,278.7,60.3,201.1S123.5,60.3,201.1,60.3z"/>
</g>
</svg>
