<?xml version="1.0" encoding="utf-8"?>
<!-- Generator: Adobe Illustrator 21.0.0, SVG Export Plug-In . SVG Version: 6.00 Build 0)  -->
<svg version="1.1" id="Capa_1" xmlns="http://www.w3.org/2000/svg" xmlns:xlink="http://www.w3.org/1999/xlink" x="0px" y="0px"
	 width="14.1px" height="13.1px" viewBox="0 0 14.1 13.1" style="enable-background:new 0 0 14.1 13.1;" xml:space="preserve">
<style type="text/css">
	.st0{fill:#FFFFFF;}
</style>
<path class="st0" d="M14.1,7.7c0-0.1-0.1-0.2-0.1-0.3L8.5,2.5C8.3,2.3,8,2.3,7.8,2.5S7.6,3,7.8,3.2l4.6,4.1H1V0.5C1,0.2,0.8,0,0.5,0
	S0,0.2,0,0.5v7.7h12.5l-4.6,4.1c-0.2,0.2-0.2,0.5,0,0.7c0.1,0.1,0.2,0.1,0.3,0.1c0.1,0,0.2-0.1,0.3-0.1l5.4-4.9c0,0,0,0,0,0L14,8
	C14,7.9,14.1,7.8,14.1,7.7z"/>
</svg>
