<?xml version="1.0" encoding="utf-8"?>
<!-- Generator: Adobe Illustrator 18.0.0, SVG Export Plug-In . SVG Version: 6.00 Build 0)  -->
<!DOCTYPE svg PUBLIC "-//W3C//DTD SVG 1.1//EN" "http://www.w3.org/Graphics/SVG/1.1/DTD/svg11.dtd">
<svg version="1.1" id="Layer_1" xmlns="http://www.w3.org/2000/svg" xmlns:xlink="http://www.w3.org/1999/xlink" x="0px" y="0px"
	 width="22px" height="22px" viewBox="0 0 22 22" enable-background="new 0 0 22 22" xml:space="preserve">
<g>
	<path fill="#FFFFFF" d="M17.4,16.6c-2.9-1.1-3.8-1.9-3.8-3.8c0-1.1,0.9-0.8,1.3-2.9c0.2-0.9,0.9,0,1.1-2c0-0.8-0.4-1-0.4-1
		s0.2-1.2,0.3-2.1c0.1-1.1-1-4-5-4s-5.1,2.9-5,4C6,5.7,6.2,6.9,6.2,6.9s-0.4,0.2-0.4,1c0.1,2,0.9,1.1,1.1,2c0.4,2.1,1.3,1.7,1.3,2.9
		c0,1.9-0.9,2.8-3.8,3.8S0,18.7,0,19.5C0,20.2,0,22,0,22h11h11c0,0,0-1.7,0-2.5C21.8,18.7,20.3,17.7,17.4,16.6z"/>
</g>
</svg>
