<?xml version="1.0" encoding="utf-8"?>
<!-- Generator: Adobe Illustrator 18.0.0, SVG Export Plug-In . SVG Version: 6.00 Build 0)  -->
<!DOCTYPE svg PUBLIC "-//W3C//DTD SVG 1.1//EN" "http://www.w3.org/Graphics/SVG/1.1/DTD/svg11.dtd">
<svg version="1.1" id="Layer_1" xmlns="http://www.w3.org/2000/svg" xmlns:xlink="http://www.w3.org/1999/xlink" x="0px" y="0px"
	 width="22px" height="22px" viewBox="0 0 22 22" enable-background="new 0 0 22 22" xml:space="preserve">
<path fill="#FFFFFF" d="M15.9,10.8c-3.1,0-5.6,2.5-5.6,5.6s2.5,5.6,5.6,5.6s5.6-2.5,5.6-5.6S19,10.8,15.9,10.8z M17.9,17.6
	c0.2,0.2,0.2,0.5,0,0.8c-0.1,0.1-0.3,0.2-0.4,0.2c-0.2,0-0.3-0.1-0.4-0.2l-1.3-1.3l-1.3,1.3c-0.1,0.1-0.3,0.2-0.4,0.2
	c-0.2,0-0.3-0.1-0.4-0.2c-0.2-0.2-0.2-0.5,0-0.8l1.3-1.3l-1.3-1.3c-0.2-0.2-0.2-0.5,0-0.8c0.1-0.1,0.3-0.2,0.4-0.2
	c0.1,0,0.3,0.1,0.4,0.2l1.3,1.3l1.3-1.3c0.1-0.1,0.3-0.2,0.4-0.2c0.2,0,0.3,0.1,0.4,0.2c0.2,0.2,0.2,0.5,0,0.8l-1.3,1.3L17.9,17.6z"
	/>
<g>
	<path fill="#FFFFFF" d="M8.5,16.4c0-3.3,2.2-6.1,5.1-7.1c0.1-0.3,0.3-0.6,0.4-1.1c0.2-0.8,0.8,0,1-1.8c0-0.7-0.4-0.9-0.4-0.9
		s0.2-1.1,0.3-1.9c0.1-1-0.9-3.6-4.5-3.6S5.7,2.6,5.8,3.6c0.1,0.8,0.3,1.9,0.3,1.9S5.7,5.7,5.7,6.4c0.1,1.8,0.8,1,1,1.8
		c0.4,1.9,1.2,1.5,1.2,2.6c0,1.7-0.8,2.5-3.4,3.4c-2.6,0.9-4,1.9-4,2.6c0,0.6,0,2.3,0,2.3h8.7C8.7,18.3,8.5,17.4,8.5,16.4z"/>
</g>
</svg>
