<svg id="Layer_1" data-name="Layer 1" xmlns="http://www.w3.org/2000/svg" viewBox="0 0 574.28 423.38">
  <defs>
    <style>
      .cls-1 {
        fill: none;
      }

      .cls-2 {
        fill: #fff;
      }
    </style>
  </defs>
  <title>CAW_LOGO_WHITE_MEMBER</title>
  <rect class="cls-1" width="574.28" height="423.38"/>
  <path class="cls-2" d="M501.8,375.07H154.42v-59.3H501.8v59.3ZM282.19,358.72V328h-2.33L269.4,351.68,258.68,328h-2.34v30.77h2.34V333.36l9.51,21h2.33l9.34-21v25.36h2.33Zm23.12-9.94v-1c0-6.35-3.16-10.16-8.34-10.16s-8.34,4-8.34,10.68c0,7,3.11,10.67,8.86,10.67a9.44,9.44,0,0,0,7.52-3.2l-1.64-1.29a7.25,7.25,0,0,1-5.75,2.5c-4.41,0-6.78-2.94-6.78-8.21h14.48Zm-2.2-1.77H290.84a9.61,9.61,0,0,1,.74-3.93,5.91,5.91,0,0,1,10.8,0A9.61,9.61,0,0,1,303.11,347ZM341,358.72V345.41a7.16,7.16,0,0,0-7.65-7.78,8,8,0,0,0-7.09,3.81,7.06,7.06,0,0,0-6.7-3.81,7.9,7.9,0,0,0-6.18,2.72v-2.46h-2.2v20.83h2.2V345.8c0-3.93,2.16-6.22,5.88-6.22s5.75,2.2,5.75,6.22v12.92h2.2V345.41a5.48,5.48,0,0,1,5.87-5.84c3.72,0,5.75,2.2,5.75,6.22v12.92H341Zm23-10.41c0-3.29-.56-6.74-2.68-8.86a7.27,7.27,0,0,0-5.1-1.82,6.91,6.91,0,0,0-6.18,2.94V328h-2.2v30.77H350V356a6.91,6.91,0,0,0,6.18,2.94,7.27,7.27,0,0,0,5.1-1.81C363.4,355,364,351.59,364,348.31Zm-2.2,0c0,4.32-.77,8.73-5.87,8.73s-5.88-4.41-5.88-8.73,0.78-8.73,5.88-8.73S361.75,344,361.75,348.31Zm23.56,0.47v-1c0-6.35-3.16-10.16-8.34-10.16s-8.34,4-8.34,10.68c0,7,3.11,10.67,8.86,10.67a9.44,9.44,0,0,0,7.52-3.2l-1.64-1.29a7.25,7.25,0,0,1-5.75,2.5c-4.41,0-6.78-2.94-6.78-8.21h14.48ZM383.1,347H370.83a9.61,9.61,0,0,1,.74-3.93,5.91,5.91,0,0,1,10.8,0A9.61,9.61,0,0,1,383.1,347Zm21.34-7.39a6.5,6.5,0,0,0-5-2,7.14,7.14,0,0,0-6.1,3v-2.77h-2.2v20.83h2.2V345.89c0-3.37,2-6.31,5.57-6.31a4.76,4.76,0,0,1,3.93,1.64Z" transform="translate(0 0)"/>
  <g>
    <g>
      <path class="cls-2" d="M172.86,189.23a19.06,19.06,0,0,1-13.42-5.17c-5-4.74-5-10.11-5-19.4s-0.07-14.65,5-19.41a19.09,19.09,0,0,1,13.42-5.16c9.4,0,16.43,5.22,18.23,14.86h-7.9c-1.22-4.88-4.67-8.27-10.33-8.27a10.52,10.52,0,0,0-7.53,2.92c-2.52,2.57-3.09,5.36-3.09,15.06s0.57,12.48,3.09,15.05a10.49,10.49,0,0,0,7.53,2.92c5.67,0,9.18-3.39,10.4-8.27h7.84C189.37,184,182.12,189.23,172.86,189.23Z" transform="translate(0 0)"/>
      <path class="cls-2" d="M217,188.82v-21.1c0-5.23-3.21-7.54-7.31-7.54s-7.4,2.38-7.4,7.54v21.1H195V140.51h7.31v17.37a12.84,12.84,0,0,1,9.4-3.87c8.11,0,12.63,5.17,12.63,12.62v22.19H217Z" transform="translate(0 0)"/>
      <path class="cls-2" d="M250.88,188.69v-3.12c-2.65,2.51-5.17,3.52-9.68,3.52s-7.55-1-9.77-3.12a10.19,10.19,0,0,1-2.88-7.39c0-5.78,4.24-9.91,12.58-9.91h9.62v-2.44c0-4.35-2.31-6.44-8-6.44-4,0-6,.88-8,3.32l-4.8-4.26c3.44-3.81,7-5,13.06-5,10,0,15,4,15,11.81v23h-7.17Zm-0.13-15.19H242.2c-4.29,0-6.52,1.84-6.52,4.95s2.07,4.88,6.68,4.88c2.78,0,4.86-.2,6.8-2,1.08-1,1.59-2.64,1.59-5.08V173.5Z" transform="translate(0 0)"/>
      <path class="cls-2" d="M282.7,162.49a6.89,6.89,0,0,0-5.46-2.3c-3.94,0-7.25,3-7.25,7.74v20.9h-7.32v-34.4h7.17v3.73c1.87-2.44,5.6-4.14,9.7-4.14a11.59,11.59,0,0,1,8.67,3.26Z" transform="translate(0 0)"/>
      <path class="cls-2" d="M305.67,188.82c-6.82,0-10-4.62-10-9.57V160.33h-4.17V155h4.17V144.59H303V155h7v5.29h-7v18.59c0,2.51,1.29,4,4,4h3v5.91h-4.37Z" transform="translate(0 0)"/>
      <path class="cls-2" d="M320.93,173.63c0,5.9,3.31,9.63,9.26,9.63a11.18,11.18,0,0,0,8.84-3.54l4.66,4.14c-3.74,3.53-7.24,5.37-13.64,5.37-9.12,0-16.37-4.55-16.37-17.64,0-11.14,6.12-17.58,15.44-17.58,9.75,0,15.42,6.79,15.42,16.56v3.05H320.93Zm15.37-9.51a8.15,8.15,0,0,0-14.41,0,10.33,10.33,0,0,0-1,4.69H337.3A10.52,10.52,0,0,0,336.3,164.12Z" transform="translate(0 0)"/>
      <path class="cls-2" d="M368.85,162.49a6.94,6.94,0,0,0-5.46-2.3c-3.94,0-7.24,3-7.24,7.74v20.9h-7.32v-34.4H356v3.73c1.87-2.44,5.6-4.14,9.68-4.14a11.59,11.59,0,0,1,8.68,3.26Z" transform="translate(0 0)"/>
      <path class="cls-2" d="M381.33,173.63c0,5.9,3.3,9.63,9.26,9.63a11.15,11.15,0,0,0,8.82-3.54l4.67,4.14c-3.74,3.53-7.25,5.37-13.63,5.37-9.12,0-16.36-4.55-16.36-17.64,0-11.14,6.09-17.58,15.43-17.58,9.75,0,15.42,6.79,15.42,16.56v3.05H381.33Zm15.37-9.51a7.55,7.55,0,0,0-7.18-4.34,7.64,7.64,0,0,0-7.25,4.34,10.55,10.55,0,0,0-.94,4.69h16.36A10.47,10.47,0,0,0,396.69,164.12Z" transform="translate(0 0)"/>
      <path class="cls-2" d="M431.6,188.82v-3.67c-2.73,3.12-5.68,4.08-9.61,4.08a13.08,13.08,0,0,1-8.91-3.06c-3.65-3.45-4.08-9.35-4.08-14.57s0.43-11.07,4.08-14.53a12.84,12.84,0,0,1,8.83-3.05c3.87,0,6.88.88,9.55,3.87V140.51h7.31v48.31H431.6Zm-7.68-28.64c-6.6,0-7.6,5.29-7.6,11.41s1,11.46,7.6,11.46,7.54-5.36,7.54-11.46S430.51,160.19,423.91,160.19Z" transform="translate(0 0)"/>
      <path class="cls-2" d="M189.93,242.55l-3.52-9.7H166.25l-3.51,9.7h-8.25l18.73-48.3h6.24l18.73,48.3h-8.25Zm-13.42-37.38-8,21.43h15.73Z" transform="translate(0 0)"/>
      <path class="cls-2" d="M214.48,242.95c-8.18,0-16.22-4.74-16.22-17.63s8-17.57,16.22-17.57c5,0,8.54,1.36,12,4.82l-5,4.62c-2.3-2.38-4.09-3.26-6.95-3.26a8.38,8.38,0,0,0-6.74,3c-1.59,1.91-2.17,4.35-2.17,8.35s0.57,6.52,2.17,8.42a8.37,8.37,0,0,0,6.74,3c2.86,0,4.65-.88,6.95-3.25l5,4.54A15.35,15.35,0,0,1,214.48,242.95Z" transform="translate(0 0)"/>
      <path class="cls-2" d="M243.93,242.95c-8.17,0-16.22-4.74-16.22-17.63s8-17.57,16.22-17.57c5,0,8.54,1.36,12,4.82l-5,4.62c-2.3-2.38-4.09-3.26-7-3.26a8.42,8.42,0,0,0-6.75,3c-1.57,1.91-2.15,4.35-2.15,8.35s0.58,6.52,2.15,8.42a8.41,8.41,0,0,0,6.75,3c2.88,0,4.67-.88,7-3.25l5,4.54A15.34,15.34,0,0,1,243.93,242.95Z" transform="translate(0 0)"/>
      <path class="cls-2" d="M283.83,238.89a15.19,15.19,0,0,1-10.91,4.06,15,15,0,0,1-10.83-4.06c-3.45-3.39-4.31-7.73-4.31-13.57s0.87-10.1,4.31-13.5a15,15,0,0,1,10.83-4.07,15.2,15.2,0,0,1,10.91,4.07c3.44,3.4,4.3,7.73,4.3,13.5S287.27,235.5,283.83,238.89Zm-5.53-23a7.65,7.65,0,0,0-5.38-2,7.54,7.54,0,0,0-5.32,2c-2.22,2.11-2.51,5.71-2.51,9.43s0.29,7.32,2.51,9.43a7.52,7.52,0,0,0,5.32,2,7.63,7.63,0,0,0,5.38-2c2.22-2.11,2.51-5.71,2.51-9.43S280.52,218,278.3,215.88Z" transform="translate(0 0)"/>
      <path class="cls-2" d="M315,242.55v-3.46a13.38,13.38,0,0,1-9.69,3.86,13,13,0,0,1-9-3.11c-2.8-2.59-3.66-5.83-3.66-9.7v-22H300v21c0,5.36,3.23,7.67,7.33,7.67s7.53-2.37,7.53-7.67v-21h7.31v34.39H315Z" transform="translate(0 0)"/>
      <path class="cls-2" d="M348.93,242.55v-21c0-5.37-3.23-7.67-7.33-7.67s-7.52,2.37-7.52,7.67v21h-7.31V208.16h7.17v3.46a13.41,13.41,0,0,1,9.69-3.87,13,13,0,0,1,9,3.12c2.8,2.57,3.67,5.83,3.67,9.71v22h-7.33Z" transform="translate(0 0)"/>
      <path class="cls-2" d="M373.44,242.55c-6.81,0-10-4.61-10-9.57V214h-4.17v-5.28h4.17V198.31h7.31v10.45h7V214h-7v18.59c0,2.52,1.3,4,4,4h3v5.9h-4.37Z" transform="translate(0 0)"/>
      <path class="cls-2" d="M404.3,242.55v-3.12c-2.65,2.51-5.18,3.52-9.68,3.52s-7.55-1-9.77-3.11a10.23,10.23,0,0,1-2.85-7.39c0-5.77,4.22-9.91,12.53-9.91h9.63v-2.44c0-4.34-2.29-6.44-8-6.44-4,0-6,.88-8,3.32l-4.81-4.27c3.44-3.8,7-5,13.06-5,10,0,15,4,15,11.8v23H404.3Zm-0.15-15.2h-8.53c-4.29,0-6.53,1.84-6.53,5s2.08,4.88,6.68,4.88c2.78,0,4.86-.21,6.8-2,1.08-1,1.58-2.65,1.58-5.08v-2.79Z" transform="translate(0 0)"/>
      <path class="cls-2" d="M438.24,242.55v-21c0-5.37-3.22-7.67-7.32-7.67s-7.53,2.37-7.53,7.67v21h-7.32V208.16h7.18v3.46a13.43,13.43,0,0,1,9.68-3.87,13,13,0,0,1,9,3.12c2.8,2.57,3.67,5.83,3.67,9.71v22h-7.32Z" transform="translate(0 0)"/>
      <path class="cls-2" d="M463.14,242.55c-6.82,0-10-4.61-10-9.57V214H449v-5.28h4.18V198.31h7.32v10.45h7V214h-7v18.59c0,2.52,1.28,4,4,4h3v5.9h-4.37Z" transform="translate(0 0)"/>
      <path class="cls-2" d="M486.66,242.95c-6,0-11-.95-15.29-4.94l4.81-4.56c2.95,2.85,6.88,3.6,10.47,3.6,4.44,0,8-1.49,8-4.75,0-2.31-1.38-3.8-4.88-4.07l-5.81-.47c-6.82-.55-10.77-3.46-10.77-9.5,0-6.72,6.1-10.52,13.7-10.52,5.45,0,10.11,1.08,13.49,3.87L495.78,216c-2.3-1.83-5.52-2.5-9-2.5-4.38,0-6.61,1.83-6.61,4.4,0,2,1.15,3.6,5,3.94l5.74,0.47c6.81,0.54,10.84,3.6,10.84,9.71C501.81,239.23,495.35,242.95,486.66,242.95Z" transform="translate(0 0)"/>
      <path class="cls-2" d="M237.22,296.43h-4.8L221.74,257.9l-10.68,38.53h-4.8L194,248.3h5.47l9.4,38.81,10.61-38.81H224l10.61,38.81L244,248.3h5.48Z" transform="translate(0 0)"/>
      <path class="cls-2" d="M274.65,293.05a13.89,13.89,0,0,1-19.06,0c-3.38-3.45-4.06-8.11-4.06-13.25s0.68-9.8,4.06-13.25a13.9,13.9,0,0,1,19.06,0c3.38,3.45,4.05,8.12,4.05,13.25S278,289.61,274.65,293.05Zm-3.45-23.53a8.51,8.51,0,0,0-6.08-2.43,8.37,8.37,0,0,0-6,2.43c-2.43,2.43-2.7,6.56-2.7,10.28s0.27,7.84,2.7,10.27a8.39,8.39,0,0,0,6,2.43,8.53,8.53,0,0,0,6.08-2.43c2.44-2.43,2.64-6.56,2.64-10.27S273.64,272,271.2,269.53Z" transform="translate(0 0)"/>
      <path class="cls-2" d="M301.77,269.53A7,7,0,0,0,296,267.1c-4.87,0-8,3.85-8,8.92v20.41h-4.87V263.17H288v4.06c1.82-2.77,5.48-4.46,9.33-4.46a10.25,10.25,0,0,1,8,3.11Z" transform="translate(0 0)"/>
      <path class="cls-2" d="M318.25,296.43c-5.81,0-8.44-3.78-8.44-8.85V248.3h4.86v39.07c0,3.24,1.08,4.87,4.46,4.87h2.63v4.19h-3.52Z" transform="translate(0 0)"/>
      <path class="cls-2" d="M345.88,296.43v-4c-2.7,3.52-5.81,4.4-9.46,4.4a11.57,11.57,0,0,1-8.11-2.91c-3.38-3.38-4.06-8.92-4.06-14.12s0.68-10.75,4.06-14.13a11.58,11.58,0,0,1,8.11-2.91c3.65,0,6.69.81,9.39,4.26V248.3h4.87v48.13h-4.8ZM337.5,267.1c-7.23,0-8.38,6.22-8.38,12.7s1.15,12.71,8.38,12.71,8.31-6.22,8.31-12.71S344.73,267.1,337.5,267.1Z" transform="translate(0 0)"/>
      <path class="cls-2" d="M393.53,296.43H389l-8.71-25.82-8.65,25.82H367.1l-10.54-33.26h5.27l7.64,26.71,8.72-26.71h4.19l8.79,26.71,7.56-26.71H404Z" transform="translate(0 0)"/>
      <path class="cls-2" d="M409,253.71v-5.48h5.48v5.48H409Zm0.28,42.72V263.17h4.87v33.26h-4.87Z" transform="translate(0 0)"/>
      <path class="cls-2" d="M440.76,296.43v-4c-2.7,3.52-5.81,4.4-9.46,4.4a11.57,11.57,0,0,1-8.11-2.91c-3.38-3.38-4.05-8.92-4.05-14.12s0.67-10.75,4.05-14.13a11.58,11.58,0,0,1,8.11-2.91c3.65,0,6.69.81,9.4,4.26V248.3h4.86v48.13h-4.8Zm-8.37-29.33c-7.24,0-8.38,6.22-8.38,12.7s1.15,12.71,8.38,12.71,8.31-6.22,8.31-12.71S439.62,267.1,432.39,267.1Z" transform="translate(0 0)"/>
      <path class="cls-2" d="M454.64,281.09c0,7.3,3.45,11.48,9.8,11.48,3.85,0,6.08-1.15,8.72-3.78l3.31,2.9c-3.38,3.38-6.49,5.14-12.17,5.14-8.78,0-14.53-5.28-14.53-17,0-10.75,5.2-17,13.65-17s13.66,6.22,13.66,16.09v2.24H454.64Zm16.56-9.19a8.54,8.54,0,0,0-15.55,0,14,14,0,0,0-1,5.54h17.58A13.92,13.92,0,0,0,471.2,271.9Z" transform="translate(0 0)"/>
      <path class="cls-2" d="M153.6,25h0Z" transform="translate(0 0)"/>
    </g>
    <path class="cls-2" d="M124.53,137.59A228.92,228.92,0,0,0,86.1,151.48c-22,10.14-35.52,23.55-35.89,30.65,0.84,8.45,28.46,43.2,74.32,60.1V137.59Z" transform="translate(0 0)"/>
    <path class="cls-2" d="M151.8,25C90,37.11,50.14,75,50.14,85.58l0,83.13c5.91-8.37,18.69-17.91,34.42-25.17a230.42,230.42,0,0,1,41.31-14.68,180.21,180.21,0,0,1,25.77-4.45Z" transform="translate(0 0)"/>
  </g>
</svg>
