<?xml version="1.0" encoding="utf-8"?>
<!-- Generator: Adobe Illustrator 18.1.1, SVG Export Plug-In . SVG Version: 6.00 Build 0)  -->
<svg version="1.1" id="Layer_1" xmlns="http://www.w3.org/2000/svg" xmlns:xlink="http://www.w3.org/1999/xlink" x="0px" y="0px"
	 viewBox="-245 377 120 40" enable-background="new -245 377 120 40" xml:space="preserve">
<g>
	<g>
		<g>
			<path d="M-188.4,386.2h6c0,0,6-0.1,5.9,5.3c-0.1,4-5.8,4.6-5.8,4.6h-6.1L-188.4,386.2L-188.4,386.2z M-170.4,405.7
				c0.2,0.8,0.7,1.6,2.6,1.7c2.5,0.1,4-0.9,4-0.9v1.9c0,0-2.8,0.7-4.1,0.7c-1.4,0-5.5-0.3-5.5-4.1c0-3,3.4-4,5.3-4
				c3.4,0.1,5,1.3,5,4.8C-163.1,405.7-168.7,405.7-170.4,405.7L-170.4,405.7z M-170.4,404.1h4.6c0,0,0-1.7-2.3-1.7
				C-169.7,402.4-170.3,403.4-170.4,404.1L-170.4,404.1z M-155.8,402.3c0.7-0.7,1.8-1.3,3.7-1.3c3.8,0,4.4,3.1,4.3,4
				c-0.1,0.9-0.3,4-4.7,4c-1.6,0-2.6-0.5-3.3-1.3v1h-3v-10.9h3L-155.8,402.3L-155.8,402.3z M-153.3,407.3c1.7-0.1,2.5-1.6,2.5-2.3
				s-0.4-2.3-2.6-2.3c-1.7,0-2.3,1.3-2.4,1.9v0.8C-155.6,406.2-155.1,407.3-153.3,407.3L-153.3,407.3z M-127.7,407l0.1,1.7
				c0,0-1.4,0.3-2.3,0.3s-3.3-0.5-3.3-2.8c0-0.9,0-2.3,0-3.5h-2.4v-1.6h2.4c0-1.1,0-1.9,0-1.9h3v1.9h2.5v1.6h-2.4v3
				c0,0,0,1.5,1.2,1.5C-127.8,407.3-127.7,407-127.7,407L-127.7,407z M-136.9,387.8h3.5v8.4h3v-8.4h3.6v-1.7h-10L-136.9,387.8
				L-136.9,387.8z M-138.1,388.3l0.3-1.7c0,0-1.5-0.7-4.2-0.7c-2.6,0-6.7,1.5-6.7,5.4c0,3.8,4.4,5.2,7.1,5.2c2.7,0,3.6-0.4,3.6-0.4
				l-0.3-1.9c0,0-1.2,0.3-3.3,0.3c-2-0.1-4-1.6-4-3.4c0.1-1.6,1.9-3.3,4.2-3.3C-139.5,387.7-138.1,388.3-138.1,388.3L-138.1,388.3z
				 M-164.8,386.1c0,0,5-0.3,5,2.6c0,2.4-2.8,2.6-2.8,2.6s0.8,0.1,1.1,0.7c0.3,0.5,2.3,4.1,2.3,4.1h-3c0,0-0.5-0.6-0.7-1
				c-0.2-0.4-0.7-1.3-0.7-1.3s-0.4-1.5-1.9-1.5c-0.1,0-0.6,0-1.1-0.1v3.9h-2.9v-10.1H-164.8L-164.8,386.1z M-166.6,390.6h1.6
				c0,0,2.2-0.1,2.3-1.5c0.1-1.3-2.1-1.5-2.1-1.5h-1.7L-166.6,390.6L-166.6,390.6z M-154.5,392.2h4.8v-1.9h-4.8v-2.3h5.2v-1.9h-8.2
				v10h8.3v-1.8h-5.3L-154.5,392.2L-154.5,392.2z M-142.7,400h3v-2h-3V400L-142.7,400z M-142.7,408.8h3v-7.7h-3V408.8L-142.7,408.8z
				 M-175,396.2h2.9v-10.1h-2.9V396.2L-175,396.2z M-188.4,398.7h6c0,0,6-0.1,5.9,5.3c-0.1,4-5.8,4.6-5.8,4.6h-6.1L-188.4,398.7
				L-188.4,398.7z M-185.5,406.8h1.9c0,0,4-0.3,4-3.3s-4.2-3.4-4.2-3.4h-1.7L-185.5,406.8L-185.5,406.8z M-185.5,394.3h1.9
				c0,0,4-0.3,4-3.3c0-3.1-4.2-3.4-4.2-3.4h-1.7L-185.5,394.3L-185.5,394.3z"/>
			<path d="M-215.5,392.2v20.2c0,0-11.7-2.1-11.7-10.1C-227.2,395.9-218.5,393-215.5,392.2L-215.5,392.2z M-215.5,391.8
				c-7-0.5-23,2.8-23,10c0,4.7,8.5,11.6,22.1,11.8c0.5,0,16.1-0.6,15.9-17.4c-0.2-14.1-10.7-16.5-14.1-17v-0.8
				c13.4,0.9,24,8.9,24,18.7c0,10.4-11.8,18.8-26.3,18.8c-14.5,0-26.3-8.5-26.3-18.8c0-10.3,11.8-18.8,26.3-18.8c0.5,0,0.9,0,1.3,0
				L-215.5,391.8L-215.5,391.8z"/>
		</g>
	</g>
</g>
</svg>
