<?xml version="1.0" encoding="utf-8"?>
<!-- Generator: Adobe Illustrator 18.0.0, SVG Export Plug-In . SVG Version: 6.00 Build 0)  -->
<!DOCTYPE svg PUBLIC "-//W3C//DTD SVG 1.1//EN" "http://www.w3.org/Graphics/SVG/1.1/DTD/svg11.dtd">
<svg version="1.1" id="Layer_1" xmlns="http://www.w3.org/2000/svg" xmlns:xlink="http://www.w3.org/1999/xlink" x="0px" y="0px"
	 viewBox="0 369.2 595.3 103.6" enable-background="new 0 369.2 595.3 103.6" xml:space="preserve" width="272px" height="48px">
<g>
	<path fill="#CA2027" d="M498,417.8c0,0-2,3.1-2,3.2l1.5,3.9c0,0,1.7-3,2-3.3L498,417.8z"/>
	<path fill="#CA2027" d="M589.4,465.7c-2.4-1-3.9-3-3.9-11.8v-36.1c0-9-2.5-21.3-27.7-21.3c-20.4,0-31.4,9.8-31.4,17.7
		c0,0.1,0,0.1,0,0.2l-1.3-0.8c-2.4-1.7-2.1-5.5-2.1-5.5s0.6-5.7,0.8-9.5c0.2-2.9-1.1-4.6-2.5-4.9c-7.1-1.1-6.9-6.4-6.9-6.5
		c0-0.1-0.1-1.7,1.2-3.1c1.5-1.7,3.1-3.2,3.3-5.8c0.1-1-0.6-1.8-0.6-2.7c-0.1-1.5,0.6-2.5-0.1-3.8c-1-1.5-3-2.4-3.5-2.5
		c-0.4-0.1-1.3,0-1.7,0c-0.2,0-0.5-0.1-1.2-0.1c-0.6,0-1.9,0.4-2.3,0.8c-0.2,0.2-0.4,0.5-1.9,1.2c-2.7,1.2-2.7,4-2.7,4
		c0,2.3,1.1,3.2,1.5,3.1c0.5,0,0.5-0.7,0.5-1.7s1-1.5,2.4-1.5c1.3,0,3.3,1,3.3,2.7c0,2-1.3,2.1-2.3,3.7c-0.8,1.5,1.8,5.8,1.8,7.4
		s-0.8,1.8-1.3,2.1c-1.2,0.8-1.2,1.4-0.7,1.8c3.8,2.7,4,4,4,4.8c0,1.7-2.1,2.5-4,2.5c-5.1,0-6.1-3.5-6.1-4.6c0-1.1,0.2-1.8,1-2.4
		c0.1-0.1,0.4-0.4,0.1-0.6c-0.2-0.2-0.8,0-1.4,0.6c-2.5,2-2.5,5.1-3.2,7.5c-0.7,2-1.4,4.3-2.6,6.5c-1.2,2.3-2.7,2.4-3.5,2.4
		c-0.7,0-7.1-1.8-8-2c-0.8-0.2-1.2-1.7-1.2-1.7s-0.7-4.2-0.8-4.4c-0.1-0.2-1.1-1.4-1.1-1.4s-0.2-0.4-0.7-0.2
		c-0.7,0.1-0.6,1.1-0.6,1.1l1,4.6h-0.5c-0.5,0-1.2,0.5-1.1,1.4c0.2,2.9,1.5,2.9,1.8,2.9c0.4,0,0.7,0.1,0.7,0.1s8.5,37,8.6,37.3
		c0,0.1,0.1,0.2,0.2,0.2c0.1,0,0.1-0.1,0.1-0.2c-2.7-16.3-3.5-20.5-6.8-36.6c0,0,6.4,3.5,9.9,3.5c1.4,0,2.3-1.3,2.3-1.3l2.7-4.4
		c0,0,0.5-1,1.5-1.1c1.2-0.1,2.3,2.1,2.3,3c0,0.8-1,1.9-0.2,2.4c1,0.6,4.4-1.9,5.1-2.3c0.7-0.5,2.1-0.5,2.4,0.5
		c0.2,0.7-1.1,1.3-1.7,1.7c-6.4,3.7-8,8.2-8,8.2l3.6,10.1c0,0,0.5-0.7,1.1-1.3c0.5-0.5,0.8-0.4,1-0.4c0.6,0.2,2.9,6.7,2.9,7.3
		s-0.8,1.3-0.8,1.3l-2-5.8l-1.1,1.2l2.5,7c0,0,0.5-0.7,1.1-1.2c0.5-0.5,0.7-0.4,0.8-0.4c0.7,0.2,2.9,6.7,2.9,7.3s-0.8,1.3-0.8,1.3
		l-2-5.8l-1.1,1.2l7.7,22c0,0,2.4-15.2,2.4-28.7c0-13.3-2.9-19.9-3.1-21.8c-0.2-2,0.1-3.7,1.4-3.7c0.5,0,1.1,0.6,1.1,1.4
		c0,0.2,0,1,0,1.2c0,0.2,0.1,1.3,1,1.8c6.1,4.3,9.4,6,11.2,6.5c0.7,0.2,1.4,0.5,2.1,0.7l0,0c0,0.1,0,0.1-0.1,0.2
		c-0.5,0.4-0.7,1-0.8,1.5c-0.1,1.2,0.7,2.1,1.8,2.1c1.1,0.1,1.9-0.8,2-1.9c0-0.6-0.1-1.3-0.5-1.5v-0.1l0,0c3.1,0,5-1.3,5.8-4.5
		c2.6-13.9,7.4-17.9,13.5-17.9c6.3,0,10.4,4.5,10.4,14.3v9c-3.6,3.8-16.4,7.4-27.1,10.2c-11.8,3.3-15,9.4-15,17.4
		c0,11.2,6.5,21.5,21.3,21.5c9.4,0,16-6.3,21.2-9.5c1.3,5.5,3.9,9.5,11.3,9.5c7.4,0,12.9-1.5,17.4-4.3v-2.1
		C593.4,466.3,591.1,466.3,589.4,465.7z M535,425c-0.4,0-0.6-0.4-0.6-0.8s0.4-0.7,0.7-0.7s0.6,0.4,0.6,0.8S535.4,425,535,425z
		 M566.2,453.6c0,8.8-6.1,11-9.9,11c-7.7,0-11.9-7.7-11.9-16.7c0-7,2-10.8,7.5-13.3c4.9-2.6,10.8-5.2,14.3-6.9V453.6z M498.8,470.7
		H498h-7.7v-3.5c10.4,0,19.3-7.4,14.5-22.9c-0.5-1.3-1.2-3.1-1.9-5.1c-2.1-5.6-4.8-12.4-4.8-12.4c0.4-0.6,2-3.3,2-3.3l11.3,29.6
		C511.1,458.4,506.7,468.8,498.8,470.7z M514.7,461.8c-0.5,2.9-2.4,6.2-5,8.9h-0.6H504h-1.5c5.4-3.1,8.9-10,9.9-15.2l0,0l0.7,2
		L514.7,461.8z M516.1,465.4l2,5.2l-0.1,0.1h-6.3c1.8-2.1,3.1-4.6,3.8-7L516.1,465.4z M536.5,422.5L536.5,422.5
		c-0.7,0-1.5,0-2.4-0.2l-0.2-1.8l-0.2-2.4l-1-10.8v-2.9c0,0,0-0.1,0.1-0.1c0,0,0.1,0,0.1,0.1l0.7,2.7l1.1,11.2l0.2,2.3l0.1,1.3
		c0,0.1,0,0.1,0.1,0.1h0.2c0.1,0,0.2,0,0.2,0c0.1,0,0.1,0,0.1-0.1l5.6-13.1l1.4-2.5c0,0,0.1-0.1,0.1,0v0.1l-0.8,2.7L536.5,422.5z"/>
	<path fill="#CA2027" d="M20.8,432c-0.1,16.9,4.5,31.9,20.1,31.9c10.8,0,16.9-4.9,21.7-15.2l2.6,1.3c-4.8,13.2-13.5,22.7-30.7,22.7
		C7.9,472.6,0,455.8,0,434.6c0-20.8,9.3-38.2,35-38.2c28.1,0,31,19.6,31,30c0,4-2.1,5.5-7.5,5.5H20.8V432z M41,428.1
		c3.8,0,4.9-1.4,4.9-5.5c0-9.5-1.5-22.3-11.8-22.3c-10.8,0-13.2,16.8-13.2,27.7H41z"/>
	<path fill="#CA2027" d="M134.3,449.5c-4.5,16.9-17.5,23-31.1,23c-21.3,0-33.8-12.5-33.8-37.3c0-23,12.1-38.8,36.8-38.8
		c14.2,0,26.9,6.3,26.9,15.8c0,6.3-6.4,8.8-11.2,8.8c-3.6,0-6-1.4-6.5-4.8c-1.8-9.9-3.8-16.1-11.2-16.1c-7.7,0-13.8,10.5-13.8,31
		c0,21.7,8.3,32.6,19.6,32.6c8.5,0,16.7-3,22-15.4L134.3,449.5z"/>
	<path fill="#CA2027" d="M173.7,396.5c26.1,0,36.6,14.4,36.6,38.2c0,23.7-10.5,38-36.8,38c-26.1,0-36.9-14.3-36.9-38
		c0-23.7,10.8-38.2,36.9-38.2C173.5,396.5,173.7,396.5,173.7,396.5z M157.7,434.9c0,20,4.9,34.3,15.8,34.3
		c11.2,0,15.7-14.3,15.7-34.4c0-20.2-4.6-34.5-15.7-34.5c-11,0-15.8,14.3-15.8,34.4V434.9z"/>
	<path fill="#CA2027" d="M283.4,460.1c0,6.8,0.6,6.5,9.3,7.3v3.5h-37.5v-3.5c6.3-0.5,8.5-0.4,8.5-7v-41.1c0-9.8-4.4-14.8-12.4-14.8
		c-6.5,0-11.3,3.6-13.3,7.5c-1,2-1.4,5.4-1.4,8.7v39.5c0,6.8,2.1,6.4,8.3,7v3.5h-37.4v-3.5c8.7-0.5,9.3-1.1,9.3-7.9v-47
		c0-6.1-1-7.4-3.8-7.7l-4.8-0.8v-3l26.2-4.3l2,10.5c9.5-5.8,16.3-10.7,25.2-10.7c14.9,0,21.7,9,21.7,23.2v40.6H283.4z"/>
	<path fill="#CA2027" d="M326.3,396.5c26.1,0,36.6,14.4,36.6,38.2c0,23.7-10.5,38-36.8,38c-26.1,0-36.9-14.3-36.9-38
		c0-23.7,10.8-38.2,36.9-38.2C326.1,396.5,326.3,396.5,326.3,396.5z M310.4,434.9c0,20,4.9,34.3,15.8,34.3
		c11.2,0,15.7-14.3,15.7-34.4c0-20.2-4.5-34.5-15.7-34.5c-11,0-15.8,14.3-15.8,34.4V434.9z"/>
	<path fill="#CA2027" d="M369.3,412.4c0-6.1-1-7.4-3.8-7.7l-4.5-0.8v-3l26.1-4.3l2,10.4c8.3-5.4,14.9-10.5,24.8-10.5
		c10.8,0,16.5,5.8,19.5,11.7c6.8-4.4,15.4-11.7,26-11.7c15.1,0,21.8,8.8,21.8,23.1v39.9c0,6.5,0.6,7.3,9.3,7.9v3.5h-37.5v-3.5
		c6.3-0.5,8.6-0.4,8.6-7v-40.8c0-9.9-5.2-14.9-12.7-14.9c-5.5,0.1-10.7,2.9-12.6,9.2c-1,2-1.3,4.4-1.3,7.9v38.8c0,6.8,2.4,6.4,8.7,7
		v3.5h-36.8v-3.5c6.3-0.5,8.5-0.4,8.5-7v-41c0-9.3-4-14.9-11.8-14.9c-6.4,0-11.9,3-13.7,9.8c-0.6,2-0.8,4.5-0.8,7.3v38.8
		c0,6.5,2.1,6.4,8.5,7v3.5h-37.5v-3.5c8.9-0.5,9.3-1.3,9.3-7.9v-47.1H369.3z"/>
</g>
</svg>
