<?xml version="1.0" encoding="utf-8"?>
<!-- Generator: Adobe Illustrator 17.1.0, SVG Export Plug-In . SVG Version: 6.00 Build 0)  -->
<!DOCTYPE svg PUBLIC "-//W3C//DTD SVG 1.1//EN" "http://www.w3.org/Graphics/SVG/1.1/DTD/svg11.dtd">
<svg version="1.1" id="Layer_1" xmlns="http://www.w3.org/2000/svg" xmlns:xlink="http://www.w3.org/1999/xlink" x="0px" y="0px"
	 viewBox="0 0 500 166" enable-background="new 0 0 500 166" xml:space="preserve" width="80px" height="52px">
<g>
	<defs>
		<path id="SVGID_1_" d="M393.3,0.4V166c110.4,0.1,106.6-78.4,106.6-94.3V0.4H393.3z M20.2,0.4C9,0.4,0,9.4,0,20.5V166h387.8
			l0-165.7L20.2,0.4z"/>
	</defs>
	<clipPath id="SVGID_2_">
		<use xlink:href="#SVGID_1_"  overflow="visible"/>
	</clipPath>
	
		<linearGradient id="SVGID_3_" gradientUnits="userSpaceOnUse" x1="-175.5121" y1="547.2578" x2="-170.8982" y2="547.2578" gradientTransform="matrix(89.6129 51.7381 51.7381 -89.6129 -12552.4385 58079.168)">
		<stop  offset="0" style="stop-color:#871913"/>
		<stop  offset="0.1912" style="stop-color:#921813"/>
		<stop  offset="0.5229" style="stop-color:#AE1714"/>
		<stop  offset="0.953" style="stop-color:#DC1416"/>
		<stop  offset="1" style="stop-color:#E11416"/>
	</linearGradient>
	<polygon clip-path="url(#SVGID_2_)" fill="url(#SVGID_3_)" points="125.9,-217.7 575.4,41.8 377.7,384.1 -71.7,124.6 	"/>
</g>
<rect x="38.8" y="47.9" fill="#FFFFFF" width="14.8" height="70.3"/>
<g>
	<defs>
		<rect id="SVGID_4_" x="-62.3" y="-62" width="614.7" height="323"/>
	</defs>
	<clipPath id="SVGID_5_">
		<use xlink:href="#SVGID_4_"  overflow="visible"/>
	</clipPath>
	<path clip-path="url(#SVGID_5_)" fill="#FFFFFF" d="M127.2,114.4c-5,2.6-11.8,5.1-25.1,5.1c-20.9,0-37.1-14.9-37.1-36.5
		c0-21.5,16.2-36.6,37.1-36.6c14.6,0,21.4,3.4,24.4,5.1l-4.2,10.1c-2.8-1.4-8.4-4-18.6-4c-11.3,0-23,10.2-23,25.3
		c0,14.5,11.7,25.2,23,25.2c10,0,15.3-2.3,19.1-3.9L127.2,114.4z"/>
	<path clip-path="url(#SVGID_5_)" fill="#FFFFFF" d="M185.5,118.2l-5.4-15.8h-24.8l-5.9,15.8h-13.4l28.7-70.5H175l25.9,70.5H185.5z
		 M168.6,67L159,92.6h18L168.6,67z"/>
	<polygon clip-path="url(#SVGID_5_)" fill="#FFFFFF" points="256.9,118.2 211.6,118.2 211.6,47.9 255.6,47.9 255.6,58.9 226.5,58.9 
		226.5,76.6 247.8,76.6 247.8,87.6 226.5,87.6 226.5,107.3 256.9,107.3 	"/>
	<polygon clip-path="url(#SVGID_5_)" fill="#FFFFFF" points="329.5,118.9 320.3,118.9 308.8,83.6 296,118.9 286.8,118.9 263.7,47.9 
		278.5,47.9 293.7,96 303.8,68.2 297.2,47.9 312.1,47.9 326.5,94.5 342.4,47.9 355.4,47.9 	"/>
	<path clip-path="url(#SVGID_5_)" fill="#FFFFFF" d="M425.8,75.5c0,0-2.6,4-2.7,4.2l2,5.2c0,0,2.2-3.8,2.6-4.3L425.8,75.5z"/>
	<path clip-path="url(#SVGID_5_)" fill="#FFFFFF" d="M474.6,81.9l0.2,2.5c0,0.1,0.1,0.3,0.3,0.2h0.3c0.2,0,0.3,0,0.5,0.1
		c0.2,0,0.2-0.1,0.3-0.2l10.5-24.7l2.6-4.6c0-0.1,0.1-0.1,0.2-0.1c0.1,0,0.1,0.1,0.1,0.2l-1.5,5.1l-10.3,25c0,0.1-0.1,0.3,0,0.4
		c0.7,0.5,1,1.8,0.9,3c-0.1,2.1-1.9,3.8-3.8,3.6c-2-0.1-3.4-2-3.3-4.1c0.1-1.2,0.6-2.3,1.5-2.9c0.2-0.1,0.1-0.2,0.1-0.4l-0.3-3.4
		c0,0-4.4-1.3-17.3-9.8c-1.1-0.7-1.2-2-1.2-2.4c0-0.4,0-1.3,0-1.6c0-1.1-0.7-1.8-1.4-1.8c-1.7,0-2.2,2.3-1.9,4.9
		c0.3,2.6,4.1,11.1,4.1,28.7c-0.1,17.6-3.1,37.7-3.1,37.7l-10.2-29l1.4-1.6l2.7,7.7c0,0,1.2-0.9,1.2-1.7c-0.1-0.8-2.9-9.2-3.8-9.5
		c-0.1-0.1-0.5-0.3-1.2,0.4c-0.7,0.7-1.3,1.6-1.3,1.6l-3.2-9.2l1.4-1.6l2.7,7.7c0,0,1.2-0.9,1.2-1.7c-0.1-0.8-2.9-9.2-3.8-9.6
		c-0.1-0.1-0.5-0.3-1.2,0.4c-0.7,0.7-1.3,1.6-1.3,1.6l-4.7-13.4c0,0,2-6,10.6-10.9c0.7-0.4,2.4-1.1,2.1-2.1
		c-0.4-1.4-2.2-1.3-3.1-0.7c-1,0.6-5.4,3.8-6.7,3c-1-0.6,0.2-2,0.3-3.2c0.1-1.2-1.3-4.1-3-3.9c-1.4,0.2-2,1.4-2,1.4l-3.6,5.8
		c0,0-1.1,1.6-2.9,1.7c-4.6,0.1-13.5-4.3-13.5-4.3c4.5,21.3,5.4,26.7,9,48.2c0,0.1,0,0.3-0.1,0.3c-0.2,0-0.3-0.1-0.3-0.3
		c-0.1-0.3-11.3-49.1-11.3-49.1s-0.5-0.2-1-0.2c-0.4,0-2.2,0-2.4-3.8c-0.1-1.2,0.9-1.9,1.4-1.9l0.6,0l-1.3-6.2c0,0-0.2-1.3,0.7-1.5
		c0.8-0.1,1,0.4,1,0.4s1.3,1.6,1.4,1.9c0.1,0.3,1,5.8,1,5.8s0.6,1.9,1.6,2.2c1,0.3,10,2.5,11,2.4c1,0,3-0.3,4.6-3.2
		c1.6-2.9,2.6-5.9,3.4-8.6c1-3.1,1-7.1,4.3-9.9c0.8-0.7,1.6-1.1,1.9-0.8c0.3,0.3-0.1,0.6-0.2,0.7c-0.9,0.7-1.2,1.6-1.2,3.1
		c0,1.5,1.1,6,7.9,6c2.5,0,5.4-1.1,5.4-3.3c0-1-0.4-2.7-5.4-6.3c-0.6-0.4-0.6-1.2,0.9-2.3c0.7-0.5,1.8-0.7,1.8-2.8
		c0-2-3.5-7.8-2.3-9.8c1.2-2,3-2.1,3-4.8c0-2.4-2.6-3.7-4.4-3.6c-1.9,0.1-3.2,0.8-3.2,2.1c0,1.3,0,2.2-0.7,2.2
		c-0.7,0.1-2-1.2-2.1-4.1c0,0,0-3.8,3.6-5.4c2.1-0.9,2.2-1.2,2.5-1.5c0.6-0.6,2.2-1.1,3-1.1c0.9,0,1.1,0.1,1.5,0.1
		c0.5,0,1.7-0.2,2.2,0c0.6,0.1,3.3,1.3,4.5,3.3c1,1.7,0.1,3.1,0.2,5c0.1,1.3,1,2.4,0.8,3.6c-0.4,3.4-2.4,5.4-4.4,7.6
		c-1.6,1.8-1.5,3.8-1.5,4s-0.4,7.3,9.1,8.7c1.9,0.3,3.5,2.6,3.3,6.4c-0.3,5.1-1,12.6-1,12.6s-0.4,5.1,2.8,7.2l11,7.2l-1.9-20.3
		l0.1-5.3c0-0.1,0.1-0.2,0.1-0.2c0.1,0,0.2,0.1,0.2,0.1l1.3,5.1l2,21c0,0,0.2,0,0.8,0c0.6,0,1.6,0.5,1.6,1.5
		C476.8,82,475,81.9,474.6,81.9 M475.3,87.2c-0.7,0-1.3,0.6-1.4,1.4c0,0.8,0.5,1.5,1.2,1.6c0.7,0,1.3-0.6,1.4-1.4
		C476.5,87.9,476,87.2,475.3,87.2"/>
	<path clip-path="url(#SVGID_5_)" fill="#FFFFFF" d="M437,123.2c0,0-2,9.7-9.8,20c-2.9,3.8-6.4,9.8-7.8,16.5
		c11.8-11.6,22.2-27.7,25.1-34.8l-16-41.9c0,0-2.2,3.5-2.6,4.4c0,0,9.1,23.8,9.9,26C436.9,115.9,438,119.4,437,123.2"/>
	<path clip-path="url(#SVGID_5_)" fill="#FFFFFF" d="M419.4,159.9c-0.1,0.6-0.2,1.4-0.3,2c21.9-13.6,29.5-26.6,29.5-26.6l-3-7.8
		C438.9,143.2,419.4,159.9,419.4,159.9"/>
	<path clip-path="url(#SVGID_5_)" fill="#FFFFFF" d="M423.7,163.5c-1.6,0.3-3.2,0.6-4.8,0.8c0.1-0.8,0.1-1.5,0.2-2.2
		c22.3-11.2,30.5-24.1,30.5-24.1l2.6,6.9C443.6,154.1,426.1,162.4,423.7,163.5"/>
	<path clip-path="url(#SVGID_5_)" fill="#FFFFFF" d="M455.9,153.7c-6.7,3.3-14.7,6.6-27.8,9.1h-0.2c18.8-7.5,25.7-15,25.7-15
		L455.9,153.7z"/>
</g>
</svg>
