<?xml version="1.0" encoding="utf-8"?>
<!-- Generator: Adobe Illustrator 17.1.0, SVG Export Plug-In . SVG Version: 6.00 Build 0)  -->
<!DOCTYPE svg PUBLIC "-//W3C//DTD SVG 1.1//EN" "http://www.w3.org/Graphics/SVG/1.1/DTD/svg11.dtd">
<svg version="1.1" id="Layer_1" xmlns="http://www.w3.org/2000/svg" xmlns:xlink="http://www.w3.org/1999/xlink" x="0px" y="0px"
	 viewBox="0 0 250 500" enable-background="new 0 0 250 500" xml:space="preserve" width="46px" height="92px">
<g>
	<g>
		<g>
			
				<linearGradient id="SVGID_1_" gradientUnits="userSpaceOnUse" x1="51.0063" y1="137.9515" x2="387.6259" y2="332.2989" gradientTransform="matrix(1 0 0 1 -124.5536 0)">
				<stop  offset="0" style="stop-color:#8B0304"/>
				<stop  offset="1" style="stop-color:#ED1C24"/>
			</linearGradient>
			<path fill="url(#SVGID_1_)" d="M249.7,279.5V112.8H0.6v387C258.5,500,249.7,316.6,249.7,279.5z M249.7,12.9
				c0-7.2-5.8-12.9-13-12.9H13.6C6.4,0,0.6,5.8,0.6,12.9v93.4h249.1V12.9z"/>
		</g>
	</g>
	<g>
		<path fill="#FFFFFF" d="M25.5,75.7V30.6H35v45.2H25.5z"/>
		<path fill="#FFFFFF" d="M82.3,73.3c-3.2,1.7-7.6,3.3-16.1,3.3c-13.4,0-23.8-9.6-23.8-23.4c0-13.8,10.4-23.5,23.8-23.5
			c9.4,0,13.7,2.2,15.7,3.3l-2.7,6.5c-1.8-0.9-5.4-2.6-12-2.6c-7.2,0-14.8,6.6-14.8,16.2c0,9.3,7.5,16.2,14.8,16.2
			c6.4,0,9.8-1.5,12.3-2.5L82.3,73.3z"/>
		<path fill="#FFFFFF" d="M119.8,75.7l-3.5-10.2h-15.9l-3.8,10.2h-8.6l18.4-45.3h6.6l16.7,45.3H119.8z M108.9,42.8l-6.2,16.5h11.6
			L108.9,42.8z"/>
		<path fill="#FFFFFF" d="M165.6,75.7h-29.1V30.6h28.3v7h-18.7V49h13.7v7h-13.7v12.7h19.5V75.7z"/>
		<path fill="#FFFFFF" d="M212.3,76.1h-5.9L199,53.4l-8.3,22.7h-5.9L170,30.6h9.5l9.8,30.9l6.5-17.9l-4.2-13h9.5l9.3,29.9l10.2-29.9
			h8.3L212.3,76.1z"/>
	</g>
	<g>
		<path fill="#FFFFFF" d="M76.5,288.4c0,0-6.1,9.3-6.2,9.9l4.6,12.1c0,0,5.1-9,6.1-10.2L76.5,288.4z"/>
		<path fill="#FFFFFF" d="M190.7,303.3l0.5,5.9c0.1,0.3,0.2,0.6,0.6,0.6c0.2,0,0.5,0,0.8,0c0.4,0,0.8,0.1,1.2,0.2
			c0.4,0.1,0.5-0.2,0.7-0.4l24.4-57.8l6.1-10.9c0.1-0.2,0.3-0.3,0.5-0.2c0.2,0.1,0.2,0.3,0.2,0.5l-3.5,12l-24.1,58.5
			c-0.1,0.2-0.3,0.6,0.1,0.9c1.6,1.3,2.4,4.3,2.2,7c-0.3,5-4.3,8.8-8.9,8.5c-4.6-0.3-8-4.6-7.7-9.6c0.2-2.8,1.3-5.5,3.4-6.8
			c0.4-0.2,0.3-0.5,0.3-0.9l-0.8-8.1c0,0-10.2-3.1-40.4-22.9c-2.5-1.6-2.7-4.7-2.8-5.6c-0.1-0.8,0-3.1,0.1-3.8
			c0-2.6-1.6-4.3-3.2-4.3c-4-0.1-5.2,5.4-4.5,11.4c0.7,6,9.7,26,9.5,67.2c-0.1,41.2-7.4,88.1-7.4,88.1l-23.8-67.8l3.2-3.8l6.3,17.9
			c0,0,2.9-2.1,2.7-3.9c-0.2-1.8-6.9-21.5-8.9-22.3c-0.3-0.1-1.2-0.7-2.7,0.9c-1.6,1.7-3.1,3.8-3.1,3.8l-7.6-21.6l3.2-3.8l6.3,17.9
			c0,0,2.9-2.1,2.7-3.9c-0.2-1.8-6.9-21.5-8.9-22.3c-0.3-0.1-1.2-0.7-2.7,1c-1.6,1.7-3.1,3.8-3.1,3.8l-11-31.3c0,0,4.8-14,24.7-25.4
			c1.6-0.9,5.6-2.6,5-5c-0.9-3.3-5-3-7.4-1.6c-2.3,1.4-12.7,8.9-15.8,7c-2.4-1.5,0.5-4.8,0.6-7.4c0.1-2.7-3.1-9.6-6.9-9.1
			c-3.2,0.4-4.8,3.3-4.8,3.3l-8.5,13.6c0,0-2.5,3.8-6.8,3.9c-10.7,0.2-31.6-9.9-31.6-9.9c10.5,49.7,12.7,62.3,21.1,112.5
			c0.1,0.2,0.1,0.7-0.3,0.7c-0.5,0.1-0.6-0.3-0.8-0.7C59,379,32.9,265,32.9,265s-1.1-0.6-2.3-0.5c-1,0-5,0-5.6-8.8
			c-0.2-2.9,2-4.4,3.4-4.3c1.4,0.1,1.4,0.1,1.4,0.1l-2.9-14.4c0,0-0.6-3.1,1.7-3.4c1.8-0.3,2.3,0.9,2.3,0.9s2.9,3.8,3.2,4.5
			c0.3,0.7,2.4,13.6,2.4,13.6s1.4,4.5,3.8,5.2c2.4,0.7,23.3,5.8,25.6,5.7c2.3-0.1,6.9-0.6,10.7-7.4c3.7-6.8,6-13.7,8-20.1
			c2.3-7.3,2.4-16.6,10.1-23c2-1.7,3.7-2.6,4.5-1.8c0.6,0.7-0.1,1.4-0.5,1.7c-2.1,1.6-2.9,3.9-2.9,7.2c0,3.4,2.7,14,18.5,14.1
			c5.8,0.1,12.6-2.7,12.5-7.6c0-2.4-0.9-6.4-12.6-14.8c-1.4-1-1.4-2.8,2.2-5.4c1.5-1.1,4.1-1.7,4.1-6.5c0-4.8-8.1-18.3-5.4-22.8
			c2.7-4.6,6.9-5,6.9-11.3c0-5.5-6.1-8.6-10.2-8.5c-4.5,0.2-7.4,1.8-7.4,4.8c0,3,0,5-1.6,5.2c-1.6,0.2-4.6-2.8-4.8-9.6
			c0,0,0-8.8,8.4-12.5c4.9-2.2,5-2.8,5.9-3.6c1.4-1.3,5.1-2.5,7.1-2.5c2,0,2.6,0.3,3.5,0.3c1.1,0,3.9-0.4,5.1-0.1
			c1.4,0.3,7.7,2.9,10.4,7.6c2.3,3.9,0.3,7.2,0.4,11.7c0.1,3,2.2,5.6,1.9,8.4c-0.8,7.9-5.7,12.6-10.4,17.8c-3.8,4.2-3.5,8.8-3.5,9.4
			c0,0.5-0.9,17,21.1,20.2c4.5,0.7,8.3,6.1,7.7,14.9c-0.8,12-2.4,29.5-2.4,29.5s-1,12,6.5,16.9l25.8,16.8l-4.4-47.6l0.2-12.5
			c0-0.2,0.1-0.4,0.3-0.4c0.2,0,0.3,0.1,0.4,0.3l2.9,12l4.7,49.1c0,0,0.6-0.1,1.9-0.1c1.4,0,3.7,1.3,3.8,3.5
			C195.7,303.5,191.7,303.4,190.7,303.3z M192.3,315.6c-1.6-0.1-3.1,1.4-3.2,3.3c-0.1,1.9,1.1,3.5,2.7,3.6c1.7,0.1,3.1-1.3,3.2-3.2
			C195.2,317.4,193.9,315.7,192.3,315.6z"/>
		<path fill="#FFFFFF" d="M102.8,400c0,0-4.6,22.6-22.8,46.7c-6.8,9-14.8,22.9-18.2,38.5c27.5-27.2,52-64.7,58.8-81.3l-37.3-97.9
			c0,0-5.1,8.2-6.1,10.2c0,0,21.4,55.6,23.2,60.7C102.5,382.8,105.1,390.9,102.8,400z"/>
		<path fill="#FFFFFF" d="M61.7,485.7c-0.3,1.5-0.6,3.2-0.8,4.8c51.1-31.9,68.9-62.3,68.9-62.3l-6.9-18.2
			C107.2,446.6,61.7,485.7,61.7,485.7z"/>
		<path fill="#FFFFFF" d="M71.7,494.2c-3.7,0.7-7.5,1.3-11.3,1.9v0c0.1-1.7,0.3-3.4,0.5-5.1c52.2-26.3,71.4-56.3,71.4-56.3l6.2,16.2
			C118.3,472.1,77.4,491.5,71.7,494.2z"/>
		<path fill="#FFFFFF" d="M146.9,471.2c-15.6,7.7-34.4,15.3-64.9,21.4h-0.6c44-17.6,60.2-35.1,60.2-35.1L146.9,471.2z"/>
	</g>
</g>
</svg>
