<?xml version="1.0" encoding="utf-8"?>
<!-- Generator: Adobe Illustrator 18.1.1, SVG Export Plug-In . SVG Version: 6.00 Build 0)  -->
<svg version="1.1" id="Layer_1" xmlns="http://www.w3.org/2000/svg" xmlns:xlink="http://www.w3.org/1999/xlink" x="0px" y="0px"
	 width="85px" height="47.3px" viewBox="-175.9 458.2 85 47.3" enable-background="new -175.9 458.2 85 47.3" xml:space="preserve">
<g>
	<g>
		<defs>
			<path id="SVGID_1_" d="M-109,467.8V496c18.8,0,18.1-13.3,18.1-16v-12.1H-109z M-172.5,467.8c-1.9,0-3.4,1.5-3.4,3.4V496h66v-28.2
				L-172.5,467.8z"/>
		</defs>
		<clipPath id="SVGID_2_">
			<use xlink:href="#SVGID_1_"  overflow="visible"/>
		</clipPath>
		
			<linearGradient id="SVGID_3_" gradientUnits="userSpaceOnUse" x1="-383.541" y1="123.1486" x2="-383.0444" y2="123.1486" gradientTransform="matrix(141.6463 81.7796 -81.7796 141.6463 64228.0039 14382.752)">
			<stop  offset="0" style="stop-color:#82181B"/>
			<stop  offset="0.2955" style="stop-color:#9B1C1E"/>
			<stop  offset="0.9213" style="stop-color:#DB2727"/>
			<stop  offset="1" style="stop-color:#E42828"/>
		</linearGradient>
		<polygon clip-path="url(#SVGID_2_)" fill="url(#SVGID_3_)" points="-154.5,430.7 -78,474.9 -111.6,533.1 -188.1,489 		"/>
	</g>
</g>
<rect x="-169.3" y="475.9" fill="#FFFFFF" width="2.5" height="12"/>
<path fill="#FFFFFF" d="M-154.3,487.2c-0.8,0.4-2,0.9-4.3,0.9c-3.5,0-6.3-2.5-6.3-6.2c0-3.7,2.8-6.2,6.3-6.2c2.5,0,3.6,0.6,4.2,0.9
	l-0.7,1.7c-0.5-0.2-1.4-0.7-3.2-0.7c-1.9,0-3.9,1.7-3.9,4.3c0,2.5,2,4.3,3.9,4.3c1.7,0,2.6-0.4,3.2-0.7L-154.3,487.2z"/>
<path fill="#FFFFFF" d="M-144.3,487.9l-0.9-2.7h-4.2l-1,2.7h-2.3l4.9-12h1.7l4.4,12H-144.3z M-147.2,479.2l-1.6,4.4h3.1
	L-147.2,479.2z"/>
<polygon fill="#FFFFFF" points="-132.2,487.9 -139.9,487.9 -139.9,475.9 -132.4,475.9 -132.4,477.8 -137.4,477.8 -137.4,480.8 
	-133.7,480.8 -133.7,482.7 -137.4,482.7 -137.4,486 -132.2,486 "/>
<polygon fill="#FFFFFF" points="-119.9,487.9 -121.4,487.9 -123.4,481.9 -125.6,487.9 -127.1,487.9 -131,475.9 -128.5,475.9 
	-125.9,484.1 -124.2,479.3 -125.3,475.9 -122.8,475.9 -120.4,483.8 -117.6,475.9 -115.4,475.9 "/>
<path fill="#FFFFFF" d="M-103.5,481.1c0,0-0.4,0.7-0.4,0.7l0.3,0.9c0,0,0.4-0.6,0.4-0.7L-103.5,481.1z"/>
<path fill="#FFFFFF" d="M-95.2,483.2l0,0.4c0,0,0,0.1,0,0h0.1c0,0,0.1,0,0.1,0c0,0,0,0,0,0l1.8-4.2l0.4-0.8c0,0,0,0,0,0c0,0,0,0,0,0
	l-0.3,0.9l-1.7,4.3c0,0,0,0,0,0.1c0.1,0.1,0.2,0.3,0.2,0.5c0,0.4-0.3,0.6-0.6,0.6c-0.3,0-0.6-0.3-0.6-0.7c0-0.2,0.1-0.4,0.2-0.5
	c0,0,0,0,0-0.1l-0.1-0.6c0,0-0.7-0.2-2.9-1.7c-0.2-0.1-0.2-0.3-0.2-0.4c0-0.1,0-0.2,0-0.3c0-0.2-0.1-0.3-0.2-0.3
	c-0.3,0-0.4,0.4-0.3,0.8c0,0.4,0.7,1.9,0.7,4.9c0,3-0.5,6.4-0.5,6.4l-1.7-4.9l0.2-0.3l0.5,1.3c0,0,0.2-0.1,0.2-0.3s-0.5-1.6-0.6-1.6
	c0,0-0.1,0-0.2,0.1c-0.1,0.1-0.2,0.3-0.2,0.3l-0.5-1.6l0.2-0.3l0.5,1.3c0,0,0.2-0.1,0.2-0.3c0-0.1-0.5-1.6-0.6-1.6
	c0,0-0.1-0.1-0.2,0.1c-0.1,0.1-0.2,0.3-0.2,0.3l-0.8-2.3c0,0,0.3-1,1.8-1.8c0.1-0.1,0.4-0.2,0.4-0.4c-0.1-0.2-0.4-0.2-0.5-0.1
	c-0.2,0.1-0.9,0.6-1.1,0.5c-0.2-0.1,0-0.3,0-0.5c0-0.2-0.2-0.7-0.5-0.7c-0.2,0-0.3,0.2-0.3,0.2l-0.6,1c0,0-0.2,0.3-0.5,0.3
	c-0.8,0-2.3-0.7-2.3-0.7c0.8,3.6,0.9,4.5,1.5,8.2c0,0,0,0,0,0c0,0,0,0-0.1,0c0-0.1-1.9-8.3-1.9-8.3s-0.1,0-0.2,0
	c-0.1,0-0.4,0-0.4-0.6c0-0.2,0.1-0.3,0.2-0.3l0.1,0l-0.2-1c0,0,0-0.2,0.1-0.2c0.1,0,0.2,0.1,0.2,0.1s0.2,0.3,0.2,0.3
	c0,0.1,0.2,1,0.2,1s0.1,0.3,0.3,0.4c0.2,0,1.7,0.4,1.9,0.4c0.2,0,0.5,0,0.8-0.5c0.3-0.5,0.4-1,0.6-1.5c0.2-0.5,0.2-1.2,0.7-1.7
	c0.1-0.1,0.3-0.2,0.3-0.1c0,0,0,0.1,0,0.1c-0.1,0.1-0.2,0.3-0.2,0.5c0,0.2,0.2,1,1.3,1c0.4,0,0.9-0.2,0.9-0.6c0-0.2-0.1-0.5-0.9-1.1
	c-0.1-0.1-0.1-0.2,0.2-0.4c0.1-0.1,0.3-0.1,0.3-0.5s-0.6-1.3-0.4-1.7c0.2-0.3,0.5-0.4,0.5-0.8c0-0.4-0.4-0.6-0.7-0.6
	c-0.3,0-0.5,0.1-0.5,0.3s0,0.4-0.1,0.4c-0.1,0-0.3-0.2-0.3-0.7c0,0,0-0.6,0.6-0.9c0.4-0.2,0.4-0.2,0.4-0.3c0.1-0.1,0.4-0.2,0.5-0.2
	s0.2,0,0.3,0c0.1,0,0.3,0,0.4,0c0.1,0,0.6,0.2,0.8,0.6c0.2,0.3,0,0.5,0,0.8c0,0.2,0.2,0.4,0.1,0.6c-0.1,0.6-0.4,0.9-0.8,1.3
	c-0.3,0.3-0.2,0.6-0.2,0.7c0,0-0.1,1.2,1.5,1.5c0.3,0,0.6,0.4,0.6,1.1c-0.1,0.9-0.2,2.1-0.2,2.1s-0.1,0.9,0.5,1.2l1.9,1.2l-0.3-3.5
	l0-0.9c0,0,0,0,0,0s0,0,0,0l0.2,0.9l0.3,3.6c0,0,0,0,0.1,0s0.3,0.1,0.3,0.3C-94.8,483.2-95.1,483.2-95.2,483.2 M-95,484.1
	c-0.1,0-0.2,0.1-0.2,0.2c0,0.1,0.1,0.3,0.2,0.3c0.1,0,0.2-0.1,0.2-0.2C-94.8,484.2-94.9,484.1-95,484.1"/>
<path fill="#FFFFFF" d="M-101.6,482.2c0,0-0.3,1.6-1.7,3.4c-0.5,0.6-1.1,1.7-1.3,2.8c2-2,3.8-4.7,4.3-5.9l-2.7-7.1
	c0,0-0.4,0.6-0.4,0.7c0,0,1.6,4,1.7,4.4C-101.6,481-101.4,481.6-101.6,482.2"/>
<path fill="#FFFFFF" d="M-104.6,484.5c0,0.1,0,0.2-0.1,0.3c3.7-2.3,5-4.5,5-4.5l-0.5-1.3C-101.2,481.6-104.6,484.5-104.6,484.5"/>
<path fill="#FFFFFF" d="M-103.8,484c-0.3,0-0.5,0.1-0.8,0.1l0,0c0-0.1,0-0.2,0-0.4c3.8-1.9,5.2-4.1,5.2-4.1l0.4,1.2
	C-100.4,482.4-103.4,483.8-103.8,484"/>
<path fill="#FFFFFF" d="M-98.4,481.6c-1.1,0.6-2.5,1.1-4.7,1.6h0c3.2-1.3,4.4-2.6,4.4-2.6L-98.4,481.6z"/>
</svg>
