<?xml version="1.0" encoding="utf-8"?>
<!-- Generator: Adobe Illustrator 18.0.0, SVG Export Plug-In . SVG Version: 6.00 Build 0)  -->
<!DOCTYPE svg PUBLIC "-//W3C//DTD SVG 1.1//EN" "http://www.w3.org/Graphics/SVG/1.1/DTD/svg11.dtd">
<svg version="1.1" id="Layer_1" xmlns="http://www.w3.org/2000/svg" xmlns:xlink="http://www.w3.org/1999/xlink" x="0px" y="0px"
	 viewBox="0 345.3 595.3 151.1" enable-background="new 0 345.3 595.3 151.1" xml:space="preserve" width="336px" height="84px">
<g id="Layer_2">
</g>
<g id="Layer_1_1_">
	<g>
		<g>
			<g>
				
					<linearGradient id="SVGID_1_" gradientUnits="userSpaceOnUse" x1="-309.4067" y1="187.8025" x2="27.2265" y2="382.1578" gradientTransform="matrix(0.3024 0 0 0.3024 71.1461 330.2631)">
					<stop  offset="0" style="stop-color:#8B0304"/>
					<stop  offset="1" style="stop-color:#ED1C24"/>
				</linearGradient>
				<path fill="url(#SVGID_1_)" d="M75.3,429.9v-50.4H0v117C78,496.5,75.3,441.1,75.3,429.9z M75.3,349.2c0-2.2-1.8-3.9-3.9-3.9H3.9
					c-2.2,0-3.9,1.8-3.9,3.9v28.2h75.3L75.3,349.2L75.3,349.2z"/>
			</g>
		</g>
		<g>
			<path fill="#FFFFFF" d="M7.5,368.2v-13.6h2.9v13.7L7.5,368.2L7.5,368.2z"/>
			<path fill="#FFFFFF" d="M24.7,367.5c-1,0.5-2.3,1-4.9,1c-4,0-7.2-2.9-7.2-7.1c0-4.2,3.1-7.1,7.2-7.1c2.8,0,4.1,0.7,4.8,1l-0.8,2
				c-0.6-0.3-1.6-0.8-3.6-0.8c-2.2,0-4.5,2-4.5,4.9c0,2.8,2.3,4.9,4.5,4.9c1.9,0,3-0.5,3.7-0.8L24.7,367.5z"/>
			<path fill="#FFFFFF" d="M36.1,368.2l-1-3.1h-4.8l-1.1,3.1h-2.6l5.6-13.7h2l5.1,13.7C39.1,368.2,36.1,368.2,36.1,368.2z
				 M32.8,358.3l-1.9,5h3.5L32.8,358.3z"/>
			<path fill="#FFFFFF" d="M49.9,368.2h-8.8v-13.6h8.6v2.1H44v3.5h4.1v2.1H44v3.8h5.9V368.2z"/>
			<path fill="#FFFFFF" d="M64,368.4h-1.8l-2.2-6.9l-2.5,6.9h-1.8l-4.5-13.8h2.9l3,9.3l2-5.4l-1.3-3.9h2.9l2.8,9l3.1-9H69L64,368.4z
				"/>
		</g>
		<g>
			<path fill="#FFFFFF" d="M23,432.6c0,0-1.9,2.8-1.9,3l1.4,3.7c0,0,1.5-2.7,1.9-3.1L23,432.6z"/>
			<path fill="#FFFFFF" d="M57.5,437.1l0.2,1.8c0,0.1,0.1,0.2,0.2,0.2c0.1,0,0.2,0,0.2,0c0.1,0,0.2,0,0.4,0.1c0.1,0,0.2-0.1,0.2-0.1
				l7.4-17.5l1.9-3.3c0-0.1,0.1-0.1,0.2-0.1s0.1,0.1,0.1,0.2l-1,3.6l-7.3,17.7c0,0.1-0.1,0.2,0,0.3c0.5,0.4,0.7,1.3,0.7,2.1
				c-0.1,1.5-1.3,2.7-2.7,2.6c-1.4-0.1-2.4-1.4-2.3-2.9c0.1-0.8,0.4-1.7,1-2.1c0.1-0.1,0.1-0.2,0.1-0.3l-0.2-2.4
				c0,0-3.1-0.9-12.2-6.9c-0.8-0.5-0.8-1.4-0.8-1.7c0-0.2,0-0.9,0-1.1c0-0.8-0.5-1.3-1-1.3c-1.2,0-1.6,1.6-1.4,3.5s2.9,7.9,2.9,20.3
				c0,12.5-2.2,26.6-2.2,26.6l-7.2-20.5l1-1.1l1.9,5.4c0,0,0.9-0.6,0.8-1.2c-0.1-0.6-2.1-6.5-2.7-6.7c-0.1,0-0.4-0.2-0.8,0.3
				c-0.5,0.5-0.9,1.1-0.9,1.1l-2.3-6.5l1-1.1l1.9,5.4c0,0,0.9-0.6,0.8-1.2c-0.1-0.6-2.1-6.5-2.7-6.7c-0.1,0-0.4-0.2-0.8,0.3
				c-0.5,0.5-0.9,1.1-0.9,1.1l-3.3-9.5c0,0,1.5-4.2,7.5-7.7c0.5-0.3,1.7-0.8,1.5-1.5c-0.3-1-1.5-0.9-2.2-0.5
				c-0.7,0.4-3.8,2.7-4.8,2.1c-0.7-0.5,0.2-1.5,0.2-2.2c0-0.8-0.9-2.9-2.1-2.7c-1,0.1-1.5,1-1.5,1l-2.6,4.1c0,0-0.8,1.1-2.1,1.2
				c-3.2,0.1-9.6-3-9.6-3c3.2,15,3.8,18.8,6.4,34c0,0.1,0,0.2-0.1,0.2c-0.2,0-0.2-0.1-0.2-0.2c0-0.1-7.9-34.6-7.9-34.6
				s-0.3-0.2-0.7-0.2c-0.3,0-1.5,0-1.7-2.7c-0.1-0.9,0.6-1.3,1-1.3c0.4,0,0.4,0,0.4,0L8,417.1c0,0-0.2-0.9,0.5-1
				c0.6-0.1,0.7,0.3,0.7,0.3s0.9,1.1,1,1.4s0.7,4.1,0.7,4.1s0.4,1.4,1.1,1.6s7,1.8,7.8,1.7c0.7,0,2.1-0.2,3.2-2.2
				c1.1-2.1,1.8-4.1,2.4-6.1c0.7-2.2,0.7-5,3.1-6.9c0.6-0.5,1.1-0.8,1.4-0.6c0.2,0.2,0,0.4-0.2,0.5c-0.6,0.5-0.9,1.2-0.9,2.2
				c0,1,0.8,4.2,5.6,4.3c1.8,0,3.8-0.8,3.8-2.3c0-0.7-0.3-1.9-3.8-4.5c-0.4-0.3-0.4-0.8,0.7-1.6c0.5-0.3,1.2-0.5,1.2-2
				s-2.4-5.5-1.6-6.9c0.8-1.4,2.1-1.5,2.1-3.4c0-1.7-1.9-2.6-3.1-2.6c-1.4,0.1-2.2,0.6-2.2,1.5c0,0.9,0,1.5-0.5,1.6
				s-1.4-0.8-1.5-2.9c0,0,0-2.7,2.5-3.8c1.5-0.7,1.5-0.8,1.8-1.1c0.4-0.4,1.5-0.8,2.1-0.8c0.6,0,0.8,0.1,1,0.1c0.3,0,1.2-0.1,1.5,0
				c0.4,0.1,2.3,0.9,3.1,2.3c0.7,1.2,0.1,2.2,0.1,3.5c0,0.9,0.7,1.7,0.6,2.5c-0.2,2.4-1.7,3.8-3.1,5.4c-1.1,1.3-1,2.7-1,2.8
				c0,0.2-0.3,5.1,6.4,6.1c1.4,0.2,2.5,1.9,2.3,4.5c-0.2,3.6-0.7,8.9-0.7,8.9s-0.3,3.6,2,5.1l7.8,5.1l-1.3-14.4l0.1-3.8
				c0-0.1,0-0.1,0.1-0.1s0.1,0,0.1,0.1l0.9,3.6l1.4,14.9c0,0,0.2,0,0.6,0c0.4,0,1.1,0.4,1.1,1C59,437.1,57.8,437.1,57.5,437.1z
				 M58,440.8c-0.5,0-0.9,0.4-1,1c0,0.6,0.3,1,0.8,1.1c0.5,0,0.9-0.4,1-1C58.9,441.3,58.4,440.8,58,440.8z"/>
			<path fill="#FFFFFF" d="M30.9,466.3c0,0-1.4,6.8-6.9,14.1c-2.1,2.7-4.5,6.9-5.5,11.6c8.3-8.2,15.7-19.6,17.8-24.6L25,437.9
				c0,0-1.5,2.5-1.9,3.1c0,0,6.5,16.8,7,18.3C30.8,461.1,31.6,463.6,30.9,466.3z"/>
			<path fill="#FFFFFF" d="M18.5,492.2c-0.1,0.5-0.2,1-0.2,1.5c15.4-9.6,20.8-18.8,20.8-18.8l-2.1-5.5
				C32.2,480.4,18.5,492.2,18.5,492.2z"/>
			<path fill="#FFFFFF" d="M21.5,494.8c-1.1,0.2-2.3,0.4-3.4,0.6l0,0c0-0.5,0.1-1,0.2-1.5c15.8-8,21.6-17,21.6-17l1.9,4.9
				C35.6,488.1,23.2,494,21.5,494.8z"/>
			<path fill="#FFFFFF" d="M44.2,487.8c-4.7,2.3-10.4,4.6-19.6,6.5h-0.2c13.3-5.3,18.2-10.6,18.2-10.6L44.2,487.8z"/>
		</g>
	</g>
	<g>
		<path fill="#FFFFFF" d="M135.5,411.2h-3.3l-2.2-6.4h-8.6l-2.4,6.4h-2.7l9-22h2L135.5,411.2z M129.2,402.6l-3.4-9.4l-3.6,9.4H129.2
			z"/>
		<path fill="#FFFFFF" d="M168.7,395.7l-5.7,15.6h-1.9l-4.6-12l-4.7,12H150l-5.4-15.3l2.6-0.7l4.1,12.3l4.6-12h1.9l4.6,12l4-12.3
			L168.7,395.7z"/>
		<path fill="#FFFFFF" d="M186.1,403.2c0,2.4-0.7,4.4-2.2,6s-3.3,2.3-5.5,2.3c-2.3,0-4.1-0.8-5.6-2.3c-1.5-1.5-2.2-3.6-2.2-6
			c0-2.4,0.7-4.4,2.2-5.9c1.4-1.5,3.3-2.3,5.6-2.3c2.2,0,4,0.8,5.4,2.3C185.3,399,186.1,401,186.1,403.2z M183,403.2
			c0-1.9-0.4-3.4-1.3-4.5c-0.8-1.1-2-1.6-3.5-1.6c-1.4,0-2.5,0.6-3.4,1.6c-0.8,1.1-1.2,2.6-1.2,4.5c0,2,0.4,3.6,1.2,4.7
			c0.8,1.1,2,1.7,3.5,1.7c1.5,0,2.6-0.6,3.4-1.7C182.6,406.8,183,405.2,183,403.2z"/>
		<path fill="#FFFFFF" d="M199.1,396.7l-1.4,1.9c-1-0.5-1.7-0.8-2.1-0.8c-1.1,0-1.8,0.6-2.2,1.9c-0.3,0.9-0.4,2.2-0.4,4v7.4h-2.8
			v-15.7h2.8v2.2l0.7-1c0.7-1,1.5-1.6,2.6-1.6C197.1,395.2,198.1,395.7,199.1,396.7z"/>
		<path fill="#FFFFFF" d="M204.4,411.2h-2.8v-23h2.8V411.2z"/>
		<path fill="#FFFFFF" d="M223.7,411.2H221v-2.4c-1.5,1.9-3.4,2.8-5.5,2.8c-2.2,0-4-0.8-5.3-2.5c-1.2-1.5-1.8-3.4-1.8-5.7
			c0-2.4,0.7-4.4,2.2-5.9s3.2-2.3,5.4-2.3c2,0,3.7,0.8,5,2.3v-9.3h2.7L223.7,411.2L223.7,411.2z M221,403.1c0-1.8-0.4-3.2-1.3-4.3
			c-0.9-1.1-2.1-1.6-3.5-1.6c-1.4,0-2.6,0.5-3.4,1.6c-0.8,1-1.3,2.5-1.3,4.4c0,2,0.4,3.6,1.3,4.8c0.8,1.2,2,1.8,3.4,1.8
			c1.5,0,2.6-0.6,3.5-1.8C220.5,406.6,221,405,221,403.1z"/>
		<path fill="#FFFFFF" d="M239.6,411.2h-2.8v-23h2.8V411.2z"/>
		<path fill="#FFFFFF" d="M257.2,403.5h-10.6c0,1.9,0.6,3.3,1.5,4.4c1,1.1,2.3,1.7,3.9,1.7c1.4,0,2.8-0.5,4.1-1.4l0.8,1.5
			c-1.9,1.2-3.7,1.8-5.6,1.8c-2.4,0-4.3-0.8-5.7-2.4c-1.4-1.6-2-3.6-2-6c0-2.3,0.7-4.2,2-5.7c1.3-1.5,3.1-2.3,5.3-2.3
			c2.9,0,4.8,1.3,5.7,3.9C257,400.1,257.2,401.6,257.2,403.5z M254.5,401.8c0-1.3-0.2-2.4-0.7-3.2c-0.6-1-1.6-1.5-2.8-1.5
			c-1.2,0-2.2,0.4-2.9,1.2s-1.2,2-1.3,3.4L254.5,401.8L254.5,401.8z"/>
		<path fill="#FFFFFF" d="M272.6,411.2h-3c-0.2-0.6-0.3-0.9-0.3-1c-0.1-0.3-0.1-0.7-0.1-1.3c-1.3,1.8-3,2.7-5.1,2.7
			c-1.3,0-2.3-0.4-3.1-1.2c-0.8-0.8-1.3-1.9-1.3-3.2c0-2,1.1-3.5,3.2-4.6c1-0.5,2.3-1,3.6-1.4c1-0.3,1.9-0.5,2.6-0.6
			c-0.2-2.4-1.4-3.6-3.4-3.6c-1.3,0-2.6,0.6-4,1.7l-1.1-1.4c1.5-1.4,3.4-2.1,5.6-2.1c2.2,0,3.8,0.7,4.7,2c0.4,0.5,0.6,1.1,0.7,1.6
			c0.2,0.6,0.2,1.6,0.2,2.9v4.5c0,1.4,0,2.4,0.1,3C272.1,409.8,272.3,410.5,272.6,411.2z M269.2,404v-1.5c-0.1,0-0.7,0.1-1.9,0.4
			c-3.2,0.7-4.8,2-4.8,3.9c0,0.8,0.2,1.4,0.7,1.9c0.4,0.5,1,0.7,1.8,0.7c1,0,1.9-0.3,2.6-1c0.6-0.6,1-1.2,1.3-1.9
			C269.1,405.6,269.2,404.8,269.2,404z"/>
		<path fill="#FFFFFF" d="M290.6,411.2h-2.7v-2.4c-1.5,1.9-3.4,2.8-5.5,2.8c-2.2,0-4-0.8-5.3-2.5c-1.2-1.5-1.8-3.4-1.8-5.7
			c0-2.4,0.7-4.4,2.2-5.9s3.2-2.3,5.4-2.3c2,0,3.7,0.8,5,2.3v-9.3h2.7L290.6,411.2L290.6,411.2z M287.9,403.1c0-1.8-0.4-3.2-1.3-4.3
			c-0.9-1.1-2.1-1.6-3.5-1.6c-1.4,0-2.6,0.5-3.4,1.6c-0.8,1-1.3,2.5-1.3,4.4c0,2,0.4,3.6,1.3,4.8c0.8,1.2,2,1.8,3.4,1.8
			c1.5,0,2.6-0.6,3.5-1.8C287.5,406.6,287.9,405,287.9,403.1z"/>
		<path fill="#FFFFFF" d="M307.7,403.5h-10.6c0,1.9,0.6,3.3,1.5,4.4s2.3,1.7,3.9,1.7c1.4,0,2.8-0.5,4.1-1.4l0.8,1.5
			c-1.9,1.2-3.7,1.8-5.6,1.8c-2.4,0-4.3-0.8-5.7-2.4c-1.4-1.6-2-3.6-2-6c0-2.3,0.7-4.2,2-5.7c1.3-1.5,3.1-2.3,5.3-2.3
			c2.9,0,4.8,1.3,5.7,3.9C307.5,400.1,307.7,401.6,307.7,403.5z M305,401.8c0-1.3-0.2-2.4-0.7-3.2c-0.6-1-1.6-1.5-2.8-1.5
			c-1.2,0-2.2,0.4-2.9,1.2c-0.8,0.8-1.2,2-1.3,3.4L305,401.8L305,401.8z"/>
		<path fill="#FFFFFF" d="M320.4,396.7l-1.4,1.9c-1-0.5-1.7-0.8-2.1-0.8c-1.1,0-1.8,0.6-2.2,1.9c-0.3,0.9-0.4,2.2-0.4,4v7.4h-2.8
			v-15.7h2.8v2.2l0.7-1c0.7-1,1.5-1.6,2.6-1.6C318.5,395.2,319.4,395.7,320.4,396.7z"/>
		<path fill="#FFFFFF" d="M345.1,403.2c0,2.4-0.7,4.4-2.2,6s-3.3,2.3-5.5,2.3c-2.3,0-4.1-0.8-5.6-2.3c-1.5-1.5-2.2-3.6-2.2-6
			c0-2.4,0.7-4.4,2.2-5.9c1.4-1.5,3.3-2.3,5.6-2.3c2.2,0,4,0.8,5.4,2.3C344.3,399,345.1,401,345.1,403.2z M342.1,403.2
			c0-1.9-0.4-3.4-1.3-4.5c-0.8-1.1-2-1.6-3.5-1.6c-1.4,0-2.5,0.6-3.4,1.6c-0.8,1.1-1.2,2.6-1.2,4.5c0,2,0.4,3.6,1.2,4.7
			s2,1.7,3.5,1.7c1.5,0,2.6-0.6,3.4-1.7C341.6,406.8,342.1,405.2,342.1,403.2z"/>
		<path fill="#FFFFFF" d="M356.1,388.9l-0.6,1.4c-0.5-0.2-1-0.2-1.4-0.2c-1,0-1.7,0.4-2,1.3c-0.1,0.3-0.2,1.1-0.2,2.3v2h3.8v1.7
			h-3.8v14h-2.8v-14h-2.5v-1.7h2.5V394c0-1.8,0.3-3.1,0.8-3.9c0.9-1.3,2.2-1.9,3.8-1.9C354.6,388.2,355.4,388.4,356.1,388.9z"/>
		<path fill="#FFFFFF" d="M374.9,410.6c-1.1,0.7-2.3,1-3.4,1c-1.7,0-2.9-0.6-3.7-1.9c-0.5-0.7-0.7-2-0.7-4.1v-8.5h-2.2v-1.7h2.2
			v-3.8l2.8-0.9v4.7h4.1v1.7h-4.1v8.3c0,1.6,0.2,2.7,0.5,3.3c0.3,0.6,0.9,0.9,1.8,0.9c0.7,0,1.4-0.2,2.1-0.6L374.9,410.6z"/>
		<path fill="#FFFFFF" d="M390.8,411.2H388v-8.8c0-1.7-0.2-2.9-0.6-3.6c-0.6-1.1-1.6-1.6-3.1-1.6c-1.9,0-3.2,0.8-3.9,2.3
			c-0.3,0.7-0.4,1.8-0.4,3.4v8.2h-2.8v-23h2.8v9.3c1.6-1.6,3.4-2.3,5.4-2.3c2.6,0,4.3,1,5,3.1c0.2,0.7,0.4,2.1,0.4,4.1L390.8,411.2
			L390.8,411.2z"/>
		<path fill="#FFFFFF" d="M407.9,403.5h-10.6c0,1.9,0.6,3.3,1.5,4.4s2.3,1.7,3.9,1.7c1.4,0,2.8-0.5,4.1-1.4l0.8,1.5
			c-1.9,1.2-3.7,1.8-5.6,1.8c-2.4,0-4.3-0.8-5.7-2.4c-1.4-1.6-2-3.6-2-6c0-2.3,0.7-4.2,2-5.7c1.3-1.5,3.1-2.3,5.3-2.3
			c2.9,0,4.8,1.3,5.7,3.9C407.7,400.1,407.9,401.6,407.9,403.5z M405.2,401.8c0-1.3-0.2-2.4-0.7-3.2c-0.6-1-1.6-1.5-2.8-1.5
			c-1.2,0-2.2,0.4-2.9,1.2c-0.8,0.8-1.2,2-1.3,3.4L405.2,401.8L405.2,401.8z"/>
		<path fill="#FFFFFF" d="M431.6,411.2h-3c-0.2-0.6-0.3-0.9-0.3-1c-0.1-0.3-0.1-0.7-0.1-1.3c-1.3,1.8-3,2.7-5.1,2.7
			c-1.3,0-2.3-0.4-3.1-1.2c-0.8-0.8-1.3-1.9-1.3-3.2c0-2,1.1-3.5,3.2-4.6c1-0.5,2.3-1,3.6-1.4c1-0.3,1.9-0.5,2.6-0.6
			c-0.2-2.4-1.4-3.6-3.4-3.6c-1.3,0-2.6,0.6-4,1.7l-1.1-1.4c1.5-1.4,3.4-2.1,5.6-2.1c2.2,0,3.8,0.7,4.7,2c0.4,0.5,0.6,1.1,0.7,1.6
			c0.2,0.6,0.2,1.6,0.2,2.9v4.5c0,1.4,0,2.4,0.1,3C431.1,409.8,431.3,410.5,431.6,411.2z M428.2,404v-1.5c-0.1,0-0.7,0.1-1.9,0.4
			c-3.2,0.7-4.8,2-4.8,3.9c0,0.8,0.2,1.4,0.7,1.9c0.4,0.5,1,0.7,1.8,0.7c1,0,1.9-0.3,2.6-1c0.6-0.6,1-1.2,1.3-1.9
			C428,405.6,428.2,404.8,428.2,404z"/>
		<path fill="#FFFFFF" d="M447.4,410c-1.5,1.1-3.2,1.6-5.2,1.6c-2.3,0-4.2-0.8-5.7-2.4c-1.5-1.5-2.2-3.5-2.2-5.8
			c0-2.4,0.8-4.4,2.3-5.9c1.5-1.5,3.5-2.3,5.9-2.3c1.7,0,3.1,0.4,4.4,1.3l-1,1.6c-1.1-0.6-2.2-0.9-3.2-0.9c-1.7,0-3,0.6-4,1.7
			c-1,1.1-1.5,2.6-1.5,4.4c0,2,0.5,3.5,1.5,4.7s2.3,1.7,4,1.7c1.3,0,2.6-0.4,3.8-1.2L447.4,410z"/>
		<path fill="#FFFFFF" d="M462.4,410c-1.5,1.1-3.2,1.6-5.2,1.6c-2.3,0-4.2-0.8-5.7-2.4c-1.5-1.5-2.2-3.5-2.2-5.8
			c0-2.4,0.8-4.4,2.3-5.9c1.5-1.5,3.5-2.3,5.9-2.3c1.7,0,3.1,0.4,4.4,1.3l-1,1.6c-1.1-0.6-2.2-0.9-3.2-0.9c-1.7,0-3,0.6-4,1.7
			s-1.5,2.6-1.5,4.4c0,2,0.5,3.5,1.5,4.7c1,1.2,2.3,1.7,4,1.7c1.3,0,2.6-0.4,3.8-1.2L462.4,410z"/>
		<path fill="#FFFFFF" d="M479.9,403.2c0,2.4-0.7,4.4-2.2,6c-1.4,1.6-3.3,2.3-5.5,2.3c-2.3,0-4.1-0.8-5.6-2.3
			c-1.5-1.5-2.2-3.6-2.2-6c0-2.4,0.7-4.4,2.2-5.9c1.4-1.5,3.3-2.3,5.6-2.3c2.2,0,4,0.8,5.4,2.3C479.2,399,479.9,401,479.9,403.2z
			 M476.9,403.2c0-1.9-0.4-3.4-1.3-4.5c-0.8-1.1-2-1.6-3.5-1.6c-1.4,0-2.5,0.6-3.4,1.6c-0.8,1.1-1.2,2.6-1.2,4.5
			c0,2,0.4,3.6,1.2,4.7c0.8,1.1,2,1.7,3.5,1.7c1.5,0,2.6-0.6,3.4-1.7C476.5,406.8,476.9,405.2,476.9,403.2z"/>
		<path fill="#FFFFFF" d="M497.6,411.2h-2.8v-2c-1.6,1.6-3.4,2.3-5.4,2.3c-2.6,0-4.3-1-5-3.1c-0.2-0.7-0.4-2.1-0.4-4.1v-8.8h2.8v8.8
			c0,1.7,0.2,2.9,0.6,3.6c0.6,1.1,1.6,1.6,3.1,1.6c1.9,0,3.2-0.8,3.9-2.3c0.3-0.7,0.5-1.9,0.5-3.4v-8.2h2.8L497.6,411.2L497.6,411.2
			z"/>
		<path fill="#FFFFFF" d="M516.6,411.2h-2.8v-8.8c0-1.7-0.2-2.9-0.6-3.6c-0.6-1.1-1.6-1.6-3.1-1.6c-1.9,0-3.2,0.8-3.9,2.3
			c-0.3,0.7-0.4,1.8-0.4,3.4v8.2H503v-15.7h2.8v2c1.5-1.6,3.4-2.3,5.4-2.3c2.6,0,4.3,1,5,3.1c0.2,0.7,0.4,2.1,0.4,4.1L516.6,411.2
			L516.6,411.2z"/>
		<path fill="#FFFFFF" d="M530,410.6c-1.1,0.7-2.3,1-3.4,1c-1.7,0-2.9-0.6-3.7-1.9c-0.5-0.7-0.7-2-0.7-4.1v-8.5H520v-1.7h2.2v-3.8
			l2.8-0.9v4.7h4.1v1.7H525v8.3c0,1.6,0.2,2.7,0.5,3.3c0.3,0.6,0.9,0.9,1.8,0.9c0.7,0,1.4-0.2,2.1-0.6L530,410.6z"/>
		<path fill="#FFFFFF" d="M544.4,411.2h-3c-0.2-0.6-0.3-0.9-0.3-1c-0.1-0.3-0.1-0.7-0.1-1.3c-1.3,1.8-3,2.7-5.1,2.7
			c-1.3,0-2.3-0.4-3.1-1.2c-0.8-0.8-1.3-1.9-1.3-3.2c0-2,1.1-3.5,3.2-4.6c1-0.5,2.3-1,3.6-1.4c1-0.3,1.9-0.5,2.6-0.6
			c-0.2-2.4-1.4-3.6-3.4-3.6c-1.3,0-2.6,0.6-4,1.7l-1.1-1.4c1.5-1.4,3.4-2.1,5.6-2.1c2.2,0,3.8,0.7,4.7,2c0.4,0.5,0.6,1.1,0.7,1.6
			c0.2,0.6,0.2,1.6,0.2,2.9v4.5c0,1.4,0,2.4,0.1,3C543.9,409.8,544.1,410.5,544.4,411.2z M541,404v-1.5c-0.1,0-0.7,0.1-1.9,0.4
			c-3.2,0.7-4.8,2-4.8,3.9c0,0.8,0.2,1.4,0.7,1.9c0.4,0.5,1,0.7,1.8,0.7c1,0,1.9-0.3,2.6-1c0.6-0.6,1-1.2,1.3-1.9
			C540.9,405.6,541,404.8,541,404z"/>
		<path fill="#FFFFFF" d="M562.2,411.2h-2.8v-8.8c0-1.7-0.2-2.9-0.6-3.6c-0.6-1.1-1.6-1.6-3.1-1.6c-1.9,0-3.2,0.8-3.9,2.3
			c-0.3,0.7-0.4,1.8-0.4,3.4v8.2h-2.8v-15.7h2.8v2c1.5-1.6,3.4-2.3,5.4-2.3c2.6,0,4.3,1,5,3.1c0.2,0.7,0.4,2.1,0.4,4.1L562.2,411.2
			L562.2,411.2z"/>
		<path fill="#FFFFFF" d="M579.1,410c-1.5,1.1-3.2,1.6-5.2,1.6c-2.3,0-4.2-0.8-5.7-2.4c-1.5-1.5-2.2-3.5-2.2-5.8
			c0-2.4,0.8-4.4,2.3-5.9c1.5-1.5,3.5-2.3,5.9-2.3c1.7,0,3.1,0.4,4.4,1.3l-1,1.6c-1.1-0.6-2.2-0.9-3.2-0.9c-1.7,0-3,0.6-4,1.7
			c-1,1.1-1.5,2.6-1.5,4.4c0,2,0.5,3.5,1.5,4.7s2.3,1.7,4,1.7c1.3,0,2.6-0.4,3.8-1.2L579.1,410z"/>
		<path fill="#FFFFFF" d="M595.3,395.8l-7.8,17.7c-0.9,2-1.7,3.3-2.5,4.1c-1.1,1-2.6,1.5-4.5,1.5h-0.7V417h0.7
			c1.1,0,1.9-0.1,2.4-0.4s1-0.8,1.5-1.6c0.3-0.5,1-2,2.2-4.5l-6.4-14.3l2.8-0.7l4.8,12.1l5.1-12.1L595.3,395.8z"/>
	</g>
	<g>
		<path fill="#FFFFFF" d="M130.2,448.4h-3c-0.2-0.6-0.3-0.9-0.3-1c-0.1-0.3-0.1-0.7-0.1-1.3c-1.3,1.8-3,2.7-5.1,2.7
			c-1.3,0-2.3-0.4-3.1-1.2c-0.8-0.8-1.3-1.9-1.3-3.2c0-2,1.1-3.5,3.2-4.6c1-0.5,2.3-1,3.6-1.4c1-0.3,1.9-0.5,2.6-0.6
			c-0.2-2.4-1.4-3.6-3.4-3.6c-1.3,0-2.6,0.6-4,1.7l-1.1-1.4c1.5-1.4,3.4-2.1,5.6-2.1c2.2,0,3.8,0.7,4.7,2c0.4,0.5,0.6,1.1,0.7,1.6
			c0.2,0.6,0.2,1.6,0.2,2.9v4.5c0,1.4,0,2.4,0.1,3C129.7,447,129.9,447.7,130.2,448.4z M126.7,441.2v-1.5c-0.1,0-0.7,0.1-1.9,0.4
			c-3.2,0.7-4.8,2-4.8,3.9c0,0.8,0.2,1.4,0.7,1.9c0.5,0.5,1,0.7,1.8,0.7c1,0,1.9-0.3,2.6-1c0.6-0.6,1-1.2,1.3-1.9
			C126.6,442.7,126.8,441.9,126.7,441.2z"/>
		<path fill="#FFFFFF" d="M148,448.4h-2.8v-8.8c0-1.7-0.2-2.9-0.6-3.6c-0.6-1.1-1.6-1.6-3.1-1.6c-1.9,0-3.2,0.8-3.9,2.3
			c-0.3,0.7-0.4,1.8-0.4,3.4v8.2h-2.8v-15.7h2.8v2c1.5-1.6,3.4-2.3,5.4-2.3c2.6,0,4.3,1,5,3.1c0.2,0.7,0.4,2.1,0.4,4.1L148,448.4
			L148,448.4z"/>
		<path fill="#FFFFFF" d="M167.1,448.4h-2.7V446c-1.5,1.9-3.4,2.8-5.5,2.8c-2.2,0-4-0.8-5.3-2.5c-1.2-1.5-1.8-3.4-1.8-5.7
			c0-2.4,0.7-4.4,2.2-5.9c1.4-1.6,3.2-2.3,5.4-2.3c2,0,3.7,0.8,5,2.3v-9.3h2.7L167.1,448.4L167.1,448.4z M164.4,440.3
			c0-1.8-0.4-3.2-1.3-4.3c-0.9-1.1-2.1-1.6-3.5-1.6c-1.4,0-2.6,0.5-3.4,1.6c-0.8,1-1.3,2.5-1.3,4.4c0,2,0.4,3.6,1.3,4.8
			s2,1.8,3.4,1.8c1.5,0,2.6-0.6,3.5-1.8C163.9,443.8,164.4,442.2,164.4,440.3z"/>
		<path fill="#FFFFFF" d="M187.1,426l-0.6,1.4c-0.5-0.2-1-0.2-1.4-0.2c-1,0-1.7,0.4-2,1.3c-0.1,0.3-0.2,1.1-0.2,2.3v2h3.8v1.7h-3.8
			v14h-2.8v-14h-2.5v-1.7h2.5v-1.5c0-1.8,0.3-3.1,0.8-3.9c0.9-1.3,2.2-1.9,3.8-1.9C185.5,425.4,186.3,425.6,187.1,426z"/>
		<path fill="#FFFFFF" d="M192.8,427.7c0,0.5-0.2,0.9-0.5,1.3c-0.4,0.4-0.8,0.5-1.3,0.5s-0.9-0.2-1.3-0.5s-0.5-0.7-0.5-1.2
			c0-1.2,0.6-1.9,1.8-1.9c0.5,0,0.9,0.2,1.3,0.5C192.7,426.8,192.8,427.2,192.8,427.7z M192.4,448.4h-2.8v-15.7h2.8V448.4z"/>
		<path fill="#FFFFFF" d="M211.1,448.4h-2.8v-8.8c0-1.7-0.2-2.9-0.6-3.6c-0.6-1.1-1.6-1.6-3.1-1.6c-1.9,0-3.2,0.8-3.9,2.3
			c-0.3,0.7-0.4,1.8-0.4,3.4v8.2h-2.8v-15.7h2.8v2c1.5-1.6,3.4-2.3,5.4-2.3c2.6,0,4.3,1,5,3.1c0.2,0.7,0.4,2.1,0.4,4.1L211.1,448.4
			L211.1,448.4z"/>
		<path fill="#FFFFFF" d="M227.9,448.4h-3c-0.2-0.6-0.3-0.9-0.3-1c-0.1-0.3-0.1-0.7-0.1-1.3c-1.3,1.8-3,2.7-5.1,2.7
			c-1.3,0-2.3-0.4-3.1-1.2c-0.8-0.8-1.3-1.9-1.3-3.2c0-2,1.1-3.5,3.2-4.6c1-0.5,2.3-1,3.6-1.4c1-0.3,1.9-0.5,2.6-0.6
			c-0.2-2.4-1.4-3.6-3.4-3.6c-1.3,0-2.6,0.6-4,1.7l-1.1-1.4c1.5-1.4,3.4-2.1,5.6-2.1c2.2,0,3.8,0.7,4.7,2c0.4,0.5,0.6,1.1,0.7,1.6
			c0.2,0.6,0.2,1.6,0.2,2.9v4.5c0,1.4,0,2.4,0.1,3C227.4,447,227.6,447.7,227.9,448.4z M224.5,441.2v-1.5c-0.1,0-0.7,0.1-1.9,0.4
			c-3.2,0.7-4.8,2-4.8,3.9c0,0.8,0.2,1.4,0.7,1.9c0.5,0.5,1,0.7,1.8,0.7c1,0,1.9-0.3,2.6-1c0.6-0.6,1-1.2,1.3-1.9
			C224.4,442.7,224.5,441.9,224.5,441.2z"/>
		<path fill="#FFFFFF" d="M245.8,448.4H243v-8.8c0-1.7-0.2-2.9-0.6-3.6c-0.6-1.1-1.6-1.6-3.1-1.6c-1.9,0-3.2,0.8-3.9,2.3
			c-0.3,0.7-0.4,1.8-0.4,3.4v8.2h-2.8v-15.7h2.8v2c1.5-1.6,3.4-2.3,5.4-2.3c2.6,0,4.3,1,5,3.1c0.2,0.7,0.4,2.1,0.4,4.1V448.4z"/>
		<path fill="#FFFFFF" d="M262.6,447.1c-1.5,1.1-3.2,1.6-5.2,1.6c-2.3,0-4.2-0.8-5.7-2.4c-1.5-1.5-2.2-3.5-2.2-5.8
			c0-2.4,0.8-4.4,2.3-5.9c1.5-1.5,3.5-2.3,5.9-2.3c1.7,0,3.1,0.4,4.4,1.3l-1,1.6c-1.1-0.6-2.2-0.9-3.2-0.9c-1.7,0-3,0.6-4,1.7
			c-1,1.1-1.5,2.6-1.5,4.4c0,2,0.5,3.5,1.5,4.7c1,1.2,2.3,1.7,4,1.7c1.3,0,2.6-0.4,3.8-1.2L262.6,447.1z"/>
		<path fill="#FFFFFF" d="M278.2,440.7h-10.6c0,1.9,0.6,3.3,1.5,4.4c1,1.1,2.3,1.7,3.9,1.7c1.4,0,2.8-0.5,4.1-1.4l0.8,1.5
			c-1.9,1.2-3.7,1.8-5.6,1.8c-2.4,0-4.3-0.8-5.7-2.4c-1.4-1.6-2-3.6-2-6c0-2.3,0.7-4.2,2-5.7c1.3-1.5,3.1-2.3,5.3-2.3
			c2.9,0,4.8,1.3,5.7,3.9C278,437.3,278.2,438.8,278.2,440.7z M275.5,438.9c0-1.3-0.2-2.4-0.7-3.2c-0.6-1-1.6-1.5-2.8-1.5
			c-1.2,0-2.2,0.4-2.9,1.2c-0.8,0.8-1.2,2-1.3,3.4L275.5,438.9L275.5,438.9z"/>
		<path fill="#FFFFFF" d="M305.5,440.2c0,2.5-0.7,4.5-2.2,6.1c-1.4,1.6-3.2,2.4-5.4,2.4c-1.9,0-3.6-0.8-5-2.5v9.9h-2.7v-23.5h2.7
			v2.4c1.3-1.8,3.2-2.8,5.6-2.8c2.1,0,3.8,0.7,5.1,2.2C304.9,436,305.5,437.9,305.5,440.2z M302.5,440.3c0-1.9-0.4-3.3-1.3-4.4
			c-0.8-1.1-2-1.6-3.4-1.6c-1.5,0-2.7,0.6-3.6,1.8c-0.9,1.2-1.3,2.7-1.3,4.7c0,1.9,0.4,3.3,1.3,4.4c0.9,1.1,2.1,1.6,3.6,1.6
			c1.6,0,2.8-0.7,3.6-2.1C302.2,443.5,302.5,442,302.5,440.3z"/>
		<path fill="#FFFFFF" d="M318.6,433.9l-1.4,1.9c-1-0.5-1.7-0.8-2.1-0.8c-1.1,0-1.8,0.6-2.2,1.9c-0.3,0.9-0.4,2.2-0.4,4v7.4h-2.8
			v-15.7h2.8v2.2l0.7-1c0.7-1,1.5-1.6,2.6-1.6C316.6,432.3,317.5,432.9,318.6,433.9z"/>
		<path fill="#FFFFFF" d="M334.7,440.4c0,2.4-0.7,4.4-2.2,6s-3.3,2.3-5.5,2.3c-2.3,0-4.1-0.8-5.6-2.3c-1.5-1.5-2.2-3.6-2.2-6
			c0-2.4,0.7-4.4,2.2-5.9c1.5-1.5,3.3-2.3,5.6-2.3c2.2,0,4,0.8,5.4,2.3C334,436.2,334.7,438.1,334.7,440.4z M331.7,440.4
			c0-1.9-0.4-3.4-1.3-4.5c-0.8-1.1-2-1.6-3.5-1.6c-1.4,0-2.5,0.6-3.4,1.6c-0.8,1.1-1.2,2.6-1.2,4.5c0,2,0.4,3.6,1.2,4.7
			c0.8,1.1,2,1.7,3.5,1.7c1.5,0,2.6-0.6,3.4-1.7C331.3,444,331.7,442.4,331.7,440.4z"/>
		<path fill="#FFFFFF" d="M345.8,426l-0.6,1.4c-0.5-0.2-1-0.2-1.4-0.2c-1,0-1.7,0.4-2,1.3c-0.1,0.3-0.2,1.1-0.2,2.3v2h3.8v1.7h-3.8
			v14h-2.8v-14h-2.5v-1.7h2.5v-1.5c0-1.8,0.3-3.1,0.8-3.9c0.9-1.3,2.2-1.9,3.8-1.9C344.2,425.4,345,425.6,345.8,426z"/>
		<path fill="#FFFFFF" d="M360,440.7h-10.6c0,1.9,0.6,3.3,1.5,4.4c1,1.1,2.3,1.7,3.9,1.7c1.4,0,2.8-0.5,4.1-1.4l0.8,1.5
			c-1.9,1.2-3.7,1.8-5.6,1.8c-2.4,0-4.3-0.8-5.7-2.4c-1.4-1.6-2-3.6-2-6c0-2.3,0.7-4.2,2-5.7c1.3-1.5,3.1-2.3,5.3-2.3
			c2.9,0,4.8,1.3,5.7,3.9C359.8,437.3,360,438.8,360,440.7z M357.3,438.9c0-1.3-0.2-2.4-0.7-3.2c-0.6-1-1.6-1.5-2.8-1.5
			c-1.2,0-2.2,0.4-2.9,1.2c-0.8,0.8-1.2,2-1.3,3.4L357.3,438.9L357.3,438.9z"/>
		<path fill="#FFFFFF" d="M372.6,444.2c0,1.4-0.5,2.5-1.5,3.3c-1,0.8-2.3,1.3-3.8,1.3c-1.8,0-3.4-0.7-5-2l1.4-1.6
			c1.1,1.1,2.3,1.6,3.4,1.6c0.8,0,1.4-0.2,1.9-0.6c0.5-0.4,0.7-1,0.7-1.7c0-0.6-0.2-1.1-0.5-1.5c-0.3-0.4-1-1-2.2-1.8
			c-1.3-0.9-2.1-1.6-2.5-2c-0.8-0.9-1.3-1.8-1.3-2.8c0-1.2,0.5-2.2,1.4-2.9s2.1-1.2,3.5-1.2c1.5,0,2.8,0.5,4.1,1.4l-1.1,1.5
			c-0.9-0.7-1.8-1-2.9-1c-0.7,0-1.2,0.2-1.7,0.5s-0.7,0.7-0.7,1.3c0,0.7,0.6,1.5,1.9,2.4c1.9,1.4,3.2,2.4,3.8,3.2
			C372.3,442.3,372.6,443.2,372.6,444.2z"/>
		<path fill="#FFFFFF" d="M385.6,444.2c0,1.4-0.5,2.5-1.5,3.3c-1,0.8-2.3,1.3-3.8,1.3c-1.8,0-3.4-0.7-5-2l1.4-1.6
			c1.1,1.1,2.3,1.6,3.4,1.6c0.8,0,1.4-0.2,1.9-0.6c0.5-0.4,0.7-1,0.7-1.7c0-0.6-0.2-1.1-0.5-1.5c-0.3-0.4-1-1-2.2-1.8
			c-1.3-0.9-2.1-1.6-2.5-2c-0.8-0.9-1.3-1.8-1.3-2.8c0-1.2,0.5-2.2,1.4-2.9s2.1-1.2,3.5-1.2c1.5,0,2.8,0.5,4.1,1.4l-1.1,1.5
			c-0.9-0.7-1.8-1-2.9-1c-0.7,0-1.2,0.2-1.7,0.5c-0.4,0.3-0.7,0.7-0.7,1.3c0,0.7,0.6,1.5,1.9,2.4c1.9,1.4,3.2,2.4,3.8,3.2
			C385.3,442.3,385.6,443.2,385.6,444.2z"/>
		<path fill="#FFFFFF" d="M392.6,427.7c0,0.5-0.2,0.9-0.5,1.3c-0.4,0.4-0.8,0.5-1.3,0.5c-0.5,0-0.9-0.2-1.3-0.5
			c-0.4-0.3-0.5-0.7-0.5-1.2c0-1.2,0.6-1.9,1.8-1.9c0.5,0,0.9,0.2,1.3,0.5C392.4,426.8,392.6,427.2,392.6,427.7z M392.2,448.4h-2.8
			v-15.7h2.8V448.4z"/>
		<path fill="#FFFFFF" d="M411.3,440.4c0,2.4-0.7,4.4-2.2,6s-3.3,2.3-5.5,2.3c-2.3,0-4.1-0.8-5.6-2.3c-1.5-1.5-2.2-3.6-2.2-6
			c0-2.4,0.7-4.4,2.2-5.9c1.5-1.5,3.3-2.3,5.6-2.3c2.2,0,4,0.8,5.4,2.3C410.6,436.2,411.3,438.1,411.3,440.4z M408.3,440.4
			c0-1.9-0.4-3.4-1.3-4.5c-0.8-1.1-2-1.6-3.5-1.6c-1.4,0-2.5,0.6-3.4,1.6c-0.8,1.1-1.2,2.6-1.2,4.5c0,2,0.4,3.6,1.2,4.7
			c0.8,1.1,2,1.7,3.5,1.7c1.5,0,2.6-0.6,3.4-1.7C407.9,444,408.3,442.4,408.3,440.4z"/>
		<path fill="#FFFFFF" d="M429.2,448.4h-2.8v-8.8c0-1.7-0.2-2.9-0.6-3.6c-0.6-1.1-1.6-1.6-3.1-1.6c-1.9,0-3.2,0.8-3.9,2.3
			c-0.3,0.7-0.4,1.8-0.4,3.4v8.2h-2.8v-15.7h2.8v2c1.5-1.6,3.4-2.3,5.4-2.3c2.6,0,4.3,1,5,3.1c0.2,0.7,0.4,2.1,0.4,4.1L429.2,448.4
			L429.2,448.4z"/>
	</g>
</g>
</svg>
