<!-- Generated by IcoMoon.io -->
<svg version="1.1" xmlns="http://www.w3.org/2000/svg" width="17" height="17" viewBox="0 0 17 17">
<title>bell2</title>
<path d="M15.035 11.818c-0.62-0.754-1.469-1.822-1.469-2.911v-3.469c0-2.989-2.235-5.42-5.091-5.42s-5.075 2.432-5.075 5.42v3.469c0 1.071-0.921 2.083-1.505 2.869-0.525 0.706-0.94 1.263-0.66 1.821 0.246 0.49 0.863 0.553 1.372 0.553h3.044c0.001 1.564 1.269 2.832 2.833 2.832s2.833-1.268 2.834-2.832h3.116c0.324 0 1.082 0 1.342-0.551 0.263-0.558-0.158-1.071-0.741-1.78zM8.484 15.869c-0.95 0-1.72-0.77-1.722-1.719h3.444c-0.001 0.949-0.771 1.719-1.722 1.719zM14.433 13.019h-11.827c-0.081 0-0.149-0.003-0.205-0.006 0.109-0.169 0.27-0.386 0.401-0.562 0.647-0.87 1.729-2.098 1.729-3.543v-3.469c0-2.365 1.711-4.289 3.943-4.289s3.96 1.924 3.96 4.289v3.469c0 1.494 0.997 2.743 1.726 3.629 0.123 0.149 0.27 0.328 0.384 0.481-0.034 0.001-0.071 0.001-0.111 0.001z"></path>
</svg>
