<!-- Generated by IcoMoon.io -->
<svg version="1.1" xmlns="http://www.w3.org/2000/svg" width="17" height="17" viewBox="0 0 17 17">
<title>bulb</title>
<path d="M8.5 0c-3.288 0-5.862 2.675-5.862 5.962 0 2.477 1.217 3.657 2.178 4.518 0.619 0.555 1.035 0.889 1.035 1.301v0.901c0 0.023 0.003 0.046 0.006 0.069h-0.012v1.538c0 1.622 1.049 2.712 2.674 2.712 1.568 0 2.639-1.090 2.639-2.712v-1.538h-0.015c0.003-0.023 0.007-0.045 0.007-0.069v-0.901c0-0.627 0.465-1.006 1.171-1.622 0.955-0.834 2.042-1.871 2.042-4.197 0-3.288-2.575-5.962-5.863-5.962zM8.48 15.938c-0.994 0-1.572-0.617-1.572-1.65l-0.008-0.708c0.382 0.131 0.903 0.233 1.6 0.233 0.688 0 1.209-0.11 1.595-0.245v0.72c0 1.048-0.585 1.65-1.616 1.65zM11.621 9.358c-0.722 0.63-1.535 1.282-1.535 2.422v0.671c-0.252 0.141-0.717 0.308-1.596 0.308-0.923 0-1.36-0.164-1.578-0.29v-0.69c0-0.907-0.709-1.482-1.389-2.092-0.902-0.808-1.824-1.724-1.824-3.726-0-2.701 2.098-4.899 4.8-4.899s4.8 2.198 4.8 4.9c0 1.843-0.805 2.633-1.679 3.396z"></path>
</svg>
