<!-- Generated by IcoMoon.io -->
<svg version="1.1" xmlns="http://www.w3.org/2000/svg" width="17" height="17" viewBox="0 0 17 17">
<title>calculator</title>
<path d="M15.938-0.002h-14.875c-0.584 0-1.063 0.478-1.063 1.063v14.878c0 0.584 0.478 1.063 1.063 1.063h14.875c0.584 0 1.063-0.478 1.063-1.063v-14.878c0-0.584-0.478-1.063-1.063-1.063zM15.938 15.939h-14.875v-14.878h14.875v14.878zM3.719 5.849h1.063v1.063c0 0.293 0.238 0.531 0.531 0.531s0.531-0.238 0.531-0.531v-1.063h1.063c0.293 0 0.531-0.238 0.531-0.531s-0.238-0.531-0.531-0.531h-1.063v-1.063c0-0.293-0.238-0.531-0.531-0.531s-0.531 0.238-0.531 0.531v1.063h-1.063c-0.293 0-0.531 0.238-0.531 0.531s0.238 0.531 0.531 0.531zM7.191 9.814c-0.207-0.207-0.544-0.207-0.751 0l-1.127 1.127-1.127-1.127c-0.207-0.207-0.544-0.207-0.751 0s-0.207 0.544 0 0.751l1.127 1.127-1.127 1.127c-0.207 0.207-0.207 0.544 0 0.751s0.544 0.207 0.751 0l1.127-1.127 1.127 1.127c0.207 0.207 0.544 0.207 0.751 0s0.207-0.544 0-0.751l-1.127-1.127 1.127-1.127c0.207-0.208 0.207-0.544 0-0.752zM10.094 5.849h3.188c0.293 0 0.531-0.238 0.531-0.531s-0.238-0.531-0.531-0.531h-3.188c-0.293 0-0.531 0.238-0.531 0.531s0.238 0.531 0.531 0.531zM10.094 11.161h3.188c0.293 0 0.531-0.238 0.531-0.531s-0.238-0.531-0.531-0.531h-3.188c-0.293 0-0.531 0.238-0.531 0.531s0.238 0.531 0.531 0.531zM10.094 13.286h3.188c0.293 0 0.531-0.238 0.531-0.531s-0.238-0.531-0.531-0.531h-3.188c-0.293 0-0.531 0.238-0.531 0.531s0.238 0.531 0.531 0.531z"></path>
</svg>
