<!-- Generated by IcoMoon.io -->
<svg version="1.1" xmlns="http://www.w3.org/2000/svg" width="17" height="17" viewBox="0 0 17 17">
<title>camera2</title>
<path d="M15.406 3.719h-2.443l-1.275-2.125h-6.375l-1.275 2.125h-2.444c-0.531 0-1.594 0.531-1.594 1.577v8.516c0 0.88 0.797 1.594 1.483 1.594h13.956c0.697 0 1.561-0.747 1.561-1.577v-8.517c0-0.531-0.531-1.594-1.594-1.594zM15.938 13.829c0 0.21-0.34 0.503-0.498 0.515h-13.953c-0.123-0.010-0.424-0.25-0.424-0.532v-8.516c0-0.337 0.452-0.506 0.531-0.515h3.045l1.275-2.125h5.207l0.948 1.609 0.292 0.516h3.045c0.375 0 0.526 0.489 0.531 0.531v8.517zM8.5 5.313c-2.054 0-3.719 1.665-3.719 3.719s1.665 3.719 3.719 3.719 3.719-1.665 3.719-3.719-1.665-3.719-3.719-3.719zM8.5 11.688c-1.465 0-2.656-1.192-2.656-2.656s1.192-2.656 2.656-2.656 2.656 1.192 2.656 2.656-1.192 2.656-2.656 2.656z"></path>
</svg>
