<!-- Generated by IcoMoon.io -->
<svg version="1.1" xmlns="http://www.w3.org/2000/svg" width="17" height="17" viewBox="0 0 17 17">
<title>cloud-upload</title>
<path d="M12.667 4.316c-0.741-1.966-2.334-3.211-4.739-3.211-3.061 0-5.203 2.273-5.387 5.238-1.476 0.472-2.541 1.978-2.541 3.683 0 2.088 1.641 3.851 3.583 3.851h1.535c0.293 0 0.531-0.238 0.531-0.531s-0.238-0.531-0.531-0.531h-1.535c-1.366 0-2.537-1.277-2.537-2.789 0-1.336 0.937-2.541 2.111-2.743l0.482-0.083-0.043-0.487-0.004-0.006c0-2.588 1.703-4.54 4.336-4.54 2.11 0 3.296 1.040 3.844 2.813l0.114 0.366 0.383 0.008c1.974 0.041 3.704 1.643 3.704 3.632 0 1.81-1.2 3.828-3.016 3.828h-1.214c-0.293 0-0.531 0.238-0.531 0.531s0.238 0.531 0.531 0.531l1.21-0.002c2.656-0.070 4.040-2.608 4.040-4.889 0-2.452-1.922-4.412-4.324-4.67zM8.898 8.549c-0.003-0.003-0.004-0.006-0.006-0.008l-0.134-0.141c-0.074-0.078-0.172-0.116-0.27-0.116-0.098-0.001-0.196 0.038-0.27 0.116l-0.134 0.141c-0.003 0.003-0.003 0.006-0.006 0.008l-1.918 2.121c-0.148 0.155-0.148 0.406 0 0.562l0.134 0.091c0.148 0.155 0.389 0.105 0.537-0.050l1.131-1.261v5.353c0 0.293 0.238 0.531 0.531 0.531s0.531-0.238 0.531-0.531v-5.348l1.168 1.289c0.148 0.155 0.389 0.205 0.537 0.050l0.134-0.091c0.148-0.156 0.148-0.407 0-0.562l-1.966-2.154z"></path>
</svg>
