<!-- Generated by IcoMoon.io -->
<svg version="1.1" xmlns="http://www.w3.org/2000/svg" width="17" height="17" viewBox="0 0 17 17">
<title>control-end</title>
<path d="M15.671 0c-0.293 0-0.531 0.238-0.531 0.531v7.803c-0.048-0.302-0.223-0.572-0.488-0.737l-12.214-7.414c-0.171-0.106-0.366-0.16-0.561-0.16-0.178 0-0.355 0.044-0.516 0.134-0.337 0.187-0.546 0.543-0.546 0.929l-0.017 14.829c0 0.386 0.209 0.741 0.546 0.929 0.161 0.089 0.338 0.134 0.516 0.134 0.194 0 0.39-0.053 0.561-0.16l12.231-7.414c0.265-0.164 0.44-0.434 0.488-0.736v7.803c0 0.293 0.238 0.531 0.531 0.531s0.531-0.238 0.531-0.531v-15.938c0-0.293-0.238-0.531-0.531-0.531zM1.86 15.914l0.016-14.829 12.215 7.414-12.231 7.415z"></path>
</svg>
