<!-- Generated by IcoMoon.io -->
<svg version="1.1" xmlns="http://www.w3.org/2000/svg" width="17" height="17" viewBox="0 0 17 17">
<title>cup2</title>
<path d="M13.822 6.903c-0.138 0-0.584-0.003-1.068-0.006l0.002-1.062c0-0.587-0.476-1.063-1.063-1.063l-10.633-0.003c-0.587 0-1.063 0.476-1.063 1.063v7.984c0 1.76 1.427 3.188 3.188 3.188h6.386c1.76 0 3.171-1.427 3.171-3.188l0.001-0.545c0.482 0.004 0.973 0.007 1.079 0.007 1.756 0 3.18-1.412 3.18-3.172s-1.425-3.203-3.181-3.203zM11.68 13.816c0 1.172-0.936 2.125-2.109 2.125h-6.386c-1.172 0-2.125-0.953-2.125-2.125l-0.002-7.984 10.635 0.003-0.014 7.981zM13.822 12.231c-0.105 0-0.596-0.003-1.077-0.007l0.007-4.264c0.483 0.003 0.93 0.006 1.069 0.006 1.214 0 2.135 0.906 2.135 2.122s-0.921 2.142-2.135 2.142zM9.56 3.715c0.293 0 0.531-0.238 0.531-0.531v-2.656c0-0.293-0.238-0.531-0.531-0.531s-0.531 0.238-0.531 0.531v2.656c0 0.294 0.238 0.531 0.531 0.531zM3.185 3.715c0.293 0 0.531-0.238 0.531-0.531v-2.656c0-0.293-0.238-0.531-0.531-0.531s-0.531 0.238-0.531 0.531v2.656c0 0.294 0.238 0.531 0.531 0.531zM6.373 3.715c0.293 0 0.531-0.238 0.531-0.531v-2.656c0-0.293-0.238-0.531-0.531-0.531s-0.531 0.238-0.531 0.531v2.656c0 0.294 0.238 0.531 0.531 0.531z"></path>
</svg>
