<!-- Generated by IcoMoon.io -->
<svg version="1.1" xmlns="http://www.w3.org/2000/svg" width="17" height="17" viewBox="0 0 17 17">
<title>ghost</title>
<path d="M8.5-0.002c-3.805 0-6.901 3.319-6.901 7.398v9.076c0 0.219 0.135 0.416 0.34 0.495 0.062 0.024 0.127 0.036 0.191 0.036 0.147 0 0.291-0.061 0.394-0.175l2.002-2.21 1.568 2.165c0.099 0.137 0.257 0.218 0.426 0.219h0.004c0.168 0 0.326-0.079 0.426-0.214l1.574-2.114 1.547 2.111c0.1 0.137 0.259 0.217 0.428 0.217s0.328-0.080 0.428-0.217l1.587-2.163 1.959 2.202c0.146 0.164 0.381 0.222 0.586 0.143 0.206-0.078 0.342-0.276 0.342-0.496v-9.076c0-4.079-3.096-7.397-6.901-7.397zM14.339 15.075l-1.468-1.65c-0.107-0.12-0.262-0.188-0.422-0.177-0.16 0.008-0.309 0.087-0.404 0.216l-1.546 2.109-1.544-2.107c-0.1-0.136-0.258-0.217-0.426-0.217h-0.002c-0.168 0-0.326 0.079-0.426 0.214l-1.572 2.111-1.527-2.11c-0.094-0.13-0.241-0.21-0.401-0.218-0.010-0.001-0.019-0.001-0.029-0.001-0.15 0-0.293 0.063-0.394 0.175l-1.517 1.674v-7.698c0-3.493 2.619-6.335 5.838-6.335s5.839 2.842 5.839 6.335v7.679zM11.156 5.846c-0.586 0-1.060 0.475-1.060 1.059s0.474 1.060 1.060 1.060 1.060-0.475 1.060-1.060c0-0.585-0.474-1.059-1.060-1.059zM5.844 5.846c-0.586 0-1.060 0.475-1.060 1.059s0.474 1.060 1.060 1.060 1.060-0.475 1.060-1.060c0-0.585-0.474-1.059-1.060-1.059z"></path>
</svg>
