<!-- Generated by IcoMoon.io -->
<svg version="1.1" xmlns="http://www.w3.org/2000/svg" width="17" height="17" viewBox="0 0 17 17">
<title>globe-alt</title>
<path d="M15.431 6.88c0-2.802-1.477-5.344-3.951-6.799-0.253-0.15-0.579-0.064-0.727 0.189s-0.064 0.579 0.189 0.727c2.146 1.262 3.427 3.462 3.427 5.883 0 4.024-2.921 6.944-6.945 6.944-0.9 0-1.773-0.169-2.595-0.501-0.272-0.111-0.582 0.021-0.692 0.293s0.021 0.582 0.293 0.692c0.95 0.384 1.957 0.579 2.994 0.579 0.003 0 0.006-0 0.010-0v1.046h-1.543c-0.307 0-0.555 0.237-0.555 0.53s0.249 0.53 0.555 0.53h4.198c0.307 0 0.555-0.237 0.555-0.53s-0.249-0.53-0.555-0.53h-1.6v-1.109c4.081-0.474 6.943-3.667 6.943-7.944zM13.271 6.928c0-3.232-2.619-5.867-5.85-5.867s-5.851 2.636-5.851 5.867 2.619 5.834 5.851 5.834c3.232 0 5.85-2.603 5.85-5.834zM2.631 6.928c0-2.64 2.148-4.805 4.789-4.805s4.788 2.164 4.788 4.805-2.148 4.772-4.788 4.772c-2.641 0-4.789-2.132-4.789-4.772z"></path>
</svg>
