<!-- Generated by IcoMoon.io -->
<svg version="1.1" xmlns="http://www.w3.org/2000/svg" width="17" height="17" viewBox="0 0 17 17">
<title>graduation</title>
<path d="M16.45 11.56v-4.286l0.267-0.141c0.174-0.090 0.283-0.269 0.285-0.465s-0.104-0.377-0.275-0.471l-7.993-4.277c-0.16-0.088-0.353-0.087-0.514 0.002l-7.949 4.282c-0.169 0.094-0.274 0.273-0.273 0.468s0.108 0.372 0.279 0.464l3.493 1.859c-0.044 0.077-0.071 0.165-0.071 0.261v4.495c0 0.151 0.065 0.296 0.178 0.397 0.115 0.102 1.219 0.998 4.595 0.998 3.363 0 4.497-0.846 4.615-0.943 0.124-0.101 0.195-0.252 0.195-0.411v-4.611c0-0.075-0.016-0.146-0.043-0.21l2.149-1.135v3.727c-0.315 0.184-0.529 0.522-0.529 0.913 0 0.587 0.476 1.063 1.063 1.063s1.063-0.476 1.063-1.063c0-0.393-0.216-0.733-0.534-0.916zM12.219 13.487c-0.418 0.201-1.523 0.596-3.748 0.596-2.239 0-3.319-0.421-3.71-0.623v-3.937l3.45 1.837c0.078 0.042 0.165 0.064 0.252 0.064 0.084 0 0.169-0.020 0.246-0.061l3.51-1.854v3.978zM8.468 10.29l-6.833-3.628 6.845-3.669 6.866 3.658-6.878 3.639z"></path>
</svg>
