<!-- Generated by IcoMoon.io -->
<svg version="1.1" xmlns="http://www.w3.org/2000/svg" width="17" height="17" viewBox="0 0 17 17">
<title>moustache</title>
<path d="M13.163 12.231c-1.682 0-2.637-0.791-3.27-1.314-0.224-0.185-0.427-0.364-0.612-0.526-0.281-0.246-0.631-0.554-0.753-0.596-0.004 0-0.062-0.003-0.065-0.003-0.019 0.002-0.069 0.011-0.074 0.012-0.084 0.034-0.383 0.292-0.624 0.498-0.218 0.187-0.467 0.401-0.748 0.62l-0.051 0.039c-0.722 0.563-1.62 1.264-3.207 1.264-1.179 0-2.34-0.533-3.031-1.392-0.464-0.576-0.951-1.578-0.642-3.079 0.037-0.182 0.166-0.33 0.339-0.392 0.174-0.063 0.365-0.028 0.508 0.089 0.010 0.008 0.375 0.288 0.98 0.288 0.305 0 0.623-0.072 0.944-0.215 0.55-0.245 0.942-0.932 1.357-1.396 0.567-0.634 1.209-1.351 2.269-1.36 0.731 0 1.391 0.27 1.98 0.805 0.586-0.532 1.241-0.801 1.954-0.801 1.081 0.008 1.736 0.727 2.315 1.361 0.422 0.463 0.821 1.149 1.371 1.394 0.321 0.143 0.642 0.215 0.954 0.215 0.629 0 1.021-0.287 1.037-0.3 0.146-0.108 0.337-0.136 0.506-0.070s0.294 0.214 0.327 0.393c0.284 1.485-0.215 2.48-0.684 3.054-0.71 0.87-1.891 1.41-3.081 1.41zM8.479 8.73c0.016 0 0.061 0.002 0.077 0.003 0.001 0 0.078 0.006 0.078 0.006 0.006 0.001 0.050 0.006 0.055 0.007 0.384 0.054 0.741 0.367 1.282 0.841 0.178 0.156 0.373 0.328 0.589 0.506 0.577 0.478 1.297 1.073 2.603 1.073 0.885 0 1.756-0.392 2.271-1.024 0.339-0.415 0.515-0.908 0.526-1.474-0.249 0.078-0.553 0.136-0.902 0.136-0.459 0-0.923-0.103-1.378-0.305-0.751-0.334-1.267-1.148-1.721-1.646-0.573-0.629-0.954-1.014-1.529-1.019-0.766 0-1.261 0.482-1.567 0.845-0.1 0.118-0.246 0.186-0.4 0.186v0c-0.154 0-0.3-0.069-0.4-0.187-0.308-0.364-0.804-0.849-1.558-0.849-0.583 0.004-0.953 0.386-1.511 1.010-0.449 0.502-0.958 1.319-1.714 1.655-0.455 0.202-0.915 0.305-1.366 0.305-0.339 0-0.632-0.057-0.874-0.133-0.001 0.576 0.168 1.078 0.504 1.495 0.497 0.617 1.345 1 2.215 1 1.229 0 1.907-0.53 2.564-1.043l0.051-0.040c0.266-0.208 0.502-0.411 0.709-0.588 0.473-0.407 0.786-0.675 1.123-0.735v0c0 0 0.161-0.027 0.272-0.027z"></path>
</svg>
