<!-- Generated by IcoMoon.io -->
<svg version="1.1" xmlns="http://www.w3.org/2000/svg" width="17" height="17" viewBox="0 0 17 17">
<title>mouse2</title>
<path d="M8.526 0c-2.625 0-4.806 2.129-4.806 4.754v7.492c0 2.625 2.181 4.754 4.806 4.754s4.754-2.129 4.754-4.754v-7.493c0-2.625-2.129-4.754-4.754-4.754zM12.218 12.246c0 2.035-1.656 3.691-3.691 3.691s-3.744-1.656-3.744-3.691v-7.493c0-2.035 1.709-3.691 3.744-3.691s3.691 1.656 3.691 3.691v7.493zM8.506 3.188c-0.293 0-0.531 0.238-0.531 0.531v2.656c0 0.293 0.238 0.531 0.531 0.531s0.531-0.238 0.531-0.531v-2.656c0-0.293-0.238-0.531-0.531-0.531z"></path>
</svg>
