<!-- Generated by IcoMoon.io -->
<svg version="1.1" xmlns="http://www.w3.org/2000/svg" width="17" height="17" viewBox="0 0 17 17">
<title>printer2</title>
<path d="M15.817 4.232h-2.004v-4.224h-10.626v4.224h-2.004c-0.653 0-1.184 0.531-1.184 1.184v7.203c0 0.653 0.531 1.184 1.184 1.184h2.004v3.188h10.626v-3.188h2.004c0.653 0 1.184-0.531 1.184-1.184v-7.203c0-0.653-0.531-1.184-1.184-1.184zM4.25 1.054h8.501v3.178h-8.501v-3.178zM12.75 15.93h-8.501v-5.85h8.501v5.85zM15.938 12.62c0 0.068-0.054 0.122-0.121 0.122h-2.004v-3.725h-10.626v3.725h-2.004c-0.067 0-0.121-0.054-0.121-0.122v-7.203c0-0.067 0.054-0.122 0.121-0.122h14.634c0.067 0 0.121 0.054 0.121 0.122v7.203zM13.813 6.366h-0.531c-0.293 0-0.531 0.238-0.531 0.531s0.238 0.531 0.531 0.531h0.531c0.293 0 0.531-0.238 0.531-0.531s-0.238-0.531-0.531-0.531z"></path>
</svg>
