<!-- Generated by IcoMoon.io -->
<svg version="1.1" xmlns="http://www.w3.org/2000/svg" width="17" height="17" viewBox="0 0 17 17">
<title>question</title>
<path d="M8.5 0c-4.694 0-8.5 3.806-8.5 8.5s3.806 8.5 8.5 8.5c4.695 0 8.5-3.805 8.5-8.5s-3.806-8.5-8.5-8.5zM8.5 15.954c-4.101 0-7.438-3.353-7.438-7.454s3.337-7.438 7.438-7.438 7.438 3.337 7.438 7.438-3.337 7.454-7.438 7.454zM7.719 13.289h1.337v-1.349h-1.337v1.349zM8.484 3.711c-0.778 0-1.42 0.21-1.923 0.629s-0.749 1.259-0.736 1.955l0.020 0.039h1.219c0-0.415 0.138-1.012 0.415-1.226s0.612-0.321 1.005-0.321c0.454 0 0.802 0.123 1.047 0.37s0.366 0.599 0.366 1.057c0 0.385-0.090 0.713-0.272 0.986s-0.487 0.661-0.915 1.167c-0.441 0.398-0.714 0.718-0.817 0.96s-0.158 0.677-0.162 1.303h1.278c0-0.393 0.025-0.683 0.075-0.869s0.191-0.396 0.424-0.629c0.502-0.484 0.905-0.957 1.21-1.42s0.457-0.973 0.457-1.531c0-0.778-0.235-1.385-0.707-1.819s-1.133-0.652-1.985-0.652z"></path>
</svg>
