<!-- Generated by IcoMoon.io -->
<svg version="1.1" xmlns="http://www.w3.org/2000/svg" width="17" height="17" viewBox="0 0 17 17">
<title>rocket2</title>
<path d="M3.481 14.664c-0.334 0.694-0.545 1.157-2.402 1.224 0.053-1.792 0.395-1.985 1.079-2.326 0.287-0.143 0.645-0.321 1.031-0.618l-0.647-0.826c-0.305 0.235-0.587 0.358-0.858 0.493-1.14 0.568-1.677 1.128-1.677 3.796l0.009 0.543 0.522-0.012c2.816 0 3.342-0.636 3.87-1.732 0.116-0.24 0.18-0.402 0.375-0.726l-0.788-0.716c-0.236 0.322-0.384 0.629-0.514 0.899zM11.703 3.132c-1.175 0-2.131 0.956-2.131 2.131s0.956 2.131 2.131 2.131 2.131-0.956 2.131-2.131c0-1.175-0.956-2.131-2.131-2.131zM11.703 6.326c-0.586 0-1.064-0.477-1.064-1.064s0.477-1.064 1.064-1.064 1.064 0.478 1.064 1.064c-0 0.587-0.477 1.064-1.064 1.064zM16.996 0.487c-0.016-0.265-0.226-0.478-0.491-0.497 0 0-2.973-0.217-5.833 0.851-1.045 0.39-1.905 1.008-2.708 1.945-0.669 0.781-1.335 2.192-1.922 3.364-0.227 0.452-0.444 0.885-0.627 1.216h-2.955c-0.152 0-0.296 0.065-0.397 0.179l-1.947 2.111c-0.125 0.141-0.166 0.336-0.108 0.515s0.205 0.314 0.387 0.356l3.17 0.725c0.216 0.267 0.576 0.666 1.152 1.305l1.201 1.331 0.647 2.735c0.042 0.18 0.176 0.325 0.352 0.383 0.054 0.017 0.109 0.026 0.164 0.026 0.125 0 0.248-0.044 0.346-0.128l1.968-1.958c0.118-0.101 0.186-0.248 0.186-0.403v-2.741c0.265-0.164 0.734-0.418 1.175-0.665 1.203-0.672 2.999-1.509 3.743-2.171 1.048-0.932 1.43-1.615 1.805-2.625 0.892-2.402 0.702-5.711 0.693-5.851zM15.307 5.968c-0.327 0.881-0.624 1.408-1.515 2.201-0.658 0.585-2.459 1.425-3.556 2.038-0.819 0.458-1.309 0.725-1.524 0.901-0.124 0.101-0.195 0.252-0.195 0.411v2.777l-1.121 1.232-0.477-2.019c-0.020-0.087-0.063-0.167-0.123-0.233-0.977-1.083-2.453-2.719-2.566-2.849-0.074-0.090-0.176-0.154-0.292-0.18l-2.434-0.557 1.194-1.262h3.022c0.185 0 0.356-0.096 0.453-0.253 0.234-0.381 0.505-0.922 0.819-1.549 0.532-1.062 1.194-2.466 1.778-3.148 0.69-0.806 1.392-1.312 2.273-1.641 1.961-0.733 3.984-0.81 4.909-0.803 0.017 0.98-0.020 3.251-0.645 4.935z"></path>
</svg>
