<!-- Generated by IcoMoon.io -->
<svg version="1.1" xmlns="http://www.w3.org/2000/svg" width="17" height="17" viewBox="0 0 17 17">
<title>share-alt2</title>
<path d="M14.972 15.761h-13.813v-10.625h4.277l1.074-1.035-0.028-0.028h-5.323c-0.587 0-1.063 0.476-1.063 1.063v10.625c0 0.587 0.476 1.063 1.063 1.063h13.813c0.587 0 1.063-0.476 1.063-1.063v-8.312l-1.063 1.014v7.298zM4.485 11.511h1.070c0.745-4.225 4.425-7.438 8.863-7.438 0.186 0 0.363 0.002 0.542 0.003l-1.947 1.946c-0.207 0.207-0.207 0.544 0 0.751 0.104 0.104 0.24 0.156 0.376 0.156s0.271-0.052 0.375-0.156l3.138-3.221-3.138-3.221c-0.207-0.207-0.543-0.207-0.751 0-0.207 0.207-0.207 0.544 0 0.751l1.929 1.928c-0.167-0-0.332-0.001-0.502-0.001-5.031 0-9.19 3.685-9.956 8.5z"></path>
</svg>
