<!-- Generated by IcoMoon.io -->
<svg version="1.1" xmlns="http://www.w3.org/2000/svg" width="17" height="17" viewBox="0 0 17 17">
<title>tag2</title>
<path d="M17 6.911v-5.617c0-0.713-0.58-1.293-1.293-1.293h-5.734c-0.36 0-0.905 0-1.26 0.356l-8.399 8.4c-0.202 0.202-0.313 0.47-0.313 0.755s0.111 0.554 0.313 0.756l6.421 6.42c0.201 0.202 0.469 0.313 0.755 0.313s0.554-0.111 0.755-0.313l8.4-8.4c0.36-0.359 0.358-0.877 0.356-1.376zM15.893 7.536l-8.407 8.399-6.421-6.428 8.39-8.392c0.084-0.052 0.389-0.052 0.515-0.052l0.239 0.001 5.498-0.001c0.127 0 0.23 0.104 0.23 0.231v5.622c0.001 0.202 0.002 0.54-0.045 0.621zM12.75 2.125c-1.174 0-2.125 0.951-2.125 2.125s0.951 2.125 2.125 2.125 2.125-0.951 2.125-2.125-0.951-2.125-2.125-2.125zM12.75 5.313c-0.587 0-1.063-0.476-1.063-1.063s0.476-1.063 1.063-1.063 1.063 0.476 1.063 1.063-0.476 1.063-1.063 1.063z"></path>
</svg>
