<!-- Generated by IcoMoon.io -->
<svg version="1.1" xmlns="http://www.w3.org/2000/svg" width="17" height="17" viewBox="0 0 17 17">
<title>trash2</title>
<path d="M14.888 2.64h-3.74v-1.449c0-0.673-0.548-1.204-1.221-1.204h-2.855c-0.673 0-1.221 0.531-1.221 1.204v1.449h-3.74c-0.293 0-0.531 0.238-0.531 0.531s0.238 0.531 0.531 0.531h0.731l1.233 12.284c0.052 0.575 0.541 1.026 1.115 1.026h6.621c0.573 0 1.063-0.451 1.114-1.021l1.234-12.289h0.731c0.294 0 0.531-0.238 0.531-0.531s-0.238-0.531-0.531-0.531zM6.914 1.191c0-0.087 0.071-0.158 0.158-0.158h2.855c0.087 0 0.158 0.071 0.158 0.158v1.449h-3.172v-1.449zM11.866 15.891c-0.003 0.029-0.037 0.059-0.056 0.059h-6.621c-0.019 0-0.054-0.029-0.057-0.064l-1.222-12.183h9.179l-1.223 12.188z"></path>
</svg>
