<!-- Generated by IcoMoon.io -->
<svg version="1.1" xmlns="http://www.w3.org/2000/svg" width="17" height="17" viewBox="0 0 17 17">
<title>uniE061</title>
<path d="M16.464 11.711c0-0.009 0.003-0.018 0.003-0.027v-11.074c0.006-0.058 0.004-0.118-0.010-0.179-0.045-0.248-0.261-0.435-0.522-0.435-0.098 0-0.188 0.028-0.267 0.074l-9.926 2.584c-0.179 0.044-0.311 0.178-0.366 0.343-0.041 0.075-0.066 0.16-0.066 0.252v9.505c-0.506-0.338-1.152-0.542-1.857-0.542-1.619 0-2.933 1.073-2.933 2.395s1.313 2.396 2.933 2.396c1.62 0 2.932-1.073 2.932-2.396 0-0.067-0.006-0.134-0.012-0.2 0-0.001 0-0.001 0-0.002v-10.818l9.031-2.351v8.861c-0.505-0.338-1.152-0.542-1.857-0.542-1.619 0-2.932 1.073-2.932 2.395s1.313 2.396 2.932 2.396c1.62 0 2.932-1.073 2.932-2.396-0-0.082-0.005-0.162-0.015-0.241zM3.465 15.937c-1.105 0-1.875-0.7-1.875-1.328s0.77-1.327 1.875-1.327c0.983 0 1.7 0.554 1.846 1.119v0.006c0 0.054 0.010 0.104 0.025 0.153 0.001 0.016 0.004 0.033 0.004 0.049 0 0.628-0.77 1.328-1.875 1.328zM13.542 13.28c-1.095 0-1.859-0.7-1.859-1.328s0.763-1.327 1.859-1.327c1.095 0 1.858 0.699 1.858 1.327s-0.763 1.328-1.858 1.328z"></path>
</svg>
