<!-- Generated by IcoMoon.io -->
<svg version="1.1" xmlns="http://www.w3.org/2000/svg" width="17" height="17" viewBox="0 0 17 17">
<title>uniE04E</title>
<path d="M16.862 4.715c-0.099-0.141-0.26-0.224-0.432-0.224h-11.275l-0.853-2.943c-0.335-1.159-1.13-1.284-1.456-1.284h-2.276c-0.292 0-0.528 0.236-0.528 0.528s0.236 0.528 0.528 0.528h2.275c0.072 0 0.292 0 0.441 0.518l2.936 10.79c0.064 0.228 0.271 0.385 0.508 0.385h7.171c0.223 0 0.421-0.139 0.496-0.349l2.528-7.465c0.058-0.162 0.034-0.342-0.065-0.482zM13.531 11.956h-6.4l-1.679-6.41h10.228l-2.149 6.41zM12.484 14.080c-0.734 0-1.328 0.594-1.328 1.328s0.594 1.328 1.328 1.328 1.328-0.594 1.328-1.328-0.594-1.328-1.328-1.328zM7.703 14.080c-0.734 0-1.328 0.594-1.328 1.328s0.594 1.328 1.328 1.328 1.328-0.594 1.328-1.328-0.594-1.328-1.328-1.328z"></path>
</svg>
