<!-- Generated by IcoMoon.io -->
<svg version="1.1" xmlns="http://www.w3.org/2000/svg" width="17" height="17" viewBox="0 0 17 17">
<title>uniE07E</title>
<path d="M10.594 3.708c0.021 0 0.039 0.017 0.039 0.037v2.123c0 0.393 0.217 0.754 0.564 0.938 0.156 0.083 0.327 0.124 0.498 0.124 0.209 0 0.449-0.061 0.628-0.182l3.614-2.046v7.577l-3.634-1.984c-0.182-0.127-0.395-0.192-0.609-0.192-0.168 0-0.336 0.040-0.491 0.12-0.351 0.183-0.571 0.546-0.572 0.941l-0.003 2.089c0 0.021-0.017 0.037-0.038 0.037h-9.491c-0.021 0-0.038-0.016-0.038-0.037l0.003-9.509c0-0.021 0.017-0.037 0.038-0.037h9.491M16.442 3.177c-0.113 0-0.337 0.033-0.464 0.16l-4.283 2.531v-2.123c0-0.607-0.493-1.1-1.101-1.1h-9.491c-0.609 0-1.1 0.492-1.1 1.1l-0.002 9.509c0 0.607 0.492 1.1 1.1 1.1h9.491c0.609 0 1.1-0.493 1.1-1.1l0.003-2.088 4.366 2.545c0.128 0.127 0.27 0.111 0.383 0.111 0.118 0 0.205-0.036 0.216-0.040 0.206-0.086 0.34-0.285 0.34-0.509v-9.546c0-0.224-0.133-0.424-0.34-0.509-0.012-0.005-0.1-0.042-0.219-0.042v0z"></path>
</svg>
