<!-- Generated by IcoMoon.io -->
<svg version="1.1" xmlns="http://www.w3.org/2000/svg" width="17" height="17" viewBox="0 0 17 17">
<title>uniE07A</title>
<path d="M8.5 0c-4.695 0-8.5 3.806-8.5 8.5s3.805 8.5 8.5 8.5c4.694 0 8.5-3.805 8.5-8.5s-3.806-8.5-8.5-8.5zM8.5 15.954c-4.101 0-7.438-3.353-7.438-7.454s3.337-7.438 7.438-7.438 7.438 3.337 7.438 7.438-3.337 7.454-7.438 7.454zM12.224 7.963h-5.984l1.922-1.922c0.207-0.207 0.207-0.544 0-0.751s-0.544-0.207-0.751 0l-3.138 3.221 3.138 3.221c0.104 0.104 0.24 0.156 0.376 0.156s0.272-0.052 0.376-0.156c0.207-0.207 0.207-0.544 0-0.751l-1.955-1.955h6.017c0.294 0 0.531-0.238 0.531-0.531s-0.238-0.531-0.531-0.531z"></path>
</svg>
