<!-- Generated by IcoMoon.io -->
<svg version="1.1" xmlns="http://www.w3.org/2000/svg" width="17" height="17" viewBox="0 0 17 17">
<title>uniE013</title>
<path d="M14.097 0h-10.592c-0.764 0-1.096 0.564-1.096 1.096v2.114h-0.58c-0.287 0-0.52 0.233-0.52 0.52s0.233 0.52 0.52 0.52h0.58v2.137h-0.53c-0.287 0-0.52 0.233-0.52 0.52s0.233 0.52 0.52 0.52h0.53v2.149h-0.542c-0.287 0-0.52 0.233-0.52 0.52s0.233 0.52 0.52 0.52h0.542v2.133h-0.542c-0.287 0-0.52 0.233-0.52 0.52s0.233 0.52 0.52 0.52h0.542v2.146c0 0.88 0.69 1.063 1.071 1.063h10.617c0.88 0 1.594-0.713 1.594-1.594v-13.813c0-0.88-0.713-1.594-1.594-1.594zM3.472 15.938v-2.146h0.554c0.287 0 0.52-0.233 0.52-0.52s-0.233-0.52-0.52-0.52h-0.554v-2.133h0.554c0.287 0 0.52-0.233 0.52-0.52s-0.233-0.52-0.52-0.52h-0.554v-2.149h0.565c0.287 0 0.52-0.233 0.52-0.52s-0.233-0.52-0.52-0.52h-0.565v-2.137h0.515c0.287 0 0.52-0.233 0.52-0.52s-0.233-0.52-0.52-0.52h-0.515v-2.114c0-0.012 0.001-0.023 0.003-0.032 0.008-0.001 0.019-0.001 0.031-0.001h8.467v14.875h-8.501zM14.629 15.406c0 0.293-0.238 0.531-0.531 0.531h-1.063v-14.875h1.063c0.293 0 0.531 0.238 0.531 0.531v13.813z"></path>
</svg>
