<!-- Generated by IcoMoon.io -->
<svg version="1.1" xmlns="http://www.w3.org/2000/svg" width="17" height="17" viewBox="0 0 17 17">
<title>uniE06A</title>
<path d="M15.938 17h-5.313c-0.587 0-1.063-0.476-1.063-1.063v-5.313c0-0.587 0.476-1.063 1.063-1.063h5.313c0.587 0 1.063 0.476 1.063 1.063v5.313c0 0.587-0.476 1.063-1.063 1.063zM15.938 10.625h-5.313v5.313h5.313v-5.313zM15.938 7.438h-5.313c-0.587 0-1.063-0.476-1.063-1.063v-5.313c0-0.587 0.476-1.063 1.063-1.063h5.313c0.587 0 1.063 0.476 1.063 1.063v5.313c0 0.587-0.476 1.063-1.063 1.063zM15.938 1.063h-5.313v5.313h5.313v-5.313zM6.375 17h-5.313c-0.587 0-1.063-0.476-1.063-1.063v-5.313c0-0.587 0.476-1.063 1.063-1.063h5.313c0.587 0 1.063 0.476 1.063 1.063v5.313c0 0.587-0.476 1.063-1.063 1.063zM6.375 10.625h-5.313v5.313h5.313v-5.313zM6.375 7.438h-5.313c-0.587 0-1.063-0.476-1.063-1.063v-5.313c0-0.587 0.476-1.063 1.063-1.063h5.313c0.587 0 1.063 0.476 1.063 1.063v5.313c0 0.587-0.476 1.063-1.063 1.063zM6.375 1.063h-5.313v5.313h5.313v-5.313z"></path>
</svg>
