<!-- Generated by IcoMoon.io -->
<svg version="1.1" xmlns="http://www.w3.org/2000/svg" width="17" height="17" viewBox="0 0 17 17">
<title>uniE08B</title>
<path d="M9.563 12.219h-0.531v-4.748c0-0.006-0.002-0.011-0.002-0.017s0.002-0.011 0.002-0.016c0-0.293-0.238-0.531-0.531-0.531h-1.063c-0.293 0-0.531 0.238-0.531 0.531s0.238 0.531 0.531 0.531h0.531v4.25h-0.531c-0.293 0-0.531 0.238-0.531 0.531s0.238 0.531 0.531 0.531h2.125c0.293 0 0.531-0.238 0.531-0.531s-0.238-0.531-0.531-0.531zM8.5 5.844c0.587 0 1.063-0.476 1.063-1.063s-0.476-1.063-1.063-1.063-1.063 0.476-1.063 1.063 0.476 1.063 1.063 1.063zM8.5 0c-4.694 0-8.5 3.806-8.5 8.5s3.806 8.5 8.5 8.5c4.695 0 8.5-3.805 8.5-8.5s-3.805-8.5-8.5-8.5zM8.5 15.954c-4.101 0-7.438-3.353-7.438-7.454s3.337-7.438 7.438-7.438 7.438 3.337 7.438 7.438-3.337 7.454-7.438 7.454z"></path>
</svg>
