<!-- Generated by IcoMoon.io -->
<svg version="1.1" xmlns="http://www.w3.org/2000/svg" width="17" height="17" viewBox="0 0 17 17">
<title>uniE020</title>
<path d="M9.884 1.074h0.003M9.884 1.074l-1.199 6.298 4.343 0.015-5.911 8.538 1.199-6.929-4.342-0.015 5.911-7.907M9.884 0.012c-0.029 0-0.057 0.001-0.086 0.003-0.188 0.015-0.312 0.078-0.459 0.177-0.082 0.054-0.157 0.121-0.222 0.198-0.019 0.023-0.038 0.047-0.055 0.071l-5.953 7.879c-0.235 0.322-0.27 0.747-0.089 1.103s0.545 0.581 0.945 0.584l3.067 0.022-0.964 5.681c-0.092 0.488 0.169 0.975 0.627 1.171 0.137 0.059 0.28 0.087 0.422 0.087 0.334 0 0.608-0.156 0.814-0.438l5.961-8.538c0.235-0.322 0.269-0.748 0.089-1.103s-0.545-0.581-0.945-0.584l-3.067-0.005 0.954-4.995c0.020-0.080 0.030-0.164 0.030-0.25 0-0.575-0.458-1.043-1.030-1.062-0.013-0.001-0.025-0.001-0.038-0.001v0z"></path>
</svg>
