<!-- Generated by IcoMoon.io -->
<svg version="1.1" xmlns="http://www.w3.org/2000/svg" width="17" height="17" viewBox="0 0 17 17">
<title>uniE004</title>
<path d="M13.267 6.373v-2.655c0-1.758-2.434-3.716-4.78-3.716s-4.783 1.958-4.783 3.716v2.655c0 1.16 0.529 3.507 2.015 4.699l-4.666 2.202c0 0-1.062 0.473-1.062 1.062v1.594c0 0.587 0.475 1.062 1.062 1.062h10.093v-1.062l-10.092 0.001v-1.078c0-0.422 0.317-0.555 0.444-0.613l4.666-2.202c0.334-0.154 0.565-0.47 0.61-0.836s-0.102-0.728-0.389-0.958c-1.104-0.886-1.618-2.834-1.618-3.871v-2.655c0-1.11 1.932-2.654 3.721-2.654 1.804 0 3.717 1.52 3.717 2.654v2.655c0 1.022-0.425 2.977-1.564 3.874-0.291 0.228-0.442 0.592-0.398 0.959 0.043 0.368 0.275 0.686 0.612 0.84l0.301 0.139 0.466-0.86-0.324-0.244c1.472-1.158 1.97-3.433 1.97-4.708zM15.35 14.589l1.502-1.503c0.207-0.207 0.207-0.544 0-0.751s-0.544-0.207-0.751 0l-1.503 1.503-1.502-1.503c-0.207-0.207-0.544-0.207-0.751 0s-0.207 0.544 0 0.751l1.502 1.503-1.502 1.502c-0.207 0.207-0.207 0.544 0 0.751s0.544 0.207 0.751 0l1.502-1.503 1.503 1.503c0.207 0.207 0.544 0.207 0.751 0s0.207-0.544 0-0.751l-1.502-1.502z"></path>
</svg>
