<!-- Generated by IcoMoon.io -->
<svg version="1.1" xmlns="http://www.w3.org/2000/svg" width="17" height="17" viewBox="0 0 17 17">
<title>uniE0A1</title>
<path d="M9.555 1.094c-0.173-0.092-0.383-0.082-0.546 0.028l-5.331 4.185-1.77 0.001c-0.905 0-1.642 0.642-1.642 1.434l0.028 3.505c0 0.789 0.736 1.431 1.641 1.431l1.77 0.001 5.302 4.196c0.089 0.060 0.193 0.091 0.297 0.091 0.086 0 0.171-0.021 0.249-0.062 0.174-0.092 0.282-0.272 0.282-0.469v-13.874c0-0.196-0.108-0.377-0.282-0.469zM8.774 14.437l-4.609-3.728c-0.088-0.059-0.191-0.091-0.297-0.091l-1.932-0.001c-0.341 0-0.579-0.194-0.579-0.373l-0.029-3.505c0-0.174 0.238-0.368 0.579-0.368l1.932-0.001c0.105 0 0.209-0.032 0.296-0.091l4.637-3.719v11.876zM14.842 8.508l1.736-1.757c0.207-0.207 0.207-0.544 0-0.751s-0.544-0.207-0.751 0l-1.732 1.753-1.732-1.753c-0.207-0.207-0.544-0.207-0.751 0s-0.207 0.544 0 0.751l1.736 1.757-1.72 1.74c-0.207 0.207-0.207 0.544 0 0.751s0.544 0.207 0.752 0l1.715-1.736 1.715 1.736c0.207 0.207 0.544 0.207 0.751 0s0.207-0.544 0-0.751l-1.719-1.74z"></path>
</svg>
