<!-- Generated by IcoMoon.io -->
<svg version="1.1" xmlns="http://www.w3.org/2000/svg" width="17" height="17" viewBox="0 0 17 17">
<title>uniE021</title>
<path d="M12.97 10.080c-0.27-0.121-0.583 0.001-0.702 0.269-0.011 0.024-1.098 2.394-3.809 2.426-0.017 0-0.033 0.001-0.050 0.001-2.551 0-3.651-2.33-3.697-2.43-0.121-0.266-0.435-0.384-0.703-0.263s-0.386 0.435-0.265 0.703c0.057 0.126 1.417 3.054 4.663 3.054 0.021 0 0.043-0.001 0.064-0.001 3.385-0.040 4.712-2.933 4.767-3.056 0.12-0.268-0.001-0.582-0.268-0.702zM8.5 0c-4.695 0-8.5 3.805-8.5 8.5s3.805 8.5 8.5 8.5 8.5-3.805 8.5-8.5-3.805-8.5-8.5-8.5zM8.5 15.938c-4.101 0-7.438-3.337-7.438-7.438s3.337-7.438 7.438-7.438 7.438 3.337 7.438 7.438-3.337 7.438-7.438 7.438zM5.836 7.966c0.585 0 1.060-0.475 1.060-1.060s-0.474-1.060-1.060-1.060c-0.586 0-1.060 0.475-1.060 1.060s0.474 1.060 1.060 1.060zM11.148 7.966c0.585 0 1.060-0.475 1.060-1.060s-0.474-1.060-1.060-1.060c-0.586 0-1.060 0.475-1.060 1.060s0.474 1.060 1.060 1.060z"></path>
</svg>
