<!-- Generated by IcoMoon.io -->
<svg version="1.1" xmlns="http://www.w3.org/2000/svg" width="17" height="17" viewBox="0 0 17 17">
<title>uniE025</title>
<path d="M15.409 2.922h-13.817c-0.88 0-1.594 0.713-1.594 1.594v7.969c0 0.88 0.713 1.594 1.594 1.594h13.817c0.88 0 1.594-0.713 1.594-1.594v-7.969c0-0.88-0.713-1.594-1.594-1.594zM1.591 3.984h13.817c0.293 0 0.531 0.238 0.531 0.531v1.063h-14.88v-1.063c0-0.293 0.238-0.531 0.531-0.531zM15.409 13.016h-13.817c-0.293 0-0.531-0.238-0.531-0.531v-4.781h14.88v4.781c0 0.293-0.238 0.531-0.531 0.531z"></path>
</svg>
