<!-- Generated by IcoMoon.io -->
<svg version="1.1" xmlns="http://www.w3.org/2000/svg" width="17" height="17" viewBox="0 0 17 17">
<title>uniE037</title>
<path d="M17.017 8.5c0-4.516-3.547-8.22-8.007-8.484-0.092-0.010-0.184-0.017-0.278-0.017-0.028 0-0.055 0.003-0.083 0.004-0.050-0.001-0.099-0.004-0.149-0.004-4.696 0-8.517 3.813-8.517 8.501s3.821 8.501 8.517 8.501c0.050 0 0.1-0.003 0.15-0.004 0.028 0.001 0.055 0.004 0.083 0.004 0.093 0 0.186-0.007 0.278-0.017 4.46-0.264 8.007-3.967 8.007-8.484zM15.432 11.236c-0.293-0.085-1.028-0.27-2.325-0.422 0.107-0.734 0.166-1.509 0.166-2.315 0-0.635-0.037-1.251-0.104-1.843 1.644-0.196 2.364-0.444 2.412-0.461l-0.198-0.558c0.369 0.881 0.574 1.848 0.574 2.861 0 0.966-0.187 1.889-0.524 2.736zM4.74 8.5c0-0.594 0.039-1.175 0.111-1.733 0.861 0.068 1.892 0.118 3.102 0.129v3.687c-1.179 0.011-2.186 0.059-3.033 0.124-0.117-0.7-0.181-1.442-0.181-2.207zM9.014 1.133c1.303 0.377 2.418 2.186 2.918 4.584-0.803 0.064-1.77 0.111-2.918 0.122v-4.706zM7.953 1.146v4.692c-1.135-0.011-2.106-0.058-2.923-0.12 0.51-2.368 1.634-4.163 2.923-4.572zM7.953 11.642v4.213c-1.202-0.381-2.261-1.969-2.812-4.101 0.793-0.058 1.728-0.101 2.812-0.112zM9.014 15.867v-4.226c1.095 0.010 2.026 0.054 2.809 0.115-0.541 2.16-1.594 3.759-2.809 4.111zM9.014 10.583v-3.686c1.217-0.011 2.241-0.063 3.091-0.133 0.070 0.559 0.108 1.141 0.108 1.736 0 0.766-0.062 1.508-0.175 2.21-0.837-0.068-1.839-0.116-3.024-0.127zM15.187 5.212c-0.16 0.050-0.831 0.24-2.175 0.399-0.3-1.593-0.841-2.955-1.546-3.937 1.619 0.704 2.941 1.964 3.721 3.538zM5.957 1.504c-0.867 0.995-1.574 2.426-1.961 4.119-1.203-0.13-1.924-0.284-2.213-0.353 0.842-1.737 2.341-3.1 4.174-3.766zM1.388 6.262c0.205 0.056 0.978 0.248 2.416 0.407-0.082 0.588-0.128 1.2-0.128 1.831 0 0.801 0.073 1.573 0.203 2.302-1.235 0.133-1.995 0.293-2.336 0.375-0.323-0.832-0.502-1.734-0.502-2.678 0-0.78 0.121-1.532 0.345-2.238zM2.010 12.158c0.386-0.082 1.078-0.207 2.102-0.314 0.403 1.489 1.059 2.749 1.845 3.652-1.679-0.61-3.076-1.805-3.947-3.338zM11.466 15.326c0.635-0.884 1.137-2.076 1.449-3.466 1.053 0.121 1.714 0.262 2.047 0.346-0.797 1.379-2.023 2.48-3.496 3.12z"></path>
</svg>
