<!-- Generated by IcoMoon.io -->
<svg version="1.1" xmlns="http://www.w3.org/2000/svg" width="17" height="17" viewBox="0 0 17 17">
<title>uniE091</title>
<path d="M16.844 16.088l-4.699-4.728c1.006-1.202 1.612-2.752 1.612-4.444 0-3.819-3.080-6.916-6.899-6.916s-6.915 3.096-6.915 6.915c0 3.819 3.096 6.915 6.915 6.915 1.743 0 3.331-0.647 4.544-1.711l4.69 4.72c0.207 0.207 0.544 0.207 0.751 0s0.208-0.544 0-0.752zM6.85 12.75c-3.213 0-5.844-2.63-5.844-5.844s2.63-5.844 5.844-5.844 5.844 2.63 5.844 5.844-2.63 5.844-5.844 5.844zM9.506 6.375h-2.125v-2.125c0-0.293-0.238-0.531-0.531-0.531s-0.531 0.238-0.531 0.531v2.125h-2.125c-0.293 0-0.531 0.238-0.531 0.531s0.238 0.531 0.531 0.531h2.125v2.125c0 0.293 0.238 0.531 0.531 0.531s0.531-0.238 0.531-0.531v-2.125h2.125c0.293 0 0.531-0.238 0.531-0.531s-0.238-0.531-0.531-0.531z"></path>
</svg>
