<!-- Generated by IcoMoon.io -->
<svg version="1.1" xmlns="http://www.w3.org/2000/svg" width="17" height="17" viewBox="0 0 17 17">
<title>uniE09A</title>
<path d="M15.946 6.891l-1.363-0.303c-0.106-0.34-0.245-0.665-0.405-0.978l0.738-1.229c0.275-0.44 0.415-1.088 0-1.503l-0.752-0.751c-0.415-0.415-1.115-0.34-1.538-0.047l-1.196 0.762c-0.31-0.161-0.635-0.299-0.972-0.408l-0.306-1.38c-0.091-0.506-0.534-1.054-1.121-1.054h-1.063c-0.587 0-0.946 0.556-1.063 1.063l-0.341 1.363c-0.36 0.115-0.705 0.261-1.035 0.435l-1.226-0.781c-0.423-0.293-1.123-0.368-1.538 0.047l-0.751 0.751c-0.415 0.415-0.276 1.063 0 1.503l0.776 1.294c-0.146 0.293-0.275 0.597-0.374 0.913l-1.363 0.303c-0.506 0.091-1.054 0.534-1.054 1.12v1.062c0 0.587 0.556 0.946 1.063 1.063l1.38 0.345c0.095 0.293 0.215 0.574 0.35 0.846l-0.777 1.295c-0.275 0.44-0.415 1.087 0 1.502l0.752 0.751c0.415 0.415 1.115 0.34 1.538 0.047l1.229-0.783c0.331 0.175 0.679 0.323 1.041 0.437l0.34 1.36c0.116 0.506 0.476 1.062 1.063 1.062h1.063c0.587 0 1.029-0.548 1.121-1.054l0.307-1.384c0.334-0.108 0.654-0.244 0.96-0.403l1.198 0.764c0.423 0.293 1.123 0.368 1.538-0.047l0.752-0.751c0.415-0.415 0.275-1.063 0-1.502l-0.738-1.231c0.148-0.292 0.277-0.595 0.38-0.911l1.38-0.345c0.506-0.116 1.063-0.476 1.063-1.063v-1.063c0-0.587-0.548-1.029-1.054-1.121zM15.938 8.999c-0.045 0.032-0.13 0.077-0.238 0.102l-1.97 0.492-0.183 0.558c-0.083 0.252-0.189 0.507-0.317 0.759l-0.267 0.524 1.041 1.735c0.066 0.106 0.097 0.201 0.107 0.257l-0.699 0.698c-0.067-0.021-0.144-0.049-0.181-0.074l-1.749-1.115-0.544 0.281c-0.262 0.136-0.531 0.249-0.798 0.335l-0.579 0.187-0.438 1.978c-0.020 0.106-0.077 0.191-0.116 0.222h-0.956c-0.032-0.045-0.077-0.13-0.101-0.238l-0.489-1.956-0.566-0.18c-0.292-0.092-0.583-0.214-0.866-0.364l-0.546-0.288-1.749 1.115c-0.071 0.048-0.148 0.076-0.217 0.076l-0.697-0.678c0.009-0.055 0.038-0.146 0.096-0.239l1.087-1.811-0.258-0.52c-0.121-0.245-0.216-0.476-0.291-0.704l-0.182-0.559-1.95-0.488c-0.123-0.028-0.211-0.074-0.258-0.106v-0.988c0.001 0 0.001 0.001 0.002 0.001 0.018 0 0.105-0.062 0.178-0.075l2.004-0.444 0.184-0.586c0.075-0.239 0.177-0.487 0.312-0.76l0.258-0.521-1.075-1.792c-0.067-0.107-0.097-0.202-0.107-0.258l0.699-0.698c0.068 0.022 0.144 0.049 0.181 0.074l1.782 1.136 0.546-0.288c0.28-0.148 0.57-0.27 0.862-0.362l0.565-0.18 0.485-1.939c0.028-0.123 0.073-0.211 0.106-0.258h0.988c-0.007 0.011 0.061 0.104 0.075 0.18l0.446 2.016 0.579 0.187c0.271 0.088 0.544 0.202 0.809 0.339l0.544 0.282 1.712-1.091c0.072-0.049 0.148-0.076 0.217-0.076l0.697 0.678c-0.009 0.055-0.039 0.146-0.096 0.239l-1.052 1.751 0.268 0.525c0.145 0.283 0.255 0.549 0.337 0.812l0.184 0.587 1.964 0.436c0.119 0.022 0.211 0.091 0.231 0.128l-0.008 0.943zM8.507 5.307c-1.764 0-3.2 1.433-3.2 3.193s1.435 3.193 3.2 3.193 3.2-1.433 3.2-3.193c0-1.76-1.435-3.193-3.2-3.193zM8.5 10.625c-1.172 0-2.125-0.953-2.125-2.125s0.953-2.125 2.125-2.125c1.172 0 2.125 0.953 2.125 2.125s-0.953 2.125-2.125 2.125z"></path>
</svg>
