<!-- Generated by IcoMoon.io -->
<svg version="1.1" xmlns="http://www.w3.org/2000/svg" width="17" height="17" viewBox="0 0 17 17">
<title>uniE032</title>
<path d="M15.938 1.327h-14.875c-0.584 0-1.063 0.478-1.063 1.063v12.222c0 0.584 0.478 1.063 1.063 1.063h14.875c0.584 0 1.063-0.478 1.063-1.063v-12.222c0-0.584-0.478-1.063-1.063-1.063zM15.938 14.611h-14.875v-3.13l4.264-4.132 4.396 4.391c0.181 0.22 0.504 0.192 0.733 0.019l1.94-1.757 3.5 3.592c0.013 0.013 0.028 0.023 0.042 0.035v0.983zM15.938 12.116l-3.122-3.194c-0.189-0.187-0.486-0.206-0.696-0.046l-2.001 1.744-4.398-4.351c-0.094-0.114-0.23-0.183-0.377-0.193-0.146-0.005-0.291 0.043-0.398 0.143l-3.883 3.779v-7.608h14.875v9.727zM12.219 6.643c0.586 0 1.060-0.475 1.060-1.060s-0.474-1.060-1.060-1.060-1.060 0.475-1.060 1.060c0 0.585 0.474 1.060 1.060 1.060z"></path>
</svg>
