<!-- Generated by IcoMoon.io -->
<svg version="1.1" xmlns="http://www.w3.org/2000/svg" width="17" height="17" viewBox="0 0 17 17">
<title>uniE053</title>
<path d="M17.005 8.46c0 0.293-0.237 0.531-0.531 0.531h-7.452v5.382c0 1.447-1.177 2.624-2.625 2.624s-2.625-1.178-2.625-2.624c0-0.293 0.238-0.531 0.531-0.531s0.531 0.238 0.531 0.531c0 0.862 0.701 1.563 1.563 1.563s1.563-0.701 1.563-1.563v-5.382h-7.436c-0.293 0-0.531-0.238-0.531-0.531 0-4.105 3.003-6.709 7.966-6.881v-1.046c0-0.293 0.238-0.531 0.531-0.531s0.531 0.238 0.531 0.531v1.046c4.964 0.172 7.983 2.776 7.983 6.881zM15.923 7.929c-0.262-3.329-2.97-5.298-7.432-5.298s-7.154 1.969-7.415 5.298h14.847z"></path>
</svg>
