<!-- Generated by IcoMoon.io -->
<svg version="1.1" xmlns="http://www.w3.org/2000/svg" width="17" height="17" viewBox="0 0 17 17">
<title>uniE08C</title>
<path d="M10.886 0c-2.641 0-4.781 2.144-4.781 4.789 0 1.185 0.432 2.268 1.145 3.105-0.147-0.009-0.296 0.040-0.408 0.152l-5.352 5.385c-0.207 0.207-0.207 0.544 0 0.751 0.004 0.004 0.008 0.006 0.013 0.010 0.001 0.001 0.002 0.003 0.003 0.004l2.605 2.655c0.207 0.207 0.544 0.207 0.751 0s0.207-0.544 0-0.751l-2.249-2.292 1.37-1.378 2.253 2.296c0.207 0.207 0.544 0.207 0.751 0s0.207-0.544 0-0.751l-2.255-2.298 2.862-2.88c0.111-0.111 0.16-0.258 0.153-0.403 0.84 0.735 1.937 1.184 3.14 1.184 2.641 0 4.781-2.144 4.781-4.789s-2.141-4.789-4.782-4.789zM10.886 8.5c-2.046 0-3.719-1.665-3.719-3.719s1.673-3.719 3.719-3.719 3.719 1.664 3.719 3.719c0 2.054-1.672 3.719-3.719 3.719z"></path>
</svg>
