<!-- Generated by IcoMoon.io -->
<svg version="1.1" xmlns="http://www.w3.org/2000/svg" width="17" height="17" viewBox="0 0 17 17">
<title>uniE002</title>
<path d="M1.064 14.853c0-0.422 0.317-0.555 0.444-0.613l4.666-2.202c0.334-0.154 0.565-0.47 0.61-0.835s-0.102-0.728-0.389-0.958c-1.104-0.886-1.618-2.834-1.618-3.871v-2.655c0-1.11 1.932-2.654 3.721-2.654 1.804 0 3.717 1.52 3.717 2.654v2.655c0 1.022-0.425 2.977-1.565 3.874-0.291 0.229-0.441 0.592-0.398 0.96s0.275 0.686 0.612 0.84l1.592 0.755 0.262-1.060-1.411-0.66c1.472-1.158 1.97-3.434 1.97-4.709v-2.655c0-1.758-2.434-3.716-4.78-3.716s-4.783 1.958-4.783 3.716v2.655c0 1.16 0.529 3.507 2.015 4.7l-4.666 2.202c0 0-1.062 0.473-1.062 1.062v1.594c0 0.587 0.475 1.062 1.062 1.062h11.686v-1.063l-11.685 0.001v-1.078zM16.468 13.81h-1.594v-1.594c0-0.294-0.238-0.531-0.531-0.531s-0.531 0.238-0.531 0.531v1.594h-1.594c-0.293 0-0.531 0.238-0.531 0.531s0.238 0.531 0.531 0.531h1.594v1.594c0 0.293 0.238 0.531 0.531 0.531s0.531-0.238 0.531-0.531v-1.594h1.594c0.293 0 0.531-0.238 0.531-0.531s-0.238-0.531-0.531-0.531z"></path>
</svg>
