<!-- Generated by IcoMoon.io -->
<svg version="1.1" xmlns="http://www.w3.org/2000/svg" width="17" height="17" viewBox="0 0 17 17">
<title>uniE033</title>
<path d="M16.488 2.241l-5.328-2.209-5.303 2.099-5.345-2.098c-0.046-0.014-0.090-0.019-0.132-0.019-0.218-0.001-0.379 0.162-0.379 0.407v13.779c0 0.292 0.23 0.596 0.512 0.673l5.351 2.111 5.296-2.15 5.329 2.094c0.046 0.012 0.090 0.019 0.132 0.019 0.218 0 0.379-0.162 0.379-0.407v-13.625c0-0.292-0.23-0.596-0.512-0.674zM6.375 3.007l4.25-1.665v12.642l-4.25 1.68v-12.657zM1.063 1.439l4.25 1.57v12.646l-4.25-1.731v-12.485zM15.938 15.572l-4.25-1.6v-12.614l4.25 1.833v12.382z"></path>
</svg>
