<!-- Generated by IcoMoon.io -->
<svg version="1.1" xmlns="http://www.w3.org/2000/svg" width="17" height="17" viewBox="0 0 17 17">
<title>uniE043</title>
<path d="M16.912 4.905l-2.322-4.44c-0.135-0.259-0.486-0.471-0.778-0.471h-5.345c-0.006-0-0.012-0.002-0.018-0.002-0.005 0-0.009 0.002-0.014 0.002h-5.249c-0.292 0-0.643 0.211-0.781 0.469l-2.316 4.354c-0.138 0.258-0.11 0.663 0.060 0.901l7.969 11.109c0.086 0.119 0.199 0.18 0.313 0.18s0.226-0.059 0.312-0.176l8.1-11.028c0.172-0.236 0.203-0.64 0.068-0.899zM15.645 4.775h-2.846l1.14-3.264 1.707 3.264zM9.552 1.057h3.419l-1.061 3.037-2.359-3.037zM11.094 4.775h-4.941l2.335-3.355 2.606 3.355zM5.211 4.268l-1.065-3.211h3.301l-2.235 3.211zM11.302 5.838l-2.856 8.177-2.714-8.177h5.57zM7.254 13.797l-5.71-7.96h3.068l2.641 7.96zM12.427 5.838h3.074l-5.86 7.978 2.786-7.978zM3.129 1.368l1.131 3.407h-2.943l1.812-3.407z"></path>
</svg>
