<!-- Generated by IcoMoon.io -->
<svg version="1.1" xmlns="http://www.w3.org/2000/svg" width="17" height="17" viewBox="0 0 17 17">
<title>uniE02D</title>
<path d="M8.5 17.003c-0.337 0-0.654-0.131-0.892-0.368l-7.247-7.247c-0.49-0.493-0.49-1.294-0.001-1.786l2.655-2.654c0.164-0.164 0.415-0.203 0.622-0.095s0.317 0.336 0.277 0.564c-0.027 0.152-0.039 0.274-0.039 0.384 0 1.162 0.946 2.127 2.109 2.127 1.164 0 2.013-0.965 2.013-2.127 0-1.164-0.85-2.11-2.013-2.11-0.109 0-0.23 0.012-0.382 0.039-0.23 0.043-0.457-0.072-0.564-0.277s-0.069-0.458 0.095-0.622l2.475-2.476c0.479-0.477 1.308-0.476 1.786-0.001l1.812 1.813c0.378-1.176 1.482-2.029 2.781-2.029 1.611 0 2.921 1.311 2.921 2.922 0 1.299-0.853 2.403-2.029 2.781l1.76 1.759c0.491 0.493 0.491 1.294 0.001 1.786l-7.246 7.246c-0.24 0.239-0.556 0.369-0.893 0.369zM2.904 6.561l-1.791 1.791c-0.077 0.078-0.077 0.206 0.001 0.285l7.244 7.245c0.102 0.101 0.182 0.102 0.285-0.001l7.244-7.245c0.078-0.078 0.078-0.206-0.001-0.285l-2.555-2.553c-0.16-0.16-0.201-0.404-0.103-0.607s0.313-0.324 0.54-0.296l0.081 0.010c0.045 0.006 0.089 0.014 0.136 0.014 1.025 0 1.859-0.833 1.859-1.858 0-1.026-0.834-1.86-1.859-1.86s-1.858 0.834-1.858 1.86c0 0.042 0.007 0.084 0.012 0.126l0.011 0.095c0.024 0.224-0.096 0.439-0.299 0.536-0.202 0.096-0.445 0.055-0.604-0.104l-2.606-2.607c-0.102-0.101-0.182-0.102-0.285 0.001l-1.612 1.612c1.383 0.342 2.314 1.593 2.314 3.080 0 1.748-1.327 3.19-3.076 3.19-1.486-0-2.737-1.047-3.079-2.429z"></path>
</svg>
