<!-- Generated by IcoMoon.io -->
<svg version="1.1" xmlns="http://www.w3.org/2000/svg" width="17" height="17" viewBox="0 0 17 17">
<title>uniE035</title>
<path d="M16.979 15.649l-1.385-8.363c-0.124-1.084-1.112-1.966-2.203-1.966h-1.173v-1.416c0-2.161-1.541-3.919-3.702-3.919s-3.734 1.758-3.734 3.919v1.416h-1.273c-1.091 0-2.080 0.882-2.2 1.943l-1.283 8.37c-0.049 0.441 0.037 0.789 0.256 1.034 0.206 0.231 0.507 0.348 0.892 0.348h14.503c0.546 0 0.86-0.219 1.027-0.404 0.153-0.169 0.326-0.467 0.276-0.962zM5.845 3.904c0-1.575 1.098-2.856 2.672-2.856s2.639 1.281 2.639 2.856v1.416h-5.311v-1.416zM15.724 15.945l-14.485 0.007c-0.091 0-0.183-0.049-0.161-0.177l1.282-8.369c0.064-0.555 0.589-1.024 1.148-1.024h1.273v1.211c-0.317 0.184-0.532 0.523-0.532 0.915 0 0.587 0.476 1.063 1.063 1.063s1.063-0.476 1.063-1.063c0-0.392-0.215-0.73-0.53-0.915v-1.212h5.311v1.212c-0.316 0.184-0.53 0.523-0.53 0.915 0 0.587 0.476 1.063 1.063 1.063s1.063-0.476 1.063-1.063c0-0.393-0.215-0.732-0.532-0.916v-1.211h1.173c0.559 0 1.084 0.469 1.152 1.053l1.384 8.355c0.007 0.068-0.047 0.155-0.202 0.155z"></path>
</svg>
