<!-- Generated by IcoMoon.io -->
<svg version="1.1" xmlns="http://www.w3.org/2000/svg" width="17" height="17" viewBox="0 0 17 17">
<title>uniE017</title>
<path d="M16.942 7.128l-1.706-2.551 0.849-2.969c0.053-0.186 0.001-0.386-0.137-0.523s-0.336-0.188-0.524-0.133l-2.964 0.865-2.561-1.725c-0.161-0.108-0.368-0.121-0.539-0.032-0.172 0.088-0.283 0.264-0.289 0.457l-0.092 3.087-2.432 1.902c-0.152 0.119-0.228 0.312-0.197 0.503s0.163 0.35 0.346 0.415l2.282 0.818c-0.015 0.012-0.032 0.023-0.046 0.037l-8.811 8.811c-0.207 0.207-0.207 0.544 0 0.751 0.104 0.104 0.24 0.156 0.376 0.156s0.272-0.052 0.376-0.156l8.811-8.811c0.034-0.034 0.061-0.073 0.084-0.113l0.893 2.45c0.066 0.182 0.226 0.313 0.418 0.343 0.027 0.004 0.054 0.006 0.082 0.006 0.163 0 0.318-0.075 0.42-0.206l1.889-2.443 3.053-0.109c0.194-0.007 0.368-0.118 0.456-0.291s0.074-0.379-0.035-0.539zM13.182 7.015c-0.158 0.005-0.305 0.081-0.402 0.206l-1.452 1.878-0.813-2.23c-0.054-0.148-0.171-0.265-0.32-0.318l-2.234-0.801 1.87-1.462c0.125-0.097 0.199-0.245 0.204-0.403l0.071-2.373 1.969 1.326c0.131 0.088 0.295 0.113 0.446 0.070l2.279-0.666-0.653 2.282c-0.043 0.152-0.017 0.315 0.072 0.446l1.337 1.961-2.372 0.084z"></path>
</svg>
