<!-- Generated by IcoMoon.io -->
<svg version="1.1" xmlns="http://www.w3.org/2000/svg" width="17" height="17" viewBox="0 0 17 17">
<title>uniE070</title>
<path d="M9.528 3.286l-8.388 5.214 8.388 5.214v-4.1l6.375 4.1v-10.429l-6.375 4.1v-4.247M9.484 2.223c0.178 0 0.377 0.044 0.538 0.134 0.337 0.187 0.568 0.543 0.568 0.929v2.189l4.951-3.091c0.171-0.106 0.355-0.16 0.55-0.16 0.177 0 0.261 0.044 0.422 0.134 0.337 0.187 0.452 0.543 0.452 0.929v10.429c0 0.386-0.12 0.741-0.458 0.929-0.161 0.089-0.294 0.134-0.472 0.134-0.195 0-0.345-0.053-0.516-0.16l-4.929-3.091v2.189c0 0.386-0.231 0.741-0.568 0.929-0.161 0.089-0.349 0.134-0.527 0.134-0.194 0-0.395-0.053-0.566-0.16l-8.391-5.214c-0.312-0.193-0.503-0.535-0.503-0.902s0.189-0.708 0.501-0.902l8.388-5.214c0.171-0.107 0.366-0.16 0.56-0.16v0z"></path>
</svg>
