<!-- Generated by IcoMoon.io -->
<svg version="1.1" xmlns="http://www.w3.org/2000/svg" width="17" height="17" viewBox="0 0 17 17">
<title>vector2</title>
<path d="M16.469 11.156h-0.536v-0.027c0-2.688-1.436-5.044-3.58-6.348h2.67c0.184 0.316 0.523 0.531 0.915 0.531 0.587 0 1.063-0.476 1.063-1.063s-0.476-1.063-1.063-1.063c-0.392 0-0.731 0.215-0.915 0.531h-4.929v-0.531c0-0.293-0.238-0.531-0.531-0.531h-2.125c-0.293 0-0.531 0.238-0.531 0.531v0.531h-4.929c-0.184-0.316-0.523-0.531-0.915-0.531-0.587 0-1.063 0.476-1.063 1.063s0.476 1.063 1.063 1.063c0.392 0 0.731-0.215 0.915-0.531h2.67c-2.144 1.305-3.58 3.66-3.58 6.348v0.027h-0.536c-0.293 0-0.531 0.238-0.531 0.531v2.125c0 0.293 0.238 0.531 0.531 0.531h2.125c0.293 0 0.531-0.238 0.531-0.531v-2.125c0-0.293-0.238-0.531-0.531-0.531h-0.527v-0.027c0-2.963 2.033-5.456 4.777-6.166v0.349c0 0.293 0.238 0.531 0.531 0.531h2.125c0.293 0 0.531-0.238 0.531-0.531v-0.349c2.744 0.709 4.777 3.203 4.777 6.166v0.027h-0.527c-0.293 0-0.531 0.238-0.531 0.531v2.125c0 0.293 0.238 0.531 0.531 0.531h2.125c0.293 0 0.531-0.238 0.531-0.531v-2.125c0-0.293-0.238-0.531-0.531-0.531zM2.125 13.281h-1.063v-1.063h1.063v1.063zM9.031 4.781h-1.063v-1.063h1.063v1.063zM15.938 13.281h-1.063v-1.063h1.063v1.063z"></path>
</svg>
