<!-- Generated by IcoMoon.io -->
<svg version="1.1" xmlns="http://www.w3.org/2000/svg" width="17" height="17" viewBox="0 0 17 17">
<title>wallet2</title>
<path d="M16.994 4.822c0.008-0.393-0.098-1.309-1.292-1.628l-11.993-2.401c-0.879 0-1.594 0.715-1.594 1.594v2.137l-0.531-0.001c-0.876 0.004-1.588 0.716-1.588 1.593v8.497c0 0.879 0.715 1.594 1.594 1.594h13.82c0.879 0 1.594-0.715 1.594-1.594l-0.010-9.79zM3.177 2.387c0-0.278 0.214-0.506 0.485-0.529l11.721 2.372c0.004 0.002-0.087 0.298-0.513 0.292h-11.693v-2.135zM15.941 14.613c0 0.293-0.238 0.531-0.531 0.531h-13.82c-0.293 0-0.531-0.238-0.531-0.531v-8.497c0-0.293 0.238-0.531 0.531-0.531h13.282c0.521 0 1.069-0.178 1.069-0.529v9.558zM3.185 9.305c-0.587 0-1.063 0.476-1.063 1.063s0.476 1.063 1.063 1.063 1.062-0.476 1.062-1.063-0.476-1.063-1.062-1.063z"></path>
</svg>
