<?xml version="1.0" encoding="utf-8"?>
<!-- Generator: Adobe Illustrator 18.0.0, SVG Export Plug-In . SVG Version: 6.00 Build 0)  -->
<!DOCTYPE svg PUBLIC "-//W3C//DTD SVG 1.1//EN" "http://www.w3.org/Graphics/SVG/1.1/DTD/svg11.dtd">
<svg version="1.1" id="Layer_1" xmlns="http://www.w3.org/2000/svg" xmlns:xlink="http://www.w3.org/1999/xlink" x="0px" y="0px"
	 viewBox="0 123.3 595.3 595.3" enable-background="new 0 123.3 595.3 595.3" xml:space="preserve" width="40px" height="40px">
<g id="Layer_1_2_">
	<g id="Layer_1_1_">
	</g>
</g>
<g id="Layer_2_4_">
	<g>
		<g id="Layer_2_1_">
			<g>
				<g>
					<g>
						<path fill="#006B8D" d="M227.7,145.3c61.5,0,111.6,50.1,111.6,111.6s-50.1,111.6-111.6,111.6s-111.6-50.1-111.6-111.6
							S166.2,145.3,227.7,145.3 M227.7,123.3c-73.6,0-133.5,59.7-133.5,133.5c0,73.7,59.7,133.5,133.5,133.5s133.5-59.7,133.5-133.5
							C361.2,183,301.4,123.3,227.7,123.3L227.7,123.3z"/>
					</g>
					<g>
						<path fill="#006B8D" d="M271.8,247.2h-67.7v-23.1c0-6.6,2.3-12,6.9-16.7c4.6-4.6,10.1-6.9,16.7-6.9s12,2.3,16.7,6.9
							c4.5,4.5,6.8,10,6.9,16.5c0,0.1,0,24,0,24c0,1.5,0.6,2.9,1.8,4.2c1.2,1.2,2.5,1.8,4.2,1.8h5.8c1.5,0,2.9-0.6,4.2-1.8
							c1.2-1.2,1.8-2.5,1.8-4.2c0-0.1,0-24,0-24.1c-0.1-11.2-4-20.9-12.2-28.9c-8.1-8.1-17.8-12.2-29.1-12.2s-21.1,4-29.1,12.2
							c-8.1,8.1-12.2,17.8-12.2,29.1v23.1h-2.9c-2.5,0-4.5,0.8-6.3,2.6c-1.7,1.7-2.6,3.8-2.6,6.3v65.7c0,2.5,0.8,4.5,2.6,6.3
							c1.7,1.7,3.8,2.6,6.3,2.6h88.4c2.5,0,4.5-0.8,6.3-2.6c1.7-1.7,2.6-3.8,2.6-6.3v-65.7c0-2.5-0.8-4.5-2.6-6.3
							C276.4,248.2,274.3,247.2,271.8,247.2z M234.6,290.4v17.2c0,3.4-2.9,6.3-6.3,6.3h-1.2c-3.4,0-6.3-2.9-6.3-6.3v-17.2
							c-3.7-2.3-6.2-6.5-6.2-11.1c0-7.2,5.8-13.1,13.1-13.1c7.2,0,13.1,5.8,13.1,13.1C240.8,284,238.3,288,234.6,290.4z"/>
					</g>
					<g id="Layer_2">
					</g>
				</g>
			</g>
		</g>
		<g>
			<g>
				<g>
					<path fill="#006B8D" d="M551.5,298.7c23.9,0,43.6,0,43.6,0l-86.9-93.4v46.8C508.1,277.9,527.6,298.7,551.5,298.7z"/>
					<g>
						<g>
							<g>
								<path fill="#006B8D" d="M457.9,523.7h10.3c1.9,0,3.3-1.5,3.3-3.3v-10.6c0-1.8-1.4-3.3-3.3-3.3h-10.3c-1.8,0-3.3,1.5-3.3,3.3
									v10.6C454.6,522.2,456.1,523.7,457.9,523.7z"/>
								<path fill="#006B8D" d="M457.9,496.8h10.3c1.9,0,3.3-1.4,3.3-3.3v-10.6c0-1.9-1.4-3.3-3.3-3.3h-10.3c-1.8,0-3.3,1.4-3.3,3.3
									v10.6C454.6,495.4,456.1,496.8,457.9,496.8z"/>
								<path fill="#006B8D" d="M457.9,470h10.3c1.9,0,3.3-1.4,3.3-3.3v-10.6c0-1.9-1.4-3.3-3.3-3.3h-10.3c-1.8,0-3.3,1.5-3.3,3.3
									v10.6C454.6,468.5,456.1,470,457.9,470z"/>
								<path fill="#006B8D" d="M359.3,439h80.8c1.8,0,3.3-1.5,3.3-3.3v-52.3c0-1.9-1.5-3.3-3.3-3.3h-80.8c-1.9,0-3.3,1.4-3.3,3.3
									v52.3C356,437.5,357.5,439,359.3,439z"/>
								<path fill="#006B8D" d="M359.3,515.8h80.8c1.8,0,3.3-1.5,3.3-3.3v-48.4c0-1.8-1.5-3.3-3.3-3.3h-80.8c-1.9,0-3.3,1.4-3.3,3.3
									v48.4C356,514.2,357.5,515.8,359.3,515.8z"/>
								<path fill="#006B8D" d="M457.9,389.3h10.3c1.9,0,3.3-1.4,3.3-3.3v-10.6c0-1.9-1.4-3.3-3.3-3.3h-10.3c-1.8,0-3.3,1.4-3.3,3.3
									V386C454.6,387.8,456.1,389.3,457.9,389.3z"/>
								<path fill="#006B8D" d="M331.2,416.1h10.3c1.8,0,3.3-1.5,3.3-3.3v-10.6c0-1.9-1.4-3.3-3.3-3.3h-10.3c-1.8,0-3.3,1.4-3.3,3.3
									v10.6C327.9,414.7,329.4,416.1,331.2,416.1z"/>
								<path fill="#006B8D" d="M457.9,443.1h10.3c1.9,0,3.3-1.5,3.3-3.3v-10.6c0-1.9-1.4-3.3-3.3-3.3h-10.3c-1.8,0-3.3,1.5-3.3,3.3
									v10.6C454.6,441.6,456.1,443.1,457.9,443.1z"/>
								<path fill="#006B8D" d="M327.9,386c0,1.9,1.5,3.3,3.3,3.3h10.3c1.8,0,3.3-1.4,3.3-3.3v-10.6c0-1.9-1.4-3.3-3.3-3.3h-6.1
									c-2.4,2.3-4.9,4.5-7.4,6.5L327.9,386L327.9,386z"/>
								<path fill="#006B8D" d="M457.9,416.1h10.3c1.9,0,3.3-1.5,3.3-3.3v-10.6c0-1.9-1.4-3.3-3.3-3.3h-10.3c-1.8,0-3.3,1.4-3.3,3.3
									v10.6C454.6,414.7,456.1,416.1,457.9,416.1z"/>
								<path fill="#006B8D" d="M419.2,592.3c-4.7,0-8.2,1.3-10.6,4c-2.4,2.7-3.5,6.5-3.5,11.4c0,5.4,1,9.1,3,11.3
									c2,2.1,5,3.2,8.9,3.2c1.8,0,3.5-0.3,5.3-0.8c1.7-0.6,3.3-1.3,4.7-2.3v-25.3c-1-0.4-2.3-0.8-3.8-1
									C421.7,592.5,420.4,592.3,419.2,592.3z"/>
								<path fill="#006B8D" d="M545.6,321.3c-27.1,0-60.2-34.5-60.2-63.6c0-28.9,0-52.6,0-52.6H376.8c5.6,16.2,8.7,33.7,8.7,51.7
									c0,40.5-15.2,77.4-40.3,105.3h125.1c6.1,0,10.9,5,10.9,10.9v149.9c0,6.1-5,10.9-10.9,10.9H329c-6.1,0-10.9-4.9-10.9-10.9
									V386.2c-25.6,17.9-56.7,28.4-90.3,28.4c-8,0-16-0.6-23.7-1.8v249c0,31.3,25.4,56.8,56.8,56.8h277.6
									c31.3,0,56.8-25.4,56.8-56.8V321.3H545.6z M300.6,636.6H282v-19.5h18.6V636.6z M373.1,623.9c-1.3,3-3.5,5.6-6.3,7.7
									s-6.1,3.7-9.8,4.8s-8.3,1.7-13.7,1.7c-6.1,0-11.4-0.5-15.8-1.4c-4.4-0.9-8-2-10.7-3.2v-16.2h1.9c2.9,1.8,6.2,3.2,10.3,4.5
									c4,1.3,7.6,1.9,10.9,1.9c1.9,0,4-0.2,6.3-0.5c2.3-0.3,4.1-1,5.7-2.1c1.3-0.8,2.2-1.9,2.9-3c0.8-1.2,1.1-2.9,1.1-5.1
									c0-2.2-0.5-3.8-1.5-5c-1-1.2-2.3-2-4-2.5c-1.6-0.5-3.6-0.8-5.9-0.8c-2.3-0.1-4.4-0.1-6.4-0.1h-4v-13.2h4.2
									c2.6,0,4.9-0.1,6.9-0.3c2-0.2,3.7-0.6,5-1.2c1.4-0.6,2.5-1.4,3.3-2.5c0.8-1,1.1-2.6,1.1-4.6c0-1.5-0.4-2.7-1.2-3.6
									c-0.8-0.9-1.8-1.6-2.9-2.2c-1.3-0.6-2.9-1-4.5-1.2c-1.8-0.2-3.3-0.3-4.5-0.3c-3.1,0-6.5,0.5-10.2,1.6
									c-3.6,1.1-7.2,2.6-10.6,4.6h-1.9v-16.1c2.7-1.1,6.4-2.2,11.1-3.2s9.4-1.5,14.2-1.5c4.7,0,8.7,0.4,12.3,1.2
									c3.5,0.8,6.4,1.9,8.7,3.3c2.7,1.6,4.7,3.6,6.1,5.9c1.3,2.4,2,5,2,8.2c0,4.1-1.3,7.8-3.9,11c-2.5,3.2-5.9,5.3-10.1,6.2v0.7
									c1.7,0.3,3.4,0.7,5.4,1.4s3.6,1.7,5.2,3c1.6,1.4,2.9,3,3.9,4.9c0.9,1.9,1.4,4.3,1.4,7.4C375.1,617.7,374.4,621,373.1,623.9z
									 M444.9,630.3c0,5.2-0.8,9.7-2.3,13.2c-1.5,3.6-3.6,6.4-6.3,8.4c-2.7,2-5.9,3.5-9.8,4.5c-3.8,0.9-8.1,1.3-12.9,1.3
									c-3.9,0-7.7-0.3-11.4-0.7c-3.8-0.5-7-1-9.8-1.7v-14h2.2c2.2,0.8,4.9,1.7,8,2.4c3.1,0.7,6,1.1,8.4,1.1c3.3,0,6-0.3,8.1-0.9
									s3.6-1.5,4.7-2.6c1-1.1,1.8-2.4,2.3-4c0.5-1.7,0.7-3.6,0.7-6v-1c-2.2,1.8-4.5,3.1-7.2,4.2c-2.6,1-5.6,1.5-8.7,1.5
									c-7.8,0-13.9-2.4-18.1-7.1s-6.4-11.9-6.4-21.5c0-4.6,0.7-8.6,1.9-11.9c1.3-3.4,3.1-6.3,5.5-8.7c2.2-2.4,4.9-4.1,8.1-5.4
									c3.2-1.3,6.5-1.9,9.8-1.9c3,0,5.7,0.3,8.2,1.1c2.4,0.7,4.7,1.7,6.7,2.9l0.7-2.5h17.4L444.9,630.3L444.9,630.3z M520.8,636.6
									h-58.1v-12.3c4.5-3.2,8.9-6.6,13.4-10.3c4.5-3.6,8.1-6.7,10.7-9.3c4-3.9,6.9-7.2,8.6-10.2c1.7-2.9,2.5-5.7,2.5-8.6
									c0-3.4-1.1-6-3.3-7.8c-2.2-1.9-5.3-2.8-9.3-2.8c-3,0-6.2,0.6-9.6,1.9s-6.5,2.9-9.3,4.8h-1.6v-16.5c2.4-1,5.8-2,10.4-3.1
									c4.6-1,9.2-1.5,13.8-1.5c9.3,0,16.4,1.9,21.3,5.8c4.9,3.9,7.3,9.4,7.3,16.6c0,4.7-1.2,9.1-3.5,13.4
									c-2.4,4.2-5.9,8.6-10.7,13c-3,2.8-6.1,5.4-9.1,7.7c-3,2.4-5.2,4-6.5,4.9h33.1V636.6z"/>
								<path fill="#006B8D" d="M331.2,523.7h10.3c1.8,0,3.3-1.5,3.3-3.3v-10.6c0-1.8-1.4-3.3-3.3-3.3h-10.3c-1.8,0-3.3,1.5-3.3,3.3
									v10.6C327.9,522.2,329.4,523.7,331.2,523.7z"/>
								<path fill="#006B8D" d="M331.2,496.8h10.3c1.8,0,3.3-1.4,3.3-3.3v-10.6c0-1.9-1.4-3.3-3.3-3.3h-10.3c-1.8,0-3.3,1.4-3.3,3.3
									v10.6C327.9,495.4,329.4,496.8,331.2,496.8z"/>
								<path fill="#006B8D" d="M331.2,470h10.3c1.8,0,3.3-1.4,3.3-3.3v-10.6c0-1.9-1.4-3.3-3.3-3.3h-10.3c-1.8,0-3.3,1.5-3.3,3.3
									v10.6C327.9,468.5,329.4,470,331.2,470z"/>
								<path fill="#006B8D" d="M331.2,443.1h10.3c1.8,0,3.3-1.5,3.3-3.3v-10.6c0-1.9-1.4-3.3-3.3-3.3h-10.3c-1.8,0-3.3,1.5-3.3,3.3
									v10.6C327.9,441.6,329.4,443.1,331.2,443.1z"/>
							</g>
						</g>
					</g>
				</g>
			</g>
		</g>
	</g>
</g>
</svg>
