<?xml version="1.0" encoding="utf-8"?>
<!-- Generator: Adobe Illustrator 18.0.0, SVG Export Plug-In . SVG Version: 6.00 Build 0)  -->
<!DOCTYPE svg PUBLIC "-//W3C//DTD SVG 1.1//EN" "http://www.w3.org/Graphics/SVG/1.1/DTD/svg11.dtd">
<svg version="1.1" id="Layer_1" xmlns="http://www.w3.org/2000/svg" xmlns:xlink="http://www.w3.org/1999/xlink" x="0px" y="0px"
	 viewBox="0 123.3 595.3 595.3" enable-background="new 0 123.3 595.3 595.3" xml:space="preserve" width="40px" height="40px">
<g id="Layer_1_1_">
	<g>
		<g>
			<path fill="#006B8D" d="M551.8,298.7c24,0,43.5,0,43.5,0l-87-93.5v46.7C508.3,277.7,527.7,298.7,551.8,298.7z"/>
		</g>
		<g>
			<g>
				<g>
					<g>
						<path fill="#006B8D" d="M457.9,496.3h10.2c1.8,0,3.3-1.4,3.3-3.3v-10.6c0-1.8-1.4-3.3-3.3-3.3h-10.2c-1.8,0-3.3,1.4-3.3,3.3
							V493C454.6,494.8,456.1,496.3,457.9,496.3z"/>
						<path fill="#006B8D" d="M359.4,438.5h80.7c1.8,0,3.3-1.5,3.3-3.3v-52.3c0-1.8-1.4-3.3-3.3-3.3h-80.7c-1.8,0-3.3,1.4-3.3,3.3
							v52.3C356.1,437,357.5,438.5,359.4,438.5z"/>
						<path fill="#006B8D" d="M457.9,523.2h10.2c1.8,0,3.3-1.5,3.3-3.3v-10.6c0-1.8-1.4-3.3-3.3-3.3h-10.2c-1.8,0-3.3,1.4-3.3,3.3
							v10.6C454.6,521.7,456.1,523.2,457.9,523.2z"/>
						<path fill="#006B8D" d="M457.9,469.4h10.2c1.8,0,3.3-1.4,3.3-3.3v-10.6c0-1.8-1.4-3.3-3.3-3.3h-10.2c-1.8,0-3.3,1.4-3.3,3.3
							v10.6C454.6,468,456.1,469.4,457.9,469.4z"/>
						<path fill="#006B8D" d="M359.4,515.1h80.7c1.8,0,3.3-1.4,3.3-3.3v-48.3c0-1.8-1.4-3.3-3.3-3.3h-80.7c-1.8,0-3.3,1.4-3.3,3.3
							v48.3C356.1,513.7,357.5,515.1,359.4,515.1z"/>
						<path fill="#006B8D" d="M457.9,388.7h10.2c1.8,0,3.3-1.4,3.3-3.3v-10.6c0-1.8-1.4-3.3-3.3-3.3h-10.2c-1.8,0-3.3,1.4-3.3,3.3
							v10.6C454.6,387.3,456.1,388.7,457.9,388.7z"/>
						<path fill="#006B8D" d="M457.9,442.6h10.2c1.8,0,3.3-1.5,3.3-3.3v-10.6c0-1.8-1.4-3.3-3.3-3.3h-10.2c-1.8,0-3.3,1.5-3.3,3.3
							v10.6C454.6,441,456.1,442.6,457.9,442.6z"/>
						<path fill="#006B8D" d="M457.9,415.6h10.2c1.8,0,3.3-1.5,3.3-3.3v-10.6c0-1.8-1.4-3.3-3.3-3.3h-10.2c-1.8,0-3.3,1.4-3.3,3.3
							v10.6C454.6,414.2,456.1,415.6,457.9,415.6z"/>
						<path fill="#006B8D" d="M331.3,415.6h10.2c1.8,0,3.3-1.5,3.3-3.3v-10.6c0-1.8-1.4-3.3-3.3-3.3h-10.2c-1.8,0-3.3,1.4-3.3,3.3
							v10.6C328,414.2,329.5,415.6,331.3,415.6z"/>
						<path fill="#006B8D" d="M331.3,523.2h10.2c1.8,0,3.3-1.5,3.3-3.3v-10.6c0-1.8-1.4-3.3-3.3-3.3h-10.2c-1.8,0-3.3,1.4-3.3,3.3
							v10.6C328,521.7,329.5,523.2,331.3,523.2z"/>
						<path fill="#006B8D" d="M331.3,496.3h10.2c1.8,0,3.3-1.4,3.3-3.3v-10.6c0-1.8-1.4-3.3-3.3-3.3h-10.2c-1.8,0-3.3,1.4-3.3,3.3
							V493C328,494.8,329.5,496.3,331.3,496.3z"/>
						<path fill="#006B8D" d="M545.9,321.2c-27.1,0-60.3-34.6-60.3-63.5c0-29,0-52.6,0-52.6H260.9c-31.3,0.2-56.7,25.6-56.7,56.9
							v151v249c0,31.3,25.4,56.7,56.7,56.7h277.5c31.3,0,56.7-25.4,56.7-56.7V321.2H545.9z M318.1,372.5c0-6,4.9-10.9,11-10.9h141.3
							c6,0,11,4.9,11,10.9v149.8c0,6-4.9,10.9-11,10.9H329.1c-6,0-11-4.9-11-10.9L318.1,372.5L318.1,372.5z M300.7,636.1h-18.6
							v-19.6h18.6V636.1z M369.9,601.5c1.6,1.4,2.9,3,3.9,4.9c1,1.8,1.4,4.3,1.4,7.4c0,3.5-0.7,6.7-2,9.7c-1.4,3-3.5,5.6-6.4,7.8
							c-2.8,2.1-6,3.7-9.9,4.8c-3.7,1.1-8.3,1.6-13.7,1.6c-6.1,0-11.4-0.5-15.8-1.4c-4.4-1-7.9-2-10.7-3.2v-16.3h2
							c2.8,1.7,6.2,3.2,10.2,4.5c3.9,1.2,7.6,1.9,10.8,1.9c1.9,0,4-0.1,6.2-0.5c2.2-0.3,4.1-1,5.7-2c1.2-0.9,2.2-1.8,3-3
							c0.7-1.2,1.1-2.9,1.1-5.1c0-2.2-0.5-3.8-1.5-5c-1-1.2-2.3-2-3.9-2.5c-1.6-0.5-3.6-0.8-5.8-0.9c-2.3-0.1-4.4-0.1-6.4-0.1h-4.1
							v-13.2h4.2c2.6,0,4.9-0.1,6.9-0.3c2-0.2,3.7-0.5,5.1-1.1c1.4-0.7,2.6-1.4,3.3-2.5c0.7-1.1,1.1-2.6,1.1-4.6
							c0-1.5-0.4-2.7-1.1-3.6c-0.8-0.9-1.7-1.6-2.9-2.2c-1.3-0.6-2.8-1-4.6-1.2c-1.8-0.2-3.3-0.3-4.5-0.3c-3.1,0-6.5,0.5-10.1,1.6
							c-3.7,1.1-7.2,2.6-10.6,4.7H319v-16.1c2.7-1.1,6.4-2.2,11.1-3.2s9.4-1.5,14.3-1.5c4.7,0,8.8,0.4,12.3,1.2
							c3.5,0.8,6.4,1.9,8.7,3.3c2.7,1.6,4.7,3.6,6,5.9s2,5.1,2,8.1c0,4.1-1.2,7.8-3.8,11c-2.6,3.2-5.9,5.3-10.1,6.2v0.7
							c1.7,0.3,3.5,0.7,5.4,1.4C366.7,599.2,368.3,600.1,369.9,601.5z M445,629.8c0,5.3-0.7,9.7-2.2,13.2c-1.5,3.6-3.6,6.4-6.2,8.4
							c-2.7,2-5.9,3.5-9.7,4.5c-3.8,0.9-8.1,1.4-12.9,1.4c-3.9,0-7.7-0.3-11.5-0.7c-3.7-0.5-7-1.1-9.8-1.7v-14h2.2
							c2.2,0.9,4.9,1.6,8,2.4s6,1.1,8.5,1.1c3.3,0,6-0.3,8.1-0.9s3.7-1.5,4.7-2.6c1.1-1.1,1.8-2.4,2.2-4.1s0.7-3.7,0.7-6v-1.1
							c-2.2,1.8-4.5,3.2-7.2,4.2c-2.6,1.1-5.5,1.5-8.7,1.5c-7.8,0-13.9-2.4-18.1-7.1c-4.3-4.7-6.4-11.9-6.4-21.5c0-4.6,0.7-8.6,2-12
							c1.3-3.4,3.1-6.2,5.5-8.7c2.2-2.3,4.9-4.1,8.1-5.5c3.2-1.3,6.4-2,9.8-2c3,0,5.8,0.3,8.2,1.1c2.4,0.7,4.7,1.7,6.7,3l0.7-2.5
							H445V629.8z M427,618.5v-25.3c-1.1-0.5-2.3-0.8-3.7-1.1c-1.5-0.3-2.8-0.4-4-0.4c-4.7,0-8.2,1.4-10.6,4.1s-3.5,6.5-3.5,11.3
							c0,5.4,1,9.1,3,11.2c2,2.1,5,3.2,8.9,3.2c1.8,0,3.5-0.3,5.3-0.9C424,620.2,425.6,619.5,427,618.5z M520.2,607.4
							c0,4.6-0.7,8.8-2.1,12.6s-3.3,6.9-5.5,9.3c-2.4,2.6-5.1,4.5-8.1,5.8c-3,1.3-6.2,2-9.7,2c-3.2,0-5.9-0.3-8.1-1.1
							c-2.2-0.7-4.5-1.6-6.8-2.9v23.3h-17.9v-76.2h17.9v5.8c2.8-2.2,5.6-3.9,8.4-5.3c2.9-1.4,6.2-2,9.9-2c7,0,12.3,2.6,16.2,7.7
							C518.3,591.5,520.2,598.6,520.2,607.4z M501.7,607.8c0-5.5-0.9-9.4-2.8-11.8c-1.8-2.4-4.8-3.7-8.8-3.7c-1.7,0-3.4,0.3-5.2,0.8
							c-1.8,0.5-3.5,1.2-5.1,2.2v28c1.2,0.5,2.5,0.8,3.8,0.9c1.4,0.1,2.7,0.2,4,0.2c4.7,0,8.3-1.4,10.6-4.1
							C500.6,617.6,501.7,613.4,501.7,607.8z"/>
						<path fill="#006B8D" d="M331.3,469.4h10.2c1.8,0,3.3-1.4,3.3-3.3v-10.6c0-1.8-1.4-3.3-3.3-3.3h-10.2c-1.8,0-3.3,1.4-3.3,3.3
							v10.6C328,468,329.5,469.4,331.3,469.4z"/>
						<path fill="#006B8D" d="M331.3,388.7h10.2c1.8,0,3.3-1.4,3.3-3.3v-10.6c0-1.8-1.4-3.3-3.3-3.3h-10.2c-1.8,0-3.3,1.4-3.3,3.3
							v10.6C328,387.3,329.5,388.7,331.3,388.7z"/>
						<path fill="#006B8D" d="M331.3,442.6h10.2c1.8,0,3.3-1.5,3.3-3.3v-10.6c0-1.8-1.4-3.3-3.3-3.3h-10.2c-1.8,0-3.3,1.5-3.3,3.3
							v10.6C328,441,329.5,442.6,331.3,442.6z"/>
					</g>
				</g>
			</g>
		</g>
	</g>
</g>
<g id="Layer_2">
</g>
</svg>
