<?xml version="1.0" encoding="utf-8"?>
<!-- Generator: Adobe Illustrator 18.0.0, SVG Export Plug-In . SVG Version: 6.00 Build 0)  -->
<!DOCTYPE svg PUBLIC "-//W3C//DTD SVG 1.1//EN" "http://www.w3.org/Graphics/SVG/1.1/DTD/svg11.dtd">
<svg version="1.1" id="Layer_2" xmlns="http://www.w3.org/2000/svg" xmlns:xlink="http://www.w3.org/1999/xlink" x="0px" y="0px"
	 viewBox="0 123.3 595.3 595.3" enable-background="new 0 123.3 595.3 595.3" xml:space="preserve" width="40px" height="40px">
<g>
	<g>
		<g>
			<path fill="#006B8D" d="M228.5,145.2c61.4,0,111.5,50,111.5,111.5s-50,111.5-111.5,111.5S117,318.1,117,256.6
				S166.9,145.2,228.5,145.2 M228.5,123.3c-73.6,0-133.3,59.7-133.3,133.3c0,73.6,59.7,133.3,133.3,133.3s133.3-59.5,133.3-133.3
				C361.7,183,302.1,123.3,228.5,123.3L228.5,123.3z"/>
		</g>
		<g>
			<path fill="#006B8D" d="M272.6,247.2h-67.6v-23.1c0-6.5,2.3-12,6.9-16.7c4.6-4.6,10.1-6.9,16.7-6.9s12,2.3,16.7,6.9
				c4.5,4.5,6.8,10,6.9,16.4c0,0.1,0,23.9,0,23.9c0,1.5,0.6,3,1.8,4.2c1.2,1.2,2.5,1.8,4.2,1.8h5.8c1.5,0,3-0.6,4.2-1.8
				c1.2-1.2,1.8-2.5,1.8-4.2c0-0.1,0-23.9,0-24c-0.1-11.2-4-20.8-12.1-28.8c-8.1-8.1-17.7-12.1-29-12.1s-21.1,4-29,12.1
				c-8.1,8.1-12.1,17.7-12.1,29V247h-3c-2.5,0-4.5,0.8-6.3,2.6c-1.7,1.7-2.6,3.8-2.6,6.3v65.6c0,2.5,0.8,4.5,2.6,6.3
				c1.7,1.7,3.8,2.6,6.3,2.6h88.1c2.5,0,4.5-0.8,6.3-2.6c1.7-1.7,2.6-3.8,2.6-6.3v-65.6c0-2.5-0.8-4.5-2.6-6.3
				C277,248.2,275.1,247.2,272.6,247.2z M235.3,290.3v17.3c0,3.5-2.9,6.3-6.3,6.3h-1.2c-3.5,0-6.3-2.9-6.3-6.3v-17.3
				c-3.7-2.3-6.2-6.4-6.2-11.1c0-7.3,5.8-13.1,13.1-13.1c7.3,0,13.1,5.8,13.1,13.1C241.5,283.9,239,288,235.3,290.3z"/>
		</g>
	</g>
	<g>
		<g>
			<g>
				<path fill="#006B8D" d="M551.7,298.9c23.9,0,43.5,0,43.5,0l-86.8-93.4v46.7C508.4,278.1,527.8,298.9,551.7,298.9z"/>
				<g>
					<g>
						<g>
							<path fill="#006B8D" d="M545.9,321.3c-27.1,0-60.2-34.5-60.2-63.5c0-28.9,0-52.5,0-52.5h-77.5v29.3h-16.9v-29.3h-14.2
								c5.6,16.2,8.7,33.6,8.7,51.6c0,87.1-70.7,157.8-157.8,157.8c-8,0-16-0.6-23.7-1.8v248.9c0,31.3,25.4,56.7,56.7,56.7h277.5
								c31.3,0,56.7-25.4,56.7-56.7V321.3H545.9z M391.3,266.1h16.9v31.3h-16.9V266.1z M391.1,328.6H408V360h-16.9V328.6z
								 M391.1,391.2H408v31.3h-16.9V391.2z M399.6,528.6c-17.5,0-31.7-14.2-31.7-31.7c0-1.3,0.1-2.6,0.2-3.9
								c2.6-24.9,28.9-53.4,28.9-53.4c0.5-0.5,1-0.8,1.4-1.1l0,0l0.8-0.2l0.8,0.2l0,0c0.5,0.2,1,0.6,1.4,1.1
								c0,0,26.7,28.7,29.4,53.3c0.1,1.3,0.2,2.6,0.2,3.9C431.4,514.4,417.2,528.6,399.6,528.6z M342.6,635.4h-18.6v-19.5h18.6
								V635.4z M417.2,576.3l-33.4,59.1h-21.2l34.7-59.7h-37.9v-14.1h57.8L417.2,576.3L417.2,576.3z M480.3,635.4H428V624l29.3-31.2
								h-28.1v-13h50.5V591L450.9,622h29.4L480.3,635.4L480.3,635.4z"/>
							<path fill="#006B8D" d="M399.6,476.6c-11.2,0-20.4,9.2-20.4,20.4s9.2,20.4,20.4,20.4S420,508.2,420,497
								C419.9,485.7,410.9,476.6,399.6,476.6z"/>
						</g>
					</g>
				</g>
			</g>
		</g>
	</g>
</g>
</svg>
