<?xml version="1.0" encoding="utf-8"?>
<!-- Generator: Adobe Illustrator 18.0.0, SVG Export Plug-In . SVG Version: 6.00 Build 0)  -->
<!DOCTYPE svg PUBLIC "-//W3C//DTD SVG 1.1//EN" "http://www.w3.org/Graphics/SVG/1.1/DTD/svg11.dtd">
<svg version="1.1" id="Layer_1" xmlns="http://www.w3.org/2000/svg" xmlns:xlink="http://www.w3.org/1999/xlink" x="0px" y="0px"
	 viewBox="0 123.3 595.3 595.3" enable-background="new 0 123.3 595.3 595.3" xml:space="preserve" width="40px" height="40px">
<g>
	<g>
		<path fill="#006B8D" d="M551.6,298.6c23.9,0,43.6,0,43.6,0l-86.8-93.4v46.8C508.3,277.7,527.7,298.6,551.6,298.6z"/>
		<g>
			<g>
				<g>
					<path fill="#006B8D" d="M545.8,321.1c-27.1,0-60.2-34.6-60.2-63.6s0-52.4,0-52.4h-77.5v29.2h-16.9v-29.2H260.8
						c-31.3,0.1-56.8,25.4-56.8,56.8v151v0.1v248.9c0,31.3,25.4,56.8,56.8,56.8h277.7c31.3,0,56.8-25.4,56.8-56.8V321.1H545.8z
						 M391.2,265.7h16.9V297h-16.9V265.7z M391,328.4h16.9v31.3H391V328.4z M391,391h16.9v31.3H391V391z M399.5,528.5
						c-17.5,0-31.7-14.2-31.7-31.7c0-1.3,0.1-2.6,0.2-3.9c2.6-24.8,28.9-53.3,28.9-53.3c0.5-0.5,1-0.8,1.4-1.1l0.8-0.2l0.8,0.2
						c0.5,0.2,1,0.6,1.4,1.1c0,0,26.7,28.6,29.4,53.3c0.1,1.3,0.2,2.6,0.2,3.9C431.2,514.2,417,528.5,399.5,528.5z M342.7,635.4
						h-18.6v-19.5h18.6V635.4z M417.5,576.2L384,635.4h-21.3l34.8-59.8h-38v-14.2h58V576.2z M480.7,635.4h-52.4v-11.5l29.4-31.3
						h-28.2v-13.1h50.6v11.3l-28.9,31.2h29.5V635.4z"/>
					<path fill="#006B8D" d="M399.5,476.3c-11.2,0-20.4,9.2-20.4,20.4s9.2,20.4,20.4,20.4s20.4-9.2,20.4-20.4
						C419.8,485.5,410.7,476.3,399.5,476.3z"/>
				</g>
			</g>
		</g>
	</g>
</g>
</svg>
