<?xml version="1.0" encoding="utf-8"?>
<!-- Generator: Adobe Illustrator 18.0.0, SVG Export Plug-In . SVG Version: 6.00 Build 0)  -->
<!DOCTYPE svg PUBLIC "-//W3C//DTD SVG 1.1//EN" "http://www.w3.org/Graphics/SVG/1.1/DTD/svg11.dtd">
<svg version="1.1" id="Layer_1" xmlns="http://www.w3.org/2000/svg" xmlns:xlink="http://www.w3.org/1999/xlink" x="0px" y="0px"
	 viewBox="0 123.3 595.3 595.3" enable-background="new 0 123.3 595.3 595.3" xml:space="preserve" width="40px" height="40px">
<g id="Layer_1_1_">
	<g>
		<path fill="#006B8D" d="M508.3,251.9c0,25.8,19.4,46.7,43.5,46.7c23.9,0,43.5,0,43.5,0l-86.9-93.4L508.3,251.9L508.3,251.9z"/>
		<path fill="#006B8D" d="M204.1,261.8v400c0,31.3,25.4,56.7,56.7,56.7h277.5c31.3,0,56.7-25.4,56.7-56.7V321.1h-49.2
			c-27.1,0-60.3-34.5-60.3-63.5c0-29,0-52.5,0-52.5H260.8C229.5,205.2,204.1,230.5,204.1,261.8z M342.6,472.3
			c7.7-1.7,15.4-1.3,22,0.7v-82.1c0-5.6,3.9-10.5,9.4-11.7l99.3-21l0,0c0.4-0.1,0.7-0.1,1.2-0.1c0.5,0,0.8-0.1,1.2-0.1l0,0
			c0.1,0,0.4,0,0.5,0.1c0.6,0,1.2,0,1.8,0.1c0.4,0.1,0.7,0.2,1.1,0.4c0.4,0.1,0.7,0.2,1.1,0.4c0.4,0.1,0.8,0.4,1.2,0.6
			c0.2,0.1,0.6,0.2,0.8,0.5c0.4,0.2,0.6,0.5,1,0.7c0.2,0.2,0.6,0.5,0.8,0.7c0.2,0.2,0.5,0.6,0.7,0.8c0.2,0.2,0.5,0.6,0.7,0.8
			c0.2,0.4,0.5,0.8,0.7,1.2c0.1,0.2,0.4,0.6,0.5,0.8c0.2,0.6,0.5,1.2,0.6,1.9c0,0.1,0.1,0.2,0.1,0.4l0,0c0.1,0.4,0.1,0.8,0.1,1.3
			c0,0.4,0.1,0.7,0.1,1.2l0,0v108.7c0,0.7-0.1,1.4-0.2,2c-0.2,15.4-13.5,29.6-32.3,33.7c-21.2,4.5-41.3-6-45-23.5
			c-3.7-17.5,10.5-35.2,31.7-39.8c7.7-1.7,15.4-1.3,22,0.7v-67.3l-75.2,16v99.2c0,0.7-0.1,1.4-0.2,2c-0.2,15.4-13.5,29.6-32.3,33.7
			c-21.2,4.5-41.3-6-45-23.5C307.2,494.5,321.5,476.8,342.6,472.3z M336,635.5h-18.6v-19.6H336V635.5z M387.4,629.6
			c-1,0.7-2.2,1.6-3.6,2.6c-1.4,1.1-2.8,1.8-4,2.4c-1.8,0.8-3.6,1.4-5.5,1.8c-1.9,0.4-3.9,0.6-6.2,0.6c-5.3,0-9.7-1.6-13.3-4.9
			c-3.6-3.3-5.4-7.5-5.4-12.6c0-4.1,0.9-7.4,2.8-10s4.4-4.6,7.8-6.1c3.3-1.5,7.4-2.6,12.4-3.2c4.9-0.7,10-1.1,15.3-1.4v-0.3
			c0-3.1-1.2-5.2-3.8-6.4c-2.5-1.2-6.2-1.8-11.2-1.8c-3,0-6.1,0.5-9.5,1.6c-3.4,1.1-5.8,1.8-7.2,2.4h-1.6v-13.5
			c1.9-0.5,5-1.1,9.2-1.8c4.3-0.7,8.5-1.1,12.8-1.1c10.2,0,17.5,1.6,22.1,4.7c4.5,3.2,6.8,8.1,6.8,14.8v38h-17.7L387.4,629.6
			L387.4,629.6z M387.4,620.9v-11.6c-2.4,0.2-5.1,0.5-7.9,0.8c-2.8,0.3-4.9,0.7-6.4,1.2c-1.8,0.6-3.2,1.4-4.1,2.4s-1.4,2.5-1.4,4.3
			c0,1.2,0.1,2.1,0.3,2.8c0.2,0.7,0.7,1.4,1.5,2.1c0.8,0.7,1.6,1.1,2.8,1.4c1.1,0.3,2.7,0.5,5,0.5c1.8,0,3.6-0.4,5.5-1.1
			C384.4,623,386,622.1,387.4,620.9z M440.1,571.7h-19v-13.6h19V571.7z M439.6,635.5h-17.9v-55.9h17.9V635.5z M492.7,571.3h-1.3
			c-0.8-0.3-1.8-0.5-3.1-0.8c-1.2-0.3-2.6-0.5-4.1-0.5c-3.5,0-5.9,0.7-7.1,1.9c-1.2,1.2-1.8,3.7-1.8,7.3v0.5h13.8v12.2h-13.2v43.8
			H458v-43.8h-7.7v-12.2h7.7v-1.5c0-6.8,1.8-12,5.5-15.4s9.1-5.1,16.5-5.1c2.6,0,5.1,0.1,7.2,0.3s4.1,0.4,5.7,0.7v12.6H492.7z"/>
	</g>
</g>
<g id="Layer_2">
</g>
</svg>
