<?xml version="1.0" encoding="utf-8"?>
<!-- Generator: Adobe Illustrator 18.0.0, SVG Export Plug-In . SVG Version: 6.00 Build 0)  -->
<!DOCTYPE svg PUBLIC "-//W3C//DTD SVG 1.1//EN" "http://www.w3.org/Graphics/SVG/1.1/DTD/svg11.dtd">
<svg version="1.1" id="Layer_1" xmlns="http://www.w3.org/2000/svg" xmlns:xlink="http://www.w3.org/1999/xlink" x="0px" y="0px"
	 viewBox="0 123.3 595.3 595.3" enable-background="new 0 123.3 595.3 595.3" xml:space="preserve" width="40px" height="40px">
<g id="Layer_3">
</g>
<g>
	<g>
		<g>
			<path fill="#006B8D" d="M227.6,145.2c61.5,0,111.5,50.1,111.5,111.5s-50.1,111.5-111.5,111.5s-111.5-50-111.5-111.4
				S166.2,145.2,227.6,145.2 M227.6,123.3C154,123.3,94.2,183,94.2,256.8c0,73.7,59.6,133.4,133.4,133.4s133.4-59.6,133.4-133.4
				S301.3,123.3,227.6,123.3L227.6,123.3z"/>
		</g>
		<g>
			<path fill="#006B8D" d="M271.8,247.3h-67.6v-23.1c0-6.5,2.3-12,6.9-16.7c4.6-4.6,10.1-6.9,16.7-6.9s12,2.3,16.7,6.9
				c4.5,4.5,6.8,10,6.9,16.4c0,0.1,0-0.1,0,0c0,1.5,0.6,3,1.8,4.2c1.2,1.2,2.5,1.8,4.2,1.8h5.8c1.5,0,3-0.6,4.2-1.8s1.8-2.5,1.8-4.2
				c0-0.1,0,0.1,0,0c-0.1-11.2-4-20.8-12.1-28.9c-8.1-8.1-17.8-12.1-29-12.1c-11.3,0-21.1,4-29,12.1c-8.1,8.1-12.1,17.8-12.1,29
				v23.1h-3c-2.5,0-4.5,0.8-6.3,2.6c-1.7,1.7-2.6,3.8-2.6,6.3v65.7c0,2.5,0.8,4.5,2.6,6.3c1.7,1.7,3.8,2.6,6.3,2.6h88.4
				c2.5,0,4.5-0.8,6.3-2.6c1.7-1.7,2.6-3.8,2.6-6.3v-65.7c0-2.5-0.8-4.5-2.6-6.3C276.4,248.2,274.3,247.3,271.8,247.3z M234.7,290.5
				v17.3c0,3.5-2.9,6.3-6.3,6.3h-1.2c-3.5,0-6.3-2.9-6.3-6.3v-17.3c-3.7-2.3-6.2-6.4-6.2-11.1c0-7.3,5.8-13.1,13.1-13.1
				c7.3,0,13.1,5.8,13.1,13.1C240.7,283.9,238.3,288,234.7,290.5z"/>
		</g>
	</g>
	<g>
		<g>
			<path fill="#006B8D" d="M551.5,298.7c23.9,0,43.6,0,43.6,0l-86.9-93.4v46.8C508.1,277.9,527.6,298.7,551.5,298.7z"/>
			<g>
				<g>
					<g>
						<path fill="#006B8D" d="M457.9,523.7h10.3c1.9,0,3.3-1.5,3.3-3.3v-10.6c0-1.8-1.4-3.3-3.3-3.3h-10.3c-1.8,0-3.3,1.5-3.3,3.3
							v10.6C454.6,522.2,456.1,523.7,457.9,523.7z"/>
						<path fill="#006B8D" d="M457.9,496.8h10.3c1.9,0,3.3-1.4,3.3-3.3v-10.6c0-1.9-1.4-3.3-3.3-3.3h-10.3c-1.8,0-3.3,1.4-3.3,3.3
							v10.6C454.6,495.4,456.1,496.8,457.9,496.8z"/>
						<path fill="#006B8D" d="M457.9,470h10.3c1.9,0,3.3-1.4,3.3-3.3v-10.6c0-1.9-1.4-3.3-3.3-3.3h-10.3c-1.8,0-3.3,1.5-3.3,3.3
							v10.6C454.6,468.5,456.1,470,457.9,470z"/>
						<path fill="#006B8D" d="M359.3,439h80.8c1.8,0,3.3-1.5,3.3-3.3v-52.3c0-1.9-1.5-3.3-3.3-3.3h-80.8c-1.9,0-3.3,1.4-3.3,3.3
							v52.3C356,437.5,357.5,439,359.3,439z"/>
						<path fill="#006B8D" d="M359.3,515.8h80.8c1.8,0,3.3-1.5,3.3-3.3v-48.4c0-1.8-1.5-3.3-3.3-3.3h-80.8c-1.9,0-3.3,1.4-3.3,3.3
							v48.4C356,514.2,357.5,515.8,359.3,515.8z"/>
						<path fill="#006B8D" d="M457.9,389.3h10.3c1.9,0,3.3-1.4,3.3-3.3v-10.6c0-1.9-1.4-3.3-3.3-3.3h-10.3c-1.8,0-3.3,1.4-3.3,3.3
							V386C454.6,387.8,456.1,389.3,457.9,389.3z"/>
						<path fill="#006B8D" d="M331.2,416.1h10.3c1.8,0,3.3-1.5,3.3-3.3v-10.6c0-1.9-1.4-3.3-3.3-3.3h-10.3c-1.8,0-3.3,1.4-3.3,3.3
							v10.6C327.9,414.7,329.4,416.1,331.2,416.1z"/>
						<path fill="#006B8D" d="M457.9,443.1h10.3c1.9,0,3.3-1.5,3.3-3.3v-10.6c0-1.9-1.4-3.3-3.3-3.3h-10.3c-1.8,0-3.3,1.5-3.3,3.3
							v10.6C454.6,441.6,456.1,443.1,457.9,443.1z"/>
						<path fill="#006B8D" d="M327.9,386c0,1.9,1.5,3.3,3.3,3.3h10.3c1.8,0,3.3-1.4,3.3-3.3v-10.6c0-1.9-1.4-3.3-3.3-3.3h-6.1
							c-2.4,2.3-4.9,4.5-7.4,6.5L327.9,386L327.9,386z"/>
						<path fill="#006B8D" d="M457.9,416.1h10.3c1.9,0,3.3-1.5,3.3-3.3v-10.6c0-1.9-1.4-3.3-3.3-3.3h-10.3c-1.8,0-3.3,1.4-3.3,3.3
							v10.6C454.6,414.7,456.1,416.1,457.9,416.1z"/>
						<path fill="#006B8D" d="M545.6,321.3c-27.1,0-60.2-34.5-60.2-63.6c0-28.9,0-52.6,0-52.6H376.8c5.6,16.2,8.7,33.7,8.7,51.7
							c0,40.5-15.2,77.4-40.3,105.3h125.1c6.1,0,10.9,5,10.9,10.9v149.9c0,6.1-5,10.9-10.9,10.9H329c-6.1,0-10.9-4.9-10.9-10.9
							V386.2c-25.6,17.9-56.7,28.4-90.3,28.4c-8,0-16-0.6-23.7-1.8v249c0,31.3,25.4,56.8,56.8,56.8h277.6
							c31.3,0,56.8-25.4,56.8-56.8V321.3H545.6z M309.6,636.1H291v-19.6h18.6V636.1z M361,630.3c-1,0.8-2.2,1.7-3.6,2.6
							c-1.4,1-2.8,1.9-4,2.4c-1.8,0.8-3.6,1.3-5.5,1.8c-1.9,0.4-4,0.6-6.2,0.6c-5.3,0-9.8-1.7-13.3-5c-3.6-3.3-5.4-7.5-5.4-12.6
							c0-4,0.9-7.4,2.8-10c1.9-2.5,4.4-4.6,7.7-6.1c3.3-1.5,7.4-2.5,12.4-3.1c5-0.7,10-1.1,15.3-1.3v-0.3c0-3.1-1.3-5.2-3.8-6.4
							c-2.5-1.2-6.2-1.8-11.2-1.8c-2.9,0-6.1,0.5-9.4,1.6c-3.4,1-5.8,1.9-7.2,2.4h-1.7v-13.5c1.9-0.5,5-1.1,9.2-1.8
							c4.3-0.7,8.5-1,12.8-1c10.2,0,17.5,1.6,22,4.7c4.5,3.1,6.7,8.1,6.7,14.8v38h-17.8L361,630.3L361,630.3z M361,621.6V610
							c-2.4,0.2-5,0.4-7.9,0.8c-2.9,0.3-5,0.8-6.5,1.2c-1.8,0.6-3.1,1.3-4,2.4c-0.9,1-1.4,2.5-1.4,4.3c0,1.2,0.2,2.1,0.3,2.9
							c0.2,0.8,0.8,1.4,1.5,2.1c0.8,0.7,1.7,1.1,2.8,1.4c1,0.3,2.7,0.4,5,0.4c1.8,0,3.6-0.4,5.5-1.1
							C358,623.7,359.6,622.8,361,621.6z M443.8,618.5c0,5.8-2.5,10.4-7.7,14c-5.2,3.5-12.3,5.3-21.2,5.3c-5,0-9.4-0.4-13.5-1.3
							c-4-0.9-7.3-1.9-9.8-3.1v-14.7h1.7c0.9,0.7,1.9,1.3,3.1,2c1.2,0.8,2.9,1.6,5,2.4c1.9,0.8,4,1.4,6.3,1.9s4.9,0.8,7.6,0.8
							c3.4,0,6.1-0.4,7.8-1.2c1.7-0.8,2.5-1.9,2.5-3.4c0-1.3-0.5-2.4-1.5-2.9c-1-0.6-2.9-1.2-5.6-1.8c-1.3-0.3-3.1-0.6-5.4-1
							c-2.3-0.4-4.4-0.8-6.1-1.3c-5-1.3-8.8-3.4-11.3-6.1c-2.4-2.9-3.7-6.3-3.7-10.4c0-5.4,2.5-9.8,7.7-13.4
							c5.1-3.5,12-5.3,20.9-5.3c4.2,0,8.2,0.4,12,1.3c3.8,0.8,6.8,1.8,9,2.7v14.1h-1.5c-2.6-1.9-5.6-3.3-9.1-4.5
							c-3.4-1.2-6.8-1.7-10.3-1.7c-2.9,0-5.3,0.4-7.3,1.2c-1.9,0.8-2.9,1.9-2.9,3.4c0,1.3,0.4,2.4,1.3,3c0.9,0.8,3,1.3,6.3,2.1
							c1.9,0.4,3.8,0.8,5.9,1c2.1,0.3,4.2,0.8,6.4,1.3c4.7,1.3,8.2,3.1,10.4,5.8C442.6,611.2,443.8,614.5,443.8,618.5z M514,636.1
							h-20.9l-11.9-16.7l-12.3,16.7h-20.5l22-28l-21.7-27.9h20.9l11.8,16.4l11.9-16.4h20.5l-21.7,27.5L514,636.1z"/>
						<path fill="#006B8D" d="M331.2,523.7h10.3c1.8,0,3.3-1.5,3.3-3.3v-10.6c0-1.8-1.4-3.3-3.3-3.3h-10.3c-1.8,0-3.3,1.5-3.3,3.3
							v10.6C327.9,522.2,329.4,523.7,331.2,523.7z"/>
						<path fill="#006B8D" d="M331.2,496.8h10.3c1.8,0,3.3-1.4,3.3-3.3v-10.6c0-1.9-1.4-3.3-3.3-3.3h-10.3c-1.8,0-3.3,1.4-3.3,3.3
							v10.6C327.9,495.4,329.4,496.8,331.2,496.8z"/>
						<path fill="#006B8D" d="M331.2,470h10.3c1.8,0,3.3-1.4,3.3-3.3v-10.6c0-1.9-1.4-3.3-3.3-3.3h-10.3c-1.8,0-3.3,1.5-3.3,3.3
							v10.6C327.9,468.5,329.4,470,331.2,470z"/>
						<path fill="#006B8D" d="M331.2,443.1h10.3c1.8,0,3.3-1.5,3.3-3.3v-10.6c0-1.9-1.4-3.3-3.3-3.3h-10.3c-1.8,0-3.3,1.5-3.3,3.3
							v10.6C327.9,441.6,329.4,443.1,331.2,443.1z"/>
					</g>
				</g>
			</g>
		</g>
	</g>
</g>
<g id="Layer_2_5_" display="none">
</g>
</svg>
