<?xml version="1.0" encoding="utf-8"?>
<!-- Generator: Adobe Illustrator 18.0.0, SVG Export Plug-In . SVG Version: 6.00 Build 0)  -->
<!DOCTYPE svg PUBLIC "-//W3C//DTD SVG 1.1//EN" "http://www.w3.org/Graphics/SVG/1.1/DTD/svg11.dtd">
<svg version="1.1" id="Layer_1" xmlns="http://www.w3.org/2000/svg" xmlns:xlink="http://www.w3.org/1999/xlink" x="0px" y="0px"
	 viewBox="0 123.3 595.3 595.3" enable-background="new 0 123.3 595.3 595.3" xml:space="preserve" width="40px" height="40px">
<g id="Layer_1_1_">
	<g>
		<g>
			<path fill="#006B8D" d="M551.8,298.7c24,0,43.5,0,43.5,0l-87-93.5v46.7C508.3,277.7,527.7,298.7,551.8,298.7z"/>
		</g>
		<g>
			<g>
				<g>
					<g>
						<path fill="#006B8D" d="M457.9,496.2h10.2c1.8,0,3.3-1.4,3.3-3.3v-10.6c0-1.8-1.4-3.3-3.3-3.3h-10.2c-1.8,0-3.3,1.4-3.3,3.3
							v10.6C454.6,494.8,456.1,496.2,457.9,496.2z"/>
						<path fill="#006B8D" d="M359.4,438.4h80.7c1.8,0,3.3-1.5,3.3-3.3v-52.3c0-1.8-1.4-3.3-3.3-3.3h-80.7c-1.8,0-3.3,1.4-3.3,3.3
							v52.3C356.1,436.9,357.5,438.4,359.4,438.4z"/>
						<path fill="#006B8D" d="M457.9,523.1h10.2c1.8,0,3.3-1.5,3.3-3.3v-10.6c0-1.8-1.4-3.3-3.3-3.3h-10.2c-1.8,0-3.3,1.4-3.3,3.3
							v10.6C454.6,521.6,456.1,523.1,457.9,523.1z"/>
						<path fill="#006B8D" d="M457.9,469.4h10.2c1.8,0,3.3-1.4,3.3-3.3v-10.6c0-1.8-1.4-3.3-3.3-3.3h-10.2c-1.8,0-3.3,1.4-3.3,3.3
							v10.6C454.6,467.9,456.1,469.4,457.9,469.4z"/>
						<path fill="#006B8D" d="M359.4,515.1h80.7c1.8,0,3.3-1.4,3.3-3.3v-48.3c0-1.8-1.4-3.3-3.3-3.3h-80.7c-1.8,0-3.3,1.4-3.3,3.3
							v48.3C356.1,513.6,357.5,515.1,359.4,515.1z"/>
						<path fill="#006B8D" d="M457.9,388.7h10.2c1.8,0,3.3-1.4,3.3-3.3v-10.6c0-1.8-1.4-3.3-3.3-3.3h-10.2c-1.8,0-3.3,1.4-3.3,3.3
							v10.6C454.6,387.2,456.1,388.7,457.9,388.7z"/>
						<path fill="#006B8D" d="M457.9,442.5h10.2c1.8,0,3.3-1.5,3.3-3.3v-10.6c0-1.8-1.4-3.3-3.3-3.3h-10.2c-1.8,0-3.3,1.5-3.3,3.3
							v10.6C454.6,441,456.1,442.5,457.9,442.5z"/>
						<path fill="#006B8D" d="M457.9,415.6h10.2c1.8,0,3.3-1.5,3.3-3.3v-10.6c0-1.8-1.4-3.3-3.3-3.3h-10.2c-1.8,0-3.3,1.4-3.3,3.3
							v10.6C454.6,414.1,456.1,415.6,457.9,415.6z"/>
						<path fill="#006B8D" d="M331.3,415.6h10.2c1.8,0,3.3-1.5,3.3-3.3v-10.6c0-1.8-1.4-3.3-3.3-3.3h-10.2c-1.8,0-3.3,1.4-3.3,3.3
							v10.6C328,414.1,329.5,415.6,331.3,415.6z"/>
						<path fill="#006B8D" d="M331.3,523.1h10.2c1.8,0,3.3-1.5,3.3-3.3v-10.6c0-1.8-1.4-3.3-3.3-3.3h-10.2c-1.8,0-3.3,1.4-3.3,3.3
							v10.6C328,521.6,329.5,523.1,331.3,523.1z"/>
						<path fill="#006B8D" d="M331.3,496.2h10.2c1.8,0,3.3-1.4,3.3-3.3v-10.6c0-1.8-1.4-3.3-3.3-3.3h-10.2c-1.8,0-3.3,1.4-3.3,3.3
							v10.6C328,494.8,329.5,496.2,331.3,496.2z"/>
						<path fill="#006B8D" d="M545.9,321.2c-27.1,0-60.3-34.6-60.3-63.5c0-29,0-52.6,0-52.6H260.9c-31.3,0.2-56.7,25.6-56.7,56.9
							v151v249c0,31.3,25.4,56.7,56.7,56.7h277.5c31.3,0,56.7-25.4,56.7-56.7V321.2H545.9z M318.1,372.4c0-6,4.9-10.9,11-10.9h141.3
							c6,0,11,4.9,11,10.9v149.8c0,6-4.9,10.9-11,10.9H329.1c-6,0-11-4.9-11-10.9L318.1,372.4L318.1,372.4z M324,635.9h-18.7v-19.6
							H324V635.9z M375.5,629.9c-1,0.7-2.2,1.6-3.6,2.6c-1.4,1.1-2.8,1.8-4,2.4c-1.8,0.8-3.6,1.4-5.5,1.8c-1.9,0.4-3.9,0.6-6.2,0.6
							c-5.3,0-9.8-1.6-13.3-4.9c-3.6-3.3-5.4-7.5-5.4-12.6c0-4.1,0.9-7.4,2.8-10c1.8-2.6,4.4-4.7,7.8-6.1c3.4-1.5,7.4-2.6,12.3-3.2
							c4.9-0.7,10-1.1,15.3-1.4v-0.3c0-3.1-1.2-5.2-3.8-6.4c-2.5-1.2-6.2-1.8-11.2-1.8c-3,0-6.1,0.5-9.5,1.6
							c-3.4,1.1-5.8,1.8-7.2,2.4h-1.6v-13.5c1.9-0.5,5-1.1,9.3-1.8s8.5-1.1,12.8-1.1c10.2,0,17.5,1.6,22.1,4.7s6.8,8.1,6.8,14.8
							v38.1h-17.8L375.5,629.9L375.5,629.9z M375.5,621.2v-11.6c-2.4,0.2-5.1,0.5-7.9,0.8c-2.8,0.3-5,0.7-6.4,1.2
							c-1.8,0.6-3.2,1.4-4.1,2.4c-0.9,1.1-1.4,2.5-1.4,4.3c0,1.2,0.1,2.1,0.3,2.8c0.2,0.7,0.7,1.4,1.5,2.1c0.8,0.7,1.7,1.2,2.8,1.4
							c1.1,0.3,2.7,0.5,5,0.5c1.8,0,3.6-0.4,5.5-1.1C372.5,623.4,374.1,622.4,375.5,621.2z M466.1,579.9l-21.6,56h-20.3l-21.4-56
							h18.9l13,38.5l12.8-38.5H466.1z M494.6,572h-19v-13.6h19V572z M494.1,635.9h-18v-56h18V635.9z"/>
						<path fill="#006B8D" d="M331.3,469.4h10.2c1.8,0,3.3-1.4,3.3-3.3v-10.6c0-1.8-1.4-3.3-3.3-3.3h-10.2c-1.8,0-3.3,1.4-3.3,3.3
							v10.6C328,467.9,329.5,469.4,331.3,469.4z"/>
						<path fill="#006B8D" d="M331.3,388.7h10.2c1.8,0,3.3-1.4,3.3-3.3v-10.6c0-1.8-1.4-3.3-3.3-3.3h-10.2c-1.8,0-3.3,1.4-3.3,3.3
							v10.6C328,387.2,329.5,388.7,331.3,388.7z"/>
						<path fill="#006B8D" d="M331.3,442.5h10.2c1.8,0,3.3-1.5,3.3-3.3v-10.6c0-1.8-1.4-3.3-3.3-3.3h-10.2c-1.8,0-3.3,1.5-3.3,3.3
							v10.6C328,441,329.5,442.5,331.3,442.5z"/>
					</g>
				</g>
			</g>
		</g>
	</g>
</g>
<g id="Layer_2">
</g>
</svg>
