<?xml version="1.0" encoding="utf-8"?>
<!-- Generator: Adobe Illustrator 18.0.0, SVG Export Plug-In . SVG Version: 6.00 Build 0)  -->
<!DOCTYPE svg PUBLIC "-//W3C//DTD SVG 1.1//EN" "http://www.w3.org/Graphics/SVG/1.1/DTD/svg11.dtd">
<svg version="1.1" id="Layer_1" xmlns="http://www.w3.org/2000/svg" xmlns:xlink="http://www.w3.org/1999/xlink" x="0px" y="0px"
	 viewBox="0 123.3 595.3 595.3" enable-background="new 0 123.3 595.3 595.3" xml:space="preserve" width="40px" height="40px">
<g id="Layer_1_1_" display="none">
	<g display="inline">
		<path fill="#006B8D" d="M256.4,250c73.2,0,132.7,59.5,132.7,132.7s-59.5,132.7-132.7,132.7s-132.7-59.5-132.7-132.7
			S183.1,250,256.4,250 M256.4,223.8c-87.6,0-158.8,71-158.8,158.8c0,87.6,71,158.8,158.8,158.8s158.8-71,158.8-158.8
			C415,295,344,223.8,256.4,223.8L256.4,223.8z"/>
	</g>
	<g display="inline">
		<path fill="#006B8D" d="M308.9,371.3h-80.5v-27.5c0-7.8,2.7-14.4,8.2-19.8c5.6-5.6,12-8.2,19.8-8.2c7.8,0,14.4,2.7,19.8,8.2
			c5.4,5.4,8.1,11.9,8.2,19.6c0,0.1,0,28.5,0,28.5c0,1.9,0.7,3.6,2.1,5c1.4,1.4,3,2.1,5,2.1h6.9c1.9,0,3.6-0.7,5-2.1
			c1.4-1.4,2.1-3,2.1-5c0-0.1,0-28.5,0-28.6c-0.1-13.3-4.9-24.8-14.5-34.3c-9.6-9.6-21.1-14.5-34.6-14.5c-13.6,0-25.1,4.9-34.6,14.5
			c-9.6,9.6-14.5,21.1-14.5,34.6v27.4h-3.6c-3,0-5.4,1-7.5,3.1c-2,2-3.1,4.5-3.1,7.5v77.9c0,3,1,5.4,3.1,7.5c2,2,4.5,3.1,7.5,3.1
			h105.2c3,0,5.4-1,7.5-3.1c2-2,3.1-4.5,3.1-7.5v-77.9c0-3-1-5.4-3.1-7.5C314.2,372.4,311.8,371.3,308.9,371.3z M264.7,422.5V443
			c0,4.1-3.4,7.5-7.5,7.5h-1.4c-4.1,0-7.5-3.4-7.5-7.5v-20.5c-4.4-2.7-7.4-7.6-7.4-13.2c0-8.7,6.9-15.6,15.6-15.6
			c8.7,0,15.6,6.9,15.6,15.6C271.8,414.8,269.1,419.7,264.7,422.5z"/>
	</g>
	<rect x="314.5" y="580.7" display="inline" fill="none" width="292.2" height="292.2"/>
	<g display="inline">
		<path fill="#006B8D" d="M641.5,432.8c28.5,0,51.8,0,51.8,0L590,321.7v55.6C590,407.9,613,432.8,641.5,432.8z"/>
	</g>
</g>
<g id="Layer_2">
	<g>
		<g>
			<path fill="#006B8D" d="M551.8,298.7c23.9,0,43.5,0,43.5,0l-86.8-93.4V252C508.4,277.8,527.9,298.7,551.8,298.7z"/>
			<g>
				<path fill="#006B8D" d="M432.5,594c-1.1-1.3-2.4-2.4-3.8-2.9c-1.4-0.6-3.1-0.8-4.9-0.8c-1.8,0-3.2,0.2-4.5,0.7s-2.6,1.3-3.9,2.9
					c-1.1,1.3-1.9,3.1-2.6,5.4c-0.7,2.3-1,5-1,8.5c0,3,0.3,5.7,0.8,8s1.3,4.1,2.5,5.4c1.1,1.3,2.4,2.3,3.8,2.9
					c1.4,0.6,3.1,0.8,5,0.8c1.7,0,3.2-0.3,4.7-0.8c1.4-0.6,2.7-1.4,3.8-2.7c1.2-1.4,2-3.1,2.6-5.1s0.8-4.8,0.8-8.4
					c0-3.3-0.3-6.1-0.8-8.2C434.4,597.2,433.5,595.4,432.5,594z"/>
				<path fill="#006B8D" d="M378.7,473.2c-0.5,2.1-0.7,4.3-0.8,6.4h-0.2c-0.2-2.7-0.6-4.8-0.8-6.1l-8.7-37.3l-11.6,1.3l-8,34.5
					c-0.5,2.1-0.8,4.1-0.8,5.8h-0.2c-0.2-2.4-0.3-4.4-0.6-5.7l-5.7-32.7l-9.3,1.1l10,47.8l10.7,1.3l7.8-33.3
					c0.4-1.6,0.7-3.6,0.8-6.1h0.2c0.1,2.1,0.3,4.2,0.8,6.1l8.2,35.5l13.6,1.6l16.1-60.8l-14,1.7L378.7,473.2z"/>
				<path fill="#006B8D" d="M546,321.2c-27.1,0-60.3-34.5-60.3-63.4c0-28.9,0-52.5,0-52.5H377.2c5.6,16.1,8.7,33.6,8.7,51.6
					c0,87.2-70.7,157.8-157.8,157.8c-8,0-16-0.6-23.8-1.8v249c0,31.3,25.4,56.7,56.7,56.7h277.6c31.3,0,56.7-25.4,56.7-56.7V321.2
					H546z M418.9,507h43.3v-12.4h-43.3v-12.4h43.3v-12.4h-43.3v-12.4h43.3v-12.4h-43.3V433h43.4v-12.6h-43.4V402h56.6
					c2.9,0,5.1,2.4,5.1,5.4v112.8c0,3-2.4,5.4-5.1,5.4h-56.6V507z M319.9,401.1l92.8-17.9V544l-92.8-17.9V401.1z M308.5,635.5h-18.6
					v-19.6h18.6V635.5z M380.4,635.5h-18v-5.9c-3.1,2.5-6,4.4-8.7,5.5c-2.7,1.2-5.7,1.8-9.3,1.8c-6.8,0-12.3-2.6-16.4-7.9
					c-4.1-5.3-6.1-12.3-6.1-21.2c0-4.8,0.7-9,2-12.7c1.3-3.7,3.2-6.8,5.6-9.4c2.3-2.5,5-4.4,8.2-5.8c3.2-1.3,6.4-2,9.7-2
					c3.3,0,6.1,0.4,8.2,1.1c2.1,0.7,4.4,1.7,6.6,2.7v-23.8h18v77.6H380.4z M446.4,629.3c-5.4,5.3-12.9,8-22.6,8
					c-9.7,0-17.2-2.6-22.6-8s-8.1-12.5-8.1-21.7c0-9.2,2.7-16.6,8.1-21.8c5.4-5.3,12.9-7.9,22.5-7.9c9.7,0,17.3,2.6,22.6,8
					c5.4,5.4,8,12.5,8,21.7C454.3,616.7,451.8,624,446.4,629.3z M515.4,597.8h-2.5c-0.7-0.6-1.6-1.3-2.5-2c-1-0.8-2.1-1.6-3.6-2.4
					c-1.3-0.8-2.9-1.3-4.5-1.8c-1.7-0.5-3.5-0.7-5.6-0.7c-4.8,0-8.5,1.6-11,4.5c-2.5,3-3.9,7.2-3.9,12.4c0,5.4,1.3,9.4,3.9,12.3
					c2.6,2.9,6.3,4.2,11.2,4.2c2.3,0,4.3-0.3,6.1-0.8c1.8-0.5,3.3-1.2,4.5-1.8c1.2-0.7,2.1-1.3,3-2c0.8-0.8,1.7-1.4,2.4-2.1h2.5
					v15.3c-2.9,1.3-5.7,2.4-8.8,3.1c-3.1,0.8-6.4,1.2-10.3,1.2c-4.9,0-9.3-0.6-13.4-1.8c-4-1.2-7.5-2.9-10.5-5.4
					c-2.9-2.4-5.3-5.5-6.9-9.2c-1.7-3.7-2.4-8-2.4-12.9c0-5.3,0.8-9.7,2.6-13.5c1.8-3.8,4.2-6.9,7.3-9.4c3-2.4,6.6-4.1,10.4-5.1
					c3.9-1.1,8.1-1.7,12.3-1.7c3.8,0,7.3,0.4,10.5,1.3c3.2,0.8,6.2,1.9,9.1,3.2V597.8L515.4,597.8z"/>
				<path fill="#006B8D" d="M354.6,591.1c-4.7,0-8.2,1.4-10.6,4.4c-2.4,2.9-3.5,7-3.5,12.3c0,5.5,1,9.4,2.9,11.9
					c1.8,2.4,5,3.7,9.1,3.7c1.7,0,3.3-0.3,5.1-0.8s3.4-1.4,4.8-2.4v-27.5c-1.3-0.5-2.6-0.8-3.9-1.2
					C357.1,591.2,355.8,591.1,354.6,591.1z"/>
			</g>
		</g>
		<g>
			<path fill="#006B8D" d="M228.1,145.2c61.5,0,111.5,50,111.5,111.5s-50,111.5-111.5,111.5s-111.6-49.9-111.6-111.4
				S166.5,145.2,228.1,145.2 M228.1,123.3c-73.6,0-133.4,59.7-133.4,133.4c0,73.6,59.7,133.4,133.4,133.4s133.4-59.7,133.4-133.4
				C361.4,183.1,301.8,123.3,228.1,123.3L228.1,123.3z"/>
		</g>
		<g>
			<path fill="#006B8D" d="M272.2,247.2h-67.6v-23c0-6.6,2.3-12.1,6.9-16.6c4.7-4.7,10.1-6.9,16.6-6.9c6.6,0,12.1,2.3,16.6,6.9
				c4.5,4.5,6.8,10,6.9,16.5c0,0.1,0,23.9,0,23.9c0,1.6,0.6,3,1.8,4.2c1.2,1.2,2.5,1.8,4.2,1.8h5.8c1.6,0,3-0.6,4.2-1.8
				c1.2-1.2,1.8-2.5,1.8-4.2c0-0.1,0-23.9,0-24c-0.1-11.2-4.1-20.8-12.2-28.8c-8.1-8.1-17.7-12.2-29.1-12.2
				c-11.3,0-21.1,4.1-29.1,12.2c-8.1,8.1-12.2,17.7-12.2,29.1v23h-3c-2.5,0-4.5,0.8-6.3,2.6c-1.7,1.7-2.6,3.8-2.6,6.3v65.5
				c0,2.5,0.8,4.5,2.6,6.3c1.7,1.7,3.8,2.6,6.3,2.6h88.4c2.5,0,4.5-0.8,6.3-2.6c1.7-1.7,2.6-3.8,2.6-6.3v-65.6
				c0-2.5-0.8-4.5-2.6-6.3C276.8,248.1,274.7,247.2,272.2,247.2z M235,290.3v17.2c0,3.4-2.9,6.3-6.3,6.3h-1.2
				c-3.4,0-6.3-2.9-6.3-6.3v-17.2c-3.7-2.3-6.2-6.4-6.2-11.1c0-7.3,5.8-13.1,13.1-13.1c7.3,0,13.1,5.8,13.1,13.1
				C241.2,283.9,238.7,287.9,235,290.3z"/>
		</g>
	</g>
</g>
<g id="Layer_3">
</g>
</svg>
