<?xml version="1.0" encoding="utf-8"?>
<!-- Generator: Adobe Illustrator 18.0.0, SVG Export Plug-In . SVG Version: 6.00 Build 0)  -->
<!DOCTYPE svg PUBLIC "-//W3C//DTD SVG 1.1//EN" "http://www.w3.org/Graphics/SVG/1.1/DTD/svg11.dtd">
<svg version="1.1" id="Layer_1" xmlns="http://www.w3.org/2000/svg" xmlns:xlink="http://www.w3.org/1999/xlink" x="0px" y="0px"
	 viewBox="0 123.3 595.3 595.3" enable-background="new 0 123.3 595.3 595.3" xml:space="preserve" width="40px" height="40px">
<g id="Layer_1_2_">
	<g id="Layer_1_1_">
		<g>
			<path fill="#006B8D" d="M551.7,298.7c23.9,0,43.5,0,43.5,0l-86.9-93.6v46.7C508.4,277.9,527.8,298.7,551.7,298.7z"/>
			<g>
				<path fill="#006B8D" d="M380.3,473.2c-0.5,2.1-0.7,4.3-0.8,6.4h-0.1c-0.2-2.7-0.5-4.8-0.9-6.2l-8.6-37.3l-11.6,1.3l-8,34.4
					c-0.5,2.1-0.8,4.1-0.9,5.9l0,0c-0.2-2.4-0.3-4.4-0.5-5.8l-5.7-32.7l-9.3,1.1l10,47.9l10.7,1.2l7.8-33.3c0.4-1.6,0.7-3.6,0.9-6
					h0.2c0.1,2.2,0.3,4.2,0.8,6l8.3,35.4l13.6,1.6l16.2-60.7l-14.1,1.6L380.3,473.2z"/>
				<g>
					<path fill="#006B8D" d="M320.3,591.1c-4.7,0-8.3,1.5-10.6,4.5c-2.3,3-3.5,7.1-3.5,12.3c0,5.5,0.9,9.5,2.8,11.9
						c1.9,2.5,4.9,3.7,9.1,3.7c1.6,0,3.3-0.3,5.2-0.9c1.8-0.6,3.5-1.4,4.8-2.4v-27.6c-1.3-0.6-2.6-0.9-4-1.1
						C322.7,591.1,321.5,591.1,320.3,591.1z"/>
					<path fill="#006B8D" d="M545.9,321.1c-27.1,0-60.2-34.5-60.2-63.5c0-28.9,0-52.5,0-52.5H261c-31.3,0.1-56.8,25.5-56.8,56.8v151
						v248.9c0,31.3,25.4,56.8,56.8,56.8h277.5c31.3,0,56.8-25.4,56.8-56.8V321.1L545.9,321.1L545.9,321.1z M274,635.5h-18.7V616H274
						V635.5z M346.1,635.5h-18v-5.9c-3.1,2.5-6,4.4-8.7,5.6s-5.8,1.8-9.3,1.8c-6.8,0-12.2-2.6-16.3-7.9c-4.1-5.2-6.1-12.4-6.1-21.3
						c0-4.7,0.7-9,2-12.7c1.4-3.7,3.3-6.9,5.7-9.5c2.3-2.5,5-4.5,8.2-5.8c3.3-1.4,6.4-2,9.7-2c3.3,0,6.1,0.4,8.3,1.1
						c2.1,0.7,4.3,1.6,6.6,2.7v-23.8h18L346.1,635.5L346.1,635.5z M412.4,629.3c-5.4,5.3-12.9,8-22.6,8s-17.2-2.7-22.6-8
						s-8.1-12.6-8.1-21.8c0-9.3,2.7-16.5,8.1-21.8c5.4-5.3,12.9-7.9,22.5-7.9c9.8,0,17.3,2.7,22.7,8s8,12.6,8,21.8
						S417.7,624,412.4,629.3z M414.4,543.9L321.7,526v-125l92.7-17.9V543.9z M481.5,597.7h-2.5c-0.7-0.6-1.6-1.3-2.5-2.1
						s-2.2-1.6-3.6-2.3c-1.3-0.7-2.8-1.3-4.5-1.8s-3.5-0.7-5.7-0.7c-4.8,0-8.5,1.6-11,4.6c-2.5,3-3.9,7.2-3.9,12.4
						c0,5.4,1.3,9.5,4,12.3c2.6,2.8,6.4,4.2,11.2,4.2c2.3,0,4.3-0.3,6.1-0.8c1.8-0.5,3.3-1.1,4.5-1.8c1.1-0.6,2.1-1.3,3-2.1
						c0.8-0.7,1.6-1.4,2.4-2.1h2.5v15.3c-2.8,1.3-5.8,2.4-8.8,3.2c-3.1,0.8-6.5,1.2-10.2,1.2c-4.9,0-9.3-0.6-13.4-1.8
						c-4-1.1-7.6-3-10.5-5.4c-3-2.4-5.2-5.5-6.9-9.2c-1.6-3.7-2.5-8-2.5-13c0-5.2,0.8-9.8,2.6-13.5c1.8-3.7,4.2-6.9,7.3-9.4
						c3-2.3,6.5-4.1,10.5-5.2c4-1.1,8.1-1.6,12.3-1.6c3.8,0,7.4,0.4,10.6,1.3s6.2,1.9,9,3.3L481.5,597.7L481.5,597.7z M420.6,525.6
						V507h43.3v-12.3h-43.3v-12.3h43.3v-12.4h-43.3v-12.3h43.3v-12.3h-43.3V433H464v-12.6h-43.4v-18.4h56.6c2.8,0,5.2,2.4,5.2,5.4
						v112.7c0,3-2.3,5.4-5.2,5.4H420.6z M531,635.5l-11.9-16.8l-12.3,16.8h-20.6l22.1-28.1l-21.8-28h20.9l11.8,16.5l11.8-16.5h20.6
						L529.9,607l22.1,28.4L531,635.5L531,635.5z"/>
					<path fill="#006B8D" d="M398.4,594c-1.1-1.3-2.3-2.3-3.8-2.9s-3.1-0.8-4.8-0.8c-1.7,0-3.3,0.2-4.6,0.7
						c-1.3,0.5-2.6,1.4-3.9,2.8c-1.1,1.3-2,3.1-2.6,5.4c-0.6,2.3-1,5.1-1,8.6c0,3,0.3,5.7,0.8,8s1.4,4,2.5,5.4
						c1.1,1.3,2.3,2.3,3.8,2.8c1.5,0.6,3.2,0.9,5.1,0.9c1.6,0,3.2-0.3,4.7-0.8c1.5-0.6,2.8-1.5,3.7-2.8c1.1-1.4,2-3.2,2.6-5.2
						s0.8-4.8,0.8-8.3c0-3.3-0.3-6.1-0.9-8.3C400.3,597.1,399.4,595.3,398.4,594z"/>
				</g>
			</g>
		</g>
	</g>
	<g id="Layer_2">
	</g>
</g>
<g id="Layer_2_1_">
</g>
</svg>
