<?xml version="1.0" encoding="utf-8"?>
<!-- Generator: Adobe Illustrator 18.0.0, SVG Export Plug-In . SVG Version: 6.00 Build 0)  -->
<!DOCTYPE svg PUBLIC "-//W3C//DTD SVG 1.1//EN" "http://www.w3.org/Graphics/SVG/1.1/DTD/svg11.dtd">
<svg version="1.1" id="Layer_2" xmlns="http://www.w3.org/2000/svg" xmlns:xlink="http://www.w3.org/1999/xlink" x="0px" y="0px"
	 viewBox="0 123.3 595.3 595.3" enable-background="new 0 123.3 595.3 595.3" xml:space="preserve" width="40px" height="40px">
<g>
	<g>
		<g>
			<path fill="#006B8D" d="M227.6,145.2c61.5,0,111.5,50.1,111.5,111.5s-50.1,111.5-111.5,111.5s-111.5-50-111.5-111.4
				S166.2,145.2,227.6,145.2 M227.6,123.3C154,123.3,94.2,183,94.2,256.8c0,73.7,59.6,133.4,133.4,133.4s133.4-59.6,133.4-133.4
				S301.3,123.3,227.6,123.3L227.6,123.3z"/>
		</g>
		<g>
			<path fill="#006B8D" d="M271.8,247.3h-67.6v-23.1c0-6.5,2.3-12,6.9-16.7c4.6-4.6,10.1-6.9,16.7-6.9s12,2.3,16.7,6.9
				c4.5,4.5,6.8,10,6.9,16.4c0,0.1,0-0.1,0,0c0,1.5,0.6,3,1.8,4.2c1.2,1.2,2.5,1.8,4.2,1.8h5.8c1.5,0,3-0.6,4.2-1.8
				c1.2-1.2,1.8-2.5,1.8-4.2c0-0.1,0,0.1,0,0c-0.1-11.2-4-20.8-12.1-28.9c-8.1-8.1-17.8-12.1-29-12.1c-11.3,0-21.1,4-29,12.1
				c-8.1,8.1-12.1,17.8-12.1,29v23.1h-3c-2.5,0-4.5,0.8-6.3,2.6c-1.7,1.7-2.6,3.8-2.6,6.3v65.7c0,2.5,0.8,4.5,2.6,6.3
				c1.7,1.7,3.8,2.6,6.3,2.6h88.4c2.5,0,4.5-0.8,6.3-2.6c1.7-1.7,2.6-3.8,2.6-6.3v-65.7c0-2.5-0.8-4.5-2.6-6.3
				C276.4,248.2,274.3,247.3,271.8,247.3z M234.7,290.5v17.3c0,3.5-2.9,6.3-6.3,6.3h-1.2c-3.5,0-6.3-2.9-6.3-6.3v-17.3
				c-3.7-2.3-6.2-6.4-6.2-11.1c0-7.3,5.8-13.1,13.1-13.1c7.3,0,13.1,5.8,13.1,13.1C240.7,283.9,238.3,288,234.7,290.5z"/>
		</g>
	</g>
	<g>
		<g>
			<path fill="#006B8D" d="M551.5,298.7c23.9,0,43.6,0,43.6,0l-86.9-93.4v46.8C508.1,277.9,527.6,298.7,551.5,298.7z"/>
			<g>
				<path fill="#006B8D" d="M378.3,473.4c-0.5,2.1-0.7,4.3-0.8,6.4h-0.1c-0.2-2.7-0.5-4.8-0.9-6.2l-8.6-37.4l-11.6,1.3l-8,34.4
					c-0.5,2.1-0.8,4.1-0.9,5.9l0,0c-0.2-2.4-0.3-4.4-0.5-5.8l-5.7-32.7l-9.3,1.1l10,47.9l10.7,1.2l7.8-33.3c0.4-1.6,0.7-3.6,0.9-6
					h0.2c0.1,2.2,0.3,4.2,0.8,6l8.3,35.4l13.6,1.6l16.2-60.7l-14.1,1.6L378.3,473.4z"/>
				<g>
					<path fill="#006B8D" d="M394.2,594.3c-1.1-1.3-2.4-2.4-3.9-2.9c-1.5-0.6-3.1-0.8-4.8-0.8c-1.8,0-3.3,0.3-4.6,0.7
						c-1.3,0.5-2.6,1.4-3.9,2.8c-1.1,1.3-1.9,3-2.6,5.3c-0.7,2.3-1,5.1-1,8.5c0,3,0.3,5.7,0.8,7.9c0.6,2.3,1.4,4,2.5,5.4
						c1.1,1.3,2.4,2.3,3.8,2.9c1.5,0.6,3.2,0.9,5,0.9c1.6,0,3.2-0.3,4.6-0.8c1.5-0.6,2.7-1.4,3.8-2.8c1.2-1.4,2-3.1,2.6-5.1
						c0.6-2,0.8-4.8,0.8-8.3c0-3.3-0.3-6.1-0.9-8.2C396.2,597.4,395.3,595.6,394.2,594.3z"/>
					<path fill="#006B8D" d="M316.4,591.4c-4.7,0-8.2,1.4-10.6,4.4s-3.5,7-3.5,12.2c0,5.5,0.9,9.4,2.9,11.9c1.9,2.4,4.9,3.7,9.1,3.7
						c1.6,0,3.4-0.3,5.1-0.9c1.9-0.6,3.4-1.4,4.8-2.4v-27.4c-1.3-0.5-2.6-0.9-4-1.2C318.8,591.5,317.5,591.4,316.4,591.4z"/>
					<path fill="#006B8D" d="M545.6,321.3c-27.1,0-60.2-34.5-60.2-63.6c0-28.9,0-52.6,0-52.6H376.8c5.6,16.2,8.7,33.7,8.7,51.7
						c0,87.2-70.7,157.8-157.8,157.8c-8,0-16-0.6-23.7-1.8v249c0,31.3,25.4,56.8,56.8,56.8h277.7c31.3,0,56.8-25.4,56.8-56.8V321.3
						H545.6z M418.5,507.2h43.3v-12.3h-43.3v-12.3h43.3v-12.5h-43.3v-12.3h43.3v-12.3h-43.3v-12.3h43.4v-12.6h-43.4v-18.4h56.6
						c2.8,0,5.2,2.4,5.2,5.4v112.8c0,3-2.3,5.4-5.2,5.4h-56.6L418.5,507.2L418.5,507.2z M270.2,635.7h-18.6v-19.6h18.6V635.7z
						 M342.1,635.7h-18v-5.8c-3.1,2.5-6,4.4-8.7,5.6c-2.7,1.2-5.8,1.8-9.3,1.8c-6.8,0-12.2-2.6-16.3-7.8c-4-5.2-6.1-12.3-6.1-21.2
						c0-4.7,0.7-8.9,2.1-12.6c1.3-3.7,3.3-6.8,5.6-9.4c2.3-2.5,5-4.5,8.2-5.8c3.2-1.3,6.4-2.1,9.7-2.1c3.4,0,6.1,0.3,8.2,1.1
						c2.1,0.7,4.3,1.6,6.6,2.7v-23.8h18V635.7z M408.1,629.5c-5.4,5.3-12.9,7.9-22.5,7.9c-9.7,0-17.2-2.6-22.5-7.9
						c-5.4-5.3-8.1-12.5-8.1-21.7c0-9.3,2.7-16.5,8.1-21.8c5.4-5.3,12.9-7.9,22.5-7.9c9.8,0,17.3,2.7,22.6,8s8,12.5,8,21.7
						S413.5,624.2,408.1,629.5z M412.3,544.2l-92.8-17.9v-125l92.8-17.9V544.2z M477.2,598h-2.5c-0.7-0.6-1.5-1.3-2.5-2.1
						s-2.2-1.6-3.6-2.4c-1.3-0.8-2.9-1.3-4.5-1.9s-3.5-0.8-5.6-0.8c-4.8,0-8.4,1.5-11,4.5c-2.6,3-3.9,7.2-3.9,12.4
						c0,5.4,1.3,9.4,4,12.3c2.6,2.8,6.4,4.2,11.2,4.2c2.3,0,4.3-0.3,6.1-0.8s3.3-1.1,4.5-1.9c1.1-0.7,2.1-1.3,2.9-2.1
						c0.8-0.8,1.7-1.4,2.4-2.1h2.5v15.3c-2.9,1.3-5.8,2.4-8.8,3.2c-3,0.8-6.5,1.2-10.2,1.2c-4.9,0-9.3-0.6-13.4-1.8
						s-7.6-2.9-10.5-5.4c-2.9-2.4-5.2-5.5-6.9-9.2c-1.6-3.7-2.4-8-2.4-13c0-5.2,0.8-9.7,2.6-13.5c1.8-3.8,4.2-6.9,7.3-9.4
						c3-2.4,6.5-4.1,10.4-5.2c4-1.1,8.1-1.7,12.3-1.7c3.8,0,7.3,0.4,10.5,1.3s6.2,1.9,9,3.2V598L477.2,598L477.2,598z M526.5,635.7
						L514.5,619l-12.2,16.7h-20.4l22-28l-21.8-27.8H503l11.8,16.4l11.8-16.4h20.5l-21.7,27.5l22,28.4L526.5,635.7L526.5,635.7z"/>
				</g>
			</g>
		</g>
	</g>
</g>
</svg>
