<?xml version="1.0" encoding="utf-8"?>
<!-- Generator: Adobe Illustrator 18.0.0, SVG Export Plug-In . SVG Version: 6.00 Build 0)  -->
<!DOCTYPE svg PUBLIC "-//W3C//DTD SVG 1.1//EN" "http://www.w3.org/Graphics/SVG/1.1/DTD/svg11.dtd">
<svg version="1.1" id="Layer_1" xmlns="http://www.w3.org/2000/svg" xmlns:xlink="http://www.w3.org/1999/xlink" x="0px" y="0px"
	 viewBox="0 123.3 595.3 595.3" enable-background="new 0 123.3 595.3 595.3" xml:space="preserve" width="40px" height="40px">
<g id="Layer_1_1_" display="none">
	<g id="Layer_2_1_" display="inline">
		<g>
			<g>
				<g id="Layer_2">
					<g>
						<g>
							<g>
								<g>
									<path fill="#006B8D" d="M158.7,227.5c73.1,0,132.6,59.5,132.6,132.6s-59.5,132.6-132.6,132.6S26.1,433,26.1,360
										S85.4,227.5,158.7,227.5 M158.7,201.4C71.1,201.4,0,272.4,0,360c0,87.5,71,158.7,158.7,158.7s158.7-71,158.7-158.7
										C317.2,272.4,246.2,201.4,158.7,201.4L158.7,201.4z"/>
								</g>
								<g>
									<path fill="#006B8D" d="M211.1,348.6h-80.5v-27.5c0-7.8,2.7-14.3,8.2-19.8s12-8.2,19.8-8.2s14.3,2.7,19.8,8.2
										c5.4,5.4,8.1,11.9,8.2,19.5c0,0.1,0-0.1,0,0c0,1.8,0.7,3.5,2.1,5c1.4,1.5,3,2.1,5,2.1h6.9c1.8,0,3.5-0.7,5-2.1
										c1.5-1.4,2.1-3,2.1-5c0-0.1,0,0.1,0,0c-0.1-13.3-4.8-24.8-14.4-34.3c-9.6-9.6-21.1-14.4-34.6-14.4
										c-13.5,0-25.1,4.8-34.6,14.4c-9.6,9.6-14.4,21.1-14.4,34.6v27.5h-3.5c-3,0-5.4,1-7.5,3.1c-2,2-3.1,4.5-3.1,7.5v78.1
										c0,3,1,5.4,3.1,7.5c2,2,4.5,3.1,7.5,3.1h105.1c3,0,5.4-1,7.5-3.1c2-2,3.1-4.5,3.1-7.5v-78c0-3-1-5.4-3.1-7.5
										C216.5,349.8,214.1,348.6,211.1,348.6z M166.9,399.9v20.5c0,4.1-3.4,7.5-7.5,7.5H158c-4.1,0-7.5-3.4-7.5-7.5v-20.5
										c-4.4-2.7-7.4-7.6-7.4-13.2c0-8.6,6.9-15.6,15.6-15.6s15.6,6.9,15.6,15.6C174.1,392.3,171.3,397.1,166.9,399.9z"/>
								</g>
							</g>
						</g>
					</g>
				</g>
				<g>
					<path fill="#006B8D" d="M543.7,410.2c28.5,0,51.7,0,51.7,0l-103.3-111v55.5C492,385.4,515.1,410.2,543.7,410.2z"/>
					<path fill="#006B8D" d="M263.8,614.9l52.8-61.4c4.4-5,12.2-5,16.4,0.1l56.5,67.5l28.6-28.6c4.1-4.1,10.6-4.3,14.9-0.3
						l28.3,25.8V513.6H267c-1,0.7-2.1,1.4-3.1,2.2L263.8,614.9L263.8,614.9z M420,531.4c11,0,19.7,8.9,19.7,19.7
						c0,11-8.9,19.7-19.7,19.7c-11,0-19.7-8.9-19.7-19.7C400.3,540.3,409.1,531.4,420,531.4z"/>
				</g>
				<g id="Layer_2_2_">
				</g>
			</g>
			<g>
				<path fill="#006B8D" d="M493.3,758.8c-5.5,0-9.8,1.6-12.6,4.8c-2.8,3.2-4.2,7.7-4.2,13.4c0,6.4,1.2,10.9,3.6,13.4
					c2.3,2.5,5.9,3.7,10.6,3.7c2.1,0,4.2-0.3,6.2-1c2-0.5,3.8-1.4,5.5-2.6v-30.1c-1.2-0.5-2.7-0.9-4.5-1.2
					C496.2,759,494.7,758.8,493.3,758.8z"/>
				<path fill="#006B8D" d="M410.1,756.4c-4.1,0-7.5,1.1-10.1,3.2c-2.7,2.1-4.1,5.5-4.5,10.2h27.6c-0.2-4.5-1.2-7.8-3.3-10.1
					C417.7,757.5,414.5,756.4,410.1,756.4z"/>
				<path fill="#006B8D" d="M327.9,759.4c-2,0-4.1,0.3-6.2,0.9s-4.1,1.5-6.1,2.7v33.4c1.4,0.5,2.9,0.9,4.5,1.1
					c1.6,0.2,3.2,0.2,4.8,0.2c5.6,0,9.8-1.6,12.6-4.9c2.7-3.3,4.1-8.3,4.1-14.9c0-6.5-1.1-11.2-3.3-14.1
					C336.2,760.9,332.7,759.4,327.9,759.4z"/>
				<path fill="#006B8D" d="M536.6,437c-32.3,0-71.7-41.1-71.7-75.5s0-62.5,0-62.5h-129c6.7,19.3,10.3,40,10.3,61.3
					c0,55-23.6,104.4-61.3,138.8h176.5c7.9,0,14.4,6.5,14.4,14.4v147.3h-0.1c0,7.9-6.5,14.4-14.4,14.4H263.8
					c-7.9,0-14.4-6.5-14.4-14.4V524.5c-27,15-58,23.5-91,23.5c-9.5,0-19-0.7-28.2-2.1l2.1,0.7l-2.1-0.6v296.1
					c0,37.3,30.2,67.4,67.4,67.4h330.1c37.3,0,67.4-30.2,67.4-67.4V437H536.6z M224.7,811.5h-22.1v-23.2h22.1V811.5z M274.3,812.7
					c0,7.5-2.3,13.4-7,17.5c-4.6,4.2-10.5,6.3-17.8,6.3c-3.8,0-7.3-0.2-10.5-0.5c-3.2-0.3-5.5-0.7-7-1v-15.2h1.6
					c1.2,0.4,2.7,0.7,4.5,1s3.1,0.4,4.2,0.4c4.1,0,6.9-1.2,8.4-3.7c1.5-2.4,2.3-6.5,2.3-12v-45.8h-12.6v-14.5h33.9V812.7z
					 M274.3,735.8h-22.7v-16.2h22.7V735.8z M361,792.4c-1.6,4.5-3.8,8.2-6.6,11.1c-2.8,3-6,5.4-9.6,7c-3.6,1.6-7.4,2.3-11.5,2.3
					c-3.7,0-7-0.4-9.6-1.2c-2.7-0.8-5.3-2-8.1-3.4v27.7h-21.3v-90.7h21.3v7c3.3-2.6,6.6-4.7,10-6.3c3.4-1.6,7.3-2.4,11.8-2.4
					c8.3,0,14.7,3,19.3,9.1c4.5,5.9,6.8,14.3,6.8,24.9C363.5,782.9,362.7,787.9,361,792.4z M444.3,782.3h-48.7
					c0.3,5.2,2.3,9.2,5.9,12c3.6,2.8,9,4.1,16.1,4.1c4.5,0,8.8-0.8,13-2.4c4.2-1.6,7.6-3.4,10-5.2h2.3v17.1c-4.8,2-9.4,3.4-13.6,4.2
					c-4.2,0.9-9,1.3-14.1,1.3c-13.3,0-23.5-3-30.6-9S374,789.9,374,778.8c0-10.9,3.4-19.6,10.1-26c6.7-6.4,15.9-9.6,27.7-9.6
					c10.8,0,18.9,2.7,24.4,8.2s8.1,13.3,8.1,23.6L444.3,782.3L444.3,782.3z M523.8,804c0,6.2-0.9,11.5-2.7,15.7
					c-1.8,4.2-4.2,7.6-7.4,10s-7,4.2-11.6,5.3c-4.5,1.1-9.6,1.6-15.3,1.6c-4.6,0-9.1-0.3-13.6-0.9s-8.4-1.2-11.6-2v-16.6h2.6
					c2.6,1,5.8,2,9.5,2.8c3.7,0.9,7.1,1.2,10,1.2c3.9,0,7.1-0.4,9.6-1.1c2.5-0.7,4.4-1.8,5.6-3.1c1.2-1.2,2.1-2.9,2.7-4.8
					c0.6-1.9,0.9-4.3,0.9-7.1v-1.2c-2.6,2.1-5.4,3.7-8.5,5c-3.1,1.2-6.6,1.8-10.4,1.8c-9.3,0-16.5-2.8-21.5-8.4
					c-5-5.6-7.6-14.1-7.6-25.5c0-5.5,0.8-10.2,2.3-14.2c1.6-4,3.7-7.4,6.5-10.4c2.6-2.7,5.8-4.9,9.6-6.4c3.8-1.6,7.7-2.3,11.6-2.3
					c3.6,0,6.9,0.4,9.8,1.2c3,0.9,5.6,2,8,3.5l0.8-3h20.7L523.8,804L523.8,804L523.8,804z"/>
			</g>
			<g id="Layer_2_3_">
			</g>
		</g>
	</g>
	<g id="Layer_3" display="inline">
	</g>
</g>
<g>
	<path fill="#006B8D" d="M227.6,145.2c61.5,0,111.5,50.1,111.5,111.5s-50.1,111.5-111.5,111.5s-111.5-50-111.5-111.4
		S166.2,145.2,227.6,145.2 M227.6,123.3C154,123.3,94.2,183,94.2,256.8c0,73.7,59.6,133.4,133.4,133.4s133.4-59.6,133.4-133.4
		S301.3,123.3,227.6,123.3L227.6,123.3z"/>
	<path fill="#006B8D" d="M271.8,247.3h-67.6v-23.1c0-6.5,2.3-12,6.9-16.7c4.6-4.6,10.1-6.9,16.7-6.9s12,2.3,16.7,6.9
		c4.5,4.5,6.8,10,6.9,16.4c0,0.1,0-0.1,0,0c0,1.5,0.6,3,1.8,4.2c1.2,1.2,2.5,1.8,4.2,1.8h5.8c1.5,0,3-0.6,4.2-1.8s1.8-2.5,1.8-4.2
		c0-0.1,0,0.1,0,0c-0.1-11.2-4-20.8-12.1-28.9c-8.1-8.1-17.8-12.1-29-12.1s-21.1,4-29,12.1c-8.1,8.1-12.1,17.8-12.1,29v23.1h-3
		c-2.5,0-4.5,0.8-6.3,2.6c-1.7,1.7-2.6,3.8-2.6,6.3v65.7c0,2.5,0.8,4.5,2.6,6.3c1.7,1.7,3.8,2.6,6.3,2.6h88.4c2.5,0,4.5-0.8,6.3-2.6
		c1.7-1.7,2.6-3.8,2.6-6.3v-65.7c0-2.5-0.8-4.5-2.6-6.3C276.4,248.2,274.3,247.3,271.8,247.3z M234.7,290.5v17.3
		c0,3.5-2.9,6.3-6.3,6.3h-1.2c-3.5,0-6.3-2.9-6.3-6.3v-17.3c-3.7-2.3-6.2-6.4-6.2-11.1c0-7.3,5.8-13.1,13.1-13.1
		c7.3,0,13.1,5.8,13.1,13.1C240.7,283.9,238.3,288,234.7,290.5z"/>
	<path fill="#006B8D" d="M551.5,298.7c23.9,0,43.6,0,43.6,0l-86.9-93.4v46.8C508.1,277.9,527.6,298.7,551.5,298.7z"/>
	<path fill="#006B8D" d="M457.9,523.7h10.3c1.9,0,3.3-1.5,3.3-3.3v-10.6c0-1.8-1.4-3.3-3.3-3.3h-10.3c-1.8,0-3.3,1.5-3.3,3.3v10.6
		C454.6,522.2,456.1,523.7,457.9,523.7z"/>
	<path fill="#006B8D" d="M457.9,496.8h10.3c1.9,0,3.3-1.4,3.3-3.3v-10.6c0-1.9-1.4-3.3-3.3-3.3h-10.3c-1.8,0-3.3,1.4-3.3,3.3v10.6
		C454.6,495.4,456.1,496.8,457.9,496.8z"/>
	<path fill="#006B8D" d="M457.9,470h10.3c1.9,0,3.3-1.4,3.3-3.3v-10.6c0-1.9-1.4-3.3-3.3-3.3h-10.3c-1.8,0-3.3,1.5-3.3,3.3v10.6
		C454.6,468.5,456.1,470,457.9,470z"/>
	<path fill="#006B8D" d="M359.3,439h80.8c1.8,0,3.3-1.5,3.3-3.3v-52.3c0-1.9-1.5-3.3-3.3-3.3h-80.8c-1.9,0-3.3,1.4-3.3,3.3v52.3
		C356,437.5,357.5,439,359.3,439z"/>
	<path fill="#006B8D" d="M359.3,515.8h80.8c1.8,0,3.3-1.5,3.3-3.3v-48.4c0-1.8-1.5-3.3-3.3-3.3h-80.8c-1.9,0-3.3,1.4-3.3,3.3v48.4
		C356,514.2,357.5,515.8,359.3,515.8z"/>
	<path fill="#006B8D" d="M457.9,389.3h10.3c1.9,0,3.3-1.4,3.3-3.3v-10.6c0-1.9-1.4-3.3-3.3-3.3h-10.3c-1.8,0-3.3,1.4-3.3,3.3V386
		C454.6,387.8,456.1,389.3,457.9,389.3z"/>
	<path fill="#006B8D" d="M331.2,416.1h10.3c1.8,0,3.3-1.5,3.3-3.3v-10.6c0-1.9-1.4-3.3-3.3-3.3h-10.3c-1.8,0-3.3,1.4-3.3,3.3v10.6
		C327.9,414.7,329.4,416.1,331.2,416.1z"/>
	<path fill="#006B8D" d="M457.9,443.1h10.3c1.9,0,3.3-1.5,3.3-3.3v-10.6c0-1.9-1.4-3.3-3.3-3.3h-10.3c-1.8,0-3.3,1.5-3.3,3.3v10.6
		C454.6,441.6,456.1,443.1,457.9,443.1z"/>
	<path fill="#006B8D" d="M327.9,386c0,1.9,1.5,3.3,3.3,3.3h10.3c1.8,0,3.3-1.4,3.3-3.3v-10.6c0-1.9-1.4-3.3-3.3-3.3h-6.1
		c-2.4,2.3-4.9,4.5-7.4,6.5L327.9,386L327.9,386z"/>
	<path fill="#006B8D" d="M457.9,416.1h10.3c1.9,0,3.3-1.5,3.3-3.3v-10.6c0-1.9-1.4-3.3-3.3-3.3h-10.3c-1.8,0-3.3,1.4-3.3,3.3v10.6
		C454.6,414.7,456.1,416.1,457.9,416.1z"/>
	<path fill="#006B8D" d="M545.6,321.3c-27.1,0-60.2-34.5-60.2-63.6c0-28.9,0-52.6,0-52.6H376.8c5.6,16.2,8.7,33.7,8.7,51.7
		c0,40.5-15.2,77.4-40.3,105.3h125.1c6.1,0,10.9,5,10.9,10.9v149.9c0,6.1-5,10.9-10.9,10.9H329c-6.1,0-10.9-4.9-10.9-10.9V386.2
		c-25.6,17.9-56.7,28.4-90.3,28.4c-8,0-16-0.6-23.7-1.8v249c0,31.3,25.4,56.8,56.8,56.8h277.6c31.3,0,56.8-25.4,56.8-56.8V321.3
		H545.6z M336,635.9h-18.7v-19.6H336V635.9z M389.9,571.4h-1.3c-0.8-0.3-1.9-0.5-3.1-0.8c-1.3-0.3-2.6-0.4-4.1-0.4
		c-3.5,0-5.9,0.7-7.2,1.9c-1.3,1.3-1.9,3.8-1.9,7.3v0.4h13.9V592h-13.3v43.9h-18V592h-7.7v-12.1h7.7v-1.6c0-6.8,1.9-12,5.5-15.4
		c3.6-3.4,9.2-5.1,16.6-5.1c2.7,0,5,0.1,7.2,0.3c2.2,0.2,4,0.4,5.7,0.8L389.9,571.4L389.9,571.4z M414.8,635.9h-18v-77.7h18V635.9z
		 M488.2,579.8l-21.6,56.1h-20.4l-21.5-56.1h19l13,38.5l12.9-38.5H488.2z"/>
	<path fill="#006B8D" d="M331.2,523.7h10.3c1.8,0,3.3-1.5,3.3-3.3v-10.6c0-1.8-1.4-3.3-3.3-3.3h-10.3c-1.8,0-3.3,1.5-3.3,3.3v10.6
		C327.9,522.2,329.4,523.7,331.2,523.7z"/>
	<path fill="#006B8D" d="M331.2,496.8h10.3c1.8,0,3.3-1.4,3.3-3.3v-10.6c0-1.9-1.4-3.3-3.3-3.3h-10.3c-1.8,0-3.3,1.4-3.3,3.3v10.6
		C327.9,495.4,329.4,496.8,331.2,496.8z"/>
	<path fill="#006B8D" d="M331.2,470h10.3c1.8,0,3.3-1.4,3.3-3.3v-10.6c0-1.9-1.4-3.3-3.3-3.3h-10.3c-1.8,0-3.3,1.5-3.3,3.3v10.6
		C327.9,468.5,329.4,470,331.2,470z"/>
	<path fill="#006B8D" d="M331.2,443.1h10.3c1.8,0,3.3-1.5,3.3-3.3v-10.6c0-1.9-1.4-3.3-3.3-3.3h-10.3c-1.8,0-3.3,1.5-3.3,3.3v10.6
		C327.9,441.6,329.4,443.1,331.2,443.1z"/>
</g>
<g id="Layer_2_4_" display="none">
</g>
<g id="Layer_2_5_" display="none">
</g>
<g id="Layer_2_6_" display="none">
	<g display="inline">
		<g>
			<g>
				<g>
					<g>
						<path fill="#006B8D" d="M130.6,774.6c0,37.2,30.1,67.4,67.4,67.4h329.9c37.2,0,67.4-30.1,67.4-67.4"/>
					</g>
				</g>
			</g>
		</g>
	</g>
	<g id="Layer_2_7_" display="inline">
	</g>
</g>
</svg>
