<?xml version="1.0" encoding="utf-8"?>
<!-- Generator: Adobe Illustrator 18.0.0, SVG Export Plug-In . SVG Version: 6.00 Build 0)  -->
<!DOCTYPE svg PUBLIC "-//W3C//DTD SVG 1.1//EN" "http://www.w3.org/Graphics/SVG/1.1/DTD/svg11.dtd">
<svg version="1.1" id="Layer_1" xmlns="http://www.w3.org/2000/svg" xmlns:xlink="http://www.w3.org/1999/xlink" x="0px" y="0px"
	 viewBox="0 123.3 595.3 595.3" enable-background="new 0 123.3 595.3 595.3" xml:space="preserve" width="40px" height="40px">
<g id="Layer_1_4_">
	<g id="Layer_1_3_">
		<g id="Layer_1_2_">
			<g id="Layer_1_1_">
			</g>
		</g>
	</g>
</g>
<g id="Layer_3">
</g>
<g>
	<g id="Layer_2_2_">
		<g>
			<g id="Layer_2_4_">
				<g>
					<g id="Layer_2_1_">
						<g>
							<g>
								<g>
									<path fill="#006B8D" d="M227.6,145.3c61.5,0,111.6,50.1,111.6,111.6s-50.1,111.6-111.6,111.6S116,318.4,116,256.9
										S166,145.3,227.6,145.3 M227.6,123.3C153.9,123.3,94,183.1,94,256.9c0,73.7,59.8,133.6,133.6,133.6s133.6-59.8,133.6-133.6
										C361.1,183.1,301.3,123.3,227.6,123.3L227.6,123.3z"/>
								</g>
								<g>
									<path fill="#006B8D" d="M271.7,247.3h-67.8v-23.1c0-6.6,2.3-12,6.9-16.7s10.1-6.9,16.7-6.9c6.6,0,12,2.3,16.7,6.9
										c4.5,4.5,6.8,10,6.9,16.5c0,0.1,0,24,0,24c0,1.5,0.6,2.9,1.8,4.2c1.2,1.2,2.5,1.8,4.2,1.8h5.8c1.5,0,2.9-0.6,4.2-1.8
										c1.2-1.2,1.8-2.5,1.8-4.2c0-0.1,0-24,0-24.1c-0.1-11.2-4-20.9-12.2-28.9c-8.1-8.1-17.8-12.2-29.1-12.2
										c-11.4,0-21.1,4-29.1,12.2c-8.1,8.1-12.2,17.8-12.2,29.1v23.1h-2.9c-2.5,0-4.5,0.8-6.3,2.6c-1.7,1.7-2.6,3.8-2.6,6.3v65.7
										c0,2.5,0.8,4.5,2.6,6.3c1.7,1.7,3.8,2.6,6.3,2.6h88.5c2.5,0,4.5-0.8,6.3-2.6c1.7-1.7,2.6-3.8,2.6-6.3v-65.7
										c0-2.5-0.8-4.5-2.6-6.3C276.2,248.3,274.2,247.3,271.7,247.3z M234.5,290.5v17.3c0,3.5-2.9,6.3-6.3,6.3H227
										c-3.5,0-6.3-2.9-6.3-6.3v-17.3c-3.7-2.3-6.2-6.5-6.2-11.1c0-7.2,5.8-13.1,13.1-13.1c7.2,0,13.1,5.8,13.1,13.1
										C240.6,284.1,238.2,288.1,234.5,290.5z"/>
								</g>
								<g id="Layer_2">
								</g>
							</g>
						</g>
					</g>
				</g>
			</g>
		</g>
	</g>
	<path fill="#006B8D" d="M551.5,298.5c23.9,0,43.6,0,43.6,0l-86.9-93.4v46.8C508.1,277.7,527.5,298.5,551.5,298.5z"/>
	<g>
		<g>
			<g>
				<path fill="#006B8D" d="M457.8,523.7h10.3c1.9,0,3.3-1.5,3.3-3.3v-10.6c0-1.8-1.4-3.3-3.3-3.3h-10.3c-1.8,0-3.3,1.5-3.3,3.3
					v10.6C454.6,522.1,456,523.7,457.8,523.7z"/>
				<path fill="#006B8D" d="M457.8,496.7h10.3c1.9,0,3.3-1.4,3.3-3.3v-10.6c0-1.9-1.4-3.3-3.3-3.3h-10.3c-1.8,0-3.3,1.4-3.3,3.3
					v10.6C454.6,495.3,456,496.7,457.8,496.7z"/>
				<path fill="#006B8D" d="M457.8,469.9h10.3c1.9,0,3.3-1.4,3.3-3.3V456c0-1.9-1.4-3.3-3.3-3.3h-10.3c-1.8,0-3.3,1.5-3.3,3.3v10.6
					C454.6,468.4,456,469.9,457.8,469.9z"/>
				<path fill="#006B8D" d="M359.2,438.9H440c1.8,0,3.3-1.5,3.3-3.3v-52.3c0-1.9-1.5-3.3-3.3-3.3h-80.8c-1.9,0-3.3,1.4-3.3,3.3v52.3
					C355.9,437.4,357.4,438.9,359.2,438.9z"/>
				<path fill="#006B8D" d="M359.2,515.7H440c1.8,0,3.3-1.5,3.3-3.3V464c0-1.8-1.5-3.3-3.3-3.3h-80.8c-1.9,0-3.3,1.4-3.3,3.3v48.4
					C355.9,514.2,357.4,515.7,359.2,515.7z"/>
				<path fill="#006B8D" d="M457.8,389.2h10.3c1.9,0,3.3-1.4,3.3-3.3v-10.6c0-1.9-1.4-3.3-3.3-3.3h-10.3c-1.8,0-3.3,1.4-3.3,3.3
					v10.6C454.6,387.7,456,389.2,457.8,389.2z"/>
				<path fill="#006B8D" d="M331.1,416h10.3c1.8,0,3.3-1.5,3.3-3.3v-10.6c0-1.9-1.4-3.3-3.3-3.3h-10.3c-1.8,0-3.3,1.4-3.3,3.3v10.6
					C327.8,414.6,329.2,416,331.1,416z"/>
				<path fill="#006B8D" d="M457.8,443h10.3c1.9,0,3.3-1.5,3.3-3.3v-10.6c0-1.9-1.4-3.3-3.3-3.3h-10.3c-1.8,0-3.3,1.5-3.3,3.3v10.6
					C454.6,441.5,456,443,457.8,443z"/>
				<path fill="#006B8D" d="M327.8,385.9c0,1.9,1.5,3.3,3.3,3.3h10.3c1.8,0,3.3-1.4,3.3-3.3v-10.6c0-1.9-1.4-3.3-3.3-3.3h-6.1
					c-2.4,2.3-4.9,4.5-7.4,6.5V385.9L327.8,385.9z"/>
				<path fill="#006B8D" d="M457.8,416h10.3c1.9,0,3.3-1.5,3.3-3.3v-10.6c0-1.9-1.4-3.3-3.3-3.3h-10.3c-1.8,0-3.3,1.4-3.3,3.3v10.6
					C454.6,414.6,456,416,457.8,416z"/>
				<path fill="#006B8D" d="M545.6,321.1c-27.1,0-60.3-34.5-60.3-63.6c0-29,0-52.6,0-52.6H376.7c5.6,16.2,8.8,33.7,8.8,51.7
					c0,40.5-15.2,77.4-40.3,105.4h125.1c6.1,0,10.9,5,10.9,10.9v150c0,6.1-5,10.9-10.9,10.9H328.9c-6.1,0-10.9-4.9-10.9-10.9V386.1
					c-25.6,17.9-56.7,28.4-90.3,28.4c-8,0-16-0.6-23.7-1.8v249.1c0,31.3,25.4,56.8,56.8,56.8h277.7c31.3,0,56.8-25.4,56.8-56.8
					V321.1H545.6z M335.9,635.9h-18.7v-19.6h18.7V635.9z M389.8,571.3h-1.3c-0.8-0.3-1.9-0.5-3.1-0.8c-1.3-0.3-2.6-0.4-4.1-0.4
					c-3.5,0-5.9,0.7-7.2,1.9s-1.9,3.8-1.9,7.3v0.4h13.9v12.1h-13.3v43.9h-18v-43.9h-7.7v-12.1h7.7v-1.6c0-6.8,1.9-12,5.5-15.4
					c3.6-3.4,9.2-5.1,16.6-5.1c2.7,0,5,0.1,7.2,0.3s4,0.4,5.7,0.8L389.8,571.3L389.8,571.3z M414.8,635.9h-18v-77.8h18V635.9z
					 M488.1,579.7l-21.6,56.1h-20.4l-21.5-56.1h19l13,38.5l12.9-38.5H488.1z"/>
				<path fill="#006B8D" d="M331.1,523.7h10.3c1.8,0,3.3-1.5,3.3-3.3v-10.6c0-1.8-1.4-3.3-3.3-3.3h-10.3c-1.8,0-3.3,1.5-3.3,3.3
					v10.6C327.8,522.1,329.2,523.7,331.1,523.7z"/>
				<path fill="#006B8D" d="M331.1,496.7h10.3c1.8,0,3.3-1.4,3.3-3.3v-10.6c0-1.9-1.4-3.3-3.3-3.3h-10.3c-1.8,0-3.3,1.4-3.3,3.3
					v10.6C327.8,495.3,329.2,496.7,331.1,496.7z"/>
				<path fill="#006B8D" d="M331.1,469.9h10.3c1.8,0,3.3-1.4,3.3-3.3V456c0-1.9-1.4-3.3-3.3-3.3h-10.3c-1.8,0-3.3,1.5-3.3,3.3v10.6
					C327.8,468.4,329.2,469.9,331.1,469.9z"/>
				<path fill="#006B8D" d="M331.1,443h10.3c1.8,0,3.3-1.5,3.3-3.3v-10.6c0-1.9-1.4-3.3-3.3-3.3h-10.3c-1.8,0-3.3,1.5-3.3,3.3v10.6
					C327.8,441.5,329.2,443,331.1,443z"/>
			</g>
		</g>
	</g>
</g>
</svg>
