<?xml version="1.0" encoding="utf-8"?>
<!-- Generator: Adobe Illustrator 18.0.0, SVG Export Plug-In . SVG Version: 6.00 Build 0)  -->
<!DOCTYPE svg PUBLIC "-//W3C//DTD SVG 1.1//EN" "http://www.w3.org/Graphics/SVG/1.1/DTD/svg11.dtd">
<svg version="1.1" id="Layer_1" xmlns="http://www.w3.org/2000/svg" xmlns:xlink="http://www.w3.org/1999/xlink" x="0px" y="0px"
	 viewBox="0 123.3 595.3 595.3" enable-background="new 0 123.3 595.3 595.3" xml:space="preserve" width="40px" height="40px">
<g>
	<g>
		<path fill="#006B8D" d="M551.8,298.7c24,0,43.5,0,43.5,0l-87-93.5v46.7C508.3,277.7,527.7,298.7,551.8,298.7z"/>
	</g>
	<g>
		<g>
			<g>
				<g>
					<path fill="#006B8D" d="M457.9,496.2h10.2c1.8,0,3.3-1.4,3.3-3.3v-10.6c0-1.8-1.4-3.3-3.3-3.3h-10.2c-1.8,0-3.3,1.4-3.3,3.3
						v10.6C454.6,494.8,456.1,496.2,457.9,496.2z"/>
					<path fill="#006B8D" d="M359.4,438.4h80.7c1.8,0,3.3-1.5,3.3-3.3v-52.3c0-1.8-1.4-3.3-3.3-3.3h-80.7c-1.8,0-3.3,1.4-3.3,3.3
						v52.3C356.1,436.9,357.5,438.4,359.4,438.4z"/>
					<path fill="#006B8D" d="M457.9,523.1h10.2c1.8,0,3.3-1.5,3.3-3.3v-10.6c0-1.8-1.4-3.3-3.3-3.3h-10.2c-1.8,0-3.3,1.4-3.3,3.3
						v10.6C454.6,521.6,456.1,523.1,457.9,523.1z"/>
					<path fill="#006B8D" d="M457.9,469.4h10.2c1.8,0,3.3-1.4,3.3-3.3v-10.6c0-1.8-1.4-3.3-3.3-3.3h-10.2c-1.8,0-3.3,1.4-3.3,3.3
						v10.6C454.6,467.9,456.1,469.4,457.9,469.4z"/>
					<path fill="#006B8D" d="M359.4,515.1h80.7c1.8,0,3.3-1.4,3.3-3.3v-48.3c0-1.8-1.4-3.3-3.3-3.3h-80.7c-1.8,0-3.3,1.4-3.3,3.3
						v48.3C356.1,513.6,357.5,515.1,359.4,515.1z"/>
					<path fill="#006B8D" d="M457.9,388.7h10.2c1.8,0,3.3-1.4,3.3-3.3v-10.6c0-1.8-1.4-3.3-3.3-3.3h-10.2c-1.8,0-3.3,1.4-3.3,3.3
						v10.6C454.6,387.2,456.1,388.7,457.9,388.7z"/>
					<path fill="#006B8D" d="M457.9,442.5h10.2c1.8,0,3.3-1.5,3.3-3.3v-10.6c0-1.8-1.4-3.3-3.3-3.3h-10.2c-1.8,0-3.3,1.5-3.3,3.3
						v10.6C454.6,441,456.1,442.5,457.9,442.5z"/>
					<path fill="#006B8D" d="M457.9,415.6h10.2c1.8,0,3.3-1.5,3.3-3.3v-10.6c0-1.8-1.4-3.3-3.3-3.3h-10.2c-1.8,0-3.3,1.4-3.3,3.3
						v10.6C454.6,414.1,456.1,415.6,457.9,415.6z"/>
					<path fill="#006B8D" d="M331.3,415.6h10.2c1.8,0,3.3-1.5,3.3-3.3v-10.6c0-1.8-1.4-3.3-3.3-3.3h-10.2c-1.8,0-3.3,1.4-3.3,3.3
						v10.6C328,414.1,329.5,415.6,331.3,415.6z"/>
					<path fill="#006B8D" d="M331.3,523.1h10.2c1.8,0,3.3-1.5,3.3-3.3v-10.6c0-1.8-1.4-3.3-3.3-3.3h-10.2c-1.8,0-3.3,1.4-3.3,3.3
						v10.6C328,521.6,329.5,523.1,331.3,523.1z"/>
					<path fill="#006B8D" d="M331.3,496.2h10.2c1.8,0,3.3-1.4,3.3-3.3v-10.6c0-1.8-1.4-3.3-3.3-3.3h-10.2c-1.8,0-3.3,1.4-3.3,3.3
						v10.6C328,494.8,329.5,496.2,331.3,496.2z"/>
					<path fill="#006B8D" d="M545.9,321.2c-27.1,0-60.3-34.6-60.3-63.5c0-29,0-52.6,0-52.6H260.9c-31.3,0.2-56.7,25.6-56.7,56.9v151
						v249c0,31.3,25.4,56.7,56.7,56.7h277.5c31.3,0,56.7-25.4,56.7-56.7V321.2H545.9z M318.1,372.4c0-6,4.9-10.9,11-10.9h141.3
						c6,0,11,4.9,11,10.9v149.8c0,6-4.9,10.9-11,10.9H329.1c-6,0-11-4.9-11-10.9L318.1,372.4L318.1,372.4z M336.1,635.9h-18.7v-19.6
						h18.7V635.9z M390.1,571.4h-1.3c-0.8-0.3-1.8-0.5-3.1-0.8s-2.6-0.5-4.1-0.5c-3.5,0-5.9,0.7-7.2,1.9c-1.2,1.2-1.8,3.7-1.8,7.4
						v0.5h13.9V592H373v43.9h-18V592h-7.7v-12.2h7.7v-1.6c0-6.8,1.8-12,5.5-15.4c3.6-3.4,9.1-5.1,16.6-5.1c2.7,0,5.1,0.1,7.2,0.3
						s4.1,0.4,5.7,0.7L390.1,571.4L390.1,571.4z M414.9,635.9h-18v-77.7h18V635.9z M488.3,579.8l-21.6,56.1h-20.4l-21.5-56.1h19
						l13,38.6l12.9-38.6H488.3z"/>
					<path fill="#006B8D" d="M331.3,469.4h10.2c1.8,0,3.3-1.4,3.3-3.3v-10.6c0-1.8-1.4-3.3-3.3-3.3h-10.2c-1.8,0-3.3,1.4-3.3,3.3
						v10.6C328,467.9,329.5,469.4,331.3,469.4z"/>
					<path fill="#006B8D" d="M331.3,388.7h10.2c1.8,0,3.3-1.4,3.3-3.3v-10.6c0-1.8-1.4-3.3-3.3-3.3h-10.2c-1.8,0-3.3,1.4-3.3,3.3
						v10.6C328,387.2,329.5,388.7,331.3,388.7z"/>
					<path fill="#006B8D" d="M331.3,442.5h10.2c1.8,0,3.3-1.5,3.3-3.3v-10.6c0-1.8-1.4-3.3-3.3-3.3h-10.2c-1.8,0-3.3,1.5-3.3,3.3
						v10.6C328,441,329.5,442.5,331.3,442.5z"/>
				</g>
			</g>
		</g>
	</g>
</g>
<g id="Layer_2">
</g>
</svg>
