<?xml version="1.0" encoding="utf-8"?>
<!-- Generator: Adobe Illustrator 18.0.0, SVG Export Plug-In . SVG Version: 6.00 Build 0)  -->
<!DOCTYPE svg PUBLIC "-//W3C//DTD SVG 1.1//EN" "http://www.w3.org/Graphics/SVG/1.1/DTD/svg11.dtd">
<svg version="1.1" id="Layer_1" xmlns="http://www.w3.org/2000/svg" xmlns:xlink="http://www.w3.org/1999/xlink" x="0px" y="0px"
	 viewBox="0 123.3 595.3 595.3" enable-background="new 0 123.3 595.3 595.3" xml:space="preserve" width="40px" height="40px">
<g>
	<g>
		<path fill="#006B8D" d="M228.1,145.2c61.5,0,111.5,50,111.5,111.5s-50,111.5-111.5,111.5s-111.5-50-111.5-111.5
			S166.6,145.2,228.1,145.2 M228.1,123.3c-73.6,0-133.5,59.7-133.5,133.5c0,73.7,59.7,133.5,133.5,133.5s133.5-59.7,133.5-133.5
			C361.5,183,301.8,123.3,228.1,123.3L228.1,123.3z"/>
	</g>
	<g>
		<path fill="#006B8D" d="M272.2,247.2h-67.7V224c0-6.6,2.3-12,6.9-16.7c4.6-4.6,10.1-6.9,16.7-6.9c6.6,0,12,2.3,16.7,6.9
			c4.5,4.5,6.8,10,6.9,16.5c0,0.1,0,24,0,24c0,1.5,0.6,2.9,1.8,4.2c1.2,1.2,2.5,1.8,4.2,1.8h5.8c1.5,0,2.9-0.6,4.2-1.8
			c1.2-1.2,1.8-2.5,1.8-4.2c0-0.1,0-24,0-24.1c-0.1-11.2-4-20.9-12.2-28.9c-8.1-8.1-17.7-12.2-29.1-12.2s-21.1,4-29.1,12.2
			c-8.1,8.1-12.2,17.7-12.2,29.1v23.1h-2.9c-2.5,0-4.5,0.8-6.3,2.6c-1.7,1.7-2.6,3.8-2.6,6.3v65.7c0,2.5,0.8,4.5,2.6,6.3
			c1.7,1.7,3.8,2.6,6.3,2.6h88.4c2.5,0,4.5-0.8,6.3-2.6c1.7-1.7,2.6-3.8,2.6-6.3v-65.7c0-2.5-0.8-4.5-2.6-6.3
			C276.8,248.2,274.7,247.2,272.2,247.2z M235,290.3v17.2c0,3.4-2.9,6.3-6.3,6.3h-1.2c-3.4,0-6.3-2.9-6.3-6.3v-17.2
			c-3.7-2.3-6.2-6.5-6.2-11.1c0-7.2,5.8-13.1,13.1-13.1c7.2,0,13.1,5.8,13.1,13.1C241.2,283.9,238.7,288,235,290.3z"/>
	</g>
	<g>
		<path fill="#006B8D" d="M552.1,298.6c24,0,43.5,0,43.5,0L508.7,205v46.7C508.6,277.6,528,298.6,552.1,298.6z"/>
		<g>
			<g>
				<g>
					<path fill="#006B8D" d="M380.5,591.8c-4.7,0-8.2,1.3-10.6,4c-2.4,2.7-3.5,6.5-3.5,11.3c0,5.4,1,9.1,3,11.3c2,2.1,5,3.2,8.9,3.2
						c1.8,0,3.5-0.3,5.2-0.8s3.3-1.3,4.7-2.3v-25.3c-1-0.4-2.3-0.8-3.8-1C383,591.9,381.6,591.8,380.5,591.8z"/>
					<path fill="#006B8D" d="M316.6,470.7l44.4-51.6c3.7-4.2,10.3-4.2,13.8,0.1l47.5,56.8l24.1-24.1c3.4-3.4,8.9-3.6,12.5-0.3
						l23.8,21.7v-87.8H319.3c-0.8,0.6-1.8,1.2-2.6,1.9L316.6,470.7L316.6,470.7z M448,400.5c9.3,0,16.6,7.5,16.6,16.6
						c0,9.3-7.5,16.6-16.6,16.6c-9.3,0-16.6-7.5-16.6-16.6C431.4,408,438.8,400.5,448,400.5z"/>
					<path fill="#006B8D" d="M546.1,321.1c-27.2,0-60.3-34.6-60.3-63.5c0-28.9,0-52.6,0-52.6H377.3c5.6,16.2,8.7,33.6,8.7,51.6
						c0,46.3-19.9,87.8-51.6,116.8h148.5c6.6,0,12.1,5.5,12.1,12.1v123.9h-0.1c0,6.6-5.5,12.1-12.1,12.1H316.6
						c-6.6,0-12.1-5.5-12.1-12.1V394.7c-22.7,12.6-48.8,19.8-76.5,19.8c-8,0-16-0.6-23.7-1.8l1.8,0.6l-1.8-0.5v249.1
						c0,31.4,25.4,56.7,56.7,56.7h277.7c31.4,0,56.7-25.4,56.7-56.7V321.1H546.1z M334.4,636.1h-18.6v-19.5h18.6V636.1z
						 M406.2,629.6c0,5.2-0.8,9.7-2.3,13.2c-1.5,3.6-3.6,6.4-6.2,8.4c-2.7,2-5.9,3.5-9.8,4.5c-3.8,0.9-8.1,1.3-12.9,1.3
						c-3.9,0-7.7-0.3-11.4-0.7c-3.8-0.5-7-1-9.8-1.7v-14h2.2c2.2,0.8,4.9,1.7,8,2.4c3.1,0.7,6,1.1,8.4,1.1c3.3,0,6-0.3,8.1-0.9
						c2.1-0.6,3.6-1.5,4.7-2.6c1-1.1,1.8-2.4,2.3-4c0.5-1.7,0.7-3.6,0.7-6v-1c-2.2,1.8-4.5,3.1-7.1,4.2c-2.6,1-5.6,1.5-8.7,1.5
						c-7.8,0-13.8-2.4-18.1-7.1c-4.2-4.7-6.4-11.9-6.4-21.4c0-4.6,0.7-8.6,1.9-11.9c1.3-3.4,3.1-6.2,5.5-8.7
						c2.2-2.4,4.9-4.1,8.1-5.4c3.2-1.3,6.5-1.9,9.8-1.9c3,0,5.7,0.3,8.2,1.1c2.4,0.7,4.7,1.7,6.7,2.9l0.7-2.5h17.4V629.6z
						 M441,636.1h-17.9v-55.9H441V636.1z M441.5,572.3h-18.9v-13.5h18.9V572.3z M494.1,571.8h-1.3c-0.8-0.3-1.9-0.5-3.1-0.8
						c-1.3-0.3-2.6-0.4-4.1-0.4c-3.5,0-5.9,0.6-7.1,1.9s-1.9,3.7-1.9,7.3v0.4h13.8v12.1h-13.2V636h-17.9v-43.7h-7.7v-12.1h7.7v-1.5
						c0-6.8,1.9-11.9,5.5-15.4c3.6-3.4,9.1-5.1,16.5-5.1c2.7,0,5,0.1,7.2,0.3c2.2,0.2,4,0.4,5.7,0.8L494.1,571.8L494.1,571.8z"/>
				</g>
			</g>
		</g>
	</g>
</g>
</svg>
