<?xml version="1.0" encoding="utf-8"?>
<!-- Generator: Adobe Illustrator 18.0.0, SVG Export Plug-In . SVG Version: 6.00 Build 0)  -->
<!DOCTYPE svg PUBLIC "-//W3C//DTD SVG 1.1//EN" "http://www.w3.org/Graphics/SVG/1.1/DTD/svg11.dtd">
<svg version="1.1" id="Layer_1" xmlns="http://www.w3.org/2000/svg" xmlns:xlink="http://www.w3.org/1999/xlink" x="0px" y="0px"
	 viewBox="0 123.3 595.3 595.3" enable-background="new 0 123.3 595.3 595.3" xml:space="preserve" width="40px" height="40px">
<g id="Layer_1_1_">
</g>
<g id="Layer_2">
	<g>
		<g>
			<g>
				<g>
					<path fill="#006B8D" d="M228.5,145.2c61.4,0,111.4,50,111.4,111.4s-50,111.4-111.4,111.4s-111.4-50-111.4-111.4
						S166.9,145.2,228.5,145.2 M228.5,123.3c-73.6,0-133.4,59.7-133.4,133.4c0,73.5,59.7,133.4,133.4,133.4s133.4-59.7,133.4-133.4
						C361.8,183,302.1,123.3,228.5,123.3L228.5,123.3z"/>
				</g>
				<g>
					<path fill="#006B8D" d="M272.6,247.1h-67.7V224c0-6.6,2.3-12,6.9-16.6s10.1-6.9,16.6-6.9s12,2.3,16.6,6.9
						c4.5,4.5,6.8,10,6.9,16.4c0,0.1,0-0.1,0,0c0,1.5,0.6,2.9,1.8,4.2c1.2,1.3,2.5,1.8,4.2,1.8h5.8c1.5,0,2.9-0.6,4.2-1.8
						c1.3-1.2,1.8-2.5,1.8-4.2c0-0.1,0,0.1,0,0c-0.1-11.2-4-20.8-12.1-28.8c-8.1-8.1-17.7-12.1-29.1-12.1c-11.3,0-21.1,4-29.1,12.1
						c-8.1,8.1-12.1,17.7-12.1,29.1v23.1h-2.9c-2.5,0-4.5,0.8-6.3,2.6c-1.7,1.7-2.6,3.8-2.6,6.3v65.6c0,2.5,0.8,4.5,2.6,6.3
						c1.7,1.7,3.8,2.6,6.3,2.6h88.3c2.5,0,4.5-0.8,6.3-2.6c1.7-1.7,2.6-3.8,2.6-6.3v-65.6c0-2.5-0.8-4.5-2.6-6.3
						C277.1,248.1,275.1,247.1,272.6,247.1z M235.4,290.2v17.2c0,3.4-2.9,6.3-6.3,6.3H228c-3.4,0-6.3-2.9-6.3-6.3v-17.2
						c-3.7-2.3-6.2-6.4-6.2-11.1c0-7.2,5.8-13.1,13.1-13.1s13.1,5.8,13.1,13.1C241.5,283.8,239.1,287.9,235.4,290.2z"/>
				</g>
			</g>
		</g>
		<g>
			<path fill="#006B8D" d="M552.1,298.9c24,0,43.5,0,43.5,0l-86.8-93.5v46.6C508.6,277.9,528,298.9,552.1,298.9z"/>
			<g>
				<g>
					<g>
						<path fill="#006B8D" d="M380.7,591.8c-4.7,0-8.2,1.3-10.6,4c-2.4,2.7-3.5,6.5-3.5,11.3c0,5.4,1,9.1,3,11.3
							c2,2.1,5,3.2,8.9,3.2c1.8,0,3.5-0.3,5.2-0.8c1.7-0.6,3.3-1.3,4.7-2.3v-25.3c-1-0.4-2.3-0.8-3.8-1
							C383.2,592,381.8,591.8,380.7,591.8z"/>
						<path fill="#006B8D" d="M316.9,470.9l44.4-51.6c3.7-4.2,10.3-4.2,13.8,0.1l47.5,56.7l24-24c3.4-3.4,8.9-3.6,12.5-0.3
							l23.8,21.7v-87.7H319.5c-0.8,0.6-1.8,1.2-2.6,1.8V470.9z M448.2,400.7c9.2,0,16.6,7.5,16.6,16.6c0,9.2-7.5,16.6-16.6,16.6
							c-9.2,0-16.6-7.5-16.6-16.6S439,400.7,448.2,400.7z"/>
						<path fill="#006B8D" d="M546.1,321.4c-27.1,0-60.3-34.5-60.3-63.5c0-28.9,0-52.5,0-52.5H377.4c5.6,16.2,8.7,33.6,8.7,51.5
							c0,46.2-19.8,87.7-51.5,116.7h148.3c6.6,0,12.1,5.5,12.1,12.1v123.8h-0.1c0,6.6-5.5,12.1-12.1,12.1H316.9
							c-6.6,0-12.1-5.5-12.1-12.1V395c-22.7,12.6-48.7,19.8-76.5,19.8c-8,0-16-0.6-23.7-1.8l1.8,0.6l-1.8-0.5v248.9
							c0,31.3,25.4,56.6,56.6,56.6h277.4c31.3,0,56.6-25.4,56.6-56.6V321.4H546.1z M334.6,636.1H316v-19.5h18.6V636.1z M406.4,629.7
							c0,5.2-0.8,9.7-2.3,13.2c-1.5,3.6-3.6,6.4-6.2,8.4c-2.7,2-5.9,3.5-9.7,4.5c-3.8,0.9-8.1,1.3-12.9,1.3c-3.9,0-7.6-0.3-11.4-0.7
							c-3.8-0.5-7-1-9.7-1.7v-14h2.2c2.2,0.8,4.9,1.7,8,2.4c3.1,0.7,6,1.1,8.4,1.1c3.3,0,6-0.3,8.1-0.9c2.1-0.6,3.6-1.5,4.7-2.6
							c1-1.1,1.8-2.4,2.3-4c0.5-1.7,0.7-3.6,0.7-6v-1c-2.2,1.8-4.5,3.1-7.1,4.2c-2.6,1-5.5,1.5-8.7,1.5c-7.8,0-13.8-2.4-18.1-7.1
							c-4.2-4.7-6.4-11.9-6.4-21.4c0-4.6,0.7-8.6,1.9-11.9c1.3-3.4,3.1-6.2,5.5-8.7c2.2-2.4,4.9-4.1,8.1-5.4s6.5-1.9,9.8-1.9
							c3,0,5.7,0.3,8.2,1.1c2.4,0.7,4.7,1.7,6.7,2.9l0.7-2.5h17.4V629.7z M441.2,636.1h-17.9v-55.8h17.9V636.1z M441.7,572.4h-18.9
							v-13.5h18.9V572.4z M494.1,571.9h-1.3c-0.8-0.3-1.8-0.5-3.1-0.8c-1.3-0.3-2.6-0.4-4.1-0.4c-3.5,0-5.9,0.6-7.1,1.8
							c-1.3,1.3-1.8,3.7-1.8,7.3v0.4h13.8v12.1h-13.2v43.6h-17.9v-43.6h-7.6v-12.1h7.6v-1.5c0-6.8,1.8-11.9,5.5-15.4
							s9.1-5.1,16.5-5.1c2.7,0,5,0.1,7.2,0.3s4,0.4,5.7,0.8L494.1,571.9L494.1,571.9z"/>
					</g>
				</g>
			</g>
		</g>
	</g>
</g>
</svg>
