<?xml version="1.0" encoding="utf-8"?>
<!-- Generator: Adobe Illustrator 18.0.0, SVG Export Plug-In . SVG Version: 6.00 Build 0)  -->
<!DOCTYPE svg PUBLIC "-//W3C//DTD SVG 1.1//EN" "http://www.w3.org/Graphics/SVG/1.1/DTD/svg11.dtd">
<svg version="1.1" id="Layer_1" xmlns="http://www.w3.org/2000/svg" xmlns:xlink="http://www.w3.org/1999/xlink" x="0px" y="0px"
	 viewBox="0 123.3 595.3 595.3" enable-background="new 0 123.3 595.3 595.3" xml:space="preserve" width="40px" height="40px">
<g id="Layer_1_1_">
	<g>
		<g>
			<path fill="#006B8D" d="M552,298.7c24,0,43.5,0,43.5,0l-87-93.5v46.7C508.5,277.7,528,298.7,552,298.7z"/>
		</g>
		<g>
			<g>
				<g>
					<path fill="#006B8D" d="M375.1,419.4l47.6,56.8l24-24c3.4-3.4,8.9-3.6,12.5-0.3l23.8,21.7v-87.8H316.9v85.2l44.4-51.6
						C365,415,371.6,415,375.1,419.4z M448.2,400.7c9.2,0,16.6,7.5,16.6,16.6c0,9.2-7.5,16.6-16.6,16.6c-9.2,0-16.6-7.5-16.6-16.6
						C431.6,408.2,439.1,400.7,448.2,400.7z"/>
					<path fill="#006B8D" d="M546.1,321.2L546.1,321.2c-27.1,0-60.3-34.6-60.3-63.5c0-29,0-52.6,0-52.6H261.1
						c-31.3,0.2-56.8,25.6-56.8,56.9v151v249c0,31.3,25.4,56.7,56.7,56.7h277.5c31.3,0,56.7-25.4,56.7-56.7V321.2H546.1z
						 M304.9,385.6c0-6.6,5.5-12.1,12.1-12.1H483c6.6,0,12.1,5.5,12.1,12.1v123.8h-0.1c0,6.6-5.5,12.1-12.1,12.1H316.9
						c-6.6,0-12.1-5.5-12.1-12.1L304.9,385.6L304.9,385.6z M283.7,636.2h-18.6v-19.5h18.6V636.2z M325.4,637.2
						c0,6.3-2,11.2-5.8,14.7c-3.9,3.5-8.9,5.3-15,5.3c-3.2,0-6.2-0.1-8.9-0.4c-2.7-0.3-4.6-0.6-5.8-0.9v-12.8h1.4
						c1,0.3,2.2,0.6,3.7,0.9c1.5,0.3,2.6,0.3,3.5,0.3c3.4,0,5.8-1.1,7-3.1c1.2-2,1.9-5.5,1.9-10.1v-38.6h-10.6v-12.2h28.5V637.2
						L325.4,637.2z M325.4,572.5h-19.1v-13.6h19.1V572.5z M400.5,607.6c0,4.6-0.7,8.8-2.1,12.5c-1.4,3.8-3.2,6.9-5.5,9.3
						c-2.4,2.6-5.1,4.5-8.1,5.8c-3,1.3-6.2,2-9.7,2c-3.2,0-5.8-0.3-8.1-1.1c-2.2-0.7-4.5-1.6-6.8-2.9v23.3h-17.9v-76.1h17.9v5.8
						c2.8-2.2,5.6-3.9,8.4-5.3c2.9-1.4,6.2-2,9.9-2c7,0,12.3,2.6,16.2,7.7C398.6,591.6,400.5,598.6,400.5,607.6z M382.1,607.9
						c0-5.5-0.9-9.4-2.8-11.8c-1.8-2.4-4.8-3.7-8.8-3.7c-1.7,0-3.4,0.3-5.2,0.8s-3.5,1.2-5.1,2.2v28c1.2,0.5,2.4,0.8,3.8,0.9
						c1.4,0.1,2.7,0.2,4,0.2c4.7,0,8.3-1.4,10.6-4.1C380.9,617.7,382.1,613.5,382.1,607.9z M468.4,611.6h-40.9
						c0.3,4.4,1.9,7.8,5,10.1s7.6,3.5,13.5,3.5c3.8,0,7.4-0.7,11-2c3.5-1.4,6.4-2.8,8.4-4.4h2v14.4c-4.1,1.6-7.9,2.8-11.4,3.5
						c-3.5,0.7-7.6,1.1-11.9,1.1c-11.2,0-19.8-2.5-25.8-7.6c-6-5.1-8.9-12.2-8.9-21.5c0-9.2,2.8-16.5,8.5-21.9s13.4-8.1,23.3-8.1
						c9.1,0,15.9,2.3,20.5,6.9c4.6,4.6,6.8,11.2,6.8,19.8V611.6z M450.6,601.1c-0.1-3.7-1.1-6.6-2.8-8.5c-1.8-1.9-4.5-2.8-8.2-2.8
						c-3.4,0-6.3,0.9-8.5,2.7c-2.2,1.8-3.5,4.7-3.7,8.6H450.6L450.6,601.1z M535.3,629.8c0,5.3-0.7,9.7-2.2,13.2
						c-1.5,3.5-3.5,6.4-6.2,8.4s-5.9,3.5-9.7,4.5s-8.1,1.4-12.9,1.4c-3.9,0-7.7-0.3-11.4-0.7c-3.7-0.5-7-1.1-9.8-1.7v-14h2.2
						c2.2,0.9,4.9,1.6,8,2.4c3.2,0.7,6,1.1,8.4,1.1c3.3,0,6-0.3,8.1-0.9c2.1-0.6,3.7-1.5,4.7-2.6c1.1-1.1,1.8-2.4,2.2-4.1
						s0.7-3.6,0.7-6v-1.1c-2.2,1.8-4.5,3.2-7.2,4.2s-5.5,1.5-8.7,1.5c-7.8,0-13.9-2.4-18.1-7c-4.2-4.7-6.4-11.9-6.4-21.5
						c0-4.6,0.7-8.6,1.9-12c1.3-3.4,3.1-6.2,5.5-8.7c2.2-2.3,4.9-4.1,8.1-5.4c3.2-1.3,6.4-2,9.8-2c3,0,5.8,0.3,8.2,1.1
						c2.5,0.7,4.7,1.7,6.7,3l0.7-2.5h17.4L535.3,629.8L535.3,629.8L535.3,629.8z M517.3,618.6v-25.3c-1.1-0.5-2.3-0.8-3.7-1.1
						c-1.5-0.3-2.8-0.4-4-0.4c-4.7,0-8.2,1.4-10.6,4.1c-2.4,2.7-3.5,6.4-3.5,11.3c0,5.4,1,9.1,3,11.2c2,2.1,5,3.2,8.9,3.2
						c1.8,0,3.5-0.3,5.3-0.9C514.4,620.3,515.9,619.6,517.3,618.6z"/>
				</g>
			</g>
		</g>
	</g>
</g>
<g id="Layer_2">
</g>
</svg>
