<?xml version="1.0" encoding="utf-8"?>
<!-- Generator: Adobe Illustrator 18.0.0, SVG Export Plug-In . SVG Version: 6.00 Build 0)  -->
<!DOCTYPE svg PUBLIC "-//W3C//DTD SVG 1.1//EN" "http://www.w3.org/Graphics/SVG/1.1/DTD/svg11.dtd">
<svg version="1.1" id="Layer_1" xmlns="http://www.w3.org/2000/svg" xmlns:xlink="http://www.w3.org/1999/xlink" x="0px" y="0px"
	 viewBox="0 123.3 595.3 595.3" enable-background="new 0 123.3 595.3 595.3" xml:space="preserve" width="40px" height="40px">
<g id="Layer_1_1_">
	<g>
		<g>
			<path fill="#006B8D" d="M552,298.7c24,0,43.5,0,43.5,0l-87-93.5v46.7C508.5,277.7,527.9,298.7,552,298.7z"/>
		</g>
		<g>
			<g>
				<g>
					<path fill="#006B8D" d="M375.1,419.4l47.6,56.8l24-24c3.4-3.4,8.9-3.6,12.5-0.3l23.8,21.7v-87.8H316.9v85.2l44.4-51.6
						C365,415,371.5,415,375.1,419.4z M448.1,400.7c9.2,0,16.6,7.5,16.6,16.6c0,9.2-7.5,16.6-16.6,16.6c-9.2,0-16.6-7.5-16.6-16.6
						S439.1,400.7,448.1,400.7z"/>
					<path fill="#006B8D" d="M546.1,321.2L546.1,321.2c-27.1,0-60.3-34.6-60.3-63.5c0-29,0-52.6,0-52.6H261.1
						c-31.3,0.2-56.8,25.6-56.8,56.9v151v249c0,31.3,25.4,56.7,56.7,56.7h277.5c31.3,0,56.7-25.4,56.7-56.7V321.2H546.1z
						 M304.9,385.6c0-6.6,5.5-12.1,12.1-12.1H483c6.6,0,12.1,5.5,12.1,12.1v123.8H495c0,6.6-5.5,12.1-12.1,12.1H316.9
						c-6.6,0-12.1-5.5-12.1-12.1L304.9,385.6L304.9,385.6z M317.5,636.2h-18.5v-19.5h18.6L317.5,636.2L317.5,636.2z M359.2,637.2
						c0,6.3-1.9,11.2-5.8,14.7c-3.9,3.5-8.9,5.3-15,5.3c-3.2,0-6.2-0.1-8.9-0.4s-4.6-0.6-5.8-0.9v-12.8h1.4c1,0.3,2.2,0.6,3.7,0.9
						c1.5,0.3,2.6,0.3,3.5,0.3c3.4,0,5.8-1.1,7-3.1c1.2-2,1.9-5.5,1.9-10.1v-38.6h-10.6v-12.1h28.5L359.2,637.2L359.2,637.2z
						 M359.2,572.5h-19.1V559h19.1V572.5z M434.2,607.6c0,4.6-0.7,8.8-2.1,12.5c-1.4,3.7-3.2,6.9-5.5,9.3c-2.4,2.6-5.1,4.5-8.1,5.8
						c-3,1.3-6.2,2-9.7,2c-3.2,0-5.8-0.3-8.1-1c-2.2-0.7-4.5-1.6-6.8-2.8v23.3h-17.9v-76.2H394v5.8c2.8-2.2,5.5-3.9,8.4-5.3
						c2.9-1.4,6.2-2,9.9-2c7,0,12.3,2.6,16.2,7.6C432.2,591.7,434.2,598.6,434.2,607.6z M415.7,608c0-5.5-0.9-9.3-2.8-11.8
						c-1.8-2.4-4.8-3.7-8.8-3.7c-1.7,0-3.4,0.3-5.2,0.8s-3.5,1.2-5.1,2.2v28c1.2,0.5,2.4,0.8,3.8,0.9c1.4,0.1,2.7,0.2,4,0.2
						c4.7,0,8.2-1.4,10.6-4.1C414.6,617.6,415.7,613.5,415.7,608z M501.3,629.8c0,5.3-0.7,9.7-2.2,13.2c-1.5,3.5-3.5,6.4-6.2,8.4
						s-5.9,3.5-9.7,4.5s-8.1,1.4-12.8,1.4c-3.9,0-7.7-0.3-11.4-0.7c-3.7-0.5-7-1.1-9.8-1.7v-13.9h2.2c2.2,0.9,4.9,1.6,8,2.4
						c3.2,0.7,6,1.1,8.4,1.1c3.3,0,6-0.3,8.1-0.9c2.1-0.6,3.6-1.5,4.7-2.6c1.1-1.1,1.8-2.4,2.2-4.1s0.7-3.6,0.7-6v-1.1
						c-2.2,1.8-4.5,3.2-7.2,4.2c-2.6,1.1-5.5,1.5-8.7,1.5c-7.8,0-13.8-2.4-18.1-7c-4.2-4.7-6.4-11.8-6.4-21.5
						c0-4.6,0.7-8.6,1.9-11.9c1.3-3.4,3.1-6.2,5.5-8.7c2.2-2.3,4.9-4.1,8.1-5.4c3.2-1.3,6.4-1.9,9.8-1.9c3,0,5.7,0.3,8.2,1.1
						c2.4,0.7,4.7,1.7,6.7,3l0.7-2.5h17.4V629.8z M483.4,618.6v-25.3c-1.1-0.5-2.3-0.8-3.7-1c-1.5-0.3-2.8-0.4-4-0.4
						c-4.7,0-8.2,1.4-10.6,4.1c-2.4,2.7-3.5,6.4-3.5,11.3c0,5.4,1,9.1,3,11.2c2,2.1,5,3.2,8.9,3.2c1.8,0,3.5-0.3,5.3-0.9
						C480.4,620.3,482,619.6,483.4,618.6z"/>
				</g>
			</g>
		</g>
	</g>
</g>
<g id="Layer_2">
</g>
</svg>
