<?xml version="1.0" encoding="utf-8"?>
<!-- Generator: Adobe Illustrator 18.0.0, SVG Export Plug-In . SVG Version: 6.00 Build 0)  -->
<!DOCTYPE svg PUBLIC "-//W3C//DTD SVG 1.1//EN" "http://www.w3.org/Graphics/SVG/1.1/DTD/svg11.dtd">
<svg version="1.1" id="Layer_1" xmlns="http://www.w3.org/2000/svg" xmlns:xlink="http://www.w3.org/1999/xlink" x="0px" y="0px"
	 viewBox="0 123.3 595.3 595.3" enable-background="new 0 123.3 595.3 595.3" xml:space="preserve" width="40px" height="40px">
<g id="Layer_1_3_">
	<g id="Layer_1_2_">
		<g id="Layer_1_1_">
			<g>
				<g>
					<path fill="#006B8D" d="M551.5,298.8c23.9,0,43.6,0,43.6,0l-86.9-93.4v46.8C508.1,277.9,527.6,298.8,551.5,298.8z"/>
					<path fill="#006B8D" d="M485.3,257.7c0-28.9,0-52.6,0-52.6H376.8c5.6,16.2,8.7,33.6,8.7,51.6c0,87.1-70.7,157.8-157.8,157.8
						c-8,0-16-0.6-23.7-1.8v249c0,31.3,25.4,56.8,56.8,56.8h277.7c31.3,0,56.8-25.4,56.8-56.8V321.3h-49.5
						C518.5,321.3,485.3,286.8,485.3,257.7z M487.5,370.2v108.8c0,0.7-0.1,1.4-0.2,2c-0.2,15.4-13.5,29.6-32.3,33.7
						c-21.2,4.5-41.3-6-45-23.6c-3.7-17.5,10.5-35.2,31.7-39.9c7.7-1.7,15.4-1.3,22,0.7v-67.4l-75.3,15.8v99.2c0,0.7-0.1,1.4-0.2,2
						c-0.2,15.4-13.5,29.6-32.3,33.7c-21.2,4.5-41.3-6-45-23.6c-3.7-17.4,10.5-35.2,31.7-39.9c7.7-1.7,15.4-1.3,22,0.7v-82.1
						c0-5.6,3.9-10.5,9.4-11.7l99.3-21l0,0c0.4-0.1,0.7-0.1,1.2-0.1c0.5,0,0.8-0.1,1.2-0.1l0,0c0.1,0,0.4,0,0.5,0.1
						c0.6,0,1.2,0,1.8,0.1c0.4,0.1,0.7,0.2,1.1,0.4c0.4,0.3,0.7,0.2,1.1,0.4c0.4,0.1,0.8,0.4,1.2,0.6c0.2,0.1,0.6,0.2,0.8,0.5
						c0.4,0.2,0.6,0.5,1,0.7c0.2,0.2,0.6,0.5,0.8,0.7c0.2,0.2,0.5,0.6,0.7,0.8c0.2,0.2,0.5,0.6,0.7,0.8c0.2,0.4,0.5,0.8,0.7,1.2
						c0.1,0.2,0.4,0.6,0.5,0.8c0.2,0.6,0.5,1.2,0.6,1.9c0,0.1,0.1,0.2,0.1,0.4l0,0c0.1,0.4,0.1,0.8,0.1,1.3
						C487.5,369.4,487.5,369.8,487.5,370.2L487.5,370.2z M282.9,635.5h-18.6V616h18.6V635.5z M355,595.9v39.5H337v-27.8
						c0-2.7-0.1-5-0.2-6.9c-0.2-1.9-0.5-3.4-1.1-4.6c-0.6-1.2-1.5-2.1-2.7-2.6c-1.2-0.5-2.9-0.8-5.1-0.8c-1.8,0-3.4,0.3-5.1,1.1
						c-1.7,0.7-3.1,1.4-4.5,2.3v39.5h-17.9v-55.8h17.9v6.1c3.1-2.4,6.1-4.3,8.8-5.6c2.8-1.3,5.9-2,9.3-2c3.7,0,6.9,0.8,9.8,2.4
						c2.8,1.6,5,4,6.6,7.2c3.5-3,7.1-5.4,10.4-7.1c3.4-1.7,6.6-2.6,9.9-2.6c6.1,0,10.6,1.8,13.7,5.4c3.1,3.6,4.7,8.8,4.7,15.6v36.3
						h-18v-27.8c0-2.8-0.1-5-0.2-7c-0.1-1.9-0.5-3.4-1.1-4.6c-0.6-1.2-1.4-2.1-2.7-2.6c-1.3-0.5-2.9-0.8-5.1-0.8
						c-1.5,0-2.9,0.3-4.4,0.8C358.8,593.9,357,594.8,355,595.9z M459.6,600.8c1.6,1.4,2.9,3,3.9,4.9s1.4,4.3,1.4,7.4
						c0,3.4-0.7,6.7-2.1,9.8c-1.3,3-3.4,5.6-6.3,7.7c-2.8,2.1-6.1,3.7-9.8,4.8c-3.8,1.1-8.3,1.7-13.7,1.7c-6.1,0-11.4-0.5-15.8-1.4
						c-4.4-0.9-8-2-10.7-3.2v-16.2h1.9c2.9,1.7,6.2,3.2,10.2,4.5s7.6,1.9,10.9,1.9c1.9,0,4-0.2,6.2-0.5c2.3-0.3,4.1-1,5.7-2.1
						c1.3-0.8,2.2-1.9,2.9-3c0.8-1.2,1.1-2.9,1.1-5.1c0-2.2-0.5-3.8-1.5-5c-1-1.2-2.3-2-4-2.5c-1.6-0.5-3.6-0.8-5.9-0.8
						c-2.3-0.1-4.4-0.1-6.4-0.1h-4v-13.2h4.2c2.6,0,4.9-0.1,6.9-0.3c2-0.2,3.7-0.5,5-1.2c1.4-0.6,2.5-1.4,3.3-2.5
						c0.8-1,1.1-2.6,1.1-4.6c0-1.5-0.4-2.7-1.2-3.6s-1.7-1.6-2.9-2.2c-1.3-0.6-2.8-1-4.5-1.2c-1.8-0.2-3.3-0.3-4.5-0.3
						c-3.1,0-6.5,0.5-10.1,1.6c-3.6,1.1-7.1,2.6-10.6,4.6h-1.9v-16.1c2.7-1.1,6.4-2.1,11.1-3.1c4.7-1,9.4-1.5,14.2-1.5
						c4.7,0,8.7,0.4,12.3,1.2c3.5,0.8,6.4,1.9,8.7,3.3c2.7,1.6,4.7,3.6,6.1,5.9c1.3,2.4,2,5,2,8.2c0,4.1-1.3,7.7-3.8,11
						c-2.5,3.2-5.9,5.3-10.1,6.2v0.7c1.7,0.3,3.4,0.7,5.4,1.4C456.3,598.5,458.1,599.5,459.6,600.8z M536,635.5h-17.9v-6.1
						c-3.3,2.5-6.3,4.5-9.1,5.7c-2.8,1.3-6.1,1.9-9.8,1.9c-6.1,0-10.9-1.8-14.2-5.3c-3.4-3.5-5-8.7-5-15.7v-36.3h17.9v27.7
						c0,2.8,0.1,5.1,0.3,7.1c0.2,1.9,0.6,3.4,1.3,4.6c0.6,1.3,1.6,2.1,2.9,2.7s3,0.8,5.3,0.8c1.5,0,3.2-0.3,5-0.8
						c1.9-0.6,3.6-1.4,5.4-2.5v-39.5h18V635.5z"/>
				</g>
				<g>
					<path fill="#006B8D" d="M227.7,145.3c61.5,0,111.5,50,111.5,111.5s-50,111.5-111.5,111.5s-111.5-50-111.5-111.5
						S166.2,145.3,227.7,145.3 M227.7,123.3c-73.5,0-133.4,59.7-133.4,133.5c0,73.7,59.6,133.4,133.4,133.4s133.4-59.6,133.4-133.4
						S301.4,123.3,227.7,123.3L227.7,123.3z"/>
				</g>
				<g>
					<path fill="#006B8D" d="M271.9,247.3h-67.6v-23.1c0-6.5,2.3-12,6.9-16.7c4.6-4.6,10.1-6.9,16.7-6.9c6.6,0,12,2.3,16.7,6.9
						c4.7,4.6,6.9,10.1,6.9,16.7c0,1.5,0.6,3,1.8,4.2s2.5,1.8,4.2,1.8h5.8c1.5,0,3-0.6,4.2-1.8c1.2-1.2,1.8-2.5,1.8-4.2
						c0-11.3-4-21.1-12.1-29c-8.1-8.1-17.7-12.1-29-12.1c-11.3,0-21.1,4-29,12.1c-8.1,8.1-12.1,17.7-12.1,29v23.1h-3
						c-2.5,0-4.5,0.8-6.3,2.6c-1.7,1.7-2.6,3.8-2.6,6.3v65.7c0,2.5,0.8,4.5,2.6,6.3c1.7,1.7,3.8,2.6,6.3,2.6h88.4
						c2.5,0,4.5-0.8,6.3-2.6c1.7-1.7,2.6-3.8,2.6-6.3v-65.7c0-2.5-0.8-4.5-2.6-6.3C276.4,248.2,274.4,247.3,271.9,247.3z
						 M234.8,290.4v17.3c0,3.5-2.9,6.3-6.3,6.3h-1.2c-3.5,0-6.3-2.9-6.3-6.3v-17.3c-3.7-2.3-6.2-6.4-6.2-11.1
						c0-7.3,5.8-13.1,13.1-13.1c7.3,0,13.1,5.8,13.1,13.1C240.7,284,238.4,288,234.8,290.4z"/>
				</g>
			</g>
		</g>
		<g id="Layer_2" display="none">
		</g>
	</g>
	<g id="Layer_2_1_" display="none">
	</g>
</g>
<g id="Layer_2_2_" display="none">
</g>
</svg>
