<?xml version="1.0" encoding="utf-8"?>
<!-- Generator: Adobe Illustrator 18.0.0, SVG Export Plug-In . SVG Version: 6.00 Build 0)  -->
<!DOCTYPE svg PUBLIC "-//W3C//DTD SVG 1.1//EN" "http://www.w3.org/Graphics/SVG/1.1/DTD/svg11.dtd">
<svg version="1.1" id="Layer_1" xmlns="http://www.w3.org/2000/svg" xmlns:xlink="http://www.w3.org/1999/xlink" x="0px" y="0px"
	 viewBox="0 123.3 595.3 595.3" enable-background="new 0 123.3 595.3 595.3" xml:space="preserve" width="40px" height="40px">
<g id="Layer_3_1_">
</g>
<g id="Layer_1_1_">
</g>
<g>
	<path fill="#006B8D" d="M551.5,298.7c23.9,0,43.6,0,43.6,0l-86.9-93.4v46.8C508.1,277.9,527.6,298.7,551.5,298.7z"/>
	<g>
		<g>
			<g id="Layer_2_4_">
				<g>
					<g id="Layer_2_1_">
						<g>
							<g>
								<g>
									<path fill="#006B8D" d="M227.6,145.2c61.5,0,111.5,50,111.5,111.5s-50,111.5-111.5,111.5s-111.5-50-111.5-111.5
										S166,145.2,227.6,145.2 M227.6,123.3C154,123.3,94.1,183,94.1,256.7c0,73.7,59.7,133.5,133.5,133.5s133.5-59.7,133.5-133.5
										C361,183,301.3,123.3,227.6,123.3L227.6,123.3z"/>
								</g>
								<g>
									<path fill="#006B8D" d="M271.7,247.2H204V224c0-6.6,2.3-12,6.9-16.7c4.6-4.6,10.1-6.9,16.7-6.9s12,2.3,16.7,6.9
										c4.5,4.5,6.8,10,6.9,16.5c0,0.1,0,24,0,24c0,1.5,0.6,2.9,1.8,4.2c1.2,1.2,2.5,1.8,4.2,1.8h5.8c1.5,0,2.9-0.6,4.2-1.8
										c1.2-1.2,1.8-2.5,1.8-4.2c0-0.1,0-24,0-24.1c-0.1-11.2-4-20.9-12.2-28.9c-8.1-8.1-17.7-12.2-29.1-12.2s-21.1,4-29.1,12.2
										c-8.1,8.1-12.2,17.7-12.2,29.1v23.1h-2.9c-2.5,0-4.5,0.8-6.3,2.6c-1.7,1.7-2.6,3.8-2.6,6.3v65.7c0,2.5,0.8,4.5,2.6,6.3
										c1.7,1.7,3.8,2.6,6.3,2.6h88.4c2.5,0,4.5-0.8,6.3-2.6c1.7-1.7,2.6-3.8,2.6-6.3v-65.7c0-2.5-0.8-4.5-2.6-6.3
										C276.2,248.2,274.2,247.2,271.7,247.2z M234.5,290.3v17.2c0,3.4-2.9,6.3-6.3,6.3H227c-3.4,0-6.3-2.9-6.3-6.3v-17.2
										c-3.7-2.3-6.2-6.5-6.2-11.1c0-7.2,5.8-13.1,13.1-13.1c7.2,0,13.1,5.8,13.1,13.1C240.7,283.9,238.2,288,234.5,290.3z"/>
								</g>
								<g id="Layer_2">
								</g>
							</g>
						</g>
					</g>
				</g>
			</g>
		</g>
		<path fill="#006B8D" d="M457.9,523.7h10.3c1.9,0,3.3-1.5,3.3-3.3v-10.6c0-1.8-1.4-3.3-3.3-3.3h-10.3c-1.8,0-3.3,1.5-3.3,3.3v10.6
			C454.6,522.2,456.1,523.7,457.9,523.7z"/>
		<path fill="#006B8D" d="M457.9,496.8h10.3c1.9,0,3.3-1.4,3.3-3.3v-10.6c0-1.9-1.4-3.3-3.3-3.3h-10.3c-1.8,0-3.3,1.4-3.3,3.3v10.6
			C454.6,495.4,456.1,496.8,457.9,496.8z"/>
		<path fill="#006B8D" d="M457.9,470h10.3c1.9,0,3.3-1.4,3.3-3.3v-10.6c0-1.9-1.4-3.3-3.3-3.3h-10.3c-1.8,0-3.3,1.5-3.3,3.3v10.6
			C454.6,468.5,456.1,470,457.9,470z"/>
		<path fill="#006B8D" d="M359.3,439h80.7c1.8,0,3.3-1.5,3.3-3.3v-52.3c0-1.9-1.5-3.3-3.3-3.3h-80.7c-1.9,0-3.3,1.4-3.3,3.3v52.3
			C356.1,437.5,357.5,439,359.3,439z"/>
		<path fill="#006B8D" d="M359.3,515.7h80.7c1.8,0,3.3-1.5,3.3-3.3v-48.4c0-1.8-1.5-3.3-3.3-3.3h-80.7c-1.9,0-3.3,1.4-3.3,3.3v48.4
			C356.1,514.2,357.5,515.7,359.3,515.7z"/>
		<path fill="#006B8D" d="M457.9,389.3h10.3c1.9,0,3.3-1.4,3.3-3.3v-10.6c0-1.9-1.4-3.3-3.3-3.3h-10.3c-1.8,0-3.3,1.4-3.3,3.3V386
			C454.6,387.8,456.1,389.3,457.9,389.3z"/>
		<path fill="#006B8D" d="M331.2,416.1h10.3c1.8,0,3.3-1.5,3.3-3.3v-10.6c0-1.9-1.4-3.3-3.3-3.3h-10.3c-1.8,0-3.3,1.4-3.3,3.3v10.6
			C328,414.7,329.4,416.1,331.2,416.1z"/>
		<path fill="#006B8D" d="M457.9,443.1h10.3c1.9,0,3.3-1.5,3.3-3.3v-10.6c0-1.9-1.4-3.3-3.3-3.3h-10.3c-1.8,0-3.3,1.5-3.3,3.3v10.6
			C454.6,441.6,456.1,443.1,457.9,443.1z"/>
		<path fill="#006B8D" d="M328,386c0,1.9,1.5,3.3,3.3,3.3h10.3c1.8,0,3.3-1.4,3.3-3.3v-10.6c0-1.9-1.4-3.3-3.3-3.3h-6.1
			c-2.4,2.3-4.9,4.5-7.4,6.5L328,386L328,386z"/>
		<path fill="#006B8D" d="M457.9,416.1h10.3c1.9,0,3.3-1.5,3.3-3.3v-10.6c0-1.9-1.4-3.3-3.3-3.3h-10.3c-1.8,0-3.3,1.4-3.3,3.3v10.6
			C454.6,414.7,456.1,416.1,457.9,416.1z"/>
		<path fill="#006B8D" d="M545.7,321.3c-27.1,0-60.2-34.5-60.2-63.6c0-28.9,0-52.6,0-52.6H376.8c5.6,16.2,8.7,33.6,8.7,51.6
			c0,40.5-15.2,77.4-40.3,105.3h125.1c6.1,0,10.9,5,10.9,10.9v149.9c0,6.1-5,10.9-10.9,10.9H329.1c-6.1,0-10.9-4.9-10.9-10.9V386.2
			c-25.6,17.9-56.7,28.3-90.3,28.3c-8,0-16-0.6-23.7-1.8v249c0,31.3,25.4,56.8,56.8,56.8h277.6c31.3,0,56.8-25.4,56.8-56.8V321.3
			H545.7z M280.7,635.8H262v-19.7h18.7C280.7,616.1,280.7,635.8,280.7,635.8z M353.3,596v39.9h-18.1v-28.1c0-2.7-0.1-5.1-0.2-7
			c-0.2-1.9-0.5-3.5-1.1-4.7s-1.5-2-2.7-2.6c-1.2-0.5-2.9-0.8-5.1-0.8c-1.8,0-3.5,0.3-5.1,1.1s-3.2,1.4-4.5,2.3v39.9h-18.1v-56.3
			h18.1v6.2c3.1-2.4,6.1-4.4,8.9-5.7c2.9-1.4,6-2,9.4-2c3.7,0,7,0.8,9.8,2.5c2.9,1.7,5,4.1,6.6,7.2c3.5-3,7.1-5.4,10.5-7.1
			c3.4-1.7,6.7-2.6,10-2.6c6.1,0,10.7,1.9,13.8,5.5c3.2,3.6,4.8,8.8,4.8,15.7v36.6h-18.1v-28.1c0-2.8-0.1-5.1-0.2-7
			c-0.2-1.9-0.5-3.4-1.1-4.6c-0.6-1.2-1.4-2-2.7-2.6c-1.3-0.5-2.9-0.8-5.2-0.8c-1.5,0-2.9,0.3-4.5,0.8
			C357.2,593.9,355.4,594.7,353.3,596z M467.3,618.6h-10.2V636h-18.4v-17.4h-36.1v-14.1l34.9-43.3h19.6v43.7h10.2V618.6L467.3,618.6
			z M438.7,605v-27L417,605H438.7z M536.5,579.6l-21.7,56.3h-20.4l-21.5-56.3h19l13,38.8l12.9-38.8H536.5z"/>
		<path fill="#006B8D" d="M331.2,523.7h10.3c1.8,0,3.3-1.5,3.3-3.3v-10.6c0-1.8-1.4-3.3-3.3-3.3h-10.3c-1.8,0-3.3,1.5-3.3,3.3v10.6
			C328,522.2,329.4,523.7,331.2,523.7z"/>
		<path fill="#006B8D" d="M331.2,496.8h10.3c1.8,0,3.3-1.4,3.3-3.3v-10.6c0-1.9-1.4-3.3-3.3-3.3h-10.3c-1.8,0-3.3,1.4-3.3,3.3v10.6
			C328,495.4,329.4,496.8,331.2,496.8z"/>
		<path fill="#006B8D" d="M331.2,470h10.3c1.8,0,3.3-1.4,3.3-3.3v-10.6c0-1.9-1.4-3.3-3.3-3.3h-10.3c-1.8,0-3.3,1.5-3.3,3.3v10.6
			C328,468.5,329.4,470,331.2,470z"/>
		<path fill="#006B8D" d="M331.2,443.1h10.3c1.8,0,3.3-1.5,3.3-3.3v-10.6c0-1.9-1.4-3.3-3.3-3.3h-10.3c-1.8,0-3.3,1.5-3.3,3.3v10.6
			C328,441.6,329.4,443.1,331.2,443.1z"/>
	</g>
</g>
</svg>
