<?xml version="1.0" encoding="utf-8"?>
<!-- Generator: Adobe Illustrator 18.0.0, SVG Export Plug-In . SVG Version: 6.00 Build 0)  -->
<!DOCTYPE svg PUBLIC "-//W3C//DTD SVG 1.1//EN" "http://www.w3.org/Graphics/SVG/1.1/DTD/svg11.dtd">
<svg version="1.1" id="Layer_1" xmlns="http://www.w3.org/2000/svg" xmlns:xlink="http://www.w3.org/1999/xlink" x="0px" y="0px"
	 viewBox="0 123.3 595.3 595.3" enable-background="new 0 123.3 595.3 595.3" xml:space="preserve" width="40px" height="40px">
<path fill="#006B8D" d="M227.6,145c61.5,0,111.5,50.1,111.5,111.5S289.1,368,227.6,368s-111.5-50-111.5-111.4S166.2,145,227.6,145
	 M227.6,123.2c-73.6,0-133.4,59.7-133.4,133.5c0,73.7,59.6,133.4,133.4,133.4s133.4-59.6,133.4-133.4S301.3,123.2,227.6,123.2
	L227.6,123.2z"/>
<path fill="#006B8D" d="M271.8,247.2h-67.6V224c0-6.5,2.3-12,6.9-16.7c4.6-4.6,10.1-6.9,16.7-6.9s12,2.3,16.7,6.9
	c4.5,4.5,6.8,10,6.9,16.4c0,0.1,0-0.1,0,0c0,1.5,0.6,3,1.8,4.2s2.5,1.8,4.2,1.8h5.8c1.5,0,3-0.6,4.2-1.8s1.8-2.5,1.8-4.2
	c0-0.1,0,0.1,0,0c-0.1-11.2-4-20.8-12.1-28.9c-8.1-8.1-17.8-12.1-29-12.1c-11.3,0-21.1,4-29,12.1c-8.1,8.1-12.1,17.8-12.1,29V247h-3
	c-2.5,0-4.5,0.8-6.3,2.6c-1.7,1.7-2.6,3.8-2.6,6.3v65.7c0,2.5,0.8,4.5,2.6,6.3c1.7,1.7,3.8,2.6,6.3,2.6h88.4c2.5,0,4.5-0.8,6.3-2.6
	c1.7-1.7,2.6-3.8,2.6-6.3v-65.7c0-2.5-0.8-4.5-2.6-6.3C276.4,248.1,274.3,247.2,271.8,247.2z M234.7,290.3v17.3
	c0,3.5-2.9,6.3-6.3,6.3h-1.2c-3.5,0-6.3-2.9-6.3-6.3v-17.3c-3.7-2.3-6.2-6.4-6.2-11.1c0-7.3,5.8-13.1,13.1-13.1
	c7.3,0,13.1,5.8,13.1,13.1C240.7,283.8,238.3,287.9,234.7,290.3z"/>
<path fill="#006B8D" d="M551.5,298.6c23.9,0,43.6,0,43.6,0l-86.9-93.4V252C508.1,277.8,527.6,298.6,551.5,298.6z"/>
<path fill="#006B8D" d="M457.9,523.6h10.3c1.9,0,3.3-1.5,3.3-3.3v-10.6c0-1.8-1.4-3.3-3.3-3.3h-10.3c-1.8,0-3.3,1.5-3.3,3.3v10.6
	C454.6,522.1,456.1,523.6,457.9,523.6z"/>
<path fill="#006B8D" d="M457.9,496.7h10.3c1.9,0,3.3-1.4,3.3-3.3v-10.6c0-1.9-1.4-3.3-3.3-3.3h-10.3c-1.8,0-3.3,1.4-3.3,3.3v10.6
	C454.6,495.2,456.1,496.7,457.9,496.7z"/>
<path fill="#006B8D" d="M457.9,469.8h10.3c1.9,0,3.3-1.4,3.3-3.3V456c0-1.9-1.4-3.3-3.3-3.3h-10.3c-1.8,0-3.3,1.5-3.3,3.3v10.6
	C454.6,468.3,456.1,469.8,457.9,469.8z"/>
<path fill="#006B8D" d="M359.3,438.9h80.8c1.8,0,3.3-1.5,3.3-3.3v-52.3c0-1.9-1.5-3.3-3.3-3.3h-80.8c-1.9,0-3.3,1.4-3.3,3.3v52.3
	C356,437.4,357.5,438.9,359.3,438.9z"/>
<path fill="#006B8D" d="M359.3,515.6h80.8c1.8,0,3.3-1.5,3.3-3.3V464c0-1.8-1.5-3.3-3.3-3.3h-80.8c-1.9,0-3.3,1.4-3.3,3.3v48.4
	C356,514.1,357.5,515.6,359.3,515.6z"/>
<path fill="#006B8D" d="M457.9,389.2h10.3c1.9,0,3.3-1.4,3.3-3.3v-10.6c0-1.9-1.4-3.3-3.3-3.3h-10.3c-1.8,0-3.3,1.4-3.3,3.3v10.6
	C454.6,387.6,456.1,389.2,457.9,389.2z"/>
<path fill="#006B8D" d="M331.2,416h10.3c1.8,0,3.3-1.5,3.3-3.3v-10.6c0-1.9-1.4-3.3-3.3-3.3h-10.3c-1.8,0-3.3,1.4-3.3,3.3v10.6
	C327.9,414.6,329.4,416,331.2,416z"/>
<path fill="#006B8D" d="M457.9,442.9h10.3c1.9,0,3.3-1.5,3.3-3.3V429c0-1.9-1.4-3.3-3.3-3.3h-10.3c-1.8,0-3.3,1.5-3.3,3.3v10.6
	C454.6,441.5,456.1,442.9,457.9,442.9z"/>
<path fill="#006B8D" d="M327.9,385.9c0,1.9,1.5,3.3,3.3,3.3h10.3c1.8,0,3.3-1.4,3.3-3.3v-10.6c0-1.9-1.4-3.3-3.3-3.3h-6.1
	c-2.4,2.3-4.9,4.5-7.4,6.5L327.9,385.9L327.9,385.9z"/>
<path fill="#006B8D" d="M457.9,416h10.3c1.9,0,3.3-1.5,3.3-3.3v-10.6c0-1.9-1.4-3.3-3.3-3.3h-10.3c-1.8,0-3.3,1.4-3.3,3.3v10.6
	C454.6,414.6,456.1,416,457.9,416z"/>
<path fill="#006B8D" d="M545.6,321.1c-27.1,0-60.2-34.5-60.2-63.6c0-28.9,0-52.6,0-52.6H376.8c5.6,16.2,8.7,33.7,8.7,51.7
	c0,40.5-15.2,77.4-40.3,105.3h125.1c6.1,0,10.9,5,10.9,10.9v149.9c0,6.1-5,10.9-10.9,10.9H329c-6.1,0-10.9-4.9-10.9-10.9V386.1
	c-25.6,17.9-56.7,28.4-90.3,28.4c-8,0-16-0.6-23.7-1.8v249c0,31.3,25.4,56.8,56.8,56.8h277.6c31.3,0,56.8-25.4,56.8-56.8V321.1
	H545.6z M280.6,635.7H262v-19.7h18.7V635.7z M353.3,595.9v39.9h-18.1v-28.1c0-2.7-0.1-5.1-0.2-7s-0.5-3.5-1.1-4.7
	c-0.6-1.2-1.5-2-2.7-2.6c-1.2-0.5-2.9-0.8-5.1-0.8c-1.8,0-3.5,0.3-5.1,1.1c-1.7,0.8-3.2,1.4-4.5,2.3v39.9h-18.1v-56.3h18.1v6.2
	c3.1-2.4,6.1-4.4,8.9-5.7c2.9-1.4,6-2,9.4-2c3.7,0,7,0.8,9.8,2.5c2.9,1.7,5,4.1,6.6,7.2c3.5-3,7.1-5.4,10.5-7.2
	c3.4-1.7,6.7-2.6,10-2.6c6.1,0,10.7,1.9,13.8,5.5c3.2,3.6,4.8,8.8,4.8,15.7v36.6h-18.1v-28.1c0-2.8-0.1-5.1-0.2-7s-0.5-3.4-1.1-4.6
	c-0.6-1.2-1.4-2-2.7-2.6c-1.3-0.5-2.9-0.8-5.2-0.8c-1.5,0-2.9,0.3-4.5,0.8C357.1,593.8,355.4,594.6,353.3,595.9z M467.3,618.5h-10.2
	v17.4h-18.4v-17.4h-36.1v-14.1l34.9-43.3h19.6v43.7h10.2V618.5L467.3,618.5z M438.7,604.9v-27l-21.8,27H438.7z M536.6,579.5
	l-21.7,56.3h-20.4l-21.5-56.3h19l13,38.8l12.9-38.8H536.6z"/>
<path fill="#006B8D" d="M331.2,523.6h10.3c1.8,0,3.3-1.5,3.3-3.3v-10.6c0-1.8-1.4-3.3-3.3-3.3h-10.3c-1.8,0-3.3,1.5-3.3,3.3v10.6
	C327.9,522.1,329.4,523.6,331.2,523.6z"/>
<path fill="#006B8D" d="M331.2,496.7h10.3c1.8,0,3.3-1.4,3.3-3.3v-10.6c0-1.9-1.4-3.3-3.3-3.3h-10.3c-1.8,0-3.3,1.4-3.3,3.3v10.6
	C327.9,495.2,329.4,496.7,331.2,496.7z"/>
<path fill="#006B8D" d="M331.2,469.8h10.3c1.8,0,3.3-1.4,3.3-3.3V456c0-1.9-1.4-3.3-3.3-3.3h-10.3c-1.8,0-3.3,1.5-3.3,3.3v10.6
	C327.9,468.3,329.4,469.8,331.2,469.8z"/>
<path fill="#006B8D" d="M331.2,442.9h10.3c1.8,0,3.3-1.5,3.3-3.3V429c0-1.9-1.4-3.3-3.3-3.3h-10.3c-1.8,0-3.3,1.5-3.3,3.3v10.6
	C327.9,441.5,329.4,442.9,331.2,442.9z"/>
<g id="Layer_2_8_" display="none">
</g>
</svg>
