<?xml version="1.0" encoding="utf-8"?>
<!-- Generator: Adobe Illustrator 18.0.0, SVG Export Plug-In . SVG Version: 6.00 Build 0)  -->
<!DOCTYPE svg PUBLIC "-//W3C//DTD SVG 1.1//EN" "http://www.w3.org/Graphics/SVG/1.1/DTD/svg11.dtd">
<svg version="1.1" id="Layer_1" xmlns="http://www.w3.org/2000/svg" xmlns:xlink="http://www.w3.org/1999/xlink" x="0px" y="0px"
	 viewBox="0 123.3 595.3 595.3" enable-background="new 0 123.3 595.3 595.3" xml:space="preserve" width="40px" height="40px">
<g>
	<g>
		<path fill="#006B8D" d="M551.8,298.7c24,0,43.5,0,43.5,0l-87-93.6v46.7C508.3,277.7,527.7,298.7,551.8,298.7z"/>
	</g>
	<path fill="#006B8D" d="M457.9,496.2h10.2c1.8,0,3.3-1.4,3.3-3.3v-10.6c0-1.8-1.4-3.3-3.3-3.3h-10.2c-1.8,0-3.3,1.4-3.3,3.3v10.6
		C454.6,494.7,456.1,496.2,457.9,496.2z"/>
	<path fill="#006B8D" d="M359.4,438.4h80.7c1.8,0,3.3-1.5,3.3-3.3v-52.3c0-1.8-1.4-3.3-3.3-3.3h-80.7c-1.8,0-3.3,1.4-3.3,3.3v52.3
		C356.1,436.9,357.5,438.4,359.4,438.4z"/>
	<path fill="#006B8D" d="M457.9,523.1h10.2c1.8,0,3.3-1.5,3.3-3.3v-10.6c0-1.8-1.4-3.3-3.3-3.3h-10.2c-1.8,0-3.3,1.4-3.3,3.3v10.6
		C454.6,521.6,456.1,523.1,457.9,523.1z"/>
	<path fill="#006B8D" d="M457.9,469.3h10.2c1.8,0,3.3-1.4,3.3-3.3v-10.6c0-1.8-1.4-3.3-3.3-3.3h-10.2c-1.8,0-3.3,1.4-3.3,3.3V466
		C454.6,467.9,456.1,469.3,457.9,469.3z"/>
	<path fill="#006B8D" d="M359.4,515h80.7c1.8,0,3.3-1.4,3.3-3.3v-48.4c0-1.8-1.4-3.3-3.3-3.3h-80.7c-1.8,0-3.3,1.4-3.3,3.3v48.4
		C356.1,513.6,357.5,515,359.4,515z"/>
	<path fill="#006B8D" d="M457.9,388.6h10.2c1.8,0,3.3-1.4,3.3-3.3v-10.6c0-1.8-1.4-3.3-3.3-3.3h-10.2c-1.8,0-3.3,1.4-3.3,3.3v10.6
		C454.6,387.2,456.1,388.6,457.9,388.6z"/>
	<path fill="#006B8D" d="M457.9,442.4h10.2c1.8,0,3.3-1.5,3.3-3.3v-10.6c0-1.8-1.4-3.3-3.3-3.3h-10.2c-1.8,0-3.3,1.5-3.3,3.3v10.6
		C454.6,440.9,456.1,442.4,457.9,442.4z"/>
	<path fill="#006B8D" d="M457.9,415.5h10.2c1.8,0,3.3-1.5,3.3-3.3v-10.6c0-1.8-1.4-3.3-3.3-3.3h-10.2c-1.8,0-3.3,1.4-3.3,3.3v10.6
		C454.6,414.1,456.1,415.5,457.9,415.5z"/>
	<path fill="#006B8D" d="M331.2,415.5h10.2c1.8,0,3.3-1.5,3.3-3.3v-10.6c0-1.8-1.4-3.3-3.3-3.3h-10.2c-1.8,0-3.3,1.4-3.3,3.3v10.6
		C328,414.1,329.5,415.5,331.2,415.5z"/>
	<path fill="#006B8D" d="M331.2,523.1h10.2c1.8,0,3.3-1.5,3.3-3.3v-10.6c0-1.8-1.4-3.3-3.3-3.3h-10.2c-1.8,0-3.3,1.4-3.3,3.3v10.6
		C328,521.6,329.5,523.1,331.2,523.1z"/>
	<path fill="#006B8D" d="M331.2,496.2h10.2c1.8,0,3.3-1.4,3.3-3.3v-10.6c0-1.8-1.4-3.3-3.3-3.3h-10.2c-1.8,0-3.3,1.4-3.3,3.3v10.6
		C328,494.7,329.5,496.2,331.2,496.2z"/>
	<path fill="#006B8D" d="M545.9,321.2c-27.1,0-60.3-34.6-60.3-63.5s0-52.6,0-52.6H260.9c-31.3,0.2-56.7,25.6-56.7,56.9v150.9v249
		c0,31.3,25.4,56.7,56.7,56.7h277.6c31.3,0,56.7-25.4,56.7-56.7V321.2H545.9z M318.1,372.4c0-6,4.9-10.9,11-10.9h141.3
		c6,0,11,4.9,11,10.9v149.9c0,6-4.9,10.9-11,10.9H329.1c-6,0-11-4.9-11-10.9V372.4L318.1,372.4z M284.9,635.4h-18.6v-19.6h18.6
		C284.9,615.8,284.9,635.4,284.9,635.4z M357.1,595.8v39.6h-18v-27.9c0-2.7-0.1-5.1-0.2-7c-0.1-1.9-0.5-3.5-1.1-4.7
		c-0.6-1.2-1.5-2-2.7-2.6c-1.2-0.5-2.9-0.9-5.1-0.9c-1.8,0-3.5,0.3-5.1,1.1c-1.6,0.7-3.2,1.4-4.5,2.2v39.6h-18v-55.9h18v6.2
		c3.1-2.4,6-4.3,8.9-5.7c2.8-1.4,5.9-2,9.3-2c3.7,0,6.9,0.9,9.7,2.5c2.8,1.6,5,4.1,6.6,7.2c3.5-3,7-5.4,10.4-7.1
		c3.4-1.7,6.7-2.6,9.9-2.6c6,0,10.6,1.8,13.7,5.5c3.2,3.6,4.7,8.8,4.7,15.6v36.4h-18v-27.9c0-2.8-0.1-5.1-0.2-7
		c-0.1-1.9-0.5-3.4-1.1-4.6c-0.6-1.2-1.4-2-2.7-2.6c-1.2-0.5-3-0.9-5.2-0.9c-1.5,0-3,0.3-4.4,0.8
		C360.9,593.7,359.2,594.5,357.1,595.8z M470.4,618.3h-10.1v17.3H442v-17.3h-35.9v-14.1l34.7-43h19.4v43.5h10.1L470.4,618.3
		L470.4,618.3z M442,604.8V578l-21.6,26.8H442z M539.2,579.5l-21.5,55.9h-20.3l-21.4-55.9h18.9l12.9,38.5l12.8-38.5H539.2z"/>
	<path fill="#006B8D" d="M331.2,469.3h10.2c1.8,0,3.3-1.4,3.3-3.3v-10.6c0-1.8-1.4-3.3-3.3-3.3h-10.2c-1.8,0-3.3,1.4-3.3,3.3V466
		C328,467.9,329.5,469.3,331.2,469.3z"/>
	<path fill="#006B8D" d="M331.2,388.6h10.2c1.8,0,3.3-1.4,3.3-3.3v-10.6c0-1.8-1.4-3.3-3.3-3.3h-10.2c-1.8,0-3.3,1.4-3.3,3.3v10.6
		C328,387.2,329.5,388.6,331.2,388.6z"/>
	<path fill="#006B8D" d="M331.2,442.4h10.2c1.8,0,3.3-1.5,3.3-3.3v-10.6c0-1.8-1.4-3.3-3.3-3.3h-10.2c-1.8,0-3.3,1.5-3.3,3.3v10.6
		C328,440.9,329.5,442.4,331.2,442.4z"/>
	<g id="Layer_2">
	</g>
</g>
</svg>
