<?xml version="1.0" encoding="utf-8"?>
<!-- Generator: Adobe Illustrator 18.0.0, SVG Export Plug-In . SVG Version: 6.00 Build 0)  -->
<!DOCTYPE svg PUBLIC "-//W3C//DTD SVG 1.1//EN" "http://www.w3.org/Graphics/SVG/1.1/DTD/svg11.dtd">
<svg version="1.1" id="Layer_1" xmlns="http://www.w3.org/2000/svg" xmlns:xlink="http://www.w3.org/1999/xlink" x="0px" y="0px"
	 viewBox="0 123.3 595.3 595.3" enable-background="new 0 123.3 595.3 595.3" xml:space="preserve" width="40px" height="40px">
<g id="Layer_1_3_">
	<g id="Layer_1_2_">
		<g id="Layer_1_1_">
		</g>
	</g>
</g>
<g id="Layer_2_6_">
	<g>
		<g id="Layer_2_1_">
			<g>
				<g id="Layer_2_4_">
					<g>
						<g id="Layer_1_5_">
							<g id="Layer_1_4_">
							</g>
							<g id="Layer_2">
								<g>
									<g>
										<g>
											<path fill="#006B8D" d="M227.7,145.3c61.5,0,111.5,50,111.5,111.5s-50,111.5-111.5,111.5s-111.5-50-111.5-111.5
												S166.2,145.3,227.7,145.3 M227.7,123.3c-73.5,0-133.4,59.7-133.4,133.5c0,73.7,59.6,133.4,133.4,133.4
												s133.4-59.6,133.4-133.4S301.4,123.3,227.7,123.3L227.7,123.3z"/>
										</g>
										<g>
											<path fill="#006B8D" d="M271.9,247.3h-67.6v-23.1c0-6.5,2.3-12,6.9-16.7c4.6-4.6,10.1-6.9,16.7-6.9
												c6.6,0,12,2.3,16.7,6.9c4.5,4.5,6.8,10,6.9,16.4c0,0.1,0,23.9,0,23.9c0,1.5,0.6,3,1.8,4.2c1.2,1.2,2.5,1.8,4.2,1.8h5.8
												c1.5,0,3-0.6,4.2-1.8c1.2-1.2,1.8-2.5,1.8-4.2c0-0.1,0-23.9,0-24.1c-0.1-11.2-4-20.8-12.1-28.9
												c-8.1-8.1-17.7-12.1-29-12.1s-21.1,4-29,12.1c-8.1,8.1-12.1,17.7-12.1,29V247h-3c-2.5,0-4.5,0.8-6.3,2.6
												c-1.7,1.7-2.6,3.8-2.6,6.3v65.7c0,2.5,0.8,4.5,2.6,6.3c1.7,1.7,3.8,2.6,6.3,2.6h88.4c2.5,0,4.5-0.8,6.3-2.6
												c1.7-1.7,2.6-3.8,2.6-6.3v-65.7c0-2.5-0.8-4.5-2.6-6.3C276.4,248.2,274.4,247.3,271.9,247.3z M234.8,290.4v17.3
												c0,3.5-2.9,6.3-6.3,6.3h-1.2c-3.5,0-6.3-2.9-6.3-6.3v-17.3c-3.7-2.3-6.2-6.4-6.2-11.1c0-7.3,5.8-13.1,13.1-13.1
												c7.3,0,13.1,5.8,13.1,13.1C240.7,284,238.4,288,234.8,290.4z"/>
										</g>
									</g>
								</g>
							</g>
						</g>
						<g id="Layer_2_5_" display="none">
						</g>
					</g>
				</g>
			</g>
		</g>
		<g id="Layer_1_6_">
			<g id="Layer_1_9_">
				<g id="Layer_1_10_">
					<g id="Layer_1_11_">
						<g>
							<g>
								<path fill="#006B8D" d="M551.5,298.8c23.9,0,43.6,0,43.6,0l-86.9-93.4v46.8C508.1,277.9,527.6,298.8,551.5,298.8z"/>
								<path fill="#006B8D" d="M485.3,257.7c0-28.9,0-52.6,0-52.6H376.8c5.6,16.2,8.7,33.6,8.7,51.6c0,87.1-70.7,157.8-157.8,157.8
									c-8,0-16-0.6-23.7-1.8v249c0,31.3,25.4,56.8,56.8,56.8h277.7c31.3,0,56.8-25.4,56.8-56.8V321.3h-49.5
									C518.5,321.3,485.3,286.8,485.3,257.7z M487.5,370.2v108.8c0,0.7-0.1,1.4-0.2,2c-0.2,15.4-13.5,29.6-32.3,33.7
									c-21.2,4.5-41.3-6-45-23.6c-3.7-17.5,10.5-35.2,31.7-39.9c7.7-1.7,15.4-1.3,22,0.7v-67.4l-75.3,15.8v99.2
									c0,0.7-0.1,1.4-0.2,2c-0.2,15.4-13.5,29.6-32.3,33.7c-21.2,4.5-41.3-6-45-23.6c-3.7-17.4,10.5-35.2,31.7-39.9
									c7.7-1.7,15.4-1.3,22,0.7v-82.1c0-5.6,3.9-10.5,9.4-11.7l99.3-21l0,0c0.4-0.1,0.7-0.1,1.2-0.1c0.5,0,0.8-0.1,1.2-0.1l0,0
									c0.1,0,0.4,0,0.5,0.1c0.6,0,1.2,0,1.8,0.1c0.4,0.1,0.7,0.2,1.1,0.4c0.4,0.3,0.7,0.2,1.1,0.4c0.4,0.1,0.8,0.4,1.2,0.6
									c0.2,0.1,0.6,0.2,0.8,0.5c0.4,0.2,0.6,0.5,1,0.7c0.2,0.2,0.6,0.5,0.8,0.7c0.2,0.2,0.5,0.6,0.7,0.8c0.2,0.2,0.5,0.6,0.7,0.8
									c0.2,0.4,0.5,0.8,0.7,1.2c0.1,0.2,0.4,0.6,0.5,0.8c0.2,0.6,0.5,1.2,0.6,1.9c0,0.1,0.1,0.2,0.1,0.4l0,0
									c0.1,0.4,0.1,0.8,0.1,1.3C487.5,369.4,487.5,369.8,487.5,370.2L487.5,370.2z M302.2,635.6h-18.6V616h18.6V635.6z M374.2,596
									v39.5h-17.9v-27.8c0-2.7-0.1-5-0.2-6.9c-0.2-1.9-0.5-3.4-1.1-4.6c-0.6-1.2-1.5-2-2.7-2.6c-1.2-0.5-2.9-0.8-5.1-0.8
									c-1.8,0-3.4,0.3-5.1,1c-1.7,0.8-3.1,1.4-4.5,2.3v39.5h-17.9v-55.8h18v6.1c3.1-2.4,6.1-4.4,8.8-5.6c2.9-1.3,5.9-2,9.3-2
									c3.7,0,6.9,0.8,9.8,2.4c2.9,1.7,5,4,6.6,7.2c3.5-3,7.1-5.4,10.4-7.1c3.4-1.7,6.7-2.5,9.9-2.5c6.1,0,10.6,1.8,13.7,5.4
									c3.1,3.6,4.6,8.8,4.6,15.6v36.2H393v-27.8c0-2.8-0.1-5-0.2-7c-0.2-1.9-0.4-3.4-1-4.6c-0.6-1.2-1.4-2-2.7-2.6
									c-1.3-0.5-2.9-0.8-5.2-0.8c-1.5,0-2.9,0.3-4.4,0.8C378,594,376.3,594.9,374.2,596z M445.8,571.9h-18.9v-13.5h18.9V571.9z
									 M445.3,635.6h-17.9v-55.8h17.9V635.6z M516.4,635.6h-17.9v-5.8c-3.1,2.5-6,4.4-8.6,5.6c-2.7,1.2-5.8,1.8-9.3,1.8
									c-6.7,0-12.2-2.6-16.3-7.8c-4.1-5.2-6.1-12.3-6.1-21.1c0-4.7,0.7-8.9,2-12.6c1.3-3.7,3.2-6.7,5.6-9.4c2.3-2.5,5-4.4,8.2-5.8
									c3.2-1.3,6.5-2,9.7-2c3.4,0,6.1,0.3,8.2,1c2.1,0.8,4.4,1.7,6.6,2.7v-23.7h17.9L516.4,635.6L516.4,635.6z M498.4,620.2v-27.4
									c-1.3-0.5-2.5-0.9-4-1.1c-1.3-0.3-2.6-0.3-3.8-0.3c-4.6,0-8.2,1.4-10.6,4.4c-2.4,2.9-3.5,7.1-3.5,12.2
									c0,5.5,0.9,9.4,2.9,11.9c1.9,2.4,5,3.7,9.1,3.7c1.7,0,3.4-0.3,5.1-0.9C495.4,621.9,497,621.2,498.4,620.2z"/>
							</g>
						</g>
					</g>
					<g id="Layer_2_10_" display="none">
					</g>
				</g>
				<g id="Layer_2_9_" display="none">
				</g>
			</g>
			<g id="Layer_2_8_" display="none">
			</g>
		</g>
		<g id="Layer_2_7_" display="none">
		</g>
	</g>
</g>
</svg>
