<?xml version="1.0" encoding="utf-8"?>
<!-- Generator: Adobe Illustrator 18.0.0, SVG Export Plug-In . SVG Version: 6.00 Build 0)  -->
<!DOCTYPE svg PUBLIC "-//W3C//DTD SVG 1.1//EN" "http://www.w3.org/Graphics/SVG/1.1/DTD/svg11.dtd">
<svg version="1.1" id="Layer_1" xmlns="http://www.w3.org/2000/svg" xmlns:xlink="http://www.w3.org/1999/xlink" x="0px" y="0px"
	 viewBox="0 123.3 595.3 595.3" enable-background="new 0 123.3 595.3 595.3" xml:space="preserve" width="40px" height="40px">
<g id="Layer_1_1_">
	<g>
		<path fill="#006B8D" d="M508.5,251.9c0,25.8,19.4,46.7,43.5,46.7c23.9,0,43.5,0,43.5,0l-86.9-93.4L508.5,251.9L508.5,251.9z"/>
		<path fill="#006B8D" d="M204.3,261.9v400c0,31.3,25.4,56.7,56.7,56.7h277.6c31.3,0,56.7-25.4,56.7-56.7V321.1h-49.2
			c-27.1,0-60.3-34.5-60.3-63.5c0-29,0-52.5,0-52.5H261.1C229.7,205.2,204.3,230.5,204.3,261.9z M342.9,472.3
			c7.7-1.7,15.4-1.3,22,0.7v-82.1c0-5.6,3.9-10.5,9.4-11.7l99.3-21l0,0c0.4-0.1,0.7-0.1,1.2-0.1c0.5,0,0.8-0.1,1.2-0.1l0,0
			c0.1,0,0.4,0,0.5,0.1c0.6,0,1.2,0,1.8,0.1c0.4,0.1,0.7,0.2,1.1,0.4c0.4,0.1,0.7,0.2,1.1,0.4c0.4,0.1,0.8,0.4,1.2,0.6
			c0.2,0.1,0.6,0.2,0.8,0.5c0.4,0.2,0.6,0.5,1,0.7c0.2,0.2,0.6,0.5,0.8,0.7c0.2,0.2,0.5,0.6,0.7,0.8s0.5,0.6,0.7,0.8
			c0.2,0.4,0.5,0.8,0.7,1.2c0.1,0.2,0.4,0.6,0.5,0.8c0.2,0.6,0.5,1.2,0.6,1.9c0,0.1,0.1,0.2,0.1,0.4l0,0c0.1,0.4,0.1,0.8,0.1,1.3
			c0,0.4,0.1,0.7,0.1,1.2l0,0v108.8c0,0.7-0.1,1.4-0.2,2c-0.2,15.4-13.5,29.6-32.3,33.7c-21.2,4.5-41.3-6-45-23.5
			c-3.7-17.5,10.5-35.2,31.7-39.8c7.7-1.7,15.4-1.3,22,0.7v-67.3l-75.2,16v99.2c0,0.7-0.1,1.4-0.2,2c-0.2,15.4-13.5,29.6-32.3,33.7
			c-21.2,4.5-41.3-6-45-23.5C307.4,494.6,321.7,476.8,342.9,472.3z M302.3,635.5h-18.6V616h18.6V635.5z M374.3,596v39.6h-17.9v-27.9
			c0-2.7-0.1-5-0.2-6.9c-0.1-1.9-0.5-3.5-1.1-4.7c-0.6-1.2-1.5-2-2.7-2.6c-1.2-0.5-2.9-0.8-5.1-0.8c-1.8,0-3.5,0.3-5.1,1.1
			c-1.6,0.7-3.2,1.4-4.5,2.2v39.6h-17.9v-55.8h18v6.2c3.1-2.4,6-4.3,8.8-5.7c2.8-1.4,5.9-2,9.3-2c3.7,0,6.9,0.8,9.7,2.4
			c2.8,1.6,5,4.1,6.6,7.2c3.5-3,7-5.4,10.4-7.1c3.4-1.7,6.7-2.6,9.9-2.6c6,0,10.6,1.8,13.7,5.4s4.7,8.8,4.7,15.6v36.3h-17.9v-27.9
			c0-2.8-0.1-5.1-0.2-7c-0.1-1.9-0.5-3.4-1.1-4.6c-0.6-1.2-1.4-2-2.7-2.6c-1.2-0.5-3-0.8-5.2-0.8c-1.5,0-3,0.3-4.4,0.8
			C378.1,593.9,376.4,594.8,374.3,596z M445.9,571.8H427v-13.5h18.9V571.8z M445.4,635.5h-17.9v-55.8h17.9V635.5z M516.5,635.5
			h-17.9v-5.8c-3.1,2.5-6,4.4-8.6,5.6c-2.7,1.2-5.8,1.8-9.3,1.8c-6.8,0-12.2-2.6-16.3-7.8c-4.1-5.2-6.1-12.3-6.1-21.2
			c0-4.7,0.7-8.9,2-12.6c1.4-3.7,3.2-6.8,5.7-9.4c2.2-2.5,5-4.4,8.2-5.8c3.2-1.4,6.4-2,9.7-2c3.4,0,6.1,0.3,8.2,1.1
			c2.1,0.7,4.3,1.6,6.6,2.7v-23.7h17.9L516.5,635.5L516.5,635.5z M498.5,620.1v-27.4c-1.2-0.5-2.6-0.9-3.9-1.1
			c-1.4-0.3-2.6-0.3-3.8-0.3c-4.7,0-8.2,1.4-10.6,4.4s-3.5,7-3.5,12.2c0,5.5,0.9,9.5,2.8,11.9c1.9,2.4,4.9,3.7,9.1,3.7
			c1.6,0,3.4-0.3,5.1-0.9C495.6,621.9,497.2,621.1,498.5,620.1z"/>
	</g>
</g>
<g id="Layer_2">
</g>
</svg>
