<?xml version="1.0" encoding="utf-8"?>
<!-- Generator: Adobe Illustrator 18.0.0, SVG Export Plug-In . SVG Version: 6.00 Build 0)  -->
<!DOCTYPE svg PUBLIC "-//W3C//DTD SVG 1.1//EN" "http://www.w3.org/Graphics/SVG/1.1/DTD/svg11.dtd">
<svg version="1.1" id="Layer_1" xmlns="http://www.w3.org/2000/svg" xmlns:xlink="http://www.w3.org/1999/xlink" x="0px" y="0px"
	 viewBox="0 123.3 595.3 595.3" enable-background="new 0 123.3 595.3 595.3" xml:space="preserve" width="40px" height="40px">
<g>
	<path fill="#006B8D" d="M227.6,145.3c61.5,0,111.6,50.1,111.6,111.6s-50.1,111.6-111.6,111.6S116,318.2,116,256.8
		S166,145.3,227.6,145.3 M227.6,123.3C154,123.3,94.1,183,94.1,256.8c0,73.7,59.7,133.5,133.5,133.5s133.5-59.7,133.5-133.5
		C361,183,301.3,123.3,227.6,123.3L227.6,123.3z"/>
	<path fill="#006B8D" d="M271.6,247.2h-67.7v-23.1c0-6.6,2.3-12,6.9-16.7c4.6-4.6,10.1-6.9,16.7-6.9s12,2.3,16.7,6.9
		c4.5,4.5,6.8,10,6.9,16.5c0,0.1,0,24,0,24c0,1.5,0.6,2.9,1.8,4.2c1.2,1.2,2.5,1.8,4.2,1.8h5.8c1.5,0,2.9-0.6,4.2-1.8
		c1.2-1.2,1.8-2.5,1.8-4.2c0-0.1,0-24,0-24.1c-0.1-11.2-4-20.9-12.2-28.9c-8.1-8.1-17.8-12.2-29.1-12.2s-21.1,4-29.1,12.2
		c-8.1,8.1-12.2,17.8-12.2,29.1v23.1h-2.9c-2.5,0-4.5,0.8-6.3,2.6c-1.7,1.7-2.6,3.8-2.6,6.3v65.6c0,2.5,0.8,4.5,2.6,6.3
		c1.7,1.7,3.8,2.6,6.3,2.6h88.4c2.5,0,4.5-0.8,6.3-2.6c1.7-1.7,2.6-3.8,2.6-6.3v-65.6c0-2.5-0.8-4.5-2.6-6.3
		C276.2,248.2,274.2,247.2,271.6,247.2z M234.5,290.4v17.2c0,3.4-2.9,6.3-6.3,6.3H227c-3.4,0-6.3-2.9-6.3-6.3v-17.2
		c-3.7-2.3-6.2-6.5-6.2-11.1c0-7.2,5.8-13.1,13.1-13.1c7.2,0,13.1,5.8,13.1,13.1C240.6,284,238.2,288,234.5,290.4z"/>
	<path fill="#006B8D" d="M551.5,298.7c23.9,0,43.6,0,43.6,0l-86.9-93.4v46.8C508.1,278,527.6,298.7,551.5,298.7z"/>
	<path fill="#006B8D" d="M457.9,523.7h10.3c1.9,0,3.3-1.5,3.3-3.3v-10.6c0-1.8-1.4-3.3-3.3-3.3h-10.3c-1.8,0-3.3,1.5-3.3,3.3v10.6
		C454.6,522.2,456.1,523.7,457.9,523.7z"/>
	<path fill="#006B8D" d="M457.9,496.8h10.3c1.9,0,3.3-1.4,3.3-3.3v-10.6c0-1.9-1.4-3.3-3.3-3.3h-10.3c-1.8,0-3.3,1.4-3.3,3.3v10.6
		C454.6,495.4,456.1,496.8,457.9,496.8z"/>
	<path fill="#006B8D" d="M457.9,470h10.3c1.9,0,3.3-1.4,3.3-3.3v-10.6c0-1.9-1.4-3.3-3.3-3.3h-10.3c-1.8,0-3.3,1.5-3.3,3.3v10.6
		C454.6,468.5,456.1,470,457.9,470z"/>
	<path fill="#006B8D" d="M359.3,439h80.8c1.8,0,3.3-1.5,3.3-3.3v-52.3c0-1.9-1.5-3.3-3.3-3.3h-80.8c-1.9,0-3.3,1.4-3.3,3.3v52.3
		C356,437.5,357.5,439,359.3,439z"/>
	<path fill="#006B8D" d="M359.3,515.8h80.8c1.8,0,3.3-1.5,3.3-3.3v-48.4c0-1.8-1.5-3.3-3.3-3.3h-80.8c-1.9,0-3.3,1.4-3.3,3.3v48.4
		C356,514.2,357.5,515.8,359.3,515.8z"/>
	<path fill="#006B8D" d="M457.9,389.3h10.3c1.9,0,3.3-1.4,3.3-3.3v-10.6c0-1.9-1.4-3.3-3.3-3.3h-10.3c-1.8,0-3.3,1.4-3.3,3.3V386
		C454.6,387.8,456.1,389.3,457.9,389.3z"/>
	<path fill="#006B8D" d="M331.2,416.1h10.3c1.8,0,3.3-1.5,3.3-3.3v-10.6c0-1.9-1.4-3.3-3.3-3.3h-10.3c-1.8,0-3.3,1.4-3.3,3.3v10.6
		C327.9,414.7,329.4,416.1,331.2,416.1z"/>
	<path fill="#006B8D" d="M457.9,443.1h10.3c1.9,0,3.3-1.5,3.3-3.3v-10.6c0-1.9-1.4-3.3-3.3-3.3h-10.3c-1.8,0-3.3,1.5-3.3,3.3v10.6
		C454.6,441.6,456.1,443.1,457.9,443.1z"/>
	<path fill="#006B8D" d="M327.9,386c0,1.9,1.5,3.3,3.3,3.3h10.3c1.8,0,3.3-1.4,3.3-3.3v-10.6c0-1.9-1.4-3.3-3.3-3.3h-6.1
		c-2.4,2.3-4.9,4.5-7.4,6.5V386L327.9,386z"/>
	<path fill="#006B8D" d="M457.9,416.1h10.3c1.9,0,3.3-1.5,3.3-3.3v-10.6c0-1.9-1.4-3.3-3.3-3.3h-10.3c-1.8,0-3.3,1.4-3.3,3.3v10.6
		C454.6,414.7,456.1,416.1,457.9,416.1z"/>
	<g>
		<path fill="#006B8D" d="M446.8,594c-1-1.3-2.4-2.3-3.8-2.9c-1.5-0.6-3.1-0.8-4.9-0.8c-1.7,0-3.3,0.3-4.6,0.8
			c-1.3,0.4-2.6,1.3-3.9,2.8c-1.1,1.3-1.9,3.1-2.6,5.3c-0.7,2.3-1,5.1-1,8.6c0,3.1,0.3,5.7,0.8,7.9c0.6,2.3,1.3,4,2.5,5.4
			c1,1.3,2.3,2.3,3.8,2.9c1.4,0.6,3.1,0.9,5,0.9c1.7,0,3.1-0.3,4.6-0.8c1.7-0.7,2.9-1.6,4-2.9c1.2-1.4,2-3.1,2.6-5.1
			c0.6-2,0.8-4.8,0.8-8.3c0-3.3-0.3-6.1-0.9-8.2C448.7,597,447.9,595.3,446.8,594z"/>
		<path fill="#006B8D" d="M545.6,321.3c-27.1,0-60.2-34.5-60.2-63.6c0-28.9,0-52.6,0-52.6H376.8c5.6,16.2,8.7,33.7,8.7,51.7
			c0,40.5-15.2,77.4-40.3,105.3h125.1c6.1,0,10.9,5,10.9,10.9v149.9c0,6.1-5,10.9-10.9,10.9H329c-6.1,0-10.9-4.9-10.9-10.9V386.2
			c-25.6,17.9-56.7,28.4-90.3,28.4c-8,0-16-0.6-23.7-1.8v249c0,31.3,25.4,56.8,56.8,56.8h277.6c31.3,0,56.8-25.4,56.8-56.8V321.3
			H545.6z M286.2,635.4h-18.6v-19.6h18.7L286.2,635.4z M395.1,635.6h-18v-27.9c0-2.8-0.1-5-0.2-7c-0.2-1.9-0.4-3.4-1-4.6
			c-0.6-1.2-1.4-2-2.7-2.6c-1.3-0.5-2.9-0.8-5.2-0.8c-1.5,0-2.9,0.3-4.4,0.8c-1.3,0.3-3.1,1.2-5.2,2.4v39.6h-18v-27.9
			c0-2.7-0.1-5-0.2-7c-0.2-1.9-0.5-3.4-1.1-4.6s-1.5-2-2.7-2.6c-1.2-0.5-2.9-0.8-5.1-0.8c-1.8,0-3.4,0.3-5.1,1
			c-1.7,0.8-3.1,1.4-4.5,2.3v39.6h-18v-55.9h18v6.1c3.1-2.4,6.1-4.4,8.8-5.6c2.8-1.3,5.9-2,9.3-2c3.7,0,6.9,0.8,9.8,2.5
			c2.9,1.7,5,4,6.6,7.2c3.5-3,7.1-5.4,10.4-7.1c3.4-1.7,6.7-2.5,9.9-2.5c6.1,0,10.6,1.9,13.7,5.5c3.1,3.6,4.7,8.8,4.7,15.6V635.6z
			 M460.8,629.1c-5.4,5.3-12.9,7.9-22.6,7.9c-9.8,0-17.2-2.6-22.6-7.9c-5.4-5.3-8-12.5-8-21.7c0-9.3,2.7-16.6,8.1-21.8
			c5.4-5.2,12.9-7.9,22.5-7.9c9.8,0,17.2,2.6,22.6,7.9c5.4,5.4,8,12.6,8,21.8S466.1,623.8,460.8,629.1z M538,579.4l-21.5,55.9h-20.3
			l-21.5-55.9h18.9l13,38.5l12.8-38.5L538,579.4L538,579.4z"/>
	</g>
	<path fill="#006B8D" d="M331.2,523.7h10.3c1.8,0,3.3-1.5,3.3-3.3v-10.6c0-1.8-1.4-3.3-3.3-3.3h-10.3c-1.8,0-3.3,1.5-3.3,3.3v10.6
		C327.9,522.2,329.4,523.7,331.2,523.7z"/>
	<path fill="#006B8D" d="M331.2,496.8h10.3c1.8,0,3.3-1.4,3.3-3.3v-10.6c0-1.9-1.4-3.3-3.3-3.3h-10.3c-1.8,0-3.3,1.4-3.3,3.3v10.6
		C327.9,495.4,329.4,496.8,331.2,496.8z"/>
	<path fill="#006B8D" d="M331.2,470h10.3c1.8,0,3.3-1.4,3.3-3.3v-10.6c0-1.9-1.4-3.3-3.3-3.3h-10.3c-1.8,0-3.3,1.5-3.3,3.3v10.6
		C327.9,468.5,329.4,470,331.2,470z"/>
	<path fill="#006B8D" d="M331.2,443.1h10.3c1.8,0,3.3-1.5,3.3-3.3v-10.6c0-1.9-1.4-3.3-3.3-3.3h-10.3c-1.8,0-3.3,1.5-3.3,3.3v10.6
		C327.9,441.6,329.4,443.1,331.2,443.1z"/>
</g>
</svg>
