<?xml version="1.0" encoding="utf-8"?>
<!-- Generator: Adobe Illustrator 18.0.0, SVG Export Plug-In . SVG Version: 6.00 Build 0)  -->
<!DOCTYPE svg PUBLIC "-//W3C//DTD SVG 1.1//EN" "http://www.w3.org/Graphics/SVG/1.1/DTD/svg11.dtd">
<svg version="1.1" id="Layer_1" xmlns="http://www.w3.org/2000/svg" xmlns:xlink="http://www.w3.org/1999/xlink" x="0px" y="0px"
	 viewBox="0 123.3 595.3 595.3" enable-background="new 0 123.3 595.3 595.3" xml:space="preserve" width="40px" height="40px">
<g>
	<path fill="#006B8D" d="M551.9,298.7c24,0,43.5,0,43.5,0l-87-93.6v46.7C508.4,277.7,527.9,298.7,551.9,298.7z"/>
	<path fill="#006B8D" d="M458,496.2h10.2c1.8,0,3.3-1.4,3.3-3.3v-10.6c0-1.8-1.4-3.3-3.3-3.3H458c-1.8,0-3.3,1.4-3.3,3.3v10.6
		C454.8,494.7,456.3,496.2,458,496.2z"/>
	<path fill="#006B8D" d="M359.5,438.4h80.7c1.8,0,3.3-1.5,3.3-3.3v-52.3c0-1.8-1.4-3.3-3.3-3.3h-80.7c-1.8,0-3.3,1.4-3.3,3.3v52.3
		C356.2,436.9,357.7,438.4,359.5,438.4z"/>
	<path fill="#006B8D" d="M458,523.1h10.2c1.8,0,3.3-1.5,3.3-3.3v-10.6c0-1.8-1.4-3.3-3.3-3.3H458c-1.8,0-3.3,1.4-3.3,3.3v10.6
		C454.8,521.6,456.3,523.1,458,523.1z"/>
	<path fill="#006B8D" d="M458,469.3h10.2c1.8,0,3.3-1.4,3.3-3.3v-10.6c0-1.8-1.4-3.3-3.3-3.3H458c-1.8,0-3.3,1.4-3.3,3.3V466
		C454.8,467.9,456.3,469.3,458,469.3z"/>
	<path fill="#006B8D" d="M359.5,515h80.7c1.8,0,3.3-1.4,3.3-3.3v-48.4c0-1.8-1.4-3.3-3.3-3.3h-80.7c-1.8,0-3.3,1.4-3.3,3.3v48.4
		C356.2,513.6,357.7,515,359.5,515z"/>
	<path fill="#006B8D" d="M458,388.6h10.2c1.8,0,3.3-1.4,3.3-3.3v-10.6c0-1.8-1.4-3.3-3.3-3.3H458c-1.8,0-3.3,1.4-3.3,3.3v10.6
		C454.8,387.2,456.3,388.6,458,388.6z"/>
	<path fill="#006B8D" d="M458,442.4h10.2c1.8,0,3.3-1.5,3.3-3.3v-10.6c0-1.8-1.4-3.3-3.3-3.3H458c-1.8,0-3.3,1.5-3.3,3.3v10.6
		C454.8,440.9,456.3,442.4,458,442.4z"/>
	<path fill="#006B8D" d="M458,415.5h10.2c1.8,0,3.3-1.5,3.3-3.3v-10.6c0-1.8-1.4-3.3-3.3-3.3H458c-1.8,0-3.3,1.4-3.3,3.3v10.6
		C454.8,414.1,456.3,415.5,458,415.5z"/>
	<path fill="#006B8D" d="M331.4,415.5h10.2c1.8,0,3.3-1.5,3.3-3.3v-10.6c0-1.8-1.4-3.3-3.3-3.3h-10.2c-1.8,0-3.3,1.4-3.3,3.3v10.6
		C328.1,414.1,329.6,415.5,331.4,415.5z"/>
	<path fill="#006B8D" d="M331.4,523.1h10.2c1.8,0,3.3-1.5,3.3-3.3v-10.6c0-1.8-1.4-3.3-3.3-3.3h-10.2c-1.8,0-3.3,1.4-3.3,3.3v10.6
		C328.1,521.6,329.6,523.1,331.4,523.1z"/>
	<path fill="#006B8D" d="M331.4,496.2h10.2c1.8,0,3.3-1.4,3.3-3.3v-10.6c0-1.8-1.4-3.3-3.3-3.3h-10.2c-1.8,0-3.3,1.4-3.3,3.3v10.6
		C328.1,494.7,329.6,496.2,331.4,496.2z"/>
	<path fill="#006B8D" d="M546,321.2c-27.1,0-60.3-34.6-60.3-63.5s0-52.6,0-52.6H261c-31.3,0.2-56.7,25.6-56.7,56.9v150.9v249
		c0,31.3,25.4,56.7,56.7,56.7h277.6c31.3,0,56.7-25.4,56.7-56.7V321.2H546z M318.2,372.4c0-6,4.9-10.9,11-10.9h141.3
		c6,0,11,4.9,11,10.9v149.9c0,6-4.9,10.9-11,10.9H329.2c-6,0-11-4.9-11-10.9V372.4L318.2,372.4z M286.6,635.3H268v-19.6h18.7
		L286.6,635.3L286.6,635.3z M358.8,595.7v39.6h-18v-27.9c0-2.7-0.1-5.1-0.2-7c-0.1-1.9-0.5-3.5-1.1-4.7c-0.6-1.2-1.5-2-2.7-2.6
		c-1.2-0.5-2.9-0.9-5.1-0.9c-1.8,0-3.5,0.3-5.1,1.1c-1.6,0.7-3.2,1.4-4.5,2.2v39.6h-18v-55.9h18v6.2c3.1-2.4,6-4.3,8.9-5.7
		c2.8-1.3,5.9-2,9.3-2c3.7,0,6.9,0.9,9.7,2.5c2.8,1.6,5,4.1,6.6,7.2c3.5-3,7-5.4,10.4-7.1c3.4-1.7,6.7-2.6,9.9-2.6
		c6,0,10.6,1.8,13.7,5.5c3.2,3.6,4.7,8.8,4.7,15.6v36.4h-18v-27.9c0-2.8-0.1-5.1-0.2-7c-0.1-1.9-0.5-3.4-1.1-4.6s-1.4-2-2.7-2.6
		c-1.2-0.5-3-0.9-5.2-0.9c-1.5,0-3,0.3-4.4,0.8C362.6,593.6,360.9,594.5,358.8,595.7z M469.2,607.4c0,9.2-2.7,16.4-8,21.7
		c-5.4,5.3-12.9,7.9-22.6,7.9c-9.7,0-17.2-2.6-22.6-7.9c-5.4-5.3-8-12.5-8-21.7c0-9.3,2.7-16.6,8.1-21.8c5.4-5.3,12.9-7.9,22.5-7.9
		c9.8,0,17.3,2.6,22.7,7.9C466.6,590.9,469.2,598.2,469.2,607.4z M447.2,621c1.2-1.4,2-3.2,2.6-5.1c0.6-2,0.9-4.8,0.9-8.3
		c0-3.3-0.3-6-0.9-8.3c-0.6-2.2-1.4-4-2.5-5.3c-1.1-1.4-2.4-2.3-3.8-2.9c-1.5-0.6-3.1-0.9-4.9-0.9c-1.7,0-3.3,0.3-4.6,0.7
		s-2.6,1.4-3.9,2.8c-1.1,1.3-2,3.1-2.6,5.3s-1,5.1-1,8.5c0,3.1,0.3,5.7,0.9,7.9c0.6,2.2,1.4,4.1,2.5,5.4c1.1,1.3,2.3,2.2,3.8,2.8
		c1.4,0.6,3.2,0.9,5.1,0.9c1.6,0,3.2-0.3,4.7-0.9C444.9,623.2,446.2,622.3,447.2,621z M538.4,579.4l-21.5,55.9h-20.3l-21.4-55.9H494
		l13,38.5l12.8-38.5H538.4z"/>
	<path fill="#006B8D" d="M331.4,469.3h10.2c1.8,0,3.3-1.4,3.3-3.3v-10.6c0-1.8-1.4-3.3-3.3-3.3h-10.2c-1.8,0-3.3,1.4-3.3,3.3V466
		C328.1,467.9,329.6,469.3,331.4,469.3z"/>
	<path fill="#006B8D" d="M331.4,388.6h10.2c1.8,0,3.3-1.4,3.3-3.3v-10.6c0-1.8-1.4-3.3-3.3-3.3h-10.2c-1.8,0-3.3,1.4-3.3,3.3v10.6
		C328.1,387.2,329.6,388.6,331.4,388.6z"/>
	<path fill="#006B8D" d="M331.4,442.4h10.2c1.8,0,3.3-1.5,3.3-3.3v-10.6c0-1.8-1.4-3.3-3.3-3.3h-10.2c-1.8,0-3.3,1.5-3.3,3.3v10.6
		C328.1,440.9,329.6,442.4,331.4,442.4z"/>
</g>
</svg>
