<?xml version="1.0" encoding="utf-8"?>
<!-- Generator: Adobe Illustrator 18.0.0, SVG Export Plug-In . SVG Version: 6.00 Build 0)  -->
<!DOCTYPE svg PUBLIC "-//W3C//DTD SVG 1.1//EN" "http://www.w3.org/Graphics/SVG/1.1/DTD/svg11.dtd">
<svg version="1.1" id="Layer_1" xmlns="http://www.w3.org/2000/svg" xmlns:xlink="http://www.w3.org/1999/xlink" x="0px" y="0px"
	 viewBox="0 123.3 595.3 595.3" enable-background="new 0 123.3 595.3 595.3" xml:space="preserve" width="40px" height="40px">
<g>
	<g>
		<path fill="#006B8D" d="M551.6,298.7c23.9,0,43.5,0,43.5,0l-86.9-93.4v46.7C508.3,277.9,527.7,298.7,551.6,298.7z"/>
		<g>
			<path fill="#006B8D" d="M436.9,592.1c-1.7,0-3.5,0.2-5.2,0.7c-1.8,0.5-3.5,1.2-5.1,2.3v28c1.2,0.5,2.5,0.7,3.8,1
				c1.3,0.1,2.7,0.2,4,0.2c4.8,0,8.2-1.4,10.6-4.2c2.3-2.7,3.5-6.9,3.5-12.5c0-5.5-1-9.4-2.7-11.8
				C443.8,593.3,440.9,592.1,436.9,592.1z"/>
			<path fill="#006B8D" d="M545.8,321.3c-27.1,0-60.2-34.4-60.2-63.6c0-28.9,0-52.5,0-52.5H377c5.6,16.2,8.7,33.6,8.7,51.6
				c0,87.2-70.7,157.8-157.8,157.8c-8,0-16-0.6-23.7-1.8v249c0,31.3,25.4,56.7,56.7,56.7h277.6c31.3,0,56.7-25.4,56.7-56.7V321.3
				H545.8z M283.3,635.9h-18.6v-19.5h18.6V635.9z M391.8,635.9h-18V608c0-2.7,0-5.1-0.1-6.9s-0.5-3.5-1.1-4.6
				c-0.6-1.2-1.4-2-2.7-2.6c-1.2-0.6-3-0.8-5.1-0.8c-1.5,0-3,0.2-4.4,0.7c-1.2,0.6-2.9,1.4-4.9,2.6v39.5h-18V608
				c0-2.7-0.1-5-0.2-6.9c-0.1-1.9-0.5-3.5-1.1-4.6c-0.6-1.2-1.5-2-2.7-2.6c-1.2-0.6-2.9-0.8-5.1-0.8c-1.8,0-3.5,0.4-5.1,1.1
				c-1.7,0.7-3.1,1.4-4.5,2.3V636H301v-55.8H319v6.2c3.1-2.4,6.1-4.3,8.8-5.7c2.9-1.3,6-2,9.3-2c3.7,0,6.9,0.8,9.8,2.5s5,4,6.5,7.3
				c3.6-3,7-5.4,10.4-7.1c3.3-1.7,6.7-2.6,9.9-2.6c6.1,0,10.6,1.8,13.7,5.4s4.6,8.8,4.6,15.6v36.1H391.8z M464.7,619.8
				c-1.4,3.8-3.2,6.9-5.5,9.3c-2.4,2.6-5.1,4.5-8.1,5.8c-3,1.3-6.2,2-9.6,2c-3.2,0-5.8-0.4-8.1-1.1s-4.5-1.7-6.8-2.9v23.2h-18v-76.3
				h18v5.8c2.7-2.1,5.6-3.9,8.5-5.4c2.9-1.3,6.2-2,9.9-2c6.9,0,12.4,2.5,16.2,7.6c3.7,5.2,5.7,12.1,5.7,21.1
				C466.9,611.9,466.1,616,464.7,619.8z M455.2,514.7c-21.2,4.5-41.3-6-45-23.5c-3.7-17.5,10.5-35.2,31.7-39.8
				c7.7-1.7,15.4-1.3,22,0.7v-67.4l-75.3,15.8v99.2c0,0.7-0.1,1.4-0.2,2c-0.2,15.4-13.5,29.6-32.3,33.7c-21.2,4.5-41.3-6-45-23.5
				c-3.7-17.4,10.5-35.2,31.7-39.8c7.7-1.7,15.4-1.3,22,0.7v-82.1c0-5.6,3.9-10.5,9.4-11.7l99.3-21c0.4-0.1,0.7-0.1,1.2-0.1
				s0.8-0.1,1.2-0.1c0.1,0,0.4,0,0.5,0.1c0.6,0,1.2,0,1.8,0.1c0.4,0.1,0.7,0.2,1.1,0.4c0.4,0.2,0.7,0.2,1.1,0.4
				c0.4,0.1,0.8,0.4,1.2,0.6c0.2,0.1,0.6,0.2,0.8,0.5c0.4,0.2,0.6,0.5,1,0.7c0.2,0.2,0.6,0.5,0.8,0.7s0.5,0.6,0.7,0.8
				c0.2,0.2,0.5,0.6,0.7,0.8c0.2,0.4,0.5,0.8,0.7,1.2c0.1,0.2,0.4,0.6,0.5,0.8c0.2,0.6,0.5,1.2,0.6,1.9c0,0.1,0.1,0.2,0.1,0.4
				c0.1,0.4,0.1,0.8,0.1,1.3c0.2,0.6,0.2,1,0.2,1.4v108.8c0,0.7-0.1,1.4-0.2,2C487.2,496.4,474,510.7,455.2,514.7z M534.6,623.3
				c-1.4,3-3.5,5.6-6.3,7.7c-2.7,2.1-6.1,3.7-9.8,4.8c-3.8,1.1-8.3,1.7-13.7,1.7c-6.1,0-11.4-0.5-15.7-1.4c-4.4-1-8-2-10.7-3.2
				v-16.2h1.9c2.9,1.7,6.2,3.2,10.2,4.5s7.6,1.9,10.8,1.9c1.9,0,4-0.1,6.3-0.5c2.3-0.4,4.2-1,5.7-2c1.2-0.8,2.1-1.8,3-3
				c0.7-1.2,1.1-2.9,1.1-5.1c0-2.1-0.5-3.8-1.5-5c-1.1-1.2-2.3-2-3.9-2.5c-1.7-0.5-3.6-0.8-5.8-0.8c-2.3,0-4.4-0.1-6.3-0.1h-4v-13.2
				h4.2c2.6,0,4.9-0.1,6.9-0.2s3.7-0.6,5.1-1.2c1.4-0.6,2.5-1.4,3.3-2.5c0.7-1.1,1.1-2.6,1.1-4.6c0-1.5-0.4-2.7-1.2-3.6
				c-0.8-0.8-1.7-1.7-2.9-2.1c-1.3-0.6-2.9-1-4.5-1.2c-1.7-0.2-3.2-0.4-4.5-0.4c-3.1,0-6.4,0.6-10.1,1.7c-3.7,1.1-7.1,2.6-10.6,4.6
				h-1.9v-16.2c2.7-1.1,6.4-2.1,11.1-3.1c4.7-1,9.4-1.5,14.2-1.5c4.6,0,8.8,0.4,12.3,1.2c3.5,0.8,6.4,1.9,8.7,3.2
				c2.7,1.7,4.8,3.6,6.1,6c1.3,2.3,2,5,2,8.1c0,4-1.3,7.7-3.8,11s-6,5.2-10.1,6.2v0.7c1.7,0.2,3.5,0.7,5.4,1.4
				c1.4,0.6,3.2,1.7,4.8,3c1.7,1.4,2.9,3,3.9,4.9c1,1.9,1.4,4.3,1.4,7.4C536.6,617,535.9,620.2,534.6,623.3z"/>
		</g>
	</g>
	<g>
		<path fill="#006B8D" d="M227.9,145.2c61.4,0,111.5,50,111.5,111.5s-50,111.5-111.5,111.5s-111.5-50-111.5-111.5
			S166.3,145.2,227.9,145.2 M227.9,123.3c-73.6,0-133.4,59.7-133.4,133.5c0,73.7,59.6,133.4,133.4,133.4s133.4-59.6,133.4-133.4
			S301.5,123.3,227.9,123.3L227.9,123.3z"/>
	</g>
	<g>
		<path fill="#006B8D" d="M272,247.3h-67.7v-23.1c0-6.5,2.3-12,6.9-16.7c4.6-4.6,10.1-6.9,16.7-6.9s12,2.3,16.7,6.9
			c4.5,4.5,6.8,10,6.9,16.4c0,0.1,0,23.9,0,23.9c0,1.5,0.6,3,1.8,4.2c1.2,1.2,2.5,1.8,4.2,1.8h5.8c1.5,0,3-0.6,4.2-1.8
			c1.2-1.2,1.8-2.5,1.8-4.2c0-0.1,0-23.9,0-24c-0.1-11.2-4-20.8-12.1-28.8c-8.1-8.1-17.7-12.1-29-12.1s-21.1,4-29,12.1
			c-8.1,8.1-12.1,17.7-12.1,29v23.1h-3c-2.5,0-4.5,0.8-6.3,2.6c-1.7,1.7-2.6,3.8-2.6,6.3v65.7c0,2.5,0.8,4.5,2.6,6.3
			c1.7,1.7,3.8,2.6,6.3,2.6h88.4c2.5,0,4.5-0.8,6.3-2.6c1.7-1.7,2.6-3.8,2.6-6.3V256c0-2.5-0.8-4.5-2.6-6.3
			C276.5,248.2,274.5,247.3,272,247.3z M234.9,290.4v17.3c0,3.5-2.9,6.3-6.3,6.3h-1.2c-3.5,0-6.3-2.9-6.3-6.3v-17.3
			c-3.7-2.3-6.2-6.4-6.2-11.1c0-7.3,5.8-13.1,13.1-13.1c7.3,0,13.1,5.8,13.1,13.1C240.9,283.9,238.5,288,234.9,290.4z"/>
	</g>
</g>
</svg>
