<?xml version="1.0" encoding="utf-8"?>
<!-- Generator: Adobe Illustrator 18.0.0, SVG Export Plug-In . SVG Version: 6.00 Build 0)  -->
<!DOCTYPE svg PUBLIC "-//W3C//DTD SVG 1.1//EN" "http://www.w3.org/Graphics/SVG/1.1/DTD/svg11.dtd">
<svg version="1.1" id="Layer_1" xmlns="http://www.w3.org/2000/svg" xmlns:xlink="http://www.w3.org/1999/xlink" x="0px" y="0px"
	 viewBox="0 123.3 595.3 595.3" enable-background="new 0 123.3 595.3 595.3" xml:space="preserve" width="40px" height="40px">
<g>
	<path fill="#006B8D" d="M508.5,251.9c0,25.8,19.4,46.7,43.5,46.7c23.9,0,43.5,0,43.5,0l-86.9-93.3v46.6H508.5z"/>
	<path fill="#006B8D" d="M204.3,261.9v400c0,31.3,25.4,56.7,56.7,56.7h277.5c31.3,0,56.7-25.4,56.7-56.7V321.1H546
		c-27.1,0-60.2-34.5-60.2-63.5c0-29,0-52.5,0-52.5H261.1C229.7,205.3,204.3,230.6,204.3,261.9z M342.9,472.3
		c7.7-1.7,15.4-1.3,22,0.7v-82c0-5.6,3.9-10.5,9.4-11.7l99.2-21l0,0c0.4-0.1,0.7-0.1,1.2-0.1c0.5,0,0.8-0.1,1.2-0.1l0,0
		c0.1,0,0.4,0,0.5,0.1c0.6,0,1.2,0,1.8,0.1c0.4,0.1,0.7,0.2,1.1,0.4c0.4,0.1,0.7,0.2,1.1,0.4c0.4,0.1,0.8,0.4,1.2,0.6
		c0.2,0.1,0.6,0.2,0.8,0.5c0.4,0.2,0.6,0.5,1,0.7c0.2,0.2,0.6,0.5,0.8,0.7s0.5,0.6,0.7,0.8s0.5,0.6,0.7,0.8c0.2,0.4,0.5,0.8,0.7,1.2
		c0.1,0.2,0.4,0.6,0.5,0.8c0.2,0.6,0.5,1.2,0.6,1.9c0,0.1,0.1,0.2,0.1,0.4l0,0c0.1,0.4,0.1,0.8,0.1,1.3c0,0.4,0.1,0.7,0.1,1.2l0,0
		v108.7c0,0.7-0.1,1.4-0.2,2c-0.2,15.4-13.5,29.6-32.3,33.7c-21.2,4.5-41.3-6-45-23.5c-3.7-17.5,10.5-35.2,31.7-39.8
		c7.7-1.7,15.4-1.3,22,0.7v-67.3l-75.1,16v99.1c0,0.7-0.1,1.4-0.2,2c-0.2,15.4-13.5,29.6-32.3,33.7c-21.2,4.5-41.3-6-45-23.5
		C307.5,494.5,321.7,476.8,342.9,472.3z M283.6,635.6H265v-19.5h18.6V635.6z M355.6,596.1v39.5h-18v-27.9c0-2.7-0.1-5-0.2-6.9
		c-0.1-1.9-0.5-3.5-1.1-4.6c-0.6-1.2-1.5-2-2.7-2.6c-1.2-0.6-2.9-0.8-5.1-0.8c-1.8,0-3.5,0.4-5.1,1.1c-1.7,0.7-3.1,1.4-4.5,2.3v39.5
		h-18v-55.8h18v6.2c3.1-2.4,6.1-4.3,8.8-5.7c2.7-1.4,6-2,9.3-2c3.7,0,6.9,0.8,9.8,2.5s5,4,6.5,7.3c3.6-3,7-5.4,10.4-7.1
		c3.3-1.7,6.7-2.6,9.9-2.6c6.1,0,10.6,1.8,13.7,5.4c3.1,3.6,4.6,8.8,4.6,15.6v36.3h-18v-27.9c0-2.7,0-5.1-0.1-6.9
		c-0.1-1.9-0.5-3.5-1.1-4.6c-0.6-1.2-1.4-2-2.7-2.6c-1.2-0.6-3-0.8-5.1-0.8c-1.5,0-3,0.2-4.4,0.7C359,594,357.6,594.9,355.6,596.1z
		 M466.9,606.9c0,4.6-0.7,8.8-2.1,12.6c-1.4,3.8-3.2,6.9-5.5,9.3c-2.4,2.6-5.1,4.5-8.1,5.8c-3,1.3-6.2,2-9.6,2
		c-3.2,0-5.8-0.4-8.1-1.1c-2.3-0.7-4.5-1.7-6.8-2.9v23.2h-18v-76.2h18v5.8c2.7-2.1,5.6-3.9,8.5-5.4c2.9-1.3,6.2-2,9.9-2
		c6.9,0,12.4,2.5,16.2,7.6C464.9,591.1,466.9,598,466.9,606.9z M448.5,607.3c0-5.5-1-9.4-2.7-11.8c-1.9-2.5-4.8-3.7-8.8-3.7
		c-1.7,0-3.5,0.2-5.2,0.7c-1.8,0.5-3.5,1.2-5.1,2.3v28c1.2,0.5,2.5,0.7,3.8,1c1.3,0.1,2.7,0.2,4,0.2c4.8,0,8.2-1.4,10.6-4.2
		C447.3,617,448.5,612.9,448.5,607.3z M531.4,601c1.7,1.4,2.9,3,3.9,4.9c1,1.9,1.4,4.3,1.4,7.4c0,3.5-0.7,6.7-2,9.8
		c-1.4,3-3.5,5.6-6.3,7.7c-2.7,2.1-6.1,3.7-9.8,4.8c-3.8,1.1-8.3,1.7-13.7,1.7c-6.1,0-11.4-0.5-15.7-1.4c-4.4-1-8-2-10.7-3.2v-16.2
		h1.9c2.9,1.7,6.2,3.2,10.2,4.5c3.9,1.3,7.6,1.9,10.8,1.9c1.9,0,4-0.1,6.3-0.5c2.3-0.4,4.2-1,5.7-2c1.2-0.8,2.1-1.8,3-3
		c0.7-1.2,1.1-2.9,1.1-5.1c0-2.1-0.5-3.8-1.5-5c-1-1.2-2.3-2-3.9-2.5c-1.7-0.5-3.6-0.8-5.8-0.8s-4.4-0.1-6.3-0.1h-4v-13.2h4.2
		c2.6,0,4.9-0.1,6.9-0.2c2-0.1,3.7-0.6,5.1-1.2c1.4-0.6,2.5-1.4,3.3-2.5c0.8-1.1,1.1-2.6,1.1-4.6c0-1.5-0.4-2.7-1.2-3.6
		c-0.7-1-1.7-1.7-2.9-2.1c-1.3-0.6-2.9-1-4.5-1.2c-1.8-0.2-3.2-0.4-4.5-0.4c-3.1,0-6.5,0.6-10.1,1.7c-3.7,1.1-7.1,2.6-10.6,4.6h-1.8
		v-16.3c2.7-1.1,6.4-2.1,11.1-3.1c4.6-1,9.4-1.5,14.2-1.5c4.6,0,8.8,0.4,12.3,1.2s6.4,1.9,8.7,3.2c2.7,1.7,4.8,3.6,6.1,6
		c1.3,2.3,2,5,2,8.1c0,4-1.3,7.7-3.8,11c-2.5,3.2-6,5.2-10.1,6.2v0.7c1.7,0.2,3.5,0.7,5.4,1.4C528.8,598.8,529.9,599.7,531.4,601z"
		/>
</g>
</svg>
