<?xml version="1.0" encoding="utf-8"?>
<!-- Generator: Adobe Illustrator 18.0.0, SVG Export Plug-In . SVG Version: 6.00 Build 0)  -->
<!DOCTYPE svg PUBLIC "-//W3C//DTD SVG 1.1//EN" "http://www.w3.org/Graphics/SVG/1.1/DTD/svg11.dtd">
<svg version="1.1" id="Layer_1" xmlns="http://www.w3.org/2000/svg" xmlns:xlink="http://www.w3.org/1999/xlink" x="0px" y="0px"
	 viewBox="0 123.3 595.3 595.3" enable-background="new 0 123.3 595.3 595.3" xml:space="preserve" width="40px" height="40px">
<path fill="#006B8D" d="M551.9,298.7c24,0,43.5,0,43.5,0l-87-93.6v46.7C508.4,277.7,527.9,298.7,551.9,298.7z"/>
<path fill="#006B8D" d="M458,496.1h10.2c1.8,0,3.3-1.4,3.3-3.3v-10.5c0-1.8-1.4-3.3-3.3-3.3H458c-1.8,0-3.3,1.4-3.3,3.3v10.5
	C454.8,494.7,456.3,496.1,458,496.1z"/>
<path fill="#006B8D" d="M359.5,438.4h80.7c1.8,0,3.3-1.5,3.3-3.3v-52.3c0-1.8-1.4-3.3-3.3-3.3h-80.7c-1.8,0-3.3,1.4-3.3,3.3v52.3
	C356.2,436.9,357.7,438.4,359.5,438.4z"/>
<path fill="#006B8D" d="M458,523h10.2c1.8,0,3.3-1.5,3.3-3.3v-10.6c0-1.8-1.4-3.3-3.3-3.3H458c-1.8,0-3.3,1.4-3.3,3.3v10.6
	C454.8,521.6,456.3,523,458,523z"/>
<path fill="#006B8D" d="M458,469.3h10.2c1.8,0,3.3-1.4,3.3-3.3v-10.6c0-1.8-1.4-3.3-3.3-3.3H458c-1.8,0-3.3,1.4-3.3,3.3V466
	C454.8,467.9,456.3,469.3,458,469.3z"/>
<path fill="#006B8D" d="M359.5,515h80.7c1.8,0,3.3-1.4,3.3-3.3v-48.4c0-1.8-1.4-3.3-3.3-3.3h-80.7c-1.8,0-3.3,1.4-3.3,3.3v48.4
	C356.2,513.5,357.7,515,359.5,515z"/>
<path fill="#006B8D" d="M458,388.6h10.2c1.8,0,3.3-1.4,3.3-3.3v-10.6c0-1.8-1.4-3.3-3.3-3.3H458c-1.8,0-3.3,1.4-3.3,3.3v10.6
	C454.8,387.2,456.3,388.6,458,388.6z"/>
<path fill="#006B8D" d="M458,442.4h10.2c1.8,0,3.3-1.5,3.3-3.3v-10.6c0-1.8-1.4-3.3-3.3-3.3H458c-1.8,0-3.3,1.5-3.3,3.3v10.6
	C454.8,440.9,456.3,442.4,458,442.4z"/>
<path fill="#006B8D" d="M458,415.5h10.2c1.8,0,3.3-1.5,3.3-3.3v-10.6c0-1.8-1.4-3.3-3.3-3.3H458c-1.8,0-3.3,1.4-3.3,3.3v10.6
	C454.8,414.1,456.3,415.5,458,415.5z"/>
<path fill="#006B8D" d="M331.4,415.5h10.2c1.8,0,3.3-1.5,3.3-3.3v-10.6c0-1.8-1.4-3.3-3.3-3.3h-10.2c-1.8,0-3.3,1.4-3.3,3.3v10.6
	C328.1,414.1,329.6,415.5,331.4,415.5z"/>
<path fill="#006B8D" d="M331.4,523h10.2c1.8,0,3.3-1.5,3.3-3.3v-10.6c0-1.8-1.4-3.3-3.3-3.3h-10.2c-1.8,0-3.3,1.4-3.3,3.3v10.6
	C328.1,521.6,329.6,523,331.4,523z"/>
<path fill="#006B8D" d="M331.4,496.1h10.2c1.8,0,3.3-1.4,3.3-3.3v-10.5c0-1.8-1.4-3.3-3.3-3.3h-10.2c-1.8,0-3.3,1.4-3.3,3.3v10.5
	C328.1,494.7,329.6,496.1,331.4,496.1z"/>
<path fill="#006B8D" d="M546,321.2c-27.1,0-60.3-34.6-60.3-63.5s0-52.6,0-52.6H261c-31.3,0.2-56.7,25.6-56.7,56.9v150.9v249
	c0,31.3,25.4,56.7,56.7,56.7h277.6c31.3,0,56.7-25.4,56.7-56.7V321.2H546z M318.2,372.4c0-6,4.9-10.9,11-10.9h141.3
	c6,0,11,4.9,11,10.9v149.9c0,6-4.9,10.9-11,10.9H329.2c-6,0-11-4.9-11-10.9L318.2,372.4L318.2,372.4z M282.8,635.3h-18.6v-19.6h18.6
	V635.3z M355,595.7v39.6H337v-27.9c0-2.7-0.1-5.1-0.2-7c-0.1-1.9-0.5-3.5-1.1-4.7c-0.6-1.2-1.5-2-2.7-2.6c-1.2-0.5-2.9-0.8-5.1-0.8
	c-1.8,0-3.5,0.3-5.1,1.1c-1.6,0.7-3.2,1.4-4.5,2.2v39.6h-17.9v-55.8h17.9v6.2c3.1-2.4,6-4.3,8.9-5.7c2.8-1.4,5.9-2,9.3-2
	c3.7,0,6.9,0.8,9.7,2.4c2.8,1.6,5,4.1,6.6,7.2c3.5-3,7-5.4,10.4-7.1c3.4-1.7,6.7-2.6,9.9-2.6c6,0,10.6,1.8,13.7,5.5
	c3.2,3.6,4.7,8.8,4.7,15.6v36.3h-17.9v-27.9c0-2.8-0.1-5.1-0.2-7c-0.1-1.9-0.5-3.4-1.1-4.6c-0.6-1.2-1.4-2-2.7-2.6
	c-1.2-0.5-3-0.8-5.2-0.8c-1.5,0-3,0.3-4.4,0.8C358.8,593.7,357,594.5,355,595.7z M466.5,606.6c0,4.6-0.7,8.8-2.1,12.6
	c-1.4,3.8-3.3,6.9-5.5,9.3c-2.4,2.6-5.1,4.5-8.1,5.8c-3,1.3-6.2,2-9.7,2c-3.2,0-5.8-0.3-8.1-1.1c-2.2-0.7-4.5-1.6-6.8-2.9v23.3
	h-17.9v-76.2h17.9v5.8c2.8-2.2,5.6-3.9,8.4-5.3c2.9-1.4,6.2-2,9.9-2c7,0,12.4,2.6,16.2,7.7C464.6,590.7,466.5,597.7,466.5,606.6z
	 M448,607c0-5.5-0.9-9.4-2.8-11.8c-1.8-2.4-4.8-3.7-8.8-3.7c-1.7,0-3.4,0.3-5.2,0.8c-1.8,0.5-3.5,1.2-5.1,2.2v28.1
	c1.2,0.5,2.5,0.8,3.8,0.9c1.4,0.1,2.7,0.2,4,0.2c4.7,0,8.3-1.4,10.6-4.1C446.9,616.7,448,612.5,448,607z M539.3,618.3h-10.1v17.3
	h-18.3v-17.3h-35.9v-14l34.7-43h19.4v43.5h10.1V618.3z M511,604.7v-26.8l-21.5,26.8H511z"/>
<path fill="#006B8D" d="M331.4,469.3h10.2c1.8,0,3.3-1.4,3.3-3.3v-10.6c0-1.8-1.4-3.3-3.3-3.3h-10.2c-1.8,0-3.3,1.4-3.3,3.3V466
	C328.1,467.9,329.6,469.3,331.4,469.3z"/>
<path fill="#006B8D" d="M331.4,388.6h10.2c1.8,0,3.3-1.4,3.3-3.3v-10.6c0-1.8-1.4-3.3-3.3-3.3h-10.2c-1.8,0-3.3,1.4-3.3,3.3v10.6
	C328.1,387.2,329.6,388.6,331.4,388.6z"/>
<path fill="#006B8D" d="M331.4,442.4h10.2c1.8,0,3.3-1.5,3.3-3.3v-10.6c0-1.8-1.4-3.3-3.3-3.3h-10.2c-1.8,0-3.3,1.5-3.3,3.3v10.6
	C328.1,440.9,329.6,442.4,331.4,442.4z"/>
</svg>
