<?xml version="1.0" encoding="utf-8"?>
<!-- Generator: Adobe Illustrator 18.0.0, SVG Export Plug-In . SVG Version: 6.00 Build 0)  -->
<!DOCTYPE svg PUBLIC "-//W3C//DTD SVG 1.1//EN" "http://www.w3.org/Graphics/SVG/1.1/DTD/svg11.dtd">
<svg version="1.1" id="Layer_1" xmlns="http://www.w3.org/2000/svg" xmlns:xlink="http://www.w3.org/1999/xlink" x="0px" y="0px"
	 viewBox="0 123.3 595.3 595.3" enable-background="new 0 123.3 595.3 595.3" xml:space="preserve" width="40px" height="40px">
<g id="Layer_1_1_">
	<g>
		<path fill="#006B8D" d="M508.3,251.9c0,25.8,19.4,46.7,43.5,46.7c23.9,0,43.5,0,43.5,0l-86.9-93.4L508.3,251.9L508.3,251.9z"/>
		<path fill="#006B8D" d="M204,261.9v400c0,31.3,25.4,56.7,56.7,56.7h277.6c31.3,0,56.7-25.4,56.7-56.7V321.1h-49.2
			c-27.1,0-60.3-34.5-60.3-63.5c0-29,0-52.5,0-52.5H260.8C229.4,205.2,204,230.5,204,261.9z M342.6,472.3c7.7-1.7,15.4-1.3,22,0.7
			v-82.1c0-5.6,3.9-10.5,9.4-11.7l99.3-21l0,0c0.4-0.1,0.7-0.1,1.2-0.1c0.5,0,0.8-0.1,1.2-0.1l0,0c0.1,0,0.4,0,0.5,0.1
			c0.6,0,1.2,0,1.8,0.1c0.4,0.1,0.7,0.2,1.1,0.4c0.4,0.1,0.7,0.2,1.1,0.4c0.4,0.1,0.8,0.4,1.2,0.6c0.2,0.1,0.6,0.2,0.8,0.5
			c0.4,0.2,0.6,0.5,1,0.7c0.2,0.2,0.6,0.5,0.8,0.7c0.2,0.2,0.5,0.6,0.7,0.8s0.5,0.6,0.7,0.8c0.2,0.4,0.5,0.8,0.7,1.2
			c0.1,0.2,0.4,0.6,0.5,0.8c0.2,0.6,0.5,1.2,0.6,1.9c0,0.1,0.1,0.2,0.1,0.4l0,0c0.1,0.4,0.1,0.8,0.1,1.3c0,0.4,0.1,0.7,0.1,1.2l0,0
			v108.8c0,0.7-0.1,1.4-0.2,2c-0.2,15.4-13.5,29.6-32.3,33.7c-21.2,4.5-41.3-6-45-23.5c-3.7-17.5,10.5-35.2,31.7-39.8
			c7.7-1.7,15.4-1.3,22,0.7v-67.3l-75.2,16v99.2c0,0.7-0.1,1.4-0.2,2c-0.2,15.4-13.5,29.6-32.3,33.7c-21.2,4.5-41.3-6-45-23.5
			C307.2,494.6,321.4,476.8,342.6,472.3z M285.7,635.5h-18.6v-19.5h18.5L285.7,635.5L285.7,635.5z M357.6,596v39.5h-17.9v-27.8
			c0-2.7-0.1-5-0.2-6.9c-0.1-1.9-0.5-3.4-1.1-4.7c-0.6-1.2-1.5-2-2.7-2.6c-1.2-0.5-2.9-0.8-5.1-0.8c-1.8,0-3.5,0.3-5.1,1.1
			c-1.6,0.7-3.2,1.4-4.5,2.2v39.5h-17.9v-55.7H321v6.2c3.1-2.4,6-4.3,8.8-5.7s5.9-2,9.3-2c3.7,0,6.9,0.8,9.7,2.4
			c2.8,1.6,5,4,6.6,7.2c3.5-3,7-5.4,10.4-7.1c3.4-1.7,6.6-2.6,9.9-2.6c6,0,10.6,1.8,13.7,5.4s4.7,8.8,4.7,15.6v36.3h-17.9v-27.8
			c0-2.8-0.1-5.1-0.2-7c-0.1-1.9-0.5-3.4-1.1-4.6s-1.4-2-2.7-2.6c-1.2-0.5-3-0.8-5.1-0.8c-1.5,0-3,0.3-4.3,0.8
			C361.3,593.9,359.6,594.8,357.6,596z M468.7,606.9c0,4.6-0.7,8.8-2.1,12.6s-3.2,6.9-5.5,9.3c-2.4,2.6-5.1,4.5-8.1,5.8
			c-3,1.3-6.2,2-9.7,2c-3.2,0-5.8-0.3-8.1-1s-4.5-1.6-6.8-2.8v23.1h-17.9v-76.1h17.9v5.8c2.8-2.2,5.5-3.9,8.4-5.3
			c2.9-1.4,6.2-2,9.9-2c6.9,0,12.4,2.6,16.2,7.6C466.8,591,468.7,597.9,468.7,606.9z M450.3,607.2c0-5.4-0.9-9.3-2.8-11.8
			s-4.8-3.7-8.7-3.7c-1.7,0-3.4,0.3-5.2,0.8c-1.8,0.5-3.5,1.2-5.1,2.2v28c1.2,0.5,2.4,0.8,3.8,0.9c1.4,0.1,2.7,0.2,4,0.2
			c4.7,0,8.2-1.4,10.5-4.1C449.2,616.9,450.3,612.8,450.3,607.2z M515.4,629.5c-1,0.7-2.2,1.6-3.5,2.6c-1.4,1.1-2.8,1.8-4,2.4
			c-1.8,0.8-3.5,1.4-5.5,1.8c-1.9,0.4-3.9,0.6-6.2,0.6c-5.3,0-9.7-1.6-13.3-4.9c-3.5-3.3-5.3-7.4-5.3-12.6c0-4.1,0.9-7.4,2.7-10
			c1.8-2.6,4.4-4.6,7.8-6.1c3.3-1.5,7.4-2.6,12.3-3.2c4.9-0.7,10-1.1,15.2-1.4v-0.3c0-3.1-1.2-5.2-3.7-6.4
			c-2.5-1.2-6.2-1.8-11.1-1.8c-3,0-6.1,0.5-9.4,1.6c-3.4,1.1-5.7,1.8-7.2,2.4h-1.6V581c1.9-0.5,4.9-1.1,9.2-1.8
			c4.3-0.7,8.5-1,12.7-1c10.1,0,17.5,1.6,22,4.7c4.5,3.1,6.8,8,6.8,14.7v37.9h-17.7v-5.9H515.4L515.4,629.5z M515.4,620.9v-11.6
			c-2.4,0.2-5,0.5-7.8,0.8c-2.8,0.3-4.9,0.7-6.4,1.2c-1.8,0.6-3.2,1.4-4.1,2.4s-1.4,2.5-1.4,4.2c0,1.2,0.1,2.1,0.3,2.8
			c0.2,0.7,0.7,1.4,1.5,2.1c0.8,0.7,1.6,1.1,2.8,1.4c1.1,0.3,2.7,0.5,4.9,0.5c1.8,0,3.6-0.3,5.5-1.1
			C512.3,623,513.9,622,515.4,620.9z"/>
	</g>
</g>
<g id="Layer_2">
</g>
</svg>
