<?xml version="1.0" encoding="utf-8"?>
<!-- Generator: Adobe Illustrator 18.0.0, SVG Export Plug-In . SVG Version: 6.00 Build 0)  -->
<!DOCTYPE svg PUBLIC "-//W3C//DTD SVG 1.1//EN" "http://www.w3.org/Graphics/SVG/1.1/DTD/svg11.dtd">
<svg version="1.1" id="Layer_1" xmlns="http://www.w3.org/2000/svg" xmlns:xlink="http://www.w3.org/1999/xlink" x="0px" y="0px"
	 viewBox="0 123.3 595.3 595.3" enable-background="new 0 123.3 595.3 595.3" xml:space="preserve" width="40px" height="40px">
<g>
	<path fill="#006B8D" d="M551.5,298.7c23.9,0,43.6,0,43.6,0l-86.9-93.4V252C508.1,278,527.5,298.7,551.5,298.7z"/>
	<path fill="#006B8D" d="M457.9,523.7h10.3c1.9,0,3.3-1.5,3.3-3.3v-10.6c0-1.8-1.4-3.3-3.3-3.3h-10.3c-1.8,0-3.3,1.5-3.3,3.3v10.6
		C454.6,522.2,456,523.7,457.9,523.7z"/>
	<path fill="#006B8D" d="M457.9,496.8h10.3c1.9,0,3.3-1.4,3.3-3.3v-10.6c0-1.9-1.4-3.3-3.3-3.3h-10.3c-1.8,0-3.3,1.4-3.3,3.3v10.6
		C454.6,495.4,456,496.8,457.9,496.8z"/>
	<path fill="#006B8D" d="M457.9,470h10.3c1.9,0,3.3-1.4,3.3-3.3v-10.6c0-1.9-1.4-3.3-3.3-3.3h-10.3c-1.8,0-3.3,1.5-3.3,3.3v10.6
		C454.6,468.4,456,470,457.9,470z"/>
	<path fill="#006B8D" d="M359.3,439H440c1.8,0,3.3-1.5,3.3-3.3v-52.3c0-1.9-1.5-3.3-3.3-3.3h-80.8c-1.9,0-3.3,1.4-3.3,3.3v52.3
		C356,437.5,357.4,439,359.3,439z"/>
	<path fill="#006B8D" d="M359.3,515.7H440c1.8,0,3.3-1.5,3.3-3.3v-48.4c0-1.8-1.5-3.3-3.3-3.3h-80.8c-1.9,0-3.3,1.4-3.3,3.3v48.4
		C356,514.2,357.4,515.7,359.3,515.7z"/>
	<path fill="#006B8D" d="M457.9,389.3h10.3c1.9,0,3.3-1.4,3.3-3.3v-10.6c0-1.9-1.4-3.3-3.3-3.3h-10.3c-1.8,0-3.3,1.4-3.3,3.3V386
		C454.6,387.8,456,389.3,457.9,389.3z"/>
	<path fill="#006B8D" d="M331.2,416.1h10.3c1.8,0,3.3-1.5,3.3-3.3v-10.6c0-1.9-1.4-3.3-3.3-3.3h-10.3c-1.8,0-3.3,1.4-3.3,3.3v10.6
		C327.9,414.7,329.3,416.1,331.2,416.1z"/>
	<path fill="#006B8D" d="M457.9,443h10.3c1.9,0,3.3-1.5,3.3-3.3v-10.6c0-1.9-1.4-3.3-3.3-3.3h-10.3c-1.8,0-3.3,1.5-3.3,3.3v10.6
		C454.6,441.6,456,443,457.9,443z"/>
	<path fill="#006B8D" d="M327.9,386c0,1.9,1.5,3.3,3.3,3.3h10.3c1.8,0,3.3-1.4,3.3-3.3v-10.6c0-1.9-1.4-3.3-3.3-3.3h-6.1
		c-2.4,2.3-4.9,4.5-7.4,6.5L327.9,386L327.9,386z"/>
	<path fill="#006B8D" d="M457.9,416.1h10.3c1.9,0,3.3-1.5,3.3-3.3v-10.6c0-1.9-1.4-3.3-3.3-3.3h-10.3c-1.8,0-3.3,1.4-3.3,3.3v10.6
		C454.6,414.7,456,416.1,457.9,416.1z"/>
	<path fill="#006B8D" d="M545.6,321.2c-27.1,0-60.2-34.5-60.2-63.6c0-28.9,0-52.6,0-52.6H376.8c5.6,16.2,8.8,33.7,8.8,51.7
		c0,40.5-15.2,77.4-40.3,105.3h125.1c6.1,0,10.9,5,10.9,10.9v149.9c0,6.1-5,10.9-10.9,10.9H329c-6.1,0-10.9-4.9-10.9-10.9V386.2
		c-25.6,17.9-56.7,28.4-90.3,28.4c-8,0-16-0.6-23.7-1.8v249c0,31.3,25.4,56.8,56.8,56.8h277.7c31.3,0,56.8-25.4,56.8-56.8V321.2
		H545.6z M283,635.4h-18.6v-19.5H283V635.4z M355.2,595.8v39.5h-17.9v-27.9c0-2.7-0.1-5-0.2-6.9c-0.2-1.9-0.5-3.4-1.1-4.6
		c-0.6-1.2-1.5-2.1-2.7-2.6c-1.2-0.6-2.9-0.8-5.1-0.8c-1.8,0-3.4,0.3-5.1,1.1c-1.7,0.7-3.1,1.4-4.5,2.3v39.5h-17.9v-55.9h17.9v6.1
		c3.1-2.4,6.1-4.3,8.8-5.6c2.8-1.3,5.9-2,9.3-2c3.7,0,6.9,0.8,9.8,2.4c2.8,1.7,5,4,6.6,7.2c3.5-3,7.1-5.4,10.4-7.2
		c3.4-1.7,6.6-2.6,9.9-2.6c6.1,0,10.6,1.8,13.7,5.4c3.1,3.6,4.7,8.8,4.7,15.6v36.3H374v-27.9c0-2.8-0.1-5-0.2-7
		c-0.1-1.9-0.5-3.4-1.1-4.6c-0.6-1.2-1.4-2.1-2.7-2.6c-1.3-0.6-2.9-0.8-5.1-0.8c-1.5,0-2.9,0.3-4.4,0.8
		C358.9,593.7,357.2,594.6,355.2,595.8z M466.6,606.7c0,4.6-0.7,8.8-2.1,12.6s-3.3,6.9-5.6,9.3c-2.4,2.6-5,4.5-8.1,5.9s-6.2,2-9.7,2
		c-3.2,0-5.9-0.3-8.1-1s-4.5-1.6-6.8-2.9V656h-17.9v-76.3h17.9v5.8c2.8-2.2,5.6-4,8.4-5.3c2.9-1.3,6.1-2,9.9-2
		c7,0,12.4,2.5,16.2,7.7C464.7,590.8,466.6,597.8,466.6,606.7z M448.2,607c0-5.5-0.9-9.3-2.8-11.8c-1.9-2.4-4.8-3.7-8.8-3.7
		c-1.7,0-3.4,0.3-5.2,0.8c-1.8,0.5-3.4,1.3-5.1,2.2v28c1.2,0.5,2.4,0.8,3.8,0.9c1.3,0.2,2.7,0.2,4,0.2c4.7,0,8.2-1.3,10.6-4.1
		C447,616.8,448.2,612.7,448.2,607z M533.9,629c0,5.2-0.8,9.7-2.3,13.2c-1.5,3.6-3.6,6.4-6.2,8.4c-2.7,2-5.9,3.5-9.8,4.5
		c-3.8,0.9-8.1,1.3-12.9,1.3c-3.9,0-7.7-0.3-11.4-0.7c-3.8-0.5-7-1-9.8-1.7v-14h2.2c2.2,0.8,4.9,1.7,8,2.4c3.1,0.7,6,1.1,8.4,1.1
		c3.3,0,6-0.3,8.1-0.9c2.1-0.6,3.6-1.5,4.7-2.6c1-1.1,1.8-2.4,2.3-4c0.5-1.7,0.7-3.6,0.7-6v-1c-2.2,1.8-4.5,3.1-7.2,4.2
		c-2.6,1-5.6,1.5-8.8,1.5c-7.8,0-13.9-2.4-18.1-7.1c-4.2-4.7-6.4-11.9-6.4-21.5c0-4.6,0.7-8.6,1.9-11.9c1.3-3.4,3.1-6.2,5.5-8.8
		c2.2-2.4,4.9-4.1,8.1-5.4c3.2-1.3,6.5-1.9,9.8-1.9c3,0,5.7,0.3,8.2,1.1c2.4,0.7,4.7,1.7,6.7,2.9l0.7-2.5h17.4L533.9,629L533.9,629z
		 M515.9,617.8v-25.3c-1-0.4-2.3-0.8-3.8-1c-1.5-0.3-2.9-0.3-4-0.3c-4.7,0-8.2,1.3-10.6,4c-2.4,2.7-3.5,6.5-3.5,11.3
		c0,5.4,1,9.1,3,11.3c2,2.1,5,3.2,8.9,3.2c1.8,0,3.5-0.3,5.3-0.8C512.9,619.5,514.5,618.7,515.9,617.8z"/>
	<path fill="#006B8D" d="M331.2,523.7h10.3c1.8,0,3.3-1.5,3.3-3.3v-10.6c0-1.8-1.4-3.3-3.3-3.3h-10.3c-1.8,0-3.3,1.5-3.3,3.3v10.6
		C327.9,522.2,329.3,523.7,331.2,523.7z"/>
	<path fill="#006B8D" d="M331.2,496.8h10.3c1.8,0,3.3-1.4,3.3-3.3v-10.6c0-1.9-1.4-3.3-3.3-3.3h-10.3c-1.8,0-3.3,1.4-3.3,3.3v10.6
		C327.9,495.4,329.3,496.8,331.2,496.8z"/>
	<path fill="#006B8D" d="M331.2,470h10.3c1.8,0,3.3-1.4,3.3-3.3v-10.6c0-1.9-1.4-3.3-3.3-3.3h-10.3c-1.8,0-3.3,1.5-3.3,3.3v10.6
		C327.9,468.4,329.3,470,331.2,470z"/>
	<path fill="#006B8D" d="M331.2,443h10.3c1.8,0,3.3-1.5,3.3-3.3v-10.6c0-1.9-1.4-3.3-3.3-3.3h-10.3c-1.8,0-3.3,1.5-3.3,3.3v10.6
		C327.9,441.6,329.3,443,331.2,443z"/>
	<path fill="#006B8D" d="M227.5,145.3c61.5,0,111.5,50.1,111.5,111.5s-50.1,111.5-111.5,111.5S116,318.2,116,256.7
		S166,145.3,227.5,145.3 M227.5,123.3C154,123.3,94.1,183,94.1,256.8c0,73.7,59.7,133.4,133.4,133.4S361,330.6,361,256.8
		S301.2,123.3,227.5,123.3L227.5,123.3z"/>
	<path fill="#006B8D" d="M271.7,247.3H204v-23.1c0-6.5,2.3-12,6.9-16.7c4.6-4.6,10.1-6.9,16.7-6.9c6.6,0,12,2.3,16.7,6.9
		s6.9,10.1,6.9,16.7c0,1.5,0.6,3,1.8,4.2c1.2,1.2,2.5,1.8,4.2,1.8h5.8c1.5,0,3-0.6,4.2-1.8s1.8-2.5,1.8-4.2c0-11.3-4-21.1-12.1-29
		c-8.1-8.1-17.7-12.1-29-12.1c-11.3,0-21.1,4-29,12.1c-8.1,8.1-12.1,17.8-12.1,29v23.1h-3c-2.5,0-4.5,0.8-6.3,2.6
		c-1.7,1.7-2.6,3.8-2.6,6.3V322c0,2.5,0.8,4.5,2.6,6.3c1.7,1.7,3.8,2.6,6.3,2.6h88.4c2.5,0,4.5-0.8,6.3-2.6c1.7-1.7,2.6-3.8,2.6-6.3
		v-65.7c0-2.5-0.8-4.5-2.6-6.3C276.2,248.3,274.2,247.3,271.7,247.3z M234.6,290.5v17.3c0,3.5-2.9,6.3-6.3,6.3h-1.2
		c-3.5,0-6.3-2.9-6.3-6.3v-17.3c-3.7-2.3-6.2-6.4-6.2-11.1c0-7.3,5.8-13.1,13.1-13.1c7.3,0,13.1,5.8,13.1,13.1
		C240.6,284,238.2,288,234.6,290.5z"/>
</g>
</svg>
