<?xml version="1.0" encoding="utf-8"?>
<!-- Generator: Adobe Illustrator 18.0.0, SVG Export Plug-In . SVG Version: 6.00 Build 0)  -->
<!DOCTYPE svg PUBLIC "-//W3C//DTD SVG 1.1//EN" "http://www.w3.org/Graphics/SVG/1.1/DTD/svg11.dtd">
<svg version="1.1" id="Layer_1" xmlns="http://www.w3.org/2000/svg" xmlns:xlink="http://www.w3.org/1999/xlink" x="0px" y="0px"
	 viewBox="0 123.3 595.3 595.3" enable-background="new 0 123.3 595.3 595.3" xml:space="preserve" width="40px" height="40px">
<path fill="#006B8D" d="M551.8,298.7c24,0,43.5,0,43.5,0l-87-93.6v46.7C508.3,277.7,527.7,298.7,551.8,298.7z"/>
<path fill="#006B8D" d="M457.9,496.1h10.2c1.8,0,3.3-1.4,3.3-3.3v-10.5c0-1.8-1.4-3.3-3.3-3.3h-10.2c-1.8,0-3.3,1.4-3.3,3.3v10.5
	C454.6,494.7,456.1,496.1,457.9,496.1z"/>
<path fill="#006B8D" d="M359.4,438.4h80.7c1.8,0,3.3-1.5,3.3-3.3v-52.3c0-1.8-1.4-3.3-3.3-3.3h-80.7c-1.8,0-3.3,1.4-3.3,3.3v52.3
	C356.1,436.9,357.5,438.4,359.4,438.4z"/>
<path fill="#006B8D" d="M457.9,523h10.2c1.8,0,3.3-1.5,3.3-3.3v-10.6c0-1.8-1.4-3.3-3.3-3.3h-10.2c-1.8,0-3.3,1.4-3.3,3.3v10.6
	C454.6,521.6,456.1,523,457.9,523z"/>
<path fill="#006B8D" d="M457.9,469.3h10.2c1.8,0,3.3-1.4,3.3-3.3v-10.6c0-1.8-1.4-3.3-3.3-3.3h-10.2c-1.8,0-3.3,1.4-3.3,3.3V466
	C454.6,467.9,456.1,469.3,457.9,469.3z"/>
<path fill="#006B8D" d="M359.4,515h80.7c1.8,0,3.3-1.4,3.3-3.3v-48.4c0-1.8-1.4-3.3-3.3-3.3h-80.7c-1.8,0-3.3,1.4-3.3,3.3v48.4
	C356.1,513.5,357.5,515,359.4,515z"/>
<path fill="#006B8D" d="M457.9,388.6h10.2c1.8,0,3.3-1.4,3.3-3.3v-10.6c0-1.8-1.4-3.3-3.3-3.3h-10.2c-1.8,0-3.3,1.4-3.3,3.3v10.6
	C454.6,387.2,456.1,388.6,457.9,388.6z"/>
<path fill="#006B8D" d="M457.9,442.4h10.2c1.8,0,3.3-1.5,3.3-3.3v-10.6c0-1.8-1.4-3.3-3.3-3.3h-10.2c-1.8,0-3.3,1.5-3.3,3.3v10.6
	C454.6,440.9,456.1,442.4,457.9,442.4z"/>
<path fill="#006B8D" d="M457.9,415.5h10.2c1.8,0,3.3-1.5,3.3-3.3v-10.6c0-1.8-1.4-3.3-3.3-3.3h-10.2c-1.8,0-3.3,1.4-3.3,3.3v10.6
	C454.6,414.1,456.1,415.5,457.9,415.5z"/>
<path fill="#006B8D" d="M331.2,415.5h10.2c1.8,0,3.3-1.5,3.3-3.3v-10.6c0-1.8-1.4-3.3-3.3-3.3h-10.2c-1.8,0-3.3,1.4-3.3,3.3v10.6
	C328,414.1,329.5,415.5,331.2,415.5z"/>
<path fill="#006B8D" d="M331.2,523h10.2c1.8,0,3.3-1.5,3.3-3.3v-10.6c0-1.8-1.4-3.3-3.3-3.3h-10.2c-1.8,0-3.3,1.4-3.3,3.3v10.6
	C328,521.6,329.5,523,331.2,523z"/>
<path fill="#006B8D" d="M331.2,496.1h10.2c1.8,0,3.3-1.4,3.3-3.3v-10.5c0-1.8-1.4-3.3-3.3-3.3h-10.2c-1.8,0-3.3,1.4-3.3,3.3v10.5
	C328,494.7,329.5,496.1,331.2,496.1z"/>
<path fill="#006B8D" d="M545.9,321.2c-27.1,0-60.3-34.6-60.3-63.5s0-52.6,0-52.6H260.9c-31.3,0.2-56.7,25.6-56.7,56.9v150.9v249
	c0,31.3,25.4,56.7,56.7,56.7h277.6c31.3,0,56.7-25.4,56.7-56.7V321.2H545.9z M318.1,372.4c0-6,4.9-10.9,11-10.9h141.3
	c6,0,11,4.9,11,10.9v149.9c0,6-4.9,10.9-11,10.9H329.1c-6,0-11-4.9-11-10.9V372.4L318.1,372.4z M283.2,635.3h-18.6v-19.6h18.6V635.3
	z M355.3,595.7v39.6h-17.9v-27.9c0-2.7-0.1-5.1-0.2-7c-0.1-1.9-0.5-3.5-1.1-4.7c-0.6-1.2-1.5-2-2.7-2.6c-1.2-0.5-2.9-0.8-5.1-0.8
	c-1.8,0-3.5,0.3-5.1,1.1c-1.6,0.7-3.2,1.4-4.5,2.2v39.6h-17.9v-55.8h17.9v6.2c3.1-2.4,6-4.3,8.9-5.7c2.8-1.4,5.9-2,9.3-2
	c3.7,0,6.9,0.8,9.7,2.4s5,4.1,6.6,7.2c3.5-3,7-5.4,10.4-7.1c3.4-1.7,6.7-2.6,9.9-2.6c6,0,10.6,1.8,13.7,5.5
	c3.2,3.6,4.7,8.8,4.7,15.6v36.3H374v-27.9c0-2.8-0.1-5.1-0.2-7c-0.1-1.9-0.5-3.4-1.1-4.6c-0.6-1.2-1.4-2-2.7-2.6
	c-1.2-0.5-3-0.8-5.2-0.8c-1.5,0-3,0.3-4.4,0.8C359.1,593.7,357.4,594.5,355.3,595.7z M466.8,606.6c0,4.6-0.7,8.8-2.1,12.6
	c-1.4,3.8-3.3,6.9-5.5,9.3c-2.4,2.6-5.1,4.5-8.1,5.8c-3,1.3-6.2,2-9.7,2c-3.2,0-5.8-0.3-8.1-1.1c-2.2-0.7-4.5-1.6-6.8-2.9v23.3
	h-18.1v-76.2h17.9v5.8c2.8-2.2,5.6-3.9,8.4-5.3c2.9-1.4,6.2-2,9.9-2c7,0,12.4,2.6,16.2,7.7C464.9,590.7,466.8,597.7,466.8,606.6z
	 M448.4,607c0-5.5-0.9-9.4-2.8-11.8c-1.8-2.4-4.8-3.7-8.8-3.7c-1.7,0-3.4,0.3-5.2,0.8s-3.5,1.2-5.1,2.2v28.1
	c1.2,0.5,2.5,0.8,3.8,0.9c1.4,0.1,2.7,0.2,4,0.2c4.7,0,8.3-1.4,10.6-4.1C447.2,616.7,448.4,612.5,448.4,607z M534,628.9
	c0,5.3-0.7,9.7-2.2,13.2c-1.5,3.5-3.6,6.4-6.2,8.4c-2.7,2-5.9,3.5-9.7,4.5s-8.1,1.4-12.9,1.4c-3.9,0-7.7-0.3-11.4-0.7
	c-3.7-0.5-7-1.1-9.8-1.7v-14h2.2c2.2,0.9,4.9,1.6,8,2.4c3.2,0.7,6,1.1,8.5,1.1c3.3,0,6-0.3,8.1-0.9c2-0.6,3.7-1.5,4.7-2.6
	c1.1-1.1,1.8-2.4,2.2-4.1c0.5-1.6,0.7-3.7,0.7-6v-1.1c-2.2,1.8-4.5,3.2-7.2,4.2c-2.6,1.1-5.5,1.5-8.7,1.5c-7.8,0-13.9-2.4-18.1-7.1
	c-4.3-4.7-6.4-11.9-6.4-21.5c0-4.6,0.7-8.6,1.9-12c1.2-3.4,3.1-6.2,5.5-8.7c2.2-2.3,4.9-4.1,8.1-5.5c3.2-1.3,6.4-2,9.8-2
	c3,0,5.8,0.3,8.2,1.1c2.5,0.7,4.7,1.7,6.7,3l0.7-2.5H534V628.9z M516.1,617.7v-25.3c-1.1-0.5-2.3-0.8-3.7-1.1
	c-1.5-0.3-2.8-0.4-4-0.4c-4.7,0-8.2,1.4-10.6,4.1c-2.4,2.7-3.5,6.5-3.5,11.3c0,5.4,1,9.1,3,11.2c2,2.1,5,3.2,8.9,3.2
	c1.8,0,3.5-0.3,5.3-0.9C513.1,619.4,514.7,618.7,516.1,617.7z"/>
<path fill="#006B8D" d="M331.2,469.3h10.2c1.8,0,3.3-1.4,3.3-3.3v-10.6c0-1.8-1.4-3.3-3.3-3.3h-10.2c-1.8,0-3.3,1.4-3.3,3.3V466
	C328,467.9,329.5,469.3,331.2,469.3z"/>
<path fill="#006B8D" d="M331.2,388.6h10.2c1.8,0,3.3-1.4,3.3-3.3v-10.6c0-1.8-1.4-3.3-3.3-3.3h-10.2c-1.8,0-3.3,1.4-3.3,3.3v10.6
	C328,387.2,329.5,388.6,331.2,388.6z"/>
<path fill="#006B8D" d="M331.2,442.4h10.2c1.8,0,3.3-1.5,3.3-3.3v-10.6c0-1.8-1.4-3.3-3.3-3.3h-10.2c-1.8,0-3.3,1.5-3.3,3.3v10.6
	C328,440.9,329.5,442.4,331.2,442.4z"/>
</svg>
