<?xml version="1.0" encoding="utf-8"?>
<!-- Generator: Adobe Illustrator 18.0.0, SVG Export Plug-In . SVG Version: 6.00 Build 0)  -->
<!DOCTYPE svg PUBLIC "-//W3C//DTD SVG 1.1//EN" "http://www.w3.org/Graphics/SVG/1.1/DTD/svg11.dtd">
<svg version="1.1" id="Layer_1" xmlns="http://www.w3.org/2000/svg" xmlns:xlink="http://www.w3.org/1999/xlink" x="0px" y="0px"
	 viewBox="0 123.3 595.3 595.3" enable-background="new 0 123.3 595.3 595.3" xml:space="preserve" width="40px" height="40px">
<g>
	<g>
		<path fill="#006B8D" d="M227.9,145.2c61.4,0,111.5,50,111.5,111.5s-50,111.5-111.5,111.5s-111.5-50-111.5-111.5
			S166.3,145.2,227.9,145.2 M227.9,123.3c-73.6,0-133.4,59.7-133.4,133.5c0,73.7,59.6,133.4,133.4,133.4s133.4-59.6,133.4-133.4
			S301.5,123.3,227.9,123.3L227.9,123.3z"/>
	</g>
	<g>
		<path fill="#006B8D" d="M272,247.3h-67.7v-23.1c0-6.5,2.3-12,6.9-16.7c4.6-4.6,10.1-6.9,16.7-6.9s12,2.3,16.7,6.9
			c4.7,4.6,6.9,10.1,6.9,16.7c0,1.5,0.6,3,1.8,4.2s2.5,1.8,4.2,1.8h5.8c1.5,0,3-0.6,4.2-1.8c1.2-1.2,1.8-2.5,1.8-4.2
			c0-11.3-4-21.1-12.1-29c-8.1-8.1-17.7-12.1-29-12.1s-21.1,4-29,12.1c-8.1,8.1-12.1,17.7-12.1,29v23.1h-3c-2.5,0-4.5,0.8-6.3,2.6
			c-1.7,1.7-2.6,3.8-2.6,6.3v65.7c0,2.5,0.8,4.5,2.6,6.3c1.7,1.7,3.8,2.6,6.3,2.6h88.4c2.5,0,4.5-0.8,6.3-2.6
			c1.7-1.7,2.6-3.8,2.6-6.3v-65.7c0-2.5-0.8-4.5-2.6-6.3C276.5,248.2,274.5,247.3,272,247.3z M234.9,290.4v17.3
			c0,3.5-2.9,6.3-6.3,6.3h-1.2c-3.5,0-6.3-2.9-6.3-6.3v-17.3c-3.7-2.3-6.2-6.4-6.2-11.1c0-7.3,5.8-13.1,13.1-13.1
			c7.3,0,13.1,5.8,13.1,13.1C240.9,283.9,238.5,288,234.9,290.4z"/>
	</g>
	<g>
		<path fill="#006B8D" d="M551.6,298.7c23.9,0,43.5,0,43.5,0l-86.9-93.4v46.7C508.3,277.9,527.7,298.7,551.6,298.7z"/>
		<g>
			<path fill="#006B8D" d="M545.8,321.3c-27.1,0-60.2-34.4-60.2-63.6c0-28.9,0-52.5,0-52.5H377c5.6,16.2,8.7,33.6,8.7,51.6
				c0,87.2-70.7,157.8-157.8,157.8c-8,0-16-0.6-23.7-1.8v249c0,31.3,25.4,56.7,56.7,56.7h277.6c31.3,0,56.7-25.4,56.7-56.7V321.3
				H545.8z M455.2,514.7c-21.2,4.5-41.3-6-45-23.5c-3.7-17.5,10.5-35.2,31.7-39.8c7.7-1.7,15.4-1.3,22,0.7v-67.4l-75.3,15.8v99.2
				c0,0.7-0.1,1.4-0.2,2c-0.2,15.4-13.5,29.6-32.3,33.7c-21.2,4.5-41.3-6-45-23.5c-3.7-17.4,10.5-35.2,31.7-39.8
				c7.7-1.7,15.4-1.3,22,0.7v-82.1c0-5.6,3.9-10.5,9.4-11.7l99.3-21c0.4-0.1,0.7-0.1,1.2-0.1s0.8-0.1,1.2-0.1c0.1,0,0.4,0,0.5,0.1
				c0.6,0,1.2,0,1.8,0.1c0.4,0.1,0.7,0.2,1.1,0.4c0.4,0.2,0.7,0.2,1.1,0.4c0.4,0.1,0.8,0.4,1.2,0.6c0.2,0.1,0.6,0.2,0.8,0.5
				c0.4,0.2,0.6,0.5,1,0.7c0.2,0.2,0.6,0.5,0.8,0.7s0.5,0.6,0.7,0.8c0.2,0.2,0.5,0.6,0.7,0.8c0.2,0.4,0.5,0.8,0.7,1.2
				c0.1,0.2,0.4,0.6,0.5,0.8c0.2,0.6,0.5,1.2,0.6,1.9c0,0.1,0.1,0.2,0.1,0.4c0.1,0.4,0.1,0.8,0.1,1.3c0.2,0.6,0.2,1,0.2,1.4v108.8
				c0,0.7-0.1,1.4-0.2,2C487.2,496.4,474,510.7,455.2,514.7z M302.4,635.9h-18.6v-19.5h18.6V635.9z M377.1,607.9
				c0,9.2-2.7,16.4-8.1,21.7c-5.4,5.2-12.9,8-22.6,8c-9.6,0-17.3-2.6-22.6-8c-5.4-5.2-8.1-12.5-8.1-21.7c0-9.3,2.7-16.5,8.1-21.8
				c5.4-5.3,12.9-7.9,22.5-7.9c9.8,0,17.3,2.6,22.6,8C374.5,591.5,377.1,598.8,377.1,607.9z M355.1,621.5c1.2-1.4,2-3.1,2.6-5.1
				c0.6-2,0.8-4.8,0.8-8.3c0-3.3-0.4-6.1-1-8.2c-0.6-2.3-1.4-4-2.5-5.4c-1.1-1.4-2.4-2.4-3.8-2.9c-1.5-0.6-3.1-0.8-4.9-0.8
				s-3.2,0.2-4.6,0.7c-1.3,0.5-2.6,1.4-3.8,2.7c-1.1,1.3-2,3.1-2.6,5.4c-0.6,2.3-1,5.1-1,8.5c0,3.1,0.2,5.7,0.8,8
				c0.6,2.3,1.4,4,2.5,5.4c1.1,1.3,2.4,2.3,3.8,2.9c1.4,0.6,3.2,1,5,1c1.7,0,3.2-0.2,4.6-0.8C352.4,624,354.1,622.8,355.1,621.5z
				 M444.5,629.5c0,5.2-0.7,9.6-2.3,13.2c-1.5,3.6-3.6,6.4-6.3,8.5c-2.7,2-6,3.6-9.8,4.4c-3.8,1-8.1,1.3-12.9,1.3
				c-3.9,0-7.7-0.2-11.4-0.7c-3.7-0.5-7-1.1-9.8-1.7v-13.9h2.1c2.1,0.8,4.9,1.7,8,2.4c3.1,0.7,6,1.1,8.5,1.1c3.3,0,6-0.4,8.1-1
				c2-0.6,3.7-1.4,4.8-2.6c1.1-1.1,1.8-2.4,2.3-4c0.5-1.7,0.7-3.7,0.7-6v-1.1c-2.1,1.8-4.5,3.1-7.1,4.2c-2.6,1.1-5.5,1.5-8.7,1.5
				c-7.9,0-13.8-2.4-18.1-7c-4.3-4.8-6.3-11.9-6.3-21.5c0-4.6,0.6-8.6,1.9-11.9s3.1-6.3,5.5-8.8c2.1-2.4,4.9-4.2,8.1-5.5
				c3.2-1.3,6.4-1.9,9.8-1.9c3,0,5.7,0.4,8.2,1.1c2.5,0.7,4.8,1.7,6.8,3l0.6-2.5h17.4L444.5,629.5L444.5,629.5z M426.4,618.3v-25.4
				c-1.1-0.5-2.3-0.7-3.8-1.1c-1.5-0.2-2.9-0.4-4-0.4c-4.6,0-8.2,1.3-10.6,4c-2.4,2.7-3.6,6.4-3.6,11.3c0,5.4,1,9.2,3,11.2
				c2,2.1,5,3.2,8.9,3.2c1.8,0,3.6-0.2,5.2-0.8C423.4,620,425,619.3,426.4,618.3z M515.7,629.5c0,5.2-0.7,9.6-2.3,13.2
				c-1.5,3.6-3.6,6.4-6.3,8.5c-2.7,2.1-6,3.6-9.8,4.4c-3.8,1-8.1,1.3-12.9,1.3c-3.9,0-7.7-0.2-11.4-0.7c-3.7-0.5-7-1.1-9.8-1.7
				v-13.9h2.1c2.1,0.8,4.9,1.7,8,2.4s6,1.1,8.5,1.1c3.3,0,6-0.4,8.1-1c2-0.6,3.7-1.4,4.8-2.6c1.1-1.1,1.8-2.4,2.3-4
				c0.5-1.7,0.7-3.7,0.7-6v-1.1c-2.1,1.8-4.5,3.1-7.1,4.2c-2.6,1.1-5.5,1.5-8.7,1.5c-7.9,0-13.8-2.4-18.1-7
				c-4.3-4.8-6.3-11.9-6.3-21.5c0-4.6,0.6-8.6,1.9-11.9c1.3-3.3,3.1-6.3,5.5-8.8c2.1-2.4,4.9-4.2,8.1-5.5s6.4-1.9,9.8-1.9
				c3,0,5.7,0.4,8.2,1.1c2.5,0.7,4.8,1.7,6.8,3l0.6-2.5h17.4v49.4H515.7z M497.8,618.3v-25.4c-1.1-0.5-2.3-0.7-3.8-1.1
				c-1.5-0.2-2.9-0.4-4-0.4c-4.6,0-8.2,1.3-10.6,4c-2.4,2.7-3.6,6.4-3.6,11.3c0,5.4,1,9.2,3,11.2c2,2.1,5,3.2,8.9,3.2
				c1.8,0,3.6-0.2,5.2-0.8C494.7,620,496.4,619.3,497.8,618.3z"/>
		</g>
	</g>
</g>
</svg>
