<?xml version="1.0" encoding="utf-8"?>
<!-- Generator: Adobe Illustrator 18.0.0, SVG Export Plug-In . SVG Version: 6.00 Build 0)  -->
<!DOCTYPE svg PUBLIC "-//W3C//DTD SVG 1.1//EN" "http://www.w3.org/Graphics/SVG/1.1/DTD/svg11.dtd">
<svg version="1.1" id="Layer_1" xmlns="http://www.w3.org/2000/svg" xmlns:xlink="http://www.w3.org/1999/xlink" x="0px" y="0px"
	 viewBox="0 123.3 595.3 595.3" enable-background="new 0 123.3 595.3 595.3" xml:space="preserve" width="40px" height="40px">
<g>
	<path fill="#006B8D" d="M551.8,298.6c23.9,0,43.5,0,43.5,0l-86.9-93.4V252C508.4,277.8,527.8,298.6,551.8,298.6z"/>
	<path fill="#006B8D" d="M490,591.3c-4.6,0-8.2,1.3-10.6,4c-2.4,2.7-3.6,6.4-3.6,11.3c0,5.4,1,9.2,3,11.2c2,2.1,5,3.2,8.9,3.2
		c1.8,0,3.6-0.2,5.2-0.8s3.3-1.3,4.8-2.3v-25.4c-1.1-0.5-2.3-0.7-3.8-1.1C492.5,591.5,491.2,591.3,490,591.3z"/>
	<path fill="#006B8D" d="M485.6,257.7c0-28.9,0-52.5,0-52.5h-0.1c0-0.1,0.1-0.1,0.1-0.1H261c-31.3,0.1-56.7,25.5-56.7,56.8v150.9
		v26.7v222.3c0,31.3,25.4,56.7,56.7,56.7h277.6c31.3,0,56.7-25.4,56.7-56.7V321.1H546C518.7,321.1,485.6,286.7,485.6,257.7z
		 M302.5,635.7h-18.6v-19.6h18.6V635.7z M369.2,629.6c-5.4,5.2-12.9,8-22.6,8c-9.6,0-17.3-2.6-22.6-8c-5.4-5.2-8.1-12.5-8.1-21.7
		c0-9.3,2.7-16.5,8.1-21.8c5.4-5.2,12.9-7.9,22.5-7.9c9.8,0,17.3,2.6,22.6,8c5.4,5.4,8,12.5,8,21.8
		C377.2,617.3,374.6,624.2,369.2,629.6z M444.6,629.3c0,5.2-0.7,9.6-2.3,13.2c-1.5,3.6-3.6,6.4-6.3,8.5c-2.7,2-6,3.6-9.8,4.4
		c-3.8,1-8.1,1.3-12.9,1.3c-3.9,0-7.7-0.2-11.4-0.7c-3.7-0.5-7-1.1-9.8-1.7v-13.9h2.1c2.1,0.8,4.9,1.7,8,2.4c3.1,0.7,6,1.1,8.5,1.1
		c3.3,0,6-0.4,8.1-1c2-0.6,3.7-1.4,4.8-2.6c1.1-1.1,1.8-2.4,2.3-4c0.5-1.7,0.7-3.7,0.7-6v-1.1c-2.1,1.8-4.5,3.1-7.1,4.2
		c-2.6,1.1-5.5,1.5-8.7,1.5c-7.9,0-13.8-2.4-18.1-7c-4.3-4.8-6.3-11.9-6.3-21.5c0-4.6,0.6-8.6,1.9-11.9s3.1-6.3,5.5-8.8
		c2.1-2.4,4.9-4.2,8.1-5.5c3.2-1.3,6.4-1.9,9.8-1.9c3,0,5.7,0.4,8.2,1.1c2.5,0.7,4.8,1.7,6.8,3l0.6-2.5h17.4L444.6,629.3
		L444.6,629.3z M410.3,491.1c-3.7-17.5,10.5-35.2,31.7-39.8c7.7-1.7,15.4-1.3,22,0.7v-67.2l-75.2,15.8v99.2c0,0.7-0.1,1.4-0.2,2
		c-0.2,15.4-13.5,29.6-32.3,33.7c-21.2,4.5-41.3-6-45-23.5c-3.7-17.4,10.5-35.2,31.7-39.8c7.7-1.7,15.4-1.3,22,0.7v-82
		c0-5.6,3.9-10.5,9.4-11.7l99.3-21c0.4-0.1,0.7-0.1,1.2-0.1s0.8-0.1,1.2-0.1c0.1,0,0.4,0,0.5,0.1c0.6,0,1.2,0,1.8,0.1
		c0.4,0.1,0.7,0.2,1.1,0.4c0.4,0.1,0.7,0.2,1.1,0.4s0.8,0.4,1.2,0.6c0.2,0.1,0.6,0.2,0.8,0.5c0.4,0.2,0.6,0.5,1,0.7
		c0.2,0.2,0.6,0.5,0.8,0.7s0.5,0.6,0.7,0.8c0.2,0.2,0.5,0.6,0.7,0.8c0.2,0.4,0.5,0.8,0.7,1.2c0.1,0.2,0.4,0.6,0.5,0.8
		c0.2,0.6,0.5,1.2,0.6,1.9c0,0.1,0.1,0.2,0.1,0.4c0.1,0.4,0.1,0.8,0.1,1.3c0.2,0.6,0.2,1,0.2,1.4v108.9c0,0.7-0.1,1.4-0.2,2
		c-0.2,15.4-13.5,29.6-32.3,33.7C434.1,519.2,414,508.7,410.3,491.1z M515.8,629.3c0,5.2-0.7,9.6-2.3,13.2c-1.5,3.6-3.6,6.4-6.3,8.5
		c-2.7,2-6,3.6-9.8,4.4c-3.8,1-8.1,1.3-12.9,1.3c-3.9,0-7.7-0.2-11.4-0.7c-3.7-0.5-7-1.1-9.8-1.7v-13.9h2.1c2.1,0.8,4.9,1.7,8,2.4
		c3.1,0.7,6,1.1,8.5,1.1c3.3,0,6-0.4,8.1-1c2-0.6,3.7-1.4,4.8-2.6c1.1-1.1,1.8-2.4,2.3-4c0.5-1.7,0.7-3.7,0.7-6v-1.1
		c-2.1,1.8-4.5,3.1-7.1,4.2c-2.6,1.1-5.5,1.5-8.7,1.5c-7.9,0-13.8-2.4-18.1-7c-4.3-4.8-6.3-11.9-6.3-21.5c0-4.6,0.6-8.6,1.9-11.9
		c1.3-3.3,3.1-6.3,5.5-8.8c2.1-2.4,4.9-4.2,8.1-5.5c3.2-1.3,6.4-1.9,9.8-1.9c3,0,5.7,0.4,8.2,1.1s4.8,1.7,6.8,3l0.6-2.5h17.4v49.4
		H515.8z"/>
	<path fill="#006B8D" d="M418.7,591.3c-4.6,0-8.2,1.3-10.6,4s-3.6,6.4-3.6,11.3c0,5.4,1,9.2,3,11.2c2,2.1,5,3.2,8.9,3.2
		c1.8,0,3.6-0.2,5.2-0.8c1.6-0.6,3.3-1.3,4.8-2.3v-25.4c-1.1-0.5-2.3-0.7-3.8-1.1C421.3,591.5,419.9,591.3,418.7,591.3z"/>
	<path fill="#006B8D" d="M355.3,594.3c-1.1-1.3-2.4-2.4-3.8-2.9c-1.5-0.6-3.1-0.8-4.9-0.8s-3.2,0.2-4.6,0.7
		c-1.3,0.5-2.6,1.4-3.8,2.7c-1.1,1.3-2,3.1-2.6,5.4c-0.6,2.3-1,5.1-1,8.5c0,3.1,0.2,5.7,0.8,8c0.6,2.3,1.4,4,2.5,5.4
		c1.1,1.3,2.4,2.3,3.8,2.9s3.2,1,5,1c1.7,0,3.2-0.2,4.6-0.8c1.4-0.6,2.7-1.4,3.8-2.7c1.2-1.4,2-3.1,2.6-5.1c0.6-2,0.8-4.8,0.8-8.3
		c0-3.3-0.4-6.1-1-8.2C357.2,597.4,356.4,595.6,355.3,594.3z"/>
</g>
</svg>
