<?xml version="1.0" encoding="utf-8"?>
<!-- Generator: Adobe Illustrator 18.0.0, SVG Export Plug-In . SVG Version: 6.00 Build 0)  -->
<!DOCTYPE svg PUBLIC "-//W3C//DTD SVG 1.1//EN" "http://www.w3.org/Graphics/SVG/1.1/DTD/svg11.dtd">
<svg version="1.1" id="Layer_1" xmlns="http://www.w3.org/2000/svg" xmlns:xlink="http://www.w3.org/1999/xlink" x="0px" y="0px"
	 viewBox="0 123.3 595.3 595.3" enable-background="new 0 123.3 595.3 595.3" xml:space="preserve" width="40px" height="40px">
<g>
	<g>
		<path fill="#006B8D" d="M228.4,145.2c61.4,0,111.5,50,111.5,111.5s-50,111.5-111.5,111.5S117,318.1,117,256.7
			S166.9,145.2,228.4,145.2 M228.4,123.3C154.8,123.3,95,182.9,95,256.7C95,330.3,154.7,390,228.4,390s133.4-59.5,133.4-133.3
			C361.7,183,302,123.3,228.4,123.3L228.4,123.3z"/>
	</g>
	<g>
		<path fill="#006B8D" d="M272.5,247.3h-67.6v-23.1c0-6.5,2.3-12,6.9-16.7c4.6-4.6,10.1-6.9,16.7-6.9s12,2.3,16.7,6.9
			c4.5,4.5,6.8,10,6.9,16.4c0,0.1,0-0.1,0,0c0,1.5,0.6,3,1.8,4.2c1.2,1.2,2.5,1.8,4.2,1.8h5.8c1.5,0,3-0.6,4.2-1.8
			c1.2-1.2,1.8-2.5,1.8-4.2c0-0.1,0,0.1,0,0c-0.1-11.2-4-20.8-12.1-28.8c-8.1-8.1-17.7-12.1-29-12.1s-21.1,4-29,12.1
			c-8.1,8.1-12.1,17.7-12.1,29v23.1h-3c-2.5,0-4.5,0.8-6.3,2.6c-1.7,1.7-2.6,3.8-2.6,6.3v65.6c0,2.5,0.8,4.5,2.6,6.3
			c1.7,1.7,3.8,2.6,6.3,2.6h88c2.5,0,4.5-0.8,6.3-2.6c1.7-1.7,2.6-3.8,2.6-6.3v-65.6c0-2.5-0.8-4.5-2.6-6.3
			C277,248.2,275,247.3,272.5,247.3z M235.3,290.4v17.3c0,3.5-2.9,6.3-6.3,6.3h-1.2c-3.5,0-6.3-2.9-6.3-6.3v-17.3
			c-3.7-2.3-6.2-6.4-6.2-11.1c0-7.3,5.8-13.1,13.1-13.1c7.3,0,13.1,5.8,13.1,13.1C241.4,283.9,239,288,235.3,290.4z"/>
	</g>
	<g>
		<path fill="#006B8D" d="M551.7,298.9c23.9,0,43.5,0,43.5,0l-86.8-93.3v46.7C508.3,278.1,527.7,298.9,551.7,298.9z"/>
		<g>
			<path fill="none" d="M344.3,514.4l1.8-6.8c25.5-12.4,57.5-16.4,80.6-17.5c11.9,8.9,23.8,17,35.2,24.2l0.4,0.2
				c0.5,0.2,5.6,2.7,11.4,2.7c8.5,0,14.6-5.1,16.9-14.2l0.1-0.6c0.6-5.1-0.7-9.8-3.8-13.3c-6.4-7.6-18.6-8.3-19.6-8.3
				c-0.4,0-9.8-0.8-24-0.8c-4.5,0-9,0.1-13.5,0.2c-28.3-21.2-51.6-42.5-63.9-54.4c0.2-1.3,0.4-2.3,0.5-3.1
				c1.7-17.3-0.1-28.9-5.4-34.6c-3.5-3.8-8.5-5-13.7-3.6c-3.2,0.8-9.3,3.9-11.2,10.4c-2.1,7,1.3,15.6,10.2,25.6
				c0.1,0.1,3.2,3.3,8.7,8.7c-3.6,17.1-13,54.1-17.5,71.8c-10.7,5.7-19.6,12.6-26.5,20.5l-0.5,0.5l-0.2,0.6c-0.7,1.4-4,9.3-1.5,15.5
				c1.2,2.7,3.3,4.9,6.3,6l0.8,0.2c0,0,0.7,0.1,2,0.1C323.3,544.3,337,541.3,344.3,514.4z M443.1,489.9c13.9,0,23.1,0.8,23.5,0.8
				c2.4,0.1,9.6,1.2,12.7,4.9c1.2,1.4,1.7,3.2,1.4,5.5c-1.5,5.7-4.4,6.4-7.1,6.4c-3.1,0-6.1-1.3-6.8-1.7c-7.9-4.9-15.8-10.2-23.9-16
				C443,489.9,443,489.9,443.1,489.9z M353.6,413.6c-8.6-9.6-8.5-14.4-8-16c0.8-2.6,4.3-3.7,4.3-3.7c1.7-0.5,2.7-0.5,3.7,0.6
				c2.1,2.4,3.9,9.4,3.1,22.3C354.7,414.8,353.6,413.6,353.6,413.6z M349.4,495c4.4-16.9,10.6-41.7,14.2-57.6l0.1,0.1v-0.1
				c11.5,10.8,29.3,26.9,50.6,43.5l-0.2,0.1l0.4,0.2c-20,1.7-43.9,5.7-65.1,14.4V495z M318,534.6c-0.1-0.1-0.1-0.1-0.1-0.2
				c-0.6-1.3,0.1-4.5,1.1-6.9c4.2-4.6,9.2-8.9,15-12.7C328.2,533,320.1,534.5,318,534.6z"/>
			<path fill="#006B8D" d="M414.1,480.9l0.2-0.1c-21.3-16.5-39.1-32.6-50.6-43.5v0.1l-0.1-0.1c-3.6,16-9.8,40.7-14.2,57.6l-0.1,0.6
				c21.2-8.7,45.1-12.7,65.1-14.4L414.1,480.9z"/>
			<path fill="#006B8D" d="M353.6,394.5c-1-1.1-2-1.1-3.7-0.6c0,0-3.5,1.1-4.3,3.7c-0.5,1.5-0.6,6.3,8,16c0,0,1.1,1.2,3.1,3.2
				C357.5,403.9,355.7,396.9,353.6,394.5z"/>
			<path fill="#006B8D" d="M318.9,527.5c-1,2.4-1.7,5.6-1.1,6.9c0,0.1,0,0.1,0.1,0.2c2.1-0.1,10.2-1.7,16-19.9
				C328.1,518.6,323.1,522.9,318.9,527.5z"/>
			<path fill="#006B8D" d="M473.6,507.5c2.7,0,5.6-0.7,7.1-6.4c0.2-2.3-0.2-4-1.4-5.5c-3.1-3.7-10.4-4.8-12.7-4.9
				c-0.4,0-9.5-0.8-23.5-0.8c-0.1,0-0.1,0-0.2,0c8.1,5.7,16.1,11.1,23.9,16C467.5,506.2,470.5,507.5,473.6,507.5z"/>
			<path fill="#006B8D" d="M433.6,591.7c-4.6,0-8.2,1.4-10.6,4.4c-2.4,3-3.6,7-3.6,12.3c0,5.5,1,9.4,2.9,11.9s4.9,3.7,9,3.7
				c1.7,0,3.3-0.4,5.1-1c1.9-0.6,3.5-1.4,4.9-2.4v-27.4c-1.3-0.5-2.6-1-3.9-1.2C436,591.8,434.8,591.7,433.6,591.7z"/>
			<path fill="#006B8D" d="M362.2,592.1c-1.7,0-3.5,0.2-5.2,0.7c-1.8,0.5-3.5,1.2-5.1,2.3v28c1.2,0.5,2.5,0.7,3.8,1
				c1.3,0.1,2.7,0.2,4,0.2c4.8,0,8.2-1.4,10.6-4.2c2.3-2.7,3.5-6.9,3.5-12.5c0-5.5-1-9.4-2.7-11.8
				C369.1,593.3,366.3,592.1,362.2,592.1z"/>
			<path fill="#006B8D" d="M545.9,321.4c-27.1,0-60.2-34.5-60.2-63.5c0-28.9,0-52.5,0-52.5H377.1c5.6,16.2,8.7,33.6,8.7,51.6
				c0,87.1-70.6,157.8-157.8,157.8c-8,0-16-0.6-23.7-1.8v248.9c0,31.3,25.4,56.7,56.7,56.7h277.5c31.3,0,56.7-25.4,56.7-56.7V321.4
				H545.9z M316.5,636h-18.6v-19.5h18.6V636z M315.8,544.2L315,544c-3-1.1-5.1-3.2-6.3-6c-2.5-6.2,0.8-14,1.5-15.5l0.2-0.6l0.5-0.5
				c6.9-7.9,15.8-14.8,26.5-20.5c4.5-17.7,13.9-54.6,17.5-71.8c-5.5-5.4-8.6-8.6-8.7-8.7c-8.9-10-12.4-18.6-10.2-25.6
				c1.9-6.4,8-9.5,11.2-10.4c5.2-1.4,10.2-0.2,13.7,3.6c5.2,5.7,7,17.4,5.4,34.6c-0.1,0.8-0.2,1.8-0.5,3.1
				c12.4,11.9,35.6,33.2,63.9,54.4c4.4-0.1,8.9-0.2,13.5-0.2c14.3,0,23.7,0.8,24,0.8c1.1,0,13.2,0.7,19.6,8.3
				c3.1,3.6,4.4,8.2,3.8,13.3l-0.1,0.6c-2.3,9-8.5,14.2-16.9,14.2c-5.8,0-11-2.5-11.4-2.7l-0.4-0.2c-11.4-7.1-23.3-15.2-35.2-24.2
				c-23.1,1.1-55.1,5.1-80.6,17.5l-1.8,6.8c-7.3,26.9-21,29.9-26.4,29.9C316.6,544.3,315.8,544.2,315.8,544.2z M390.1,619.9
				c-1.4,3.8-3.2,6.9-5.5,9.3c-2.4,2.6-5.1,4.5-8.1,5.8c-3,1.3-6.2,2-9.6,2c-3.2,0-5.8-0.4-8.1-1.1c-2.3-0.7-4.5-1.7-6.8-2.9v23.2
				h-18V580h17.8v5.8c2.7-2.1,5.6-3.9,8.5-5.4c2.9-1.3,6.2-2,9.9-2c6.9,0,12.4,2.5,16.2,7.6c3.8,5.2,5.8,12.1,5.8,21.1
				C392.2,611.9,391.5,616.1,390.1,619.9z M459.2,636h-18v-5.8c-3.1,2.5-6,4.4-8.6,5.6c-2.7,1.2-5.7,1.8-9.3,1.8
				c-6.8,0-12.1-2.6-16.3-7.9c-4-5.2-6.1-12.3-6.1-21.2c0-4.8,0.7-8.9,2-12.6c1.4-3.7,3.2-6.8,5.6-9.4c2.3-2.5,5-4.4,8.2-5.8
				c3.2-1.4,6.4-2,9.6-2c3.3,0,6.1,0.4,8.2,1.1c2.1,0.7,4.3,1.7,6.5,2.7v-23.7h18V636H459.2z M512.2,571.8H511
				c-0.8-0.2-1.8-0.5-3.1-0.8c-1.3-0.4-2.6-0.5-4-0.5c-3.5,0-5.8,0.6-7.1,1.9c-1.3,1.3-1.9,3.7-1.9,7.3v0.5h13.8v12.1h-13.2V636h-18
				v-43.7h-7.7v-12.1h7.6v-1.5c0-6.8,1.8-11.9,5.5-15.4c3.6-3.5,9.2-5.1,16.4-5.1c2.6,0,5,0.1,7.1,0.2c2.1,0.2,4,0.5,5.7,0.7
				L512.2,571.8L512.2,571.8z"/>
		</g>
	</g>
</g>
</svg>
