<?xml version="1.0" encoding="utf-8"?>
<!-- Generator: Adobe Illustrator 18.0.0, SVG Export Plug-In . SVG Version: 6.00 Build 0)  -->
<!DOCTYPE svg PUBLIC "-//W3C//DTD SVG 1.1//EN" "http://www.w3.org/Graphics/SVG/1.1/DTD/svg11.dtd">
<svg version="1.1" id="Layer_1" xmlns="http://www.w3.org/2000/svg" xmlns:xlink="http://www.w3.org/1999/xlink" x="0px" y="0px"
	 viewBox="0 123.3 595.3 595.3" enable-background="new 0 123.3 595.3 595.3" xml:space="preserve" width="40px" height="40px">
<g>
	<g>
		<path fill="#006B8D" d="M551.7,298.7c23.9,0,43.5,0,43.5,0l-86.9-93.4v46.7C508.3,277.9,527.8,298.7,551.7,298.7z"/>
		<g>
			<path fill="none" d="M344.3,514.3l1.8-6.8c25.5-12.4,57.5-16.4,80.7-17.5c11.9,8.9,23.8,17,35.2,24.2l0.4,0.2
				c0.5,0.2,5.6,2.7,11.4,2.7c8.5,0,14.6-5.1,16.9-14.2l0.1-0.6c0.6-5.1-0.7-9.8-3.8-13.3c-6.4-7.6-18.6-8.3-19.6-8.3
				c-0.4,0-9.8-0.8-24-0.8c-4.5,0-9,0.1-13.5,0.2c-28.3-21.2-51.6-42.5-64-54.4c0.2-1.3,0.4-2.3,0.5-3.1c1.7-17.3-0.1-28.9-5.4-34.6
				c-3.5-3.8-8.5-5-13.7-3.6c-3.2,0.8-9.3,3.9-11.2,10.4c-2.1,7,1.3,15.6,10.2,25.6c0.1,0.1,3.2,3.3,8.7,8.7
				c-3.6,17.1-13,54.1-17.5,71.9c-10.7,5.7-19.6,12.6-26.5,20.5l-0.5,0.5l-0.2,0.6c-0.7,1.4-4,9.3-1.5,15.5c1.2,2.7,3.3,4.9,6.3,6
				l0.8,0.2c0,0,0.7,0.1,2,0.1C323.3,544.1,337,541.2,344.3,514.3z M443.2,489.7c13.9,0,23.1,0.8,23.5,0.8c2.4,0.1,9.6,1.2,12.7,4.9
				c1.2,1.4,1.7,3.2,1.4,5.5c-1.5,5.7-4.4,6.4-7.1,6.4c-3.1,0-6.1-1.3-6.8-1.7c-7.9-4.9-15.8-10.2-23.9-16
				C443.1,489.7,443.1,489.7,443.2,489.7z M353.5,413.4c-8.6-9.6-8.5-14.4-8-16c0.8-2.6,4.3-3.7,4.3-3.7c1.7-0.5,2.7-0.5,3.7,0.6
				c2.1,2.4,3.9,9.4,3.1,22.3C354.6,414.6,353.5,413.4,353.5,413.4z M349.4,494.9c4.4-16.9,10.6-41.7,14.2-57.6l0.1,0.1v-0.1
				c11.5,10.8,29.3,26.9,50.6,43.5l-0.2,0.1l0.4,0.2c-20,1.7-43.9,5.7-65.2,14.4V494.9z M317.9,534.5c-0.1-0.1-0.1-0.1-0.1-0.2
				c-0.6-1.3,0.1-4.5,1.1-6.9c4.2-4.6,9.2-8.9,15-12.7C328.2,532.8,320.1,534.4,317.9,534.5z"/>
			<path fill="#006B8D" d="M414,480.8l0.2-0.1c-21.3-16.5-39.1-32.6-50.6-43.5v0.1l-0.1-0.1c-3.6,16-9.8,40.7-14.2,57.6l-0.1,0.6
				c21.2-8.7,45.1-12.7,65.2-14.4L414,480.8z"/>
			<path fill="#006B8D" d="M353.5,394.4c-1-1.1-2-1.1-3.7-0.6c0,0-3.5,1.1-4.3,3.7c-0.5,1.5-0.6,6.3,8,16c0,0,1.1,1.2,3.1,3.2
				C357.5,403.8,355.7,396.8,353.5,394.4z"/>
			<path fill="#006B8D" d="M318.9,527.4c-1,2.4-1.7,5.6-1.1,6.9c0,0.1,0,0.1,0.1,0.2c2.1-0.1,10.2-1.7,16-19.9
				C328.1,518.4,323.1,522.7,318.9,527.4z"/>
			<path fill="#006B8D" d="M473.7,507.4c2.7,0,5.6-0.7,7.1-6.4c0.2-2.3-0.2-4-1.4-5.5c-3.1-3.7-10.4-4.8-12.7-4.9
				c-0.4,0-9.5-0.8-23.5-0.8c-0.1,0-0.1,0-0.2,0c8.1,5.7,16.1,11.1,23.9,16C467.6,506.1,470.6,507.4,473.7,507.4z"/>
			<path fill="#006B8D" d="M433.7,591.6c-4.6,0-8.2,1.4-10.6,4.4s-3.6,7-3.6,12.3c0,5.5,1,9.4,2.9,11.9c1.9,2.5,4.9,3.7,9,3.7
				c1.7,0,3.3-0.4,5.1-1c1.9-0.6,3.5-1.4,4.9-2.4v-27.3c-1.3-0.5-2.6-1-3.9-1.2C436.1,591.8,434.9,591.6,433.7,591.6z"/>
			<path fill="#006B8D" d="M362.2,592.1c-1.7,0-3.5,0.2-5.2,0.7c-1.8,0.5-3.5,1.2-5.1,2.3v28c1.2,0.5,2.5,0.7,3.8,1
				c1.3,0.1,2.7,0.2,4,0.2c4.8,0,8.2-1.4,10.6-4.2c2.3-2.7,3.5-6.9,3.5-12.5c0-5.5-1-9.4-2.7-11.8
				C369.1,593.3,366.2,592.1,362.2,592.1z"/>
			<path fill="#006B8D" d="M545.8,321.3c-27.1,0-60.2-34.5-60.2-63.6s0-52.5,0-52.5H377c5.6,16.2,8.7,33.6,8.7,51.6
				c0,87.2-70.7,157.8-157.8,157.8c-8,0-16-0.6-23.7-1.8v249c0,31.3,25.4,56.7,56.7,56.7h277.6c31.3,0,56.7-25.4,56.7-56.7V321.3
				H545.8z M316.4,635.9h-18.6v-19.5h18.6V635.9z M315.8,544l-0.8-0.2c-3-1.1-5.1-3.2-6.3-6c-2.5-6.2,0.8-14,1.5-15.5l0.2-0.6
				l0.5-0.5c6.9-7.9,15.8-14.8,26.5-20.5c4.5-17.7,13.9-54.6,17.5-71.9c-5.5-5.4-8.6-8.6-8.7-8.7c-8.9-10-12.4-18.6-10.2-25.6
				c1.9-6.4,8-9.5,11.2-10.4c5.2-1.4,10.2-0.2,13.7,3.6c5.2,5.7,7,17.4,5.4,34.6c-0.1,0.8-0.2,1.8-0.5,3.1
				c12.4,11.9,35.6,33.2,64,54.4c4.4-0.1,8.9-0.2,13.5-0.2c14.3,0,23.7,0.8,24,0.8c1.1,0,13.2,0.7,19.6,8.3
				c3.1,3.6,4.4,8.2,3.8,13.3l-0.1,0.6c-2.3,9-8.5,14.2-16.9,14.2c-5.8,0-11-2.5-11.4-2.7l-0.4-0.2c-11.4-7.1-23.3-15.2-35.2-24.2
				c-23.1,1.1-55.1,5.1-80.7,17.5l-1.8,6.8c-7.3,26.9-21,29.9-26.4,29.9C316.5,544.1,315.8,544,315.8,544z M390,619.8
				c-1.4,3.8-3.2,6.9-5.5,9.3c-2.4,2.6-5.1,4.5-8.1,5.8c-3,1.3-6.2,2-9.6,2c-3.2,0-5.8-0.4-8.1-1.1c-2.3-0.7-4.5-1.7-6.8-2.9v23.2
				h-18v-76.3h17.9v5.8c2.7-2.1,5.6-3.9,8.5-5.4c2.9-1.3,6.2-2,9.9-2c6.9,0,12.4,2.5,16.2,7.6c3.8,5.2,5.8,12.1,5.8,21.1
				C392.2,611.9,391.5,616,390,619.8z M459.3,635.9h-18v-5.8c-3.1,2.5-6,4.4-8.6,5.6c-2.7,1.2-5.7,1.8-9.3,1.8
				c-6.8,0-12.1-2.6-16.3-7.9c-4-5.2-6.1-12.3-6.1-21.2c0-4.8,0.7-8.9,2-12.6c1.4-3.7,3.2-6.8,5.6-9.4c2.3-2.5,5-4.4,8.2-5.8
				s6.4-2,9.6-2c3.3,0,6.1,0.4,8.2,1.1s4.3,1.7,6.5,2.7v-23.7h18v77.3H459.3z M512.3,571.8h-1.2c-0.8-0.2-1.8-0.5-3.1-0.8
				c-1.3-0.3-2.6-0.5-4-0.5c-3.5,0-5.8,0.6-7.1,1.9c-1.3,1.3-1.9,3.7-1.9,7.3v0.5h13.8v12h-13.3v43.7h-18v-43.7h-7.6v-12.1h7.6v-1.5
				c0-6.8,1.8-11.9,5.5-15.4c3.6-3.5,9.2-5.1,16.4-5.1c2.6,0,5,0.1,7.1,0.2c2.1,0.2,4,0.5,5.7,0.7v12.8H512.3z"/>
		</g>
	</g>
	<g>
		<path fill="#006B8D" d="M228,145.2c61.4,0,111.5,50,111.5,111.5s-50,111.5-111.5,111.5s-111.5-50-111.5-111.5
			S166.4,145.2,228,145.2 M228,123.3c-73.7,0-133.4,59.6-133.4,133.4c0,73.7,59.6,133.4,133.4,133.4s133.4-59.5,133.4-133.3
			C361.3,183.1,301.6,123.3,228,123.3L228,123.3z"/>
	</g>
	<g>
		<path fill="#006B8D" d="M272.1,247.3h-67.7v-23.1c0-6.5,2.3-12,6.9-16.7c4.6-4.6,10.1-6.9,16.7-6.9c6.6,0,12,2.3,16.7,6.9
			c4.5,4.5,6.8,10,6.9,16.4c0,0.1,0,23.9,0,23.9c0,1.5,0.6,3,1.8,4.2c1.2,1.2,2.5,1.8,4.2,1.8h5.8c1.5,0,3-0.6,4.2-1.8
			c1.2-1.2,1.8-2.5,1.8-4.2c0-0.1,0-23.9,0-24c-0.1-11.2-4-20.8-12.1-28.8c-8.1-8.1-17.7-12.1-29-12.1s-21.1,4-29,12.1
			c-8.1,8.1-12.1,17.7-12.1,29v23.1h-3c-2.5,0-4.5,0.8-6.3,2.6c-1.7,1.7-2.6,3.8-2.6,6.3v65.7c0,2.5,0.8,4.5,2.6,6.3
			c1.7,1.7,3.8,2.6,6.3,2.6h88.1c2.5,0,4.5-0.8,6.3-2.6c1.7-1.7,2.6-3.8,2.6-6.3V256c0-2.5-0.8-4.5-2.6-6.3
			C276.6,248.2,274.6,247.3,272.1,247.3z M234.9,290.4v17.3c0,3.5-2.9,6.3-6.3,6.3h-1.2c-3.5,0-6.3-2.9-6.3-6.3v-17.3
			c-3.7-2.3-6.2-6.4-6.2-11.1c0-7.3,5.8-13.1,13.1-13.1c7.3,0,13.1,5.8,13.1,13.1C241,283.9,238.6,288,234.9,290.4z"/>
	</g>
</g>
</svg>
