<?xml version="1.0" encoding="utf-8"?>
<!-- Generator: Adobe Illustrator 18.0.0, SVG Export Plug-In . SVG Version: 6.00 Build 0)  -->
<!DOCTYPE svg PUBLIC "-//W3C//DTD SVG 1.1//EN" "http://www.w3.org/Graphics/SVG/1.1/DTD/svg11.dtd">
<svg version="1.1" id="Layer_1" xmlns="http://www.w3.org/2000/svg" xmlns:xlink="http://www.w3.org/1999/xlink" x="0px" y="0px"
	 viewBox="0 123.3 595.3 595.3" enable-background="new 0 123.3 595.3 595.3" xml:space="preserve" width="40px" height="40px">
<g>
	<g>
		<g>
			<path fill="#006B8D" d="M551.7,298.7c23.9,0,43.5,0,43.5,0l-86.9-93.4V252C508.4,277.8,527.8,298.7,551.7,298.7z"/>
			<g>
				<path fill="none" d="M344.2,514.3l1.8-6.8c25.5-12.4,57.6-16.4,80.7-17.5c11.9,8.9,23.8,17,35.2,24.2l0.4,0.2
					c0.5,0.2,5.6,2.7,11.4,2.7c8.5,0,14.6-5.1,16.9-14.2l0.1-0.6c0.6-5.1-0.7-9.8-3.8-13.3c-6.4-7.6-18.6-8.3-19.6-8.3
					c-0.4,0-9.8-0.8-24-0.8c-4.5,0-9,0.1-13.5,0.2c-28.3-21.2-51.7-42.5-64-54.5c0.2-1.3,0.4-2.3,0.5-3.1
					c1.7-17.3-0.1-28.9-5.4-34.6c-3.5-3.8-8.5-5-13.7-3.6c-3.2,0.8-9.3,3.9-11.2,10.4c-2.1,7,1.3,15.6,10.2,25.6
					c0.1,0.1,3.2,3.3,8.7,8.7c-3.6,17.1-13,54.2-17.5,71.9c-10.7,5.7-19.6,12.6-26.5,20.5l-0.5,0.5l-0.2,0.6
					c-0.7,1.4-4,9.3-1.5,15.5c1.2,2.7,3.3,4.9,6.3,6l0.8,0.2c0,0,0.7,0.1,2,0.1C323.3,544.2,337,541.2,344.2,514.3z M443.1,489.9
					c13.9,0,23.1,0.8,23.5,0.8c2.4,0.1,9.6,1.2,12.7,4.9c1.2,1.4,1.7,3.2,1.4,5.5c-1.5,5.7-4.4,6.4-7.1,6.4c-3.1,0-6.1-1.3-6.8-1.7
					c-7.9-4.9-15.8-10.2-23.9-16C443,489.9,443,489.9,443.1,489.9z M353.5,413.5c-8.6-9.6-8.5-14.4-8-16c0.8-2.6,4.3-3.7,4.3-3.7
					c1.7-0.5,2.7-0.5,3.7,0.6c2.1,2.4,3.9,9.4,3.1,22.3C354.6,414.7,353.5,413.5,353.5,413.5z M349.3,494.9
					c4.4-16.9,10.6-41.7,14.2-57.7l0.1,0.1v-0.1c11.5,10.8,29.3,26.9,50.6,43.5l-0.2,0.1l0.4,0.2c-20,1.7-43.9,5.7-65.2,14.4V494.9z
					 M317.9,534.5c-0.1-0.1-0.1-0.1-0.1-0.2c-0.6-1.3,0.1-4.5,1.1-6.9c4.2-4.6,9.2-8.9,15-12.7C328.1,532.9,320.1,534.5,317.9,534.5
					z"/>
				<path fill="#006B8D" d="M414.1,480.8l0.2-0.1c-21.3-16.5-39.1-32.6-50.6-43.5v0.1l-0.1-0.1c-3.6,16-9.8,40.7-14.2,57.7l-0.1,0.6
					c21.2-8.7,45.1-12.7,65.2-14.4L414.1,480.8z"/>
				<path fill="#006B8D" d="M353.5,394.4c-1-1.1-2-1.1-3.7-0.6c0,0-3.5,1.1-4.3,3.7c-0.5,1.5-0.6,6.3,8,16c0,0,1.1,1.2,3.1,3.2
					C357.4,403.9,355.6,396.8,353.5,394.4z"/>
				<path fill="#006B8D" d="M318.9,527.4c-1,2.4-1.7,5.6-1.1,6.9c0,0.1,0,0.1,0.1,0.2c2.1-0.1,10.2-1.7,16-19.9
					C328,518.5,323,522.7,318.9,527.4z"/>
				<path fill="#006B8D" d="M473.7,507.4c2.7,0,5.6-0.7,7.1-6.4c0.2-2.3-0.2-4-1.4-5.5c-3.1-3.7-10.4-4.8-12.7-4.9
					c-0.4,0-9.5-0.8-23.5-0.8c-0.1,0-0.1,0-0.2,0c8.1,5.7,16.1,11.1,23.9,16C467.6,506.1,470.6,507.4,473.7,507.4z"/>
				<path fill="#006B8D" d="M433.7,591.8c-4.6,0-8.2,1.4-10.6,4.4c-2.4,3-3.6,7-3.6,12.3c0,5.5,1,9.4,2.9,11.9
					c1.9,2.5,4.9,3.7,9,3.7c1.7,0,3.3-0.4,5.1-1c1.9-0.6,3.5-1.4,4.9-2.4v-27.4c-1.3-0.5-2.6-1-3.9-1.2
					C436,591.8,434.8,591.8,433.7,591.8z"/>
				<path fill="#006B8D" d="M362.2,592.2c-1.7,0-3.5,0.2-5.2,0.7c-1.8,0.5-3.5,1.2-5.1,2.3v28c1.2,0.5,2.5,0.7,3.8,1
					c1.3,0.1,2.7,0.2,4,0.2c4.8,0,8.2-1.4,10.6-4.2c2.3-2.7,3.5-6.9,3.5-12.5c0-5.5-1-9.4-2.7-11.8
					C369.1,593.4,366.3,592.2,362.2,592.2z"/>
				<path fill="#006B8D" d="M545.9,321.2c-27.1,0-60.3-34.5-60.3-63.6s0-52.6,0-52.6h-0.1H377.1H260.8
					c-31.3,0.1-56.8,25.5-56.8,56.9v150.9l0.1,0.1v248.8c0,31.3,25.4,56.8,56.8,56.8h277.7c31.3,0,56.8-25.4,56.8-56.8V321.2H545.9z
					 M316.4,635.9h-18.6v-19.5h18.6V635.9z M315.8,544l-0.8-0.2c-3-1.1-5.1-3.2-6.3-6c-2.5-6.2,0.8-14,1.5-15.5l0.2-0.6l0.5-0.5
					c6.9-7.9,15.8-14.8,26.5-20.5c4.5-17.7,13.9-54.7,17.5-71.9c-5.5-5.4-8.6-8.6-8.7-8.7c-8.9-10-12.4-18.6-10.2-25.6
					c1.9-6.4,8-9.5,11.2-10.4c5.2-1.4,10.2-0.2,13.7,3.6c5.2,5.7,7,17.4,5.4,34.6c-0.1,0.8-0.2,1.8-0.5,3.1
					c12.4,11.9,35.6,33.2,64,54.5c4.4-0.1,8.9-0.2,13.5-0.2c14.3,0,23.7,0.8,24,0.8c1.1,0,13.2,0.7,19.6,8.3
					c3.1,3.6,4.4,8.2,3.8,13.3l-0.1,0.6c-2.3,9-8.5,14.2-16.9,14.2c-5.8,0-11-2.5-11.4-2.7l-0.4-0.2c-11.4-7.1-23.3-15.2-35.2-24.2
					c-23.1,1.1-55.2,5.1-80.7,17.5l-1.8,6.8c-7.3,26.9-21,29.9-26.4,29.9C316.5,544.2,315.8,544,315.8,544z M390.1,619.9
					c-1.4,3.8-3.2,6.9-5.5,9.3c-2.4,2.6-5.1,4.5-8.1,5.8s-6.2,2-9.6,2c-3.2,0-5.8-0.4-8.1-1.1c-2.3-0.7-4.5-1.7-6.8-2.9v23.2h-18
					V580h17.9v5.8c2.7-2.1,5.6-3.9,8.5-5.4c2.9-1.3,6.2-2,9.9-2c6.9,0,12.4,2.5,16.2,7.6c3.8,5.2,5.8,12.1,5.8,21.1
					C392.2,612,391.5,616.2,390.1,619.9z M459.3,635.9h-18v-5.8c-3.1,2.5-6,4.4-8.6,5.6c-2.7,1.2-5.7,1.8-9.3,1.8
					c-6.8,0-12.1-2.6-16.3-7.9c-4-5.2-6.1-12.3-6.1-21.2c0-4.8,0.7-8.9,2-12.6c1.4-3.7,3.2-6.8,5.6-9.4c2.3-2.5,5-4.4,8.2-5.8
					c3.2-1.4,6.4-2,9.6-2c3.3,0,6.1,0.4,8.2,1.1c2.1,0.7,4.3,1.7,6.5,2.7v-23.7h18v77.3H459.3z M511.1,571.7
					c-0.8-0.2-1.8-0.5-3.1-0.8s-2.6-0.5-4-0.5c-3.5,0-5.8,0.6-7.1,1.9s-1.9,3.7-1.9,7.3v0.5h13.8v12.1h-13.2V636h-18v-43.7H470V580
					h7.6v-1.5c0-6.8,1.8-11.9,5.5-15.4c3.6-3.5,9.2-5.1,16.4-5.1c2.6,0,5,0.1,7.1,0.2c2.1,0.2,4,0.5,5.7,0.7v12.7h-1.2V571.7z"/>
			</g>
		</g>
	</g>
</g>
</svg>
