<?xml version="1.0" encoding="utf-8"?>
<!-- Generator: Adobe Illustrator 18.0.0, SVG Export Plug-In . SVG Version: 6.00 Build 0)  -->
<!DOCTYPE svg PUBLIC "-//W3C//DTD SVG 1.1//EN" "http://www.w3.org/Graphics/SVG/1.1/DTD/svg11.dtd">
<svg version="1.1" id="Layer_1" xmlns="http://www.w3.org/2000/svg" xmlns:xlink="http://www.w3.org/1999/xlink" x="0px" y="0px"
	 viewBox="0 123.3 595.3 595.3" enable-background="new 0 123.3 595.3 595.3" xml:space="preserve" width="40px" height="40px">
<g id="Layer_2">
	<g>
		<g>
			<path fill="#006B8D" d="M228.1,145.2c61.5,0,111.4,50,111.4,111.4S289.4,368,228.1,368s-111.4-49.9-111.4-111.4
				S166.5,145.2,228.1,145.2 M228.1,123.3c-73.5,0-133.3,59.7-133.3,133.4c0,73.6,59.6,133.3,133.3,133.3s133.3-59.6,133.3-133.3
				S301.7,123.3,228.1,123.3L228.1,123.3z"/>
		</g>
		<g>
			<path fill="#006B8D" d="M272.2,247.2h-67.6v-23.1c0-6.5,2.3-12,6.9-16.7c4.6-4.6,10.1-6.9,16.7-6.9s12,2.3,16.7,6.9
				c4.5,4.5,6.8,10,6.9,16.4c0,0.1,0-0.1,0,0c0,1.5,0.6,3,1.8,4.2c1.2,1.2,2.5,1.8,4.2,1.8h5.8c1.5,0,3-0.6,4.2-1.8
				c1.2-1.2,1.8-2.5,1.8-4.2c0-0.1,0,0.1,0,0c-0.1-11.2-4-20.8-12.1-28.8c-8.1-8.1-17.7-12.1-29-12.1c-11.3,0-21.1,4-29,12.1
				c-8.1,8.1-12.1,17.7-12.1,29v23.2h-3c-2.5,0-4.5,0.8-6.3,2.6c-1.7,1.7-2.6,3.8-2.6,6.3v65.7c0,2.5,0.8,4.5,2.6,6.3
				c1.7,1.7,3.8,2.6,6.3,2.6h88.4c2.5,0,4.5-0.8,6.3-2.6c1.7-1.7,2.6-3.8,2.6-6.3V256c0-2.5-0.8-4.5-2.6-6.3
				C276.7,248.1,274.7,247.2,272.2,247.2z M235.1,290.3v17.3c0,3.5-2.9,6.3-6.3,6.3h-1.2c-3.5,0-6.3-2.9-6.3-6.3v-17.3
				c-3.7-2.3-6.2-6.4-6.2-11.1c0-7.3,5.8-13.1,13.1-13.1s13.1,5.8,13.1,13.1C241.1,283.9,238.7,287.9,235.1,290.3z"/>
		</g>
		<g>
			<path fill="#006B8D" d="M551.6,299c23.9,0,43.5,0,43.5,0l-86.8-93.5v46.7C508.2,278.2,527.5,299,551.6,299z"/>
			<g>
				<g>
					<g>
						<g>
							<g>
								<path fill="#006B8D" d="M316.9,471l44.4-51.5c3.7-4.3,10.3-4.3,13.8,0.1l47.5,56.7l24-24c3.4-3.4,8.9-3.6,12.5-0.3
									l23.8,21.7v-87.8H319c-0.7,0.5-1.4,1-2.1,1.5L316.9,471L316.9,471z M448.1,400.9c9.2,0,16.6,7.5,16.6,16.6
									c0,9.2-7.5,16.6-16.6,16.6c-9.2,0-16.6-7.5-16.6-16.6C431.5,408.4,439,400.9,448.1,400.9z"/>
								<path fill="#006B8D" d="M545.7,321.5c-27.1,0-60.2-34.5-60.2-63.6s0-52.5,0-52.5H377c5.6,16.2,8.7,33.6,8.7,51.6
									c0,46.2-19.9,87.8-51.5,116.6H483c6.6,0,12.1,5.5,12.1,12.1v123.7h-0.2c0,6.6-5.5,12.1-12.1,12.1H316.9
									c-6.6,0-12.1-5.5-12.1-12.1l0.1-114.8c-22.8,12.7-48.9,20-76.9,20c-8,0-16-0.6-23.7-1.8v248.8c0,31.3,25.4,56.7,56.7,56.7
									h277.5c31.3,0,56.7-25.4,56.7-56.7V321.5H545.7z M301.9,636.5h-18.5V617h18.5V636.5z M375.4,620.5c-1.3,3.8-3.2,6.9-5.5,9.3
									c-2.4,2.5-5,4.5-8.1,5.9s-6.2,1.9-9.7,1.9c-3.1,0-5.9-0.3-8.1-1c-2.2-0.7-4.5-1.7-6.7-2.9V657h-17.9v-76.2h17.9v5.8
									c2.8-2.2,5.5-4,8.4-5.3c2.9-1.3,6.1-2,9.8-2c7,0,12.4,2.5,16.1,7.7c3.8,5.2,5.8,12.1,5.8,21.1
									C377.5,612.6,376.9,616.8,375.4,620.5z M446.4,636.5h-17.9v-27.7c0-2.3-0.2-4.5-0.3-6.7c-0.3-2.3-0.7-3.9-1.2-5
									c-0.7-1.3-1.7-2.1-2.9-2.7c-1.2-0.6-3-0.8-5.3-0.8c-1.7,0-3.3,0.3-5,0.8s-3.4,1.3-5.5,2.5v39.4h-17.9v-55.7h17.8v6.1
									c3.1-2.5,6.2-4.4,9.2-5.7c2.9-1.3,6.1-1.9,9.8-1.9c6,0,10.7,1.8,14.1,5.2c3.4,3.4,5,8.7,5,15.7V636.5z M514.7,643.3
									c-1.5,3.5-3.5,6.4-6.2,8.4c-2.7,2-5.9,3.5-9.8,4.5c-3.8,0.9-8.1,1.3-12.8,1.3c-3.9,0-7.7-0.3-11.4-0.8
									c-3.8-0.4-7.1-1-9.8-1.7v-13.9h2.2c2.2,0.8,4.9,1.7,7.9,2.4c3.1,0.8,5.9,1,8.4,1c3.3,0,6-0.3,8.1-0.9c2-0.6,3.6-1.5,4.7-2.6
									c1-1,1.8-2.4,2.3-4c0.4-1.7,0.8-3.6,0.8-6v-1c-2.2,1.8-4.5,3.1-7.1,4.1c-2.6,1-5.5,1.5-8.7,1.5c-7.8,0-13.8-2.4-18.1-7.1
									c-4.2-4.6-6.4-11.9-6.4-21.4c0-4.6,0.7-8.6,1.9-11.9c1.3-3.4,3.1-6.2,5.5-8.7c2.2-2.3,4.9-4.1,8.1-5.4
									c3.2-1.3,6.5-1.9,9.8-1.9c3,0,5.7,0.3,8.2,1c2.4,0.8,4.7,1.7,6.7,2.9l0.7-2.5h17.3v49.3h0.1
									C516.8,635.4,516.2,639.7,514.7,643.3z"/>
								<path fill="#006B8D" d="M347.7,592.8c-1.7,0-3.4,0.3-5.2,0.8c-1.8,0.5-3.4,1.3-5.1,2.3v28c1.2,0.4,2.4,0.8,3.8,0.9
									c1.3,0.2,2.7,0.2,4,0.2c4.7,0,8.2-1.3,10.5-4.1c2.3-2.9,3.4-7,3.4-12.5c0-5.4-0.9-9.3-2.8-11.8
									C354.6,594.1,351.7,592.8,347.7,592.8z"/>
								<path fill="#006B8D" d="M491.3,592.4c-4.6,0-8.2,1.3-10.5,4c-2.4,2.7-3.4,6.5-3.4,11.3c0,5.4,1,9.1,3,11.3
									c1.9,2.1,5,3.1,8.8,3.1c1.8,0,3.5-0.3,5.2-0.8c1.6-0.7,3.1-1.3,4.6-2.3v-25.2c-1-0.4-2.3-0.8-3.8-1
									C493.7,592.5,492.5,592.4,491.3,592.4z"/>
							</g>
						</g>
					</g>
				</g>
			</g>
		</g>
	</g>
</g>
<g id="Layer_3" display="none">
</g>
</svg>
