<?xml version="1.0" encoding="utf-8"?>
<!-- Generator: Adobe Illustrator 18.0.0, SVG Export Plug-In . SVG Version: 6.00 Build 0)  -->
<!DOCTYPE svg PUBLIC "-//W3C//DTD SVG 1.1//EN" "http://www.w3.org/Graphics/SVG/1.1/DTD/svg11.dtd">
<svg version="1.1" id="Layer_1" xmlns="http://www.w3.org/2000/svg" xmlns:xlink="http://www.w3.org/1999/xlink" x="0px" y="0px"
	 viewBox="0 123.3 595.3 595.3" enable-background="new 0 123.3 595.3 595.3" xml:space="preserve" width="40px" height="40px">
<g id="Layer_1_1_">
	<g>
		<g>
			<path fill="#006B8D" d="M552,298.7c24,0,43.5,0,43.5,0l-87-93.5v46.7C508.5,277.7,528,298.7,552,298.7z"/>
		</g>
		<g>
			<g>
				<g>
					<path fill="#006B8D" d="M375.1,419.4l47.6,56.8l24-24c3.4-3.4,8.9-3.6,12.5-0.3l23.8,21.7v-87.8H316.9v85.2l44.4-51.6
						C365,415,371.5,415,375.1,419.4z M448.1,400.7c9.2,0,16.6,7.5,16.6,16.6c0,9.2-7.5,16.6-16.6,16.6c-9.2,0-16.6-7.5-16.6-16.6
						S439.1,400.7,448.1,400.7z"/>
					<path fill="#006B8D" d="M546.1,321.2L546.1,321.2c-27.1,0-60.3-34.6-60.3-63.5c0-29,0-52.6,0-52.6H261.1
						c-31.3,0.2-56.8,25.6-56.8,56.9v151v249c0,31.3,25.4,56.7,56.7,56.7h277.5c31.3,0,56.7-25.4,56.7-56.7V321.2H546.1z
						 M304.9,385.6c0-6.6,5.5-12.1,12.1-12.1H483c6.6,0,12.1,5.5,12.1,12.1v123.8H495c0,6.6-5.5,12.1-12.1,12.1H316.9
						c-6.6,0-12.1-5.5-12.1-12.1L304.9,385.6L304.9,385.6z M301.9,636.5h-18.5V617h18.5V636.5z M377.6,607.9c0,4.6-0.7,8.8-2.1,12.5
						c-1.4,3.7-3.2,6.9-5.5,9.3c-2.4,2.6-5.1,4.5-8.1,5.8c-3,1.3-6.2,2-9.7,2c-3.2,0-5.8-0.3-8.1-1s-4.5-1.6-6.8-2.8V657h-17.9
						v-76.2h17.9v5.8c2.8-2.2,5.5-3.9,8.4-5.3c2.8-1.4,6.2-2,9.9-2c7,0,12.3,2.6,16.2,7.6C375.6,592,377.6,599,377.6,607.9z
						 M359.2,608.2c0-5.4-0.9-9.3-2.8-11.8c-1.8-2.4-4.8-3.7-8.7-3.7c-1.7,0-3.4,0.3-5.2,0.8c-1.8,0.5-3.5,1.2-5.1,2.2v28
						c1.2,0.5,2.4,0.8,3.8,0.9c1.4,0.1,2.7,0.2,4,0.2c4.7,0,8.2-1.4,10.5-4.1C358,617.9,359.2,613.8,359.2,608.2z M446.4,636.5
						h-17.9v-27.7c0-2.2-0.1-4.5-0.3-6.7c-0.3-2.2-0.7-3.9-1.2-4.9c-0.7-1.2-1.6-2.1-2.9-2.7c-1.2-0.6-3-0.9-5.3-0.9
						c-1.6,0-3.3,0.3-4.9,0.8s-3.5,1.4-5.5,2.6v39.5h-17.9v-55.7h17.9v6.2c3.2-2.5,6.2-4.4,9.1-5.7c2.9-1.3,6.2-2,9.7-2
						c6,0,10.7,1.8,14.1,5.3c3.4,3.5,5.1,8.7,5.1,15.7V636.5L446.4,636.5z M517,630.1c0,5.3-0.7,9.6-2.2,13.2
						c-1.5,3.5-3.5,6.4-6.2,8.4c-2.7,2-5.9,3.5-9.7,4.5s-8.1,1.4-12.8,1.4c-3.9,0-7.7-0.3-11.4-0.7c-3.7-0.5-7-1.1-9.7-1.7v-13.9
						h2.2c2.2,0.9,4.9,1.6,7.9,2.4c3.2,0.7,5.9,1.1,8.4,1.1c3.3,0,6-0.3,8.1-0.9c2-0.6,3.6-1.5,4.7-2.6c1.1-1.1,1.8-2.4,2.2-4.1
						c0.5-1.6,0.7-3.6,0.7-6V630c-2.2,1.8-4.5,3.2-7.2,4.1c-2.6,1.1-5.5,1.5-8.7,1.5c-7.8,0-13.8-2.4-18.1-7
						c-4.2-4.7-6.4-11.8-6.4-21.4c0-4.6,0.7-8.5,1.9-11.9c1.3-3.4,3.1-6.2,5.5-8.7c2.2-2.3,4.9-4.1,8.1-5.4c3.2-1.3,6.4-1.9,9.8-1.9
						c3,0,5.7,0.3,8.2,1.1c2.4,0.7,4.7,1.7,6.7,3l0.7-2.5h17.3L517,630.1L517,630.1z M499.1,618.9v-25.2c-1.1-0.5-2.3-0.8-3.7-1
						c-1.5-0.3-2.8-0.4-4-0.4c-4.7,0-8.2,1.4-10.5,4.1c-2.4,2.7-3.5,6.4-3.5,11.3c0,5.4,1,9.1,3,11.2c2,2.1,4.9,3.2,8.9,3.2
						c1.8,0,3.5-0.3,5.3-0.9C496.1,620.6,497.7,619.8,499.1,618.9z"/>
				</g>
			</g>
		</g>
	</g>
</g>
<g id="Layer_2">
</g>
</svg>
