<?xml version="1.0" encoding="utf-8"?>
<!-- Generator: Adobe Illustrator 18.0.0, SVG Export Plug-In . SVG Version: 6.00 Build 0)  -->
<!DOCTYPE svg PUBLIC "-//W3C//DTD SVG 1.1//EN" "http://www.w3.org/Graphics/SVG/1.1/DTD/svg11.dtd">
<svg version="1.1" id="Layer_2" xmlns="http://www.w3.org/2000/svg" xmlns:xlink="http://www.w3.org/1999/xlink" x="0px" y="0px"
	 viewBox="0 123.3 595.3 595.3" enable-background="new 0 123.3 595.3 595.3" xml:space="preserve" width="40px" height="40px">
<g>
	<g>
		<path fill="#006B8D" d="M228.1,145.2c61.5,0,111.4,50,111.4,111.4S289.4,368,228.1,368s-111.4-49.9-111.4-111.4
			S166.5,145.2,228.1,145.2 M228.1,123.3c-73.5,0-133.3,59.7-133.3,133.4c0,73.6,59.6,133.3,133.3,133.3s133.3-59.6,133.3-133.3
			S301.7,123.3,228.1,123.3L228.1,123.3z"/>
	</g>
	<g>
		<path fill="#006B8D" d="M272.2,247.2h-67.6v-23.1c0-6.5,2.3-12,6.9-16.7c4.6-4.6,10.1-6.9,16.7-6.9c6.6,0,12,2.3,16.7,6.9
			c4.5,4.5,6.8,10,6.9,16.4c0,0.1,0-0.1,0,0c0,1.5,0.6,3,1.8,4.2c1.2,1.2,2.5,1.8,4.2,1.8h5.8c1.5,0,3-0.6,4.2-1.8
			c1.2-1.2,1.8-2.5,1.8-4.2c0-0.1,0,0.1,0,0c-0.1-11.2-4-20.8-12.1-28.8c-8.1-8.1-17.7-12.1-29-12.1s-21.1,4-29,12.1
			c-8.1,8.1-12.1,17.7-12.1,29v23.2h-3c-2.5,0-4.5,0.8-6.3,2.6c-1.7,1.7-2.6,3.8-2.6,6.3v65.7c0,2.5,0.8,4.5,2.6,6.3
			c1.7,1.7,3.8,2.6,6.3,2.6h88.4c2.5,0,4.5-0.8,6.3-2.6c1.7-1.7,2.6-3.8,2.6-6.3V256c0-2.5-0.8-4.5-2.6-6.3
			C276.7,248.1,274.7,247.2,272.2,247.2z M235.1,290.3v17.3c0,3.5-2.9,6.3-6.3,6.3h-1.2c-3.5,0-6.3-2.9-6.3-6.3v-17.3
			c-3.7-2.3-6.2-6.4-6.2-11.1c0-7.3,5.8-13.1,13.1-13.1c7.3,0,13.1,5.8,13.1,13.1C241.1,283.9,238.7,287.9,235.1,290.3z"/>
	</g>
	<g>
		<path fill="#006B8D" d="M551.6,299c23.9,0,43.5,0,43.5,0l-86.8-93.5v46.7C508.2,278.2,527.5,299,551.6,299z"/>
		<g>
			<g>
				<g>
					<g>
						<path fill="#006B8D" d="M451.8,477.1v15.7h15.7C467.4,484.1,460.4,477.1,451.8,477.1z"/>
						<polygon fill="#006B8D" points="462,450.7 462,417.3 438.1,417.3 435,417.3 435,453.6 462,453.6 						"/>
						<polygon fill="#006B8D" points="463.5,449.1 466.6,449.1 466.6,412.7 439.6,412.7 439.6,415.7 463.5,415.7 						"/>
						<path fill="#006B8D" d="M449.8,479.1c-8.9,0-16.1,7.5-15.6,16.6c0.4,7.8,6.8,14.4,14.8,14.8c9,0.5,16.5-6.7,16.5-15.6h-15.6
							V479.1z"/>
						<path fill="#006B8D" d="M545.7,321.5c-27.1,0-60.2-34.5-60.2-63.6c0-29.1,0-52.5,0-52.5H377c5.6,16.2,8.7,33.6,8.7,51.6
							c0,87.1-70.6,157.7-157.7,157.7c-8,0-16-0.6-23.7-1.8v248.8c0,31.3,25.4,56.7,56.7,56.7h277.5c31.3,0,56.7-25.4,56.7-56.7
							V321.5H545.7z M420.3,402.5h60.4v123.7h-60.4V402.5z M319.9,402.1l92.5-17.8v160.3l-92.5-17.8V402.1z M307.2,635.4h-18.7
							v-19.6h18.7V635.4z M383.2,606.7c0,4.6-0.7,8.8-2.1,12.6c-1.4,3.8-3.3,6.9-5.5,9.3c-2.4,2.6-5.1,4.5-8.1,5.9
							c-3,1.3-6.2,2-9.7,2c-3.2,0-5.9-0.3-8.1-1c-2.2-0.7-4.5-1.6-6.8-2.9V656h-18v-76.5h17.8v5.8c2.8-2.2,5.5-4,8.4-5.3
							c2.9-1.3,6.1-2,9.9-2c7,0,12.4,2.5,16.2,7.7C381.2,590.7,383.2,597.8,383.2,606.7z M364.7,607.1c0-5.5-0.9-9.4-2.8-11.9
							s-4.8-3.7-8.8-3.7c-1.7,0-3.4,0.3-5.2,0.8s-3.5,1.3-5.1,2.2v28.1c1.2,0.5,2.4,0.8,3.9,0.9c1.3,0.2,2.7,0.2,4,0.2
							c4.7,0,8.2-1.3,10.6-4.1C363.5,616.9,364.7,612.7,364.7,607.1z M454.5,606.7c0,4.6-0.7,8.8-2.1,12.6c-1.4,3.8-3.3,6.9-5.5,9.3
							c-2.4,2.6-5.1,4.5-8.1,5.9c-3,1.3-6.2,2-9.7,2c-3.2,0-5.9-0.3-8.1-1s-4.5-1.6-6.8-2.9V656h-18v-76.5h18v5.8
							c2.8-2.2,5.5-4,8.4-5.3c2.9-1.3,6.1-2,9.9-2c7,0,12.4,2.5,16.2,7.7C452.5,590.7,454.5,597.8,454.5,606.7z M436.1,607.1
							c0-5.5-0.9-9.4-2.8-11.9c-1.8-2.4-4.8-3.7-8.8-3.7c-1.7,0-3.4,0.3-5.2,0.8c-1.8,0.5-3.5,1.3-5.1,2.2v28.1
							c1.2,0.5,2.4,0.8,3.9,0.9c1.3,0.2,2.7,0.2,4,0.2c4.7,0,8.2-1.3,10.6-4.1C434.9,616.9,436.1,612.7,436.1,607.1z M516.1,617.7
							c0,5.8-2.6,10.4-7.7,14c-5.2,3.5-12.3,5.3-21.3,5.3c-5,0-9.5-0.5-13.5-1.4c-4-0.9-7.3-1.9-9.8-3.1v-14.7h1.7
							c0.9,0.7,1.9,1.3,3.1,2.1c1.2,0.8,2.9,1.5,5,2.4c1.8,0.8,4,1.4,6.3,1.9c2.4,0.6,4.9,0.8,7.6,0.8c3.5,0,6.1-0.4,7.8-1.2
							c1.7-0.8,2.5-1.9,2.5-3.4c0-1.3-0.5-2.4-1.5-2.9c-1-0.6-2.9-1.2-5.7-1.8c-1.3-0.3-3.1-0.6-5.4-1c-2.3-0.3-4.4-0.8-6.2-1.3
							c-5-1.3-8.8-3.4-11.3-6.2c-2.4-2.8-3.7-6.3-3.7-10.5c0-5.4,2.5-9.8,7.7-13.5c5.1-3.5,12.1-5.4,20.9-5.4c4.2,0,8.2,0.4,12,1.3
							c3.9,0.8,6.8,1.8,9,2.7v14.1h-1.5c-2.7-1.8-5.7-3.3-9.1-4.5c-3.4-1.2-6.8-1.7-10.3-1.7c-2.9,0-5.3,0.4-7.3,1.2
							c-2,0.8-2.9,1.9-2.9,3.4c0,1.3,0.4,2.4,1.3,3c0.9,0.7,3,1.4,6.3,2.1c1.8,0.3,3.8,0.8,5.9,1.1c2.1,0.3,4.2,0.8,6.4,1.3
							c4.7,1.3,8.2,3.2,10.4,5.8C514.9,610.5,516.1,613.8,516.1,617.7z"/>
						<path fill="#006B8D" d="M376.7,426.8c-4-3.2-9.8-3.9-17.1-1.8c-5.3,1.5-10.7,3.6-13.5,5v64.3l6.9,1.9l0.3-28.4
							c1.5,0.6,3.4,0.8,5.4,0.9c7.2,0.5,14.3-2.1,19-7.9c3.6-4.4,5.5-10.5,5.5-18.1C383.1,435.3,380.6,429.8,376.7,426.8z
							 M358.9,461.2c-2.3,0-4.1-0.3-5.5-0.8l0.3-26.3c1.1-0.6,3.3-1.4,6.2-2.1c8.2-1.8,14,1.8,14.1,12.2
							C374.1,455.2,368,461.3,358.9,461.2z"/>
					</g>
				</g>
			</g>
		</g>
	</g>
</g>
</svg>
