<?xml version="1.0" encoding="utf-8"?>
<!-- Generator: Adobe Illustrator 18.0.0, SVG Export Plug-In . SVG Version: 6.00 Build 0)  -->
<!DOCTYPE svg PUBLIC "-//W3C//DTD SVG 1.1//EN" "http://www.w3.org/Graphics/SVG/1.1/DTD/svg11.dtd">
<svg version="1.1" id="Layer_2" xmlns="http://www.w3.org/2000/svg" xmlns:xlink="http://www.w3.org/1999/xlink" x="0px" y="0px"
	 viewBox="0 123.3 595.3 595.3" enable-background="new 0 123.3 595.3 595.3" xml:space="preserve" width="40px" height="40px">
<g>
	<g>
		<g>
			<path fill="#006B8D" d="M227.8,145.3c61.5,0,111.6,50.1,111.6,111.6s-50.1,111.6-111.6,111.6s-111.6-50.1-111.6-111.6
				S166.2,145.3,227.8,145.3 M227.8,123.3c-73.7,0-133.5,59.7-133.5,133.5c0,73.6,59.7,133.5,133.5,133.5s133.5-59.7,133.5-133.5
				C361.2,183,301.5,123.3,227.8,123.3L227.8,123.3z"/>
		</g>
		<g>
			<path fill="#006B8D" d="M271.9,247.2h-67.7v-23.1c0-6.6,2.3-12,6.9-16.7c4.6-4.6,10.1-6.9,16.7-6.9s12,2.3,16.7,6.9
				c4.5,4.5,6.8,10,6.9,16.4c0,0.1,0,24,0,24c0,1.5,0.6,2.9,1.8,4.2s2.5,1.8,4.2,1.8h5.8c1.5,0,2.9-0.6,4.2-1.8
				c1.2-1.2,1.8-2.5,1.8-4.2c0-0.1,0-24,0-24.1c-0.1-11.2-4-20.9-12.1-28.9c-8.1-8.1-17.8-12.1-29.1-12.1c-11.4,0-21.1,4-29.1,12.1
				c-8.1,8.1-12.1,17.8-12.1,29.1v23.1h-2.9c-2.5,0-4.5,0.8-6.3,2.6c-1.7,1.7-2.6,3.8-2.6,6.3v65.7c0,2.5,0.8,4.5,2.6,6.3
				c1.7,1.7,3.8,2.6,6.3,2.6h88.4c2.5,0,4.5-0.8,6.3-2.6c1.7-1.7,2.6-3.8,2.6-6.3v-65.7c0-2.5-0.8-4.5-2.6-6.3
				C276.5,248.3,274.5,247.2,271.9,247.2z M234.7,290.4v17.2c0,3.4-2.9,6.3-6.3,6.3h-1.2c-3.4,0-6.3-2.9-6.3-6.3v-17.2
				c-3.7-2.3-6.2-6.4-6.2-11.1c0-7.2,5.8-13.1,13.1-13.1c7.2,0,13.1,5.8,13.1,13.1C240.8,284,238.5,288,234.7,290.4z"/>
		</g>
	</g>
	<g>
		<g>
			<path fill="#006B8D" d="M551.7,298.7c23.9,0,43.6,0,43.6,0L508.4,205v46.8C508.1,277.7,527.5,298.7,551.7,298.7z"/>
			<g>
				<g>
					<g>
						<g>
							<path fill="#006B8D" d="M451.7,476.9v15.7h15.7C467.4,483.8,460.3,476.9,451.7,476.9z"/>
							<polygon fill="#006B8D" points="461.8,450.5 461.8,416.9 437.9,416.9 434.8,416.9 434.8,453.4 461.8,453.4 							"/>
							<polygon fill="#006B8D" points="463.4,448.8 466.5,448.8 466.5,412.4 439.5,412.4 439.5,415.4 463.4,415.4 							"/>
							<path fill="#006B8D" d="M449.7,478.8c-8.9,0-16.1,7.5-15.6,16.6c0.4,7.8,6.8,14.4,14.8,14.8c9,0.5,16.5-6.7,16.5-15.6h-15.6
								V478.8z"/>
							<path fill="#006B8D" d="M545.6,321.2c-27.1,0-60.2-34.5-60.2-63.6s0-52.6,0-52.6H376.8c5.6,16.2,8.8,33.7,8.8,51.7
								c0,87.2-70.7,157.8-157.8,157.8c-8,0-16-0.6-23.7-1.8v249c0,31.3,25.4,56.8,56.8,56.8h277.7c31.3,0,56.8-25.4,56.8-56.8
								V321.2H545.6z M420.2,402.1h60.3v123.8h-60.4L420.2,402.1L420.2,402.1z M319.7,401.8l92.6-17.8v160.5l-92.6-17.8V401.8z
								 M307,635.4h-18.7v-19.6H307V635.4z M383,606.6c0,4.6-0.7,8.8-2.1,12.6s-3.3,6.9-5.6,9.3c-2.4,2.6-5.1,4.5-8.1,5.9
								c-3,1.3-6.2,2-9.7,2c-3.2,0-5.9-0.3-8.1-1s-4.5-1.6-6.8-2.9v23.3h-18v-76.6h18v5.8c2.8-2.2,5.6-4,8.4-5.3s6.1-2,9.9-2
								c7,0,12.4,2.5,16.2,7.7C381.1,590.6,383,597.6,383,606.6z M364.6,606.9c0-5.5-0.9-9.4-2.8-11.9c-1.9-2.4-4.8-3.7-8.8-3.7
								c-1.7,0-3.4,0.3-5.2,0.8c-1.8,0.5-3.5,1.3-5.1,2.2v28.1c1.2,0.5,2.4,0.8,3.9,0.9c1.3,0.2,2.7,0.2,4,0.2
								c4.7,0,8.2-1.3,10.6-4.1C363.4,616.7,364.6,612.5,364.6,606.9z M454.4,606.6c0,4.6-0.7,8.8-2.1,12.6
								c-1.4,3.8-3.3,6.9-5.6,9.3c-2.4,2.6-5.1,4.5-8.1,5.9c-3,1.3-6.2,2-9.7,2c-3.2,0-5.9-0.3-8.1-1c-2.2-0.7-4.5-1.6-6.8-2.9v23.3
								h-18v-76.6h18v5.8c2.8-2.2,5.6-4,8.4-5.3s6.1-2,9.9-2c7,0,12.4,2.5,16.2,7.7C452.5,590.6,454.4,597.6,454.4,606.6z
								 M435.9,606.9c0-5.5-0.9-9.4-2.8-11.9c-1.9-2.4-4.8-3.7-8.8-3.7c-1.7,0-3.4,0.3-5.2,0.8c-1.8,0.5-3.5,1.3-5.1,2.2v28.1
								c1.2,0.5,2.4,0.8,3.9,0.9c1.3,0.2,2.7,0.2,4,0.2c4.7,0,8.2-1.3,10.6-4.1C434.7,616.7,435.9,612.5,435.9,606.9z M516,617.6
								c0,5.8-2.6,10.4-7.7,14c-5.2,3.5-12.3,5.3-21.3,5.3c-5,0-9.5-0.5-13.5-1.4s-7.3-1.9-9.8-3.1v-14.7h1.7
								c0.9,0.7,1.9,1.3,3.1,2.1c1.2,0.8,2.9,1.5,5,2.4c1.9,0.8,4,1.4,6.3,1.9c2.4,0.6,4.9,0.8,7.6,0.8c3.5,0,6.1-0.4,7.8-1.2
								s2.5-1.9,2.5-3.4c0-1.3-0.5-2.4-1.5-2.9c-1-0.6-2.9-1.2-5.7-1.8c-1.3-0.3-3.1-0.6-5.4-1c-2.3-0.3-4.4-0.8-6.2-1.3
								c-5-1.3-8.8-3.4-11.4-6.2c-2.4-2.8-3.7-6.3-3.7-10.5c0-5.4,2.5-9.8,7.7-13.5c5.1-3.5,12.1-5.4,21-5.4c4.2,0,8.2,0.4,12,1.3
								c3.9,0.8,6.8,1.8,9,2.7v14.2H512c-2.7-1.9-5.7-3.3-9.1-4.5c-3.4-1.2-6.8-1.7-10.3-1.7c-2.9,0-5.3,0.4-7.3,1.2
								c-2,0.8-2.9,1.9-2.9,3.4c0,1.3,0.4,2.4,1.3,3c0.9,0.7,3,1.4,6.3,2.1c1.9,0.3,3.8,0.8,5.9,1.1c2.1,0.3,4.2,0.8,6.4,1.3
								c4.7,1.3,8.2,3.2,10.4,5.8C514.9,610.3,516,613.7,516,617.6z"/>
							<path fill="#006B8D" d="M376.6,426.5c-4-3.2-9.8-3.9-17.1-1.9c-5.3,1.5-10.7,3.6-13.5,5v64.4l6.9,1.9l0.3-28.4
								c1.5,0.6,3.4,0.8,5.4,0.9c7.2,0.5,14.3-2.1,19-7.9c3.6-4.4,5.6-10.5,5.5-18.1C383,435,380.5,429.5,376.6,426.5z M358.8,461
								c-2.3,0-4.1-0.3-5.6-0.8l0.3-26.3c1.1-0.6,3.3-1.4,6.2-2.1c8.2-1.8,14.1,1.9,14.1,12.2C373.9,454.9,367.8,461,358.8,461z"/>
						</g>
					</g>
				</g>
			</g>
		</g>
	</g>
</g>
</svg>
