<?xml version="1.0" encoding="utf-8"?>
<!-- Generator: Adobe Illustrator 18.0.0, SVG Export Plug-In . SVG Version: 6.00 Build 0)  -->
<!DOCTYPE svg PUBLIC "-//W3C//DTD SVG 1.1//EN" "http://www.w3.org/Graphics/SVG/1.1/DTD/svg11.dtd">
<svg version="1.1" id="Layer_1" xmlns="http://www.w3.org/2000/svg" xmlns:xlink="http://www.w3.org/1999/xlink" x="0px" y="0px"
	 viewBox="0 123.3 595.3 595.3" enable-background="new 0 123.3 595.3 595.3" xml:space="preserve" width="40px" height="40px">
<g id="Layer_1_1_">
	<g>
		<path fill="#006B8D" d="M551.8,298.7c23.9,0,43.5,0,43.5,0l-86.9-93.5v46.7C508.3,277.8,527.7,298.7,551.8,298.7z"/>
		<g>
			<path fill="#006B8D" d="M452,477.5v15.7h15.7C467.7,484.5,460.6,477.5,452,477.5z"/>
			<polygon fill="#006B8D" points="463.7,449.6 466.9,449.6 466.9,413.3 439.9,413.3 439.9,416.2 463.7,416.2 			"/>
			<polygon fill="#006B8D" points="462.2,451.2 462.2,417.7 438.4,417.7 435.3,417.7 435.3,454.1 462.2,454.1 			"/>
			<path fill="#006B8D" d="M450.1,479.4c-8.9,0-16,7.4-15.6,16.6c0.4,7.8,6.8,14.3,14.7,14.7c9,0.5,16.4-6.7,16.4-15.6h-15.6V479.4
				L450.1,479.4z"/>
			<path fill="#006B8D" d="M377.1,427.3c-3.9-3.2-9.8-3.9-17-1.8c-5.3,1.4-10.6,3.7-13.4,5.1v64.2l6.9,2l0.3-28.3
				c1.4,0.6,3.4,0.9,5.3,0.9c7.2,0.5,14.3-2.1,18.9-7.9c3.7-4.3,5.5-10.4,5.5-18.1C383.5,435.7,381,430.3,377.1,427.3z M359.4,461.6
				c-2.2,0-4.1-0.3-5.5-0.8l0.3-26.2c1.1-0.6,3.3-1.4,6.2-2.1c8.1-1.8,14.1,1.8,14.1,12.2C374.5,455.7,368.4,461.7,359.4,461.6z"/>
			<path fill="#006B8D" d="M545.8,321.3c-27.1,0-60.3-34.6-60.3-63.6c0-28,0-51,0-52.4v-0.1H260.8c-31.3,0.1-56.7,25.5-56.7,56.8
				v150.9v249c0,31.3,25.4,56.7,56.7,56.7h277.6c31.3,0,56.7-25.4,56.7-56.7V321.3H545.8z M420.6,403h60.2v123.5h-60.2V403z
				 M307.7,635.6h-18.6v-19.5h18.6V635.6z M320.4,402.6l92.3-17.7v160l-92.3-17.7V402.6z M381.4,619.5c-1.4,3.8-3.3,6.9-5.5,9.3
				c-2.4,2.6-5.1,4.5-8.1,5.8c-3,1.3-6.2,2-9.7,2c-3.2,0-5.8-0.3-8.1-1.1c-2.2-0.7-4.5-1.6-6.8-2.9V656h-17.9v-76.2h17.9v5.8
				c2.8-2.2,5.6-3.9,8.4-5.3c2.9-1.4,6.2-2,9.9-2c7,0,12.4,2.6,16.2,7.7c3.9,5.1,5.8,12.1,5.8,21
				C383.5,611.5,382.8,615.7,381.4,619.5z M452.7,619.5c-1.4,3.8-3.3,6.9-5.5,9.3c-2.4,2.6-5.1,4.5-8.1,5.8c-3,1.3-6.2,2-9.7,2
				c-3.2,0-5.8-0.3-8.1-1.1c-2.2-0.7-4.5-1.6-6.8-2.9V656h-17.9v-76.2h17.9v5.8c2.8-2.2,5.6-3.9,8.4-5.3c2.9-1.4,6.2-2,9.9-2
				c7,0,12.4,2.6,16.2,7.7c3.9,5.1,5.8,12.1,5.8,21C454.8,611.5,454.1,615.7,452.7,619.5z M508.5,631.8c-5.2,3.5-12.2,5.3-21.2,5.3
				c-5,0-9.5-0.5-13.5-1.4c-4.1-0.9-7.3-2-9.7-3.1V618h1.6c0.9,0.7,1.9,1.3,3.1,2c1.2,0.7,2.8,1.6,5,2.4c1.8,0.8,3.9,1.4,6.3,2
				s4.9,0.8,7.6,0.8c3.5,0,6.1-0.4,7.8-1.2c1.7-0.8,2.6-1.9,2.6-3.5c0-1.4-0.5-2.4-1.5-3c-1-0.6-2.9-1.2-5.7-1.8
				c-1.3-0.3-3.2-0.6-5.4-1c-2.3-0.3-4.3-0.8-6.2-1.2c-5.1-1.3-8.8-3.4-11.3-6.2c-2.4-2.8-3.7-6.3-3.7-10.4c0-5.4,2.6-9.9,7.6-13.4
				c5.1-3.5,12-5.3,20.8-5.3c4.2,0,8.1,0.4,12,1.2c3.8,0.9,6.8,1.8,9,2.7v14.1h-1.5c-2.6-1.8-5.7-3.3-9.1-4.5
				c-3.4-1.1-6.8-1.7-10.3-1.7c-2.9,0-5.3,0.4-7.3,1.2c-2,0.8-3,1.9-3,3.4c0,1.3,0.5,2.4,1.3,3c0.9,0.7,3,1.4,6.3,2.1
				c1.8,0.4,3.8,0.7,5.9,1.1c2.1,0.3,4.2,0.8,6.3,1.3c4.7,1.2,8.2,3.2,10.4,5.8c2.2,2.6,3.4,5.9,3.4,9.9
				C516.2,623.6,513.7,628.3,508.5,631.8z"/>
			<path fill="#006B8D" d="M353.6,591.8c-1.7,0-3.4,0.3-5.2,0.8c-1.8,0.5-3.5,1.2-5.1,2.2v28.1c1.2,0.5,2.5,0.8,3.8,0.9
				c1.4,0.1,2.7,0.2,4,0.2c4.7,0,8.3-1.4,10.6-4.1c2.3-2.8,3.5-6.9,3.5-12.5c0-5.5-0.9-9.4-2.8-11.8
				C360.5,593,357.5,591.8,353.6,591.8z"/>
			<path fill="#006B8D" d="M424.7,591.8c-1.7,0-3.4,0.3-5.2,0.8c-1.8,0.5-3.5,1.2-5.1,2.2v28.1c1.2,0.5,2.4,0.8,3.8,0.9
				c1.4,0.1,2.7,0.2,4,0.2c4.7,0,8.3-1.4,10.6-4.1c2.3-2.8,3.5-6.9,3.5-12.5c0-5.5-0.9-9.4-2.8-11.8
				C431.7,593,428.8,591.8,424.7,591.8z"/>
		</g>
	</g>
</g>
<g id="Layer_2" display="none">
</g>
</svg>
