<?xml version="1.0" encoding="utf-8"?>
<!-- Generator: Adobe Illustrator 18.0.0, SVG Export Plug-In . SVG Version: 6.00 Build 0)  -->
<!DOCTYPE svg PUBLIC "-//W3C//DTD SVG 1.1//EN" "http://www.w3.org/Graphics/SVG/1.1/DTD/svg11.dtd">
<svg version="1.1" id="Layer_1" xmlns="http://www.w3.org/2000/svg" xmlns:xlink="http://www.w3.org/1999/xlink" x="0px" y="0px"
	 viewBox="0 123.3 595.3 595.3" enable-background="new 0 123.3 595.3 595.3" xml:space="preserve" width="40px" height="40px">
<g id="Layer_2">
	<g>
		<g>
			<path fill="#006B8D" d="M228.1,145.2c61.5,0,111.4,50,111.4,111.4S289.4,368,228.1,368s-111.4-49.9-111.4-111.4
				S166.5,145.2,228.1,145.2 M228.1,123.3c-73.5,0-133.3,59.7-133.3,133.4c0,73.6,59.6,133.3,133.3,133.3s133.3-59.6,133.3-133.3
				S301.7,123.3,228.1,123.3L228.1,123.3z"/>
		</g>
		<g>
			<path fill="#006B8D" d="M272.2,247.2h-67.6v-23.1c0-6.5,2.3-12,6.9-16.7c4.6-4.6,10.1-6.9,16.7-6.9c6.6,0,12,2.3,16.7,6.9
				c4.5,4.5,6.8,10,6.9,16.4c0,0.1,0-0.1,0,0c0,1.5,0.6,3,1.8,4.2c1.2,1.2,2.5,1.8,4.2,1.8h5.8c1.5,0,3-0.6,4.2-1.8
				c1.2-1.2,1.8-2.5,1.8-4.2c0-0.1,0,0.1,0,0c-0.1-11.2-4-20.8-12.1-28.8c-8.1-8.1-17.7-12.1-29-12.1s-21.1,4-29,12.1
				c-8.1,8.1-12.1,17.7-12.1,29v23.2h-3c-2.5,0-4.5,0.8-6.3,2.6c-1.7,1.7-2.6,3.8-2.6,6.3v65.7c0,2.5,0.8,4.5,2.6,6.3
				c1.7,1.7,3.8,2.6,6.3,2.6h88.4c2.5,0,4.5-0.8,6.3-2.6c1.7-1.7,2.6-3.8,2.6-6.3V256c0-2.5-0.8-4.5-2.6-6.3
				C276.7,248.1,274.7,247.2,272.2,247.2z M235.1,290.3v17.3c0,3.5-2.9,6.3-6.3,6.3h-1.2c-3.5,0-6.3-2.9-6.3-6.3v-17.3
				c-3.7-2.3-6.2-6.4-6.2-11.1c0-7.3,5.8-13.1,13.1-13.1c7.3,0,13.1,5.8,13.1,13.1C241.1,283.9,238.7,287.9,235.1,290.3z"/>
		</g>
		<g>
			<path fill="#006B8D" d="M551.6,299c23.9,0,43.5,0,43.5,0l-86.8-93.5v46.7C508.2,278.2,527.5,299,551.6,299z"/>
			<g>
				<g>
					<g>
						<g>
							<g>
								<path fill="#006B8D" d="M451.9,477.4v15.7h15.7C467.6,484.4,460.5,477.4,451.9,477.4z"/>
								<polygon fill="#006B8D" points="463.6,449.5 466.7,449.5 466.7,413.1 439.8,413.1 439.8,416.1 463.6,416.1 								"/>
								<path fill="#006B8D" d="M377,427.2c-4-3.2-9.8-3.9-17.1-1.8c-5.3,1.4-10.7,3.7-13.4,5v64.2l6.9,1.9l0.3-28.3
									c1.4,0.6,3.4,0.8,5.3,0.9c7.2,0.4,14.3-2.1,18.9-7.9c3.7-4.4,5.5-10.4,5.5-18.1C383.3,435.6,380.9,430.2,377,427.2z
									 M359.2,461.5c-2.3,0-4.1-0.3-5.5-0.8l0.3-26.2c1.1-0.6,3.3-1.3,6.1-2.1c8.2-1.8,14,1.8,14.1,12.2
									C374.4,455.5,368.2,461.6,359.2,461.5z"/>
								<polygon fill="#006B8D" points="462.1,451.1 462.1,417.6 438.2,417.6 435.1,417.6 435.1,453.9 462.1,453.9 								"/>
								<path fill="#006B8D" d="M450,479.3c-8.9,0-16.1,7.4-15.6,16.6c0.4,7.8,6.8,14.3,14.7,14.7c9,0.4,16.4-6.7,16.4-15.6H450
									V479.3z"/>
								<path fill="#006B8D" d="M545.7,321.5c-27.1,0-60.2-34.5-60.2-63.6c0-29.1,0-52.5,0-52.5H377c5.6,16.2,8.7,33.6,8.7,51.6
									c0,87.1-70.6,157.7-157.7,157.7c-8,0-16-0.6-23.7-1.8v248.8c0,31.3,25.4,56.7,56.7,56.7h277.5c31.3,0,56.7-25.4,56.7-56.7
									V321.5H545.7z M420.5,402.8h60.2v123.5h-60.2V402.8z M314.4,635.3h-18.6v-19.5h18.6V635.3z M320.2,402.5l92.3-17.7v160.1
									L320.2,527V402.5z M388.1,619.1c-1.4,3.8-3.3,6.9-5.5,9.3c-2.4,2.6-5,4.5-8.1,5.9s-6.2,2-9.7,2c-3.2,0-5.9-0.3-8.1-1
									c-2.2-0.7-4.5-1.6-6.8-2.9v23.3h-18v-76.3h18v5.8c2.8-2.2,5.5-4,8.4-5.3c2.9-1.3,6.1-2,9.9-2c7,0,12.4,2.5,16.2,7.7
									s5.8,12.1,5.8,21C390.2,611.1,389.6,615.3,388.1,619.1z M459.3,619.1c-1.4,3.8-3.3,6.9-5.5,9.3c-2.4,2.6-5,4.5-8.1,5.9
									s-6.2,2-9.7,2c-3.2,0-5.9-0.3-8.1-1c-2.2-0.7-4.5-1.6-6.8-2.9v23.3h-18v-76.3h18v5.8c2.8-2.2,5.5-4,8.4-5.3
									c2.9-1.3,6.1-2,9.9-2c7,0,12.4,2.5,16.2,7.7c3.9,5.1,5.8,12.1,5.8,21C461.4,611.1,460.8,615.3,459.3,619.1z M510.1,591.6
									h-16.7v19.8c0,1.9,0,3.7,0.1,5.1c0,1.4,0.3,2.8,0.8,4c0.4,1.2,1.3,2.1,2.4,2.8c1.2,0.7,2.9,1,5.1,1c0.9,0,2.1-0.2,3.6-0.6
									s2.5-0.8,3.1-1.1h1.5v12.3c-1.9,0.5-4,0.9-6.1,1.2c-2.2,0.3-4.8,0.4-7.9,0.4c-7,0-12.1-1.4-15.6-4.2
									c-3.4-2.9-5.1-7.7-5.1-14.5v-26.1h-7.4v-12.1h7.4v-16h18v16H510L510.1,591.6L510.1,591.6z"/>
								<path fill="#006B8D" d="M431.4,591.5c-1.7,0-3.4,0.3-5.2,0.8s-3.5,1.3-5.1,2.2v28.1c1.2,0.5,2.4,0.8,3.8,0.9
									c1.3,0.2,2.7,0.2,4,0.2c4.7,0,8.2-1.3,10.6-4.1c2.4-2.8,3.4-6.9,3.4-12.5c0-5.5-0.9-9.3-2.8-11.9
									C438.4,592.7,435.5,591.5,431.4,591.5z"/>
								<path fill="#006B8D" d="M360.2,591.5c-1.7,0-3.4,0.3-5.2,0.8c-1.8,0.5-3.5,1.3-5.1,2.2v28.1c1.2,0.5,2.4,0.8,3.8,0.9
									c1.3,0.2,2.7,0.2,4,0.2c4.7,0,8.2-1.3,10.6-4.1c2.4-2.8,3.4-6.9,3.4-12.5c0-5.5-0.9-9.3-2.8-11.9
									C367.2,592.7,364.3,591.5,360.2,591.5z"/>
							</g>
						</g>
					</g>
				</g>
			</g>
		</g>
	</g>
</g>
<g id="Layer_3" display="none">
	<g display="inline">
		<path fill="#006B8D" d="M410.1,741.4c-4.5,0-8.4,0.8-11.8,2.4c-3.4,1.6-6.7,3.7-10,6.3v-6.9h-21.4V834h21.4v-27.7
			c2.8,1.5,5.5,2.6,8.1,3.4s5.8,1.2,9.6,1.2c4.1,0,7.9-0.8,11.5-2.4c3.6-1.6,6.8-3.9,9.6-7c2.7-2.9,4.9-6.6,6.6-11.1
			c1.7-4.5,2.5-9.5,2.5-15c0-10.6-2.3-18.9-6.9-25C424.8,744.5,418.3,741.4,410.1,741.4z M410.2,790.9c-2.8,3.3-6.9,4.9-12.6,4.9
			c-1.6,0-3.2-0.1-4.8-0.2c-1.6-0.2-3.1-0.5-4.5-1.1v-33.4c1.9-1.1,4-2,6.1-2.6c2.1-0.6,4.2-0.9,6.2-0.9c4.8,0,8.2,1.5,10.4,4.4
			c2.2,2.9,3.3,7.6,3.3,14.1C414.3,782.6,412.9,787.6,410.2,790.9z"/>
		<rect x="239.2" y="786.4" fill="#006B8D" width="22.1" height="23.2"/>
		<path fill="#006B8D" d="M459.1,533.2h-71.6v146.9h71.6V533.2z M410.4,545.4h32.1v43.2h-3.8v-39.7h-28.3L410.4,545.4L410.4,545.4z
			 M404.9,550.8h3.7H437v39.8v3.4h-32.1V550.8z M421.6,661.4c-9.4-0.5-17-8.2-17.5-17.5c-0.5-10.9,7.9-19.7,18.5-19.7l0,0l0,0l0,0
			v18.7h18.5C441.1,653.4,432.3,661.9,421.6,661.4z M424.8,640.6v-18.7c10.2,0,18.7,8.3,18.7,18.7H424.8z"/>
		<path fill="#006B8D" d="M315.7,568.3c-3.4,0.9-6,1.8-7.3,2.5l-0.3,31.2c1.6,0.6,3.9,0.9,6.6,0.9c10.7,0.1,18-7.1,17.9-20.2
			C332.4,570.5,325.4,566.2,315.7,568.3z"/>
		<path fill="#006B8D" d="M325.4,741.4c-4.5,0-8.4,0.8-11.8,2.4c-3.4,1.6-6.7,3.7-10,6.3v-6.9h-21.4V834h21.4v-27.7
			c2.8,1.5,5.5,2.6,8.1,3.4s5.8,1.2,9.6,1.2c4.1,0,7.9-0.8,11.5-2.4c3.6-1.6,6.8-3.9,9.6-7c2.7-2.9,4.9-6.6,6.6-11.1
			c1.7-4.5,2.5-9.5,2.5-15c0-10.6-2.3-18.9-6.9-25C340.1,744.5,333.6,741.4,325.4,741.4z M325.4,790.9c-2.8,3.3-6.9,4.9-12.6,4.9
			c-1.6,0-3.2-0.1-4.8-0.2c-1.6-0.2-3.1-0.5-4.5-1.1v-33.4c1.9-1.1,4-2,6.1-2.6c2.1-0.6,4.2-0.9,6.2-0.9c4.8,0,8.2,1.5,10.4,4.4
			c2.2,2.9,3.3,7.6,3.3,14.1C329.6,782.6,328.2,787.6,325.4,790.9z"/>
		<path fill="#006B8D" d="M494.1,757.7v-14.4h-19.9v-19h-21.4v19H444v14.4h8.8v31.1c0,8.1,2,13.9,6.1,17.2c4,3.4,10.2,5,18.5,5
			c3.7,0,6.8-0.2,9.4-0.5c2.6-0.3,5-0.8,7.3-1.4v-14.6h-1.8c-0.7,0.4-2,0.8-3.7,1.3c-1.8,0.5-3.2,0.7-4.3,0.7
			c-2.7,0-4.7-0.4-6.1-1.2c-1.4-0.8-2.4-1.9-2.9-3.3c-0.6-1.4-0.9-2.9-0.9-4.7c0-1.7-0.1-3.8-0.1-6.1v-23.6L494.1,757.7L494.1,757.7
			z"/>
		<path fill="#006B8D" d="M378,511.7l-109.8,21.1v148.1L378,702V511.7z M336.9,602.7c-5.6,6.9-13.9,9.9-22.5,9.4
			c-2.3-0.1-4.6-0.4-6.3-1.1l-0.3,33.7l-8.2-2.3V566c3.3-1.6,9.7-4.3,15.9-6c8.6-2.4,15.6-1.6,20.3,2.2c4.7,3.5,7.6,10,7.7,19.1
			C343.4,590.3,341.3,597.6,336.9,602.7z"/>
	</g>
	<g id="Layer_2_1_" display="inline">
	</g>
</g>
</svg>
