<?xml version="1.0" encoding="utf-8"?>
<!-- Generator: Adobe Illustrator 18.0.0, SVG Export Plug-In . SVG Version: 6.00 Build 0)  -->
<!DOCTYPE svg PUBLIC "-//W3C//DTD SVG 1.1//EN" "http://www.w3.org/Graphics/SVG/1.1/DTD/svg11.dtd">
<svg version="1.1" id="Layer_2" xmlns="http://www.w3.org/2000/svg" xmlns:xlink="http://www.w3.org/1999/xlink" x="0px" y="0px"
	 viewBox="0 123.3 595.3 595.3" enable-background="new 0 123.3 595.3 595.3" xml:space="preserve" width="40px" height="40px">
<g>
	<g>
		<g>
			<path fill="#006B8D" d="M227.8,145.3c61.5,0,111.6,50.1,111.6,111.6s-50.1,111.6-111.6,111.6s-111.6-50.1-111.6-111.6
				S166.2,145.3,227.8,145.3 M227.8,123.3c-73.7,0-133.5,59.7-133.5,133.5c0,73.6,59.7,133.5,133.5,133.5s133.5-59.7,133.5-133.5
				C361.2,183,301.5,123.3,227.8,123.3L227.8,123.3z"/>
		</g>
		<g>
			<path fill="#006B8D" d="M271.9,247.2h-67.7v-23.1c0-6.6,2.3-12,6.9-16.7c4.6-4.6,10.1-6.9,16.7-6.9s12,2.3,16.7,6.9
				c4.5,4.5,6.8,10,6.9,16.4c0,0.1,0,24,0,24c0,1.5,0.6,2.9,1.8,4.2c1.2,1.3,2.5,1.8,4.2,1.8h5.8c1.5,0,2.9-0.6,4.2-1.8
				c1.2-1.2,1.8-2.5,1.8-4.2c0-0.1,0-24,0-24.1c-0.1-11.2-4-20.9-12.1-28.9c-8.1-8.1-17.8-12.1-29.1-12.1s-21.1,4-29.1,12.1
				c-8.1,8.1-12.1,17.8-12.1,29.1v23.1h-2.9c-2.5,0-4.5,0.8-6.3,2.6c-1.7,1.7-2.6,3.8-2.6,6.3v65.7c0,2.5,0.8,4.5,2.6,6.3
				c1.7,1.7,3.8,2.6,6.3,2.6h88.4c2.5,0,4.5-0.8,6.3-2.6c1.7-1.7,2.6-3.8,2.6-6.3v-65.7c0-2.5-0.8-4.5-2.6-6.3
				C276.5,248.3,274.5,247.2,271.9,247.2z M234.7,290.4v17.2c0,3.4-2.9,6.3-6.3,6.3h-1.2c-3.4,0-6.3-2.9-6.3-6.3v-17.2
				c-3.7-2.3-6.2-6.4-6.2-11.1c0-7.2,5.8-13.1,13.1-13.1c7.2,0,13.1,5.8,13.1,13.1C240.8,284,238.5,288,234.7,290.4z"/>
		</g>
	</g>
	<g>
		<g>
			<path fill="#006B8D" d="M551.7,298.7c23.9,0,43.6,0,43.6,0L508.4,205v46.8C508.1,277.7,527.5,298.7,551.7,298.7z"/>
			<g>
				<g>
					<g>
						<g>
							<g>
								<path fill="#006B8D" d="M451.7,477.2v15.7h15.7C467.4,484.2,460.3,477.2,451.7,477.2z"/>
								<path fill="#006B8D" d="M449.8,479.1c-8.9,0-16.1,7.4-15.6,16.6c0.4,7.8,6.8,14.3,14.7,14.7c9,0.4,16.4-6.7,16.4-15.6h-15.6
									V479.1z"/>
								<path fill="#006B8D" d="M376.7,427c-4-3.2-9.8-3.9-17.1-1.9c-5.3,1.4-10.7,3.7-13.4,5v64.3l6.9,1.9l0.3-28.4
									c1.4,0.6,3.4,0.8,5.3,0.9c7.2,0.4,14.3-2.1,18.9-7.9c3.7-4.4,5.6-10.4,5.5-18.1C383.1,435.4,380.6,429.9,376.7,427z
									 M358.9,461.3c-2.3,0-4.1-0.3-5.6-0.8l0.3-26.3c1.1-0.6,3.3-1.3,6.1-2.1c8.2-1.8,14.1,1.9,14.1,12.2
									C374.1,455.3,367.9,461.4,358.9,461.3z"/>
								<polygon fill="#006B8D" points="463.4,449.3 466.5,449.3 466.5,412.8 439.5,412.8 439.5,415.9 463.4,415.9 								"/>
								<polygon fill="#006B8D" points="461.9,450.9 461.9,417.4 438,417.4 434.9,417.4 434.9,453.7 461.9,453.7 								"/>
								<path fill="#006B8D" d="M545.6,321.2c-27.1,0-60.2-34.5-60.2-63.6s0-52.6,0-52.6H376.8c5.6,16.2,8.8,33.7,8.8,51.7
									c0,87.2-70.7,157.8-157.8,157.8c-8,0-16-0.6-23.7-1.8v249c0,31.3,25.4,56.8,56.8,56.8h277.7c31.3,0,56.8-25.4,56.8-56.8
									V321.2H545.6z M420.3,402.6h60.2v123.6h-60.2V402.6z M314.1,635.2h-18.6v-19.5h18.6V635.2z M319.9,402.2l92.4-17.8v160.2
									l-92.4-17.8V402.2z M387.9,619c-1.4,3.8-3.3,6.9-5.6,9.3c-2.4,2.6-5,4.5-8.1,5.9s-6.2,2-9.7,2c-3.2,0-5.9-0.3-8.1-1
									c-2.2-0.7-4.5-1.6-6.8-2.9v23.3h-18v-76.4h18v5.8c2.8-2.2,5.6-4,8.4-5.3s6.1-2,9.9-2c7,0,12.4,2.5,16.2,7.7s5.8,12.1,5.8,21
									C390,611.1,389.3,615.3,387.9,619z M459.1,619c-1.4,3.8-3.3,6.9-5.6,9.3c-2.4,2.6-5,4.5-8.1,5.9s-6.2,2-9.7,2
									c-3.2,0-5.9-0.3-8.1-1s-4.5-1.6-6.8-2.9v23.3h-18v-76.4h18v5.8c2.8-2.2,5.6-4,8.4-5.3s6.1-2,9.9-2c7,0,12.4,2.5,16.2,7.7
									s5.8,12.1,5.8,21C461.2,611.1,460.6,615.3,459.1,619z M510,591.5h-16.7v19.9c0,1.9,0,3.7,0.1,5.1c0,1.4,0.3,2.8,0.8,4
									c0.4,1.2,1.3,2.1,2.4,2.8c1.2,0.7,2.9,1,5.1,1c0.9,0,2.1-0.2,3.6-0.6c1.5-0.4,2.5-0.8,3.1-1.1h1.5v12.3
									c-1.9,0.5-4,0.9-6.1,1.2c-2.2,0.3-4.8,0.4-7.9,0.4c-7,0-12.1-1.4-15.6-4.2c-3.4-2.9-5.1-7.7-5.1-14.5v-26.2h-7.2v-12.1h7.4
									v-16h18v16H510V591.5z"/>
								<path fill="#006B8D" d="M431.2,591.4c-1.7,0-3.4,0.3-5.2,0.8c-1.8,0.5-3.5,1.3-5.1,2.2v28.1c1.2,0.5,2.4,0.8,3.8,0.9
									s2.7,0.2,4,0.2c4.7,0,8.2-1.3,10.6-4.1c2.4-2.8,3.4-6.9,3.4-12.5c0-5.5-0.9-9.3-2.8-11.9
									C438.2,592.5,435.2,591.4,431.2,591.4z"/>
								<path fill="#006B8D" d="M359.9,591.4c-1.7,0-3.4,0.3-5.2,0.8c-1.8,0.5-3.5,1.3-5.1,2.2v28.1c1.2,0.5,2.4,0.8,3.8,0.9
									s2.7,0.2,4,0.2c4.7,0,8.2-1.3,10.6-4.1c2.4-2.8,3.4-6.9,3.4-12.5c0-5.5-0.9-9.3-2.8-11.9C366.9,592.5,364,591.4,359.9,591.4
									z"/>
							</g>
						</g>
					</g>
				</g>
			</g>
		</g>
	</g>
</g>
</svg>
