<?xml version="1.0" encoding="utf-8"?>
<!-- Generator: Adobe Illustrator 18.0.0, SVG Export Plug-In . SVG Version: 6.00 Build 0)  -->
<!DOCTYPE svg PUBLIC "-//W3C//DTD SVG 1.1//EN" "http://www.w3.org/Graphics/SVG/1.1/DTD/svg11.dtd">
<svg version="1.1" id="Layer_1" xmlns="http://www.w3.org/2000/svg" xmlns:xlink="http://www.w3.org/1999/xlink" x="0px" y="0px"
	 viewBox="0 123.3 595.3 595.3" enable-background="new 0 123.3 595.3 595.3" xml:space="preserve" width="40px" height="40px">
<g>
	<g id="Layer_1_1_">
		<g>
			<path fill="#006B8D" d="M551.8,298.7c23.9,0,43.5,0,43.5,0l-86.9-93.5v46.7C508.3,277.8,527.7,298.7,551.8,298.7z"/>
			<g>
				<path fill="#006B8D" d="M452,477.5v15.7h15.7C467.7,484.5,460.6,477.5,452,477.5z"/>
				<polygon fill="#006B8D" points="463.7,449.6 466.9,449.6 466.9,413.3 439.9,413.3 439.9,416.2 463.7,416.2 				"/>
				<polygon fill="#006B8D" points="462.2,451.2 462.2,417.7 438.4,417.7 435.3,417.7 435.3,454.1 462.2,454.1 				"/>
				<path fill="#006B8D" d="M450.1,479.4c-8.9,0-16,7.4-15.6,16.6c0.4,7.8,6.8,14.3,14.7,14.7c9,0.5,16.4-6.7,16.4-15.6h-15.6
					L450.1,479.4L450.1,479.4z"/>
				<path fill="#006B8D" d="M377.1,427.3c-3.9-3.2-9.8-3.9-17-1.8c-5.3,1.4-10.6,3.7-13.4,5.1v64.2l6.9,2l0.3-28.3
					c1.4,0.6,3.4,0.9,5.3,0.9c7.2,0.5,14.3-2.1,18.9-7.9c3.7-4.3,5.5-10.4,5.5-18.1C383.5,435.7,381,430.3,377.1,427.3z
					 M359.4,461.6c-2.2,0-4.1-0.3-5.5-0.8l0.3-26.2c1.1-0.6,3.3-1.4,6.2-2.1c8.1-1.8,14.1,1.8,14.1,12.2
					C374.5,455.7,368.4,461.7,359.4,461.6z"/>
				<path fill="#006B8D" d="M545.8,321.3c-27.1,0-60.3-34.6-60.3-63.6c0-28,0-51,0-52.4v-0.1H260.8c-31.3,0.1-56.7,25.5-56.7,56.8
					v150.9v249c0,31.3,25.4,56.7,56.7,56.7h277.6c31.3,0,56.7-25.4,56.7-56.7V321.3H545.8z M420.6,403h60.2v123.5h-60.2V403z
					 M320.4,402.6l92.3-17.7v160l-92.3-17.7V402.6L320.4,402.6z M260.9,635.5h-18.6v-19.5h18.6C260.9,615.9,260.9,635.5,260.9,635.5
					z M336.6,606.8c0,4.6-0.7,8.8-2.1,12.6c-1.4,3.7-3.2,6.9-5.5,9.3c-2.4,2.6-5.1,4.5-8.1,5.8s-6.2,2-9.7,2c-3.2,0-5.8-0.3-8.1-1
					c-2.2-0.7-4.5-1.6-6.8-2.8V656h-17.9v-76.2h17.9v5.8c2.8-2.2,5.5-3.9,8.4-5.3c2.9-1.4,6.2-2,9.9-2c7,0,12.4,2.6,16.2,7.6
					C334.7,590.9,336.6,597.9,336.6,606.8z M318.2,607.1c0-5.4-0.9-9.3-2.8-11.8c-1.8-2.4-4.8-3.7-8.7-3.7c-1.7,0-3.4,0.3-5.2,0.8
					c-1.8,0.5-3.5,1.2-5.1,2.2v28.1c1.2,0.5,2.4,0.8,3.8,0.9c1.4,0.1,2.7,0.2,4,0.2c4.7,0,8.2-1.4,10.6-4.1
					C317,616.9,318.2,612.7,318.2,607.1z M407.7,606.8c0,4.6-0.7,8.8-2.1,12.6c-1.4,3.7-3.2,6.9-5.5,9.3c-2.4,2.6-5.1,4.5-8.1,5.8
					s-6.2,2-9.7,2c-3.2,0-5.8-0.3-8.1-1c-2.2-0.7-4.5-1.6-6.8-2.8V656h-17.9v-76.2h17.9v5.8c2.8-2.2,5.5-3.9,8.4-5.3
					c2.9-1.4,6.2-2,9.9-2c7,0,12.4,2.6,16.2,7.6C405.8,590.9,407.7,597.9,407.7,606.8z M389.3,607.1c0-5.4-0.9-9.3-2.8-11.8
					c-1.8-2.4-4.8-3.7-8.7-3.7c-1.7,0-3.4,0.3-5.2,0.8c-1.8,0.5-3.5,1.2-5.1,2.2v28.1c1.2,0.5,2.4,0.8,3.8,0.9
					c1.4,0.1,2.7,0.2,4,0.2c4.7,0,8.2-1.4,10.6-4.1C388.1,616.9,389.3,612.7,389.3,607.1z M456.3,634.9c-1.9,0.5-3.9,0.9-6.1,1.2
					c-2.2,0.3-4.8,0.4-7.9,0.4c-7,0-12.2-1.4-15.5-4.2c-3.4-2.8-5.1-7.6-5.1-14.5v-26.1h-7.4v-12.1h7.4v-16h17.9v16h16.7v12.1h-16.7
					v19.8c0,2,0,3.7,0.1,5.1c0,1.4,0.3,2.8,0.8,3.9c0.5,1.2,1.2,2.1,2.4,2.8c1.2,0.7,2.9,1.1,5.1,1.1c0.9,0,2.2-0.2,3.6-0.6
					c1.4-0.4,2.6-0.8,3.2-1.1h1.5L456.3,634.9L456.3,634.9z M521.5,595.9v39.6h-17.9v-27.9c0-2.7-0.1-5-0.2-6.9
					c-0.1-1.9-0.5-3.5-1.1-4.7c-0.6-1.2-1.5-2-2.7-2.6c-1.2-0.5-2.9-0.8-5.1-0.8c-1.8,0-3.5,0.3-5.1,1.1c-1.6,0.7-3.2,1.4-4.5,2.2
					v39.6h-17.9v-55.8h17.9v6.2c3.1-2.4,6-4.3,8.8-5.7c2.8-1.4,5.9-2,9.3-2c3.7,0,6.9,0.8,9.7,2.4c2.8,1.6,5,4.1,6.6,7.2
					c3.5-3,7-5.4,10.4-7.1c3.4-1.7,6.7-2.6,9.9-2.6c6,0,10.6,1.8,13.7,5.4c3.2,3.6,4.7,8.8,4.7,15.6v36.3h-17.9v-27.9
					c0-2.8-0.1-5.1-0.2-7s-0.5-3.4-1.1-4.6s-1.4-2-2.7-2.6c-1.2-0.5-3-0.8-5.2-0.8c-1.5,0-3,0.3-4.4,0.8
					C525.2,593.9,523.5,594.7,521.5,595.9z"/>
			</g>
		</g>
	</g>
	<g id="Layer_2" display="none">
	</g>
</g>
</svg>
