<?xml version="1.0" encoding="utf-8"?>
<!-- Generator: Adobe Illustrator 18.0.0, SVG Export Plug-In . SVG Version: 6.00 Build 0)  -->
<!DOCTYPE svg PUBLIC "-//W3C//DTD SVG 1.1//EN" "http://www.w3.org/Graphics/SVG/1.1/DTD/svg11.dtd">
<svg version="1.1" id="Layer_1" xmlns="http://www.w3.org/2000/svg" xmlns:xlink="http://www.w3.org/1999/xlink" x="0px" y="0px"
	 viewBox="0 123.3 595.3 595.3" enable-background="new 0 123.3 595.3 595.3" xml:space="preserve" width="40px" height="40px">
<g id="Layer_2_2_">
</g>
<g id="Layer_3">
	<g>
		<g>
			<g id="Layer_2">
				<g>
					<g>
						<path fill="#006B8D" d="M228.2,145.2c61.5,0,111.4,50,111.4,111.4S289.5,368,228.2,368s-111.4-49.9-111.4-111.4
							S166.6,145.2,228.2,145.2 M228.2,123.3c-73.5,0-133.3,59.7-133.3,133.4c0,73.6,59.6,133.3,133.3,133.3s133.3-59.6,133.3-133.3
							S301.8,123.3,228.2,123.3L228.2,123.3z"/>
					</g>
					<g>
						<path fill="#006B8D" d="M272.3,247.2h-67.6v-23.1c0-6.5,2.3-12,6.9-16.7c4.6-4.6,10.1-6.9,16.7-6.9c6.6,0,12,2.3,16.7,6.9
							c4.5,4.5,6.8,10,6.9,16.4c0,0.1,0-0.1,0,0c0,1.5,0.6,3,1.8,4.2c1.2,1.2,2.5,1.8,4.2,1.8h5.8c1.5,0,3-0.6,4.2-1.8
							c1.2-1.2,1.8-2.5,1.8-4.2c0-0.1,0,0.1,0,0c-0.1-11.2-4-20.8-12.1-28.8c-8.1-8.1-17.7-12.1-29-12.1c-11.3,0-21.1,4-29,12.1
							c-8.1,8.1-12.1,17.7-12.1,29v23.2h-3c-2.5,0-4.5,0.8-6.3,2.6c-1.7,1.7-2.6,3.8-2.6,6.3v65.7c0,2.5,0.8,4.5,2.6,6.3
							c1.7,1.7,3.8,2.6,6.3,2.6h88.4c2.5,0,4.5-0.8,6.3-2.6c1.7-1.7,2.6-3.8,2.6-6.3V256c0-2.5-0.8-4.5-2.6-6.3
							C276.8,248.1,274.8,247.2,272.3,247.2z M235.1,290.3v17.3c0,3.5-2.9,6.3-6.3,6.3h-1.2c-3.5,0-6.3-2.9-6.3-6.3v-17.3
							c-3.7-2.3-6.2-6.4-6.2-11.1c0-7.3,5.8-13.1,13.1-13.1s13.1,5.8,13.1,13.1C241.2,283.9,238.8,287.9,235.1,290.3z"/>
					</g>
				</g>
			</g>
		</g>
		<g>
			<g>
				<g>
					<path fill="#006B8D" d="M551.7,299c23.9,0,43.5,0,43.5,0l-86.8-93.6v46.7C508.2,278.1,527.6,299,551.7,299z"/>
					<g>
						<g>
							<g>
								<g>
									<g>
										<g>
											<g>
												<path fill="#006B8D" d="M306.9,591.7c-1.7,0-3.4,0.3-5.2,0.8s-3.4,1.3-5.1,2.2v28c1.2,0.5,2.4,0.8,3.8,0.9
													c1.3,0.2,2.7,0.2,4,0.2c4.7,0,8.2-1.3,10.5-4.1c2.3-2.8,3.4-6.9,3.4-12.4c0-5.4-0.9-9.3-2.8-11.8
													C313.8,593,311,591.7,306.9,591.7z"/>
												<path fill="#006B8D" d="M452.2,477.6v15.7h15.7C467.9,484.6,460.9,477.6,452.2,477.6z"/>
												<polygon fill="#006B8D" points="464,449.7 467.1,449.7 467.1,413.4 440.2,413.4 440.2,416.4 464,416.4 												"/>
												<polygon fill="#006B8D" points="462.5,451.3 462.5,418 438.6,418 435.5,418 435.5,454.3 462.5,454.3 												"/>
												<path fill="#006B8D" d="M450.3,479.6c-8.9,0-16.1,7.4-15.6,16.6c0.4,7.8,6.8,14.3,14.7,14.7c9,0.4,16.4-6.7,16.4-15.6
													h-15.6V479.6z"/>
												<path fill="#006B8D" d="M378.1,591.7c-1.7,0-3.4,0.3-5.2,0.8s-3.4,1.3-5.1,2.2v28c1.2,0.5,2.4,0.8,3.8,0.9
													c1.3,0.2,2.7,0.2,4,0.2c4.7,0,8.2-1.3,10.5-4.1c2.3-2.8,3.4-6.9,3.4-12.4c0-5.4-0.9-9.3-2.8-11.8
													C384.9,593,382,591.7,378.1,591.7z"/>
												<path fill="#006B8D" d="M545.7,321.5c-27.1,0-60.2-34.5-60.2-63.6c0-29.1,0-52.5,0-52.5H377c5.6,16.2,8.7,33.6,8.7,51.6
													c0,87.1-70.6,157.7-157.7,157.7c-8,0-16-0.6-23.7-1.8v248.8c0,31.3,25.4,56.7,56.7,56.7h277.5
													c31.3,0,56.7-25.4,56.7-56.7V321.5H545.7z M420.8,403.2H481v123.4h-60.2V403.2z M261.2,635.5h-18.6V616h18.6V635.5z
													 M334.8,619.4c-1.4,3.8-3.3,6.9-5.5,9.3c-2.4,2.6-5,4.5-8.1,5.9s-6.2,2-9.7,2c-3.2,0-5.9-0.3-8.1-1
													c-2.2-0.7-4.5-1.6-6.8-2.9V656h-17.9v-76.2h17.9v5.8c2.8-2.2,5.5-4,8.4-5.3c2.9-1.3,6.1-2,9.9-2c7,0,12.4,2.5,16.2,7.7
													c3.9,5.1,5.8,12.1,5.8,21C336.9,611.5,336.2,615.6,334.8,619.4z M405.9,619.4c-1.4,3.8-3.3,6.9-5.5,9.3
													c-2.4,2.6-5,4.5-8.1,5.9c-3,1.3-6.2,2-9.7,2c-3.2,0-5.9-0.3-8.1-1c-2.2-0.7-4.5-1.6-6.8-2.9V656h-17.9v-76.2h17.9v5.8
													c2.8-2.2,5.5-4,8.4-5.3c2.9-1.3,6.1-2,9.9-2c7,0,12.4,2.5,16.2,7.7c3.9,5.1,5.8,12.1,5.8,21
													C408,611.5,407.3,615.6,405.9,619.4z M412.9,545l-92.2-17.7V402.8l92.2-17.7L412.9,545L412.9,545z M456.5,591.9h-16.6
													v19.8c0,1.9,0,3.7,0.1,5.1c0,1.4,0.3,2.8,0.8,4c0.4,1.2,1.3,2.1,2.4,2.8c1.2,0.7,2.9,1,5.1,1c0.9,0,2.1-0.2,3.6-0.6
													c1.5-0.4,2.5-0.8,3.1-1.1h1.5V635c-1.9,0.5-4,0.8-6.1,1.2c-2.2,0.3-4.8,0.4-7.9,0.4c-7,0-12.1-1.4-15.6-4.2
													c-3.4-2.8-5.1-7.7-5.1-14.5v-26.1h-7.3v-12.1h7.3v-16h17.9v16h16.6v12.1H456.5z M558.2,635.5h-17.9v-27.8
													c0-2.8-0.1-5-0.2-7c-0.1-1.8-0.5-3.4-1.1-4.6c-0.6-1.2-1.4-2.1-2.7-2.6c-1.3-0.6-2.9-0.8-5.1-0.8
													c-1.5,0-2.9,0.3-4.4,0.8c-1.4,0.5-3.2,1.3-5.2,2.5v39.5h-17.9v-27.8c0-2.7-0.1-5-0.2-6.9c-0.2-1.9-0.5-3.4-1.1-4.6
													c-0.6-1.2-1.5-2.1-2.7-2.6c-1.2-0.6-2.9-0.8-5.1-0.8c-1.8,0-3.4,0.3-5.1,1.1c-1.7,0.7-3.1,1.4-4.5,2.3v39.5h-17.9v-55.7
													h17.9v6.1c3.1-2.4,6.1-4.3,8.8-5.6c2.8-1.3,5.9-2,9.3-2c3.7,0,6.9,0.8,9.8,2.4c2.8,1.6,5,4,6.6,7.2
													c3.5-3,7.1-5.4,10.4-7.1c3.4-1.7,6.6-2.6,9.9-2.6c6.1,0,10.6,1.8,13.7,5.4c3.1,3.6,4.7,8.8,4.7,15.6L558.2,635.5
													L558.2,635.5z"/>
												<path fill="#006B8D" d="M354.1,468.6c1.4,0.6,3.4,0.8,5.3,0.9c7.2,0.4,14.3-2.1,18.9-7.9c3.7-4.4,5.5-10.4,5.5-18.1
													c-0.1-7.7-2.5-13-6.5-16.1c-4-3.1-9.8-3.9-17-1.8c-5.2,1.4-10.7,3.7-13.4,5v64.1l6.9,1.9L354.1,468.6z M354.3,434.8
													c1.1-0.6,3.3-1.3,6.1-2.1c8.2-1.8,14,1.8,14.1,12.2c0.1,10.9-6.1,17-15,17c-2.3,0-4.1-0.3-5.5-0.8L354.3,434.8z"/>
											</g>
										</g>
									</g>
								</g>
							</g>
						</g>
					</g>
				</g>
			</g>
		</g>
	</g>
</g>
</svg>
