<?xml version="1.0" encoding="utf-8"?>
<!-- Generator: Adobe Illustrator 18.0.0, SVG Export Plug-In . SVG Version: 6.00 Build 0)  -->
<!DOCTYPE svg PUBLIC "-//W3C//DTD SVG 1.1//EN" "http://www.w3.org/Graphics/SVG/1.1/DTD/svg11.dtd">
<svg version="1.1" id="Layer_1" xmlns="http://www.w3.org/2000/svg" xmlns:xlink="http://www.w3.org/1999/xlink" x="0px" y="0px"
	 viewBox="0 123.3 595.3 595.3" enable-background="new 0 123.3 595.3 595.3" xml:space="preserve" width="40px" height="40px">
<g id="Layer_2">
	<g>
		<g>
			<g>
				<path fill="#006B8D" d="M227.8,145.3c61.5,0,111.6,50.1,111.6,111.6s-50.1,111.6-111.6,111.6s-111.6-50.1-111.6-111.6
					S166.2,145.3,227.8,145.3 M227.8,123.3c-73.7,0-133.5,59.7-133.5,133.5c0,73.6,59.7,133.5,133.5,133.5s133.5-59.7,133.5-133.5
					C361.2,183,301.5,123.3,227.8,123.3L227.8,123.3z"/>
			</g>
			<g>
				<path fill="#006B8D" d="M271.9,247.2h-67.7v-23.1c0-6.6,2.3-12,6.9-16.7c4.6-4.6,10.1-6.9,16.7-6.9s12,2.3,16.7,6.9
					c4.5,4.5,6.8,10,6.9,16.4c0,0.1,0,24,0,24c0,1.5,0.6,2.9,1.8,4.2c1.2,1.3,2.5,1.8,4.2,1.8h5.8c1.5,0,2.9-0.6,4.2-1.8
					c1.2-1.2,1.8-2.5,1.8-4.2c0-0.1,0-24,0-24.1c-0.1-11.2-4-20.9-12.1-28.9c-8.1-8.1-17.8-12.1-29.1-12.1c-11.4,0-21.1,4-29.1,12.1
					c-8.1,8.1-12.1,17.8-12.1,29.1v23.1h-2.9c-2.5,0-4.5,0.8-6.3,2.6c-1.7,1.7-2.6,3.8-2.6,6.3v65.7c0,2.5,0.8,4.5,2.6,6.3
					c1.7,1.7,3.8,2.6,6.3,2.6h88.4c2.5,0,4.5-0.8,6.3-2.6c1.7-1.7,2.6-3.8,2.6-6.3v-65.7c0-2.5-0.8-4.5-2.6-6.3
					C276.5,248.3,274.5,247.2,271.9,247.2z M234.7,290.4v17.2c0,3.4-2.9,6.3-6.3,6.3h-1.2c-3.4,0-6.3-2.9-6.3-6.3v-17.2
					c-3.7-2.3-6.2-6.4-6.2-11.1c0-7.2,5.8-13.1,13.1-13.1c7.2,0,13.1,5.8,13.1,13.1C240.8,284,238.5,288,234.7,290.4z"/>
			</g>
		</g>
		<g>
			<g>
				<path fill="#006B8D" d="M551.7,298.7c23.9,0,43.6,0,43.6,0L508.4,205v46.8C508.1,277.7,527.5,298.7,551.7,298.7z"/>
				<g>
					<g>
						<g>
							<g>
								<g>
									<g>
										<g>
											<path fill="#006B8D" d="M306.7,591.6c-1.7,0-3.4,0.3-5.2,0.8s-3.4,1.3-5.1,2.2v28c1.2,0.5,2.4,0.8,3.8,0.9
												c1.3,0.2,2.7,0.2,4,0.2c4.7,0,8.2-1.3,10.5-4.1s3.4-6.9,3.4-12.5c0-5.4-0.9-9.3-2.8-11.8
												C313.6,592.9,310.6,591.6,306.7,591.6z"/>
											<path fill="#006B8D" d="M452.1,477.4v15.7h15.7C467.8,484.4,460.7,477.4,452.1,477.4z"/>
											<polygon fill="#006B8D" points="463.8,449.5 467,449.5 467,413.2 440,413.2 440,416.2 463.8,416.2 											"/>
											<polygon fill="#006B8D" points="462.3,451.1 462.3,417.7 438.4,417.7 435.3,417.7 435.3,454.1 462.3,454.1 											
												"/>
											<path fill="#006B8D" d="M450.1,479.4c-8.9,0-16.1,7.4-15.6,16.6c0.4,7.8,6.8,14.3,14.7,14.7c9,0.4,16.4-6.7,16.4-15.6
												h-15.6V479.4z"/>
											<path fill="#006B8D" d="M377.8,591.6c-1.7,0-3.4,0.3-5.2,0.8c-1.8,0.5-3.4,1.3-5.1,2.2v28c1.2,0.5,2.4,0.8,3.8,0.9
												c1.3,0.2,2.7,0.2,4,0.2c4.7,0,8.2-1.3,10.5-4.1s3.4-6.9,3.4-12.5c0-5.4-0.9-9.3-2.8-11.8
												C384.7,592.9,381.8,591.6,377.8,591.6z"/>
											<path fill="#006B8D" d="M545.6,321.2c-27.1,0-60.2-34.5-60.2-63.6s0-52.6,0-52.6H376.8c5.6,16.2,8.8,33.7,8.8,51.7
												c0,87.2-70.7,157.8-157.8,157.8c-8,0-16-0.6-23.7-1.8v249c0,31.3,25.4,56.8,56.8,56.8h277.7c31.3,0,56.8-25.4,56.8-56.8
												V321.2H545.6z M420.7,403h60.2v123.5h-60.2V403z M260.8,635.5h-18.6v-19.5h18.6V635.5z M334.5,619.3
												c-1.4,3.8-3.3,6.9-5.6,9.3c-2.4,2.6-5,4.5-8.1,5.9s-6.2,2-9.7,2c-3.2,0-5.9-0.3-8.1-1c-2.2-0.7-4.5-1.6-6.8-2.9v23.2
												h-17.9v-76.2h17.9v5.8c2.8-2.2,5.6-4,8.4-5.3c2.9-1.3,6.1-2,9.9-2c7,0,12.4,2.5,16.2,7.7s5.8,12.1,5.8,21
												C336.6,611.4,335.9,615.5,334.5,619.3z M405.6,619.3c-1.4,3.8-3.3,6.9-5.6,9.3c-2.4,2.6-5,4.5-8.1,5.9
												c-3,1.3-6.2,2-9.7,2c-3.2,0-5.9-0.3-8.1-1s-4.5-1.6-6.8-2.9v23.2h-17.9v-76.2h17.9v5.8c2.8-2.2,5.6-4,8.4-5.3
												c2.9-1.3,6.1-2,9.9-2c7,0,12.4,2.5,16.2,7.7c3.9,5.1,5.8,12.1,5.8,21C407.7,611.4,407.1,615.5,405.6,619.3z M412.7,544.8
												l-92.3-17.8V402.6l92.3-17.8L412.7,544.8L412.7,544.8z M456.4,591.8h-16.7v19.8c0,1.9,0,3.7,0.1,5.1c0,1.4,0.3,2.8,0.8,4
												c0.4,1.2,1.3,2.1,2.4,2.8c1.2,0.7,2.9,1,5.1,1c0.9,0,2.1-0.2,3.6-0.6c1.5-0.4,2.5-0.8,3.1-1.1h1.5v12.2
												c-1.9,0.5-4,0.8-6.1,1.2s-4.8,0.4-7.9,0.4c-7,0-12.1-1.4-15.6-4.2c-3.4-2.8-5.1-7.7-5.1-14.5v-26.1h-7.3v-12.1h7.3v-16
												h17.9v16h16.7v12.1H456.4z M558.2,635.5h-17.9v-27.8c0-2.8-0.1-5-0.2-7c-0.1-1.9-0.5-3.4-1.1-4.6
												c-0.6-1.2-1.4-2.1-2.7-2.6c-1.3-0.6-2.9-0.8-5.1-0.8c-1.5,0-2.9,0.3-4.4,0.8s-3.2,1.3-5.2,2.5v39.5h-17.9v-27.8
												c0-2.7-0.1-5-0.2-6.9c-0.2-1.9-0.5-3.4-1.1-4.6c-0.6-1.2-1.5-2.1-2.7-2.6c-1.2-0.6-2.9-0.8-5.1-0.8
												c-1.8,0-3.4,0.3-5.1,1.1c-1.7,0.7-3.1,1.4-4.5,2.3v39.5h-17.9v-55.8H485v6.1c3.1-2.4,6.1-4.3,8.8-5.6
												c2.8-1.3,5.9-2,9.3-2c3.7,0,6.9,0.8,9.8,2.4c2.8,1.6,5,4,6.6,7.2c3.5-3,7.1-5.4,10.4-7.1c3.4-1.7,6.6-2.6,9.9-2.6
												c6.1,0,10.6,1.8,13.7,5.4c3.1,3.6,4.7,8.8,4.7,15.6L558.2,635.5L558.2,635.5z"/>
											<path fill="#006B8D" d="M353.9,468.4c1.4,0.6,3.4,0.8,5.3,0.9c7.2,0.4,14.3-2.1,18.9-7.9c3.7-4.4,5.6-10.4,5.5-18.1
												c-0.1-7.7-2.5-13-6.5-16.1c-4-3.1-9.8-3.9-17-1.9c-5.2,1.4-10.7,3.7-13.4,5v64.2l6.9,1.9L353.9,468.4z M354.1,434.5
												c1.1-0.6,3.3-1.3,6.1-2.1c8.2-1.8,14.1,1.9,14.1,12.2c0.1,10.9-6.1,17-15.1,17c-2.3,0-4.1-0.3-5.6-0.8L354.1,434.5z"/>
										</g>
									</g>
								</g>
							</g>
						</g>
					</g>
				</g>
			</g>
		</g>
	</g>
</g>
<g id="Layer_3" display="none">
</g>
</svg>
