<?xml version="1.0" encoding="utf-8"?>
<!-- Generator: Adobe Illustrator 18.0.0, SVG Export Plug-In . SVG Version: 6.00 Build 0)  -->
<!DOCTYPE svg PUBLIC "-//W3C//DTD SVG 1.1//EN" "http://www.w3.org/Graphics/SVG/1.1/DTD/svg11.dtd">
<svg version="1.1" id="Layer_1" xmlns="http://www.w3.org/2000/svg" xmlns:xlink="http://www.w3.org/1999/xlink" x="0px" y="0px"
	 viewBox="0 123.3 595.3 595.3" enable-background="new 0 123.3 595.3 595.3" xml:space="preserve" width="40px" height="40px">
<g>
	<g>
		<path fill="#006B8D" d="M551.6,298.6c23.9,0,43.6,0,43.6,0l-86.8-93.4v46.8C508.3,277.7,527.7,298.6,551.6,298.6z"/>
		<g>
			<g>
				<g>
					<path fill="#006B8D" d="M545.8,321.1c-27.1,0-60.2-34.6-60.2-63.6s0-52.4,0-52.4h-77.5v29.2h-16.9v-29.2H260.8
						c-31.3,0.1-56.8,25.4-56.8,56.8v151v0.1v248.9c0,31.3,25.4,56.8,56.8,56.8h277.7c31.3,0,56.8-25.4,56.8-56.8V321.1H545.8z
						 M391.2,265.7h16.9V297h-16.9V265.7z M391,328.4h16.9v31.3H391V328.4z M391,391h16.9v31.3H391V391z M399.5,528.5
						c-17.5,0-31.7-14.2-31.7-31.7c0-1.3,0.1-2.6,0.2-3.9c2.6-24.8,28.9-53.3,28.9-53.3c0.5-0.5,1-0.8,1.4-1.1l0.8-0.2l0.8,0.2
						c0.5,0.2,1,0.6,1.4,1.1c0,0,26.7,28.6,29.4,53.3c0.1,1.3,0.2,2.6,0.2,3.9C431.2,514.2,417,528.5,399.5,528.5z M324.4,635.4
						h-18.6v-19.6h18.6V635.4z M382.5,596.5h-1.6c-0.8-0.3-2-0.5-3.7-0.6c-1.7-0.1-3.1-0.2-4.2-0.2c-2.6,0-4.8,0.2-6.8,0.5
						c-2,0.3-4.1,0.9-6.3,1.7v37.4h-18v-55.9h18v8.2c3.9-3.4,7.4-5.6,10.3-6.8c2.9-1.1,5.6-1.6,8.1-1.6c0.7,0,1.3,0,2.2,0.1
						c0.8,0.1,1.5,0.1,2.1,0.1v17H382.5z M426.5,629.5c-1,0.7-2.2,1.6-3.6,2.6c-1.4,1.1-2.8,1.8-4,2.4c-1.8,0.8-3.6,1.4-5.5,1.8
						c-1.9,0.4-3.9,0.6-6.2,0.6c-5.3,0-9.8-1.6-13.3-4.9c-3.6-3.3-5.4-7.5-5.4-12.6c0-4.1,0.9-7.4,2.8-10c1.8-2.6,4.4-4.6,7.8-6.1
						s7.4-2.6,12.3-3.2c4.9-0.7,10-1.1,15.3-1.4v-0.3c0-3.1-1.2-5.2-3.8-6.4c-2.5-1.2-6.2-1.8-11.2-1.8c-3,0-6.1,0.5-9.5,1.6
						c-3.4,1.1-5.8,1.8-7.2,2.4h-1.6v-13.5c1.9-0.5,5-1.1,9.3-1.8c4.3-0.7,8.5-1.1,12.8-1.1c10.2,0,17.5,1.6,22.1,4.7
						c4.5,3.2,6.8,8.1,6.8,14.8v38h-17.8L426.5,629.5L426.5,629.5z M426.5,620.8v-11.6c-2.4,0.2-5.1,0.5-7.9,0.8
						c-2.8,0.3-5,0.7-6.4,1.2c-1.8,0.6-3.2,1.4-4.1,2.4c-1,1.1-1.4,2.5-1.4,4.3c0,1.2,0.1,2.1,0.3,2.8c0.2,0.7,0.7,1.4,1.5,2.1
						c0.8,0.7,1.7,1.2,2.8,1.4c1.1,0.3,2.7,0.5,5,0.5c1.8,0,3.6-0.4,5.5-1.1C423.5,622.9,425.1,622,426.5,620.8z M501.3,596.5h-1.6
						c-0.8-0.3-2-0.5-3.7-0.6c-1.7-0.1-3.1-0.2-4.2-0.2c-2.6,0-4.8,0.2-6.8,0.5c-2,0.3-4.1,0.9-6.3,1.7v37.4h-18v-55.9h17.9v8.2
						c3.9-3.4,7.4-5.6,10.3-6.8c2.9-1.1,5.6-1.6,8.1-1.6c0.7,0,1.3,0,2.2,0.1c0.8,0.1,1.5,0.1,2.1,0.1L501.3,596.5L501.3,596.5z"/>
					<path fill="#006B8D" d="M399.5,476.3c-11.2,0-20.4,9.2-20.4,20.4s9.2,20.4,20.4,20.4s20.4-9.2,20.4-20.4
						C419.8,485.5,410.7,476.3,399.5,476.3z"/>
				</g>
			</g>
		</g>
	</g>
</g>
</svg>
