<?xml version="1.0" encoding="utf-8"?>
<!-- Generator: Adobe Illustrator 18.0.0, SVG Export Plug-In . SVG Version: 6.00 Build 0)  -->
<!DOCTYPE svg PUBLIC "-//W3C//DTD SVG 1.1//EN" "http://www.w3.org/Graphics/SVG/1.1/DTD/svg11.dtd">
<svg version="1.1" id="Layer_2" xmlns="http://www.w3.org/2000/svg" xmlns:xlink="http://www.w3.org/1999/xlink" x="0px" y="0px"
	 viewBox="0 123.3 595.3 595.3" enable-background="new 0 123.3 595.3 595.3" xml:space="preserve" width="40px" height="40px">
<g>
	<g>
		<g>
			<path fill="#006B8D" d="M551.8,298.6c23.9,0,43.5,0,43.5,0l-86.9-93.4V252C508.4,277.9,527.8,298.6,551.8,298.6z"/>
			<g>
				<path fill="#006B8D" d="M546,321.2c-27.2,0-60.2-34.5-60.2-63.6c0-29.1,0-52.5,0-52.5h-0.1H377.1H260.8
					c-31.4,0.1-56.8,25.5-56.8,56.9v150.9l0.1,0.1v248.9c0,31.4,25.4,56.7,56.7,56.7h277.7c31.4,0,56.7-25.4,56.7-56.7V321.2H546z
					 M480.6,520H318.5c-5.9,0-10.7-4.8-10.7-10.7c0-5.9,4.8-10.7,10.7-10.7h162.1c5.9,0,10.7,4.8,10.7,10.7
					C491.4,515.2,486.6,520,480.6,520z M480.6,482.4H318.5c-5.9,0-10.7-4.8-10.7-10.7c0-5.9,4.8-10.7,10.7-10.7h162.1
					c5.9,0,10.7,4.8,10.7,10.7C491.4,477.6,486.6,482.4,480.6,482.4z M480.6,444.7H318.5c-5.9,0-10.7-4.8-10.7-10.7
					c0-5.9,4.8-10.7,10.7-10.7h162.1c5.9,0,10.7,4.8,10.7,10.7C491.4,439.9,486.6,444.7,480.6,444.7z M480.6,407.1H318.5
					c-5.9,0-10.7-4.8-10.7-10.7c0-5.9,4.8-10.7,10.7-10.7h162.1c5.9,0,10.7,4.8,10.7,10.7C491.4,402.3,486.6,407.1,480.6,407.1z
					 M339.1,634.1h-18.5v-19.5h18.5V634.1z M397,595.4h-1.6c-0.8-0.3-2-0.5-3.7-0.6c-1.7-0.1-3.1-0.2-4.2-0.2
					c-2.6,0-4.8,0.2-6.7,0.5c-2,0.3-4.1,0.9-6.3,1.7v37.3h-17.9v-55.8h17.9v8.2c3.9-3.4,7.4-5.6,10.3-6.7s5.6-1.6,8-1.6
					c0.7,0,1.3,0,2.1,0.1s1.5,0.1,2.1,0.1L397,595.4L397,595.4z M443.3,570H442c-0.8-0.3-1.8-0.5-3.1-0.8c-1.2-0.3-2.6-0.5-4.1-0.5
					c-3.5,0-5.9,0.7-7.1,1.9s-1.8,3.7-1.8,7.3v0.5h13.7v12.1h-13.1v43.6h-17.9v-43.6h-7.6v-12.1h7.6v-1.5c0-6.8,1.8-11.9,5.5-15.3
					c3.6-3.4,9.1-5.1,16.4-5.1c2.6,0,5.1,0.1,7.2,0.3c2.2,0.2,4.1,0.4,5.7,0.7V570z M485.7,633.6c-1.9,0.5-3.9,0.9-6.1,1.2
					c-2.2,0.3-4.8,0.4-7.9,0.4c-7,0-12.1-1.4-15.5-4.2c-3.4-2.8-5.1-7.6-5.1-14.5v-26h-7.4v-12.1h7.4v-15.9H469v15.9h16.7v12.1H469
					v19.8c0,2,0,3.7,0.1,5.1c0,1.4,0.3,2.8,0.8,3.9c0.5,1.2,1.2,2.1,2.4,2.8c1.2,0.7,2.9,1,5.1,1c0.9,0,2.1-0.2,3.6-0.6
					c1.5-0.4,2.6-0.8,3.2-1.1h1.5V633.6z"/>
			</g>
		</g>
	</g>
</g>
</svg>
