<?xml version="1.0" encoding="utf-8"?>
<!-- Generator: Adobe Illustrator 18.0.0, SVG Export Plug-In . SVG Version: 6.00 Build 0)  -->
<!DOCTYPE svg PUBLIC "-//W3C//DTD SVG 1.1//EN" "http://www.w3.org/Graphics/SVG/1.1/DTD/svg11.dtd">
<svg version="1.1" id="Layer_1" xmlns="http://www.w3.org/2000/svg" xmlns:xlink="http://www.w3.org/1999/xlink" x="0px" y="0px"
	 viewBox="0 123.3 595.3 595.3" enable-background="new 0 123.3 595.3 595.3" xml:space="preserve" width="40px" height="40px">
<g>
	<path fill="#006B8D" d="M551.5,298.6c23.9,0,43.6,0,43.6,0l-86.9-93.4V252C508.1,278.1,527.5,298.6,551.5,298.6z"/>
	<path fill="#006B8D" d="M457.9,523.7h10.3c1.9,0,3.3-1.5,3.3-3.3v-10.6c0-1.8-1.4-3.3-3.3-3.3h-10.3c-1.8,0-3.3,1.5-3.3,3.3v10.6
		C454.6,522.2,456,523.7,457.9,523.7z"/>
	<path fill="#006B8D" d="M457.9,496.8h10.3c1.9,0,3.3-1.4,3.3-3.3v-10.6c0-1.9-1.4-3.3-3.3-3.3h-10.3c-1.8,0-3.3,1.4-3.3,3.3v10.6
		C454.6,495.3,456,496.8,457.9,496.8z"/>
	<path fill="#006B8D" d="M457.9,469.9h10.3c1.9,0,3.3-1.4,3.3-3.3V456c0-1.9-1.4-3.3-3.3-3.3h-10.3c-1.8,0-3.3,1.5-3.3,3.3v10.6
		C454.6,468.4,456,469.9,457.9,469.9z"/>
	<path fill="#006B8D" d="M359.2,439H440c1.8,0,3.3-1.5,3.3-3.3v-52.3c0-1.9-1.5-3.3-3.3-3.3h-80.8c-1.9,0-3.3,1.4-3.3,3.3v52.3
		C356,437.4,357.4,439,359.2,439z"/>
	<path fill="#006B8D" d="M359.2,515.7H440c1.8,0,3.3-1.5,3.3-3.3V464c0-1.8-1.5-3.3-3.3-3.3h-80.8c-1.9,0-3.3,1.4-3.3,3.3v48.4
		C356,514.2,357.4,515.7,359.2,515.7z"/>
	<path fill="#006B8D" d="M457.9,389.2h10.3c1.9,0,3.3-1.4,3.3-3.3v-10.6c0-1.9-1.4-3.3-3.3-3.3h-10.3c-1.8,0-3.3,1.4-3.3,3.3v10.6
		C454.6,387.7,456,389.2,457.9,389.2z"/>
	<path fill="#006B8D" d="M331.1,416.1h10.3c1.8,0,3.3-1.5,3.3-3.3v-10.6c0-1.9-1.4-3.3-3.3-3.3h-10.3c-1.8,0-3.3,1.4-3.3,3.3v10.6
		C327.9,414.6,329.3,416.1,331.1,416.1z"/>
	<path fill="#006B8D" d="M457.9,443h10.3c1.9,0,3.3-1.5,3.3-3.3v-10.6c0-1.9-1.4-3.3-3.3-3.3h-10.3c-1.8,0-3.3,1.5-3.3,3.3v10.6
		C454.6,441.6,456,443,457.9,443z"/>
	<path fill="#006B8D" d="M327.9,385.9c0,1.9,1.5,3.3,3.3,3.3h10.3c1.8,0,3.3-1.4,3.3-3.3v-10.6c0-1.9-1.4-3.3-3.3-3.3h-6.1
		c-2.4,2.3-4.9,4.5-7.4,6.5L327.9,385.9L327.9,385.9z"/>
	<path fill="#006B8D" d="M457.9,416.1h10.3c1.9,0,3.3-1.5,3.3-3.3v-10.6c0-1.9-1.4-3.3-3.3-3.3h-10.3c-1.8,0-3.3,1.4-3.3,3.3v10.6
		C454.6,414.6,456,416.1,457.9,416.1z"/>
	<path fill="#006B8D" d="M545.6,321.1c-27.1,0-60.3-34.5-60.3-63.6c0-28.9,0-52.6,0-52.6H376.7c5.6,16.2,8.8,33.7,8.8,51.7
		c0,40.5-15.2,77.4-40.3,105.4h125.1c6.1,0,10.9,5,10.9,10.9v150c0,6.1-5,10.9-10.9,10.9H328.9c-6.1,0-10.9-4.9-10.9-10.9V386.1
		c-25.6,17.9-56.7,28.4-90.3,28.4c-8,0-16-0.6-23.7-1.8v249.1c0,31.3,25.4,56.8,56.8,56.8h277.7c31.3,0,56.8-25.4,56.8-56.8V321.1
		H545.6z M328.7,635.2h-18.6v-19.6h18.6V635.2z M386.8,596.3h-1.6c-0.8-0.3-2-0.5-3.7-0.6c-1.7-0.2-3.1-0.2-4.2-0.2
		c-2.5,0-4.8,0.2-6.7,0.5c-1.9,0.3-4,0.9-6.3,1.7v37.4h-18v-56h18v8.2c4-3.4,7.4-5.6,10.3-6.7c2.9-1.1,5.6-1.7,8.1-1.7
		c0.6,0,1.3,0,2.1,0.1c0.8,0,1.5,0.1,2.1,0.2L386.8,596.3L386.8,596.3z M451.6,595.6v39.6h-18v-27.9c0-2.7-0.1-5-0.2-7
		c-0.2-1.9-0.5-3.5-1.1-4.6c-0.6-1.2-1.5-2.1-2.7-2.6c-1.2-0.6-2.9-0.8-5.1-0.8c-1.8,0-3.5,0.3-5.1,1.1c-1.7,0.7-3.1,1.4-4.5,2.3
		v39.6h-17.9v-56h18v6.1c3.1-2.4,6.1-4.3,8.8-5.6c2.8-1.3,6-2,9.3-2c3.7,0,6.9,0.8,9.8,2.4s5,4,6.6,7.2c3.6-3,7.1-5.4,10.4-7.2
		c3.4-1.8,6.7-2.6,9.9-2.6c6.1,0,10.6,1.9,13.7,5.4c3.1,3.6,4.7,8.8,4.7,15.7v36.4h-18v-27.9c0-2.8-0.1-5-0.2-7
		c-0.1-1.9-0.5-3.5-1.1-4.6s-1.4-2.1-2.7-2.6c-1.3-0.6-2.9-0.8-5.2-0.8c-1.5,0-2.9,0.3-4.4,0.8C455.4,593.5,453.7,594.3,451.6,595.6
		z"/>
	<path fill="#006B8D" d="M331.1,523.7h10.3c1.8,0,3.3-1.5,3.3-3.3v-10.6c0-1.8-1.4-3.3-3.3-3.3h-10.3c-1.8,0-3.3,1.5-3.3,3.3v10.6
		C327.9,522.2,329.3,523.7,331.1,523.7z"/>
	<path fill="#006B8D" d="M331.1,496.8h10.3c1.8,0,3.3-1.4,3.3-3.3v-10.6c0-1.9-1.4-3.3-3.3-3.3h-10.3c-1.8,0-3.3,1.4-3.3,3.3v10.6
		C327.9,495.3,329.3,496.8,331.1,496.8z"/>
	<path fill="#006B8D" d="M331.1,469.9h10.3c1.8,0,3.3-1.4,3.3-3.3V456c0-1.9-1.4-3.3-3.3-3.3h-10.3c-1.8,0-3.3,1.5-3.3,3.3v10.6
		C327.9,468.4,329.3,469.9,331.1,469.9z"/>
	<path fill="#006B8D" d="M331.1,443h10.3c1.8,0,3.3-1.5,3.3-3.3v-10.6c0-1.9-1.4-3.3-3.3-3.3h-10.3c-1.8,0-3.3,1.5-3.3,3.3v10.6
		C327.9,441.6,329.3,443,331.1,443z"/>
	<path fill="#006B8D" d="M227.5,145.3c61.5,0,111.5,50.1,111.5,111.5s-50.1,111.5-111.5,111.5S116,318.1,116,256.8
		S165.9,145.3,227.5,145.3 M227.5,123.3C153.9,123.3,94,183.1,94,256.9c0,73.7,59.7,133.5,133.5,133.5s133.5-59.7,133.5-133.5
		S301.2,123.3,227.5,123.3L227.5,123.3z"/>
	<path fill="#006B8D" d="M271.6,247.3H204v-23.1c0-6.5,2.3-12,6.9-16.7c4.6-4.6,10.1-6.9,16.7-6.9s12,2.3,16.7,6.9
		c4.7,4.6,6.9,10.1,6.9,16.7c0,1.5,0.6,3,1.8,4.2c1.2,1.2,2.5,1.8,4.2,1.8h5.8c1.5,0,3-0.6,4.2-1.8c1.2-1.2,1.8-2.5,1.8-4.2
		c0-11.3-4-21.1-12.1-29c-8.1-8.1-17.7-12.1-29-12.1c-11.3,0-21.1,4-29,12.1c-8.1,8.1-12.1,17.8-12.1,29v23.1h-3
		c-2.5,0-4.5,0.8-6.3,2.6c-1.7,1.7-2.6,3.8-2.6,6.3V322c0,2.5,0.8,4.5,2.6,6.3c1.7,1.7,3.8,2.6,6.3,2.6h88.4c2.5,0,4.5-0.8,6.3-2.6
		c1.7-1.7,2.6-3.8,2.6-6.3v-65.7c0-2.5-0.8-4.5-2.6-6.3C276.2,248.3,274.2,247.3,271.6,247.3z M234.5,290.5v17.3
		c0,3.5-2.9,6.3-6.3,6.3H227c-3.5,0-6.3-2.9-6.3-6.3v-17.3c-3.7-2.3-6.2-6.4-6.2-11.1c0-7.3,5.8-13.1,13.1-13.1s13.1,5.8,13.1,13.1
		C240.5,284,238.1,288.1,234.5,290.5z"/>
</g>
</svg>
