<?xml version="1.0" encoding="utf-8"?>
<!-- Generator: Adobe Illustrator 18.0.0, SVG Export Plug-In . SVG Version: 6.00 Build 0)  -->
<!DOCTYPE svg PUBLIC "-//W3C//DTD SVG 1.1//EN" "http://www.w3.org/Graphics/SVG/1.1/DTD/svg11.dtd">
<svg version="1.1" id="Layer_1" xmlns="http://www.w3.org/2000/svg" xmlns:xlink="http://www.w3.org/1999/xlink" x="0px" y="0px"
	 viewBox="0 123.3 595.3 595.3" enable-background="new 0 123.3 595.3 595.3" xml:space="preserve" width="40px" height="40px">
<g>
	<path fill="#006B8D" d="M551.9,298.7c24,0,43.5,0,43.5,0l-87-93.6v46.7C508.4,277.7,527.9,298.7,551.9,298.7z"/>
	<path fill="#006B8D" d="M458,496.1h10.2c1.8,0,3.3-1.4,3.3-3.3v-10.5c0-1.8-1.4-3.3-3.3-3.3H458c-1.8,0-3.3,1.4-3.3,3.3v10.5
		C454.8,494.6,456.3,496.1,458,496.1z"/>
	<path fill="#006B8D" d="M359.5,438.3h80.7c1.8,0,3.3-1.5,3.3-3.3v-52.3c0-1.8-1.4-3.3-3.3-3.3h-80.7c-1.8,0-3.3,1.4-3.3,3.3V435
		C356.2,436.8,357.7,438.3,359.5,438.3z"/>
	<path fill="#006B8D" d="M458,522.9h10.2c1.8,0,3.3-1.5,3.3-3.3v-10.6c0-1.8-1.4-3.3-3.3-3.3H458c-1.8,0-3.3,1.4-3.3,3.3v10.6
		C454.8,521.5,456.3,522.9,458,522.9z"/>
	<path fill="#006B8D" d="M458,469.3h10.2c1.8,0,3.3-1.4,3.3-3.3v-10.6c0-1.8-1.4-3.3-3.3-3.3H458c-1.8,0-3.3,1.4-3.3,3.3V466
		C454.8,467.8,456.3,469.3,458,469.3z"/>
	<path fill="#006B8D" d="M359.5,514.9h80.7c1.8,0,3.3-1.4,3.3-3.3v-48.4c0-1.8-1.4-3.3-3.3-3.3h-80.7c-1.8,0-3.3,1.4-3.3,3.3v48.4
		C356.2,513.5,357.7,514.9,359.5,514.9z"/>
	<path fill="#006B8D" d="M458,388.6h10.2c1.8,0,3.3-1.4,3.3-3.3v-10.6c0-1.8-1.4-3.3-3.3-3.3H458c-1.8,0-3.3,1.4-3.3,3.3v10.6
		C454.8,387.1,456.3,388.6,458,388.6z"/>
	<path fill="#006B8D" d="M458,442.4h10.2c1.8,0,3.3-1.5,3.3-3.3v-10.6c0-1.8-1.4-3.3-3.3-3.3H458c-1.8,0-3.3,1.5-3.3,3.3v10.6
		C454.8,440.9,456.3,442.4,458,442.4z"/>
	<path fill="#006B8D" d="M458,415.4h10.2c1.8,0,3.3-1.5,3.3-3.3v-10.6c0-1.8-1.4-3.3-3.3-3.3H458c-1.8,0-3.3,1.4-3.3,3.3v10.6
		C454.8,414,456.3,415.4,458,415.4z"/>
	<path fill="#006B8D" d="M331.4,415.4h10.2c1.8,0,3.3-1.5,3.3-3.3v-10.6c0-1.8-1.4-3.3-3.3-3.3h-10.2c-1.8,0-3.3,1.4-3.3,3.3v10.6
		C328.1,414,329.6,415.4,331.4,415.4z"/>
	<path fill="#006B8D" d="M331.4,522.9h10.2c1.8,0,3.3-1.5,3.3-3.3v-10.6c0-1.8-1.4-3.3-3.3-3.3h-10.2c-1.8,0-3.3,1.4-3.3,3.3v10.6
		C328.1,521.5,329.6,522.9,331.4,522.9z"/>
	<path fill="#006B8D" d="M331.4,496.1h10.2c1.8,0,3.3-1.4,3.3-3.3v-10.5c0-1.8-1.4-3.3-3.3-3.3h-10.2c-1.8,0-3.3,1.4-3.3,3.3v10.5
		C328.1,494.6,329.6,496.1,331.4,496.1z"/>
	<path fill="#006B8D" d="M546,321.2c-27.1,0-60.3-34.6-60.3-63.5s0-52.6,0-52.6H261c-31.3,0.2-56.7,25.6-56.7,56.9v150.9v249
		c0,31.3,25.4,56.7,56.7,56.7h277.6c31.3,0,56.7-25.4,56.7-56.7V321.2H546z M318.2,372.3c0-6,4.9-10.9,11-10.9h141.3
		c6,0,11,4.9,11,10.9v149.9c0,6-4.9,10.9-11,10.9H329.2c-6,0-11-4.9-11-10.9V372.3L318.2,372.3z M329.3,635.2h-18.6v-19.6h18.6
		V635.2z M387.4,596.4h-1.6c-0.8-0.3-2-0.5-3.7-0.6s-3.1-0.2-4.2-0.2c-2.6,0-4.8,0.2-6.8,0.5c-2,0.3-4.1,0.9-6.3,1.7v37.4h-18v-55.8
		h17.9v8.2c3.9-3.4,7.4-5.7,10.2-6.8s5.6-1.6,8-1.6c0.7,0,1.3,0,2.1,0.1c0.8,0.1,1.5,0.1,2.1,0.1v17H387.4z M452.1,595.6v39.6h-17.9
		v-27.9c0-2.7-0.1-5.1-0.2-7c-0.1-1.9-0.5-3.5-1.1-4.7s-1.5-2-2.7-2.6c-1.2-0.5-2.9-0.8-5.1-0.8c-1.8,0-3.5,0.3-5.1,1.1
		c-1.6,0.7-3.2,1.4-4.5,2.2v39.6h-17.9v-55.8h17.9v6.2c3.1-2.4,6-4.3,8.9-5.7c2.8-1.4,5.9-2,9.3-2c3.7,0,6.9,0.8,9.7,2.4
		s5,4.1,6.6,7.2c3.5-3,7-5.4,10.4-7.1c3.4-1.7,6.7-2.6,9.9-2.6c6,0,10.6,1.8,13.7,5.5c3.2,3.6,4.7,8.8,4.7,15.6v36.3h-17.9v-27.9
		c0-2.8-0.1-5.1-0.2-7c-0.1-1.9-0.5-3.4-1.1-4.6c-0.6-1.2-1.4-2-2.7-2.6c-1.2-0.5-3-0.8-5.2-0.8c-1.5,0-3,0.3-4.4,0.8
		C455.9,593.6,454.2,594.4,452.1,595.6z"/>
	<path fill="#006B8D" d="M331.4,469.3h10.2c1.8,0,3.3-1.4,3.3-3.3v-10.6c0-1.8-1.4-3.3-3.3-3.3h-10.2c-1.8,0-3.3,1.4-3.3,3.3V466
		C328.1,467.8,329.6,469.3,331.4,469.3z"/>
	<path fill="#006B8D" d="M331.4,388.6h10.2c1.8,0,3.3-1.4,3.3-3.3v-10.6c0-1.8-1.4-3.3-3.3-3.3h-10.2c-1.8,0-3.3,1.4-3.3,3.3v10.6
		C328.1,387.1,329.6,388.6,331.4,388.6z"/>
	<path fill="#006B8D" d="M331.4,442.4h10.2c1.8,0,3.3-1.5,3.3-3.3v-10.6c0-1.8-1.4-3.3-3.3-3.3h-10.2c-1.8,0-3.3,1.5-3.3,3.3v10.6
		C328.1,440.9,329.6,442.4,331.4,442.4z"/>
</g>
</svg>
