<?xml version="1.0" encoding="utf-8"?>
<!-- Generator: Adobe Illustrator 18.0.0, SVG Export Plug-In . SVG Version: 6.00 Build 0)  -->
<!DOCTYPE svg PUBLIC "-//W3C//DTD SVG 1.1//EN" "http://www.w3.org/Graphics/SVG/1.1/DTD/svg11.dtd">
<svg version="1.1" id="Layer_1" xmlns="http://www.w3.org/2000/svg" xmlns:xlink="http://www.w3.org/1999/xlink" x="0px" y="0px"
	 viewBox="0 123.3 595.3 595.3" enable-background="new 0 123.3 595.3 595.3" xml:space="preserve" width="40px" height="40px">
<g>
	<path fill="#006B8D" d="M551.8,298.7c24,0,43.5,0,43.5,0l-87-93.6v46.7C508.3,277.7,527.7,298.7,551.8,298.7z"/>
	<path fill="#006B8D" d="M457.9,496.1h10.2c1.8,0,3.3-1.4,3.3-3.3v-10.5c0-1.8-1.4-3.3-3.3-3.3h-10.2c-1.8,0-3.3,1.4-3.3,3.3v10.5
		C454.6,494.6,456.1,496.1,457.9,496.1z"/>
	<path fill="#006B8D" d="M359.4,438.3h80.7c1.8,0,3.3-1.5,3.3-3.3v-52.3c0-1.8-1.4-3.3-3.3-3.3h-80.7c-1.8,0-3.3,1.4-3.3,3.3V435
		C356.1,436.8,357.5,438.3,359.4,438.3z"/>
	<path fill="#006B8D" d="M457.9,522.9h10.2c1.8,0,3.3-1.5,3.3-3.3v-10.6c0-1.8-1.4-3.3-3.3-3.3h-10.2c-1.8,0-3.3,1.4-3.3,3.3v10.6
		C454.6,521.5,456.1,522.9,457.9,522.9z"/>
	<path fill="#006B8D" d="M457.9,469.3h10.2c1.8,0,3.3-1.4,3.3-3.3v-10.6c0-1.8-1.4-3.3-3.3-3.3h-10.2c-1.8,0-3.3,1.4-3.3,3.3V466
		C454.6,467.8,456.1,469.3,457.9,469.3z"/>
	<path fill="#006B8D" d="M359.4,514.9h80.7c1.8,0,3.3-1.4,3.3-3.3v-48.4c0-1.8-1.4-3.3-3.3-3.3h-80.7c-1.8,0-3.3,1.4-3.3,3.3v48.4
		C356.1,513.5,357.5,514.9,359.4,514.9z"/>
	<path fill="#006B8D" d="M457.9,388.6h10.2c1.8,0,3.3-1.4,3.3-3.3v-10.6c0-1.8-1.4-3.3-3.3-3.3h-10.2c-1.8,0-3.3,1.4-3.3,3.3v10.6
		C454.6,387.1,456.1,388.6,457.9,388.6z"/>
	<path fill="#006B8D" d="M457.9,442.4h10.2c1.8,0,3.3-1.5,3.3-3.3v-10.6c0-1.8-1.4-3.3-3.3-3.3h-10.2c-1.8,0-3.3,1.5-3.3,3.3v10.6
		C454.6,440.9,456.1,442.4,457.9,442.4z"/>
	<path fill="#006B8D" d="M457.9,415.4h10.2c1.8,0,3.3-1.5,3.3-3.3v-10.6c0-1.8-1.4-3.3-3.3-3.3h-10.2c-1.8,0-3.3,1.4-3.3,3.3v10.6
		C454.6,414,456.1,415.4,457.9,415.4z"/>
	<path fill="#006B8D" d="M331.2,415.4h10.2c1.8,0,3.3-1.5,3.3-3.3v-10.6c0-1.8-1.4-3.3-3.3-3.3h-10.2c-1.8,0-3.3,1.4-3.3,3.3v10.6
		C328,414,329.5,415.4,331.2,415.4z"/>
	<path fill="#006B8D" d="M331.2,522.9h10.2c1.8,0,3.3-1.5,3.3-3.3v-10.6c0-1.8-1.4-3.3-3.3-3.3h-10.2c-1.8,0-3.3,1.4-3.3,3.3v10.6
		C328,521.5,329.5,522.9,331.2,522.9z"/>
	<path fill="#006B8D" d="M331.2,496.1h10.2c1.8,0,3.3-1.4,3.3-3.3v-10.5c0-1.8-1.4-3.3-3.3-3.3h-10.2c-1.8,0-3.3,1.4-3.3,3.3v10.5
		C328,494.6,329.5,496.1,331.2,496.1z"/>
	<path fill="#006B8D" d="M545.9,321.2c-27.1,0-60.3-34.6-60.3-63.5s0-52.6,0-52.6H260.9c-31.3,0.2-56.7,25.6-56.7,56.9v150.9v249
		c0,31.3,25.4,56.7,56.7,56.7h277.6c31.3,0,56.7-25.4,56.7-56.7V321.2H545.9z M318.1,372.3c0-6,4.9-10.9,11-10.9h141.3
		c6,0,11,4.9,11,10.9v149.9c0,6-4.9,10.9-11,10.9H329.1c-6,0-11-4.9-11-10.9V372.3L318.1,372.3z M307.3,634.9h-18.6v-19.6h18.6
		V634.9z M373.4,617.2c0,5.8-2.6,10.4-7.8,13.9c-5.2,3.5-12.2,5.3-21.2,5.3c-5,0-9.5-0.5-13.5-1.4c-4.1-0.9-7.3-2-9.7-3.1v-14.7h1.6
		c0.9,0.7,1.9,1.3,3.1,2c1.2,0.7,2.8,1.6,5,2.4c1.8,0.8,3.9,1.4,6.3,2c2.4,0.5,4.9,0.8,7.6,0.8c3.5,0,6.1-0.4,7.8-1.2
		c1.7-0.8,2.6-1.9,2.6-3.5c0-1.4-0.5-2.4-1.5-3c-1-0.6-2.9-1.2-5.7-1.8c-1.3-0.3-3.2-0.6-5.4-1c-2.3-0.3-4.3-0.8-6.2-1.2
		c-5.1-1.3-8.9-3.4-11.3-6.2c-2.4-2.8-3.7-6.3-3.7-10.4c0-5.4,2.6-9.9,7.6-13.4c5.1-3.5,12-5.3,20.9-5.3c4.2,0,8.2,0.4,12,1.2
		c3.8,0.9,6.8,1.8,9,2.7v14.1h-1.5c-2.6-1.8-5.7-3.3-9.1-4.5c-3.4-1.1-6.8-1.7-10.3-1.7c-2.9,0-5.3,0.4-7.3,1.2s-3,1.9-3,3.4
		c0,1.3,0.5,2.4,1.3,3c0.9,0.7,3,1.4,6.3,2.1c1.8,0.4,3.8,0.7,5.9,1.1c2.1,0.3,4.2,0.8,6.4,1.3c4.7,1.2,8.2,3.2,10.4,5.8
		C372.3,610,373.4,613.3,373.4,617.2z M474.4,579l-17.3,55.8h-19.1l-11.4-37.6l-11.2,37.6h-19.2L379.1,579h18.8l9.6,38.5l11.9-38.5
		h15.8l11.3,38.5L456,579H474.4z M521.3,570.6H520c-0.8-0.3-1.8-0.5-3.1-0.8s-2.6-0.5-4.1-0.5c-3.5,0-5.8,0.7-7.1,1.9
		c-1.2,1.2-1.8,3.7-1.8,7.3v0.5h13.8v12.2h-13.3v43.7h-17.9v-43.7h-7.7V579h7.7v-1.5c0-6.8,1.8-12,5.5-15.4s9.1-5.1,16.5-5.1
		c2.6,0,5.1,0.1,7.2,0.3c2.2,0.2,4.1,0.4,5.7,0.7L521.3,570.6L521.3,570.6z"/>
	<path fill="#006B8D" d="M331.2,469.3h10.2c1.8,0,3.3-1.4,3.3-3.3v-10.6c0-1.8-1.4-3.3-3.3-3.3h-10.2c-1.8,0-3.3,1.4-3.3,3.3V466
		C328,467.8,329.5,469.3,331.2,469.3z"/>
	<path fill="#006B8D" d="M331.2,388.6h10.2c1.8,0,3.3-1.4,3.3-3.3v-10.6c0-1.8-1.4-3.3-3.3-3.3h-10.2c-1.8,0-3.3,1.4-3.3,3.3v10.6
		C328,387.1,329.5,388.6,331.2,388.6z"/>
	<path fill="#006B8D" d="M331.2,442.4h10.2c1.8,0,3.3-1.5,3.3-3.3v-10.6c0-1.8-1.4-3.3-3.3-3.3h-10.2c-1.8,0-3.3,1.5-3.3,3.3v10.6
		C328,440.9,329.5,442.4,331.2,442.4z"/>
</g>
</svg>
