<?xml version="1.0" encoding="utf-8"?>
<!-- Generator: Adobe Illustrator 18.0.0, SVG Export Plug-In . SVG Version: 6.00 Build 0)  -->
<!DOCTYPE svg PUBLIC "-//W3C//DTD SVG 1.1//EN" "http://www.w3.org/Graphics/SVG/1.1/DTD/svg11.dtd">
<svg version="1.1" id="Layer_1" xmlns="http://www.w3.org/2000/svg" xmlns:xlink="http://www.w3.org/1999/xlink" x="0px" y="0px"
	 viewBox="0 123.3 595.3 595.3" enable-background="new 0 123.3 595.3 595.3" xml:space="preserve" width="40px" height="40px">
<g id="Layer_1_1_">
	<g>
		<g>
			<path fill="#006B8D" d="M228.4,145.2c61.4,0,111.5,50,111.5,111.5s-50,111.5-111.5,111.5S117,318.1,117,256.6
				S166.9,145.2,228.4,145.2 M228.4,123.3C154.8,123.3,95,183,95,256.6C95,330.2,154.7,390,228.4,390s133.3-59.6,133.3-133.3
				C361.6,183,302.1,123.3,228.4,123.3L228.4,123.3z"/>
		</g>
		<g>
			<path fill="#006B8D" d="M272.5,247.2h-67.6v-23.1c0-6.5,2.3-12,6.9-16.7c4.6-4.6,10.1-6.9,16.7-6.9c6.6,0,12,2.3,16.7,6.9
				c4.5,4.5,6.8,10,6.9,16.4c0,0.1,0-0.1,0,0c0,1.5,0.6,3,1.8,4.2c1.2,1.2,2.5,1.8,4.2,1.8h5.8c1.5,0,3-0.6,4.2-1.8
				c1.2-1.2,1.8-2.5,1.8-4.2c0-0.1,0,0.1,0,0c-0.1-11.2-4-20.8-12.1-28.8c-8.1-8.1-17.7-12.1-29-12.1s-21.1,4-29,12.1
				c-8.1,8.1-12.1,17.7-12.1,29v23.1h-3c-2.5,0-4.5,0.8-6.3,2.6c-1.7,1.7-2.6,3.8-2.6,6.3v65.6c0,2.5,0.8,4.5,2.6,6.3
				c1.7,1.7,3.8,2.6,6.3,2.6h88.1c2.5,0,4.5-0.8,6.3-2.6c1.7-1.7,2.6-3.8,2.6-6.3v-65.5c0-2.5-0.8-4.5-2.6-6.3
				C277,248.2,275,247.2,272.5,247.2z M235.3,290.4v17.3c0,3.5-2.9,6.3-6.3,6.3h-1.2c-3.5,0-6.3-2.9-6.3-6.3v-17.3
				c-3.7-2.3-6.2-6.4-6.2-11.1c0-7.3,5.8-13.1,13.1-13.1c7.3,0,13.1,5.8,13.1,13.1C241.4,283.9,239,288,235.3,290.4z"/>
		</g>
		<g>
			<path fill="#006B8D" d="M551.7,298.9c23.9,0,43.5,0,43.5,0l-86.9-93.3v46.7C508.3,278.1,527.7,298.9,551.7,298.9z"/>
			<g>
				<g>
					<path fill="#006B8D" d="M545.9,321.4c-27.1,0-60.2-34.5-60.2-63.5c0-28.9,0-52.5,0-52.5H377.1c5.6,16.2,8.7,33.6,8.7,51.6
						c0,53.2-26.3,100.2-66.6,128.8h161.5c6,0,10.8,4.8,10.8,10.8c0,6-4.8,10.8-10.8,10.8H318.6c-6,0-10.8-4.8-10.8-10.8
						c0-1.3,0.3-2.7,0.8-3.9c-23.6,14-51.2,22.1-80.6,22.1c-8,0-16-0.6-23.7-1.8v248.9c0,31.3,25.4,56.7,56.7,56.7h277.5
						c31.3,0,56.7-25.4,56.7-56.7V321.4H545.9z M318.6,423.3h162.1c6,0,10.8,4.8,10.8,10.8s-4.8,10.8-10.8,10.8H318.6
						c-6,0-10.8-4.8-10.8-10.8C307.9,428.1,312.6,423.3,318.6,423.3z M318.6,461.1h162.1c6,0,10.8,4.8,10.8,10.8
						s-4.8,10.8-10.8,10.8H318.6c-6,0-10.8-4.8-10.8-10.8S312.6,461.1,318.6,461.1z M318.6,498.6h162.1c6,0,10.8,4.8,10.8,10.8
						c0,6-4.8,10.8-10.8,10.8H318.6c-6,0-10.8-4.8-10.8-10.8C307.9,503.4,312.6,498.6,318.6,498.6z M328.8,633.9h-18.6v-19.5h18.6
						V633.9z M381.9,590.4h-16.6v19.7c0,1.9,0,3.7,0.1,5.1c0,1.4,0.3,2.8,0.8,3.9c0.4,1.2,1.3,2.1,2.4,2.8c1.2,0.7,2.9,1,5.1,1
						c0.9,0,2.1-0.2,3.6-0.6s2.5-0.8,3.1-1.1h1.5v12.2c-1.9,0.5-3.9,0.8-6.1,1.2c-2.2,0.3-4.8,0.4-7.9,0.4c-7,0-12.1-1.4-15.5-4.2
						c-3.4-2.8-5-7.6-5-14.5v-26H340v-12.1h7.3v-15.9h17.9v15.9h16.6V590.4z M429.8,633.9L418,617.3l-12.2,16.6h-20.4l21.9-27.8
						l-21.6-27.8h20.8l11.7,16.3l11.8-16.3h20.4l-21.7,27.4l21.9,28.2L429.8,633.9L429.8,633.9z M496,590.4h-16.6v19.7
						c0,1.9,0,3.7,0.1,5.1c0,1.4,0.3,2.8,0.8,3.9c0.4,1.2,1.3,2.1,2.4,2.8s2.9,1,5.1,1c0.9,0,2.1-0.2,3.6-0.6s2.5-0.8,3.1-1.1h1.5
						v12.2c-1.9,0.5-3.9,0.8-6.1,1.2c-2.2,0.3-4.8,0.4-7.9,0.4c-7,0-12.1-1.4-15.5-4.2c-3.4-2.8-5-7.6-5-14.5v-26h-7.3v-12.1h7.3
						v-15.9h17.9v15.9H496V590.4z"/>
				</g>
			</g>
		</g>
	</g>
</g>
<g id="Layer_2" display="none">
</g>
</svg>
