<?xml version="1.0" encoding="utf-8"?>
<!-- Generator: Adobe Illustrator 18.0.0, SVG Export Plug-In . SVG Version: 6.00 Build 0)  -->
<!DOCTYPE svg PUBLIC "-//W3C//DTD SVG 1.1//EN" "http://www.w3.org/Graphics/SVG/1.1/DTD/svg11.dtd">
<svg version="1.1" id="Layer_1" xmlns="http://www.w3.org/2000/svg" xmlns:xlink="http://www.w3.org/1999/xlink" x="0px" y="0px"
	 viewBox="0 123.3 595.3 595.3" enable-background="new 0 123.3 595.3 595.3" xml:space="preserve" width="40px" height="40px">
<g>
	<g>
		<path fill="#006B8D" d="M297.8,172.4c137.2,0,248.8,111.7,248.8,248.8S434.9,670,297.8,670S48.9,558.3,48.9,421.2
			S160.2,172.4,297.8,172.4 M297.8,123.4C133.5,123.4,0,256.6,0,421.2c0,164.3,133.1,297.6,297.6,297.6s297.6-133.1,297.6-297.6
			C595.2,256.6,461.9,123.4,297.8,123.4L297.8,123.4z"/>
	</g>
	<g>
		<path fill="#006B8D" d="M396.1,399.9h-151v-51.6c0-14.6,5-26.8,15.4-37.3c10.4-10.4,22.6-15.4,37.3-15.4s26.8,5,37.3,15.4
			c10.1,10.1,15.1,22.4,15.4,36.7c0,0.2,0,53.5,0,53.5c0,3.5,1.3,6.7,3.9,9.3s5.6,3.9,9.3,3.9h13c3.5,0,6.7-1.3,9.3-3.9
			s3.9-5.6,3.9-9.3c0-0.2,0-53.5,0-53.7c-0.2-25-9-46.6-27.1-64.3c-18.1-18.1-39.6-27.1-64.9-27.1c-25.2,0-47,9-64.9,27.1
			c-18.1,18.1-27.1,39.6-27.1,64.9v51.6h-6.7c-5.6,0-10.1,1.9-14,5.8c-3.7,3.7-5.8,8.5-5.8,14V566c0,5.6,1.9,10.1,5.8,14
			c3.7,3.7,8.5,5.8,14,5.8h197.3c5.6,0,10.1-1.9,14-5.8c3.7-3.7,5.8-8.5,5.8-14V419.5c0-5.6-1.9-10.1-5.8-14
			C406.1,402,401.7,399.9,396.1,399.9z M313.1,496.1v38.6c0,7.7-6.4,14-14,14h-2.6c-7.7,0-14-6.4-14-14v-38.6
			c-8.2-5-13.8-14.4-13.8-24.8c0-16.2,13-29.3,29.3-29.3s29.3,13,29.3,29.3C326.7,481.8,321.3,490.8,313.1,496.1z"/>
	</g>
</g>
</svg>
