<?xml version="1.0" encoding="utf-8"?>
<!-- Generator: Adobe Illustrator 18.0.0, SVG Export Plug-In . SVG Version: 6.00 Build 0)  -->
<!DOCTYPE svg PUBLIC "-//W3C//DTD SVG 1.1//EN" "http://www.w3.org/Graphics/SVG/1.1/DTD/svg11.dtd">
<svg version="1.1" id="Layer_1" xmlns="http://www.w3.org/2000/svg" xmlns:xlink="http://www.w3.org/1999/xlink" x="0px" y="0px"
	 viewBox="0 123.3 595.3 595.3" enable-background="new 0 123.3 595.3 595.3" xml:space="preserve" width="40px" height="40px">
<g>
	<g>
		<path fill="#006B8D" d="M297.6,172.1c137.2,0,248.8,111.7,248.8,248.8S434.8,669.8,297.6,669.8S48.8,558.1,48.8,420.9
			S160.5,172.1,297.6,172.1 M297.6,123.3C133.3,123.3,0,256.5,0,420.9s133.3,297.6,297.6,297.6s297.6-133.2,297.6-297.6
			S462.1,123.3,297.6,123.3L297.6,123.3z"/>
	</g>
	<g>
		<path fill="#006B8D" d="M396.2,399.9H245.1v-51.7c0-14.5,5.1-26.9,15.4-37.1c10.2-10.2,22.6-15.4,37.1-15.4
			c14.5,0,26.9,5.1,37.1,15.4c10.1,10.1,15.2,22.4,15.4,36.7c0,0.1,0-0.2,0-0.1c0,3.6,1.3,6.7,3.9,9.3s5.7,3.9,9.3,3.9h13.1
			c3.6,0,6.7-1.3,9.3-3.9c2.6-2.6,3.9-5.7,3.9-9.3c0-0.2,0,0.2,0,0c-0.1-25.1-9.2-46.6-27-64.4c-18-18-39.6-27-65-27s-47,9-65,27
			s-27,39.6-27,65v51.7h-6.5c-5.5,0-10.1,1.9-13.9,5.7s-5.7,8.5-5.7,13.9v146.3c0,5.5,1.9,10.1,5.7,13.9s8.5,5.7,13.9,5.7h197
			c5.5,0,10.1-1.9,13.9-5.7c3.8-3.8,5.7-8.5,5.7-13.9V419.5c0-5.5-1.9-10.1-5.7-13.9C406.3,401.8,401.7,399.9,396.2,399.9z
			 M313.1,496v38.6c0,7.7-6.3,14-14,14h-2.7c-7.7,0-14-6.3-14-14V496c-8.2-5.1-13.8-14.3-13.8-24.8c0-16.2,13.1-29.2,29.2-29.2
			s29.2,13.1,29.2,29.2C326.9,481.7,321.3,490.8,313.1,496z"/>
	</g>
</g>
</svg>
