<?xml version="1.0" encoding="utf-8"?>
<!-- Generator: Adobe Illustrator 18.0.0, SVG Export Plug-In . SVG Version: 6.00 Build 0)  -->
<!DOCTYPE svg PUBLIC "-//W3C//DTD SVG 1.1//EN" "http://www.w3.org/Graphics/SVG/1.1/DTD/svg11.dtd">
<svg version="1.1" id="Layer_1" xmlns="http://www.w3.org/2000/svg" xmlns:xlink="http://www.w3.org/1999/xlink" x="0px" y="0px"
	 viewBox="0 123.3 595.3 595.3" enable-background="new 0 123.3 595.3 595.3" xml:space="preserve" width="40px" height="40px">
<g id="Layer_1_3_">
	<g id="Layer_1_2_">
		<g id="Layer_1_1_">
		</g>
	</g>
</g>
<g id="Layer_2_1_">
	<g id="Layer_2">
		<path fill="#006B8D" d="M227.5,145.3c61.5,0,111.6,50.1,111.6,111.6S289,368.4,227.5,368.4s-111.6-50.1-111.6-111.6
			S165.9,145.3,227.5,145.3 M227.5,123.3C153.9,123.3,94,183,94,256.8c0,73.7,59.7,133.5,133.5,133.5S361,330.6,361,256.8
			C361,183,301.2,123.3,227.5,123.3L227.5,123.3z"/>
		<path fill="#006B8D" d="M271.6,247.2h-67.7v-23.1c0-6.6,2.3-12,6.9-16.7c4.6-4.6,10.1-6.9,16.7-6.9s12,2.3,16.7,6.9
			c4.5,4.5,6.8,10,6.9,16.5c0,0.1,0,24,0,24c0,1.5,0.6,2.9,1.8,4.2c1.2,1.2,2.5,1.8,4.2,1.8h5.8c1.5,0,2.9-0.6,4.2-1.8
			c1.2-1.2,1.8-2.5,1.8-4.2c0-0.1,0-24,0-24.1c-0.1-11.2-4-20.9-12.2-28.9c-8.1-8.1-17.8-12.2-29.1-12.2s-21.1,4-29.1,12.2
			c-8.1,8.1-12.2,17.8-12.2,29.1v23.1h-2.9c-2.5,0-4.5,0.8-6.3,2.6c-1.7,1.7-2.6,3.8-2.6,6.3v65.6c0,2.5,0.8,4.5,2.6,6.3
			c1.7,1.7,3.8,2.6,6.3,2.6h88.4c2.5,0,4.5-0.8,6.3-2.6c1.7-1.7,2.6-3.8,2.6-6.3v-65.6c0-2.5-0.8-4.5-2.6-6.3
			C276.1,248.3,274.1,247.2,271.6,247.2z M234.4,290.4v17.2c0,3.4-2.9,6.3-6.3,6.3h-1.2c-3.4,0-6.3-2.9-6.3-6.3v-17.2
			c-3.7-2.3-6.2-6.5-6.2-11.1c0-7.2,5.8-13.1,13.1-13.1c7.2,0,13.1,5.8,13.1,13.1C240.6,284,238.1,288,234.4,290.4z"/>
	</g>
	<path fill="#006B8D" d="M551.5,298.7c23.9,0,43.6,0,43.6,0l-86.9-93.4V252C508.1,278,527.5,298.7,551.5,298.7z"/>
	<path fill="#006B8D" d="M457.9,523.7h10.3c1.9,0,3.3-1.5,3.3-3.3v-10.6c0-1.8-1.4-3.3-3.3-3.3h-10.3c-1.8,0-3.3,1.5-3.3,3.3v10.6
		C454.6,522.2,456,523.7,457.9,523.7z"/>
	<path fill="#006B8D" d="M457.9,496.8h10.3c1.9,0,3.3-1.4,3.3-3.3v-10.6c0-1.9-1.4-3.3-3.3-3.3h-10.3c-1.8,0-3.3,1.4-3.3,3.3v10.6
		C454.6,495.4,456,496.8,457.9,496.8z"/>
	<path fill="#006B8D" d="M457.9,470h10.3c1.9,0,3.3-1.4,3.3-3.3v-10.6c0-1.9-1.4-3.3-3.3-3.3h-10.3c-1.8,0-3.3,1.5-3.3,3.3v10.6
		C454.6,468.4,456,470,457.9,470z"/>
	<path fill="#006B8D" d="M359.3,439H440c1.8,0,3.3-1.5,3.3-3.3v-52.3c0-1.9-1.5-3.3-3.3-3.3h-80.8c-1.9,0-3.3,1.4-3.3,3.3v52.3
		C356,437.5,357.4,439,359.3,439z"/>
	<path fill="#006B8D" d="M359.3,515.7H440c1.8,0,3.3-1.5,3.3-3.3v-48.4c0-1.8-1.5-3.3-3.3-3.3h-80.8c-1.9,0-3.3,1.4-3.3,3.3v48.4
		C356,514.2,357.4,515.7,359.3,515.7z"/>
	<path fill="#006B8D" d="M457.9,389.3h10.3c1.9,0,3.3-1.4,3.3-3.3v-10.6c0-1.9-1.4-3.3-3.3-3.3h-10.3c-1.8,0-3.3,1.4-3.3,3.3V386
		C454.6,387.8,456,389.3,457.9,389.3z"/>
	<path fill="#006B8D" d="M331.2,416.1h10.3c1.8,0,3.3-1.5,3.3-3.3v-10.6c0-1.9-1.4-3.3-3.3-3.3h-10.3c-1.8,0-3.3,1.4-3.3,3.3v10.6
		C327.9,414.7,329.3,416.1,331.2,416.1z"/>
	<path fill="#006B8D" d="M457.9,443h10.3c1.9,0,3.3-1.5,3.3-3.3v-10.6c0-1.9-1.4-3.3-3.3-3.3h-10.3c-1.8,0-3.3,1.5-3.3,3.3v10.6
		C454.6,441.6,456,443,457.9,443z"/>
	<path fill="#006B8D" d="M327.9,386c0,1.9,1.5,3.3,3.3,3.3h10.3c1.8,0,3.3-1.4,3.3-3.3v-10.6c0-1.9-1.4-3.3-3.3-3.3h-6.1
		c-2.4,2.3-4.9,4.5-7.4,6.5L327.9,386L327.9,386z"/>
	<path fill="#006B8D" d="M457.9,416.1h10.3c1.9,0,3.3-1.5,3.3-3.3v-10.6c0-1.9-1.4-3.3-3.3-3.3h-10.3c-1.8,0-3.3,1.4-3.3,3.3v10.6
		C454.6,414.7,456,416.1,457.9,416.1z"/>
	<path fill="#006B8D" d="M545.6,321.2c-27.1,0-60.2-34.5-60.2-63.6c0-28.9,0-52.6,0-52.6H376.8c5.6,16.2,8.8,33.7,8.8,51.7
		c0,40.5-15.2,77.4-40.3,105.3h125.1c6.1,0,10.9,5,10.9,10.9v149.9c0,6.1-5,10.9-10.9,10.9H329c-6.1,0-10.9-4.9-10.9-10.9V386.2
		c-25.6,17.9-56.7,28.4-90.3,28.4c-8,0-16-0.6-23.7-1.8v249c0,31.3,25.4,56.8,56.8,56.8h277.7c31.3,0,56.8-25.4,56.8-56.8V321.2
		H545.6z M305.1,634.7h-18.6v-19.5h18.6V634.7z M378.9,578.8l-21.5,55.9h-20.3l-21.4-55.9h18.9l13,38.5l12.8-38.5H378.9z
		 M445.9,606.8c0,9.2-2.7,16.4-8,21.7c-5.4,5.3-12.9,7.9-22.5,7.9c-9.7,0-17.2-2.6-22.5-7.9c-5.4-5.3-8-12.5-8-21.7
		c0-9.3,2.7-16.5,8.1-21.8c5.4-5.3,12.9-7.9,22.5-7.9c9.8,0,17.2,2.7,22.6,8C443.2,590.4,445.9,597.6,445.9,606.8z M423.9,620.4
		c1.2-1.4,2-3.1,2.6-5.1c0.6-2,0.8-4.8,0.8-8.3c0-3.3-0.3-6.1-0.9-8.2c-0.6-2.2-1.4-4-2.5-5.3s-2.4-2.4-3.9-2.9
		c-1.5-0.5-3.1-0.8-4.8-0.8s-3.3,0.3-4.6,0.7c-1.3,0.5-2.6,1.4-3.9,2.8c-1.1,1.3-1.9,3-2.6,5.3c-0.7,2.3-1,5.1-1,8.5
		c0,3,0.3,5.7,0.8,7.9c0.6,2.3,1.4,4,2.5,5.4c1.1,1.3,2.4,2.3,3.8,2.9c1.5,0.6,3.2,0.9,5,0.9c1.6,0,3.2-0.3,4.6-0.8
		C421.6,622.6,422.9,621.7,423.9,620.4z M517,606c0,8.8-2.4,16-7.3,21.5c-4.9,5.6-10.9,8.3-18.2,8.3c-3.1,0-5.8-0.3-8.2-1
		s-4.6-1.6-6.7-2.9l-0.8,2.8h-17.2v-77.4h17.9v27.3c2.8-2.2,5.6-4,8.4-5.3s6.1-2,9.9-2c7.1,0,12.5,2.5,16.3,7.7
		C515.2,590,517,597.1,517,606z M498.6,606.4c0-5-0.8-8.8-2.5-11.4c-1.7-2.7-4.7-4-9-4c-1.7,0-3.4,0.3-5.2,0.8
		c-1.8,0.5-3.4,1.3-5.1,2.2v28c1.3,0.5,2.5,0.8,3.7,0.9c1.2,0.2,2.5,0.3,4.2,0.3c4.7,0,8.2-1.4,10.6-4.2
		C497.4,616.1,498.6,612,498.6,606.4z"/>
	<path fill="#006B8D" d="M331.2,523.7h10.3c1.8,0,3.3-1.5,3.3-3.3v-10.6c0-1.8-1.4-3.3-3.3-3.3h-10.3c-1.8,0-3.3,1.5-3.3,3.3v10.6
		C327.9,522.2,329.3,523.7,331.2,523.7z"/>
	<path fill="#006B8D" d="M331.2,496.8h10.3c1.8,0,3.3-1.4,3.3-3.3v-10.6c0-1.9-1.4-3.3-3.3-3.3h-10.3c-1.8,0-3.3,1.4-3.3,3.3v10.6
		C327.9,495.4,329.3,496.8,331.2,496.8z"/>
	<path fill="#006B8D" d="M331.2,470h10.3c1.8,0,3.3-1.4,3.3-3.3v-10.6c0-1.9-1.4-3.3-3.3-3.3h-10.3c-1.8,0-3.3,1.5-3.3,3.3v10.6
		C327.9,468.4,329.3,470,331.2,470z"/>
	<path fill="#006B8D" d="M331.2,443h10.3c1.8,0,3.3-1.5,3.3-3.3v-10.6c0-1.9-1.4-3.3-3.3-3.3h-10.3c-1.8,0-3.3,1.5-3.3,3.3v10.6
		C327.9,441.6,329.3,443,331.2,443z"/>
</g>
</svg>
