<?xml version="1.0" encoding="utf-8"?>
<!-- Generator: Adobe Illustrator 18.0.0, SVG Export Plug-In . SVG Version: 6.00 Build 0)  -->
<!DOCTYPE svg PUBLIC "-//W3C//DTD SVG 1.1//EN" "http://www.w3.org/Graphics/SVG/1.1/DTD/svg11.dtd">
<svg version="1.1" id="Layer_1" xmlns="http://www.w3.org/2000/svg" xmlns:xlink="http://www.w3.org/1999/xlink" x="0px" y="0px"
	 viewBox="0 123.3 595.3 595.3" enable-background="new 0 123.3 595.3 595.3" xml:space="preserve" width="40px" height="40px">
<g id="Layer_1_2_">
	<g id="Layer_1_1_">
		<g>
			<g>
				<path fill="#006B8D" d="M227.7,145.3c61.5,0,111.5,50,111.5,111.5s-50,111.5-111.5,111.5s-111.5-50-111.5-111.5
					S166.2,145.3,227.7,145.3 M227.7,123.3c-73.5,0-133.4,59.7-133.4,133.5c0,73.7,59.6,133.4,133.4,133.4s133.4-59.6,133.4-133.4
					S301.4,123.3,227.7,123.3L227.7,123.3z"/>
			</g>
			<g>
				<path fill="#006B8D" d="M271.9,247.3h-67.6v-23.1c0-6.5,2.3-12,6.9-16.7c4.6-4.6,10.1-6.9,16.7-6.9c6.6,0,12,2.3,16.7,6.9
					c4.7,4.6,6.9,10.1,6.9,16.7c0,1.5,0.6,3,1.8,4.2c1.2,1.2,2.5,1.8,4.2,1.8h5.8c1.5,0,3-0.6,4.2-1.8c1.2-1.2,1.8-2.5,1.8-4.2
					c0-11.3-4-21.1-12.1-29c-8.1-8.1-17.7-12.1-29-12.1c-11.3,0-21.1,4-29,12.1c-8.1,8.1-12.1,17.7-12.1,29v23.1h-3
					c-2.5,0-4.5,0.8-6.3,2.6c-1.7,1.7-2.6,3.8-2.6,6.3v65.7c0,2.5,0.8,4.5,2.6,6.3c1.7,1.7,3.8,2.6,6.3,2.6h88.4
					c2.5,0,4.5-0.8,6.3-2.6c1.7-1.7,2.6-3.8,2.6-6.3v-65.7c0-2.5-0.8-4.5-2.6-6.3C276.4,248.2,274.4,247.3,271.9,247.3z
					 M234.8,290.4v17.3c0,3.5-2.9,6.3-6.3,6.3h-1.2c-3.5,0-6.3-2.9-6.3-6.3v-17.3c-3.7-2.3-6.2-6.4-6.2-11.1
					c0-7.3,5.8-13.1,13.1-13.1c7.3,0,13.1,5.8,13.1,13.1C240.7,284,238.4,288,234.8,290.4z"/>
			</g>
			<g>
				<path fill="#006B8D" d="M551.5,298.8c23.9,0,43.6,0,43.6,0l-86.9-93.4v46.8C508.1,277.9,527.6,298.8,551.5,298.8z"/>
				<g>
					<path fill="#006B8D" d="M545.7,321.3c-27.1,0-60.2-34.4-60.2-63.6c0-28.9,0-52.6,0-52.6H376.8c5.6,16.2,8.7,33.6,8.7,51.6
						c0,87.1-70.7,157.8-157.8,157.8c-8,0-16-0.6-23.7-1.8v249c0,31.3,25.4,56.8,56.8,56.8h277.7c31.3,0,56.8-25.4,56.8-56.8V321.3
						H545.7z M455.1,514.7c-21.2,4.5-41.3-6-45-23.6c-3.7-17.5,10.5-35.2,31.7-39.9c7.7-1.7,15.4-1.3,22,0.7v-67.4l-75.3,15.8v99.2
						c0,0.7-0.1,1.4-0.2,2c-0.2,15.4-13.5,29.6-32.3,33.7c-21.2,4.5-41.3-6-45-23.6c-3.7-17.4,10.5-35.2,31.7-39.9
						c7.7-1.7,15.4-1.3,22,0.7v-82.1c0-5.6,3.9-10.5,9.4-11.7l99.3-21c0.4-0.1,0.7-0.1,1.2-0.1c0.5,0,0.8-0.1,1.2-0.1
						c0.1,0,0.4,0,0.5,0.1c0.6,0,1.2,0,1.8,0.1c0.4,0.1,0.7,0.2,1.1,0.4c0.4,0.3,0.7,0.2,1.1,0.4c0.4,0.1,0.8,0.4,1.2,0.6
						c0.2,0.1,0.6,0.2,0.8,0.5c0.4,0.2,0.6,0.5,1,0.7c0.2,0.2,0.6,0.5,0.8,0.7c0.2,0.2,0.5,0.6,0.7,0.8c0.2,0.2,0.5,0.6,0.7,0.8
						c0.2,0.4,0.5,0.8,0.7,1.2c0.1,0.2,0.4,0.6,0.5,0.8c0.2,0.6,0.5,1.2,0.6,1.9c0,0.1,0.1,0.2,0.1,0.4c0.1,0.4,0.1,0.8,0.1,1.3
						c0.2,0.6,0.2,1,0.2,1.4v108.8c0,0.7-0.1,1.4-0.2,2C487,496.4,473.8,510.7,455.1,514.7z M291.6,636H273v-19.6h18.7V636z
						 M398.5,580l-17.3,56h-19.1l-11.4-37.8L339.4,636h-19.3L303,580h18.8l9.6,38.6l11.9-38.6h15.9l11.4,38.6L380,580H398.5z
						 M443.2,630c-0.9,0.8-2.2,1.6-3.6,2.6c-1.4,1-2.8,1.9-4,2.4c-1.8,0.8-3.6,1.3-5.5,1.8c-1.9,0.4-4,0.6-6.2,0.6
						c-5.3,0-9.8-1.7-13.4-5c-3.6-3.3-5.4-7.5-5.4-12.6c0-4.1,0.9-7.4,2.8-10c1.9-2.6,4.5-4.6,7.8-6.1c3.4-1.5,7.5-2.5,12.4-3.2
						c5-0.7,10-1.1,15.3-1.4v-0.3c0-3.1-1.3-5.2-3.8-6.4s-6.2-1.8-11.2-1.8c-2.9,0-6.1,0.5-9.5,1.6c-3.4,1-5.8,1.9-7.2,2.4H410
						v-13.5c1.9-0.5,5-1.1,9.3-1.8s8.6-1,12.9-1c10.2,0,17.6,1.6,22.1,4.7c4.5,3.1,6.8,8.1,6.8,14.8v38.1h-17.8V630L443.2,630z
						 M443.2,621.3v-11.6c-2.4,0.2-5,0.5-7.9,0.8c-2.9,0.3-5,0.8-6.5,1.2c-1.8,0.6-3.2,1.3-4.1,2.4s-1.4,2.5-1.4,4.3
						c0,1.2,0.1,2.1,0.3,2.9c0.2,0.8,0.7,1.4,1.5,2.1c0.8,0.7,1.7,1.2,2.8,1.4c1.1,0.3,2.7,0.5,5,0.5c1.8,0,3.6-0.3,5.5-1.1
						C440.2,623.4,441.8,622.5,443.2,621.3z M534,580l-21.6,56H492l-21.4-56h18.9l13,38.5l12.9-38.5H534z"/>
				</g>
			</g>
		</g>
	</g>
	<g id="Layer_2" display="none">
	</g>
</g>
<g id="Layer_2_1_" display="none">
</g>
</svg>
