<?xml version="1.0" encoding="utf-8"?>
<!-- Generator: Adobe Illustrator 18.0.0, SVG Export Plug-In . SVG Version: 6.00 Build 0)  -->
<!DOCTYPE svg PUBLIC "-//W3C//DTD SVG 1.1//EN" "http://www.w3.org/Graphics/SVG/1.1/DTD/svg11.dtd">
<svg version="1.1" id="Layer_1" xmlns="http://www.w3.org/2000/svg" xmlns:xlink="http://www.w3.org/1999/xlink" x="0px" y="0px"
	 viewBox="0 123.3 595.3 595.3" enable-background="new 0 123.3 595.3 595.3" xml:space="preserve" width="40px" height="40px">
<g>
	<path fill="#006B8D" d="M551.8,298.6c23.9,0,43.5,0,43.5,0l-86.9-93.4V252C508.4,277.8,527.9,298.6,551.8,298.6z"/>
	<path fill="#006B8D" d="M485.6,257.7c0-28.9,0-52.5,0-52.5h-0.1c0-0.1,0.1-0.1,0.1-0.1H261c-31.3,0.1-56.7,25.5-56.7,56.8v150.9
		v26.7v222.4c0,31.3,25.4,56.7,56.7,56.7h277.5c31.3,0,56.7-25.4,56.7-56.7V321.2h-49.3C518.7,321.2,485.6,286.8,485.6,257.7z
		 M410.2,491.2c-3.7-17.5,10.5-35.2,31.7-39.8c7.7-1.7,15.4-1.3,22,0.7v-67.3l-75.2,15.8v99.2c0,0.7-0.1,1.4-0.2,2
		c-0.2,15.4-13.5,29.6-32.3,33.7c-21.2,4.5-41.3-6-45-23.5c-3.7-17.4,10.5-35.2,31.7-39.8c7.7-1.7,15.4-1.3,22,0.7v-82.1
		c0-5.6,3.9-10.5,9.4-11.7l99.3-21c0.4-0.1,0.7-0.1,1.2-0.1c0.5,0,0.8-0.1,1.2-0.1c0.1,0,0.4,0,0.5,0.1c0.6,0,1.2,0,1.8,0.1
		c0.4,0.1,0.7,0.2,1.1,0.4c0.4,0.1,0.7,0.2,1.1,0.4c0.4,0.2,0.8,0.4,1.2,0.6c0.2,0.1,0.6,0.2,0.8,0.5c0.4,0.2,0.6,0.5,1,0.7
		c0.2,0.2,0.6,0.5,0.8,0.7c0.2,0.2,0.5,0.6,0.7,0.8c0.2,0.2,0.5,0.6,0.7,0.8c0.2,0.4,0.5,0.8,0.7,1.2c0.1,0.2,0.4,0.6,0.5,0.8
		c0.2,0.6,0.5,1.2,0.6,1.9c0,0.1,0.1,0.2,0.1,0.4c0.1,0.4,0.1,0.8,0.1,1.3c0.2,0.6,0.2,1,0.2,1.4v108.9c0,0.7-0.1,1.4-0.2,2
		c-0.2,15.4-13.5,29.6-32.3,33.7C434.1,519.2,414,508.6,410.2,491.2z M270.8,635.9h-18.6v-19.6h18.7L270.8,635.9L270.8,635.9z
		 M377.7,579.9l-17.3,56h-19.1l-11.4-37.7l-11.2,37.7h-19.3l-17.2-56h18.8l9.6,38.6l12-38.6h15.9l11.4,38.6l9.5-38.6H377.7z
		 M443,596.2v39.7h-18v-28c0-2.7-0.1-5.1-0.2-7s-0.5-3.5-1.1-4.7c-0.6-1.2-1.5-2-2.7-2.6c-1.2-0.5-2.9-0.9-5.1-0.9
		c-1.8,0-3.5,0.3-5.1,1.1c-1.6,0.7-3.2,1.4-4.5,2.3v39.7h-18v-56h18v6.2c3.1-2.4,6-4.3,8.9-5.7c2.8-1.4,5.9-2,9.3-2
		c3.7,0,7,0.9,9.7,2.5c2.8,1.6,5.1,4.1,6.6,7.2c3.6-3,7.1-5.4,10.4-7.1c3.4-1.7,6.7-2.6,10-2.6c6,0,10.6,1.8,13.7,5.5
		c3.1,3.6,4.7,8.9,4.7,15.6v36.4h-18v-28c0-2.8-0.1-5.1-0.2-7c-0.1-1.9-0.5-3.4-1.1-4.7c-0.6-1.2-1.4-2-2.7-2.6
		c-1.2-0.5-3-0.9-5.2-0.9c-1.5,0-3,0.3-4.4,0.8C446.8,594.2,445.1,595.1,443,596.2z M530.2,630c-1,0.7-2.2,1.6-3.6,2.6
		c-1.4,1.1-2.8,1.8-4,2.4c-1.8,0.8-3.6,1.4-5.5,1.8c-1.9,0.4-3.9,0.6-6.2,0.6c-5.3,0-9.8-1.6-13.3-4.9c-3.6-3.3-5.4-7.5-5.4-12.6
		c0-4.1,0.9-7.4,2.8-10c1.8-2.6,4.4-4.7,7.8-6.1c3.4-1.5,7.4-2.6,12.4-3.2c4.9-0.7,10-1.1,15.3-1.4v-0.3c0-3.1-1.2-5.3-3.8-6.4
		c-2.5-1.2-6.2-1.8-11.2-1.8c-3,0-6.1,0.5-9.5,1.6c-3.4,1.1-5.8,1.8-7.2,2.4H497v-13.5c1.9-0.5,5-1.1,9.3-1.8
		c4.3-0.7,8.5-1.1,12.8-1.1c10.2,0,17.5,1.6,22.1,4.7c4.5,3.2,6.8,8.1,6.8,14.8V636h-17.8V630L530.2,630z M530.2,621.3v-11.6
		c-2.4,0.2-5.1,0.5-7.9,0.8c-2.8,0.3-5,0.7-6.4,1.2c-1.8,0.6-3.2,1.4-4.1,2.4c-1,1.1-1.4,2.5-1.4,4.3c0,1.2,0.1,2.1,0.3,2.8
		c0.2,0.7,0.7,1.4,1.5,2.1c0.8,0.7,1.7,1.2,2.8,1.4c1.1,0.3,2.7,0.5,5,0.5c1.8,0,3.6-0.4,5.5-1.1S528.8,622.5,530.2,621.3z"/>
</g>
</svg>
