<?xml version="1.0" encoding="utf-8"?>
<!-- Generator: Adobe Illustrator 18.0.0, SVG Export Plug-In . SVG Version: 6.00 Build 0)  -->
<!DOCTYPE svg PUBLIC "-//W3C//DTD SVG 1.1//EN" "http://www.w3.org/Graphics/SVG/1.1/DTD/svg11.dtd">
<svg version="1.1" id="Layer_1" xmlns="http://www.w3.org/2000/svg" xmlns:xlink="http://www.w3.org/1999/xlink" x="0px" y="0px"
	 viewBox="0 123.3 595.3 595.3" enable-background="new 0 123.3 595.3 595.3" xml:space="preserve" width="40px" height="40px">
<g id="Layer_1_4_">
	<g id="Layer_1_3_">
		<g id="Layer_1_2_">
			<g id="Layer_1_1_">
			</g>
		</g>
	</g>
</g>
<g id="Layer_2_2_">
	<g id="Layer_2_1_">
		<g id="Layer_2">
			<path fill="#006B8D" d="M227.6,145.3c61.5,0,111.6,50.1,111.6,111.6s-50.1,111.6-111.6,111.6s-111.6-50.2-111.6-111.6
				S165.9,145.3,227.6,145.3 M227.6,123.3C153.9,123.3,94,183.1,94,256.9c0,73.7,59.8,133.6,133.6,133.6s133.6-59.8,133.6-133.6
				C361.1,183.1,301.3,123.3,227.6,123.3L227.6,123.3z"/>
			<path fill="#006B8D" d="M271.7,247.3h-67.8v-23.2c0-6.6,2.3-12,6.9-16.7s10.1-6.9,16.7-6.9c6.6,0,12,2.3,16.7,6.9
				c4.5,4.5,6.8,10,6.9,16.5c0,0.1,0,24,0,24c0,1.5,0.6,2.9,1.8,4.2c1.2,1.2,2.5,1.8,4.2,1.8h5.8c1.5,0,2.9-0.6,4.2-1.8
				c1.2-1.2,1.8-2.5,1.8-4.2c0-0.1,0-24,0-24.1c-0.1-11.2-4-20.9-12.2-28.9c-8.1-8.1-17.8-12.2-29.1-12.2c-11.4,0-21.1,4-29.1,12.2
				c-8.1,8.1-12.2,17.8-12.2,29.1v23.2h-2.9c-2.5,0-4.5,0.8-6.3,2.6c-1.7,1.7-2.6,3.8-2.6,6.3v65.7c0,2.5,0.8,4.5,2.6,6.3
				c1.7,1.7,3.8,2.6,6.3,2.6h88.5c2.5,0,4.5-0.8,6.3-2.6c1.7-1.7,2.6-3.8,2.6-6.3v-65.7c0-2.5-0.8-4.5-2.6-6.3
				C276.2,248.3,274.2,247.3,271.7,247.3z M234.5,290.5v17.3c0,3.5-2.9,6.3-6.3,6.3H227c-3.5,0-6.3-2.9-6.3-6.3v-17.3
				c-3.7-2.3-6.2-6.5-6.2-11.1c0-7.2,5.8-13.1,13.1-13.1c7.2,0,13.1,5.8,13.1,13.1C240.6,284.1,238.2,288.1,234.5,290.5z"/>
		</g>
	</g>
	<path fill="#006B8D" d="M551.4,298.7c23.9,0,43.6,0,43.6,0l-86.9-93.4V252C508.1,278,527.4,298.7,551.4,298.7z"/>
	<path fill="#006B8D" d="M457.8,523.7h10.3c1.9,0,3.3-1.5,3.3-3.3v-10.6c0-1.8-1.4-3.3-3.3-3.3h-10.3c-1.8,0-3.3,1.5-3.3,3.3v10.6
		C454.5,522.2,456,523.7,457.8,523.7z"/>
	<path fill="#006B8D" d="M457.8,496.8h10.3c1.9,0,3.3-1.4,3.3-3.3v-10.6c0-1.9-1.4-3.3-3.3-3.3h-10.3c-1.8,0-3.3,1.4-3.3,3.3v10.6
		C454.5,495.3,456,496.8,457.8,496.8z"/>
	<path fill="#006B8D" d="M457.8,469.9h10.3c1.9,0,3.3-1.4,3.3-3.3V456c0-1.9-1.4-3.3-3.3-3.3h-10.3c-1.8,0-3.3,1.5-3.3,3.3v10.6
		C454.5,468.4,456,469.9,457.8,469.9z"/>
	<path fill="#006B8D" d="M359.2,438.9H440c1.8,0,3.3-1.5,3.3-3.3v-52.4c0-1.9-1.5-3.3-3.3-3.3h-80.7c-1.9,0-3.3,1.4-3.3,3.3v52.4
		C355.9,437.4,357.4,438.9,359.2,438.9z"/>
	<path fill="#006B8D" d="M359.2,515.7H440c1.8,0,3.3-1.5,3.3-3.3V464c0-1.8-1.5-3.3-3.3-3.3h-80.7c-1.9,0-3.3,1.4-3.3,3.3v48.4
		C355.9,514.2,357.4,515.7,359.2,515.7z"/>
	<path fill="#006B8D" d="M457.8,389.2h10.3c1.9,0,3.3-1.4,3.3-3.3v-10.6c0-1.9-1.4-3.3-3.3-3.3h-10.3c-1.8,0-3.3,1.4-3.3,3.3V386
		C454.5,387.7,456,389.2,457.8,389.2z"/>
	<path fill="#006B8D" d="M331.1,416.1h10.3c1.8,0,3.3-1.5,3.3-3.3v-10.6c0-1.9-1.4-3.3-3.3-3.3h-10.3c-1.8,0-3.3,1.4-3.3,3.3v10.6
		C327.8,414.7,329.3,416.1,331.1,416.1z"/>
	<path fill="#006B8D" d="M457.8,443h10.3c1.9,0,3.3-1.5,3.3-3.3v-10.6c0-1.9-1.4-3.3-3.3-3.3h-10.3c-1.8,0-3.3,1.5-3.3,3.3v10.6
		C454.5,441.5,456,443,457.8,443z"/>
	<path fill="#006B8D" d="M327.8,386c0,1.9,1.5,3.3,3.3,3.3h10.3c1.8,0,3.3-1.4,3.3-3.3v-10.6c0-1.9-1.4-3.3-3.3-3.3h-6.1
		c-2.4,2.3-4.9,4.5-7.4,6.5V386L327.8,386z"/>
	<path fill="#006B8D" d="M457.8,416.1h10.3c1.9,0,3.3-1.5,3.3-3.3v-10.6c0-1.9-1.4-3.3-3.3-3.3h-10.3c-1.8,0-3.3,1.4-3.3,3.3v10.6
		C454.5,414.7,456,416.1,457.8,416.1z"/>
	<path fill="#006B8D" d="M545.5,321.1c-27.1,0-60.2-34.5-60.2-63.6c0-29,0-52.6,0-52.6H376.7c5.6,16.2,8.8,33.7,8.8,51.7
		c0,40.5-15.2,77.4-40.3,105.3h125.1c6.1,0,10.9,5,10.9,10.9v149.9c0,6.1-5,10.9-10.9,10.9H328.9c-6.1,0-10.9-4.9-10.9-10.9V386.1
		c-25.6,17.9-56.7,28.4-90.2,28.4c-8,0-16-0.6-23.7-1.8v249c0,31.3,25.4,56.8,56.8,56.8h277.6c31.3,0,56.8-25.4,56.8-56.8V321.1
		H545.5z M271.8,634.5h-18.6V615h18.6V634.5z M378.5,578.6l-17.3,55.9h-19l-11.4-37.6l-11.3,37.6h-19.2l-17.2-55.9H302l9.6,38.5
		l12-38.5h15.9l11.4,38.5l9.4-38.5H378.5z M443.8,594.8v39.6h-17.9v-27.9c0-2.7-0.1-5.1-0.2-6.9c-0.2-1.9-0.5-3.5-1.1-4.6
		c-0.6-1.2-1.5-2.1-2.7-2.6c-1.2-0.6-2.9-0.8-5.1-0.8c-1.8,0-3.5,0.3-5.1,1.1c-1.7,0.7-3.1,1.4-4.5,2.3v39.6h-17.9v-55.9h17.9v6.1
		c3.1-2.4,6.1-4.3,8.8-5.6s5.9-2,9.3-2c3.7,0,6.9,0.8,9.8,2.4c2.8,1.7,5.1,4,6.7,7.2c3.5-3,7.1-5.4,10.4-7.2
		c3.4-1.7,6.7-2.6,9.9-2.6c6.1,0,10.6,1.8,13.7,5.4c3.1,3.6,4.7,8.8,4.7,15.7v36.4h-17.9v-27.9c0-2.8-0.1-5.1-0.2-7
		c-0.1-1.9-0.5-3.5-1.1-4.6c-0.6-1.2-1.4-2.1-2.7-2.6c-1.3-0.6-2.9-0.8-5.1-0.8c-1.5,0-2.9,0.3-4.4,0.8
		C447.6,592.8,445.9,593.7,443.8,594.8z M553.4,578.6l-21.6,55.9h-20.3l-21.4-55.9h18.9l13,38.5l12.8-38.5H553.4z"/>
	<path fill="#006B8D" d="M331.1,523.7h10.3c1.8,0,3.3-1.5,3.3-3.3v-10.6c0-1.8-1.4-3.3-3.3-3.3h-10.3c-1.8,0-3.3,1.5-3.3,3.3v10.6
		C327.8,522.2,329.3,523.7,331.1,523.7z"/>
	<path fill="#006B8D" d="M331.1,496.8h10.3c1.8,0,3.3-1.4,3.3-3.3v-10.6c0-1.9-1.4-3.3-3.3-3.3h-10.3c-1.8,0-3.3,1.4-3.3,3.3v10.6
		C327.8,495.3,329.3,496.8,331.1,496.8z"/>
	<path fill="#006B8D" d="M331.1,469.9h10.3c1.8,0,3.3-1.4,3.3-3.3V456c0-1.9-1.4-3.3-3.3-3.3h-10.3c-1.8,0-3.3,1.5-3.3,3.3v10.6
		C327.8,468.4,329.3,469.9,331.1,469.9z"/>
	<path fill="#006B8D" d="M331.1,443h10.3c1.8,0,3.3-1.5,3.3-3.3v-10.6c0-1.9-1.4-3.3-3.3-3.3h-10.3c-1.8,0-3.3,1.5-3.3,3.3v10.6
		C327.8,441.5,329.3,443,331.1,443z"/>
</g>
</svg>
