<?xml version="1.0" encoding="utf-8"?>
<!-- Generator: Adobe Illustrator 18.0.0, SVG Export Plug-In . SVG Version: 6.00 Build 0)  -->
<!DOCTYPE svg PUBLIC "-//W3C//DTD SVG 1.1//EN" "http://www.w3.org/Graphics/SVG/1.1/DTD/svg11.dtd">
<svg version="1.1" id="Layer_1" xmlns="http://www.w3.org/2000/svg" xmlns:xlink="http://www.w3.org/1999/xlink" x="0px" y="0px"
	 viewBox="0 123.3 595.3 595.3" enable-background="new 0 123.3 595.3 595.3" xml:space="preserve" width="40px" height="40px">
<g>
	<path fill="#006B8D" d="M551.8,298.7c24,0,43.5,0,43.5,0l-87-93.6v46.7C508.3,277.7,527.7,298.7,551.8,298.7z"/>
	<path fill="#006B8D" d="M457.9,495.9h10.2c1.8,0,3.3-1.4,3.3-3.3v-10.5c0-1.8-1.4-3.3-3.3-3.3h-10.2c-1.8,0-3.3,1.4-3.3,3.3v10.5
		C454.6,494.5,456.1,495.9,457.9,495.9z"/>
	<path fill="#006B8D" d="M359.4,438.2h80.7c1.8,0,3.3-1.5,3.3-3.3v-52.3c0-1.8-1.4-3.3-3.3-3.3h-80.7c-1.8,0-3.3,1.4-3.3,3.3v52.3
		C356.1,436.7,357.5,438.2,359.4,438.2z"/>
	<path fill="#006B8D" d="M457.9,522.8h10.2c1.8,0,3.3-1.5,3.3-3.3v-10.6c0-1.8-1.4-3.3-3.3-3.3h-10.2c-1.8,0-3.3,1.4-3.3,3.3v10.6
		C454.6,521.4,456.1,522.8,457.9,522.8z"/>
	<path fill="#006B8D" d="M457.9,469.1h10.2c1.8,0,3.3-1.4,3.3-3.3v-10.6c0-1.8-1.4-3.3-3.3-3.3h-10.2c-1.8,0-3.3,1.4-3.3,3.3v10.6
		C454.6,467.7,456.1,469.1,457.9,469.1z"/>
	<path fill="#006B8D" d="M359.4,514.8h80.7c1.8,0,3.3-1.4,3.3-3.3v-48.4c0-1.8-1.4-3.3-3.3-3.3h-80.7c-1.8,0-3.3,1.4-3.3,3.3v48.4
		C356.1,513.3,357.5,514.8,359.4,514.8z"/>
	<path fill="#006B8D" d="M457.9,388.5h10.2c1.8,0,3.3-1.4,3.3-3.3v-10.6c0-1.8-1.4-3.3-3.3-3.3h-10.2c-1.8,0-3.3,1.4-3.3,3.3v10.6
		C454.6,387,456.1,388.5,457.9,388.5z"/>
	<path fill="#006B8D" d="M457.9,442.3h10.2c1.8,0,3.3-1.5,3.3-3.3v-10.6c0-1.8-1.4-3.3-3.3-3.3h-10.2c-1.8,0-3.3,1.5-3.3,3.3V439
		C454.6,440.7,456.1,442.3,457.9,442.3z"/>
	<path fill="#006B8D" d="M457.9,415.3h10.2c1.8,0,3.3-1.5,3.3-3.3v-10.6c0-1.8-1.4-3.3-3.3-3.3h-10.2c-1.8,0-3.3,1.4-3.3,3.3V412
		C454.6,413.9,456.1,415.3,457.9,415.3z"/>
	<path fill="#006B8D" d="M331.2,415.3h10.2c1.8,0,3.3-1.5,3.3-3.3v-10.6c0-1.8-1.4-3.3-3.3-3.3h-10.2c-1.8,0-3.3,1.4-3.3,3.3V412
		C327.9,413.9,329.5,415.3,331.2,415.3z"/>
	<path fill="#006B8D" d="M331.2,522.8h10.2c1.8,0,3.3-1.5,3.3-3.3v-10.6c0-1.8-1.4-3.3-3.3-3.3h-10.2c-1.8,0-3.3,1.4-3.3,3.3v10.6
		C327.9,521.4,329.5,522.8,331.2,522.8z"/>
	<path fill="#006B8D" d="M331.2,495.9h10.2c1.8,0,3.3-1.4,3.3-3.3v-10.5c0-1.8-1.4-3.3-3.3-3.3h-10.2c-1.8,0-3.3,1.4-3.3,3.3v10.5
		C327.9,494.5,329.5,495.9,331.2,495.9z"/>
	<path fill="#006B8D" d="M545.9,321.2c-27.1,0-60.3-34.6-60.3-63.5s0-52.6,0-52.6H260.9c-31.3,0.2-56.7,25.6-56.7,56.9v150.9v249
		c0,31.3,25.4,56.7,56.7,56.7h277.6c31.3,0,56.7-25.4,56.7-56.7V321.2H545.9z M318.1,372.2c0-6,4.9-10.9,11-10.9h141.3
		c6,0,11,4.9,11,10.9v149.9c0,6-4.9,10.9-11,10.9H329.1c-6,0-11-4.9-11-10.9V372.2L318.1,372.2z M272.1,634.6h-18.6V615h18.6
		C272.1,615,272.1,634.6,272.1,634.6z M378.7,578.7l-17.3,55.8h-19l-11.4-37.6l-11.3,37.6h-19.2l-17.1-55.8h18.8l9.6,38.5l11.9-38.5
		h15.8l11.3,38.5l9.5-38.5H378.7z M444,594.9v39.6H426v-27.9c0-2.7-0.1-5.1-0.2-7c-0.1-1.9-0.5-3.5-1.1-4.7s-1.5-2-2.7-2.6
		c-1.2-0.5-2.9-0.8-5.1-0.8c-1.8,0-3.5,0.3-5.1,1.1c-1.6,0.7-3.2,1.4-4.5,2.2v39.6h-17.9v-55.8h17.9v6.2c3.1-2.4,6-4.3,8.9-5.7
		c2.8-1.4,5.9-2,9.3-2c3.7,0,6.9,0.8,9.7,2.4s5,4.1,6.6,7.2c3.5-3,7-5.4,10.4-7.1c3.4-1.7,6.7-2.6,9.9-2.6c6,0,10.6,1.8,13.7,5.5
		c3.2,3.6,4.7,8.8,4.7,15.6v36.3h-17.9v-27.9c0-2.8-0.1-5.1-0.2-7c-0.1-1.9-0.5-3.4-1.1-4.6c-0.6-1.2-1.4-2-2.7-2.6
		c-1.2-0.5-3-0.8-5.2-0.8c-1.5,0-3,0.3-4.4,0.8C447.8,592.9,446,593.8,444,594.9z M553.4,578.7l-21.5,55.8h-20.3l-21.4-55.8h18.9
		l12.9,38.4l12.8-38.4H553.4z"/>
	<path fill="#006B8D" d="M331.2,469.1h10.2c1.8,0,3.3-1.4,3.3-3.3v-10.6c0-1.8-1.4-3.3-3.3-3.3h-10.2c-1.8,0-3.3,1.4-3.3,3.3v10.6
		C327.9,467.7,329.5,469.1,331.2,469.1z"/>
	<path fill="#006B8D" d="M331.2,388.5h10.2c1.8,0,3.3-1.4,3.3-3.3v-10.6c0-1.8-1.4-3.3-3.3-3.3h-10.2c-1.8,0-3.3,1.4-3.3,3.3v10.6
		C327.9,387,329.5,388.5,331.2,388.5z"/>
	<path fill="#006B8D" d="M331.2,442.3h10.2c1.8,0,3.3-1.5,3.3-3.3v-10.6c0-1.8-1.4-3.3-3.3-3.3h-10.2c-1.8,0-3.3,1.5-3.3,3.3V439
		C327.9,440.7,329.5,442.3,331.2,442.3z"/>
</g>
</svg>
