<?xml version="1.0" encoding="utf-8"?>
<!-- Generator: Adobe Illustrator 18.0.0, SVG Export Plug-In . SVG Version: 6.00 Build 0)  -->
<!DOCTYPE svg PUBLIC "-//W3C//DTD SVG 1.1//EN" "http://www.w3.org/Graphics/SVG/1.1/DTD/svg11.dtd">
<svg version="1.1" id="Layer_1" xmlns="http://www.w3.org/2000/svg" xmlns:xlink="http://www.w3.org/1999/xlink" x="0px" y="0px"
	 viewBox="0 123.3 595.3 595.3" enable-background="new 0 123.3 595.3 595.3" xml:space="preserve" width="40px" height="40px">
<g id="Layer_1_1_">
	<g>
		<g>
			<path fill="#006B8D" d="M228.1,145.2c61.5,0,111.4,50,111.4,111.4S289.4,368,228.1,368s-111.4-49.9-111.4-111.4
				S166.5,145.2,228.1,145.2 M228.1,123.3c-73.5,0-133.3,59.7-133.3,133.4c0,73.6,59.6,133.3,133.3,133.3s133.3-59.6,133.3-133.3
				S301.7,123.3,228.1,123.3L228.1,123.3z"/>
		</g>
		<g>
			<path fill="#006B8D" d="M272.2,247.2h-67.6v-23.1c0-6.5,2.3-12,6.9-16.7c4.6-4.6,10.1-6.9,16.7-6.9s12,2.3,16.7,6.9
				c4.5,4.5,6.8,10,6.9,16.4c0,0.1,0-0.1,0,0c0,1.5,0.6,3,1.8,4.2c1.2,1.2,2.5,1.8,4.2,1.8h5.8c1.5,0,3-0.6,4.2-1.8
				c1.2-1.2,1.8-2.5,1.8-4.2c0-0.1,0,0.1,0,0c-0.1-11.2-4-20.8-12.1-28.8c-8.1-8.1-17.7-12.1-29-12.1c-11.3,0-21.1,4-29,12.1
				c-8.1,8.1-12.1,17.7-12.1,29v23.1h-3c-2.5,0-4.5,0.8-6.3,2.6c-1.7,1.7-2.6,3.8-2.6,6.3v65.7c0,2.5,0.8,4.5,2.6,6.3
				c1.7,1.7,3.8,2.6,6.3,2.6h88.4c2.5,0,4.5-0.8,6.3-2.6c1.7-1.7,2.6-3.8,2.6-6.3V256c0-2.5-0.8-4.5-2.6-6.3
				C276.7,248.1,274.7,247.2,272.2,247.2z M235.1,290.3v17.3c0,3.5-2.9,6.3-6.3,6.3h-1.2c-3.5,0-6.3-2.9-6.3-6.3v-17.3
				c-3.7-2.3-6.2-6.4-6.2-11.1c0-7.3,5.8-13.1,13.1-13.1c7.3,0,13.1,5.8,13.1,13.1C241.1,283.9,238.7,287.9,235.1,290.3z"/>
		</g>
		<g>
			<path fill="#006B8D" d="M551.6,299.1c23.9,0,43.5,0,43.5,0l-86.8-93.6v46.7C508.2,278.2,527.5,299.1,551.6,299.1z"/>
			<g>
				<g>
					<g>
						<path fill="#006B8D" d="M545.7,321.5c-27.1,0-60.2-34.5-60.2-63.6s0-52.5,0-52.5H377c5.6,16.2,8.7,33.6,8.7,51.6
							c0,87.1-70.6,157.7-157.7,157.7c-8,0-16-0.6-23.7-1.8v248.8c0,31.3,25.4,56.7,56.7,56.7h277.5c31.3,0,56.7-25.4,56.7-56.7
							V321.5H545.7z M303.3,635.4h-18.6v-19.6h18.7L303.3,635.4L303.3,635.4z M379.4,635.4h-20.9l-11.9-16.7l-12.3,16.7h-20.5l22-28
							l-21.7-27.9H335l11.8,16.4l11.9-16.4h20.6L357.5,607L379.4,635.4z M443.8,595.7v39.6h-18v-27.9c0-2.7-0.1-5-0.2-7
							c-0.2-1.9-0.5-3.4-1.1-4.6s-1.5-2.1-2.7-2.6c-1.2-0.6-2.9-0.8-5.1-0.8c-1.8,0-3.4,0.3-5.1,1.1c-1.7,0.7-3.2,1.4-4.5,2.3v39.6
							h-18v-55.9h18v6.1c3.1-2.4,6.1-4.3,8.8-5.7c2.9-1.3,6-2,9.3-2c3.7,0,6.9,0.8,9.8,2.4c2.9,1.7,5,4,6.6,7.2
							c3.6-3,7.1-5.4,10.4-7.1s6.7-2.6,9.9-2.6c6.1,0,10.6,1.8,13.8,5.5c3.1,3.6,4.7,8.8,4.7,15.6v36.4h-18v-27.9c0-2.8-0.1-5-0.2-7
							s-0.5-3.4-1.1-4.6s-1.4-2.1-2.7-2.6c-1.3-0.6-2.9-0.8-5.2-0.8c-1.5,0-2.9,0.3-4.4,0.8C447.6,593.7,445.8,594.5,443.8,595.7z
							 M515,635.4h-18v-77.5h18V635.4z M354.9,513.6l-72-39.3v-21.7l72-39v25.6l-50.1,24l50.1,25V513.6z M367.2,527.4L415,400h15
							l-47.8,127.4H367.2z M446.1,513.6v-25.4l50.1-24.8l-50.1-24.5v-25.2l72,39.1v21.6L446.1,513.6z"/>
					</g>
				</g>
			</g>
		</g>
	</g>
</g>
<g id="Layer_2" display="none">
</g>
</svg>
