<?xml version="1.0" encoding="utf-8"?>
<!-- Generator: Adobe Illustrator 18.0.0, SVG Export Plug-In . SVG Version: 6.00 Build 0)  -->
<!DOCTYPE svg PUBLIC "-//W3C//DTD SVG 1.1//EN" "http://www.w3.org/Graphics/SVG/1.1/DTD/svg11.dtd">
<svg version="1.1" id="Layer_2" xmlns="http://www.w3.org/2000/svg" xmlns:xlink="http://www.w3.org/1999/xlink" x="0px" y="0px"
	 viewBox="0 123.3 595.3 595.3" enable-background="new 0 123.3 595.3 595.3" xml:space="preserve" width="40px" height="40px">
<g>
	<g>
		<path fill="#006B8D" d="M545.9,321.2c-27.1,0-60.2-34.5-60.2-63.5c0-28.9,0-52.6,0-52.6H260.9c-31.3,0.1-56.7,25.6-56.7,56.8
			v150.9v248.9c0,31.3,25.4,56.8,56.8,56.8h277.5c31.3,0,56.8-25.4,56.8-56.8V321.2H545.9z M303.3,635.2h-18.7v-19.6h18.7V635.2z
			 M379.4,635.2h-21l-12-16.8l-12.2,16.8h-20.5l22.1-28l-21.7-27.9h21l11.8,16.4l11.8-16.4h20.6l-21.7,27.6L379.4,635.2z
			 M443.8,595.6v39.7h-18v-27.9c0-2.7-0.1-5.1-0.2-7c-0.1-1.9-0.5-3.5-1.1-4.7c-0.6-1.2-1.5-2-2.7-2.6c-1.2-0.5-2.9-0.9-5.1-0.9
			c-1.8,0-3.5,0.3-5.1,1.1c-1.6,0.7-3.2,1.4-4.5,2.3v39.7h-18v-56h18v6.2c3.1-2.4,6-4.3,8.9-5.7c2.8-1.4,5.9-2,9.3-2
			c3.7,0,7,0.9,9.7,2.5c2.8,1.6,5.1,4.1,6.6,7.2c3.6-3,7.1-5.4,10.4-7.1c3.4-1.7,6.7-2.6,9.9-2.6c6,0,10.6,1.8,13.7,5.5
			c3.2,3.6,4.7,8.9,4.7,15.6v36.4h-18v-27.9c0-2.8-0.1-5.1-0.2-7c-0.1-1.9-0.5-3.4-1.1-4.7c-0.6-1.2-1.4-2-2.7-2.6
			c-1.2-0.5-3-0.9-5.2-0.9c-1.5,0-3,0.3-4.4,0.8S445.9,594.3,443.8,595.6z M515.1,635.2h-18v-77.5h18V635.2z M354.9,513.5l-72-39.3
			v-21.7l72-39V439l-50.2,24.1l50.2,25C354.9,488,354.9,513.5,354.9,513.5z M367.2,527.2l47.8-127.5H430l-47.8,127.5H367.2z
			 M446.1,513.5V488l50.1-24.8l-50.1-24.6v-25.2l72,39.1v21.6L446.1,513.5z"/>
	</g>
	<path fill="#006B8D" d="M551.7,298.7c23.9,0,43.6,0,43.6,0l-86.9-93.6v46.7C508.4,277.8,527.7,298.7,551.7,298.7z"/>
</g>
</svg>
