<?xml version="1.0" encoding="utf-8"?>
<!-- Generator: Adobe Illustrator 18.0.0, SVG Export Plug-In . SVG Version: 6.00 Build 0)  -->
<!DOCTYPE svg PUBLIC "-//W3C//DTD SVG 1.1//EN" "http://www.w3.org/Graphics/SVG/1.1/DTD/svg11.dtd">
<svg version="1.1" id="Layer_1" xmlns="http://www.w3.org/2000/svg" xmlns:xlink="http://www.w3.org/1999/xlink" x="0px" y="0px"
	 viewBox="0 123.3 595.3 595.3" enable-background="new 0 123.3 595.3 595.3" xml:space="preserve" width="40px" height="40px">
<g>
	<g>
		<path fill="#006B8D" d="M227.8,145.2c61.5,0,111.5,50,111.5,111.5s-50,111.5-111.5,111.5s-111.5-50-111.5-111.5
			S166.3,145.2,227.8,145.2 M227.8,123.3c-73.6,0-133.4,59.8-133.4,133.5c0,73.7,59.7,133.4,133.4,133.4s133.4-59.7,133.4-133.4
			S301.5,123.3,227.8,123.3L227.8,123.3z"/>
	</g>
	<g>
		<path fill="#006B8D" d="M272,247.3h-67.7v-23.1c0-6.5,2.3-12,6.9-16.7c4.6-4.6,10.1-6.9,16.7-6.9c6.6,0,12,2.3,16.7,6.9
			c4.5,4.5,6.8,10,6.9,16.4c0,0.1,0,23.9,0,23.9c0,1.5,0.6,3,1.8,4.2c1.2,1.2,2.5,1.8,4.2,1.8h5.8c1.5,0,3-0.6,4.2-1.8
			c1.2-1.2,1.8-2.5,1.8-4.2c0-0.1,0-23.9,0-24c-0.1-11.2-4-20.8-12.1-28.8c-8.1-8.1-17.7-12.1-29-12.1c-11.3,0-21.1,4-29,12.1
			c-8.1,8.1-12.1,17.7-12.1,29v23.1h-3c-2.5,0-4.5,0.8-6.3,2.6c-1.7,1.7-2.6,3.8-2.6,6.3v65.7c0,2.5,0.8,4.5,2.6,6.3
			c1.7,1.7,3.8,2.6,6.3,2.6h88.4c2.5,0,4.5-0.8,6.3-2.6c1.7-1.7,2.6-3.8,2.6-6.3V256c0-2.5-0.8-4.5-2.6-6.3
			C276.5,248.2,274.5,247.3,272,247.3z M234.8,290.5v17.3c0,3.5-2.9,6.3-6.3,6.3h-1.2c-3.5,0-6.3-2.9-6.3-6.3v-17.3
			c-3.7-2.3-6.2-6.4-6.2-11.1c0-7.3,5.8-13.1,13.1-13.1s13.1,5.8,13.1,13.1C240.8,284,238.4,288.1,234.8,290.5z"/>
	</g>
	<g>
		<path fill="#006B8D" d="M551.7,298.7c23.9,0,43.5,0,43.5,0l-86.9-93.6v46.7C508.3,277.7,527.7,298.7,551.7,298.7z"/>
		<g>
			<g>
				<g>
					<rect x="443.3" y="445.4" fill="#006B8D" width="24.7" height="12.4"/>
					<path fill="#006B8D" d="M394.5,432.9l-18.4,2.1l-10.4,17.7c-0.9,2.2-1.6,3.8-1.9,4.9h-0.2c-0.5-1.8-1.2-3.3-1.9-4.6l-8.4-15.5
						l-14.5,1.6l15.6,24.7l-17,24.7l14.1,1.6l10.1-16.5c0.8-1.7,1.2-3,1.4-3.8h0.2c0.5,1.8,0.9,3,1.2,3.7l11.3,19.4l19.7,2.3
						l-22.7-31.5L394.5,432.9z"/>
					<rect x="443.3" y="470" fill="#006B8D" width="24.7" height="12.4"/>
					<rect x="443.3" y="494.8" fill="#006B8D" width="24.7" height="12.4"/>
					<rect x="443.3" y="420.7" fill="#006B8D" width="24.7" height="12.4"/>
					<path fill="#006B8D" d="M545.8,321.2c-27.1,0-60.3-34.5-60.3-63.6s0-52.6,0-52.6H377c5.6,16.2,8.7,33.6,8.7,51.6
						c0,87.2-70.7,157.9-157.9,157.9c-8,0-16-0.6-23.7-1.8v249c0,31.3,25.4,56.8,56.8,56.8h277.7c31.3,0,56.8-25.4,56.8-56.8V321.2
						H545.8z M418.7,507.2h18.5v-12.4h-18.5v-12.3h18.5V470h-18.5v-12.4h18.5v-12.4h-18.5v-12.1h18.7v-12.5h-18.7v-18.5h56.6
						c2.9,0,5.1,2.4,5.1,5.4v112.8c0,3-2.3,5.4-5.1,5.4h-56.6V507.2z M319.9,401.5l92.6-17.8v160.6l-92.6-17.8V401.5z M326.9,635.6
						h-18.6V616h18.6V635.6z M382.1,635.6l-12-16.8l-12.3,16.8h-20.5l22.1-28l-21.7-28h21l11.8,16.4l11.8-16.4h20.6l-21.8,27.6
						l22,28.4H382.1z M453.7,631.8c-5.2,3.5-12.3,5.3-21.3,5.3c-5,0-9.5-0.5-13.6-1.4s-7.3-2-9.8-3.1v-14.8h1.6
						c0.9,0.6,1.9,1.3,3.1,2.1c1.2,0.7,2.8,1.6,5,2.4c1.9,0.8,4,1.4,6.3,2c2.4,0.5,4.9,0.8,7.6,0.8c3.5,0,6.1-0.4,7.8-1.2
						c1.7-0.8,2.5-1.9,2.5-3.5c0-1.4-0.5-2.3-1.5-3c-1-0.6-2.9-1.2-5.7-1.8c-1.3-0.3-3.1-0.6-5.4-1c-2.3-0.3-4.3-0.8-6.2-1.3
						c-5.1-1.3-8.9-3.4-11.3-6.2c-2.5-2.8-3.7-6.3-3.7-10.5c0-5.4,2.5-9.9,7.6-13.4c5.1-3.6,12.1-5.4,20.9-5.4c4.2,0,8.2,0.4,12,1.3
						c3.8,0.9,6.8,1.8,9,2.7V596h-1.5c-2.7-1.8-5.7-3.3-9.1-4.5c-3.4-1.1-6.9-1.7-10.3-1.7c-2.9,0-5.3,0.4-7.3,1.2
						c-2,0.8-3,1.9-3,3.4c0,1.3,0.4,2.3,1.3,3c0.9,0.7,3,1.4,6.3,2.1c1.8,0.4,3.8,0.7,5.9,1.1c2.1,0.3,4.2,0.8,6.4,1.3
						c4.7,1.2,8.2,3.2,10.5,5.8s3.4,5.9,3.4,9.9C461.6,623.6,458.9,628.3,453.7,631.8z M491.5,635.6h-18V558h18V635.6z"/>
				</g>
			</g>
		</g>
	</g>
</g>
</svg>
