<?xml version="1.0" encoding="utf-8"?>
<!-- Generator: Adobe Illustrator 18.0.0, SVG Export Plug-In . SVG Version: 6.00 Build 0)  -->
<!DOCTYPE svg PUBLIC "-//W3C//DTD SVG 1.1//EN" "http://www.w3.org/Graphics/SVG/1.1/DTD/svg11.dtd">
<svg version="1.1" id="Layer_2" xmlns="http://www.w3.org/2000/svg" xmlns:xlink="http://www.w3.org/1999/xlink" x="0px" y="0px"
	 viewBox="0 123.3 595.3 595.3" enable-background="new 0 123.3 595.3 595.3" xml:space="preserve" width="40px" height="40px">
<g>
	<g>
		<path fill="#006B8D" d="M351.5,490.2l10.1-16.5c0.8-1.7,1.3-3,1.4-3.8h0.1c0.5,1.8,0.8,3,1.3,3.7l11.3,19.4l19.7,2.3L373,463.7
			l21.8-30.9l-18.5,2.1l-10.5,17.7c-0.9,2.2-1.6,3.8-2,4.9h-0.1c-0.6-1.8-1.2-3.3-1.8-4.6l-8.4-15.5l-14.6,1.6l15.6,24.7l-17,24.7
			L351.5,490.2z"/>
		<path fill="#006B8D" d="M545.9,321.2c-27.1,0-60.2-34.5-60.2-63.6c0-28.9,0-52.5,0-52.5H261c-31.3,0.1-56.8,25.5-56.8,56.8v150.9
			v248.9c0,31.3,25.4,56.8,56.8,56.8h277.5c31.3,0,56.8-25.4,56.8-56.8V321.2H545.9z M412.8,544.1l-92.6-17.8V401.4l92.6-17.8V544.1
			z M419,525.6v-18.5h18.5v-12.4H419v-12.3h18.5V470H419v-12.4h18.5v-12.4H419V433h18.7v-12.5H419V402h56.6c2.9,0,5.2,2.4,5.2,5.4
			v112.8c0,3-2.3,5.4-5.2,5.4H419z M327.2,635.5h-18.7v-19.6h18.7V635.5z M403.4,635.5h-20.9l-11.9-16.8l-12.3,16.8h-20.5l22.1-28.1
			l-21.8-28H359l11.8,16.5l11.8-16.5h20.6L381.4,607L403.4,635.5z M461.8,617.8c0,5.8-2.6,10.5-7.8,14c-5.2,3.5-12.3,5.3-21.3,5.3
			c-5,0-9.5-0.5-13.6-1.4c-4-0.9-7.4-2-9.8-3.1v-14.8h1.6c0.9,0.6,1.9,1.3,3.1,2.1c1.2,0.8,2.8,1.6,5,2.4c1.8,0.8,4,1.4,6.4,2
			c2.3,0.6,4.9,0.8,7.6,0.8c3.5,0,6.2-0.4,7.8-1.2s2.5-1.9,2.5-3.5c0-1.3-0.5-2.3-1.5-3s-2.9-1.2-5.7-1.8c-1.3-0.3-3.1-0.6-5.4-1
			c-2.3-0.4-4.4-0.8-6.2-1.3c-5.1-1.3-8.8-3.4-11.3-6.2c-2.5-2.8-3.7-6.3-3.7-10.5c0-5.4,2.5-9.9,7.6-13.4
			c5.1-3.6,12.1-5.4,20.9-5.4c4.2,0,8.2,0.4,12,1.3c3.8,0.8,6.9,1.8,9,2.7v14.1h-1.6c-2.7-1.8-5.7-3.3-9.1-4.5
			c-3.4-1.1-6.9-1.7-10.3-1.7c-2.9,0-5.3,0.4-7.3,1.2c-2,0.8-3,1.9-3,3.4c0,1.3,0.4,2.3,1.3,3s3,1.4,6.4,2.1
			c1.8,0.4,3.8,0.7,5.9,1.1c2.1,0.4,4.2,0.8,6.4,1.3c4.7,1.2,8.2,3.2,10.5,5.8C460.7,610.5,461.8,613.8,461.8,617.8z M491.8,635.5
			h-18v-77.6h18V635.5z"/>
		<rect x="443.6" y="494.7" fill="#006B8D" width="24.7" height="12.4"/>
		<rect x="443.6" y="470" fill="#006B8D" width="24.7" height="12.4"/>
		<rect x="443.6" y="445.4" fill="#006B8D" width="24.7" height="12.4"/>
		<rect x="443.6" y="420.6" fill="#006B8D" width="24.7" height="12.4"/>
	</g>
	<path fill="#006B8D" d="M551.7,298.7c23.9,0,43.5,0,43.5,0l-86.9-93.6v46.7C508.4,277.8,527.8,298.7,551.7,298.7z"/>
</g>
</svg>
