<?xml version="1.0" encoding="utf-8"?>
<!-- Generator: Adobe Illustrator 18.0.0, SVG Export Plug-In . SVG Version: 6.00 Build 0)  -->
<!DOCTYPE svg PUBLIC "-//W3C//DTD SVG 1.1//EN" "http://www.w3.org/Graphics/SVG/1.1/DTD/svg11.dtd">
<svg version="1.1" id="Layer_2" xmlns="http://www.w3.org/2000/svg" xmlns:xlink="http://www.w3.org/1999/xlink" x="0px" y="0px"
	 viewBox="0 123.3 595.3 595.3" enable-background="new 0 123.3 595.3 595.3" xml:space="preserve" width="40px" height="40px">
<g>
	<g>
		<path fill="#006B8D" d="M351.5,490.2l10.1-16.6c0.8-1.7,1.2-3,1.4-3.8h0.1c0.5,1.8,0.9,3,1.2,3.7l11.3,19.4l19.7,2.2L373,463.6
			l21.7-30.9l-18.5,2.1l-10.4,17.7c-0.9,2.2-1.6,3.8-2,4.9h-0.1c-0.6-1.8-1.2-3.2-1.8-4.6l-8.4-15.5l-14.6,1.6l15.6,24.8l-17,24.7
			L351.5,490.2z"/>
		<path fill="#006B8D" d="M545.9,321.2c-27.1,0-60.2-34.5-60.2-63.5c0-28.9,0-52.6,0-52.6H261c-31.3,0.1-56.7,25.6-56.7,56.9v150.9
			v248.9c0,31.3,25.4,56.8,56.8,56.8h277.5c31.3,0,56.8-25.4,56.8-56.8V321.2H545.9z M412.7,544.1l-92.6-17.8V401.4l92.6-17.8V544.1
			z M419,525.6v-18.5h18.5v-12.3h-18.5v-12.3h18.5v-12.3h-18.5v-12.3h18.5v-12.3h-18.5v-12.3h18.7v-12.5h-18.7V402h56.6
			c2.9,0,5.2,2.4,5.2,5.4v112.8c0,3-2.4,5.4-5.2,5.4L419,525.6L419,525.6z M293,635.3h-18.7v-19.6H293V635.3z M369.1,635.3h-21
			l-12-16.8l-12.3,16.8h-20.6l22.1-28l-21.7-28h21l11.8,16.4l11.8-16.4h20.6L347,606.8L369.1,635.3z M427.6,617.6
			c0,5.8-2.6,10.4-7.8,14c-5.2,3.5-12.3,5.3-21.3,5.3c-5,0-9.5-0.5-13.6-1.4c-4.1-0.9-7.3-2-9.8-3.1v-14.8h1.6
			c0.9,0.7,1.9,1.3,3.1,2.1c1.2,0.7,2.8,1.6,5,2.4c1.8,0.8,4,1.4,6.3,2c2.4,0.5,4.9,0.9,7.6,0.9c3.5,0,6.1-0.4,7.8-1.2
			c1.7-0.8,2.6-1.9,2.6-3.5c0-1.4-0.5-2.4-1.5-3c-1-0.6-2.9-1.2-5.7-1.8c-1.3-0.3-3.2-0.6-5.4-1c-2.3-0.3-4.3-0.8-6.2-1.2
			c-5.1-1.3-8.9-3.4-11.3-6.2c-2.4-2.8-3.7-6.3-3.7-10.5c0-5.4,2.6-9.9,7.7-13.5c5.1-3.5,12.1-5.4,21-5.4c4.2,0,8.2,0.4,12,1.2
			c3.8,0.9,6.8,1.8,9,2.7v14.2h-1.6c-2.7-1.8-5.7-3.4-9.1-4.5c-3.4-1.1-6.8-1.7-10.4-1.7c-2.9,0-5.3,0.4-7.3,1.2c-2,0.8-3,1.9-3,3.4
			c0,1.3,0.5,2.4,1.4,3c0.9,0.7,3,1.4,6.3,2.1c1.8,0.4,3.8,0.7,5.9,1.1c2.1,0.3,4.2,0.8,6.4,1.3c4.7,1.2,8.2,3.2,10.5,5.8
			C426.5,610.2,427.6,613.6,427.6,617.6z M457.5,635.3h-18v-77.6h18V635.3z M533.1,635.3h-21l-12-16.8l-12.3,16.8h-20.6l22.1-28
			l-21.7-28h21l11.8,16.4l11.8-16.4h20.6L511,606.8L533.1,635.3z"/>
		<rect x="443.5" y="494.7" fill="#006B8D" width="24.7" height="12.3"/>
		<rect x="443.5" y="470" fill="#006B8D" width="24.7" height="12.3"/>
		<rect x="443.5" y="445.4" fill="#006B8D" width="24.7" height="12.3"/>
		<rect x="443.5" y="420.6" fill="#006B8D" width="24.7" height="12.3"/>
	</g>
	<path fill="#006B8D" d="M551.7,298.7c23.9,0,43.6,0,43.6,0l-86.8-93.6v46.7C508.4,277.9,527.7,298.7,551.7,298.7z"/>
</g>
</svg>
