<?xml version="1.0" encoding="utf-8"?>
<!-- Generator: Adobe Illustrator 18.0.0, SVG Export Plug-In . SVG Version: 6.00 Build 0)  -->
<!DOCTYPE svg PUBLIC "-//W3C//DTD SVG 1.1//EN" "http://www.w3.org/Graphics/SVG/1.1/DTD/svg11.dtd">
<svg version="1.1" id="Layer_1" xmlns="http://www.w3.org/2000/svg" xmlns:xlink="http://www.w3.org/1999/xlink" x="0px" y="0px"
	 viewBox="0 123.3 595.3 595.3" enable-background="new 0 123.3 595.3 595.3" xml:space="preserve" width="40px" height="40px">
<g>
	<g>
		<g>
			<path fill="#006B8D" d="M227.7,145.2c61.5,0,111.5,50.1,111.5,111.5s-50.1,111.5-111.5,111.5s-111.5-49.9-111.5-111.4
				S166.2,145.2,227.7,145.2 M227.7,123.3c-73.6,0-133.4,59.7-133.4,133.5c0,73.7,59.7,133.4,133.4,133.4s133.5-59.7,133.5-133.4
				S301.4,123.3,227.7,123.3L227.7,123.3z"/>
		</g>
		<g>
			<path fill="#006B8D" d="M271.9,247.3h-67.6v-23.1c0-6.5,2.3-12,6.9-16.7c4.6-4.6,10.1-6.9,16.7-6.9c6.6,0,12,2.3,16.7,6.9
				c4.5,4.5,6.8,10,6.9,16.4c0,0.1,0,23.9,0,23.9c0,1.5,0.6,3,1.8,4.2c1.2,1.2,2.5,1.8,4.2,1.8h5.8c1.5,0,3-0.6,4.2-1.8
				c1.2-1.2,1.8-2.5,1.8-4.2c0-0.1,0-23.9,0-24.1c-0.1-11.2-4-20.8-12.1-28.9c-8.1-8.1-17.8-12.1-29-12.1s-21.1,4-29,12.1
				c-8.1,8.1-12.1,17.8-12.1,29V247h-3c-2.5,0-4.5,0.8-6.3,2.6c-1.7,1.7-2.6,3.8-2.6,6.3v65.7c0,2.5,0.8,4.5,2.6,6.3
				c1.7,1.7,3.8,2.6,6.3,2.6h88.4c2.5,0,4.5-0.8,6.3-2.6c1.7-1.7,2.6-3.8,2.6-6.3v-65.7c0-2.5-0.8-4.5-2.6-6.3
				C276.4,248.3,274.4,247.3,271.9,247.3z M234.7,290.5v17.3c0,3.5-2.9,6.3-6.3,6.3h-1.2c-3.5,0-6.3-2.9-6.3-6.3v-17.3
				c-3.7-2.3-6.2-6.4-6.2-11.1c0-7.3,5.8-13.1,13.1-13.1c7.3,0,13.1,5.8,13.1,13.1C240.7,284,238.4,288,234.7,290.5z"/>
		</g>
	</g>
	<g>
		<g>
			<path fill="#006B8D" d="M551.6,298.7c23.9,0,43.6,0,43.6,0l-86.9-93.6v46.8C508.1,277.8,527.5,298.7,551.6,298.7z"/>
			<g>
				<g>
					<g>
						<g>
							<rect x="443.4" y="494.7" fill="#006B8D" width="24.7" height="12.4"/>
							<path fill="#006B8D" d="M394.6,432.8l-18.4,2.1l-10.4,17.8c-0.9,2.2-1.6,3.8-2,4.9h-0.2c-0.6-1.8-1.2-3.3-1.9-4.6l-8.4-15.5
								l-14.6,1.6l15.6,24.8l-17.1,24.7l14.1,1.7l10.1-16.6c0.8-1.7,1.3-2.9,1.4-3.8h0.2c0.5,1.8,0.8,3,1.3,3.8l11.3,19.4l19.7,2.3
								l-22.4-31.6L394.6,432.8z"/>
							<rect x="443.4" y="470" fill="#006B8D" width="24.7" height="12.4"/>
							<rect x="443.4" y="445.4" fill="#006B8D" width="24.7" height="12.4"/>
							<rect x="443.4" y="420.7" fill="#006B8D" width="24.7" height="12.4"/>
							<path fill="#006B8D" d="M545.6,321.2c-27.1,0-60.2-34.5-60.2-63.6c0-29.1,0-52.6,0-52.6H376.8c5.6,16.2,8.8,33.7,8.8,51.7
								c0,87.2-70.7,157.8-157.8,157.8c-8,0-16-0.6-23.7-1.8v249c0,31.3,25.4,56.8,56.8,56.8h277.7c31.3,0,56.8-25.4,56.8-56.8
								V321.2H545.6z M418.8,507.1h18.5v-12.4h-18.5v-12.3h18.5V470h-18.5v-12.4h18.5v-12.4h-18.5V433h18.7v-12.5h-18.7v-18.4h56.5
								c2.9,0,5.1,2.4,5.1,5.4v112.8c0,2.9-2.4,5.4-5.1,5.4h-56.5V507.1z M320,401.4l92.6-17.8v160.5L320,526.2V401.4z M292.8,635.4
								h-18.7v-19.6h18.7V635.4z M348,635.4l-11.9-16.7l-12.3,16.7h-20.5l22.1-28l-21.8-28h21l11.8,16.4l11.9-16.4h20.6L347,606.9
								l22,28.4H348z M419.7,631.6c-5.2,3.5-12.3,5.3-21.3,5.3c-5,0-9.5-0.5-13.5-1.4c-4-0.9-7.3-1.9-9.8-3.1v-14.8h1.7
								c0.9,0.7,1.9,1.3,3.1,2.1c1.2,0.8,2.9,1.5,5,2.4c1.9,0.8,4,1.4,6.3,1.9c2.4,0.6,4.9,0.8,7.6,0.8c3.5,0,6.1-0.4,7.8-1.2
								c1.7-0.8,2.5-1.9,2.5-3.4c0-1.3-0.5-2.4-1.5-2.9c-1-0.6-2.9-1.2-5.7-1.8c-1.3-0.3-3.1-0.6-5.4-1c-2.3-0.3-4.4-0.8-6.2-1.3
								c-5-1.3-8.8-3.4-11.4-6.2c-2.4-2.8-3.7-6.3-3.7-10.5c0-5.4,2.5-9.8,7.7-13.5s12.1-5.4,21-5.4c4.2,0,8.2,0.4,12,1.3
								c3.8,0.8,6.8,1.8,9,2.7v14.3h-1.5c-2.7-1.9-5.7-3.3-9.1-4.5c-3.4-1.2-6.9-1.7-10.3-1.7c-2.9,0-5.3,0.4-7.3,1.2
								c-2,0.8-2.9,1.9-2.9,3.4c0,1.3,0.4,2.4,1.3,3s3,1.4,6.3,2.1c1.9,0.3,3.8,0.8,5.9,1.1c2.1,0.3,4.2,0.8,6.4,1.3
								c4.7,1.3,8.2,3.2,10.5,5.8c2.3,2.6,3.4,6,3.4,9.9C427.5,623.3,424.9,628.1,419.7,631.6z M457.5,635.4h-18v-77.7h18V635.4z
								 M512,635.4L500,618.6l-12.3,16.7h-20.5l22.1-28l-21.8-28h21l11.8,16.4l11.9-16.4h20.5l-21.8,27.6l22,28.4H512z"/>
						</g>
					</g>
				</g>
			</g>
		</g>
	</g>
</g>
</svg>
