<?xml version="1.0" encoding="utf-8"?>
<!-- Generator: Adobe Illustrator 18.0.0, SVG Export Plug-In . SVG Version: 6.00 Build 0)  -->
<!DOCTYPE svg PUBLIC "-//W3C//DTD SVG 1.1//EN" "http://www.w3.org/Graphics/SVG/1.1/DTD/svg11.dtd">
<svg version="1.1" id="Layer_1" xmlns="http://www.w3.org/2000/svg" xmlns:xlink="http://www.w3.org/1999/xlink" x="0px" y="0px"
	 viewBox="0 123.3 595.3 595.3" enable-background="new 0 123.3 595.3 595.3" xml:space="preserve" width="40px" height="40px">
<g id="Layer_1_1_">
	<g>
		<g>
			<path fill="#006B8D" d="M228.1,145.2c61.5,0,111.4,50,111.4,111.4S289.4,368,228.1,368s-111.4-49.9-111.4-111.4
				S166.5,145.2,228.1,145.2 M228.1,123.3c-73.5,0-133.3,59.7-133.3,133.4c0,73.6,59.6,133.3,133.3,133.3s133.3-59.6,133.3-133.3
				S301.7,123.3,228.1,123.3L228.1,123.3z"/>
		</g>
		<g>
			<path fill="#006B8D" d="M272.2,247.2h-67.6v-23.1c0-6.5,2.3-12,6.9-16.7c4.6-4.6,10.1-6.9,16.7-6.9c6.6,0,12,2.3,16.7,6.9
				c4.5,4.5,6.8,10,6.9,16.4c0,0.1,0-0.1,0,0c0,1.5,0.6,3,1.8,4.2c1.2,1.2,2.5,1.8,4.2,1.8h5.8c1.5,0,3-0.6,4.2-1.8
				c1.2-1.2,1.8-2.5,1.8-4.2c0-0.1,0,0.1,0,0c-0.1-11.2-4-20.8-12.1-28.8c-8.1-8.1-17.7-12.1-29-12.1s-21.1,4-29,12.1
				c-8.1,8.1-12.1,17.7-12.1,29v23.2h-3c-2.5,0-4.5,0.8-6.3,2.6c-1.7,1.7-2.6,3.8-2.6,6.3v65.7c0,2.5,0.8,4.5,2.6,6.3
				c1.7,1.7,3.8,2.6,6.3,2.6h88.4c2.5,0,4.5-0.8,6.3-2.6c1.7-1.7,2.6-3.8,2.6-6.3V256c0-2.5-0.8-4.5-2.6-6.3
				C276.7,248.1,274.7,247.2,272.2,247.2z M235.1,290.3v17.3c0,3.5-2.9,6.3-6.3,6.3h-1.2c-3.5,0-6.3-2.9-6.3-6.3v-17.3
				c-3.7-2.3-6.2-6.4-6.2-11.1c0-7.3,5.8-13.1,13.1-13.1c7.3,0,13.1,5.8,13.1,13.1C241.1,283.9,238.7,287.9,235.1,290.3z"/>
		</g>
		<g>
			<path fill="#006B8D" d="M551.6,299c23.9,0,43.5,0,43.5,0l-86.8-93.5v46.7C508.2,278.2,527.5,299,551.6,299z"/>
			<g>
				<g>
					<g>
						<g>
							<rect x="443.5" y="494.9" fill="#006B8D" width="24.6" height="12.4"/>
							<path fill="#006B8D" d="M394.8,433l-18.4,2.1l-10.4,17.7c-0.9,2.2-1.6,3.8-2,4.9h-0.2c-0.6-1.8-1.2-3.3-1.8-4.6l-8.4-15.5
								l-14.5,1.6l15.6,24.8l-17.1,24.6l14,1.7l10.1-16.6c0.8-1.7,1.3-2.9,1.4-3.8h0.2c0.5,1.8,0.8,3,1.3,3.8l11.3,19.3l19.7,2.3
								L373,463.9L394.8,433z"/>
							<rect x="443.5" y="470.3" fill="#006B8D" width="24.6" height="12.4"/>
							<rect x="443.5" y="445.6" fill="#006B8D" width="24.6" height="12.4"/>
							<rect x="443.5" y="420.9" fill="#006B8D" width="24.6" height="12.4"/>
							<path fill="#006B8D" d="M545.7,321.5c-27.1,0-60.2-34.5-60.2-63.6c0-29.1,0-52.5,0-52.5H377c5.6,16.2,8.7,33.6,8.7,51.6
								c0,87.1-70.6,157.7-157.7,157.7c-8,0-16-0.6-23.7-1.8v248.8c0,31.3,25.4,56.7,56.7,56.7h277.5c31.3,0,56.7-25.4,56.7-56.7
								V321.5H545.7z M419,507.2h18.5v-12.4H419v-12.3h18.5v-12.4H419v-12.4h18.5v-12.4H419v-12.3h18.7v-12.5H419v-18.4h56.5
								c2.9,0,5.1,2.4,5.1,5.4v112.7c0,2.9-2.4,5.4-5.1,5.4H419V507.2z M320.2,401.7l92.6-17.8v160.4l-92.6-17.8V401.7z
								 M293.1,635.4h-18.7v-19.6h18.7V635.4z M348.2,635.4l-11.9-16.7L324,635.4h-20.5l22.1-28l-21.8-28h20.9l11.8,16.4l11.9-16.4
								H369L347.2,607l22,28.4H348.2z M419.8,631.7c-5.2,3.5-12.3,5.3-21.3,5.3c-5,0-9.5-0.5-13.5-1.4c-4-0.9-7.3-1.9-9.8-3.1v-14.8
								h1.7c0.9,0.7,1.9,1.3,3.1,2.1c1.2,0.8,2.9,1.5,5,2.4c1.8,0.8,4,1.4,6.3,1.9c2.4,0.6,4.9,0.8,7.6,0.8c3.5,0,6.1-0.4,7.8-1.2
								c1.7-0.8,2.5-1.9,2.5-3.4c0-1.3-0.5-2.4-1.5-2.9c-1-0.6-2.9-1.2-5.7-1.8c-1.3-0.3-3.1-0.6-5.4-1c-2.3-0.3-4.4-0.8-6.2-1.3
								c-5-1.3-8.8-3.4-11.3-6.2c-2.4-2.8-3.7-6.3-3.7-10.5c0-5.4,2.5-9.8,7.7-13.5c5.1-3.6,12.1-5.4,20.9-5.4c4.2,0,8.2,0.4,12,1.3
								c3.8,0.8,6.8,1.8,9,2.7V596h-1.5c-2.7-1.8-5.7-3.3-9.1-4.5c-3.4-1.2-6.9-1.7-10.3-1.7c-2.9,0-5.3,0.4-7.3,1.2
								c-2,0.8-2.9,1.9-2.9,3.4c0,1.3,0.4,2.4,1.3,3s3,1.4,6.3,2.1c1.8,0.3,3.8,0.8,5.9,1.1c2.1,0.3,4.2,0.8,6.4,1.3
								c4.7,1.3,8.2,3.2,10.5,5.8c2.3,2.6,3.4,6,3.4,9.9C427.7,623.4,425,628.1,419.8,631.7z M457.6,635.4h-18v-77.6h18V635.4z
								 M512.1,635.4l-11.9-16.7l-12.3,16.7h-20.5l22.1-28l-21.8-28h20.9l11.8,16.4l11.9-16.4h20.5L511,607l22,28.4H512.1z"/>
						</g>
					</g>
				</g>
			</g>
		</g>
	</g>
</g>
<g id="Layer_2">
</g>
</svg>
