<?xml version="1.0" encoding="utf-8"?>
<!-- Generator: Adobe Illustrator 18.0.0, SVG Export Plug-In . SVG Version: 6.00 Build 0)  -->
<!DOCTYPE svg PUBLIC "-//W3C//DTD SVG 1.1//EN" "http://www.w3.org/Graphics/SVG/1.1/DTD/svg11.dtd">
<svg version="1.1" id="Layer_1" xmlns="http://www.w3.org/2000/svg" xmlns:xlink="http://www.w3.org/1999/xlink" x="0px" y="0px"
	 viewBox="0 123.3 595.3 595.3" enable-background="new 0 123.3 595.3 595.3" xml:space="preserve" width="40px" height="40px">
<g>
	<g>
		<path fill="#006B8D" d="M228.4,145.2c61.4,0,111.5,50,111.5,111.5s-50,111.5-111.5,111.5S117,318.1,117,256.7
			S166.9,145.2,228.4,145.2 M228.4,123.3C154.8,123.3,95,182.9,95,256.7C95,330.3,154.7,390,228.4,390s133.4-59.5,133.4-133.3
			C361.7,183,302,123.3,228.4,123.3L228.4,123.3z"/>
	</g>
	<g>
		<path fill="#006B8D" d="M272.5,247.3h-67.6v-23.1c0-6.5,2.3-12,6.9-16.7c4.6-4.6,10.1-6.9,16.7-6.9s12,2.3,16.7,6.9
			c4.5,4.5,6.8,10,6.9,16.4c0,0.1,0,23.9,0,23.9c0,1.5,0.6,3,1.8,4.2c1.2,1.2,2.5,1.8,4.2,1.8h5.8c1.5,0,3-0.6,4.2-1.8
			c1.2-1.2,1.8-2.5,1.8-4.2c0-0.1,0-23.9,0-24c-0.1-11.2-4-20.8-12.1-28.8c-8.1-8.1-17.7-12.1-29-12.1s-21.1,4-29,12.1
			c-8.1,8.1-12.1,17.7-12.1,29v23.1h-3c-2.5,0-4.5,0.8-6.3,2.6c-1.7,1.7-2.6,3.8-2.6,6.3v65.6c0,2.5,0.8,4.5,2.6,6.3
			c1.7,1.7,3.8,2.6,6.3,2.6h88c2.5,0,4.5-0.8,6.3-2.6c1.7-1.7,2.6-3.8,2.6-6.3V256c0-2.5-0.8-4.5-2.6-6.3
			C277,248.2,275,247.3,272.5,247.3z M235.3,290.4v17.3c0,3.5-2.9,6.3-6.3,6.3h-1.2c-3.5,0-6.3-2.9-6.3-6.3v-17.3
			c-3.7-2.3-6.2-6.4-6.2-11.1c0-7.3,5.8-13.1,13.1-13.1c7.3,0,13.1,5.8,13.1,13.1C241.4,283.9,239,288,235.3,290.4z"/>
	</g>
	<g>
		<path fill="#006B8D" d="M551.7,298.9c23.9,0,43.5,0,43.5,0l-86.8-93.3v46.7C508.3,278.1,527.7,298.9,551.7,298.9z"/>
		<g>
			<g>
				<path fill="#006B8D" d="M467.3,591.7c-1.7,0-3.5,0.2-5.2,0.7c-1.8,0.5-3.5,1.3-5.1,2.3v28.1c1.2,0.5,2.5,0.7,3.8,1
					c1.3,0.1,2.7,0.2,4,0.2c4.8,0,8.2-1.4,10.6-4.2c2.3-2.7,3.5-6.9,3.5-12.5c0-5.5-1-9.4-2.7-11.8
					C474.2,592.9,471.3,591.7,467.3,591.7z"/>
				<g>
					<path fill="#006B8D" d="M545.9,321.4c-27.1,0-60.2-34.5-60.2-63.5c0-28.9,0-52.5,0-52.5h-77.4v29.3h-16.9v-29.3h-14.2
						c5.6,16.2,8.7,33.6,8.7,51.6c0,87.1-70.6,157.8-157.8,157.8c-8,0-16-0.6-23.7-1.8v248.9c0,31.3,25.4,56.7,56.7,56.7h277.5
						c31.3,0,56.7-25.4,56.7-56.7V321.4H545.9z M391.3,266.1h16.9v31.3h-16.9V266.1z M391.1,328.7H408V360h-16.9V328.7z
						 M391.1,391.3H408v31.3h-16.9V391.3z M325.7,635.6H307v-19.5h18.6V635.6z M391.5,635.6H339v-11.5l29.4-31.3h-28.2v-13.1H391
						V591l-29,31.2h29.5L391.5,635.6L391.5,635.6z M422.1,635.6h-18v-56h18V635.6z M422.6,571.7h-18.9v-13.6h18.9V571.7z
						 M399.6,528.7c-17.5,0-31.7-14.2-31.7-31.7c0-1.3,0.1-2.6,0.2-3.9c2.6-24.8,28.9-53.3,28.9-53.3c0.5-0.5,1-0.8,1.4-1.1l0,0
						l0.8-0.2l0.8,0.2l0,0c0.5,0.2,1,0.6,1.4,1.1c0,0,26.7,28.6,29.4,53.2c0.1,1.3,0.2,2.6,0.2,3.9
						C431.3,514.5,417.1,528.7,399.6,528.7z M495.2,619.4c-1.4,3.8-3.2,6.9-5.6,9.4c-2.4,2.6-5.1,4.5-8.1,5.8c-3,1.3-6.3,2-9.6,2
						c-3.2,0-5.8-0.4-8.1-1.1s-4.5-1.7-6.8-2.9V656h-18v-76.4h18v5.8c2.7-2.1,5.6-3.9,8.5-5.4c2.9-1.3,6.2-2,9.9-2
						c6.9,0,12.4,2.5,16.2,7.6c3.8,5.1,5.8,12.1,5.8,21.1C497.3,611.4,496.6,615.6,495.2,619.4z"/>
					<path fill="#006B8D" d="M399.6,476.7c-11.2,0-20.4,9.2-20.4,20.4c0,11.2,9.2,20.4,20.4,20.4s20.4-9.2,20.4-20.4
						C419.9,485.8,410.8,476.7,399.6,476.7z"/>
				</g>
			</g>
		</g>
	</g>
</g>
</svg>
