<?xml version="1.0" encoding="utf-8"?>
<!-- Generator: Adobe Illustrator 18.0.0, SVG Export Plug-In . SVG Version: 6.00 Build 0)  -->
<!DOCTYPE svg PUBLIC "-//W3C//DTD SVG 1.1//EN" "http://www.w3.org/Graphics/SVG/1.1/DTD/svg11.dtd">
<svg version="1.1" id="Layer_1" xmlns="http://www.w3.org/2000/svg" xmlns:xlink="http://www.w3.org/1999/xlink" x="0px" y="0px"
	 viewBox="0 123.3 595.3 595.3" enable-background="new 0 123.3 595.3 595.3" xml:space="preserve" width="40px" height="40px">
<g>
	<g>
		<path fill="#006B8D" d="M551.7,298.7c23.9,0,43.5,0,43.5,0l-86.9-93.4v46.8C508.3,277.9,527.7,298.7,551.7,298.7z"/>
		<g>
			<g>
				<path fill="#006B8D" d="M467.3,591.6c-1.7,0-3.5,0.2-5.2,0.7c-1.8,0.5-3.5,1.3-5.1,2.3v28.1c1.2,0.5,2.5,0.7,3.8,1
					c1.3,0.1,2.7,0.2,4,0.2c4.8,0,8.2-1.4,10.6-4.2c2.3-2.7,3.5-6.9,3.5-12.5c0-5.5-1-9.4-2.7-11.8
					C474.2,592.7,471.3,591.6,467.3,591.6z"/>
				<g>
					<path fill="#006B8D" d="M545.8,321.2c-27.1,0-60.2-34.5-60.2-63.6c0-29,0-52.5,0-52.5h-77.4v29.3h-16.9v-29.3H260.9
						c-31.3,0.1-56.7,25.6-56.7,56.8v150.9v0.1v248.9c0,31.3,25.4,56.7,56.7,56.7h277.6c31.3,0,56.7-25.4,56.7-56.7V321.2H545.8z
						 M391.2,265.9h16.9v31.3h-16.9V265.9L391.2,265.9z M391,328.6h16.9v31.3H391V328.6L391,328.6z M391,391.2h16.9v31.3H391V391.2
						L391,391.2z M325.6,635.6H307v-19.5h18.6V635.6z M391.4,635.6h-52.5v-11.5l29.4-31.3H340v-13.1h50.9v11.3L362,622.2h29.4
						L391.4,635.6L391.4,635.6z M422,635.6h-18v-56h18V635.6z M422.5,571.7h-18.9v-13.6h18.9V571.7z M399.5,528.6
						c-17.5,0-31.7-14.2-31.7-31.7c0-1.3,0.1-2.6,0.2-3.9c2.6-24.8,28.9-53.3,28.9-53.3c0.5-0.5,1-0.8,1.4-1.1l0.8-0.2l0.8,0.2
						c0.5,0.2,1,0.6,1.4,1.1c0,0,26.7,28.6,29.4,53.3c0.1,1.3,0.2,2.6,0.2,3.9C431.3,514.4,417,528.6,399.5,528.6z M495.2,619.3
						c-1.4,3.8-3.2,6.9-5.6,9.4c-2.4,2.6-5.1,4.5-8.1,5.8c-3,1.3-6.3,2-9.6,2c-3.2,0-5.8-0.4-8.1-1.1c-2.3-0.7-4.5-1.7-6.8-2.9V656
						h-18v-76.4h18v5.8c2.7-2.1,5.6-3.9,8.5-5.4c2.9-1.3,6.2-2,9.9-2c6.9,0,12.4,2.5,16.2,7.6c3.8,5.1,5.8,12.1,5.8,21.1
						C497.3,611.3,496.6,615.5,495.2,619.3z"/>
					<path fill="#006B8D" d="M399.5,476.5c-11.2,0-20.4,9.2-20.4,20.4s9.2,20.4,20.4,20.4s20.4-9.2,20.4-20.4
						C419.8,485.7,410.7,476.5,399.5,476.5z"/>
				</g>
			</g>
		</g>
	</g>
</g>
</svg>
