<?xml version="1.0" encoding="utf-8"?>
<!-- Generator: Adobe Illustrator 18.0.0, SVG Export Plug-In . SVG Version: 6.00 Build 0)  -->
<!DOCTYPE svg PUBLIC "-//W3C//DTD SVG 1.1//EN" "http://www.w3.org/Graphics/SVG/1.1/DTD/svg11.dtd">
<svg version="1.1" id="Layer_1" xmlns="http://www.w3.org/2000/svg" xmlns:xlink="http://www.w3.org/1999/xlink" x="0px" y="0px"
	 viewBox="0 123.3 595.3 595.3" enable-background="new 0 123.3 595.3 595.3" xml:space="preserve" width="40px" height="40px">
<g>
	<g>
		<path fill="#006B8D" d="M228.5,145.2c61.4,0,111.5,50,111.5,111.5s-50,111.5-111.5,111.5S117,318.1,117,256.6
			S166.9,145.2,228.5,145.2 M228.5,123.3c-73.6,0-133.3,59.7-133.3,133.3c0,73.6,59.7,133.3,133.3,133.3s133.3-59.5,133.3-133.3
			C361.7,183,302.1,123.3,228.5,123.3L228.5,123.3z"/>
	</g>
	<g>
		<path fill="#006B8D" d="M272.6,247.2h-67.6v-23.1c0-6.5,2.3-12,6.9-16.7c4.6-4.6,10.1-6.9,16.7-6.9s12,2.3,16.7,6.9
			c4.5,4.5,6.8,10,6.9,16.4c0,0.1,0,23.9,0,23.9c0,1.5,0.6,3,1.8,4.2c1.2,1.2,2.5,1.8,4.2,1.8h5.8c1.5,0,3-0.6,4.2-1.8
			c1.2-1.2,1.8-2.5,1.8-4.2c0-0.1,0-23.9,0-24c-0.1-11.2-4-20.8-12.1-28.8c-8.1-8.1-17.7-12.1-29-12.1s-21.1,4-29,12.1
			c-8.1,8.1-12.1,17.7-12.1,29V247h-3c-2.5,0-4.5,0.8-6.3,2.6c-1.7,1.7-2.6,3.8-2.6,6.3v65.6c0,2.5,0.8,4.5,2.6,6.3
			c1.7,1.7,3.8,2.6,6.3,2.6h88.1c2.5,0,4.5-0.8,6.3-2.6c1.7-1.7,2.6-3.8,2.6-6.3v-65.6c0-2.5-0.8-4.5-2.6-6.3
			C277,248.2,275.1,247.2,272.6,247.2z M235.3,290.3v17.3c0,3.5-2.9,6.3-6.3,6.3h-1.2c-3.5,0-6.3-2.9-6.3-6.3v-17.3
			c-3.7-2.3-6.2-6.4-6.2-11.1c0-7.3,5.8-13.1,13.1-13.1s13.1,5.8,13.1,13.1C241.5,283.9,239,288,235.3,290.3z"/>
	</g>
	<g>
		<path fill="#006B8D" d="M551.7,298.9c23.9,0,43.5,0,43.5,0l-86.8-93.4v46.7C508.4,278.1,527.8,298.9,551.7,298.9z"/>
		<g>
			<g>
				<g>
					<path fill="#006B8D" d="M545.9,321.3c-27.1,0-60.2-34.5-60.2-63.5c0-28.9,0-52.5,0-52.5h-77.5v29.3h-16.9v-29.3h-14.2
						c5.6,16.2,8.7,33.6,8.7,51.6c0,87.1-70.7,157.8-157.8,157.8c-8,0-16-0.6-23.7-1.8v248.9c0,31.3,25.4,56.7,56.7,56.7h277.5
						c31.3,0,56.7-25.4,56.7-56.7V321.3H545.9z M391.3,266.1h16.9v31.3h-16.9V266.1z M391.1,328.6H408V360h-16.9V328.6z
						 M391.1,391.3H408v31.3h-16.9V391.3z M399.6,528.7c-17.5,0-31.7-14.2-31.7-31.7c0-1.3,0.1-2.6,0.2-3.9
						c2.6-24.9,28.9-53.4,28.9-53.4c0.5-0.5,1-0.8,1.4-1.1l0,0l0.8-0.2l0.8,0.2l0,0c0.5,0.2,1,0.6,1.4,1.1c0,0,26.7,28.7,29.4,53.3
						c0.1,1.3,0.2,2.6,0.2,3.9C431.4,514.5,417.2,528.7,399.6,528.7z M291.9,635.5h-18.6V616h18.6V635.5z M357.5,635.5h-52.3V624
						l29.3-31.3h-28.1v-13H357V591l-28.9,31.2h29.4V635.5z M388.4,571.8h-18.9v-13.5h18.9V571.8z M388,635.5h-17.9v-55.8H388V635.5z
						 M462.9,606.8c0,4.6-0.7,8.8-2.1,12.6c-1.4,3.8-3.3,6.9-5.5,9.3c-2.4,2.6-5,4.5-8.1,5.9c-3,1.3-6.2,2-9.7,2
						c-3.2,0-5.9-0.3-8.1-1c-2.2-0.7-4.5-1.6-6.8-2.9v23.3h-17.9v-76.2h17.9v5.8c2.8-2.2,5.5-3.9,8.4-5.3c2.9-1.3,6.1-2,9.9-2
						c7,0,12.4,2.5,16.2,7.6C461,591,462.9,597.9,462.9,606.8z M444.5,607.3c0-5.4-0.9-9.3-2.8-11.8c-1.8-2.4-4.8-3.7-8.7-3.7
						c-1.7,0-3.4,0.3-5.2,0.8c-1.8,0.5-3.4,1.3-5.1,2.2v28c1.2,0.5,2.4,0.8,3.8,0.9c1.3,0.2,2.7,0.2,4,0.2c4.7,0,8.2-1.3,10.6-4.1
						C443.4,616.9,444.5,612.8,444.5,607.3z M534.2,635.5h-20.8l-11.9-16.7l-12.3,16.7h-20.4l22-27.9l-21.7-27.8h20.8l11.7,16.4
						l11.8-16.4h20.5l-21.7,27.5L534.2,635.5z"/>
					<path fill="#006B8D" d="M399.6,476.7c-11.2,0-20.4,9.2-20.4,20.4c0,11.2,9.2,20.4,20.4,20.4s20.4-9.2,20.4-20.4
						C419.9,485.8,410.9,476.7,399.6,476.7z"/>
				</g>
			</g>
		</g>
	</g>
</g>
</svg>
