<?xml version="1.0" encoding="utf-8"?>
<!-- Generator: Adobe Illustrator 18.0.0, SVG Export Plug-In . SVG Version: 6.00 Build 0)  -->
<!DOCTYPE svg PUBLIC "-//W3C//DTD SVG 1.1//EN" "http://www.w3.org/Graphics/SVG/1.1/DTD/svg11.dtd">
<svg version="1.1" id="Layer_1" xmlns="http://www.w3.org/2000/svg" xmlns:xlink="http://www.w3.org/1999/xlink" x="0px" y="0px"
	 viewBox="0 123.3 595.3 595.3" enable-background="new 0 123.3 595.3 595.3" xml:space="preserve" width="40px" height="40px">
<g>
	<g>
		<path fill="#006B8D" d="M551.6,298.7c23.9,0,43.5,0,43.5,0l-86.8-93.4V252C508.3,277.8,527.7,298.7,551.6,298.7z"/>
		<g>
			<g>
				<g>
					<path fill="#006B8D" d="M545.8,321.2c-27.1,0-60.2-34.5-60.2-63.6s0-52.5,0-52.5h-77.5v29.3h-16.9v-29.3H260.9
						c-31.3,0.1-56.7,25.5-56.7,56.9v150.9v0.1v248.8c0,31.3,25.4,56.7,56.7,56.7h277.6c31.3,0,56.7-25.4,56.7-56.7V321.2H545.8z
						 M391.2,265.8h16.9v31.3h-16.9V265.8z M391,328.5h16.9v31.3H391V328.5z M391,391.1h16.9v31.3H391V391.1z M399.5,528.5
						c-17.5,0-31.7-14.2-31.7-31.7c0-1.3,0.1-2.6,0.2-3.9c2.6-24.8,28.9-53.3,28.9-53.3c0.5-0.5,1-0.8,1.4-1.1l0.8-0.2l0.8,0.2
						c0.5,0.2,1,0.6,1.4,1.1c0,0,26.7,28.6,29.4,53.3c0.1,1.3,0.2,2.6,0.2,3.9C431.2,514.3,417,528.5,399.5,528.5z M291.7,635.4
						h-18.6v-19.5h18.6V635.4z M357.3,635.4h-52.4v-11.5l29.4-31.3h-28.2v-13.1h50.6v11.3l-28.9,31.2h29.4L357.3,635.4L357.3,635.4z
						 M388.3,571.7h-18.9v-13.5h18.9V571.7z M387.9,635.4H370v-55.8h17.9V635.4z M462.9,606.7c0,4.6-0.7,8.8-2.1,12.5
						c-1.4,3.7-3.2,6.9-5.5,9.3c-2.4,2.6-5.1,4.5-8.1,5.8c-3,1.3-6.2,2-9.7,2c-3.2,0-5.8-0.3-8.1-1s-4.5-1.6-6.8-2.8v23.2h-17.9
						v-76.2h17.9v5.8c2.8-2.2,5.5-3.9,8.4-5.3c2.9-1.4,6.2-2,9.9-2c7,0,12.3,2.6,16.2,7.6C461,590.8,462.9,597.9,462.9,606.7z
						 M444.5,607.1c0-5.5-0.9-9.3-2.8-11.8c-1.8-2.4-4.8-3.7-8.8-3.7c-1.7,0-3.4,0.3-5.2,0.8c-1.8,0.5-3.5,1.2-5.1,2.2v28
						c1.2,0.5,2.4,0.8,3.8,0.9s2.7,0.2,4,0.2c4.7,0,8.2-1.4,10.6-4.1C443.3,616.9,444.5,612.7,444.5,607.1z M534.1,635.4h-20.9
						l-11.9-16.7l-12.2,16.7h-20.4l22-27.9l-21.7-27.8h20.9l11.7,16.4l11.8-16.4h20.5l-21.7,27.5L534.1,635.4z"/>
					<path fill="#006B8D" d="M399.5,476.4c-11.2,0-20.4,9.2-20.4,20.4c0,11.2,9.2,20.4,20.4,20.4s20.4-9.2,20.4-20.4
						C419.9,485.6,410.7,476.4,399.5,476.4z"/>
				</g>
			</g>
		</g>
	</g>
</g>
</svg>
