<svg xmlns="http://www.w3.org/2000/svg" viewBox="0 141.3 595.3 595.3" enable-background="new 0 141.3 595.3 595.3" width="32" height="32"><g><g fill="#fff"><path d="M191.8 277.3c1.4 0 3-.1 4.5-.2 12-1.9 19.7-11.1 17.2-20.6-8.3-31.7-8.3-64 0-95.7.2-1.2.5-2.4.5-3.4 0-8.1-7.1-15.3-17.7-16.9-1.4-.2-3.1-.5-4.5-.5-10.2 0-19.4 5.7-21.6 13.9-9.6 36.4-9.6 73.4 0 109.8 2.2 8 11.4 13.6 21.6 13.6zM409.2 277.3c1.4 0 3-.1 4.5-.2 12-1.9 19.7-11.1 17.2-20.6-8.3-31.7-8.3-64 0-95.7.2-1.2.5-2.4.5-3.4 0-8.1-7.1-15.3-17.7-16.9-1.4-.2-3.1-.5-4.5-.5-10.2 0-19.4 5.7-21.6 13.9-9.6 36.4-9.6 73.4 0 109.8 2 8 11.3 13.6 21.6 13.6z"/></g><path fill="#fff" d="M589.3 280.8V279c-1.2-39.7-35.7-71.7-77.8-71.7h-59.2c-.1 14 1.7 28.2 5.2 42.2 3.1 11.5 1.1 23.4-5.6 33.7-7.3 11.3-19.7 19.1-34 21.5-3 .5-5.9.7-8.9.7-23.2 0-43-14.2-48.5-34.5-5.6-21-8.2-42.2-8.2-63.4H234.7c-.1 14 1.7 28.2 5.2 42.2 3.1 11.5 1.1 23.4-5.6 33.7-7.3 11.3-19.7 19.1-34 21.5-3 .5-5.9.7-8.9.7-23.2 0-43-14.2-48.5-34.5-5.6-21-8.2-42.2-8.2-63.4H82.9C40 207.8 5 240.9 5 281.7v379.1c0 40.8 35 74 77.9 74h428.5c42.9 0 77.9-33.2 77.9-74V280.8zm-35.4 379.5c0 21.2-19.1 38.5-42.5 38.5H82.9c-23.4 0-42.5-17.4-42.5-38.5V365.6H554v294.8h-.1z"/></g><g fill="#fff"><path d="M283.2 413.2c0 20.5-16.6 37.1-37.1 37.1h-17.9c-20.5 0-37.1-16.6-37.1-37.1s16.6-37.1 37.1-37.1h17.9c20.5 0 37.1 16.6 37.1 37.1zM405.2 413.2c0 20.5-16.6 37.1-37.1 37.1h-17.9c-20.5 0-37.1-16.6-37.1-37.1s16.6-37.1 37.1-37.1h17.9c20.5 0 37.1 16.6 37.1 37.1zM527.1 413.2c0 20.5-16.6 37.1-37.1 37.1h-17.9c-20.5 0-37.1-16.6-37.1-37.1s16.6-37.1 37.1-37.1H490c20.5 0 37.1 16.6 37.1 37.1zM160.9 517.2c0 20.5-16.6 37.1-37.1 37.1h-18c-20.5 0-37.1-16.6-37.1-37.1s16.6-37.1 37.1-37.1h17.9c20.6-.1 37.2 16.6 37.2 37.1zM282.9 517.2c0 20.5-16.6 37.1-37.1 37.1h-17.9c-20.5 0-37.1-16.6-37.1-37.1s16.6-37.1 37.1-37.1h17.9c20.5-.1 37.1 16.6 37.1 37.1zM404.8 517.2c0 20.5-16.6 37.1-37.1 37.1h-17.9c-20.5 0-37.1-16.6-37.1-37.1s16.6-37.1 37.1-37.1h17.9c20.5-.1 37.1 16.6 37.1 37.1zM526.7 517.2c0 20.5-16.6 37.1-37.1 37.1h-17.9c-20.5 0-37.1-16.6-37.1-37.1s16.6-37.1 37.1-37.1h17.9c20.6-.1 37.1 16.6 37.1 37.1zM160.9 621.2c0 20.5-16.6 37.1-37.1 37.1h-18c-20.5 0-37.1-16.6-37.1-37.1s16.6-37.1 37.1-37.1h17.9c20.6 0 37.2 16.5 37.2 37.1zM282.9 621.2c0 20.5-16.6 37.1-37.1 37.1h-17.9c-20.5 0-37.1-16.6-37.1-37.1s16.6-37.1 37.1-37.1h17.9c20.5 0 37.1 16.5 37.1 37.1zM404.8 621.2c0 20.5-16.6 37.1-37.1 37.1h-17.9c-20.5 0-37.1-16.6-37.1-37.1s16.6-37.1 37.1-37.1h17.9c20.5 0 37.1 16.5 37.1 37.1zM526.7 621.2c0 20.5-16.6 37.1-37.1 37.1h-17.9c-20.5 0-37.1-16.6-37.1-37.1s16.6-37.1 37.1-37.1h17.9c20.6 0 37.1 16.5 37.1 37.1z"/></g></svg>