<svg xmlns="http://www.w3.org/2000/svg" width="32" height="32" viewBox="-281 404.9 32 32" enable-background="new -281 404.9 32 32"><g><g fill="#006A8D"><path d="M-270.6 412.3h.2c.6-.1 1.1-.6.9-1.1-.4-1.7-.4-3.4 0-5.1v-.2c0-.4-.4-.8-1-.9h-.2c-.5 0-1 .3-1.2.7-.5 2-.5 3.9 0 5.9.2.4.7.7 1.3.7zM-259 412.3h.2c.6-.1 1.1-.6.9-1.1-.4-1.7-.4-3.4 0-5.1v-.2c0-.4-.4-.8-1-.9h-.2c-.5 0-1 .3-1.2.7-.5 2-.5 3.9 0 5.9.3.4.8.7 1.3.7z"/></g><path fill="#006A8D" d="M-249.3 412.4c-.1-2.2-1.9-3.9-4.2-3.9h-3.2c0 .8.1 1.5.3 2.3.2.6.1 1.3-.3 1.8-.4.6-1.1 1-1.8 1.2h-.5c-1.2 0-2.3-.8-2.6-1.8-.3-1.1-.4-2.3-.4-3.4h-6.3c0 .8.1 1.5.3 2.3.2.6.1 1.3-.3 1.8-.4.6-1.1 1-1.8 1.2h-.5c-1.2 0-2.3-.8-2.6-1.8-.3-1.1-.4-2.3-.4-3.4h-2.8c-2.3 0-4.2 1.8-4.2 4V433c0 2.2 1.9 4 4.2 4h23c2.3 0 4.2-1.8 4.2-4v-20.6h-.1c0 .1 0 0 0 0zm-1.9 20.4c0 1.1-1 2.1-2.3 2.1h-23c-1.3 0-2.3-.9-2.3-2.1V417h27.5v6.7l.1 9.1z"/></g><g fill="#006A8D"><path d="M-265.8 420.4c0 1.1-.9 2-2 2h-1c-1.1 0-2-.9-2-2s.9-2 2-2h1c1.1 0 2 .9 2 2zM-259.2 420.4c0 1.1-.9 2-2 2h-1c-1.1 0-2-.9-2-2s.9-2 2-2h1c1.1 0 2 .9 2 2zM-252.7 420.4c0 1.1-.9 2-2 2h-1c-1.1 0-2-.9-2-2s.9-2 2-2h1c1.1 0 2 .9 2 2zM-272.4 426c0 1.1-.9 2-2 2h-1c-1.1 0-2-.9-2-2s.9-2 2-2h1c1.2 0 2 .9 2 2zM-265.8 426c0 1.1-.9 2-2 2h-1c-1.1 0-2-.9-2-2s.9-2 2-2h1c1.1 0 2 .9 2 2zM-259.2 426c0 1.1-.9 2-2 2h-1c-1.1 0-2-.9-2-2s.9-2 2-2h1c1.1 0 2 .9 2 2zM-252.7 426c0 1.1-.9 2-2 2h-1c-1.1 0-2-.9-2-2s.9-2 2-2h1c1.1 0 2 .9 2 2zM-272.4 431.6c0 1.1-.9 2-2 2h-1c-1.1 0-2-.9-2-2s.9-2 2-2h1c1.2 0 2 .9 2 2zM-265.8 431.6c0 1.1-.9 2-2 2h-1c-1.1 0-2-.9-2-2s.9-2 2-2h1c1.1 0 2 .9 2 2zM-259.2 431.6c0 1.1-.9 2-2 2h-1c-1.1 0-2-.9-2-2s.9-2 2-2h1c1.1 0 2 .9 2 2zM-252.7 431.6c0 1.1-.9 2-2 2h-1c-1.1 0-2-.9-2-2s.9-2 2-2h1c1.1 0 2 .9 2 2z"/></g></svg>