<svg xmlns="http://www.w3.org/2000/svg" viewBox="0 265.5 595.3 595.3" enable-background="new 0 265.5 595.3 595.3" width="40" height="40"><g fill="#fff"><path d="M152.5 396.5c1.2 0 2.4-.1 3.7-.2 9.8-1.5 16.1-9 14-16.8-6.8-25.8-6.8-52.1 0-78 .2-1 .4-1.9.4-2.9 0-6.5-5.8-12.5-14.4-13.8-1.2-.2-2.5-.4-3.7-.4-8.3 0-15.8 4.6-17.6 11.3-7.9 29.6-7.9 59.8 0 89.4 1.8 6.9 9.3 11.4 17.6 11.4zM329.7 396.5c1.2 0 2.4-.1 3.7-.2 9.8-1.5 16.1-9 14-16.8-6.8-25.8-6.8-52.1 0-78 .2-1 .4-1.9.4-2.9 0-6.5-5.8-12.5-14.4-13.8-1.2-.2-2.5-.4-3.7-.4-8.3 0-15.8 4.6-17.6 11.3-7.9 29.6-7.9 59.8 0 89.4 1.6 6.9 9.2 11.4 17.6 11.4z"/></g><path fill="#fff" d="M134.9 677.6c6.2 7.1 13.5 12.4 21.8 15.5 8.2 3.1 17 4.6 26.3 4.6 9.4 0 18.3-1.5 26.5-4.6 8.3-3.1 15.6-8.2 21.9-15.5 6.3-7.3 11.3-16.9 15-28.9 3.7-12.1 5.5-27.1 5.5-45.1 0-17.5-1.8-32.1-5.5-44.2-3.7-11.9-8.7-21.4-15-28.7-6.3-7.1-13.6-12.4-21.9-15.5-8.2-3.1-17.1-4.6-26.5-4.6-9.3 0-18 1.5-26.3 4.6-8.2 3.1-15.5 8.2-21.8 15.5-6.2 7.1-11.2 16.8-14.8 28.7-3.7 11.9-5.5 26.7-5.5 44.2 0 18 1.8 33.1 5.5 45.1 3.6 12.1 8.6 21.7 14.8 28.9zm17.7-85.3c.1-4.4.4-8.9 1-13.5.5-4.6 1.4-9.2 2.6-13.8 1.2-4.5 3-8.6 5.2-12.3 2.3-3.6 5.1-6.5 8.6-8.7 3.5-2.3 7.7-3.3 13-3.3 5.1 0 9.5 1.1 13.1 3.3 3.6 2.3 6.5 5.1 8.8 8.7 2.3 3.6 4 7.6 5.2 12.3 1.2 4.5 2 9.2 2.6 13.8s1 9.2 1.1 13.5c.1 4.4.1 8.1.1 11.2 0 5.1-.2 11.3-.5 18.7-.4 7.3-1.4 14.3-3.3 21.1-1.9 6.8-4.9 12.6-9 17.4-4.2 4.8-10.2 7.3-18 7.3-7.6 0-13.6-2.4-17.6-7.3-4-4.8-7-10.6-8.9-17.4-1.9-6.8-3-13.8-3.3-21.1-.4-7.3-.5-13.5-.5-18.7-.3-3.1-.3-6.7-.2-11.2zM322.2 740.1H63.7c-19 0-34.6-14.2-34.6-31.4V468.4h418.6v102c9.4-1.8 18.9-2.7 28.8-2.7V399.6c0-33.2-28.5-60.2-63.5-60.2h-48.2c-.1 11.4 1.3 23 4.3 34.4 2.5 9.4.8 19-4.5 27.4-6 9.2-16.1 15.6-27.7 17.5-2.4.4-4.9.6-7.3.6-18.9 0-35.1-11.5-39.5-28.1-4.5-17.1-6.7-34.4-6.7-51.7h-95.8c-.1 11.4 1.3 23 4.3 34.4 2.5 9.4.8 19-4.5 27.4-6 9.2-16.1 15.6-27.7 17.5-2.4.4-4.9.6-7.3.6-18.9 0-35.1-11.5-39.5-28.1-4.5-17.1-6.7-34.4-6.7-51.7H63.7c-35 0-63.5 27-63.5 60.2v309C.2 742 28.7 769 63.7 769h264.4c-2.8-9.4-4.9-19-5.9-28.9zM476.5 604c-65.6 0-118.9 53.3-118.9 118.9s53.3 118.9 118.9 118.9S595.4 788.6 595.4 723c0-65.5-53.3-119-118.9-119zm56.6 133.5H491v42.1c0 8-6.5 14.5-14.5 14.5s-14.5-6.5-14.5-14.5v-42.1h-42.1c-8 0-14.5-6.5-14.5-14.5s6.5-14.5 14.5-14.5H462v-42.1c0-8 6.5-14.5 14.5-14.5s14.5 6.5 14.5 14.5v42.1h42.1c8 0 14.5 6.5 14.5 14.5.1 7.9-6.4 14.5-14.5 14.5z"/><g fill="#fff"><path d="M361.1 694.4h1v-3.7c-.4 1.2-.8 2.5-1 3.7zM324.2 691c5.8-28 19.2-53.2 37.9-73.5V514.2H332c-1.1 6.9-3.3 12.6-6.7 17.3-3.3 4.6-7.5 8.3-12.4 11.2s-10.4 4.8-16.5 6c-6.2 1.1-12.5 1.5-19 1.4v27.5h47V691h-.2z"/></g></svg>