<svg xmlns="http://www.w3.org/2000/svg" width="32" height="32" viewBox="-281 404.9 32 32" enable-background="new -281 404.9 32 32"><path d="M-279.7 431.9c0 2 1.7 3.7 3.7 3.7h22c2 0 3.7-1.7 3.7-3.7v-19.4h-29.4v19.4z" fill="none"/><path fill="#006A8D" d="M-254 407.1h-2.3c0 .7 0 1.4.2 2 .1.4 0 .8-.2 1.1-.2.4-.7.6-1.1.7H-257.7c-.8 0-1.4-.5-1.6-1.1-.2-.9-.3-1.8-.3-2.7h-10.8c0 .7 0 1.4.2 2 .1.4 0 .8-.2 1.1-.2.4-.7.6-1.1.7H-271.8c-.8 0-1.4-.5-1.6-1.1-.2-.9-.3-1.8-.3-2.7h-2.3c-2.8 0-5 2.3-5 5v19.8c0 2.8 2.3 5 5 5h22c2.8 0 5-2.3 5-5v-19.8c0-2.7-2.3-5-5-5zm3.7 24.8c0 2-1.7 3.7-3.7 3.7h-22c-2 0-3.7-1.7-3.7-3.7v-19.4h29.4v19.4zM-271.8 410.1h.2c.5-.1.8-.4.7-.8-.3-1.2-.3-2.4 0-3.7v-.1c0-.3-.3-.6-.7-.6h-.2c-.4 0-.7.2-.8.5-.4 1.4-.4 2.8 0 4.2 0 .3.4.5.8.5zM-257.7 410.1h.2c.5-.1.8-.4.7-.8-.3-1.2-.3-2.4 0-3.7v-.1c0-.3-.3-.6-.7-.6h-.2c-.4 0-.7.2-.8.5-.4 1.4-.4 2.8 0 4.2.1.3.4.5.8.5z"/></svg>