<svg xmlns="http://www.w3.org/2000/svg" viewBox="-0.1 123.3 595.3 595.3" enable-background="new -0.1 123.3 595.3 595.3" width="32" height="32"><path fill="#006B8D" d="M91.9 127.8c3.2-3 7-4.5 11.5-4.5h192.8c4.5 0 8.5 1.4 11.7 4.4 3.2 3 4.8 6.9 4.8 11.9v155.1c0 6.4 2.1 11.8 6.5 16.1 4.3 4.3 9.6 6.5 16.1 6.5h155.8c5 0 9.2 1.5 12.3 4.8 3.2 3.2 4.8 7 4.8 11.7v368.4c0 4.5-1.5 8.5-4.8 11.7-3.2 3.2-7.3 4.8-12.3 4.8H103.5c-4.5 0-8.5-1.5-11.7-4.8s-4.8-7-4.8-11.7V139.7c.1-5 1.7-8.9 4.9-11.9zm273.2 143.1h137.4c3.7 0 5.5-1.8 5.5-5.5v-28.7c0-1.3-.7-2.7-2-4L396.7 125.3c-1.3-1.3-2.7-2-4-2h-27.4c-3.7 0-5.5 2-5.5 6.2v136c0 3.6 1.8 5.4 5.3 5.4zm-215-68.9h99.3c8.6 0 15.5-6.9 15.5-15.5S258 171 249.4 171h-99.3c-8.6 0-15.5 6.9-15.5 15.5.1 8.6 7 15.5 15.5 15.5zm295.1 300.5h-295c-8.6 0-15.5 6.9-15.5 15.5s6.9 15.5 15.5 15.5h295c8.6 0 15.5-6.9 15.5-15.5-.1-8.6-7-15.5-15.5-15.5zm-295.1-232h99.3c8.6 0 15.5-6.9 15.5-15.5s-6.9-15.5-15.5-15.5h-99.3c-8.6 0-15.5 6.9-15.5 15.5s7 15.5 15.5 15.5zm0 67.6h99.3c8.6 0 15.5-6.9 15.5-15.5s-6.9-15.5-15.5-15.5h-99.3c-8.6 0-15.5 6.9-15.5 15.5.1 8.6 7 15.5 15.5 15.5zm4.1 65.9h.2l27.1 48.7h21v-78.2h-19.2v48.2h-.2L156 374.5h-21v78.2h19.2V404zm125.6 31.4h-43.1v-14.9H275v-15.8h-38.3V391h41.9v-16.3h-62.4v78.2h63.6v-17.5zm46.4 17.5l10.7-53.9h.2l10.7 53.9h20.4l21.5-78.2h-20.4l-11.1 57.1h-.2l-11.5-57.1h-19.2l-11.5 57.1h-.2l-11.1-57.1h-20.4l21.2 78.2h20.9zm78.9-74.5c-3.1 1.9-5.6 4.4-7.5 7.4-1.9 3-2.9 6.7-2.9 11 0 3.6.7 6.7 2 9.2 1.3 2.5 3.1 4.6 5.2 6.3 2.1 1.7 4.6 3.1 7.4 4.3 2.7 1.1 5.5 2 8.2 2.9 2.9.8 5.6 1.5 8.2 2.1 2.6.6 5 1.3 7.1 2.1 2.1.8 3.8 1.8 5.1 2.9s1.9 2.5 1.9 4.3c0 1.4-.4 2.7-1.1 3.7-.7 1.1-1.7 1.9-2.9 2.5-1.2.6-2.5 1.1-4 1.3-1.5.4-3 .5-4.5.5-4.4 0-7.9-1-10.5-2.6-2.6-1.7-4-4.9-4.3-9.5h-20.4c0 5 1 9.3 2.7 12.9 1.9 3.5 4.4 6.3 7.5 8.7 3.1 2.3 6.8 3.9 10.8 4.9 4 1 8.3 1.5 12.9 1.5 4.3 0 8.5-.4 12.6-1.3 4-.8 7.7-2.3 11-4.3s5.7-4.6 7.6-8c1.9-3.3 2.9-7.5 2.9-12.5 0-3.6-.6-6.5-2-9-1.3-2.5-3-4.6-5.1-6.3s-4.5-3.1-7.3-4.3c-2.7-1.1-5.5-2-8.3-2.9-2.9-.8-5.6-1.5-8.3-2-2.7-.6-5.1-1.3-7.3-2-2.1-.7-3.9-1.5-5.1-2.5-1.3-1-1.9-2.1-1.9-3.7 0-1.3.4-2.4 1-3.2.6-.8 1.4-1.5 2.4-2s2-.8 3.2-1.1c1.2-.2 2.3-.4 3.5-.4 1.5 0 3.1.1 4.6.5 1.5.4 2.9.8 4.2 1.5 1.2.7 2.1 1.7 2.9 2.9.7 1.2 1.1 2.7 1 4.4H458c0-4.4-1-8.2-2.7-11.3-1.8-3.2-4.2-5.8-7.1-7.9-3-2-6.3-3.6-10-4.5-3.8-1-7.6-1.4-11.4-1.4-3.7 0-7.4.4-11.2 1.3-4 .3-7.4 1.7-10.5 3.6zM269.9 578.9H143.1c-4.6 0-8.3 2.5-8.3 5.5v89.4c0 3 3.7 5.5 8.3 5.5h126.7c4.6 0 8.3-2.5 8.3-5.5v-89.4c0-3-3.7-5.5-8.2-5.5zm181.4 0H324.7c-4.6 0-8.3 2.5-8.3 5.5v89.4c0 3 3.7 5.5 8.3 5.5h126.7c4.6 0 8.3-2.5 8.3-5.5v-89.4c0-3-3.7-5.5-8.4-5.5z"/></svg>