<svg xmlns="http://www.w3.org/2000/svg" viewBox="0 123.3 595.3 595.3" enable-background="new 0 123.3 595.3 595.3" width="21" height="21"><g fill="#4D4D4D"><path d="M126.1 173H26.2C11.7 173 0 184.6 0 199.1c0 14.5 11.7 26.2 26.2 26.2h99.9c14.4 0 26.2-11.7 26.2-26.2S140.6 173 126.1 173zM586.4 267c-7.7-9.6-19.6-15.2-32.7-15.2H125c-22.7 0-41.2 18.5-41.2 41.2 0 3.7.5 7.4 1.4 10.7L164.7 578c3.5 11 13.6 18.3 25 18.3H210c-5.2 7.5-8.2 16.5-8.2 26.4 0 25.6 20.7 46.3 46.3 46.3s46.3-20.7 46.3-46.3c0-9.8-3.1-18.9-8.2-26.4h125.2c-5.2 7.5-8.2 16.5-8.2 26.4 0 25.6 20.7 46.3 46.3 46.3 25.6 0 46.3-20.7 46.3-46.3 0-9.8-3.1-18.9-8.2-26.4h21.1c14.4 0 26.2-11.7 26.2-26.2 0-14.4-11.7-26.2-26.2-26.2h-300l-20.4-65h327c23 0 43.9-16.9 48.8-39.3l30.1-137.4c2.9-12.7 0-25.6-7.8-35.2z"/></g></svg>