<svg version="1" xmlns="http://www.w3.org/2000/svg" xmlns:xlink="http://www.w3.org/1999/xlink" width="5.1" height="6.8" viewBox="0 0 5.1 6.8"><style type="text/css">.st0{clip-path:url(#SVGID_2_);} .st1{clip-path:url(#SVGID_4_);} .st2{fill:#FFFFFF;}</style><defs><path id="SVGID_1_" d="M.6 5.9h4.1V2.2H2.8V.4H.6v5.5zM3.2.6v1.2h1.2L3.2.6zM3.1 0l2 2v4.3H.3V0h2.8z"/></defs><clipPath id="SVGID_2_"><use xlink:href="#SVGID_1_" overflow="visible"/></clipPath><g class="st0"><defs><path id="SVGID_3_" d="M-119.7-1458.9H376v1878h-495.7z"/></defs><clipPath id="SVGID_4_"><use xlink:href="#SVGID_3_" overflow="visible"/></clipPath><path class="st1" d="M-1.3-1.6h7.9v9.4h-7.9z"/></g><path class="st2" d="M.4 6.4c.1.1.1.1.2.1h2.7c.1 0 .2 0 .2-.1.1-.1.1-.1.1-.2V4.4c0-.1 0-.2-.1-.2s-.1-.1-.2-.1H.6c-.1 0-.2 0-.2.1-.1.1-.1.2-.1.2v1.8c0 .1 0 .2.1.2zm1.3-1.6c.1-.1.1-.1.2-.1s.2 0 .2.1c.1.1.1.1.1.2v.2l-.1.1v.6h-.2v-.6l-.1-.1V5c-.2-.1-.1-.1-.1-.2z"/><path d="M1.8 5.3v.6H2v-.6l.1-.1V5c0-.1 0-.2-.1-.2.1 0 0-.1-.1-.1s-.2 0-.2.1-.1.1-.1.2v.2s.1.1.2.1zM3.7 4c-.2-.1-.3-.2-.4-.2h-.2v-.5c0-.2 0-.3-.1-.5s-.1-.3-.2-.4c-.1-.1-.2-.2-.4-.3-.1 0-.3-.1-.5-.1s-.3 0-.5.1l-.3.3s-.2.2-.3.4c0 .1-.1.3-.1.5v.6H.6c-.1 0-.3 0-.4.1l-.1.1s-.1.2-.1.3v1.8c0 .2.1.3.2.4.1.1.2.2.4.2h2.7c.2 0 .3-.1.4-.2.1-.1.2-.3.2-.4V4.4c0-.1-.1-.3-.2-.4zM1 3.3c0-.3.1-.5.3-.7s.4-.3.6-.3c.3 0 .5.1.7.3.2.2.2.4.2.7v.6H1v-.6zM.3 4.4c0-.1 0-.2.1-.2.1-.1.1-.1.2-.1h2.7c.1 0 .2 0 .2.1.1.1.1.1.1.2v1.8c0 .1 0 .2-.1.2-.1.1-.1.1-.2.1H.6c-.1 0-.2 0-.2-.1-.1 0-.1-.1-.1-.2V4.4z"/></svg>