<svg width="144" height="144" viewBox="0 0 144 144" xmlns="http://www.w3.org/2000/svg"><title>icon__callout--error--inner-white</title><desc>Created with Sketch.</desc><g fill="none"><path fill="#EB4D57" d="M144 42.177v59.646L101.823 144H42.177L0 101.823V42.177L42.177 0h59.646z"/><path d="M71.105 86.152h1.72c0-1.54.24-3.518.724-5.935.483-2.417 1.082-5.022 1.8-7.815.715-2.793 1.503-5.657 2.362-8.593.86-2.938 1.665-5.695 2.417-8.273.5-2.04.93-3.974 1.288-5.8.358-1.827.537-3.367.537-4.62 0-1.826-.233-3.464-.698-4.914-.466-1.45-1.128-2.686-1.987-3.706-.86-1.02-1.898-1.8-3.116-2.337-1.217-.537-2.578-.806-4.082-.806-1.575 0-2.99.287-4.243.86-1.254.573-2.328 1.378-3.224 2.417-.895 1.04-1.575 2.284-2.04 3.734-.466 1.45-.7 3.034-.7 4.753 0 1.253.207 2.793.62 4.62.41 1.825.903 3.76 1.476 5.8.752 2.578 1.54 5.335 2.363 8.272.824 2.935 1.594 5.8 2.31 8.592.716 2.793 1.307 5.398 1.772 7.815.466 2.417.698 4.396.698 5.935zm1.075 24.922c1.11 0 2.175-.224 3.195-.67 1.02-.45 1.934-1.066 2.74-1.854.805-.788 1.45-1.7 1.933-2.74.484-1.038.725-2.13.725-3.276 0-1.11-.24-2.193-.725-3.25-.483-1.056-1.128-1.987-1.933-2.792-.806-.806-1.72-1.45-2.74-1.934-1.02-.483-2.085-.725-3.195-.725-1.146 0-2.238.242-3.277.725-1.038.484-1.96 1.128-2.766 1.934-.805.805-1.45 1.736-1.933 2.793-.484 1.056-.725 2.14-.725 3.25 0 1.145.24 2.237.724 3.276.483 1.04 1.128 1.952 1.933 2.74.806.788 1.728 1.405 2.766 1.853 1.04.447 2.13.67 3.277.67z" fill="#fff"/></g></svg>