<svg xmlns="http://www.w3.org/2000/svg" width="130" height="131" viewBox="0 0 130 131"><style type="text/css">.st0{fill:#FFFFFF;}</style><title>Calendar - simple-line-icons</title><desc>Created with Sketch.</desc><path class="st0" d="M127.7 14.7c-1.6-1.6-3.5-2.3-5.8-2.3H89.4V4.2c0-1.1-.4-2.1-1.2-2.9S86.4.1 85.3.1s-2.1.4-2.9 1.2-1.2 1.8-1.2 2.9v8.1H48.8V4.2c0-1.1-.4-2.1-1.2-2.9S45.8.1 44.7.1s-2.1.4-2.9 1.2-1.2 1.8-1.2 2.9v8.1H8.1c-2.3 0-4.2.8-5.8 2.3S0 18.2 0 20.4V122c0 2.2.8 4.1 2.3 5.7s3.5 2.4 5.8 2.4h113.8c2.3 0 4.2-.8 5.8-2.4s2.3-3.5 2.3-5.7V20.4c0-2.2-.8-4.2-2.3-5.7zM121.9 122H8.1V20.4h32.5v4.1c0 1.1.4 2.1 1.2 2.9s1.8 1.2 2.9 1.2 2.1-.4 2.9-1.2 1.2-1.8 1.2-2.9v-4.1h32.5v4.1c0 1.1.4 2.1 1.2 2.9s1.8 1.2 2.9 1.2 2.1-.4 2.9-1.2 1.2-1.8 1.2-2.9v-4.1H122V122z"/></svg>