<svg xmlns="http://www.w3.org/2000/svg" xmlns:xlink="http://www.w3.org/1999/xlink" width="24" height="23" viewBox="0 0 24 23"><style type="text/css">.st0{clip-path:url(#SVGID_2_);} .st1{clip-path:url(#SVGID_4_);}</style><title>icon146 - themify</title><desc>Created with Sketch.</desc><defs><path id="SVGID_1_" d="M-779-2188H801v4399H-779z"/></defs><clipPath id="SVGID_2_"><use xlink:href="#SVGID_1_" overflow="visible"/></clipPath><text transform="translate(-613 825)" font-family="MyriadPro-Regular" font-size="25" class="st0">!</text><defs><path id="SVGID_3_" d="M-779-2188H801v4399H-779z"/></defs><clipPath id="SVGID_4_"><use xlink:href="#SVGID_3_" overflow="visible"/></clipPath><text transform="translate(-613 825)" font-family="MyriadPro-Regular" font-size="25" class="st1">!</text><path d="M22.5 4.5H24v16.4l-8.2 2.3L8 21H0V4.5h9v.1l1.5.3c0-.7.2-1.3.5-1.9s.7-1.1 1.1-1.5 1-.8 1.6-1 1.3-.5 2-.5 1.4.1 2 .3c.6.3 1.2.6 1.6 1s.8.9 1.1 1.5.5 1.2.5 1.8l1.6-.1zM1.5 6v13.4h6V6h-6zM9 6v13.7l6 1.6v-6.8c-.2-.3-.5-.7-.9-1.2s-.9-1.2-1.3-1.9c-.5-.7-.9-1.5-1.3-2.4s-.7-1.7-.8-2.6L9 6zm6.7-4.6c-.5 0-1 .1-1.4.3-.5.2-.9.5-1.2.8s-.6.8-.8 1.2-.3 1-.3 1.6c0 .6.1 1.3.4 2.1.3.8.6 1.5 1 2.2s.8 1.4 1.2 2c.4.6.8 1.1 1.1 1.4.3-.3.7-.8 1.1-1.4.4-.6.8-1.3 1.2-2s.7-1.4 1-2.2c.3-.8.4-1.5.4-2.1 0-.6-.1-1.1-.3-1.5s-.4-.8-.7-1.2-.7-.6-1.2-.8-.9-.3-1.5-.4zm.8 20.1l6-1.8V6.1l-1.6.3c-.1.9-.4 1.7-.8 2.6-.4.8-.8 1.7-1.3 2.4-.4.8-.9 1.4-1.3 2-.4.5-.7 1-.9 1.2v6.9h-.1zM15.7 6.9c-.8 0-1.5-.7-1.5-1.5s.7-1.5 1.5-1.5 1.5.7 1.5 1.5-.6 1.5-1.5 1.5zm0-2.1c-.3 0-.6.3-.6.6s.3.6.6.6.6-.3.6-.6-.2-.6-.6-.6z"/></svg>