<svg width="144" height="147" viewBox="0 0 144 147" xmlns="http://www.w3.org/2000/svg"><title>icon__callout--warning--inner-white</title><desc>Created with Sketch.</desc><g fill="none"><path d="M69.766 4.468c1.234-2.468 3.238-2.46 4.468 0l67.532 135.064C143 142 141.766 144 139 144H5c-2.762 0-3.996-2.008-2.766-4.468L69.766 4.468z" fill="#FFE4B4"/><path d="M71.63 101.02h1.655c0-1.484.233-3.39.7-5.72.465-2.33 1.043-4.84 1.733-7.53.69-2.692 1.45-5.452 2.277-8.282.828-2.83 1.605-5.486 2.33-7.97.482-1.967.896-3.83 1.24-5.59.346-1.76.52-3.244.52-4.45 0-1.76-.225-3.34-.674-4.737-.447-1.397-1.086-2.587-1.914-3.57-.828-.984-1.83-1.734-3.002-2.252-1.173-.518-2.484-.776-3.933-.776-1.518 0-2.88.276-4.088.828-1.208.552-2.243 1.328-3.106 2.33-.862 1-1.518 2.2-1.967 3.596-.45 1.397-.673 2.924-.673 4.58 0 1.208.198 2.692.595 4.452.397 1.76.87 3.623 1.423 5.59.725 2.484 1.484 5.14 2.277 7.97.794 2.83 1.536 5.59 2.226 8.282.69 2.69 1.26 5.2 1.708 7.53.45 2.33.673 4.236.673 5.72zm1.034 24.015c1.07 0 2.096-.216 3.08-.647.983-.43 1.863-1.026 2.64-1.785.776-.76 1.397-1.64 1.863-2.64.465-1 .698-2.053.698-3.157 0-1.07-.233-2.114-.698-3.132-.466-1.018-1.087-1.915-1.864-2.69-.776-.777-1.656-1.4-2.64-1.864-.983-.466-2.01-.7-3.08-.7-1.103 0-2.156.234-3.156.7-1 .465-1.89 1.087-2.666 1.863-.775.776-1.396 1.673-1.862 2.69-.466 1.02-.7 2.063-.7 3.133 0 1.104.234 2.156.7 3.157.466 1 1.087 1.88 1.863 2.64.778.76 1.666 1.354 2.667 1.785 1 .43 2.053.647 3.157.647z" fill="#fff"/></g></svg>