<svg xmlns="http://www.w3.org/2000/svg" width="44" height="44" viewBox="0 0 44 44"><style type="text/css">.st0{fill:none;} .st1{fill:#333333;}</style><path class="st0" d="M-98.8-495.8v663.3H76.3v-663.3H-98.8zM43.7 25.4l-2.3 1.2 1.5 2.1-2.4.9 1.1 2.3-2.5.5.7 2.5-2.6.1.3 2.6-2.5-.4-.1 2.6-2.5-.7-.4 2.5-2.3-1.1-.9 2.4-2.1-1.5-1.2 2.3-1.9-1.7-1.6 2-1.6-2-1.9 1.8-1.2-2.3-2.1 1.5-.9-2.4-2.3 1-.5-2.5-2.5.7v-2.6l-2.6.3.4-2.5-2.6-.1.7-2.5-2.5-.4 1.1-2.3-2.4-.9 1.5-2.1-2.3-1.2L2 23.6 0 22l2-1.6-1.8-1.9 2.3-1.2L1 15.2l2.4-.9-1-2.3 2.5-.5-.7-2.4L6.8 9l-.4-2.6 2.6.4.1-2.6 2.5.7.4-2.5 2.3 1.1.9-2.4 2.1 1.5L18.5.3 20.4 2 22 0l1.6 2L25.5.2l1.2 2.3L28.8 1l.9 2.4 2.3-1 .5 2.5 2.5-.7v2.6l2.6-.3-.4 2.5 2.6.1-.7 2.5 2.5.5-1.1 2.3 2.4.9-1.5 2.1 2.3 1.2-1.7 1.8 2 1.6-2 1.6 1.7 1.8z"/><path class="st1" d="M42 23.6l2-1.6-2-1.6 1.8-1.9-2.3-1.2 1.5-2.1-2.4-.9 1.1-2.3-2.5-.5.7-2.5h-2.7l.3-2.5-2.5.3-.1-2.6-2.5.7-.4-2.5-2.3 1.1-.9-2.4-2.1 1.5L25.5.3 23.6 2 22 0l-1.6 2L18.5.2l-1.2 2.3L15.2 1l-.9 2.4-2.3-1-.5 2.5-2.4-.7L9 6.8l-2.6-.4.4 2.6-2.6.1.7 2.5-2.5.4 1.1 2.3-2.4.9 1.5 2.1-2.3 1.2L2 20.4 0 22l2 1.6-1.8 1.9 2.3 1.2L1 28.8l2.4.9-1 2.3 2.5.5-.7 2.5h2.6l-.3 2.6 2.5-.4.1 2.6 2.5-.7.5 2.5 2.3-1.1.9 2.4 2.1-1.5 1.2 2.3 1.9-1.8 1.6 2 1.6-2 1.9 1.8 1.2-2.3 2.1 1.5.9-2.4 2.3 1.1.5-2.5 2.5.7.1-2.6 2.6.3-.6-2.5 2.6-.1-.7-2.5 2.5-.5-1.1-2.3 2.4-.9-1.5-2.1 2.3-1.2-1.7-1.8zM9.9 16.4c-.2-.1-.5-.2-.8-.2l.1-.3h4l3.2 7.6c0-.1.1-.3.1-.5.1-.2.1-.5.2-.7.1-.3.1-.5.2-.8l.2-.9c.2-.7.3-1.4.5-2.1.1-.5.2-.8.2-1.1 0-.3 0-.5-.1-.7-.1-.2-.2-.3-.4-.3-.2-.1-.4-.1-.6-.1h-.1l.1-.3h3.7l-.1.3h-.1c-.3 0-.6 0-.8.1-.2.1-.4.2-.6.4s-.3.4-.4.7c-.1.3-.2.6-.3 1l-2.2 9h-.8l-4.2-9.8-1.8 7.1c-.1.4-.2.7-.2 1s0 .5.1.7c.1.2.2.3.4.4.2.1.4.1.7.1h.1l-.2.2H6.4l.1-.3h.2c.3 0 .5 0 .7-.1.2-.1.4-.2.5-.4.1-.2.2-.4.4-.7.1-.3.2-.6.3-1l1.9-7.7-.6-.6zm11.2 9c0 .2.1.4.2.6.1.2.2.3.3.4.1.1.3.2.6.2.2 0 .3 0 .5-.1s.4-.1.6-.3c.2-.1.4-.3.6-.5.2-.2.4-.5.6-.8l.3.2c-.2.3-.5.6-.7.9-.3.3-.5.5-.8.7-.3.2-.6.3-1 .4-.3.1-.7.2-1.1.2-.4 0-.7-.1-1.1-.2s-.6-.3-.9-.5c-.2-.2-.4-.5-.6-.9-.1-.3-.2-.7-.2-1.2 0-.4.1-.9.2-1.3s.3-.8.5-1.1c.2-.4.5-.7.8-1s.7-.5 1-.8.8-.4 1.2-.5c.4-.1.9-.2 1.4-.2.3 0 .6 0 .8.1l.6.3c.2.1.3.3.4.5.1.2.1.4.1.6 0 .3-.1.6-.2.9-.1.2-.3.5-.6.7-.2.2-.5.3-.8.5-.3.1-.6.3-1 .3-.3.1-.7.2-1 .2-.3.1-.6.1-.9.2v.6c.2.4.2.6.2.9zm16.2-2.7c-.1.5-.2.9-.4 1.4s-.4.9-.6 1.2c-.2.4-.5.7-.8 1-.3.3-.7.5-1 .7-.4.2-.8.3-1.2.3-1.4 0-2.2-.7-2.2-2-.2.3-.3.6-.5.9-.2.2-.4.5-.6.6s-.4.3-.7.4c-.3.1-.6.1-.9.1-.3 0-.6 0-.8-.1-.3-.1-.5-.2-.6-.3-.2-.1-.3-.3-.4-.6s-.2-.5-.2-.8c0-.3 0-.6.1-1l.3-1.2.6-1.9c.1-.2.1-.4.1-.6 0-.2-.1-.3-.2-.3-.1-.1-.3-.1-.5-.1h-.6l.1-.3 3.8-.1v.4c0 .2-.1.3-.1.5s-.1.4-.1.6c-.1.2-.1.4-.2.6l-.3 1.1c-.1.2-.1.4-.2.6s-.1.4-.2.7c0 .2-.1.4-.1.6v.5c0 .3.1.6.2.7.1.2.3.2.5.2s.3-.1.5-.2.3-.3.4-.5c.1-.2.3-.4.4-.7s.2-.5.3-.8l1.2-4.4h2.4L34 23c-.1.5-.2.9-.3 1.3-.1.4-.1.7-.1 1 0 .4.1.6.2.8s.4.3.6.3c.2 0 .4-.1.6-.2.2-.1.4-.3.6-.5s.4-.5.5-.8.3-.6.4-.9l.3-.9c.1-.3.1-.6.1-.8 0-.2 0-.3-.1-.4-.1-.1-.1-.2-.2-.3l-.2-.2c-.1-.1-.2-.1-.2-.2-.1-.1-.2-.3-.3-.4-.1-.1-.1-.3-.1-.5s.1-.4.2-.5.3-.2.5-.2.3 0 .4.1l.3.3s.2.3.2.5.1.4.1.6c-.1.7-.1 1.2-.2 1.6zM23 22.7c.2-.2.3-.5.4-.8.1-.3.2-.6.2-.9 0-.3 0-.5-.1-.7-.1-.1-.2-.2-.4-.2s-.4.1-.6.3-.4.4-.6.7c-.2.3-.3.7-.5 1.1-.1.4-.2.9-.3 1.4.4-.1.8-.2 1.1-.4.4 0 .6-.2.8-.5z"/></svg>