<svg width="37" height="34" viewBox="0 0 37 34" xmlns="http://www.w3.org/2000/svg"><title>icon192 - themify copy</title><desc>Created with Sketch.</desc><path d="M37 .648H0v8.745h2.168v23.92h32.664V9.392H37V.648zm1247.664 642.497h-28.328v-21.752h28.328v21.752zm2.168-23.92h-32.664v-4.41h32.664v4.41zm-21.752 13.007h10.912c.578 0 1.132-.108 1.662-.325.53-.217 1-.53 1.41-.94.41-.41.722-.866.94-1.372.216-.506.324-1.072.324-1.7 0-.577-.108-1.13-.325-1.66-.217-.53-.53-1-.94-1.41-.41-.41-.88-.722-1.41-.94-.53-.216-1.083-.324-1.66-.324h-10.913c-.626 0-1.204.11-1.734.326-.53.217-.988.53-1.373.94-.386.41-.7.878-.94 1.408-.24.53-.36 1.084-.36 1.662 0 .627.12 1.193.36 1.7.24.505.554.962.94 1.372.385.41.843.722 1.373.94.53.216 1.108.324 1.734.324zm0-6.503h10.912c.29 0 .566.06.83.18.266.12.495.276.688.47.192.192.35.42.47.685.12.265.18.542.18.83 0 .29-.06.568-.18.833s-.278.493-.47.686c-.193.193-.422.35-.687.47-.265.12-.542.18-.83.18h-10.913c-.337 0-.626-.06-.867-.18-.24-.12-.47-.277-.687-.47-.216-.193-.373-.42-.47-.686-.096-.265-.144-.542-.144-.832 0-.29.048-.566.145-.83.096-.266.253-.494.47-.687.216-.194.445-.35.686-.47.24-.12.53-.18.867-.18z" fill="#4D4D4D"/></svg>