<svg xmlns="http://www.w3.org/2000/svg" xmlns:xlink="http://www.w3.org/1999/xlink" width="29.922" height="25.898" viewBox="0 0 29.92188 25.89844" enable-background="new 0 0 29.92188 25.89844"><style type="text/css">.st0{clip-path:url(#SVGID_2_);}</style><title>“ copy</title><desc>Created with Sketch.</desc><defs><path id="SVGID_1_" d="M7.11 25.898c.885 0 1.7-.15 2.44-.45.743-.298 1.388-.708 1.934-1.23.547-.52.97-1.152 1.27-1.894.3-.742.45-1.556.45-2.44 0-.965-.183-1.837-.548-2.618s-.853-1.433-1.465-1.953c-.61-.52-1.327-.925-2.147-1.21s-1.673-.43-2.56-.43c-.467 0-.878.044-1.23.136-.35.09-.637.168-.858.233-.222.065-.385.078-.49.04-.103-.04-.155-.203-.155-.49 0-.728.254-1.633.762-2.714.508-1.082 1.14-2.19 1.894-3.32.755-1.134 1.59-2.234 2.5-3.302.912-1.068 1.784-1.953 2.617-2.656L10.078 0C8.594 1.328 7.24 2.702 6.016 4.12 4.792 5.54 3.73 7.013 2.832 8.536 1.934 10.06 1.237 11.64.742 13.28.247 14.923 0 16.603 0 18.32c0 1.094.17 2.103.508 3.028s.82 1.725 1.445 2.402 1.374 1.204 2.246 1.582c.872.378 1.842.566 2.91.566zm16.718 0c.886 0 1.7-.15 2.442-.45.742-.298 1.386-.708 1.933-1.23.547-.52.97-1.152 1.27-1.894s.45-1.556.45-2.44c0-.965-.183-1.837-.548-2.618s-.853-1.433-1.465-1.953-1.328-.925-2.148-1.21c-.82-.288-1.673-.43-2.56-.43-.468 0-.878.044-1.23.136-.35.09-.637.168-.86.233-.22.065-.382.078-.487.04-.104-.04-.156-.203-.156-.49 0-.728.253-1.633.76-2.714.508-1.082 1.14-2.19 1.895-3.32.755-1.134 1.588-2.234 2.5-3.302.91-1.068 1.784-1.953 2.617-2.656L26.797 0c-1.484 1.328-2.84 2.702-4.063 4.12-1.224 1.42-2.285 2.892-3.183 4.415-.898 1.524-1.594 3.106-2.09 4.746-.494 1.642-.74 3.322-.74 5.04 0 1.094.168 2.103.507 3.028.338.924.82 1.725 1.445 2.402s1.374 1.204 2.246 1.582c.872.378 1.842.566 2.91.566z"/></defs><clipPath id="SVGID_2_"><use xlink:href="#SVGID_1_" overflow="visible"/></clipPath><path class="st0" d="M-5-5h39.922v35.898H-5z"/></svg>