<svg width="25" height="25" viewBox="0 0 25 25" xmlns="http://www.w3.org/2000/svg"><title>icon__newsletter--black</title><desc>Created with Sketch.</desc><path d="M24.502 0c.228 0 .374.09.44.27.064.178.032.422-.098.73l-9.986 23.292c-.08.228-.19.395-.33.5-.138.106-.28.16-.427.16-.13 0-.26-.046-.39-.135-.13-.09-.252-.224-.365-.403l-3.956-6.47c-.228-.39-.566-.81-1.014-1.257-.447-.448-.866-.793-1.257-1.038L.526 11.547c-.374-.244-.55-.517-.525-.818.025-.3.24-.54.647-.72L23.964.122c.097-.032.19-.06.28-.085.09-.025.175-.037.257-.037zM7.95 14.258c.162.097.33.215.5.354.17.138.345.29.524.45L20.522 3.32l-17.92 7.617 5.347 3.32zm6.03 8.08l7.665-17.943-11.572 11.767c.147.163.28.326.403.488.122.163.224.326.305.49l3.2 5.2z" fill="#000"/></svg>