<svg width="144" height="144" viewBox="0 0 144 144" xmlns="http://www.w3.org/2000/svg"><title>icon__callout--info--inner-black</title><desc>Created with Sketch.</desc><g fill="none"><circle fill="#D8E7EF" cx="72" cy="72" r="72"/><path d="M77.292 51.51c1.273 0 2.49-.252 3.65-.757 1.16-.506 2.162-1.19 3.005-2.05.842-.86 1.516-1.862 2.02-3.004.506-1.143.76-2.35.76-3.623 0-1.273-.254-2.47-.76-3.594-.504-1.123-1.178-2.115-2.02-2.976-.843-.86-1.844-1.544-3.005-2.05-1.16-.505-2.377-.757-3.65-.757-1.31 0-2.536.252-3.677.758-1.142.505-2.134 1.188-2.977 2.05-.842.86-1.516 1.852-2.02 2.975-.506 1.123-.76 2.32-.76 3.594 0 1.273.254 2.48.76 3.622.504 1.14 1.188 2.142 2.05 3.003.86.86 1.86 1.544 3.003 2.05 1.142.505 2.35.758 3.622.758zm-11.455 57.164c2.396 0 4.624-.393 6.683-1.18 2.058-.786 3.94-1.862 5.643-3.228 1.703-1.367 3.247-2.976 4.632-4.83 1.386-1.852 2.62-3.864 3.706-6.036l-1.852-1.29c-2.17 3.817-4.09 6.503-5.755 8.057-1.666 1.553-3.042 2.33-4.127 2.33-.936 0-1.573-.262-1.91-.786-.336-.523-.505-1.31-.505-2.357 0-.487.067-1.058.198-1.713.13-.655.29-1.33.477-2.022.187-.692.384-1.375.59-2.05.205-.673.402-1.272.59-1.796l6.344-20.327c.56-1.834 1.03-3.472 1.403-4.914.374-1.44.655-2.73.842-3.873.188-1.142.32-2.19.393-3.145.075-.954.113-1.88.113-2.78l-25.998 1.46-.56 2.19h3.873c1.76 0 3.042.188 3.847.562.805.375 1.207 1.105 1.207 2.19 0 .487-.076 1.04-.226 1.657-.15.618-.337 1.34-.56 2.163l-7.92 26.223c-.336 1.048-.672 2.265-1.01 3.65-.336 1.385-.467 2.92-.392 4.604 0 .674.16 1.432.477 2.274.317.843.86 1.63 1.627 2.36.768.73 1.816 1.346 3.145 1.852 1.33.505 3.004.758 5.025.758z" fill="#1A1A1A"/></g></svg>