<svg xmlns="http://www.w3.org/2000/svg" width="18" height="18" viewBox="0 0 18 18"><style type="text/css">.st0{fill:#D8E7EF;}</style><circle class="st0" cx="9" cy="9" r="9"/><path d="M8.4 10.1c0-.2 0-.4.1-.5 0-.2.1-.3.2-.5s.2-.3.3-.5c0-.3.1-.5.2-.6.1-.2.1-.3.2-.5s.1-.4.1-.6v-.8c0-.2 0-.4-.1-.6s-.1-.4-.2-.5-.2-.3-.4-.4c-.1 0-.3-.1-.5-.1s-.4 0-.5.1-.4.1-.5.2l-.3.3c0 .1-.1.2-.1.2v.1h.4c.1 0 .3 0 .4.1.1 0 .2.1.3.2.1.1.1.2.2.3 0 .1.1.2.1.3 0 .1 0 .3-.1.4-.1.1-.2.2-.2.3-.1.1-.2.1-.3.2-.1 0-.2.1-.3.1-.4-.1-.6-.2-.8-.4-.2-.1-.3-.4-.3-.8 0-.3.1-.6.2-.8s.3-.4.5-.6c.2-.2.5-.3.8-.4.3-.1.7-.1 1-.1.4 0 .8 0 1.2.1.4.1.7.2.9.4.3.2.5.4.6.7.1.3.2.6.2.9 0 .2 0 .5-.1.7-.1.2-.1.4-.3.6s-.1.4-.3.5c-.2.2-.5.4-.8.6-.3.2-.5.4-.7.6-.2.1-.4.3-.5.4s-.2.3-.3.5c-.1.2-.1.4-.1.6v.2h-.2V10.1zm-.2 4c-.1-.1-.3-.1-.4-.2-.1-.1-.2-.2-.2-.4-.1-.1-.1-.3-.1-.4 0-.1 0-.3.1-.4.1-.1.1-.3.2-.4s.2-.2.4-.2c.1-.1.3-.1.4-.1.1 0 .3 0 .4.1.1.1.3.1.4.2s.2.2.2.4c.1.1.1.3.1.4 0 .1 0 .3-.1.4s-.1.3-.2.4c-.1.1-.2.2-.4.2-.1.1-.3.1-.4.1-.1 0-.3 0-.4-.1z"/></svg>