<svg xmlns="http://www.w3.org/2000/svg" xmlns:xlink="http://www.w3.org/1999/xlink" width="8" height="14" viewBox="0 0 8 14"><style type="text/css">.st0{clip-path:url(#SVGID_2_);} .st1{clip-path:url(#SVGID_4_);fill:#FFFFFF;} .st2{fill:#FFFFFF;} .st3{clip-path:url(#SVGID_8_);} .st4{clip-path:url(#SVGID_10_);fill:#FFFFFF;}</style><defs><path id="SVGID_1_" d="M7.8 7l-7 6.9-.6-.6L6.5 7 .2.7.8.1z"/></defs><use xlink:href="#SVGID_1_" overflow="visible" fill="#fff"/><clipPath id="SVGID_2_"><use xlink:href="#SVGID_1_" overflow="visible"/></clipPath><g class="st0"><defs><path id="SVGID_3_" d="M-796.9-842.4h1580v2112h-1580z"/></defs><use xlink:href="#SVGID_3_" overflow="visible" fill="#fff"/><clipPath id="SVGID_4_"><use xlink:href="#SVGID_3_" overflow="visible"/></clipPath><path class="st1" d="M-4.8-4.9h17.6V19H-4.8z"/></g><g class="st0"><path id="SVGID_5_" class="st2" d="M7.8 7l-7 6.9-.6-.6L6.5 7 .2.7.8.1z"/><defs><path id="SVGID_6_" d="M7.8 7l-7 6.9-.6-.6L6.5 7 .2.7.8.1z"/></defs><use xlink:href="#SVGID_6_" overflow="visible" fill="#fff"/><clipPath id="SVGID_8_"><use xlink:href="#SVGID_6_" overflow="visible"/></clipPath><g class="st3"><path id="SVGID_7_" class="st2" d="M-796.9-842.4h1580v2112h-1580z"/><defs><path id="SVGID_9_" d="M-796.9-842.4h1580v2112h-1580z"/></defs><use xlink:href="#SVGID_9_" overflow="visible" fill="#fff"/><clipPath id="SVGID_10_"><use xlink:href="#SVGID_9_" overflow="visible"/></clipPath><path class="st4" d="M-4.8-4.9h17.6V19H-4.8z"/></g></g></svg>