<svg xmlns="http://www.w3.org/2000/svg" viewBox="0 0 724.2 246.4" enable-background="new 0 0 724.2 246.4"><style type="text/css">.st0{fill:#E30513;}</style><title>logo__icaew--medium</title><path d="M199.2 150.6h-.2c-1.9-1.6-4.2-2.7-6.6-3.5-3-.8-6.1-1-9.2-.5-2.6.2-2.9 0-4.8 1-4.6 2.5-9.2 5-12.1 6.5-2.1 1.2-4.3 2.2-6.5 3-2.4.8-23.2 6.9-37.9 11.1-2.4.7-2.9.5-3.5-1.9-1.7-7-3.7-15.5-4.8-20.2-1.4-6.2-2.4-12.6-3-18.9-1-8.4-2.8-16.2-4.7-20.2-1.5-3-4.3-7.9-16.5-10.5-4.5-1-15.8-4.8-19-15.4-.5-1.7-2.4-11.9 3.2-16.2 2.9-2.2 8.5-6.9 11.8-12.8 2.3-4.2 6.5-14.2 0-24C83.9 25.5 87 9.3 71.3 1.7 67.9.1 64-.5 61.1.5c-1.7.6-2.6 1.3-4.2 1.1-4.3-.6-8.8.3-12.6 2.6-2.2 1.5-3.9 3.6-5 6-.7 1.3-1.2 1.5-2.9 2.3-5.8 2.6-9.7 8.3-9.9 14.7-.3 5.4 2.8 10.9 2.9 14 .1 4.6 1.9 9 4.9 12.4.5.4 1.2.4 1.7-.1.2-.3.4-.6.3-1-.7-5.6 1.3-8.7 1.6-11.7.1-9.1 5-12.6 9.1-13.9 3.3-1 8.2-1.3 11.4.1s3.8 5.2 3.4 8.3c-.1 1.5-.8 2.9-2 3.9-2 1.5-4.7.7-6.3 3.6-2.3 4.2-.5 18.7 0 21.8.5 3.5.1 5.6-.8 6.8-1.4 1.7-4.1 1.2-6.8.1-.3-.1-.6-.1-.9 0-.4.1-.7.5-.8.9-.3 2.2.7 7 2.7 11.5 3.8 8.7 10.5 14.6 12.4 17 4.9 6.2 7.8 15.7-4 18.5-8.7 2.1-20.1-.4-24.9-4-2.8-2-5-4.7-6.4-7.8-1.6-4.4-1.1-9.4 1.4-13.3.4-.4.4-1.1.2-1.6 0-.1-.1-.3-.1-.4-.3-.4-.8-.6-1.3-.5-3 1-7.6 1.7-11.7 3.6-4 1.8-7.4 5.3-8.9 11.3-1.7 6.6-2.8 13.3-3.4 20v75.2c3.5-8.6 6.4-16.1 7-17.4 2.8-6.4 7.1-19.9 9.2-29.5.2-.9 1.1-1.4 2-1.1.4.1.8.4 1 .8 1.1 4.8 7.2 21.1 7.5 30.2.1 4.6-3.5 13-4.7 18.2-.1.2-.1.4 0 .6.1.3.3.5.5.6.3.1.6.1.8-.1 1.5-1.4 2.9-3 4.4-4.4 1.9-1.7 3.8-3.4 5.8-4.9 2.6-2 5.3-3.9 8.1-5.6 3-1.8 6.1-3.2 9.2-4.8 3.9-1.9 7.8-3.9 11.6-5.9 6.1-3.2 11.8-6.9 17.2-11.2.8-.5 1.8-.3 2.3.4.4.5.4 1.3 0 1.8-11.6 16-44.1 30.5-56.8 48.2-6.2 8.5-10.4 18.2-12.2 28.6h91.2c-.5-3.9-1.4-7.8-2.5-11.6-2-7-5.1-15.1-7.7-22-3.4-9.2-6.4-17.8-7-22.6-1.2-10.7 1.8-21.1 5.3-29.9.8-2.1 2.8-1.9 3.5.4 1.6 5.5 5.5 19 7.4 24.8 1.5 4.7 3.8 6.9 5.6 7.2 1.3.1 2.6-.2 3.8-.9 15.8-6.9 52.6-23.7 54.7-24.6s5.3 0 9.1-.5c6.9-.7 10.3-4.5 16.5-4.2 1.4.1 3.9-.9 4.2-2.5s3.4-4.9 2-9.4zM650 130.3L665.9 76h.3l15.9 54.3h19.2l22.9-80.2H704l-12.9 53.3h-.4l-14.4-53.3h-20.1l-14.3 53.3h-.4l-12.7-53.3H608l22.8 80.2zM480.5 71.5l10 27.5h-20.2l10.2-27.5zm-15.8 43.1h31l6.2 15.8h21.5l-33.3-80.2h-18.8l-33.7 80.2h21.1l6-15.8zM593.8 113.8h-37.3V97.1h33.3V81.6h-33.3V66.4h35.3V50.1h-54v80.2h56zM316 50.1h19.5v80.2H316zM368.2 120.7c3.9 3.8 8.6 6.7 13.7 8.7 5.5 2.1 11.3 3.1 17.2 3.1 6.2.1 12.3-1.1 18-3.6 5-2.2 9.5-5.6 13.1-9.7l-13.5-12.7c-1.8 2.5-4.2 4.5-6.9 5.9-3.1 1.6-6.6 2.4-10.1 2.3-3.2 0-6.3-.6-9.2-1.8-2.7-1.1-5.2-2.8-7.2-5-2.1-2.3-3.7-4.9-4.7-7.8-1.2-3.2-1.7-6.6-1.7-10 0-3.3.5-6.7 1.7-9.8 1.1-2.9 2.7-5.5 4.8-7.8 2.1-2.2 4.5-4 7.3-5.2 3-1.3 6.1-1.9 9.4-1.9 3.1 0 6.2.6 9.1 1.8 2.9 1.1 5.3 3.1 7.1 5.5l13.1-13.1c-3.6-4-8.2-7-13.3-8.8-10.9-4-22.9-4-33.8-.1-5.1 1.9-9.8 4.7-13.8 8.4s-7.1 8.3-9.2 13.3c-4.4 11.1-4.5 23.5-.1 34.7 2 5.2 5.1 9.8 9 13.6"/><path class="st0" d="M193 150.9c.7.1 1.4 0 2.1 0 3-33.7 8.7-99.1 8.7-99.9 0-.6-.4-1.2-1.1-1.2-.6-.1-1.2.3-1.3.9-.1.6-9.8 66.9-14.7 100.2 2.5.1 5.2-.1 6.3 0zM260 72.2c-.5-.4-1.2-.3-1.6.2l-61 78.9c.1.1.2.2.3.4.2.6 0 1.3-.4 1.8-1.1 1.2-2.6 2-4.2 2.3-2.1.4-4.6 0-6.1.5-.4.1-.9.2-1 1l-.1.5-1.7 11.8c-.4 2.6 1.4 4.9 3.9 5.3 1.8.3 3.5-.5 4.5-2 1.3-1.9 67.3-98.5 67.7-99.1.4-.5.2-1.3-.3-1.6z"/></svg>