<svg xmlns="http://www.w3.org/2000/svg" viewBox="0 0 329.91 246.37"><defs><style>.cls-1 { fill: #e30517; }</style></defs><title>logo__icaew--economia-crop</title><path d="M261.87 147.13a23.07 23.07 0 0 0-9.21-.51c-2.58.22-2.93 0-4.75 1-4.59 2.53-9.25 5-12.1 6.5a38 38 0 0 1-6.52 3c-2.41.77-23.21 6.91-37.9 11.13-2.39.69-2.92.54-3.52-1.93-1.67-7-3.68-15.54-4.83-20.24a156.38 156.38 0 0 1-3-18.91c-1-8.42-2.8-16.2-4.73-20.2-1.47-3-4.32-7.93-16.47-10.52-4.5-1-15.85-4.81-19-15.4-.49-1.67-2.41-11.92 3.22-16.22 2.92-2.23 8.54-6.88 11.76-12.76 2.28-4.17 6.52-14.2 0-24-1.5-2.63 1.55-18.87-14.11-26.42-3.34-1.58-7.25-2.16-10.12-1.16-1.7.59-2.63 1.32-4.15 1.11a19.81 19.81 0 0 0-12.72 2.62 15.1 15.1 0 0 0-5.05 6c-.68 1.25-1.25 1.51-2.87 2.22a16.77 16.77 0 0 0-9.93 14.66c-.28 5.37 2.78 10.87 2.89 14a19.5 19.5 0 0 0 4.92 12.44 1.2 1.2 0 0 0 2-1.06c-.74-5.65 1.28-8.67 1.6-11.72.11-9.11 5-12.63 9.06-13.9 3.3-1 8.18-1.26 11.35.09s3.83 5.2 3.39 8.26a5.44 5.44 0 0 1-2 3.89c-2 1.48-4.71.69-6.3 3.58-2.33 4.25-.46 18.72 0 21.8.52 3.45.14 5.59-.83 6.75-1.44 1.71-4.07 1.17-6.81.06a1.27 1.27 0 0 0-.87 0 1.14 1.14 0 0 0-.75.93c-.29 2.19.71 7 2.66 11.51 3.78 8.66 10.55 14.63 12.44 17 4.91 6.25 7.81 15.67-4 18.51-8.72 2.11-20.06-.39-24.88-4-9.68-7.24-8.31-16.56-5.11-21.53a1.35 1.35 0 0 0 .15-1.57 1.24 1.24 0 0 0-1.34-.48c-3 1-7.58 1.67-11.73 3.59-4 1.84-7.37 5.33-8.89 11.33-3.48 13.78-3.19 21.4-4.52 29.4-1.84 11-3.81 17.59-6.48 27.76-.27 1-1.84 9.11-2.9 10.76a1 1 0 0 1-.3.27c-7.91 5.08-14.46 8.51-23 13.42a11.46 11.46 0 0 1-7.71 1 30.8 30.8 0 0 0-5.12-.75c-2.86-.25-5-.25-7.2-.41a1.6 1.6 0 0 1-1.43-1c-2-5.34-4.81-13-5.39-14.57a4.56 4.56 0 0 0-8.48 3.32C.81 177 3.82 184.56 6 189.89a1.26 1.26 0 0 1-.05 1.11 1.29 1.29 0 0 1-1 .59c-1.2.21-2.32.8-2.35 2.27 0 1.95 2.41 2.6 1.77 4.35a8.15 8.15 0 0 0-.87 2.12c-.21 1.32.94 2.61 2.79 3.79 2 1.29 2.64 4.59 7.22 6.09a1.66 1.66 0 0 1 1.32 1.16l14.69 35h7.83c-7.07-18-13.92-35.47-14.19-36.18-.18-.49-.06-.89.21-1a68.05 68.05 0 0 0 8.08-4.79c2.33-1.73 9.79-4.74 11.24-5.08 12.24-2.9 20.29-5.27 29-8.92 1.79-.75 3.11-3.22 4.56-6.49 2.83-6.39 7.1-19.84 9.25-29.49a1.63 1.63 0 0 1 1.54-1.24 1.6 1.6 0 0 1 1.6 1.15c1.06 4.62 7.2 21.13 7.51 30.39.15 4.58-3.45 13-4.66 18.21a.74.74 0 0 0 .33.83.72.72 0 0 0 .83-.12 80.44 80.44 0 0 1 16.15-13.4c11.11-6.67 26.22-11.52 40.24-23a1.68 1.68 0 0 1 2.36 2.37c-11.58 16-44.08 30.45-56.75 48.22a69.79 69.79 0 0 0-12.3 28.57h91.22a75 75 0 0 0-2.51-11.65c-2-7-5.11-15.06-7.66-22-3.4-9.21-6.41-17.78-7-22.58-1.23-10.66 1.85-21.11 5.28-29.85.82-2.1 2.85-1.85 3.54.44 1.63 5.45 5.54 19 7.36 24.78 1.47 4.66 3.82 6.93 5.64 7.24a7.28 7.28 0 0 0 3.8-.88c15.85-6.92 52.63-23.73 54.72-24.59s5.34-.05 9.1-.45c6.91-.72 10.26-4.48 16.46-4.16 1.38.07 3.91-.91 4.18-2.47s3.49-5.09 2.06-9.64h-.19a19.31 19.31 0 0 0-6.48-3.46z"/><path class="cls-1" d="M262.41 150.93c.69.06 1.45 0 2.15 0 3-33.72 8.68-99.13 8.74-99.91a1.18 1.18 0 0 0-1.06-1.22 1.16 1.16 0 0 0-1.29.94c-.09.59-9.83 66.9-14.71 100.18 2.38.08 5.16-.07 6.17.01zM329.42 72.18a1.18 1.18 0 0 0-1.61.18l-61 78.94a.72.72 0 0 1 .28.38 2 2 0 0 1-.37 1.8 7.62 7.62 0 0 1-4.22 2.32c-2.11.42-4.55 0-6.13.47-.36.1-.91.17-1 1l-.08.46-1.74 11.84a4.68 4.68 0 0 0 8.49 3.33c1.3-1.91 67.3-98.46 67.73-99.12a1.16 1.16 0 0 0-.35-1.6z"/></svg>