<svg xmlns="http://www.w3.org/2000/svg" width="350.6" height="56.1" viewBox="0 0 350.6 56.1"><style type="text/css">.st0{fill:#231F20;} .st1{fill:#ED1C24;}</style><title>Masthead Web-01</title><path id="_Compound_Path_" class="st0" d="M41.4 38.5H12.6c.4 4.4 4.8 7.5 9.5 7.5 3.4.2 6.7-1.4 8.8-4.2l9.1 5.8c-3.8 5.4-10 8.5-18.1 8.5-12 0-21.9-7.6-21.9-21 0-13 9.4-21.4 21.5-21.4 11.8 0 20 8.1 20 21.7 0 1.1 0 2.2-.1 3.1zm-12-8.2c0-4.2-2.6-7.6-7.8-7.6-5 0-8.7 3.5-9 7.6h16.8z"/><g id="_Group_3"><path id="_Compound_Path_2" class="st0" d="M74.7 27.9c-1.7-2-4.3-3.2-7-3.2-5.5 0-9.2 4.7-9.2 10.2s3.6 10.2 9.4 10.2c2.7.1 5.3-1 7.1-3l7.3 8.9c-3.3 3.2-8.9 5.1-14.7 5.1-12.6 0-22.3-8-22.3-21.2 0-13 9.8-21.2 22.2-21.2 5.7 0 11.7 2.2 14.8 5.4l-7.6 8.8z"/><path id="_Compound_Path_3" class="st0" d="M104.5 56.1c-12 0-22.1-8.3-22.1-21.4s10.1-21 22.1-21 22.2 8 22.2 21-10.1 21.4-22.2 21.4zm0-31.5c-6.2 0-9.4 5-9.4 10.2s3.3 10.3 9.4 10.3 9.4-5.2 9.4-10.3-3.2-10.2-9.4-10.2z"/><path id="_Compound_Path_4" class="st0" d="M158 54.8V33.1c0-4.4-1.2-8.4-5.9-8.4s-7 4-7 8.6v21.6h-13.2V15h12.7v5.5h.1c1.8-3.5 6.4-6.6 11.9-6.6 10.7 0 14.6 8.3 14.6 16.3v24.6H158z"/><path id="_Compound_Path_5" class="st0" d="M198 56.1c-12 0-22.1-8.3-22.1-21.4s10.1-21 22.1-21 22.2 8 22.2 21-10.1 21.4-22.2 21.4zm0-31.5c-6.2 0-9.4 5-9.4 10.2s3.3 10.3 9.4 10.3 9.4-5.2 9.4-10.3-3.2-10.2-9.4-10.2z"/></g><path id="_Compound_Path_6" class="st0" d="M276 54.8V33.1c0-4.6-1-8.4-5.7-8.4-4.5 0-6.6 4.2-6.6 8.6v21.5h-13.1V32.1c0-4.6-1.8-7.4-5.7-7.4-4.2 0-6.6 3.8-6.6 8.6v21.6h-13.2V15h12.7v5.5h.2c2.5-4.2 7-6.8 11.9-6.6 5.8 0 9.8 2.5 12 6.8 2.7-4.4 7.6-7 12.7-6.8 10.8 0 14.5 8.8 14.5 16.3v24.6H276z"/><path id="_Compound_Path_7" class="st0" d="M314.5 20.5c4.9-4.4 11.2-6.8 17.8-6.7 13.4 0 18.3 6.6 18.3 21v20.1h-12v-4.2h-.2c-2 3.3-6.6 5.2-11.3 5.2-6.3 0-14.5-3.1-14.5-12.5 0-11.5 14-13.4 25.6-13.4v-.6c0-3.9-3.1-5.8-7.2-5.8-3.7.1-7.2 1.6-9.8 4.1l-6.7-7.2zm24.1 17h-1.7c-5.8 0-12.2.7-12.2 5.4 0 3 3 4.1 5.7 4.1 5.3 0 8.2-3.2 8.2-8.2v-1.3z"/><g id="_Group_6"><path id="_Path_" class="st0" d="M297 26.4c0-.1-.5-1.3-.6-1.4 0 0 0-.1-.1-.1s-.1 0-.2.1c-.2.5-.6 1.2-.8 1.7v.1l.6 1.4c0 .1.1.1.2.1l.1-.1c.1-.2.5-1.2.8-1.7v-.1z"/><g id="_Group_7"><path id="_Path_2" class="st0" d="M304.3 45.5c-1.4 3.1-6 7.2-7.2 9.4h3.2c1.4-1.8 4-4.1 5.3-6.2.1-.1.1-.3.1-.5-.3-.7-1-2.5-1.1-2.7 0-.1-.1-.1-.2-.1l-.1.1c.1-.1 0-.1 0 0z"/><path id="_Path_3" class="st0" d="M307.1 51.7l-.8-1.9s0-.1-.1-.1h-.1c-1.3 1.8-3.4 3.1-5 5.1h3.2c1-.8 1.9-1.7 2.7-2.8.1-.1.1-.2.1-.3z"/><path id="_Path_4" class="st0" d="M303.8 43.4l-6-15c0-.1-.1-.1-.1-.1-.1 0-.1 0-.1.1-.3.5-.5 1.2-.8 1.7v.1c.7 1.9 2.9 7.1 3.6 9.6.2.6.3 1.2.4 1.9 0 2.6-2.8 6.1-4.6 9s-1.6 4.2-1.6 4.2h1.8c1.1-2.1 6.2-7.1 7.5-11.1-.1-.2-.1-.3-.1-.4z"/><path id="_Path_5" class="st0" d="M307.4 53c-.8.7-1.7 1.4-2.2 1.8h3.2l-.7-1.8c0-.1-.1-.1-.1-.1-.1.1-.2.1-.2.1z"/></g><path id="_Path_6" class="st0" d="M319.2 25c-.3-.3-.8-.2-.9-.6s-.3-.2-.5-.2h-1.6c-.2 0-.4 0-.6-.2-.3-.2-3.4-2.2-4.8-3.1-.3-.1-.5-.4-.5-.7-.1-.5-.6-2.5-.8-3.3-.2-.7-.3-1.5-.4-2.2-.1-.8-.3-1.6-.5-2.4-.2-.4-.5-.9-1.9-1.2-1-.2-1.9-.9-2.2-1.8-.1-.2-.3-1.4.4-1.9.6-.4 1-.9 1.4-1.5.5-.9.5-1.9 0-2.8-.2-.3.2-2.2-1.7-3.1-.4-.2-.8-.2-1.2-.1-.2.1-.3.2-.5.1-.5-.1-1 0-1.5.3-.3.2-.5.4-.6.7-.1.2-.1.2-.3.3-.7.3-1.1 1-1.2 1.7.1.6.2 1.1.3 1.6 0 .5.2 1.1.6 1.5.1.1.1.1.2 0 0 0 .1-.1 0-.1 0-.5 0-.9.2-1.4-.1-.7.4-1.4 1.1-1.6.4-.1.9-.1 1.3 0 .3.2.5.6.4 1 0 .2-.1.3-.2.5-.2.2-.5.1-.7.4-.2.8-.2 1.7 0 2.6.1.3 0 .6-.1.8-.2.2-.5.1-.8 0h-.1l-.1.1c0 .5.1.9.3 1.3.4.7.9 1.4 1.5 2 .6.7.9 1.8-.5 2.2-1 .2-2.1 0-3-.5-.9-.5-1.1-1.7-.6-2.5v-.2c0-.1-.1-.1-.2-.1-.5.1-.9.2-1.4.4-.5.3-.9.8-1 1.3-.3 1.1-.4 2.3-.5 3.4-.2 1.1-.4 2.2-.8 3.3 0 .1-.1.2-.2.2-1-.4-1.9-.8-2.8-1.3-.2-.1-.4-.2-.5-.4l-1.2-1.1c-.2-.1-.4-.2-.6-.2h-1c-.1 0-.1 0-.2-.1l-.6-1.7c-.1-.3-.4-.4-.7-.3-.3.1-.4.4-.3.7.1.2.4 1 .7 1.7v.1l-.1.1c-.1 0-.3.1-.3.3s.3.3.2.5c0 .1-.1.2-.1.2 0 .2.1.3.3.4s.3.5.8.7c.1 0 .1.1.1.1.8 1.9 8.8 21.4 9.1 22 .1.1.2.2.3.1.1-.1.1-.2.1-.3-.3-.7-5.7-14.6-8.4-21.7v-.1l.1-.1h.8c.2 0 .5.1.7.3.9.6 3.2 2.4 4.2 3 .2.1.4.2.7.1.3-.2.5-.5.7-.9.5-1.1.8-2.3 1.1-3.5 0-.1.1-.1.2-.1s.2.1.2.1c.4 1.2.7 2.4.9 3.6-.1.7-.3 1.4-.5 2.1v.1h.1c.6-.6 1.2-1.1 1.9-1.6 1.7-.8 3.2-1.7 4.7-2.7.1-.1.2 0 .3 0 .1.1.1.2 0 .2-1.4 1.9-5.2 3.6-6.7 5.7-.5.8-.4 1.2-.4 1.3l2 5.2c0 .1.1.1.2.1l.9-.8c.1-.1.3-.1.3 0v.1c.2.7 1.2 3.2 1.4 3.7.1.2 0 .3-.2.4-.1.1-.3 0-.4-.1l-1-2.6c0-.1-.1-.1-.2 0l-.6.5v.2l2 5.2c0 .1.1.1.2 0l.9-.8c.1-.1.2-.1.3 0v.1c.2.7 1.2 3.1 1.4 3.7.1.1 0 .3-.1.4-.2.1-.3 0-.4-.2l-1-2.6c0-.1-.1-.1-.2-.1l-.6.6v.2c1.3 3.5 2.8 7.4 2.9 7.7 0 .1.1.1.2.1s.1-.1.1-.1c.5-3.7 2.4-13.3 1.4-19.1-.3-1.7-1.8-4.8-1.9-6.1-.1-1.2.1-2.4.6-3.5.1-.2.3-.2.4.1l.9 2.9c.1.5.2.7.5.8 1.8.9 6.2 2.9 6.5 3s.9.4 1.3.6c.8.3 1.3.1 1.9.5.1.1.5.1.6 0s.5-.6.7-1v-.1c-.2-.1-.4-.3-.6-.5z"/></g><g id="_Group_9"><path id="_Path_7" class="st1" d="M319 25.4l1-11.6c0-.1-.1-.1-.1-.1-.1 0-.1 0-.1.1l-1.6 11.1c.2.2.5.4.8.5z"/><path id="_Path_8" class="st1" d="M326.6 16.3h-.2l-7.2 9.3c.2.1.3.2.3.2s-.4.2-.7.2-.5-.3-.7-.3-.1 0-.2.2l-.3 1.8c0 .3.2.6.5.6.2 0 .4-.1.5-.2l8-11.6c.1-.1.1-.2 0-.2z"/></g></svg>