<svg xmlns="http://www.w3.org/2000/svg" viewBox="0 0 678.6 253.9" enable-background="new 0 0 678.6 253.9"><style type="text/css">.st0{fill:#E30513;}</style><title>logo__icaew--large</title><path d="M269.9 151.6c-3.8-1-5.9-.8-9.5-.5-2.6.2-3 0-4.9 1-4.7 2.6-9.5 5.2-12.5 6.7-2.1 1.3-4.4 2.3-6.7 3.1-2.5.8-23.9 7.1-39 11.5-2.5.7-3 .6-3.6-2-1.7-7.2-3.8-16-5-20.9-1.4-6.4-2.5-12.9-3.1-19.5-1-8.7-2.9-16.7-4.9-20.8-1.5-3.1-4.5-8.2-17-10.8-4.6-1-16.3-5-19.5-15.9-.5-1.7-2.5-12.3 3.3-16.7 3-2.3 8.8-7.1 12.1-13.1 2.4-4.3 6.7-14.6 0-24.7-1.5-2.7 1.6-19.4-14.5-27.2-3.5-1.7-7.5-2.3-10.5-1.3-1.8.6-2.7 1.4-4.3 1.1-4.5-.6-9.2.4-13.1 2.7-2.3 1.6-4 3.7-5.2 6.2-.7 1.3-1.3 1.6-3 2.3-6 2.7-10 8.5-10.2 15.1-.3 5.5 2.9 11.2 3 14.4.1 4.7 1.9 9.3 5.1 12.8.4.5 1.2.6 1.7.2.4-.3.5-.8.4-1.3-.8-5.8 1.3-8.9 1.6-12.1.1-9.4 5.1-13 9.3-14.3 3.4-1.1 8.4-1.3 11.7.1s4 5.4 3.5 8.5c-.1 1.6-.9 3-2.1 4-2 1.5-4.9.7-6.5 3.7-2.4 4.4-.5 19.3 0 22.5.5 3.6.1 5.8-.9 7-1.5 1.8-4.2 1.2-7 .1-.3-.1-.6-.1-.9 0-.4.2-.7.5-.8 1-.3 2.2.7 7.2 2.7 11.9 3.9 8.9 10.9 15.1 12.8 17.6 5.1 6.4 8 16.2-4.1 19.1-9 2.2-20.7-.4-25.6-4.1-10-7.5-8.6-17.1-5.3-22.2.4-.4.5-1.1.2-1.6-.3-.4-.9-.6-1.4-.5-3.1 1-7.8 1.7-12.1 3.7-4.1 1.9-7.6 5.5-9.2 11.7-3.6 14.2-3.3 22-4.7 30.3-1.9 11.4-3.9 18.1-6.7 28.6-.3 1.1-1.9 9.4-3 11.1l-.3.3c-8.2 5.2-14.9 8.8-23.8 13.8-2.4 1.2-5.3 1.6-7.9 1-1.7-.4-3.5-.7-5.3-.8-3-.3-5.1-.3-7.4-.4-.7 0-1.2-.4-1.5-1.1-2.1-5.5-5-13.4-5.6-15-1.1-2.4-3.9-3.4-6.2-2.3-2.2 1-3.3 3.5-2.5 5.7.6 1.4 3.7 9.1 5.9 14.6.1.4.1.8-.1 1.1-.2.3-.6.6-1 .6-1.2.2-2.4.8-2.4 2.3 0 2 2.5 2.7 1.8 4.5-.4.7-.7 1.4-.9 2.2-.2 1.4 1 2.7 2.9 3.9 2.1 1.3 2.7 4.7 7.4 6.3.6.1 1.2.6 1.4 1.2l15.5 36h8.1c-7.3-18.5-14.3-36.5-14.6-37.3-.2-.5-.1-.9.2-1.1 2.9-1.5 5.7-3.1 8.3-4.9 2.4-1.8 10.1-4.9 11.6-5.2 12.6-3 20.9-5.4 29.9-9.2 1.9-.8 3.2-3.3 4.7-6.7 2.9-6.6 7.3-20.5 9.5-30.4.2-.7.8-1.3 1.6-1.3s1.4.5 1.6 1.2c1.1 4.8 7.4 21.8 7.7 31.3.2 4.7-3.6 13.5-4.8 18.8-.1.3 0 .7.3.9.3.1.6.1.9-.1 4.9-5.4 10.5-10 16.6-13.9 11.4-6.9 27-11.9 41.5-23.7.7-.6 1.8-.5 2.4.2.5.6.5 1.6 0 2.2-11.9 16.5-45.4 31.4-58.5 49.7-6.4 8.7-10.7 18.8-12.6 29.4h94c-.5-4.1-1.4-8.1-2.6-12-2.1-7.2-5.3-15.5-7.9-22.6-3.5-9.5-6.6-18.3-7.2-23.3-1.3-11 1.9-21.8 5.4-30.8.9-2.2 2.9-1.9 3.6.5 1.7 5.6 5.7 19.6 7.6 25.5 1.5 4.8 3.9 7.1 5.8 7.5 1.4.1 2.7-.3 3.9-.9 16.3-7.1 54.3-24.4 56.4-25.3s5.5-.1 9.4-.5c7.1-.8 10.6-4.6 17-4.3 1.4.1 4-.9 4.3-2.5s3.6-5.2 2.1-9.9h-.2c-1.8-1.7-4.1-2.9-6.6-3.7zM627.5 106.2l10.9-37.4h.3l10.9 37.4h13.2l15.8-55.3h-13.9l-8.9 36.8h-.3l-9.9-36.8h-13.9l-9.8 36.8h-.3l-8.7-36.8h-14.4l15.7 55.3zM510.6 65.6l6.9 19h-13.9l7-19zm-10.8 29.7h21.4l4.3 10.9h14.8l-23-55.3h-13l-23.2 55.3h14.5l4.2-10.9zM588.7 94.8H563V83.3h23V72.6h-23V62.1h24.3V50.9h-37.2v55.3h38.6zM397.3 50.9h13.4v55.3h-13.4zM433.2 99.6c2.7 2.6 5.9 4.7 9.4 6 3.8 1.4 7.8 2.2 11.8 2.1 4.3.1 8.5-.8 12.5-2.5 3.5-1.5 6.6-3.8 9.1-6.7l-9.3-8.8c-1.2 1.7-2.9 3.1-4.8 4.1-2.2 1.1-4.6 1.6-7 1.6-2.2 0-4.3-.4-6.3-1.2-1.9-.8-3.6-2-5-3.5-1.4-1.6-2.5-3.4-3.2-5.4-.8-2.2-1.2-4.5-1.2-6.9 0-2.3.4-4.6 1.2-6.8.7-2 1.8-3.8 3.3-5.4 1.4-1.5 3.1-2.7 5-3.6 2-.9 4.2-1.3 6.5-1.3 2.1 0 4.3.4 6.2 1.2 2 .8 3.7 2.1 4.9 3.8l9.1-9.1c-2.5-2.8-5.7-4.8-9.2-6.1-7.5-2.7-15.8-2.7-23.3 0-3.5 1.3-6.8 3.3-9.5 5.8-2.7 2.6-4.9 5.7-6.4 9.2-3 7.7-3 16.2 0 23.9 1.4 3.8 3.5 7 6.2 9.6"/><path class="st0" d="M270.4 155.5c.7.1 1.5 0 2.2 0 3-34.8 9-102.2 9-103 0-.6-.4-1.2-1.1-1.3-.6-.1-1.2.4-1.3 1-.1.6-10.1 68.9-15.2 103.2 2.5.2 5.4 0 6.4.1zM339.5 74.4c-.5-.4-1.2-.3-1.6.2L275 155.9c.1.1.2.2.3.4.2.6.1 1.3-.4 1.9-1.2 1.2-2.7 2.1-4.3 2.4-2.2.4-4.7 0-6.3.5-.4.1-.9.2-1.1 1l-.1.5-1.8 12.2c-.3 2.6 1.5 5.1 4.2 5.4 1.8.2 3.5-.5 4.5-2 1.3-2 69.3-101.5 69.8-102.1.3-.6.2-1.3-.3-1.7z"/></svg>