<svg xmlns="http://www.w3.org/2000/svg" xmlns:xlink="http://www.w3.org/1999/xlink" width="148.6" height="244.5" viewBox="0 0 148.6 244.5"><style type="text/css">.st0{clip-path:url(#SVGID_2_);} .st1{clip-path:url(#SVGID_4_);} .st2{clip-path:url(#SVGID_4_);fill:#E30613;} .st3{clip-path:url(#SVGID_6_);}</style><defs><path id="SVGID_1_" d="M0 0h148.6v244.5H0z"/></defs><clipPath id="SVGID_2_"><use xlink:href="#SVGID_1_" overflow="visible"/></clipPath><path class="st0" d="M37.9 98.6c-.2-.5-2-5-2.2-5.4-.1-.1-.1-.3-.3-.3-.2-.1-.5 0-.6.3-.9 1.9-2.1 4.5-2.9 6.2-.1.2 0 .3 0 .5.7 1.8 1.6 4 2.1 5.4.2.5.8.4.9 0 .3-.6 2-4.4 2.9-6.2.1-.1.1-.3.1-.5M65.2 169.7c-5.1 11.7-22.5 26.7-27 35h12.1c5.1-6.6 14.8-15.3 19.7-23.1.4-.7.5-1.3.3-1.9-1.1-2.6-3.7-9.3-4-10.1-.2-.4-.5-.4-.7-.4-.3.2-.3.4-.4.5M75.5 192.9c-.9-2.1-2.6-6.4-2.8-7-.1-.2-.2-.3-.3-.3-.2-.1-.5 0-.6.2-5 6.7-12.7 11.7-18.6 19.1h12.1c2-2 8.1-6.9 10.1-10.3.2-.6.3-1.1.1-1.7M63.2 162c-.3-.8-22.3-55.7-22.4-56 0-.1-.2-.3-.5-.3-.2 0-.4.1-.5.3-1 2-2.1 4.5-2.8 6.2 0 .1-.1.3 0 .5 2.8 7.1 11 26.6 13.5 35.7.8 3 1.3 5.7 1.3 7 0 9.9-10.4 22.8-17.1 33.5s-6 15.7-6 15.7h6.6c4.1-8 23.1-26.4 28-41.5 0-.3 0-.8-.1-1.1"/><defs><path id="SVGID_3_" d="M0 0h148.6v244.3H0z"/></defs><clipPath id="SVGID_4_"><use xlink:href="#SVGID_3_" overflow="visible"/></clipPath><path class="st1" d="M76.7 198.1c-3 2.8-6.5 5.1-8.4 6.7h12s-2.4-6.1-2.7-6.6c-.1-.2-.3-.3-.5-.3-.2-.1-.3 0-.4.2M120.9 93.5c-1.2-1.1-2.1-1.5-3.5-2.1-1-.4-1.1-.6-2-.6-2.3.1-4.6.1-6 .1-.6 0-1 .1-2.1-.6S94.5 82 89.5 78.7c-.9-.6-1.7-1-2-2.5-.5-1.8-2.3-9.4-2.9-12.2-.7-2.8-1-5.6-1.3-8.3-.4-3.7-1.2-7.1-2.1-8.8-.6-1.3-1.9-3.5-7.2-4.6-2-.4-6.9-2.1-8.3-6.7-.2-.7-1.1-5.2 1.4-7.1 1.3-1 3.7-3 5.2-5.6 1-1.8 2.9-6.2 0-10.5-.7-1.2.7-8.3-6.2-11.6-1.5-.7-3.2-1-4.5-.5-.7.3-1.2.6-1.8.5-2.4-.3-4.6.5-5.6 1.1-1.3.9-1.8 1.8-2.2 2.6-.3.5-.5.7-1.3 1-1.7.7-4.2 2.7-4.3 6.4-.1 2.4 1.2 4.8 1.3 6.1.1 2.5 1.3 4.6 2.2 5.4.2.2.6.2.7 0 .2-.2.2-.4.2-.5-.3-2.5.6-3.8.7-5.1 0-4 2.2-5.5 4-6.1 1.4-.5 3.6-.6 5 0s1.7 2.3 1.5 3.6c-.1.5-.2 1.2-.9 1.7-.9.6-2.1.3-2.8 1.6-1 1.9-.2 8.2 0 9.5.2 1.5.1 2.4-.4 3-.6.7-1.8.5-3 0-.1 0-.2-.1-.4 0-.2 0-.3.2-.3.4-.1 1 .3 3.1 1.2 5 1.7 3.8 4.6 6.4 5.4 7.5 2.2 2.7 3.4 6.9-1.7 8.1-3.8.9-8.8-.2-10.9-1.8-4.2-3.2-3.6-7.3-2.2-9.4.2-.3.2-.5.1-.7-.1-.2-.4-.3-.6-.2-1.3.4-3.3.7-5.1 1.6-1.7.8-3.2 2.3-3.9 5-1.5 6-1.4 9.4-2 12.9-.8 4.8-1.7 7.7-2.8 12.2-.1.5-.4.8-.9.6-3.8-1.5-7.1-3.2-10.6-4.8-.5-.2-1.3-.7-2-1.3-1.8-1.7-3-2.7-4.6-4.3-.5-.4-1.3-.7-2.2-.7H7.8c-.3 0-.5-.2-.6-.5-.9-2.3-2.1-5.7-2.3-6.4-.2-.6-1.2-1.5-2.4-1.1-1.2.3-1.7 1.7-1.3 2.6.2.6 1.5 3.9 2.5 6.2 0 .1.1.3 0 .5-.1.1-.2.2-.4.3-.5.1-1 .3-1 1 0 .9 1.1 1.1.8 1.9-.1.3-.3.5-.4.9-.1.6.4 1.1 1.2 1.7.9.6 1.1 2 3.1 2.7.3.1.4.1.6.5 2.9 7.1 33 80 33.9 82 .2.5.8.6 1.2.4.4-.2.5-.7.4-1-1-2.6-21.3-54.4-31.5-81 0 0-.1-.2 0-.5.1-.2.3-.2.4-.2.8 0 2 0 3 .1 1.2.1 2 .6 2.6 1 3.3 2.3 12 8.8 15.6 11.3.6.4 1.9.7 2.5.4 1-.5 1.8-1.8 2.5-3.2 1.2-2.8 3.1-8.7 4.1-12.9.1-.3.4-.5.7-.5.3 0 .6.2.7.5.5 2 3.2 9.3 3.3 13.3.1 2-1.5 5.7-2 8 0 .1 0 .3.1.4.1.1.2.1.4-.1.4-.3 3.2-3.5 7.1-5.9 4.9-2.9 11.5-5 17.6-10.1.4-.3.8-.2 1 .1.3.3.3.6 0 1-5.1 7-19.3 13.3-24.9 21.1-2 2.8-1.5 4.3-1.3 4.9 1.1 2.9 5.9 15.5 7.4 19.5.1.2.5.5.8.2.7-.6 2.5-2.2 3.3-3 .6-.5 1.3-.1 1.4.3.9 2.5 4.5 11.8 5.3 13.8.3.7-.1 1.2-.6 1.4-.5.2-1.2.1-1.5-.6-.5-1.4-3-7.8-3.7-9.8-.1-.3-.5-.5-.8-.2-.5.5-1.4 1.3-2.2 2-.1.1-.2.3-.1.6.3.9 6.5 17.2 7.4 19.3.1.3.5.5.8.2.7-.7 3-2.7 3.4-3 .3-.3 1.1-.3 1.4.4.9 2.5 4.4 11.6 5.2 13.7.2.6 0 1.2-.6 1.5-.5.2-1.2 0-1.5-.6-.5-1.4-3.3-8.6-3.8-9.8-.1-.3-.6-.4-.8-.2-.2.2-1.5 1.4-2.3 2-.2.2-.2.4-.1.6 5 13 10.5 27.7 11 28.7.1.3.4.4.6.3.2-.1.4-.2.4-.4 2-13.9 9-49.6 5.2-71.2-1.1-6.2-6.7-18.1-7.2-22.7-.5-4.7.8-9.2 2.3-13.1.4-.9 1.2-.8 1.5.2.7 2.4 2.5 8.3 3.2 10.9.5 1.7.6 2.5 2 3.1 6.8 3.3 23.2 11 24.1 11.4.9.4 3.2 1.6 4.7 2.2 2.8 1.1 4.9.3 7.2 1.7.5.3 1.7.4 2.1-.1.4-.6 1.7-2.3 2.6-3.6 0-.1-.1-.2-.1-.3-.9-1.1-1.5-2-2.1-2.5"/><path class="st2" d="M120 94.9c1.3-14.8 3.8-43.1 3.8-43.4 0-.2-.2-.5-.5-.5s-.5.2-.6.4c0 .2-3.9 26.5-6.1 41.6 1.3 1 2.5 1.5 3.4 1.9M148.4 60.8c-.2-.2-.5-.1-.7.1-.2.3-17.6 22.8-26.7 34.6.6.3 1.1.6 1 .9-.2.9-1.5.9-2.6.7-.9-.2-2-1.1-2.7-1.1-.3 0-.5.1-.6.6-.6 4-1 6.7-1 6.8-.1 1 .5 2 1.4 2.2.9.3 1.8 0 2.3-.8.6-.8 29.5-43.1 29.7-43.4.1-.1.1-.4-.1-.6"/><path class="st1" d="M0 244.3h113v-34.7H0v34.7zm12.9-8.1H8.4v-18.5h4.5v18.5zm19.5-.3c-1.2.5-2.6.8-4.1.8-1.4 0-2.7-.2-4-.7-1.2-.5-2.3-1.1-3.1-2-.9-.9-1.6-1.9-2.1-3.1-.5-1.2-.8-2.5-.8-4s.3-2.8.8-4 1.2-2.2 2.1-3.1c.9-.8 2-1.5 3.2-1.9 1.2-.5 2.5-.7 3.9-.7 1.3 0 2.6.2 3.8.7 1.3.5 2.3 1.1 3.1 2l-3 3c-.4-.6-1-1-1.6-1.3-.7-.3-1.4-.4-2.1-.4-.8 0-1.5.1-2.2.4-.7.3-1.2.7-1.7 1.2s-.8 1.1-1.1 1.8c-.3.7-.4 1.4-.4 2.3 0 .8.1 1.6.4 2.3.3.7.6 1.3 1.1 1.8.5.5 1 .9 1.7 1.2.6.3 1.3.4 2.1.4.9 0 1.7-.2 2.3-.5.7-.3 1.2-.8 1.6-1.4l3.1 2.9c-.8 1-1.8 1.8-3 2.3m20.3.3l-1.4-3.6h-7.1l-1.4 3.6H38l7.7-18.5H50l7.7 18.5h-5zm21.9 0H61.8v-18.5h12.4v3.8h-8.1v3.5h7.7v3.6h-7.7v3.8h8.6v3.8zm25.6 0h-4.4l-3.7-12.5H92l-3.7 12.5h-4.4l-5.2-18.5h4.8l2.9 12.3h.1l3.3-12.3h4.6l3.3 12.3h.1l3-12.3h4.6l-5.2 18.5z"/><defs><path id="SVGID_5_" d="M0 0h148.6v244.5H0z"/></defs><clipPath id="SVGID_6_"><use xlink:href="#SVGID_5_" overflow="visible"/></clipPath><path class="st3" d="M45.4 229h4.7l-2.3-6.3z"/></svg>