<svg xmlns="http://www.w3.org/2000/svg" viewBox="0 0 574.28 423.38"><defs><style>.cls-1 { fill: none; } .cls-2 { fill: #231f20; } .cls-3 { fill: #fff; }</style></defs><title>logo__c-a-w--black</title><path class="cls-1" d="M0 0h574.28v423.38H0z"/><path class="cls-2" d="M154.42 315.78H501.8v59.3H154.42z"/><path class="cls-3" d="M279.86 358.72v-25.36l-9.34 21h-2.33l-9.51-21v25.36h-2.34V328h2.34l10.71 23.72L279.86 328h2.33v30.77h-2.33zM290.84 348.78c0 5.27 2.37 8.21 6.78 8.21a7.25 7.25 0 0 0 5.75-2.5l1.64 1.29a9.44 9.44 0 0 1-7.52 3.2c-5.75 0-8.86-3.71-8.86-10.67 0-6.7 3.11-10.68 8.34-10.68s8.34 3.81 8.34 10.16v1h-14.47zm11.54-5.7a5.91 5.91 0 0 0-10.8 0 9.61 9.61 0 0 0-.74 3.93h12.27a9.61 9.61 0 0 0-.74-3.93zM338.8 358.72V345.8c0-4-2-6.22-5.75-6.22a5.48 5.48 0 0 0-5.87 5.84v13.31H325V345.8c0-4-2-6.22-5.75-6.22s-5.88 2.29-5.88 6.22v12.92h-2.2v-20.83h2.2v2.46a7.9 7.9 0 0 1 6.18-2.72 7.06 7.06 0 0 1 6.7 3.81 8 8 0 0 1 7.09-3.81 7.16 7.16 0 0 1 7.65 7.78v13.31h-2.19zM361.28 357.17a7.27 7.27 0 0 1-5.1 1.81A6.91 6.91 0 0 1 350 356v2.68h-2.2V328h2.2v12.62a6.91 6.91 0 0 1 6.18-2.94 7.27 7.27 0 0 1 5.1 1.82c2.12 2.12 2.68 5.57 2.68 8.86s-.56 6.64-2.68 8.81zm-5.4-17.59c-5.1 0-5.88 4.41-5.88 8.73s.78 8.73 5.88 8.73 5.87-4.41 5.87-8.73-.75-8.73-5.87-8.73zM370.83 348.78c0 5.27 2.37 8.21 6.78 8.21a7.25 7.25 0 0 0 5.75-2.5l1.64 1.29a9.44 9.44 0 0 1-7.52 3.2c-5.75 0-8.86-3.71-8.86-10.67 0-6.7 3.11-10.68 8.34-10.68s8.34 3.81 8.34 10.16v1h-14.47zm11.54-5.7a5.91 5.91 0 0 0-10.8 0 9.61 9.61 0 0 0-.74 3.93h12.27a9.61 9.61 0 0 0-.73-3.93zM402.85 341.22a4.76 4.76 0 0 0-3.93-1.64c-3.58 0-5.57 2.94-5.57 6.31v12.83h-2.2v-20.83h2.2v2.77a7.14 7.14 0 0 1 6.1-3 6.5 6.5 0 0 1 5 2z"/><path class="cls-2" d="M172.86 189.23a19.06 19.06 0 0 1-13.42-5.17c-5-4.74-5-10.11-5-19.4s-.07-14.65 5-19.41a19.09 19.09 0 0 1 13.42-5.16c9.4 0 16.43 5.22 18.23 14.86h-7.9c-1.22-4.88-4.67-8.27-10.33-8.27a10.52 10.52 0 0 0-7.53 2.92c-2.52 2.57-3.09 5.36-3.09 15.06s.57 12.48 3.09 15.05a10.49 10.49 0 0 0 7.53 2.92c5.67 0 9.18-3.39 10.4-8.27h7.84c-1.73 9.64-8.98 14.87-18.24 14.87zM217 188.82v-21.1c0-5.23-3.21-7.54-7.31-7.54s-7.4 2.38-7.4 7.54v21.1H195v-48.31h7.31v17.37a12.84 12.84 0 0 1 9.4-3.87c8.11 0 12.63 5.17 12.63 12.62v22.19H217zM250.88 188.69v-3.12c-2.65 2.51-5.17 3.52-9.68 3.52s-7.55-1-9.77-3.12a10.19 10.19 0 0 1-2.88-7.39c0-5.78 4.24-9.91 12.58-9.91h9.62v-2.44c0-4.35-2.31-6.44-8-6.44-4 0-6 .88-8 3.32l-4.8-4.26c3.44-3.81 7-5 13.06-5 10 0 15 4 15 11.81v23h-7.17zm-.13-15.19h-8.55c-4.29 0-6.52 1.84-6.52 4.95s2.07 4.88 6.68 4.88c2.78 0 4.86-.2 6.8-2 1.08-1 1.59-2.64 1.59-5.08v-2.75zM282.7 162.49a6.89 6.89 0 0 0-5.46-2.3c-3.94 0-7.25 3-7.25 7.74v20.9h-7.32v-34.4h7.17v3.73c1.87-2.44 5.6-4.14 9.7-4.14a11.59 11.59 0 0 1 8.67 3.26zM305.67 188.82c-6.82 0-10-4.62-10-9.57v-18.92h-4.17V155h4.17v-10.41H303V155h7v5.29h-7v18.59c0 2.51 1.29 4 4 4h3v5.91h-4.37zM320.93 173.63c0 5.9 3.31 9.63 9.26 9.63a11.18 11.18 0 0 0 8.84-3.54l4.66 4.14c-3.74 3.53-7.24 5.37-13.64 5.37-9.12 0-16.37-4.55-16.37-17.64 0-11.14 6.12-17.58 15.44-17.58 9.75 0 15.42 6.79 15.42 16.56v3.05h-23.61zm15.37-9.51a8.15 8.15 0 0 0-14.41 0 10.33 10.33 0 0 0-1 4.69h16.41a10.52 10.52 0 0 0-1-4.69zM368.85 162.49a6.94 6.94 0 0 0-5.46-2.3c-3.94 0-7.24 3-7.24 7.74v20.9h-7.32v-34.4H356v3.73c1.87-2.44 5.6-4.14 9.68-4.14a11.59 11.59 0 0 1 8.68 3.26zM381.33 173.63c0 5.9 3.3 9.63 9.26 9.63a11.15 11.15 0 0 0 8.82-3.54l4.67 4.14c-3.74 3.53-7.25 5.37-13.63 5.37-9.12 0-16.36-4.55-16.36-17.64 0-11.14 6.09-17.58 15.43-17.58 9.75 0 15.42 6.79 15.42 16.56v3.05h-23.61zm15.37-9.51a7.55 7.55 0 0 0-7.18-4.34 7.64 7.64 0 0 0-7.25 4.34 10.55 10.55 0 0 0-.94 4.69h16.36a10.47 10.47 0 0 0-1-4.69zM431.6 188.82v-3.67c-2.73 3.12-5.68 4.08-9.61 4.08a13.08 13.08 0 0 1-8.91-3.06c-3.65-3.45-4.08-9.35-4.08-14.57s.43-11.07 4.08-14.53a12.84 12.84 0 0 1 8.83-3.05c3.87 0 6.88.88 9.55 3.87v-17.38h7.31v48.31h-7.17zm-7.68-28.64c-6.6 0-7.6 5.29-7.6 11.41s1 11.46 7.6 11.46 7.54-5.36 7.54-11.46-.95-11.4-7.55-11.4zM189.93 242.55l-3.52-9.7h-20.16l-3.51 9.7h-8.25l18.73-48.3h6.24l18.73 48.3h-8.25zm-13.42-37.38l-8 21.43h15.73zM214.48 242.95c-8.18 0-16.22-4.74-16.22-17.63s8-17.57 16.22-17.57c5 0 8.54 1.36 12 4.82l-5 4.62c-2.3-2.38-4.09-3.26-6.95-3.26a8.38 8.38 0 0 0-6.74 3c-1.59 1.91-2.17 4.35-2.17 8.35s.57 6.52 2.17 8.42a8.37 8.37 0 0 0 6.74 3c2.86 0 4.65-.88 6.95-3.25l5 4.54a15.35 15.35 0 0 1-12 4.96zM243.93 242.95c-8.17 0-16.22-4.74-16.22-17.63s8-17.57 16.22-17.57c5 0 8.54 1.36 12 4.82l-5 4.62c-2.3-2.38-4.09-3.26-7-3.26a8.42 8.42 0 0 0-6.75 3c-1.57 1.91-2.15 4.35-2.15 8.35s.58 6.52 2.15 8.42a8.41 8.41 0 0 0 6.75 3c2.88 0 4.67-.88 7-3.25l5 4.54a15.34 15.34 0 0 1-12 4.96zM283.83 238.89a15.19 15.19 0 0 1-10.91 4.06 15 15 0 0 1-10.83-4.06c-3.45-3.39-4.31-7.73-4.31-13.57s.87-10.1 4.31-13.5a15 15 0 0 1 10.83-4.07 15.2 15.2 0 0 1 10.91 4.07c3.44 3.4 4.3 7.73 4.3 13.5s-.86 10.18-4.3 13.57zm-5.53-23a7.65 7.65 0 0 0-5.38-2 7.54 7.54 0 0 0-5.32 2c-2.22 2.11-2.51 5.71-2.51 9.43s.29 7.32 2.51 9.43a7.52 7.52 0 0 0 5.32 2 7.63 7.63 0 0 0 5.38-2c2.22-2.11 2.51-5.71 2.51-9.43s-.29-7.32-2.51-9.44zM315 242.55v-3.46a13.38 13.38 0 0 1-9.69 3.86 13 13 0 0 1-9-3.11c-2.8-2.59-3.66-5.83-3.66-9.7v-22H300v21c0 5.36 3.23 7.67 7.33 7.67s7.53-2.37 7.53-7.67v-21h7.31v34.39H315zM348.93 242.55v-21c0-5.37-3.23-7.67-7.33-7.67s-7.52 2.37-7.52 7.67v21h-7.31v-34.39h7.17v3.46a13.41 13.41 0 0 1 9.69-3.87 13 13 0 0 1 9 3.12c2.8 2.57 3.67 5.83 3.67 9.71v22h-7.33zM373.44 242.55c-6.81 0-10-4.61-10-9.57V214h-4.17v-5.28h4.17v-10.41h7.31v10.45h7V214h-7v18.59c0 2.52 1.3 4 4 4h3v5.9h-4.37zM404.3 242.55v-3.12c-2.65 2.51-5.18 3.52-9.68 3.52s-7.55-1-9.77-3.11a10.23 10.23 0 0 1-2.85-7.39c0-5.77 4.22-9.91 12.53-9.91h9.63v-2.44c0-4.34-2.29-6.44-8-6.44-4 0-6 .88-8 3.32l-4.81-4.27c3.44-3.8 7-5 13.06-5 10 0 15 4 15 11.8v23h-7.11zm-.15-15.2h-8.53c-4.29 0-6.53 1.84-6.53 5s2.08 4.88 6.68 4.88c2.78 0 4.86-.21 6.8-2 1.08-1 1.58-2.65 1.58-5.08v-2.79zM438.24 242.55v-21c0-5.37-3.22-7.67-7.32-7.67s-7.53 2.37-7.53 7.67v21h-7.32v-34.39h7.18v3.46a13.43 13.43 0 0 1 9.68-3.87 13 13 0 0 1 9 3.12c2.8 2.57 3.67 5.83 3.67 9.71v22h-7.32zM463.14 242.55c-6.82 0-10-4.61-10-9.57V214H449v-5.28h4.18v-10.41h7.32v10.45h7V214h-7v18.59c0 2.52 1.28 4 4 4h3v5.9h-4.37zM486.66 242.95c-6 0-11-.95-15.29-4.94l4.81-4.56c2.95 2.85 6.88 3.6 10.47 3.6 4.44 0 8-1.49 8-4.75 0-2.31-1.38-3.8-4.88-4.07l-5.81-.47c-6.82-.55-10.77-3.46-10.77-9.5 0-6.72 6.1-10.52 13.7-10.52 5.45 0 10.11 1.08 13.49 3.87l-4.6 4.39c-2.3-1.83-5.52-2.5-9-2.5-4.38 0-6.61 1.83-6.61 4.4 0 2 1.15 3.6 5 3.94l5.74.47c6.81.54 10.84 3.6 10.84 9.71.06 7.21-6.4 10.93-15.09 10.93zM237.22 296.43h-4.8l-10.68-38.53-10.68 38.53h-4.8L194 248.3h5.47l9.4 38.81 10.61-38.81H224l10.61 38.81L244 248.3h5.48zM274.65 293.05a13.89 13.89 0 0 1-19.06 0c-3.38-3.45-4.06-8.11-4.06-13.25s.68-9.8 4.06-13.25a13.9 13.9 0 0 1 19.06 0c3.38 3.45 4.05 8.12 4.05 13.25s-.7 9.81-4.05 13.25zm-3.45-23.53a8.51 8.51 0 0 0-6.08-2.43 8.37 8.37 0 0 0-6 2.43c-2.43 2.43-2.7 6.56-2.7 10.28s.27 7.84 2.7 10.27a8.39 8.39 0 0 0 6 2.43 8.53 8.53 0 0 0 6.08-2.43c2.44-2.43 2.64-6.56 2.64-10.27s-.2-7.8-2.64-10.27zM301.77 269.53a7 7 0 0 0-5.77-2.43c-4.87 0-8 3.85-8 8.92v20.41h-4.87v-33.26H288v4.06c1.82-2.77 5.48-4.46 9.33-4.46a10.25 10.25 0 0 1 8 3.11zM318.25 296.43c-5.81 0-8.44-3.78-8.44-8.85V248.3h4.86v39.07c0 3.24 1.08 4.87 4.46 4.87h2.63v4.19h-3.52zM345.88 296.43v-4c-2.7 3.52-5.81 4.4-9.46 4.4a11.57 11.57 0 0 1-8.11-2.91c-3.38-3.38-4.06-8.92-4.06-14.12s.68-10.75 4.06-14.13a11.58 11.58 0 0 1 8.11-2.91c3.65 0 6.69.81 9.39 4.26V248.3h4.87v48.13h-4.8zm-8.38-29.33c-7.23 0-8.38 6.22-8.38 12.7s1.15 12.71 8.38 12.71 8.31-6.22 8.31-12.71-1.08-12.7-8.31-12.7zM393.53 296.43H389l-8.71-25.82-8.65 25.82h-4.54l-10.54-33.26h5.27l7.64 26.71 8.72-26.71h4.19l8.79 26.71 7.56-26.71H404zM409 253.71v-5.48h5.48v5.48H409zm.28 42.72v-33.26h4.87v33.26h-4.87zM440.76 296.43v-4c-2.7 3.52-5.81 4.4-9.46 4.4a11.57 11.57 0 0 1-8.11-2.91c-3.38-3.38-4.05-8.92-4.05-14.12s.67-10.75 4.05-14.13a11.58 11.58 0 0 1 8.11-2.91c3.65 0 6.69.81 9.4 4.26V248.3h4.86v48.13h-4.8zm-8.37-29.33c-7.24 0-8.38 6.22-8.38 12.7s1.15 12.71 8.38 12.71 8.31-6.22 8.31-12.71-1.08-12.7-8.31-12.7zM454.64 281.09c0 7.3 3.45 11.48 9.8 11.48 3.85 0 6.08-1.15 8.72-3.78l3.31 2.9c-3.38 3.38-6.49 5.14-12.17 5.14-8.78 0-14.53-5.28-14.53-17 0-10.75 5.2-17 13.65-17s13.66 6.22 13.66 16.09v2.24h-22.44zm16.56-9.19a8.54 8.54 0 0 0-15.55 0 14 14 0 0 0-1 5.54h17.58a13.92 13.92 0 0 0-1.03-5.54zM153.6 25zM124.53 137.59a228.92 228.92 0 0 0-38.43 13.89c-22 10.14-35.52 23.55-35.89 30.65.84 8.45 28.46 43.2 74.32 60.1V137.59zM151.8 25C90 37.11 50.14 75 50.14 85.58v83.13c5.91-8.37 18.69-17.91 34.42-25.17a230.42 230.42 0 0 1 41.31-14.68 180.21 180.21 0 0 1 25.77-4.45z"/></svg>