<svg xmlns="http://www.w3.org/2000/svg" viewBox="0 0 408.1 84.6" enable-background="new 0 0 408.1 84.6"><style type="text/css">.st0{fill:#1D1D1B;}</style><title>logo__icaew--text</title><path class="st0" d="M334 82.4l15.9-54.3h.3l15.9 54.3h19.1l22.9-80.2h-20.2L375 55.5h-.3L360.3 2.2h-20.2l-14.3 53.3h-.3L312.8 2.2H292l22.7 80.2zM164.5 23.6l10 27.5h-20.2l10.2-27.5zm-15.8 43h31l6.2 15.8h21.5L174.2 2.1h-18.8l-33.7 80.2h21.1l5.9-15.7zM277.8 65.8h-37.3V49.2h33.3V33.7h-33.3V18.5h35.2V2.2h-53.9v80.2h56zM0 2.2h19.5v80.2H0zM52.2 72.8c3.9 3.8 8.6 6.7 13.7 8.7 5.5 2.1 11.3 3.1 17.2 3.1 6.2.1 12.3-1.1 18-3.6 5-2.2 9.5-5.6 13.1-9.7l-13.5-12.7c-1.8 2.5-4.2 4.5-6.9 5.9-3.1 1.6-6.6 2.4-10.1 2.3-3.2 0-6.3-.6-9.2-1.8-2.7-1.1-5.2-2.8-7.2-5-2.1-2.3-3.7-4.9-4.7-7.8-1.2-3.2-1.7-6.6-1.7-10 0-3.3.5-6.7 1.7-9.8 1.1-2.9 2.7-5.5 4.8-7.8 2.1-2.2 4.5-4 7.3-5.2 3-1.3 6.1-1.9 9.4-1.9 3.1 0 6.2.6 9.1 1.8 2.9 1.1 5.3 3.1 7.1 5.6l13.1-13.1c-3.6-4-8.2-7-13.3-8.8-10.9-4-22.9-4-33.8 0-5.1 1.9-9.8 4.7-13.8 8.4s-7.1 8.3-9.2 13.3c-4.4 11.1-4.5 23.5-.1 34.7 2 5.1 5.1 9.6 9 13.4"/></svg>