<svg xmlns="http://www.w3.org/2000/svg" viewBox="0 0 574.28 423.38"><defs><style>.cls-1 { fill: none; } .cls-2 { fill: #ccbe00; } .cls-3 { fill: #fff; } .cls-4 { fill: #58595b; } .cls-5 { fill: url(#linear-gradient); } .cls-6 { fill: url(#linear-gradient-2); }</style><linearGradient id="linear-gradient" x1="49" y1="173.56" x2="125.25" y2="173.56" gradientUnits="userSpaceOnUse"><stop offset="0" stop-color="#58595b"/><stop offset=".2" stop-color="#5e5f61"/><stop offset=".47" stop-color="#6f7173"/><stop offset=".78" stop-color="#8c8e90"/><stop offset="1" stop-color="#a4a6a9"/></linearGradient><linearGradient id="linear-gradient-2" x1="48.28" y1="101.67" x2="153.53" y2="101.67" gradientUnits="userSpaceOnUse"><stop offset="0" stop-color="#ded268"/><stop offset=".09" stop-color="#d7ca3d"/><stop offset=".18" stop-color="#d1c31c"/><stop offset=".25" stop-color="#cdbf07"/><stop offset=".29" stop-color="#ccbe00"/><stop offset=".38" stop-color="#cdbf07"/><stop offset=".51" stop-color="#d1c31b"/><stop offset=".66" stop-color="#d6c93b"/><stop offset=".81" stop-color="#ddd163"/><stop offset="1" stop-color="#ccbe00"/></linearGradient></defs><title>logo__c-a-w--colour</title><path class="cls-1" d="M0 0h574.28v423.38H0z"/><path class="cls-2" d="M154.42 315.78H501.8v59.3H154.42z"/><path class="cls-3" d="M279.86 358.72v-25.36l-9.34 21h-2.33l-9.51-21v25.36h-2.34V328h2.34l10.71 23.72L279.86 328h2.33v30.77h-2.33zM290.84 348.78c0 5.27 2.37 8.21 6.78 8.21a7.25 7.25 0 0 0 5.75-2.5l1.64 1.29a9.44 9.44 0 0 1-7.52 3.2c-5.75 0-8.86-3.71-8.86-10.67 0-6.7 3.11-10.68 8.34-10.68s8.34 3.81 8.34 10.16v1h-14.47zm11.54-5.7a5.91 5.91 0 0 0-10.8 0 9.61 9.61 0 0 0-.74 3.93h12.27a9.61 9.61 0 0 0-.74-3.93zM338.8 358.72V345.8c0-4-2-6.22-5.75-6.22a5.48 5.48 0 0 0-5.87 5.84v13.31H325V345.8c0-4-2-6.22-5.75-6.22s-5.88 2.29-5.88 6.22v12.92h-2.2v-20.83h2.2v2.46a7.9 7.9 0 0 1 6.18-2.72 7.06 7.06 0 0 1 6.7 3.81 8 8 0 0 1 7.09-3.81 7.16 7.16 0 0 1 7.65 7.78v13.31h-2.19zM361.28 357.17a7.27 7.27 0 0 1-5.1 1.81A6.91 6.91 0 0 1 350 356v2.68h-2.2V328h2.2v12.62a6.91 6.91 0 0 1 6.18-2.94 7.27 7.27 0 0 1 5.1 1.82c2.12 2.12 2.68 5.57 2.68 8.86s-.56 6.64-2.68 8.81zm-5.4-17.59c-5.1 0-5.88 4.41-5.88 8.73s.78 8.73 5.88 8.73 5.87-4.41 5.87-8.73-.75-8.73-5.87-8.73zM370.83 348.78c0 5.27 2.37 8.21 6.78 8.21a7.25 7.25 0 0 0 5.75-2.5l1.64 1.29a9.44 9.44 0 0 1-7.52 3.2c-5.75 0-8.86-3.71-8.86-10.67 0-6.7 3.11-10.68 8.34-10.68s8.34 3.81 8.34 10.16v1h-14.47zm11.54-5.7a5.91 5.91 0 0 0-10.8 0 9.61 9.61 0 0 0-.74 3.93h12.27a9.61 9.61 0 0 0-.73-3.93zM402.85 341.22a4.76 4.76 0 0 0-3.93-1.64c-3.58 0-5.57 2.94-5.57 6.31v12.83h-2.2v-20.83h2.2v2.77a7.14 7.14 0 0 1 6.1-3 6.5 6.5 0 0 1 5 2z"/><path class="cls-4" d="M172.82 189.24a19.08 19.08 0 0 1-13.42-5.16c-5-4.74-5-10.11-5-19.41s-.06-14.65 5-19.4a19.09 19.09 0 0 1 13.42-5.16c9.4 0 16.43 5.22 18.24 14.86h-7.9c-1.22-4.88-4.66-8.28-10.34-8.28a10.49 10.49 0 0 0-7.53 2.92c-2.52 2.57-3.09 5.36-3.09 15.06s.57 12.49 3.09 15.06a10.52 10.52 0 0 0 7.53 2.92c5.67 0 9.18-3.39 10.4-8.28h7.84c-1.73 9.63-8.98 14.87-18.24 14.87zM217 188.83v-21.1c0-5.24-3.22-7.54-7.32-7.54s-7.4 2.38-7.4 7.54v21.1H195v-48.32h7.31v17.37a12.88 12.88 0 0 1 9.4-3.87c8.11 0 12.63 5.16 12.63 12.62v22.19H217zM250.85 188.7v-3.12c-2.64 2.51-5.17 3.52-9.67 3.52s-7.55-1-9.77-3.12a10.2 10.2 0 0 1-2.88-7.4c0-5.78 4.24-9.91 12.58-9.91h9.62v-2.44c0-4.35-2.31-6.44-8-6.44-4 0-6 .88-8 3.31l-4.73-4.24c3.45-3.81 7-5 13.07-5 10 0 15 4 15 11.81v23h-7.17zm-.13-15.2h-8.55c-4.29 0-6.53 1.84-6.53 4.95s2.07 4.88 6.68 4.88c2.78 0 4.86-.2 6.81-2 1.08-1 1.59-2.64 1.59-5.09v-2.74zM282.67 162.49a6.9 6.9 0 0 0-5.45-2.31c-4 0-7.25 3-7.25 7.74v20.9h-7.32v-34.4h7.17v3.74c1.87-2.45 5.6-4.15 9.7-4.15a11.61 11.61 0 0 1 8.68 3.26zM305.65 188.83c-6.83 0-10-4.62-10-9.57v-18.93h-4.18V155h4.18v-10.41H303V155h7v5.3h-7v18.59c0 2.51 1.29 4 4 4h3v5.91h-4.37zM320.91 173.63c0 5.9 3.31 9.63 9.26 9.63a11.2 11.2 0 0 0 8.84-3.53l4.66 4.14c-3.74 3.53-7.25 5.36-13.63 5.36-9.13 0-16.37-4.55-16.37-17.64 0-11.13 6.11-17.58 15.44-17.58 9.75 0 15.42 6.8 15.42 16.56v3.06h-23.62zm15.37-9.51a8.15 8.15 0 0 0-14.41 0 10.24 10.24 0 0 0-1 4.69h16.38a10.43 10.43 0 0 0-.97-4.69zM368.84 162.49a6.93 6.93 0 0 0-5.45-2.31c-3.94 0-7.24 3-7.24 7.74v20.9h-7.32v-34.4H356v3.74c1.87-2.45 5.6-4.15 9.68-4.15a11.59 11.59 0 0 1 8.68 3.26zM381.32 173.63c0 5.9 3.31 9.63 9.26 9.63a11.17 11.17 0 0 0 8.82-3.53l4.67 4.14c-3.74 3.53-7.25 5.36-13.64 5.36-9.11 0-16.36-4.55-16.36-17.64 0-11.13 6.09-17.58 15.44-17.58 9.74 0 15.41 6.8 15.41 16.56v3.06h-23.6zm15.37-9.51a7.54 7.54 0 0 0-7.17-4.35 7.64 7.64 0 0 0-7.26 4.35 10.5 10.5 0 0 0-.94 4.69h16.36a10.39 10.39 0 0 0-.99-4.69zM431.6 188.83v-3.67c-2.72 3.13-5.68 4.08-9.62 4.08a13.08 13.08 0 0 1-8.9-3.06c-3.65-3.45-4.08-9.35-4.08-14.58s.43-11.07 4.08-14.53a12.82 12.82 0 0 1 8.83-3.05c3.87 0 6.88.88 9.55 3.87v-17.38h7.31v48.32h-7.17zm-7.68-28.64c-6.6 0-7.6 5.29-7.6 11.41s1 11.46 7.6 11.46 7.54-5.36 7.54-11.46-.95-11.41-7.55-11.41zM189.89 242.56l-3.51-9.7h-20.17l-3.51 9.7h-8.26l18.73-48.31h6.24l18.73 48.31h-8.25zm-13.42-37.38l-8 21.44h15.73zM214.44 243c-8.18 0-16.22-4.74-16.22-17.63s8-17.57 16.22-17.57c5 0 8.54 1.36 12 4.82l-5 4.62c-2.29-2.38-4.1-3.26-6.95-3.26a8.37 8.37 0 0 0-6.74 3c-1.59 1.91-2.17 4.35-2.17 8.35s.57 6.52 2.17 8.41a8.36 8.36 0 0 0 6.74 3.05c2.85 0 4.65-.88 6.95-3.26l5 4.54a15.36 15.36 0 0 1-12 4.93zM243.9 243c-8.17 0-16.22-4.74-16.22-17.63s8.05-17.57 16.22-17.57c5 0 8.54 1.36 12 4.82l-5 4.62c-2.3-2.38-4.09-3.26-7-3.26a8.4 8.4 0 0 0-6.74 3c-1.57 1.91-2.15 4.35-2.15 8.35s.58 6.52 2.15 8.41a8.39 8.39 0 0 0 6.74 3.05c2.88 0 4.66-.88 7-3.26l5 4.54a15.36 15.36 0 0 1-12 4.93zM283.81 238.9a15.19 15.19 0 0 1-10.92 4.1 15 15 0 0 1-10.83-4.06c-3.44-3.39-4.31-7.73-4.31-13.57s.87-10.1 4.31-13.51a15 15 0 0 1 10.83-4.06 15.23 15.23 0 0 1 10.91 4.06c3.44 3.4 4.3 7.74 4.3 13.51s-.85 10.14-4.29 13.53zm-5.54-23a7.62 7.62 0 0 0-5.38-2 7.51 7.51 0 0 0-5.31 2c-2.22 2.11-2.52 5.71-2.52 9.43s.29 7.33 2.52 9.43a7.53 7.53 0 0 0 5.31 2 7.64 7.64 0 0 0 5.38-2c2.23-2.1 2.52-5.7 2.52-9.43s-.29-7.33-2.52-9.43zM315 242.56v-3.46a13.38 13.38 0 0 1-9.69 3.86 13 13 0 0 1-9-3.11c-2.8-2.59-3.67-5.84-3.67-9.7v-22H300v21c0 5.37 3.23 7.67 7.33 7.67s7.53-2.37 7.53-7.67v-21h7.32v34.4H315zM348.91 242.56v-21c0-5.37-3.23-7.67-7.33-7.67s-7.52 2.37-7.52 7.67v21h-7.32v-34.4h7.17v3.46a13.4 13.4 0 0 1 9.69-3.86 13 13 0 0 1 9 3.12c2.8 2.58 3.67 5.84 3.67 9.71v22h-7.33zM373.44 242.56c-6.81 0-10-4.61-10-9.57v-18.93h-4.14v-5.29h4.17v-10.45h7.31v10.46h7v5.29h-7v18.6c0 2.51 1.3 4 4 4h3v5.9h-4.38zM404.29 242.56v-3.12c-2.65 2.51-5.18 3.52-9.68 3.52s-7.55-1-9.78-3.11a10.25 10.25 0 0 1-2.86-7.39c0-5.78 4.23-9.91 12.54-9.91h9.63v-2.45c0-4.34-2.29-6.44-8-6.44-4 0-5.95.88-8 3.32l-4.81-4.28c3.44-3.79 7-4.94 13.06-4.94 10 0 15 4 15 11.8v23h-7.17zm-.15-15.2h-8.54c-4.3 0-6.53 1.83-6.53 5s2.08 4.88 6.68 4.88c2.78 0 4.87-.21 6.81-2 1.08-1 1.58-2.65 1.58-5.08v-2.79zM438.24 242.56v-21c0-5.37-3.22-7.67-7.32-7.67s-7.53 2.37-7.53 7.67v21h-7.33v-34.4h7.18v3.46a13.43 13.43 0 0 1 9.69-3.86 13 13 0 0 1 9 3.12c2.8 2.58 3.67 5.84 3.67 9.71v22h-7.33zM463.14 242.56c-6.82 0-10-4.61-10-9.57v-18.93H449v-5.29h4.18v-10.45h7.31v10.46h7v5.29h-7v18.6c0 2.51 1.29 4 4 4h3v5.9h-4.38zM486.67 243c-6 0-11-.94-15.29-4.94l4.82-4.56c2.95 2.86 6.89 3.61 10.48 3.61 4.44 0 8-1.49 8-4.75 0-2.31-1.39-3.8-4.89-4.07l-5.81-.47c-6.82-.54-10.77-3.46-10.77-9.5 0-6.72 6.1-10.52 13.71-10.52 5.45 0 10.12 1.08 13.5 3.86l-4.63 4.34c-2.3-1.83-5.53-2.5-9-2.5-4.38 0-6.61 1.83-6.61 4.4 0 2 1.15 3.6 5 3.94l5.74.47c6.81.54 10.84 3.6 10.84 9.71.06 7.22-6.41 10.98-15.09 10.98z"/><path class="cls-2" d="M237.19 296.45h-4.8l-10.68-38.54L211 296.45h-4.8l-12.31-48.14h5.48l9.39 38.81 10.62-38.81H224l10.62 38.81 9.4-38.81h5.47zM274.63 293.08a13.91 13.91 0 0 1-19.07 0c-3.38-3.45-4.06-8.12-4.06-13.25s.67-9.8 4.06-13.25a13.9 13.9 0 0 1 19.07 0c3.38 3.45 4.05 8.11 4.05 13.25s-.68 9.8-4.05 13.25zm-3.45-23.53a8.53 8.53 0 0 0-6.08-2.43 8.35 8.35 0 0 0-6 2.43c-2.44 2.43-2.71 6.56-2.71 10.28s.27 7.84 2.71 10.28a8.34 8.34 0 0 0 6 2.43 8.52 8.52 0 0 0 6.08-2.43c2.43-2.43 2.64-6.56 2.64-10.28s-.21-7.83-2.64-10.28zM301.75 269.55a7 7 0 0 0-5.75-2.43c-4.87 0-8 3.85-8 8.92v20.42h-4.87v-33.27H288v4.06c1.82-2.77 5.48-4.46 9.33-4.46a10.24 10.24 0 0 1 8 3.11zM318.24 296.45c-5.81 0-8.45-3.78-8.45-8.86v-39.27h4.87v39.08c0 3.24 1.08 4.87 4.46 4.87h2.64v4.19h-3.52zM345.87 296.45v-4c-2.71 3.51-5.82 4.39-9.46 4.39a11.6 11.6 0 0 1-8.12-2.91c-3.38-3.38-4.05-8.92-4.05-14.13s.68-10.75 4.05-14.13a11.59 11.59 0 0 1 8.12-2.91c3.64 0 6.68.81 9.39 4.26v-18.7h4.87v48.14h-4.8zm-8.38-29.34c-7.23 0-8.39 6.22-8.39 12.71s1.15 12.71 8.39 12.71 8.31-6.22 8.31-12.71-1.08-12.71-8.31-12.71zM393.53 296.45H389l-8.71-25.82-8.65 25.82h-4.53l-10.55-33.26h5.28l7.63 26.7 8.72-26.7h4.19l8.79 26.7 7.57-26.7H404zM409 253.73v-5.48h5.47v5.48H409zm.27 42.72v-33.26h4.87v33.26h-4.87zM440.77 296.45v-4c-2.7 3.51-5.81 4.39-9.46 4.39a11.57 11.57 0 0 1-8.11-2.91c-3.38-3.38-4.05-8.92-4.05-14.13s.68-10.75 4.05-14.13a11.56 11.56 0 0 1 8.11-2.91c3.65 0 6.7.81 9.4 4.26v-18.7h4.87v48.14h-4.8zm-8.38-29.34c-7.24 0-8.38 6.22-8.38 12.71s1.14 12.71 8.38 12.71 8.31-6.22 8.31-12.71-1.08-12.71-8.31-12.71zM454.64 281.11c0 7.3 3.45 11.49 9.81 11.49 3.85 0 6.08-1.14 8.72-3.78l3.31 2.91c-3.38 3.38-6.49 5.14-12.16 5.14-8.8 0-14.54-5.27-14.54-17 0-10.75 5.21-17 13.66-17s13.65 6.22 13.65 16.09v2.23h-22.45zm16.56-9.19a8.54 8.54 0 0 0-15.55 0 14 14 0 0 0-1 5.54h17.58a13.87 13.87 0 0 0-1.02-5.54z"/><path class="cls-5" d="M48.31 179.18c0 8.53 28.6 45.93 78 63.21V105.11c-40.97-5.65-78 53.89-78 74.07z"/><path class="cls-6" d="M48.31 179.18c0-8.88 16-22.91 37-32.59 19.42-9 43-17 68.24-19.12V24.15C91 35.74 48.28 74.43 48.28 87v92.21"/></svg>