<svg xmlns="http://www.w3.org/2000/svg" viewBox="0 0 56 56" enable-background="new 0 0 56 56"><style type="text/css">.st0{fill:#D00016;} .st1{fill:#E2DEDC;}</style><title>icon94 - themify</title><desc>Created with Sketch.</desc><path class="st0" d="M6.2 11.3c-.3.3-.5.7-.7 1 .2-.4.4-.7.7-1zM30.9 55.3h-.1c0 .1.1 0 .1 0zM28 .5h.9-.9zM28 55.5h1.1H28zM45 49.6c-.5.4-1 .7-1.5 1.1.6-.4 1.1-.8 1.5-1.1zM42.9 51.1c-.5.3-1.1.7-1.7 1 .7-.3 1.2-.7 1.7-1zM40.6 52.4c-.5.2-.9.5-1.4.7.5-.2.9-.4 1.4-.7zM3.2 16.2l.3-.6-.3.6z"/><path class="st1" d="M5.6 37.4c1.3 2.9 3 5.5 5.2 7.7s4.8 3.9 7.7 5.2 6.1 1.9 9.5 1.9c3.3 0 6.4-.6 9.4-1.9 3-1.3 5.5-3 7.7-5.2 2.1-2.2 3.9-4.7 5.2-7.7 1.3-2.9 2-6.1 1.9-9.5.1-3.4-.6-6.5-1.9-9.5-1.3-2.9-3.1-5.5-5.2-7.7s-4.7-3.9-7.7-5.2-6.1-1.9-9.4-1.9c-3.4 0-6.6.6-9.5 1.9s-5.5 3-7.7 5.2-4 4.7-5.2 7.7c-1.3 2.9-1.9 6.1-2 9.5.1 3.4.8 6.6 2 9.5zm27.7-23.5l2.4 2.3L23.8 28l11.9 11.8-2.4 2.3L19.2 28l14.1-14.1z"/><path class="st0" d="M3.9 14.7c.3-.6.7-1.2 1.1-1.8-.4.6-.7 1.2-1.1 1.8zM55.5 27.8c0-5.6-1.8-10.8-4.7-15.1 1 1.4 1.8 3 2.5 4.6 1.4 3.3 2.1 6.8 2.2 10.5zM47.5 47.3c4.9-4.9 7.9-11.7 7.9-19.1-.1 3.7-.8 7.2-2.2 10.5-1.3 3.2-3.2 6.1-5.7 8.6zM.5 27.8v.4-.4zM30.1 55.4c-.3 0-.5 0-.8.1.3 0 .5-.1.8-.1zM49.3 10.7c.4.5.9 1.1 1.3 1.7-.4-.6-.8-1.2-1.3-1.7zM29.4.5h.3c-.1.1-.2 0-.3 0zM47.6 8.8c.4.5.9.9 1.3 1.4-.4-.5-.8-1-1.3-1.4zM39.1 2.8c.6.3 1.1.5 1.7.8-.6-.2-1.1-.5-1.7-.8zM41.1 3.8c2.2 1.2 4.2 2.7 6.1 4.5-1.8-1.8-3.9-3.3-6.1-4.5zM47.1 47.8c-.4.4-.9.8-1.3 1.2.4-.4.9-.8 1.3-1.2z"/><path d="M5 12.9c-.4.6-.7 1.2-1.1 1.8-.2.3-.3.6-.5.9l-.3.6c-.2.4-.4.7-.6 1.1C1 20.5.3 24.1.4 27.8v.4c-.1 3.7.6 7.3 2.1 10.5 1.6 3.4 3.5 6.3 6 8.8s5.4 4.5 8.8 5.9c3.3 1.4 6.9 2.1 10.6 2.1H29.3c.3 0 .5 0 .8-.1.2 0 .5 0 .7-.1h.1c2.7-.3 5.3-.9 7.7-1.9l.6-.3c.5-.2 1-.4 1.4-.7.2-.1.5-.2.7-.4.6-.3 1.1-.6 1.7-1 .2-.1.4-.3.6-.4.5-.3 1-.7 1.5-1.1.2-.2.5-.4.7-.6.4-.4.9-.8 1.3-1.2l.3-.3c.1-.1.1-.1.1-.2 2.4-2.6 4.4-5.4 5.8-8.6 1.4-3.2 2.1-6.8 2.2-10.5v-.4c-.1-3.7-.8-7.1-2.2-10.5-.7-1.7-1.5-3.2-2.5-4.6-.1-.1-.1-.2-.2-.3-.4-.6-.8-1.1-1.3-1.7-.1-.2-.3-.3-.4-.5-.4-.5-.8-1-1.3-1.4-.1-.1-.2-.2-.2-.3-.1-.1-.2-.1-.2-.2-1.9-1.8-3.9-3.3-6.1-4.5-.1 0-.2-.1-.3-.1-.5-.3-1.1-.6-1.7-.8-.2-.1-.3-.2-.5-.2-2.8-1.2-5.7-1.9-8.9-2H27.9c-3.7 0-7.2.7-10.6 2.1C13.9 4 11 6 8.5 8.5c-.8.9-1.6 1.8-2.3 2.8-.3.3-.5.7-.7 1-.2.2-.3.4-.5.6zm5.8-2.2c2.2-2.2 4.8-3.9 7.7-5.2s6.1-1.9 9.5-1.9c3.3 0 6.4.6 9.4 1.9s5.6 3 7.7 5.2c2.1 2.2 3.9 4.8 5.2 7.7 1.3 3 2 6.1 1.9 9.5.1 3.4-.6 6.6-1.9 9.5-1.3 3-3.1 5.5-5.2 7.7-2.2 2.2-4.7 3.9-7.7 5.2-3 1.3-6.1 1.9-9.4 1.9-3.4 0-6.6-.6-9.5-1.9s-5.5-3-7.7-5.2-3.9-4.8-5.2-7.7c-1.2-2.9-1.9-6.1-2-9.5.1-3.4.7-6.6 2-9.5 1.2-3 3-5.5 5.2-7.7zM35.7 39.8L23.8 28l11.9-11.8-2.4-2.3L19.2 28l14.1 14.1z"/></svg>