<svg xmlns="http://www.w3.org/2000/svg" xmlns:xlink="http://www.w3.org/1999/xlink" width="55.1" height="55" viewBox="0 0 55.1 55"><style type="text/css">.st0{clip-path:url(#SVGID_2_);} .st1{clip-path:url(#SVGID_4_);}</style><title>icon94 - themify</title><desc>Created with Sketch.</desc><defs><path id="SVGID_1_" d="M3.3 27.5c0 3.4.6 6.5 1.9 9.5 1.3 2.9 3 5.5 5.2 7.7s4.7 3.9 7.7 5.2c2.9 1.3 6.1 1.9 9.5 1.9s6.5-.6 9.5-1.9c2.9-1.3 5.5-3 7.7-5.2S48.7 40 50 37c1.3-2.9 1.9-6.1 1.9-9.5s-.7-6.5-2-9.5c-1.3-2.9-3-5.5-5.2-7.7S40 6.4 37 5.1c-2.9-1.3-6.1-1.9-9.5-1.9s-6.5.7-9.4 2c-2.9 1.3-5.5 3-7.7 5.2s-3.9 4.7-5.2 7.7c-1.3 2.9-1.9 6-1.9 9.4zm-3.2 0c0-3.8.7-7.4 2.1-10.7 1.4-3.3 3.4-6.2 5.9-8.8 2.5-2.5 5.4-4.5 8.8-5.9C20.2.7 23.8 0 27.6 0c3.8 0 7.4.7 10.7 2.1 3.3 1.4 6.2 3.4 8.8 5.9 2.5 2.5 4.5 5.4 5.9 8.8 1.4 3.3 2.1 6.9 2.1 10.7s-.7 7.4-2.1 10.7c-1.4 3.3-3.4 6.2-5.9 8.8-2.5 2.5-5.4 4.5-8.8 5.9C35 54.3 31.4 55 27.6 55s-7.4-.7-10.7-2.1c-3.3-1.4-6.2-3.4-8.8-5.9s-4.5-5.4-5.9-8.8C.8 34.9.1 31.3.1 27.5zm19.8 11.8l11.8-11.8-11.8-11.8 2.3-2.3 14.2 14.1-14.2 14.1-2.3-2.3z"/></defs><clipPath id="SVGID_2_"><use xlink:href="#SVGID_1_" overflow="visible"/></clipPath><g class="st0"><defs><path id="SVGID_3_" d="M-1343.9-932.6h1580v1472h-1580z"/></defs><clipPath id="SVGID_4_"><use xlink:href="#SVGID_3_" overflow="visible"/></clipPath><path class="st1" d="M-4.9-5h65v65h-65z"/></g></svg>