<svg xmlns="http://www.w3.org/2000/svg" xmlns:xlink="http://www.w3.org/1999/xlink" width="3000" height="23.298" viewBox="0 0 3000 23.29845" enable-background="new 0 0 3000 23.29845"><style type="text/css">.st0{fill:#FFFFFF;} .st1{fill:#CCCCCC;} .st2{fill:#E30613;} .st3{display:none;} .st4{display:inline;} .st5{clip-path:url(#SVGID_2_);fill:#E30613;} .st6{clip-path:url(#SVGID_4_);fill:#E30613;}</style><g id="Layer_1"><path class="st0" d="M1520.4.183h-40.8l20.4 20.5z"/><path class="st1" d="M1479.526.1H0v.1h1479.625zM3000 .1H1520.448l-.1.1H3000z"/><path class="st2" d="M1520.537.036c-.054-.05-.138-.048-.19.007L1500 20.515 1479.65.042c-.05-.053-.134-.056-.188-.005-.054.05-.057.135-.008.19l19.63 22.68.016.02.004.003.004.005c.242.254.568.363.89.35.326.013.653-.096.893-.35l.006-.005.003-.003c.006-.007.01-.015.016-.02l19.63-22.68h-.002c.05-.055.048-.14-.007-.19z"/></g><g class="st4" id="dividers_masked"><defs><path id="SVGID_1_" d="M1499.104 22.93l.004.005c.44.464 1.172.487 1.64.048.47-.44.497-1.174.067-1.647l-.005-.006-.003-.004-.02-.018L1479.652.042c-.05-.053-.134-.056-.188-.005-.054.05-.057.135-.008.19l19.63 22.68.016.02.004.003"/></defs><clipPath id="SVGID_2_"><use xlink:href="#SVGID_1_" overflow="visible"/></clipPath><path class="st5" d="M1471.353 24.827l3.736-30.42 33.973 4.172-3.736 30.418z"/><defs><path id="SVGID_3_" d="M1499.19 21.33l-.006.006c-.43.473-.4 1.208.067 1.647.47.44 1.2.416 1.64-.048l.006-.005.003-.003c.006-.007.01-.015.016-.02l19.63-22.68h-.002c.05-.055.048-.14-.007-.19-.054-.05-.138-.05-.19.006l-21.135 21.265-.02.018c0 .002-.002.003-.003.004"/></defs><clipPath id="SVGID_4_"><use xlink:href="#SVGID_3_" overflow="visible"/></clipPath><path class="st6" d="M1490.95-1.417l33.972-4.172 3.735 30.42-33.973 4.172z"/></g></svg>