<svg xmlns="http://www.w3.org/2000/svg" width="32" height="32" viewBox="8 -8 32 32" enable-background="new 8 -8 32 32"><g fill="#4D4D4D"><path d="M16.4 5.2c.2.2 1 .7 2.2 1.5s2.1 1.5 2.8 1.9c.1.1.2.2.4.3.2.2.4.3.6.4.2.1.3.2.5.3l.6.3c.2.1.3.1.5.1s.3 0 .5-.1l.6-.3c.2-.1.4-.2.5-.3.2-.1.3-.2.6-.4s.4-.3.4-.3c.7-.5 2.4-1.6 5-3.4.5-.4.9-.8 1.3-1.3.3-.5.5-1 .5-1.6 0-.5-.2-.9-.5-1.2-.3-.3-.7-.5-1.2-.5H16.3c-.5 0-1 .2-1.2.5-.3.4-.4.8-.4 1.4 0 .4.2.9.6 1.4.3.6.7 1 1.1 1.3zM32.4 6.3c-2.3 1.6-4 2.8-5.2 3.6-.4.3-.7.5-1 .7-.2.2-.6.3-1 .5s-.8.3-1.2.3c-.4 0-.7-.1-1.2-.3-.4-.2-.7-.3-1-.5-.2-.2-.6-.4-1-.7-.9-.7-2.7-1.9-5.2-3.6-.4-.3-.8-.6-1.1-.9v8.3c0 .5.2.9.5 1.2.3.3.7.5 1.2.5h15.5c.5 0 .9-.2 1.2-.5.3-.3.5-.7.5-1.2V5.4c-.3.3-.6.6-1 .9z"/></g></svg>