<svg xmlns="http://www.w3.org/2000/svg" width="32" height="32" viewBox="8 -8 32 32" enable-background="new 8 -8 32 32"><g fill="#4D4D4D"><path d="M25.8 10.9c1.2-.5 2.2-1.2 2.9-2.1.7-.9 1.1-1.9 1.1-2.9s-.4-2-1.1-2.9C28 2 27.1 1.3 25.8.8c-1.2-.5-2.6-.8-4-.8s-2.8.3-4 .8c-1.2.5-2.1 1.2-2.8 2.1s-1.1 1.9-1.1 2.9c0 .9.3 1.7.8 2.5s1.3 1.5 2.2 2c-.1.2-.2.3-.2.5-.1.2-.2.3-.3.4l-.3.3c0 .2-.1.3-.3.5l-.3.3v.1s0 .1-.1.1v.6c0 .1.1.2.1.2.1.1.1.1.2.1.4-.1.7-.1 1-.2 1.2-.3 2.2-.8 3.1-1.4.7.1 1.3.2 2 .2 1.5-.4 2.8-.6 4-1.1zm-6.3-1l-.5.4c-.2.1-.4.3-.7.4l.4-1-1.1-.6c-.7-.4-1.3-.9-1.7-1.5s-.6-1.2-.6-1.8c0-.8.3-1.5.9-2.2.6-.7 1.4-1.2 2.4-1.6 1-.4 2.1-.6 3.2-.6s2.2.2 3.2.6c1 .4 1.8.9 2.4 1.6.6.7.9 1.4.9 2.2S28 7.3 27.4 8c-.6.7-1.4 1.2-2.4 1.6s-2.1.6-3.2.6c-.6 0-1.1-.1-1.7-.2l-.6-.1zM33.3 11.3c.5-.8.8-1.6.8-2.5s-.3-1.8-.8-2.6c-.6-.8-1.3-1.5-2.3-2 .2.6.3 1.1.3 1.7 0 1-.3 2-.8 2.9-.5.9-1.2 1.7-2.2 2.4-.9.6-1.9 1.1-3 1.5-1.1.3-2.3.5-3.5.5h-1c1.5 1 3.3 1.5 5.3 1.5.6 0 1.3-.1 2-.2.9.7 2 1.1 3.1 1.4.3.1.6.1 1 .2.1 0 .2 0 .2-.1.1-.1.1-.1.1-.2v-.6l-.1-.1V15l-.3-.3c-.1-.1-.2-.3-.3-.3-.1-.1-.1-.2-.3-.3-.1-.1-.2-.3-.3-.4-.1-.2-.2-.3-.2-.5 1.1-.5 1.8-1.1 2.3-1.9z"/></g></svg>