<svg xmlns="http://www.w3.org/2000/svg" width="32" height="32" viewBox="8 -8 32 32" enable-background="new 8 -8 32 32"><path fill="#fff" d="M32.7 10c.1-.6.2-1.2.2-1.9 0-4.9-3.9-8.8-8.8-8.8-.5 0-1 0-1.5.1-.8-.5-1.7-.8-2.7-.8-2.8 0-5.1 2.3-5.1 5.1 0 .9.3 1.8.7 2.6-.1.6-.2 1.2-.2 1.8 0 4.9 3.9 8.8 8.8 8.8.5 0 1.1-.1 1.6-.1.7.4 1.5.6 2.4.6 2.8 0 5.1-2.3 5.1-5.1 0-.9-.2-1.6-.5-2.3zm-4.1 2.3c-.4.6-1 1-1.8 1.4-.8.3-1.7.5-2.7.5-1.3 0-2.3-.2-3.2-.7-.6-.3-1.1-.8-1.4-1.3-.4-.5-.6-1.1-.6-1.6 0-.3.1-.6.4-.8.2-.2.5-.3.9-.3.3 0 .6.1.8.3.2.2.4.4.5.8.2.4.3.7.5.9.2.2.4.4.7.6.3.2.7.2 1.3.2.7 0 1.3-.2 1.8-.5.4-.3.7-.7.7-1.1 0-.3-.1-.6-.3-.8-.2-.2-.6-.4-.9-.5-.4-.1-.9-.3-1.6-.4-.9-.2-1.7-.4-2.3-.7-.6-.3-1.1-.6-1.5-1.1-.4-.5-.6-1.1-.6-1.8s.2-1.3.6-1.8c.4-.5 1-.9 1.7-1.2.6-.4 1.5-.5 2.4-.5.8 0 1.5.1 2.1.3.6.2 1.1.4 1.5.7.4.3.7.6.9 1 .2.3.3.7.3 1 0 .3-.1.6-.4.8-.2.2-.5.4-.9.4-.3 0-.6-.1-.8-.2-.2-.1-.3-.4-.5-.7-.2-.4-.5-.7-.8-1-.3-.2-.8-.3-1.5-.3-.6 0-1.1.1-1.5.4-.4.1-.6.4-.6.7 0 .2.1.4.2.5.1.2.3.3.5.4.2.1.5.2.7.3.2.1.7.2 1.2.3.7.1 1.4.3 1.9.5.6.2 1.1.4 1.5.7.4.3.8.6 1 1s.4.9.4 1.5c0 .9-.2 1.5-.6 2.1z"/></svg>