<svg xmlns="http://www.w3.org/2000/svg" width="32" height="32" viewBox="8 -8 32 32" enable-background="new 8 -8 32 32"><path fill="#4D4D4D" d="M33.2 2.3c-.7.3-1.4.5-2.2.6.8-.5 1.4-1.2 1.7-2.1-.7.4-1.5.7-2.4.9C29.6 1 28.6.5 27.5.5c-2.1 0-3.8 1.7-3.8 3.8 0 .3 0 .6.1.9-3.2-.2-5.9-1.7-7.8-4-.3.6-.5 1.2-.5 1.9 0 1.3.7 2.5 1.7 3.2-.6 0-1.2-.2-1.7-.5 0 1.8 1.3 3.4 3 3.7-.3.1-.7.1-1 .1-.2 0-.5 0-.7-.1.5 1.5 1.9 2.6 3.5 2.6-1.3 1-2.9 1.6-4.7 1.6-.3 0-.6 0-.9-.1 1.7 1.1 3.7 1.7 5.8 1.7 7 0 10.8-5.8 10.8-10.8V4c.8-.3 1.4-1 1.9-1.7z"/></svg>