<svg xmlns="http://www.w3.org/2000/svg" xmlns:xlink="http://www.w3.org/1999/xlink" width="32" height="32" viewBox="6 -6 32 32" enable-background="new 6 -6 32 32"><defs><path id="a" d="M30.7 6c-.1 1.7-1.3 4-3.6 7-2.4 3.1-4.4 4.6-6 4.6-1 0-1.9-.9-2.6-2.8-.5-1.7-.9-3.4-1.4-5.2-.5-1.9-1.1-2.8-1.7-2.8-.1 0-.6.3-1.4.8l-.8-1.1c.9-.7 1.8-1.5 2.6-2.3 1.1-1 2-1.5 2.6-1.6 1.4-.1 2.2.8 2.5 2.8.3 2.1.6 3.5.7 4 .4 1.8.8 2.7 1.3 2.7.4 0 .9-.6 1.6-1.7.7-1.1 1.1-2 1.2-2.6.1-1-.3-1.5-1.2-1.5-.4 0-.9.1-1.3.3.9-2.8 2.5-4.1 4.9-4.1 1.9 0 2.7 1.2 2.6 3.5"/></defs><use xlink:href="#a" overflow="visible" fill-rule="evenodd" clip-rule="evenodd" fill="#4D4D4D"/><clipPath id="b"><use xlink:href="#a" overflow="visible"/></clipPath><g clip-path="url(#b)"><defs><path id="c" d="M-659.1-2475.6h909.4V897.7h-909.4z"/></defs><use xlink:href="#c" overflow="visible" fill="#4D4D4D"/><clipPath id="d"><use xlink:href="#c" overflow="visible"/></clipPath><path clip-path="url(#d)" fill="#4D4D4D" d="M10.4-.4h23.2v20.8H10.4z"/></g></svg>