<svg xmlns="http://www.w3.org/2000/svg" width="17" height="17" viewBox="0 0 17 17"><title>alarm-clock</title><path fill="#fff" d="M14.714 6.79c.504-.51.786-1.18.786-1.902 0-1.503-1.223-2.726-2.725-2.726-.886 0-1.695.434-2.207 1.15-.5-.155-1.026-.25-1.568-.287V2h1V1H7v1h1v1.025c-.542.038-1.067.132-1.568.287-.512-.717-1.32-1.15-2.207-1.15-1.502 0-2.725 1.223-2.725 2.726 0 .723.282 1.392.786 1.903-.5.963-.786 2.053-.786 3.21 0 1.707.616 3.27 1.635 4.487L1.85 16.2l.8.6 1.192-1.59C5.082 16.32 6.71 17 8.5 17s3.42-.68 4.658-1.79l1.192 1.59.8-.6-1.285-1.713C14.885 13.27 15.5 11.707 15.5 10c0-1.157-.287-2.247-.786-3.21zm-1.94-3.628c.952 0 1.726.774 1.726 1.726 0 .373-.12.724-.335 1.017-.678-.936-1.58-1.694-2.63-2.202.322-.34.762-.54 1.24-.54zM2.5 4.888c0-.95.774-1.726 1.725-1.726.478 0 .918.202 1.24.54-1.05.508-1.95 1.267-2.63 2.202C2.62 5.61 2.5 5.26 2.5 4.888zM8.5 16c-3.31 0-6-2.69-6-6s2.69-6 6-6 6 2.69 6 6-2.69 6-6 6zm.5-6h4v1H8V7h1v3z"/></svg>