<svg xmlns="http://www.w3.org/2000/svg" width="17" height="17" viewBox="0 0 17 17"><title>anchor</title><path fill="#fff" d="M15.29 12.592l-1.57-3.127-3.126 1.568.448.895 1.87-.94c-.372 1.908-1.955 3.366-3.912 3.586V7h1.5V6H9V4.95c1.14-.233 2-1.242 2-2.45C11 1.12 9.878 0 8.5 0S6 1.12 6 2.5c0 1.208.86 2.217 2 2.45V6H6.5v1H8v7.574c-1.955-.22-3.538-1.676-3.912-3.58l1.86.934.448-.895L3.27 9.465 1.7 12.592l.893.45.65-1.3c.694 2.246 2.788 3.883 5.257 3.883 2.464 0 4.556-1.63 5.252-3.867l.645 1.283.894-.448zM7 2.5C7 1.673 7.673 1 8.5 1s1.5.673 1.5 1.5S9.327 4 8.5 4 7 3.327 7 2.5z"/></svg>