<svg xmlns="http://www.w3.org/2000/svg" width="17" height="17" viewBox="0 0 17 17"><title>apple</title><path fill="#fff" d="M14 11.125c-.468-.674-.703-1.44-.703-2.278 0-.776.225-1.482.664-2.115.246-.357.634-.756 1.166-1.205-.347-.43-.706-.777-1.063-1.022-.634-.44-1.358-.664-2.176-.664-.5 0-1.093.124-1.767.348-.675.235-1.165.348-1.46.348-.237 0-.707-.102-1.412-.307-.715-.205-1.308-.307-1.808-.307-1.176 0-2.136.49-2.9 1.47-.767.992-1.155 2.26-1.155 3.822 0 1.675.51 3.38 1.5 5.14C3.898 16.11 4.91 17 5.962 17c.338 0 .788-.112 1.35-.348.553-.224 1.042-.337 1.45-.337.42 0 .94.102 1.543.327.614.214 1.083.327 1.43.327.87 0 1.748-.666 2.627-2.004.592-.89 1-1.747 1.256-2.554-.602-.183-1.144-.612-1.615-1.287zm-.477 3.293c-.657 1-1.293 1.552-1.79 1.552-.147 0-.46-.047-1.08-.264-.694-.26-1.33-.39-1.893-.39-.54 0-1.155.138-1.838.415-.58.244-.865.27-.96.27-.63 0-1.413-.762-2.205-2.137-.923-1.64-1.372-3.16-1.372-4.648 0-1.336.31-2.387.942-3.206.58-.742 1.25-1.087 2.113-1.087.4 0 .902.088 1.53.267 1.05.305 1.443.346 1.688.346.425 0 1.01-.132 1.777-.4.59-.195 1.077-.295 1.45-.295.61 0 1.135.16 1.61.49.066.046.135.098.204.155-.23.236-.415.46-.563.677-.56.806-.843 1.71-.843 2.686 0 1.048.297 2.006.884 2.85.354.505.748.908 1.182 1.206-.217.5-.498 1.006-.837 1.514zm-4.1-10.454c-.234.072-.58.133-1.06.174.02-1.01.285-1.89.796-2.625C9.67.776 10.526.276 11.713 0c.02.092.04.164.05.225 0 .07.01.132.01.204 0 .418-.1.888-.295 1.39-.205.51-.522.98-.952 1.41-.368.366-.736.61-1.104.734z"/></svg>