<svg xmlns="http://www.w3.org/2000/svg" width="17" height="17" viewBox="0 0 17 17"><title>basketball</title><path fill="#fff" d="M8.516 0C3.83 0 .016 3.813.016 8.5S3.83 17 8.516 17s8.5-3.813 8.5-8.5S13.202 0 8.516 0zm4.473 8c.097-1.46.614-2.855 1.496-4.02.86 1.133 1.404 2.515 1.504 4.02h-3zm3 1c-.1 1.505-.644 2.888-1.505 4.02-.88-1.165-1.398-2.56-1.495-4.02h3zm-2.164-5.79C12.732 4.58 12.093 6.25 11.99 8H9V1.024c1.88.122 3.574.93 4.826 2.185zM8 1.025V8H5.04c-.102-1.752-.74-3.42-1.834-4.79C4.45 1.96 6.133 1.153 8 1.025zM1.04 8c.1-1.505.645-2.888 1.506-4.02C3.426 5.143 3.943 6.54 4.04 8h-3zm3 1c-.097 1.462-.612 2.856-1.494 4.02C1.686 11.89 1.14 10.506 1.04 9h3zm-.835 4.79C4.3 12.42 4.938 10.753 5.04 9H8v6.974c-1.867-.128-3.55-.934-4.795-2.183zM9 15.977V9h2.99c.103 1.75.742 3.42 1.835 4.792-1.252 1.255-2.946 2.062-4.825 2.184z"/></svg>