<svg xmlns="http://www.w3.org/2000/svg" width="17" height="17" viewBox="0 0 17 17"><title>book</title><path fill="#fff" d="M16.592 1.152c-.053-.01-1.32-.244-2.98-.244-2.106 0-3.83.366-5.126 1.088C6.968 1.23 5.222.844 3.29.844c-1.68 0-2.866.302-2.915.315L0 1.256v13.906l.625-.16c.01-.003 1.12-.284 2.665-.284 1.447 0 2.77.24 3.96.702v.828h2.5v-.856c1.28-.488 2.747-.61 3.86-.61 1.562 0 2.786.224 2.798.226l.592.11V1.23l-.408-.078zM1 13.907V2.05c.45-.085 1.277-.206 2.29-.206 1.76 0 3.34.36 4.71 1.044v11.776c-1.403-.617-2.977-.945-4.71-.945-.97 0-1.773.1-2.29.187zm15 .03c-.536-.07-1.393-.153-2.39-.153-1.848 0-3.38.298-4.61.855V2.865c1.422-.78 3.27-.958 4.61-.958 1.023 0 1.902.097 2.39.164v11.866z"/></svg>