<svg xmlns="http://www.w3.org/2000/svg" width="17" height="17" viewBox="0 0 17 17"><title>clip</title><path fill="#fff" d="M12.02 4.234v8.498h-1V4.234c0-1.09-.798-2.266-2.553-2.266-1.94 0-2.46 1.424-2.46 2.266v8.12h.008v1.458c0 .62.693 1.206 1.426 1.206.845 0 1.568-.683 1.568-1.24v-.27h-.003l.008-7.618c0-.874-.247-.874-.466-.874-.37 0-.547.035-.547.823v5.145H7V5.84c0-.452 0-1.824 1.547-1.824.67 0 1.466.325 1.466 1.875l-.007 6.43h.002v1.458c0 1.173-1.224 2.24-2.567 2.24-1.29 0-2.425-1.03-2.425-2.205v-.074h-.007V4.233C5.008 2.66 6.09.968 8.468.968c2.332 0 3.553 1.643 3.553 3.266z"/></svg>