<svg xmlns="http://www.w3.org/2000/svg" width="17" height="17" viewBox="0 0 17 17"><title>cloud-down</title><path fill="#fff" d="M17 6.75C17 9.093 15.094 11 12.75 11H9.993v-1h2.757C14.542 10 16 8.542 16 6.75S14.542 3.5 12.75 3.5c-.532 0-1.057.14-1.56.417l-.354.195-.265-.306C9.853 2.976 8.824 2.5 7.75 2.5c-1.66 0-3.1 1.08-3.576 2.688l-.126.422-.435-.072c-.12-.02-.238-.038-.363-.038C2.01 5.5 1 6.51 1 7.75S2.01 10 3.25 10h3.7v1h-3.7C1.458 11 0 9.542 0 7.75c0-1.826 1.51-3.335 3.353-3.248C4.066 2.69 5.783 1.5 7.75 1.5c1.234 0 2.42.494 3.31 1.367.545-.244 1.112-.367 1.69-.367C15.094 2.5 17 4.407 17 6.75zm-8 6.98V6H8v7.73l-1.646-1.646-.707.707L8.5 15.645l2.854-2.854-.707-.707L9 13.73z"/></svg>