<svg xmlns="http://www.w3.org/2000/svg" width="17" height="17" viewBox="0 0 17 17"><title>cloud</title><path fill="#fff" d="M12.75 4.5c-.578 0-1.146.123-1.69.367C10.17 3.994 8.983 3.5 7.75 3.5c-1.966 0-3.684 1.19-4.397 3.002C1.55 6.428 0 7.922 0 9.75 0 11.542 1.458 13 3.25 13h9.5C15.093 13 17 11.093 17 8.75S15.093 4.5 12.75 4.5zm0 7.5h-9.5C2.01 12 1 10.99 1 9.75S2.01 7.5 3.25 7.5c.125 0 .244.02.363.038l.435.072.126-.422C4.652 5.58 6.09 4.5 7.75 4.5c1.073 0 2.102.477 2.82 1.307l.266.306.354-.195c.503-.277 1.027-.418 1.56-.418C14.542 5.5 16 6.958 16 8.75S14.542 12 12.75 12z"/></svg>