<svg xmlns="http://www.w3.org/2000/svg" width="17" height="17" viewBox="0 0 17 17"><title>cup</title><path fill="#fff" d="M17 1H14.74c0-.168.008-.328.008-.5V0H2.25v.5c0 .16.004.333.005.5H0v.5c-.003 1.085.062 2.198.195 3.31.352 2.936 1.27 6.34 2.795 7.086.194.096.395.144.596.144.238 0 .48-.068.707-.206l.21-.14c.832 1.277 1.97 2.14 3.497 2.298V16H5.047v1h7v-1H9v-1.997c1.415-.15 2.585-.935 3.493-2.312l.234.156c.216.13.447.194.68.194.202 0 .405-.048.603-.145 1.524-.746 2.443-4.15 2.795-7.087.133-1.11.198-2.224.195-3.31V1zM3.987 10.834l-.23.154c-.11.066-.203.07-.327.01-.784-.385-1.807-2.675-2.242-6.31-.108-.9-.17-1.8-.184-2.688h1.273c.097 2.924.513 6.468 1.792 8.956l-.082-.122zM8.5 13.04C3.96 13.04 3.3 4.99 3.253 1h10.494c-.05 4.72-.838 12.04-5.247 12.04zm7.312-8.35c-.436 3.633-1.458 5.923-2.243 6.308-.124.06-.217.058-.31.003l-.25-.166-.115.174c1.08-2.038 1.707-5.066 1.83-9.008h1.272c-.016.887-.077 1.79-.185 2.69z"/></svg>