<svg xmlns="http://www.w3.org/2000/svg" width="17" height="17" viewBox="0 0 17 17"><title>dribbble</title><path fill="#fff" d="M8.5 0C3.806 0 0 3.806 0 8.5S3.806 17 8.5 17 17 13.194 17 8.5 13.194 0 8.5 0zm7.494 8.62c-2.075-.455-3.896-.422-5.47-.09-.25-.628-.535-1.274-.848-1.93 1.68-.65 3.292-1.587 4.548-2.935C15.33 4.973 16 6.66 16 8.5c0 .04-.006.08-.006.12zm-2.47-5.673c-1.16 1.257-2.69 2.135-4.298 2.74-.76-1.468-1.69-2.96-2.814-4.385C7.076 1.11 7.775 1 8.5 1c1.934 0 3.692.742 5.023 1.947zM5.43 1.665C6.563 3.062 7.492 4.55 8.258 6.018c-2.974.92-5.966 1.028-7.114 1.03.474-2.407 2.104-4.4 4.286-5.383zM1 8.5c0-.15.014-.3.022-.45.065.002.134.002.212.002 1.306 0 4.402-.125 7.482-1.114.3.625.578 1.245.82 1.844-3.605 1.1-5.736 3.705-6.513 4.826C1.773 12.268 1 10.475 1 8.5zm2.758 5.804c.596-.9 2.6-3.518 6.145-4.57.96 2.598 1.405 4.744 1.566 5.65-.912.395-1.915.616-2.97.616-1.798 0-3.45-.637-4.742-1.696zm8.642.59c-.198-1.063-.636-3.042-1.503-5.405 1.444-.28 3.11-.29 5.008.144-.34 2.226-1.658 4.13-3.505 5.26z"/></svg>