<svg xmlns="http://www.w3.org/2000/svg" width="17" height="17" viewBox="0 0 17 17"><title>game</title><path fill="#fff" d="M9 3.988V1H8v2.988c-3.564.105-8 1.282-8 2.487v7.04c0 .828.673 1.5 1.5 1.5h1.79l1.996-3.93c.567.104 1.713.274 3.173.274 1.478 0 2.693-.175 3.287-.278l1.908 3.934H15.5c.827 0 1.5-.673 1.5-1.5v-7.04c0-1.206-4.437-2.384-8-2.488zm7 9.528c0 .275-.225.5-.5.5h-1.218l-1.976-4.07-.386.085c-.015.004-1.515.33-3.462.33-1.94 0-3.315-.323-3.33-.327l-.383-.093-2.068 4.075H1.5c-.275 0-.5-.225-.5-.5V6.6c.502-.437 3.38-1.518 7-1.61V5h1v-.013c3.62.094 6.498 1.175 7 1.612v6.916zM5 7.02h.998v1H5v1.02H4V8.02H3v-1h1V6h1v1.02zm7.5 2c.827 0 1.5-.673 1.5-1.5s-.673-1.5-1.5-1.5-1.5.672-1.5 1.5.673 1.5 1.5 1.5zm0-2c.275 0 .5.225.5.5s-.225.5-.5.5-.5-.225-.5-.5.225-.5.5-.5z"/></svg>