<svg xmlns="http://www.w3.org/2000/svg" width="17" height="17" viewBox="0 0 17 17"><title>github</title><path fill="#fff" d="M13.077 11.115c0 .746-.39 1.962-1.308 1.962s-1.31-1.216-1.31-1.962c0-.745.39-1.962 1.31-1.962s1.307 1.217 1.307 1.962zM5.23 9.153c-.918 0-1.307 1.217-1.307 1.962s.39 1.962 1.308 1.962 1.31-1.216 1.31-1.962c0-.745-.39-1.962-1.31-1.962zM17 9.317c0 1.135-.112 2.34-.623 3.382-1.35 2.727-5.057 2.992-7.713 2.992-2.697 0-6.63-.234-8.03-2.993C.112 11.666 0 10.45 0 9.316c0-1.492.41-2.9 1.39-4.045-.184-.562-.276-1.155-.276-1.738 0-.766.173-1.53.52-2.227 1.615 0 2.647.705 3.873 1.665 1.032-.245 2.094-.357 3.157-.357.96 0 1.93.103 2.86.327 1.217-.95 2.248-1.635 3.842-1.635.348.695.52 1.46.52 2.227 0 .583-.09 1.165-.275 1.717C16.593 6.406 17 7.826 17 9.318zm-2.29 1.798c0-1.563-.948-2.942-2.614-2.942-.674 0-1.317.123-1.992.215-.53.082-1.062.112-1.604.112s-1.073-.03-1.604-.112c-.664-.092-1.318-.215-1.992-.215-1.665 0-2.615 1.38-2.615 2.942 0 3.126 2.86 3.606 5.352 3.606H9.36c2.492.002 5.35-.48 5.35-3.605z"/></svg>