<svg xmlns="http://www.w3.org/2000/svg" width="17" height="17" viewBox="0 0 17 17"><title>hand-drag</title><path fill="#fff" d="M13.963 5.6v5.844c0 .777-.383 1.24-.663 1.58-.234.283-.356.442-.356.693V15.5c0 .276-.224.5-.5.5s-.5-.224-.5-.5v-1.783c0-.623.325-1.016.586-1.33.242-.294.434-.525.434-.942V5.6c0-.312-.268-.606-.55-.606-.33 0-.4.05-.403.053-.065.09-.063.57-.062.956 0 .19.002.4-.002.632-.004.274-.213.478-.504.493-.274-.002-.496-.225-.496-.5v-2.12c0-.307-.222-.538-.516-.538-.27 0-.468.2-.492.488V6.46c0 .277-.224.5-.5.5s-.5-.223-.5-.5V4.45l-.002-.01v-.773c0-.066-.014-.642-.474-.642-.45 0-.518.402-.518.642v.703c0 .028-.01.054-.016.08v2.595c0 .276-.224.5-.5.5s-.5-.224-.5-.5V4.36c-.048-.193-.188-.39-.466-.39-.286 0-.527.262-.527.57v3.35c0 .008-.006.014-.006.02v1.102c0 .276-.225.5-.5.5s-.5-.224-.5-.5v-.834c-.177-.064-.432-.116-.578-.083-.118.023-.237.127-.31.27-.06.114-.14.348-.01.638L5.73 12.72c.016.035.027.07.035.108.056.275.312.456.588.43.14-.017.28.03.387.126s.166.23.166.372V15.5c0 .276-.224.5-.5.5s-.5-.224-.5-.5v-1.286c-.536-.14-.97-.56-1.107-1.125L3.12 9.413c-.22-.496-.207-1.043.032-1.507.214-.413.588-.71 1-.793.21-.043.495-.03.776.026v-.72c0-.01.005-.02.006-.03V4.54c0-.865.686-1.57 1.527-1.57.2 0 .393.04.567.113.2-.644.733-1.057 1.433-1.057.668 0 1.192.422 1.39 1.06.177-.074.372-.115.578-.115.69 0 1.258.445 1.447 1.073.183-.04.37-.05.536-.05.843 0 1.553.736 1.553 1.607z"/></svg>