<svg xmlns="http://www.w3.org/2000/svg" width="17" height="17" viewBox="0 0 17 17"><title>hand-stop</title><path fill="#fff" d="M14 4.403v7.258c0 .857-.337 1.868-.635 2.76-.18.537-.365 1.092-.365 1.33v.75c0 .276-.224.5-.5.5s-.5-.224-.5-.5v-.75c0-.4.184-.95.417-1.647.26-.78.583-1.75.583-2.442V4.404c0-.275-.206-.483-.478-.483-.278 0-.512.21-.52.468 0 .003-.003.006-.003.01v3.86c0 .275-.224.5-.5.5s-.5-.225-.5-.5V4.17L11 4.157V2.75c0-.232-.14-.483-.446-.483-.274 0-.528.21-.544.45 0 .013-.01.025-.012.04v4.48c0 .275-.224.5-.5.5s-.5-.224-.5-.5V2.34c0-.022.01-.042.013-.063v-.795c0-.26-.24-.482-.525-.482-.28 0-.497.21-.497.482v.866c.003.015.01.028.01.044v4.896c0 .276-.224.5-.5.5s-.5-.224-.5-.5V2.696c0-.004-.003-.007-.004-.01-.033-.24-.248-.42-.5-.42-.28 0-.505.218-.505.484v5.705c0 .208-.127.394-.32.467-.192.073-.414.02-.552-.135L4 7.533c-.392-.46-.655-.31-.752-.255-.116.065-.2.17-.232.297-.032.12-.014.248.05.357l3.292 7.01c.046.072.158.154.294.187.225.053.382.254.382.485v.885c0 .276-.224.5-.5.5s-.5-.224-.5-.5v-.546c-.23-.128-.423-.314-.56-.545L2.184 8.4c-.18-.3-.236-.7-.135-1.082.102-.387.353-.71.705-.91.676-.38 1.422-.206 2 .468l.237.266V2.75c0-.818.675-1.483 1.505-1.483.174 0 .343.03.5.085C7.064.595 7.707 0 8.487 0c.802 0 1.46.604 1.522 1.367.17-.064.355-.1.547-.1.81 0 1.446.65 1.446 1.483v.262c.163-.06.338-.09.52-.09C13.35 2.92 14 3.57 14 4.4z"/></svg>