<svg xmlns="http://www.w3.org/2000/svg" width="17" height="17" viewBox="0 0 17 17"><title>hand-point-down</title><path fill="#fff" d="M13.753 11.303c-.956.577-1.702-.173-1.982-.454l-.26-.283v4.898c0 .847-.674 1.535-1.504 1.535S8.5 16.312 8.5 15.465V13.14c-.16.06-.335.09-.516.09-.79 0-1.44-.628-1.496-1.423-.158.06-.328.09-.505.09-.83 0-1.505-.69-1.505-1.537v-.136c-.145.05-.3.075-.463.075-.835 0-1.515-.69-1.515-1.536V5.578c0-.67.322-1.555.606-2.335.185-.507.394-1.082.394-1.31V1.08c0-.276.224-.5.5-.5s.5.224.5.5v.855c0 .404-.2.955-.454 1.652-.256.703-.546 1.5-.546 1.993v3.186c0 .29.236.535.516.535.292 0 .454-.263.463-.52.01-.27.23-.483.5-.483h.008c.272.005.49.228.49.5v1.562c0 .295.228.536.506.536.264 0 .484-.22.502-.5.016-.27.235-.47.514-.468.27.01.484.23.484.5v1.268c0 .295.225.535.5.535.26 0 .487-.2.52-.46.035-.26.268-.464.53-.435.262.017.467.235.467.5v3.63c0 .295.228.535.506.535s.505-.24.505-.535v-6.18c0-.206.127-.39.32-.466.188-.076.408-.025.55.126l1.113 1.21c.46.463.607.374.748.288.247-.146.332-.484.19-.74l-3.29-7.098c-.052-.09-.163-.178-.296-.21-.222-.057-.378-.256-.378-.486v-.832c0-.276.224-.5.5-.5s.5.224.5.5v.5c.233.133.428.33.564.573l3.288 7.1c.393.693.148 1.63-.565 2.053z"/></svg>