<svg xmlns="http://www.w3.org/2000/svg" width="17" height="17" viewBox="0 0 17 17"><title>hand-open</title><path fill="#fff" d="M15.242 5.42l-1.188 8.064c-.118.612-.39.88-.586 1.076-.19.19-.318.316-.318.933V16.5c0 .276-.224.5-.5.5s-.5-.224-.5-.5v-1.007c0-.955.278-1.31.614-1.642.155-.153.248-.246.304-.533l1.185-8.04c.018-.122.05-.54-.273-.584-.112-.016-.203.002-.275.057-.096.07-.164.21-.188.378l-.497 3.316c-.025.17-.138.316-.296.385s-.34.05-.484-.05c-.05.008-.134-.023-.218-.078-.152-.097-.24-.268-.23-.448l.286-5.286c.023-.278-.17-.51-.432-.532-.127-.012-.25.028-.346.11-.098.08-.156.195-.167.32l-.463 4.782c-.026.27-.24.464-.53.45-.082-.004-.164-.01-.247-.01-.27-.006-.485-.223-.49-.49l-.115-6.12c0-.268-.21-.478-.468-.478s-.468.21-.468.468l-.118 6.586c-.004.19-.114.362-.286.443-.062.03-.122.06-.18.092-.146.083-.325.086-.475.007s-.25-.227-.268-.395l-.515-5.33c-.01-.13-.07-.244-.166-.325S6.116 2.43 6 2.437c-.127.012-.24.07-.32.168s-.12.218-.11.343l.504 7.097c.016.218-.113.422-.317.5-.206.08-.438.018-.573-.154L3.634 8.44c-.204-.34-.563-.435-.84-.274-.137.08-.234.205-.274.356-.04.15-.02.308.06.443l3.53 6.087c.08.14.21.236.366.274.224.054.382.255.382.486v.69c0 .276-.224.5-.5.5s-.5-.224-.5-.5v-.35c-.254-.137-.465-.34-.614-.598l-3.53-6.087c-.213-.366-.27-.793-.16-1.202.108-.41.37-.752.74-.965.757-.437 1.727-.177 2.163.58l.506.633-.39-5.482c-.033-.382.087-.764.34-1.066.25-.3.607-.485.998-.52.398-.036.776.087 1.078.34.146.123.263.27.35.43l.014-.752C7.352.658 8.012 0 8.82 0s1.468.66 1.468 1.47l.014.745c.088-.163.206-.31.353-.434.303-.253.688-.375 1.078-.34.81.072 1.412.79 1.34 1.6l-.052.977.082-.066c.288-.215.637-.3 1.018-.247.785.11 1.248.816 1.122 1.717z"/></svg>