<svg xmlns="http://www.w3.org/2000/svg" width="17" height="17" viewBox="0 0 17 17"><title>hand-point-up</title><path fill="#fff" d="M14.5 8.236v3.186c0 .67-.322 1.555-.606 2.335-.185.507-.394 1.082-.394 1.31v.855c0 .276-.224.5-.5.5s-.5-.224-.5-.5v-.855c0-.404.2-.955.454-1.652.256-.702.546-1.498.546-1.992V8.236c0-.29-.236-.535-.516-.535-.292 0-.454.263-.463.52-.008.273-.208.508-.507.483-.272-.005-.49-.228-.49-.5V6.64c0-.295-.228-.536-.506-.536-.264 0-.484.22-.502.5-.017.27-.228.485-.515.468-.27-.01-.484-.23-.484-.5V5.305c0-.295-.224-.535-.5-.535-.26 0-.487.202-.52.46-.035.26-.263.462-.53.435-.262-.017-.467-.235-.467-.5v-3.63C7.5 1.24 7.27 1 6.993 1s-.505.24-.505.535v6.18c0 .206-.127.39-.32.466s-.41.025-.55-.126l-1.113-1.21c-.46-.463-.607-.375-.748-.288-.247.146-.332.484-.19.74l3.29 7.098c.052.09.164.178.296.21.223.058.378.257.378.486v.832c0 .276-.224.5-.5.5s-.5-.224-.5-.5v-.5c-.233-.133-.427-.33-.565-.573L2.68 7.75c-.393-.693-.147-1.63.565-2.053.96-.575 1.703.173 1.982.454l.26.283V1.535C5.49.688 6.164 0 6.993 0S8.5.688 8.5 1.535V3.86c.16-.058.335-.09.516-.09.79 0 1.44.63 1.496 1.424.158-.06.328-.09.505-.09.83 0 1.505.69 1.505 1.537v.137c.145-.05.3-.075.463-.075.835 0 1.515.688 1.515 1.534z"/></svg>