<svg xmlns="http://www.w3.org/2000/svg" width="17" height="17" viewBox="0 0 17 17"><title>headphone</title><path fill="#fff" d="M15.98 8.085C15.79 3.592 12.513 0 8.5 0S1.21 3.592 1.02 8.085C.43 8.285 0 8.84 0 9.5v4c0 .827.67 1.5 1.494 1.5H3v-1h1V9H3V8h-.978c.225-3.902 3.04-7 6.478-7s6.253 3.098 6.478 7H14v1h-1v5h1v1h1.506C16.33 15 17 14.327 17 13.5v-4c0-.66-.43-1.214-1.02-1.415zM2 14h-.506C1.222 14 1 13.775 1 13.5v-4c0-.275.222-.5.494-.5H2v5zm14-.5c0 .275-.222.5-.494.5H15V9h.506c.272 0 .494.225.494.5v4z"/></svg>