<svg xmlns="http://www.w3.org/2000/svg" width="17" height="17" viewBox="0 0 17 17"><title>help</title><path fill="#fff" d="M10.31 14.83c0 .9-.73 1.63-1.628 1.63-.902 0-1.63-.73-1.63-1.63 0-.9.728-1.63 1.63-1.63.898 0 1.63.73 1.63 1.63zM11.67 2.374C11.156 1.728 10.224.96 8.685.96 4.587.96 4.44 4.716 4.44 4.754l1 .026c.002-.114.11-2.82 3.245-2.82 1.14 0 1.825.562 2.2 1.034.554.7.7 1.508.623 1.833-.29 1.23-1.01 1.877-1.773 2.563-.935.84-1.9 1.71-1.9 3.558h1c0-1.402.692-2.026 1.57-2.815.803-.724 1.714-1.544 2.076-3.078.15-.634-.082-1.76-.812-2.682z"/></svg>