<svg xmlns="http://www.w3.org/2000/svg" width="17" height="17" viewBox="0 0 17 17"><title>joomla</title><path fill="#fff" d="M9.98 12.01l-1.574 1.584-.312.312c-.917.906-2.198 1.22-3.364.927-.22.96-1.074 1.667-2.094 1.667C1.46 16.5.5 15.54.5 14.354c0-1.01.698-1.864 1.646-2.082-.302-1.178.01-2.47.927-3.386l.125-.125 1.573 1.585-.113.114c-.52.51-.51 1.342 0 1.862.51.51 1.344.51 1.854 0l.314-.312 1.573-1.584 1.677-1.666 1.573 1.584L9.98 12.01zM8.22 3.366L6.635 4.947l-.126-.125c-.51-.51-1.344-.51-1.854 0s-.51 1.355 0 1.865l3.552 3.552-1.572 1.582-1.677-1.667-1.574-1.582-.313-.312c-.96-.947-1.25-2.312-.886-3.53C1.23 4.52.52 3.666.52 2.645.52 1.458 1.48.5 2.658.5c1.073 0 1.948.78 2.114 1.792 1.157-.27 2.418.053 3.324.947l.125.125zm6.405 1.406c.344 1.198.04 2.542-.906 3.49l-.126.125L12.02 6.8l.126-.123c.51-.51.51-1.345 0-1.855s-1.344-.51-1.854 0L6.73 8.386 5.145 6.802l1.677-1.667 1.583-1.582.302-.313c.948-.947 2.302-1.25 3.51-.895C12.365 1.302 13.26.5 14.345.5c1.177 0 2.136.96 2.136 2.146 0 1.083-.813 1.98-1.855 2.125zm-.26 11.73c-1.042 0-1.907-.74-2.105-1.72-1.208.375-2.594.085-3.552-.874l-.114-.125 1.573-1.582.125.124c.51.51 1.344.51 1.854 0s.51-1.343 0-1.854l-.312-.313-3.25-3.25 1.582-1.583 3.25 3.25.303.313c.905.906 1.228 2.188.936 3.354 1.042.145 1.844 1.03 1.844 2.113 0 1.188-.958 2.147-2.136 2.147z"/></svg>