<svg xmlns="http://www.w3.org/2000/svg" width="17" height="17" viewBox="0 0 17 17"><title>layout-sidebar-right</title><path fill="#fff" d="M17 0v17h-5V0h5zM9 17h1v-1H9v1zm-1.777 0h.89v-1h-.89v1zM1.89 17h.888v-1h-.89v1zm1.777 0h.89v-1h-.89v1zm1.778 0h.89v-1h-.89v1zM0 17h1v-1H0v1zm0-8h1V8H0v1zm0-6h1V2H0v1zm0 8h1v-1H0v1zm0-4h1V6H0v1zm0 6h1v-1H0v1zm0 2h1v-1H0v1zM0 5h1V4H0v1zm0-4h1V0H0v1zm8.11-1h-.888v1h.89V0zM6.334 0h-.89v1h.89V0zM2.777 0H1.89v1h.888V0zm1.778 0h-.888v1h.89V0zM9 1h1V0H9v1zm0 14h1v-1H9v1zm0-2h1v-1H9v1zm0-4h1V8H9v1zm0 2h1v-1H9v1zm0-6h1V4H9v1zm0 2h1V6H9v1zm0-4h1V2H9v1z"/></svg>