<svg xmlns="http://www.w3.org/2000/svg" width="17" height="17" viewBox="0 0 17 17"><title>layout-sidebar-left</title><path fill="#fff" d="M0 0h5v17H0V0zm7 17h1v-1H7v1zm7.222 0h.89v-1h-.89v1zm-1.778 0h.89v-1h-.89v1zM8.89 17h.888v-1h-.89v1zm1.777 0h.89v-1h-.89v1zM16 17h1v-1h-1v1zm0-14h1V2h-1v1zm0 12h1v-1h-1v1zm0-8h1V6h-1v1zm0-2h1V4h-1v1zm0 4h1V8h-1v1zm0 2h1v-1h-1v1zm0 2h1v-1h-1v1zm0-13v1h1V0h-1zm-1.777 1h.89V0h-.89v1zm-1.778 0h.89V0h-.89v1zm-1.778 0h.89V0h-.89v1zM8.89 1h.888V0h-.89v1zM7 1h1V0H7v1zm0 14h1v-1H7v1zm0-2h1v-1H7v1zm0-6h1V6H7v1zm0 4h1v-1H7v1zm0-6h1V4H7v1zm0-2h1V2H7v1zm0 6h1V8H7v1z"/></svg>