<svg xmlns="http://www.w3.org/2000/svg" width="17" height="17" viewBox="0 0 17 17"><title>light-bulb</title><path fill="#fff" d="M8.5 0C5.468 0 3 2.617 3 5.833c0 2.354.964 3.67 1.814 4.83.637.87 1.186 1.62 1.186 2.674v2.096C6 16.297 6.673 17 7.5 17h2c.827 0 1.5-.703 1.5-1.567v-2.126c0-1.045.517-1.735 1.17-2.61.815-1.09 1.83-2.446 1.83-4.864C14 2.617 11.532 0 8.5 0zm1 16h-2c-.275 0-.5-.254-.5-.567V13.8h3v1.633c0 .313-.225.567-.5.567zm1.87-5.9c-.588.784-1.19 1.592-1.337 2.7H6.96c-.15-1.102-.753-1.927-1.34-2.727C4.825 8.985 4 7.86 4 5.833 4 3.168 6.02 1 8.5 1S13 3.168 13 5.833c0 2.085-.83 3.194-1.63 4.266z"/></svg>