<svg xmlns="http://www.w3.org/2000/svg" width="17" height="17" viewBox="0 0 17 17"><title>medall</title><path fill="#fff" d="M8.5 0c-2.757 0-5 2.243-5 5 0 1.375.555 2.66 1.562 3.616.085.082.18.154.276.226l.103.078c.18.14.37.257.56.37v7.21l2.48-1.9L11 16.5V9.29c.19-.113.38-.23.56-.37l.103-.078c.096-.072.19-.144.276-.226C12.944 7.66 13.5 6.376 13.5 5c0-2.757-2.243-5-5-5zM10 14.493l-1.526-1.15L7 14.472v-4.225c.482.167.986.252 1.5.252s1.018-.085 1.5-.252v4.245zm1.25-6.6c-.058.054-.122.1-.186.146l-.123.093c-1.444 1.135-3.437 1.134-4.88 0l-.124-.094c-.064-.048-.128-.094-.185-.148C4.945 7.125 4.5 6.1 4.5 5c0-2.206 1.794-4 4-4s4 1.794 4 4c0 1.1-.444 2.125-1.25 2.892zm-.3-4.38l.184.983-1.823.34 1.147 1.938-.86.51-1.088-1.836-1.09 1.835-.86-.51 1.152-1.94-1.776-.337.186-.982L8 3.87V2h1v1.878l1.95-.364z"/></svg>