<svg xmlns="http://www.w3.org/2000/svg" width="17" height="17" viewBox="0 0 17 17"><title>microphone-alt</title><path fill="#fff" d="M11.614 7.02c.688-.753 1.12-1.746 1.12-2.846 0-2.335-1.9-4.234-4.234-4.234s-4.234 1.9-4.234 4.234c0 1.1.432 2.093 1.12 2.847L6.523 15H8v1.984h1V15h1.477l1.137-7.98zM6 2.148V4h1V1.326c.31-.164.643-.28 1-.336V5h1V.99c.357.056.69.172 1 .336V4h1V2.147c.452.557.734 1.256.734 2.026 0 1.784-1.45 3.235-3.234 3.235s-3.234-1.45-3.234-3.234c0-.77.282-1.47.734-2.027zM7.39 14l-.87-6.104c.594.316 1.26.513 1.98.513s1.386-.198 1.98-.515L9.61 14H7.39z"/></svg>