<svg xmlns="http://www.w3.org/2000/svg" width="17" height="17" viewBox="0 0 17 17"><title>microphone</title><path fill="#fff" d="M8.5 12c2.48 0 4.5-2.02 4.5-4.5v-3C13 2.19 11.244.303 9 .05V0H8v.05C5.756.304 4 2.19 4 4.5v3C4 9.98 6.02 12 8.5 12zM6 2.06V4h1V1.352c.312-.15.646-.25 1-.3V4h1V1.05c.354.052.688.152 1 .302V4h1V2.06c.617.63 1 1.49 1 2.44V5H5v-.5c0-.95.383-1.81 1-2.44zM5 6h7v1.5c0 1.93-1.57 3.5-3.5 3.5S5 9.43 5 7.5V6zm10 1v3.25c0 2.067-2.02 3.75-4.5 3.75H9v3H8v-3H6.5C4.02 14 2 12.317 2 10.25V7h1v3.25C3 11.767 4.57 13 6.5 13h4c1.93 0 3.5-1.233 3.5-2.75V7h1z"/></svg>