<svg xmlns="http://www.w3.org/2000/svg" width="17" height="17" viewBox="0 0 17 17"><title>notepad</title><path fill="#fff" d="M1 0v17h15V0H1zm14 16H2V1h2v1.092C3.42 2.3 3 2.85 3 3.5 3 4.327 3.673 5 4.5 5S6 4.327 6 3.5c0-.65-.42-1.2-1-1.408V1h3v1.092C7.42 2.3 7 2.85 7 3.5 7 4.327 7.673 5 8.5 5S10 4.327 10 3.5c0-.65-.42-1.2-1-1.408V1h3v1.092c-.58.207-1 .757-1 1.408 0 .827.673 1.5 1.5 1.5S14 4.327 14 3.5c0-.65-.42-1.2-1-1.408V1h2v15zM5 3.5c0 .275-.225.5-.5.5S4 3.775 4 3.5s.225-.5.5-.5.5.225.5.5zm4 0c0 .275-.225.5-.5.5S8 3.775 8 3.5s.225-.5.5-.5.5.225.5.5zm4 0c0 .275-.225.5-.5.5s-.5-.225-.5-.5.225-.5.5-.5.5.225.5.5z"/></svg>