<svg xmlns="http://www.w3.org/2000/svg" width="17" height="17" viewBox="0 0 17 17"><title>paint-bucket</title><path fill="#fff" d="M16.7 9.818L7.834.894l-.134.133C7.03.367 6.146 0 5.205 0c-.95 0-1.842.37-2.513 1.04S1.65 2.605 1.65 3.556c0 .94.367 1.825 1.028 2.493L.47 8.258C.167 8.56 0 8.962 0 9.39c0 .43.166.83.467 1.13l4.81 4.86c.303.3.705.468 1.132.468.428 0 .83-.168 1.132-.47l5.558-5.56h3.6zM2.65 3.554c0-.682.267-1.323.75-1.806C3.883 1.266 4.523 1 5.205 1c.675 0 1.307.262 1.787.734L3.386 5.34c-.473-.48-.735-1.112-.735-1.786zM6.834 14.67c-.113.114-.265.178-.425.178s-.31-.062-.422-.174L2.35 11h8.154l-3.67 3.67zm4.67-4.67H1.36l-.184-.186C1.062 9.7 1 9.55 1 9.39s.063-.31.177-.426L7.83 2.31l6.47 6.51h-1.615L11.505 10zm4.185 1.96l-.407-.605-.417.598c-.32.457-1.363 2.01-1.363 2.798 0 .966.785 1.75 1.75 1.75S17 15.716 17 14.75c0-.782-1.004-2.334-1.312-2.79zm-.438 3.54c-.413 0-.75-.337-.75-.75 0-.24.35-.92.766-1.59.4.67.734 1.348.734 1.59 0 .413-.337.75-.75.75z"/></svg>