<svg xmlns="http://www.w3.org/2000/svg" width="17" height="17" viewBox="0 0 17 17"><title>pencil-alt</title><path fill="#fff" d="M16.5 1.843L15.095.44c-.566-.566-1.555-.566-2.122 0L5.438 7.976l-1.722 5.287 5.25-1.765 7.533-7.534c.282-.283.438-.66.438-1.06s-.156-.778-.44-1.06zM5.583 10.758L6.222 8.8l1.92 1.92-1.942.653-.616-.615zm1.248-2.762l3.986-3.986 2.11 2.11-3.986 3.986-2.11-2.11zm4.693-4.693l.73-.73 2.11 2.11-.73.73-2.11-2.11zm4.267-.046l-.72.72-2.11-2.11.72-.72c.19-.19.52-.19.707 0L15.79 2.55c.094.095.146.22.146.354s-.052.258-.146.353zM15 7.5h1V17H0V2h7.5v1H1v13h14V7.5z"/></svg>