<svg xmlns="http://www.w3.org/2000/svg" width="17" height="17" viewBox="0 0 17 17"><title>reddit</title><path fill="#fff" d="M15.58 9.936c.025.16.04.33.04.49 0 1.31-.765 2.518-2.144 3.42-1.347.88-3.12 1.364-5.008 1.364s-3.67-.484-5.008-1.363c-1.388-.903-2.145-2.112-2.145-3.42 0-.177.016-.354.04-.532C.847 9.573.5 9 .5 8.355c0-1.008.815-1.823 1.822-1.823.452 0 .872.17 1.194.444 1.29-.823 2.976-1.29 4.774-1.324l1.08-3.41c.05-.153.21-.242.372-.21l2.8.66c.232-.53.765-.902 1.378-.902.83 0 1.5.678 1.5 1.5 0 .83-.67 1.51-1.5 1.51-.823 0-1.492-.67-1.5-1.493L9.88 2.71l-.936 2.95c1.7.073 3.29.542 4.516 1.34.322-.29.75-.468 1.218-.468 1.007 0 1.822.815 1.822 1.822 0 .678-.37 1.267-.92 1.582zM1.533 9.25c.258-.693.75-1.34 1.45-1.896-.183-.128-.418-.2-.66-.2-.66 0-1.2.54-1.2 1.2 0 .356.16.678.41.896zM15 10.427c0-1.08-.662-2.112-1.863-2.896-1.242-.805-2.903-1.256-4.67-1.256s-3.427.452-4.67 1.257c-1.2.784-1.862 1.816-1.862 2.897 0 1.09.66 2.12 1.863 2.904 1.242.807 2.903 1.26 4.67 1.26s3.427-.453 4.668-1.26C14.338 12.55 15 11.517 15 10.428zm-8.903.234c-.605 0-1.12-.49-1.12-1.096 0-.612.515-1.12 1.12-1.12s1.105.508 1.105 1.12c0 .605-.5 1.097-1.105 1.097zm4.984 1.607c.122.12.122.322 0 .443-.54.54-1.378.798-2.572.798h-.016c-1.194 0-2.033-.258-2.573-.798-.122-.12-.122-.323 0-.443.12-.122.313-.122.435 0 .42.42 1.113.62 2.137.62h.016c1.017 0 1.718-.2 2.137-.62.12-.122.314-.122.436 0zm.944-2.703c0 .604-.5 1.097-1.105 1.097s-1.122-.49-1.122-1.096c0-.612.516-1.12 1.12-1.12s1.106.508 1.106 1.12zM13.04 3.29c0 .483.395.88.88.88s.878-.397.878-.88-.396-.88-.88-.88-.878.397-.878.88zm2.84 5.064c0-.66-.54-1.2-1.202-1.2-.258 0-.5.08-.694.225.694.556 1.185 1.21 1.436 1.92.282-.228.46-.567.46-.946z"/></svg>