<svg xmlns="http://www.w3.org/2000/svg" width="17" height="17" viewBox="0 0 17 17"><title>sharethis</title><path fill="#fff" d="M16.5 13.168c0 1.843-1.49 3.332-3.333 3.332-1.844 0-3.333-1.49-3.333-3.332 0-.116.01-.24.02-.354l-3.75-1.876c-.593.552-1.396.896-2.27.896C1.988 11.834.5 10.344.5 8.5c0-1.843 1.49-3.332 3.333-3.332.875 0 1.677.343 2.27.895l3.75-1.874c-.01-.117-.02-.24-.02-.355C9.834 1.99 11.324.5 13.168.5S16.5 1.99 16.5 3.836c0 1.844-1.49 3.333-3.333 3.333-.875 0-1.677-.344-2.27-.896l-3.75 1.875c.01.115.02.24.02.354s-.01.24-.02.355l3.75 1.877c.593-.553 1.396-.897 2.27-.897 1.843-.002 3.333 1.487 3.333 3.333z"/></svg>