<svg xmlns="http://www.w3.org/2000/svg" width="17" height="17" viewBox="0 0 17 17"><title>shield</title><path fill="#fff" d="M15 1.016c0 1.654-1.346 3-3 3s-3-1.346-3-3H8c0 1.654-1.346 3-3 3s-3-1.346-3-3H1v6.847c0 5.405 7.002 8 7.3 8.107l.167.06.167-.057C8.934 15.87 16 13.386 16 7.835v-6.82h-1zM2 7.862V3.658c.733.832 1.807 1.358 3 1.358 1.196 0 2.266-.533 3-1.37v11.115c-1.66-.746-6-3.066-6-6.898zm13-.027c0 3.895-4.293 6.163-6 6.912v-11.1c.734.835 1.804 1.368 3 1.368 1.193 0 2.267-.525 3-1.357v4.177z"/></svg>