<svg xmlns="http://www.w3.org/2000/svg" width="17" height="17" viewBox="0 0 17 17"><title>signal</title><path fill="#fff" d="M11.5 4c0-1.654-1.346-3-3-3s-3 1.346-3 3c0 1.483 1.084 2.71 2.5 2.95V15H6v1h5v-1H9V6.95c1.416-.24 2.5-1.467 2.5-2.95zm-5 0c0-1.103.897-2 2-2s2 .897 2 2-.897 2-2 2-2-.897-2-2zM4.504 2.192c-.378.46-.577 1.004-.577 1.574s.2 1.114.577 1.574l-.774.636c-.525-.64-.803-1.405-.803-2.21S3.205 2.2 3.73 1.56l.774.634zM2 3.767c0 1.08.387 2.096 1.12 2.938l-.755.656C1.485 6.35 1 5.07 1 3.768S1.484 1.185 2.365.172l.754.656C2.386 1.67 2 2.688 2 3.768zm12.073 0c0 .805-.278 1.568-.804 2.21l-.774-.636c.378-.46.577-1.003.577-1.573s-.2-1.114-.577-1.574l.773-.635c.525.64.803 1.404.803 2.21zm1.927 0c0 1.305-.484 2.582-1.365 3.595l-.754-.656c.733-.844 1.12-1.86 1.12-2.94S14.613 1.672 13.88.83l.755-.657C15.515 1.185 16 2.463 16 3.767z"/></svg>