<svg xmlns="http://www.w3.org/2000/svg" width="17" height="17" viewBox="0 0 17 17"><title>skype</title><path fill="#fff" d="M16.2 9.943c.088-.49.133-.975.133-1.443 0-4.788-4.27-8.608-9.277-7.7C6.3.277 5.42 0 4.5 0 2.02 0 0 2.02 0 4.5c0 .92.276 1.8.8 2.557-.088.49-.133.974-.133 1.443 0 4.788 4.27 8.608 9.277 7.7.756.524 1.635.8 2.556.8 2.48 0 4.5-2.02 4.5-4.5 0-.92-.276-1.8-.8-2.557zM12.5 16c-.775 0-1.512-.252-2.133-.73l-.182-.14-.225.048c-.5.103-.99.155-1.46.155-3.77 0-6.834-3.065-6.834-6.833 0-.47.052-.962.156-1.46l.046-.226-.14-.182C1.252 6.012 1 5.274 1 4.5 1 2.57 2.57 1 4.5 1c.775 0 1.512.252 2.133.73l.182.14.225-.048c.498-.102.99-.155 1.46-.155 3.768 0 6.833 3.065 6.833 6.833 0 .47-.052.962-.156 1.46l-.046.226.14.182c.478.62.73 1.358.73 2.132 0 1.93-1.57 3.5-3.5 3.5zm.22-5.76c0 2.114-2.043 3.093-4 3.093-2.345 0-4.304-1.042-4.304-2.323 0-.572.323-1.093 1.053-1.093 1.114 0 1.218 1.604 3.145 1.604.916 0 1.51-.404 1.51-.936 0-.667-.573-.77-1.5-1l-1.52-.375c-1.52-.366-2.69-.99-2.69-2.74 0-2.115 2.095-2.897 3.897-2.897 1.97 0 3.958.78 3.958 1.98 0 .603-.406 1.135-1.083 1.135-1.01 0-1.042-1.197-2.678-1.197-.917 0-1.5.25-1.5.802 0 .605.593.74 1.386.928l1.082.25c1.48.333 3.24.957 3.24 2.77z"/></svg>