<svg xmlns="http://www.w3.org/2000/svg" width="17" height="17" viewBox="0 0 17 17"><title>soundcloud</title><path fill="#fff" d="M.882 10.132l-.14.875c-.006.035-.026.062-.06.062s-.057-.028-.063-.063l-.12-.875.118-.89c.007-.034.028-.06.062-.06s.055.026.062.06l.14.89zm.64 0l-.18 1.41c-.008.034-.036.06-.07.06s-.062-.026-.062-.067l-.16-1.403.16-1.438c0-.034.027-.062.062-.062.034 0 .062.028.07.062l.18 1.438zm.63 0l-.172 1.646c0 .04-.035.076-.077.076s-.076-.035-.083-.076l-.146-1.646.146-1.7c.007-.05.042-.084.083-.084s.077.034.077.083l.173 1.702zm.64 0l-.16 1.694c-.007.056-.048.09-.097.09-.048 0-.09-.034-.09-.09L2.3 10.132l.145-1.75c0-.056.042-.09.09-.09.05 0 .09.034.097.09l.16 1.75zm.64 0l-.147 1.71c-.007.06-.056.11-.11.11s-.105-.05-.105-.11l-.14-1.71.14-1.624c0-.057.05-.105.104-.105.056 0 .104.05.11.105l.147 1.624zm.65 0l-.145 1.71c0 .067-.056.124-.118.124-.07 0-.12-.057-.126-.125l-.125-1.708.124-2.64c.008-.068.056-.124.125-.124.06 0 .117.056.117.124l.146 2.64zm.64.014L4.59 11.84c0 .077-.063.132-.132.132-.076 0-.13-.055-.14-.13l-.11-1.696.11-3.25c.008-.076.063-.132.14-.132.07 0 .132.056.132.132l.132 3.25zm.674-.014l-.125 1.68c-.006.084-.068.147-.152.147-.076 0-.14-.063-.146-.147l-.11-1.68.11-3.515c0-.083.07-.153.146-.153.083 0 .146.07.153.153l.126 3.514zm.66 0L5.944 6.5c-.006-.09-.076-.167-.166-.167-.083 0-.16.077-.16.167l-.098 3.632.098 1.674c.007.09.077.16.16.16.09 0 .16-.07.167-.16l.11-1.674zm.666 0l-.104 1.66c0 .097-.076.174-.174.174s-.167-.077-.173-.174l-.097-1.66.098-3.542c0-.098.077-.174.174-.174s.174.076.174.174l.104 3.542zm.68.007l-.097 1.64c0 .103-.083.187-.187.187s-.188-.084-.194-.188l-.083-1.64.084-3.417c.007-.11.09-.195.194-.195s.18.084.187.195l.098 3.416zm.674 0l-.083-4.07c0-.07-.035-.133-.09-.167-.035-.02-.07-.035-.11-.035s-.077.014-.112.035c-.055.035-.09.097-.09.166l-.007.04-.07 4.02.077 1.64v.008c0 .04.014.083.042.117.042.05.097.076.16.076.056 0 .104-.026.14-.06.04-.035.06-.084.06-.14L8 11.604l.076-1.465zm.605 1.603c0 .118-.096.215-.214.215s-.215-.097-.223-.215l-.04-.79-.043-.814.083-4.417V5.7c.007-.06.035-.124.084-.165.034-.027.083-.05.138-.05.035 0 .077.015.104.036.06.035.103.105.11.18l.097 4.44-.096 1.603zm5.855.223H9.077c-.118-.014-.215-.104-.215-.23V5.493c0-.117.042-.173.195-.23.382-.15.812-.234 1.257-.234 1.812 0 3.3 1.388 3.458 3.16.236-.098.493-.154.764-.154 1.083 0 1.965.883 1.965 1.973 0 1.084-.882 1.96-1.965 1.96z"/></svg>