<svg xmlns="http://www.w3.org/2000/svg" width="17" height="17" viewBox="0 0 17 17"><title>themify-logo</title><path fill="#fff" d="M2.628 6.814c-.092 0-.22.003-.3.017l-.023.005-.012.02c-.408.75-1.22 2.935-1.35 3.257-.28-.02-.652-.02-.652-.374 0-.258.905-2.37 1.03-2.717l.024-.065h-.07c-.084 0-.166.005-.246.01-.075.006-.146.01-.215.01-.182 0-.74.023-.808-.426-.027-.187.05-.39.14-.49.016.245.396.234.5.234.226 0 .706-.095 1.01-.134.353-.045.75-.148 1.113-.148s.63.222.63.526c0 .106-.034.223-.1.337-.192-.044-.476-.06-.67-.06zm3.896 2.774c-.207.05-.467.026-.467-.4.002-.52.573-1.123.858-1.123.05 0 .2.037.168.203-.175.883-.98.746-.92.847.29.482 1.712-.234 1.574-1.248-.046-.346-.255-.58-.654-.58-.74 0-1.587 1.1-1.737 1.91-.303.307-.647.285-.673.282-.02-.03-.022-.088.013-.204.062-.204.205-.515.37-.79.153-.257.314-.525.314-.723 0-.24-.14-.36-.417-.36-.36 0-1.025.442-1.025.442.026-.21.697-1.568.697-1.75 0-.215-.097-.362-.363-.362-.07 0-.27.07-.387.11-.11.855-.553 1.56-.728 1.95-.327.73-.69 1.493-.69 1.81 0 .3.29.588.602.6C3.34 9.147 4.022 8 4.49 8c0 0-.54 1.127-.54 1.643 0 .255.053.516.452.516h.006c.36.037.752-.45.915-.682.022.55.5.61.71.61.61 0 1.148-.37 1.557-1.03-.227.19-.785.467-1.068.534zm4.187-.337c.022-.08.08-.244.223-.52.178-.345.42-.817.42-1.103 0-.167-.078-.24-.257-.24-.23 0-.557.208-.857.544l-.085.094v-.127c0-.332-.098-.5-.288-.5-.244 0-.643.276-1.014.704 0 0 .076-.38.076-.504 0-.26-.23-.298-.364-.298-.072 0-.147.01-.225.026-.024.29-.3.93-.542 1.495-.157.366-.32.743-.32.826 0 .266.182.438.46.438h.043c.206-.69.755-1.7 1.144-1.7h.067l-.022.064c-.055.167-.142.33-.227.49-.142.268-.275.52-.275.79 0 .22.205.34.398.34.05 0 .09-.005.124-.015.14-.64.877-1.713 1.182-1.713h.09l-.05.077c-.09.142-.455.817-.455 1.296 0 .298.146.442.444.442.413 0 .71-.382.825-.797-.135.093-.253.112-.38.112-.1 0-.184-.02-.134-.22zm1.824.32c-.22.184-.522.02-.527-.15-.004-.183.158-.51.36-.902.157-.31.362-.523.343-.68-.026-.222-.33-.396-.52-.396-.018 0-.034 0-.05.003h-.024c-.104.27-.238.56-.368.84-.232.504-.452.98-.452 1.23 0 .31.21.65.552.65.356-.02.542-.174.686-.594zm.103-2.47c.092 0 .202-.01.323-.027.157-.19.236-.352.236-.477 0-.13-.202-.2-.784-.205-.184.187-.174.32-.174.47 0 .16.132.24.4.24zm3.752.1h-.03l-.005.028c-.063.48-1.05 2.104-1.232 1.643-.04-.103.076-.38.175-.612.113-.264.24-.563.227-.73-.003-.04-.016-.07-.035-.1-.01-.023-.032-.05-.07-.074-.03-.02-.072-.035-.123-.048-.117-.034-.26-.04-.376-.036-.13-.002-.276.003-.424.012l.01-.027c.14-.46.515-.89.62-.954.262-.16.61-.2.69.157.065-.15.084-.193.065-.306-.055-.344-.31-.53-.714-.553-.732-.038-1.255 1.033-1.506 1.646l-.006.014-.012.01c-.07.05-.203.082-.282.103l-.04.01c-.152.056-.184.205-.187.272-.004.11.13.193.188.294 0 0-.257.64-.444 1.03-.293.607-.76 1.635-.767 1.864-.012.28.395.537.617.566.068-.466 1.383-3.436 1.383-3.436.047-.072.127-.172.253-.248.118-.048.208-.064.277-.062.017.004.03.01.042.016.036.02.06.05.072.082-.045.16-.104.33-.163.495-.127.362-.295.92-.273 1.18.014.168.03.247.118.34.267.273.936-.197 1.135-.465l.033.014c-.238.678-.604 1.137-.995 1.15-.52.017-.738-.32-.738-.32s-.088.324.263.683c.157.16.39.226.628.208.017 0 .033-.003.05-.004.96-.105 1.377-1.194 1.714-2.218.047-.144.21-.525.257-.662.028-.074.062-.154.094-.23l.004-.01c.076-.185.126-.31.122-.373-.02-.237-.323-.355-.61-.348z"/></svg>