<svg xmlns="http://www.w3.org/2000/svg" width="17" height="17" viewBox="0 0 17 17"><title>unlock</title><path fill="#fff" d="M9.5 10.972c0 .366-.207.672-.5.846v2.154H8V11.82c-.294-.175-.5-.48-.5-.848 0-.552.447-1 1-1 .55 0 1 .447 1 1zm5.494-2.512v7.08c0 .827-.673 1.5-1.5 1.5H3.506c-.827 0-1.5-.673-1.5-1.5V8.46c0-.827.673-1.5 1.5-1.5H12.5V4.972c0-2.206-1.794-4-4-4s-4 1.794-4 4h-1c0-2.757 2.243-5 5-5s5 2.243 5 5V6.96c.824.004 1.494.675 1.494 1.5zm-1 0c0-.276-.225-.5-.5-.5H3.506c-.275 0-.5.224-.5.5v7.08c0 .276.225.5.5.5h9.988c.275 0 .5-.224.5-.5V8.46z"/></svg>