<svg xmlns="http://www.w3.org/2000/svg" width="17" height="17" viewBox="0 0 17 17"><title>vector</title><path fill="#fff" d="M14.94 6c-1.032-.647-2.214-1-3.44-1-.778 0-1.53.144-2.24.404l2.57-2.57c.203.103.428.166.67.166.827 0 1.5-.673 1.5-1.5S13.327 0 12.5 0 11 .673 11 1.5c0 .22.05.428.136.616l-3.91 3.91C7.146 6.01 7.062 6 6.976 6c-.827 0-1.5.673-1.5 1.5 0 .085.01.168.025.25l-3.385 3.386C1.927 11.05 1.72 11 1.5 11c-.827 0-1.5.673-1.5 1.5S.673 14 1.5 14 3 13.327 3 12.5c0-.242-.063-.467-.165-.67l2.57-2.57C5.143 9.977 5 10.735 5 11.5c0 1.47.612 2.735 1 3.39V17h3v-3H6.664C6.246 13.174 6 12.287 6 11.5c0-.887.22-1.764.628-2.545.113.027.228.045.348.045.827 0 1.5-.673 1.5-1.5 0-.18-.037-.35-.095-.51 1.645-1.13 3.848-1.268 5.62-.373V9h3V6h-2.06zM12.5 1c.276 0 .5.224.5.5s-.224.5-.5.5-.5-.224-.5-.5.224-.5.5-.5zm-11 12c-.276 0-.5-.224-.5-.5s.224-.5.5-.5.5.224.5.5-.224.5-.5.5zM7 15h1v1H7v-1zm-.024-7c-.276 0-.5-.224-.5-.5s.224-.5.5-.5.5.224.5.5-.224.5-.5.5zM16 8h-1V7h1v1z"/></svg>