<svg xmlns="http://www.w3.org/2000/svg" width="17" height="17" viewBox="0 0 17 17"><title>volume</title><path fill="#fff" d="M3.587 5.933c-.956 0-1.55.5-1.55 1.306V9.4c0 .415.16.804.453 1.098s.682.455 1.097.455H5.33l5.686 5.688V.213l-5.63 5.72h-1.8zm6.43-3.28v11.573L5.743 9.953H3.586c-.303 0-.55-.248-.55-.553V7.24c0-.092 0-.307.55-.307h2.218l4.212-4.28zm1.988 8.334v-1c.556 0 1.008-.452 1.008-1.008s-.452-1.01-1.008-1.01v-1c1.107 0 2.008.902 2.008 2.01s-.9 2.007-2.008 2.007zm4.024-2c0 2.206-1.795 4-4 4v-1c1.653 0 3-1.346 3-3s-1.347-3-3-3v-1c2.204 0 4 1.795 4 4z"/></svg>