<svg xmlns="http://www.w3.org/2000/svg" width="17" height="17" viewBox="0 0 17 17"><title>wallet</title><path fill="#fff" d="M1.564 2C.71 2 .014 2.69.014 3.538H0v10.94c0 .847.695 1.537 1.55 1.537h13.492V14.36H17V2H1.564zM1.55 15.014c-.303 0-.55-.24-.55-.538V4.893c.024.007.054.005.078.012.143.042.293.068.453.07.008 0 .013.004.02.004h12.493v3.034h-2.86c-.86 0-1.562.673-1.562 1.5v1c0 .827.702 1.5 1.564 1.5h2.86v3H1.55zm9.633-4c-.31 0-.563-.224-.563-.5v-1c0-.276.253-.5.563-.5H16v2h-4.817zM16 13.36h-.958v-1.346H16v1.345zm-.958-5.346V3.98H1.564c-.273 0-.55-.138-.55-.442 0-.297.248-.538.55-.538H16v5.014h-.958z"/></svg>