<svg xmlns="http://www.w3.org/2000/svg" width="17" height="17" viewBox="0 0 17 17"><title>wheelchair</title><path fill="#fff" d="M10.9 12.85l.978.213C11.373 15.38 9.368 17 7 17c-2.757 0-5-2.243-5-5 0-2.27 1.53-4.26 3.725-4.836l.254.967C4.224 8.594 3 10.185 3 12c0 2.206 1.794 4 4 4 1.893 0 3.497-1.295 3.9-3.15zm5.1 2.27v1h-1.868l-.955-4.117H7.02L6.474 3.92C5.628 3.69 5 2.92 5 2c0-1.103.897-2 2-2s2 .897 2 2c0 .938-.65 1.72-1.52 1.936l.27 4.01 3.63-.9.24.97-3.804.944.138 2.042h6.018l.955 4.118H16zM7 3c.552 0 1-.45 1-1s-.448-1-1-1-1 .45-1 1 .448 1 1 1z"/></svg>