<svg xmlns="http://www.w3.org/2000/svg" width="17" height="17" viewBox="0 0 17 17"><title>wordpress</title><path fill="#fff" d="M16.5 8.5c0 4.41-3.59 8-8 8s-8-3.59-8-8 3.59-8 8-8 8 3.59 8 8zm-.366 0c0-4.205-3.428-7.634-7.634-7.634S.866 4.296.866 8.5s3.428 7.634 7.634 7.634 7.634-3.43 7.634-7.634zM2.232 5.705L5.51 14.68C3.213 13.56 1.633 11.213 1.633 8.5c0-.99.215-1.938.598-2.795zm10.375 4.67l-.68 2.286-2.48-7.373s.41-.027.785-.072c.366-.045.322-.59-.044-.562-1.116.08-1.83.09-1.83.09s-.67-.01-1.804-.09c-.375-.028-.42.534-.045.56l.713.074 1.07 2.928-1.5 4.5-2.5-7.428s.412-.027.787-.072c.366-.045.322-.59-.044-.562-1.108.08-1.83.09-1.83.09-.126 0-.277-.01-.438-.01 1.223-1.867 3.33-3.1 5.732-3.1 1.786 0 3.41.69 4.634 1.805h-.09c-.67 0-1.15.58-1.15 1.215 0 .562.33 1.036.677 1.606.27.455.563 1.044.563 1.893 0 .587-.24 1.267-.526 2.222zm-1.876 4.5c.01.036.028.07.046.1-.714.25-1.473.392-2.277.392-.67 0-1.322-.1-1.94-.286L8.616 9.1l2.116 5.776zM15.367 8.5c0 2.535-1.375 4.74-3.42 5.93l2.098-6.055c.348-1 .527-1.767.527-2.465 0-.25-.017-.482-.053-.705.537.982.85 2.1.85 3.295z"/></svg>