<svg xmlns="http://www.w3.org/2000/svg" width="17" height="17" viewBox="0 0 17 17"><title>world</title><path fill="#fff" d="M8.516 0C3.83 0 .016 3.813.016 8.5S3.83 17 8.516 17s8.5-3.813 8.5-8.5S13.202 0 8.516 0zM1.04 9H3.98c.044 1.024.21 2.03.513 3H1.89c-.48-.906-.776-1.923-.847-3zM3.98 8H1.04c.072-1.077.367-2.094.848-3h2.6c-.3.97-.467 1.976-.51 3zm1.57-3h5.895c.33.965.522 1.972.57 3H4.977c.046-1.028.24-2.035.57-3zm-.57 4h7.035c-.05 1.028-.24 2.035-.572 3H5.55c-.33-.965-.524-1.972-.572-3zm8.035 0h2.978c-.07 1.077-.365 2.094-.846 3H12.5c.302-.97.47-1.976.513-3zm0-1c-.043-1.024-.21-2.03-.51-3h2.64c.48.906.776 1.923.848 3h-2.977zm1.49-4h-2.355c-.392-.955-.916-1.858-1.55-2.7 1.578.457 2.938 1.42 3.904 2.7zm-5.43-2.972c.825.897 1.485 1.9 1.973 2.972H5.944c.487-1.07 1.146-2.073 1.97-2.97.2-.015.398-.03.602-.03.188 0 .373.015.558.028zm-2.69.285C5.753 2.15 5.233 3.05 4.843 4H2.53c.954-1.267 2.296-2.224 3.853-2.687zM2.53 13h2.316c.39.95.915 1.85 1.547 2.69-1.56-.462-2.907-1.42-3.864-2.69zm5.396 2.97c-.826-.897-1.488-1.9-1.978-2.97h5.094c-.49 1.072-1.152 2.075-1.98 2.972-.18.013-.362.028-.546.028-.2 0-.395-.015-.59-.03zm2.66-.267c.637-.842 1.165-1.747 1.558-2.703h2.358c-.968 1.283-2.332 2.247-3.915 2.703z"/></svg>