<?xml version="1.0" encoding="utf-8"?>
<!-- Generator: Adobe Illustrator 18.0.0, SVG Export Plug-In . SVG Version: 6.00 Build 0)  -->
<!DOCTYPE svg PUBLIC "-//W3C//DTD SVG 1.1//EN" "http://www.w3.org/Graphics/SVG/1.1/DTD/svg11.dtd">
<svg version="1.1" id="Layer_1" xmlns="http://www.w3.org/2000/svg" xmlns:xlink="http://www.w3.org/1999/xlink" x="0px" y="0px"
	 viewBox="0 123.3 595.3 595.3" enable-background="new 0 123.3 595.3 595.3" xml:space="preserve" width="26px" height="26px">
<g>
	
		<image overflow="visible" opacity="0.2" enable-background="new    " width="502" height="502" xlink:href="38EE46B1C5026B36.png"  transform="matrix(1.1906 0 0 1.1906 -1.1906 122.1144)">
	</image>
	<g>
		<g>
			<g>
				<g>
					<path fill="#006A8D" d="M90.1,666.2c-39.9,0-72.3-32.5-72.3-72.4V213.4c0-39.9,32.4-72.3,72.3-72.3h380.4
						c39.9,0,72.3,32.5,72.3,72.3v380.4c0,39.9-32.5,72.3-72.3,72.3H90.1V666.2z"/>
					<path fill="#FFFFFF" d="M470.5,159c30,0,54.4,24.4,54.4,54.4v380.4c0,30-24.4,54.4-54.4,54.4H90.1c-30,0.1-54.4-24.3-54.4-54.4
						V213.4c0-30,24.4-54.4,54.4-54.4H470.5 M470.5,123.3H90.1C40.4,123.3,0,163.7,0,213.4v380.4c0,49.8,40.4,90.2,90.1,90.2h380.4
						c49.8,0,90.1-40.5,90.1-90.1V213.4C560.8,163.7,520.3,123.3,470.5,123.3L470.5,123.3z"/>
				</g>
			</g>
		</g>
	</g>
</g>
<polygon fill="#FFFFFF" points="211.3,541.8 211.3,265.6 349.4,403.7 "/>
</svg>
