<?xml version="1.0" encoding="utf-8"?>
<!-- Generator: Adobe Illustrator 18.1.1, SVG Export Plug-In . SVG Version: 6.00 Build 0)  -->
<svg version="1.1" id="Layer_1" xmlns="http://www.w3.org/2000/svg" xmlns:xlink="http://www.w3.org/1999/xlink" x="0px" y="0px"
	 width="28px" height="28px" viewBox="-945 527 28 28" enable-background="new -945 527 28 28" xml:space="preserve">
<g>
	<path fill="#FFFFFF" d="M-926.4,535c-0.2-0.2-0.6-0.2-0.8,0l-0.8,0.9c-0.2,0.2-0.2,0.6,0,0.8c0.1,0.1,0.2,0.2,0.4,0.2
		c0.1,0,0.3-0.1,0.4-0.2l0.8-0.9C-926.2,535.5-926.2,535.2-926.4,535z"/>
	<path fill="#FFFFFF" d="M-931,535.3c0.3,0,0.5-0.2,0.5-0.6v-1.2c0-0.3-0.2-0.6-0.5-0.6c-0.3,0-0.5,0.2-0.5,0.6v1.2
		C-931.5,535.1-931.3,535.3-931,535.3z"/>
	<path fill="#FFFFFF" d="M-934,536.6c0.2-0.2,0.2-0.6,0-0.8l-0.8-0.9c-0.2-0.2-0.6-0.2-0.8,0c-0.2,0.2-0.2,0.6,0,0.8l0.8,0.9
		c0.1,0.1,0.2,0.2,0.4,0.2C-934.2,536.8-934.1,536.7-934,536.6z"/>
	<path fill="#FFFFFF" d="M-925,539.1h-1.2c-0.3,0-0.5,0.2-0.5,0.6s0.2,0.6,0.5,0.6h1.2c0.3,0,0.5-0.2,0.5-0.6
		S-924.7,539.1-925,539.1z"/>
	<path fill="#FFFFFF" d="M-935.9,539.1h-1.2c-0.3,0-0.5,0.2-0.5,0.6s0.2,0.6,0.5,0.6h1.2c0.3,0,0.5-0.2,0.5-0.6
		S-935.6,539.1-935.9,539.1z"/>
	<path fill="#FFFFFF" d="M-930.1,547.3h-1.7c-0.2,0-0.4,0.2-0.4,0.4v0.8c0,0.2,0.2,0.4,0.4,0.4h1.7c0.2,0,0.4-0.2,0.4-0.4v-0.8
		C-929.7,547.5-929.9,547.3-930.1,547.3z"/>
	<path fill="#FFFFFF" d="M-931,536.5l-0.1,0c-1.9,0.1-3.5,1.8-3.5,3.7c0,0.9,0.3,1.7,0.8,2.4c0.8,1,1.3,2.3,1.3,3.7
		c0,0.3,0.2,0.5,0.5,0.5h2c0.3,0,0.5-0.2,0.5-0.5c0-1.3,0.5-2.6,1.4-3.8c0.5-0.7,0.8-1.5,0.8-2.3c0-1-0.4-2-1.1-2.7
		C-929.1,536.9-930,536.5-931,536.5z M-928.9,542c-0.9,1.2-1.5,2.5-1.6,3.9h-1c-0.1-1.4-0.7-2.7-1.5-3.8c-0.4-0.5-0.6-1.1-0.6-1.8
		c0-1.4,1.2-2.7,2.6-2.7l0.1,0c0.7,0,1.4,0.3,1.9,0.8c0.5,0.5,0.8,1.2,0.8,2C-928.3,540.9-928.5,541.5-928.9,542z"/>
</g>
</svg>
