<?xml version="1.0" encoding="utf-8"?>
<!-- Generator: Adobe Illustrator 17.1.0, SVG Export Plug-In . SVG Version: 6.00 Build 0)  -->
<!DOCTYPE svg PUBLIC "-//W3C//DTD SVG 1.1//EN" "http://www.w3.org/Graphics/SVG/1.1/DTD/svg11.dtd">
<svg version="1.1" id="Layer_1" xmlns="http://www.w3.org/2000/svg" xmlns:xlink="http://www.w3.org/1999/xlink" x="0px" y="0px"
	 viewBox="0 0 500 500" enable-background="new 0 0 500 500" xml:space="preserve" width="40px" height="40px">
<g>
	<path fill="#046A8E" d="M454.7,40.6H44.8c-16.2,0-29.3,13.1-29.3,29.3v58.6H484V69.8C484,53.7,470.9,40.6,454.7,40.6z"/>
	<path fill="#046A8E" d="M44.8,421.2c0,16.2,13.1,29.3,29.3,29.3h351.3c16.2,0,29.3-13.1,29.3-29.3V157.7H44.8V421.2z M191.2,216.2
		h117.1c16.2,0,29.3,13.1,29.3,29.3s-13.1,29.3-29.3,29.3H191.2c-16.2,0-29.3-13.1-29.3-29.3S175.1,216.2,191.2,216.2z"/>
</g>
</svg>
