<?xml version="1.0" encoding="utf-8"?>
<!-- Generator: Adobe Illustrator 18.1.1, SVG Export Plug-In . SVG Version: 6.00 Build 0)  -->
<svg version="1.1" id="Layer_1" xmlns="http://www.w3.org/2000/svg" xmlns:xlink="http://www.w3.org/1999/xlink" x="0px" y="0px"
	 width="24px" height="24px" viewBox="-2 6 24 24" enable-background="new -2 6 24 24" xml:space="preserve">
<path fill="#FFFFFF" d="M19.6,8.1V7.9c0-1-0.8-1.9-1.9-1.9s-1.9,0.8-1.9,1.9v0.2H4.1V7.9c0-1-0.8-1.9-1.9-1.9S0.4,6.8,0.4,7.9v0.2
	H-2v0.1v0.3v0.1v1v2.1v0.8v0.1v15.1V28c0,1.1,0.9,2,2,2h20c1.1,0,2-0.9,2-2v-0.3V12.6v-0.1v-0.8V9.6v-1V8.5V8.2V8.1H19.6z M16.9,8.2
	L16.9,8.2V7.9c0-0.5,0.4-0.9,0.9-0.9s0.9,0.4,0.9,0.9v0.2v0.1V9c0,0.5-0.4,0.9-0.9,0.9S16.9,9.5,16.9,9V8.2z M1.4,8.2L1.4,8.2V7.9
	C1.4,7.4,1.8,7,2.3,7s0.9,0.4,0.9,0.9v0.2v0.1V9c0,0.5-0.4,0.9-0.9,0.9S1.4,9.5,1.4,9V8.2z M21,27.7V28c0,0.6-0.5,1-1,1H0
	c-0.5,0-1-0.4-1-1v-0.3v-15h22V27.7z"/>
</svg>
