<?xml version="1.0" encoding="utf-8"?>
<!-- Generator: Adobe Illustrator 18.1.1, SVG Export Plug-In . SVG Version: 6.00 Build 0)  -->
<svg version="1.1" id="Layer_1" xmlns="http://www.w3.org/2000/svg" xmlns:xlink="http://www.w3.org/1999/xlink" x="0px" y="0px"
	 width="24px" height="24px" viewBox="0 0 24 24" enable-background="new 0 0 24 24" xml:space="preserve">
<path fill="#010202" d="M21.6,2.1V1.9c0-1-0.8-1.9-1.9-1.9s-1.9,0.8-1.9,1.9v0.2H6.1V1.9c0-1-0.8-1.9-1.9-1.9S2.4,0.8,2.4,1.9v0.2H0
	v0.1v0.3v0.1v1v2.1v0.8v0.1v15.1V22c0,1.1,0.9,2,2,2h20c1.1,0,2-0.9,2-2v-0.3V6.6V6.5V5.7V3.6v-1V2.5V2.2V2.1H21.6z M18.9,2.2V2.1
	V1.9c0-0.5,0.4-0.9,0.9-0.9s0.9,0.4,0.9,0.9v0.2v0.1V3c0,0.5-0.4,0.9-0.9,0.9S18.9,3.5,18.9,3V2.2z M3.4,2.2V2.1V1.9
	C3.4,1.4,3.8,1,4.3,1s0.9,0.4,0.9,0.9v0.2v0.1V3c0,0.5-0.4,0.9-0.9,0.9S3.4,3.5,3.4,3V2.2z M23,21.7V22c0,0.6-0.5,1-1,1H2
	c-0.5,0-1-0.4-1-1v-0.3V7.3h22V21.7z"/>
</svg>
