<?xml version="1.0" encoding="utf-8"?>
<!-- Generator: Adobe Illustrator 18.1.1, SVG Export Plug-In . SVG Version: 6.00 Build 0)  -->
<svg version="1.1" id="Layer_1" xmlns="http://www.w3.org/2000/svg" xmlns:xlink="http://www.w3.org/1999/xlink" x="0px" y="0px"
	 width="144px" height="144px" viewBox="57 -55 144 144" enable-background="new 57 -55 144 144" xml:space="preserve">
<path fill="#B3B3B3" d="M129-55c-39.8,0-72,32.2-72,72s32.2,72,72,72s72-32.2,72-72S168.8-55,129-55z"/>
<g>
	<path fill="#FFFFFF" d="M122.4,28.4h-24c-1.8,0-3.2-1.4-3.2-3.2s1.4-3.2,3.2-3.2h24c1.8,0,3.2,1.4,3.2,3.2
		C125.6,26.9,123.8,28.4,122.4,28.4z"/>
	<path fill="#FFFFFF" d="M115.9,19.4H98.4c-1.8,0-3.2-1.4-3.2-3.2c0-1.8,1.4-3.2,3.2-3.2H116c1.8,0,3.2,1.4,3.2,3.2
		C119.2,18,117.7,19.4,115.9,19.4z"/>
	<path fill="#FFFFFF" d="M135,21.5c0,0.4,0,0.7,0.4,1.1c0,0,0,0.4,0.4,0.4c0.7,1.1,2.2,2.5,4.7,4.3c0.7,0.4,2.5,2.2,4.3,1.1
		c1.4-0.7,1.4-2.2,1.4-3.6c0.7,0.4,1.8,1.4,3.2,2.5c1.8,1.4,3.2,2.2,4.3,2.2s1.8-0.4,2.2-0.7c0.7-0.4,1.1-1.1,1.4-1.8
		c1.8,0.7,3.2,1.1,3.2,1.1c1.1,0,1.8-0.7,1.8-1.4c0-1.1-0.7-1.8-1.4-1.8c0,0-1.1,0-2.5-0.7c0.4-2.5,0.4-4.7-0.4-6.1
		c-0.7-1.8-2.5-2.9-4.3-3.2c-1.4,0-2.9,0.4-3.6,1.4c-0.7,1.1-1.1,2.5,0.4,5.4c1.1,1.8,2.5,3.2,3.9,4.3c0,0.4-0.4,0.4-0.4,0.7
		c-0.7,0.4-1.8-0.7-2.2-1.1c-5-5-6.8-5.7-7.9-5c-1.4,0.7-1.4,2.2-1.4,2.5c0,0.4,0,0.4,0,0.7c0,0.4,0,0.7,0,1.1c0,0-0.4,0-0.4-0.4
		c-2.5-2.2-3.6-3.2-3.9-3.6c0,0,0,0,0-0.4l0,0l0,0l0,0c-0.4-0.4-0.7-0.7-1.4-0.7C135.7,20,135,20.9,135,21.5z M155.1,21.5
		c-0.7-0.7-1.1-1.4-1.8-2.2c-0.7-1.1-0.7-1.4-0.4-1.8c0,0,0,0,0.4,0h0.4c0.4,0,1.1,0.4,1.1,1.1C155.1,19.4,155.1,20,155.1,21.5z"/>
	<path fill="#FFFFFF" d="M161.9-2.1h-3.2l-6.5,6.4h9.3c1.8,0,3.6,1.8,3.6,3.6v23.4c0,1.8-1.8,3.6-3.6,3.6H95.8
		c-1.8,0-3.6-1.8-3.6-3.6V7.6C92.2,5.8,94,4,95.8,4h37.7l6.1-6.1H95.8c-5.7,0-10,4.3-10,9.7v23.7c0,5.4,4.3,10,10,10h66.4
		c5.4,0,10-4.3,10-10V7.6C171.9,2.2,167.6-2.1,161.9-2.1z"/>
	<path fill="#FFFFFF" d="M167.3-20.5c-1.1-1.1-2.2-1.4-3.6-1.4c-1.4,0-2.5,0.4-3.6,1.4l-26.9,27c-0.7,0.7-1.4,1.8-1.4,2.5l-2.2,7.2
		c0,0.4,0,0.7,0.4,0.7c0,0,0.4,0.4,0.7,0.4c0,0,0,0,0.4,0l7.2-2.2c1.1-0.4,1.8-0.7,2.5-1.4l26.9-26.9c1.1-1.1,1.4-2.2,1.4-3.6
		C168.7-18,168.3-19.3,167.3-20.5L167.3-20.5z"/>
</g>
</svg>
