<?xml version="1.0" encoding="utf-8"?>
<!-- Generator: Adobe Illustrator 18.1.1, SVG Export Plug-In . SVG Version: 6.00 Build 0)  -->
<svg version="1.1" id="Layer_1" xmlns="http://www.w3.org/2000/svg" xmlns:xlink="http://www.w3.org/1999/xlink" x="0px" y="0px"
	 width="144px" height="144px" viewBox="57 -55 144 144" enable-background="new 57 -55 144 144" xml:space="preserve">
<path fill="#97C21C" d="M129-55c-39.8,0-72,32.2-72,72s32.2,72,72,72s72-32.2,72-72S168.7-55,129-55z M163.8,4.2l-38.1,38.2
	c-3.5,3.5-9.2,3.5-12.7,0L93.9,23.3c-3.5-3.5-3.5-9.2,0-12.7s9.2-3.5,12.7,0l12.7,12.7l31.8-31.8c3.5-3.5,9.2-3.5,12.7,0
	C167.3-5,167.3,0.7,163.8,4.2z"/>
</svg>
