<?xml version="1.0" encoding="utf-8"?>
<!-- Generator: Adobe Illustrator 18.1.1, SVG Export Plug-In . SVG Version: 6.00 Build 0)  -->
<svg version="1.1" id="Layer_1" xmlns="http://www.w3.org/2000/svg" xmlns:xlink="http://www.w3.org/1999/xlink" x="0px" y="0px"
	 width="144px" height="144px" viewBox="57 -55 144 144" enable-background="new 57 -55 144 144" xml:space="preserve">
<path fill="#B3B3B3" d="M129-55c-39.8,0-72,32.2-72,72s32.2,72,72,72s72-32.2,72-72S168.8-55,129-55z"/>
<g>
	<path fill="#FFFFFF" d="M107.7,35.5h-9.4c-1.7,0-3.1-1.4-3.1-3.1s1.4-3.1,3.1-3.1h9.8c1.7,0,3.1,1.4,3.1,3.1S109.5,35.5,107.7,35.5
		z"/>
	<path fill="#FFFFFF" d="M128.7,21.2H98.3c-1.7,0-3.1-1.4-3.1-3.1s1.4-2.8,3.1-2.8H129c1.7,0,3.1,1.4,3.1,3.1
		C132.1,20.2,130.4,21.2,128.7,21.2z"/>
	<path fill="#FFFFFF" d="M144.7,21.2c1.7,0,3.1,0.7,4.2,1.4c1-1,2.8-1.4,4.2-1.4c3.8,0,7.3,3.1,7.3,7.3c0,3.8-3.1,7.3-7.3,7.3
		c-1.7,0-3.1-0.7-4.2-1.4c-1,1-2.8,1.4-4.2,1.4c-3.8,0-7.3-3.1-7.3-7.3C137.7,24.3,140.8,21.2,144.7,21.2L144.7,21.2z"/>
	<path fill="#FFFFFF" d="M161.6-12.4H96c-5.7,0-10,4.3-10,9.6v39.2c0,5.4,4.3,10,10,10h66c5.4,0,10-4.3,10-10V-2.8
		C171.6-8.2,167.4-12.4,161.6-12.4z M96-6.4h66c1.8,0,3.6,1.8,3.6,3.6v6.4H92.4v-6.4C92.4-4.6,93.9-6.4,96-6.4z M161.6,40H96
		c-1.8,0-3.6-1.8-3.6-3.6V10h73.1v26.4C165.2,38.2,163.8,40,161.6,40z"/>
</g>
</svg>
