<?xml version="1.0" encoding="utf-8"?>
<!-- Generator: Adobe Illustrator 18.0.0, SVG Export Plug-In . SVG Version: 6.00 Build 0)  -->
<!DOCTYPE svg PUBLIC "-//W3C//DTD SVG 1.1//EN" "http://www.w3.org/Graphics/SVG/1.1/DTD/svg11.dtd">
<svg version="1.1" xmlns="http://www.w3.org/2000/svg" xmlns:xlink="http://www.w3.org/1999/xlink" x="0px" y="0px" width="144px" height="144px" viewBox="0 0 160.1 144" enable-background="new 0 0 160.1 144" xml:space="preserve">
<g id="Layer_1">
	<path fill="#FFE708" d="M155.5,117.4L91.5,6.2C88.8,1.8,83.5,0,79.1,0c-4.4,0-9.8,1.8-12.4,6.2c0,0.9-64,112.9-64,112.9
		c-1.8,1.8-2.7,5.3-2.7,8C0,136,7.1,144,16.9,144h126.3c8.9,0,16.9-7.1,16.9-16.9C159,123.6,155.5,117.4,155.5,117.4z M71.6,38.4
		c0-4.7,3.8-8.5,8.5-8.5s8.5,3.8,8.5,8.5v56.2c0,4.7-3.8,8.5-8.5,8.5s-8.5-3.8-8.5-8.5V38.4z M80,127.5c-5.7,0-10.3-4.6-10.3-10.3
		s4.6-10.3,10.3-10.3c5.7,0,10.3,4.6,10.3,10.3S85.7,127.5,80,127.5z"/>
</g>
<g id="Exlamation" display="none">
	<g display="inline">
		<path fill="#FFFFFF" d="M80.1,103L80.1,103c-4.7,0-8.5-3.8-8.5-8.5V38.4c0-4.7,3.8-8.5,8.5-8.5h0c4.7,0,8.5,3.8,8.5,8.5v56.2
			C88.5,99.2,84.7,103,80.1,103z"/>
		<circle fill="#FFFFFF" cx="80" cy="117.2" r="10.3"/>
	</g>
</g>
</svg>
