<?xml version="1.0" encoding="utf-8"?>
<!-- Generator: Adobe Illustrator 18.0.0, SVG Export Plug-In . SVG Version: 6.00 Build 0)  -->
<!DOCTYPE svg PUBLIC "-//W3C//DTD SVG 1.1//EN" "http://www.w3.org/Graphics/SVG/1.1/DTD/svg11.dtd">
<svg version="1.1" id="Layer_1" xmlns="http://www.w3.org/2000/svg" xmlns:xlink="http://www.w3.org/1999/xlink" x="0px" y="0px"
	 viewBox="0 123.3 595.3 595.3" enable-background="new 0 123.3 595.3 595.3" xml:space="preserve" width="144px" height="144px">
<path fill="#E7E7E7" d="M297.6,123.3C133.2,123.3,0,256.5,0,420.9s133.2,297.6,297.6,297.6s297.6-133.2,297.6-297.6
	S462.1,123.3,297.6,123.3z M376.9,533.9c0,0-58.7,93.3-133.2,90c0,0-56.4-10-36.2-65.8c20.2-56,71.3-171,71.3-171s15.7-28-10.6-23.3
	c0,0-24.2,3.8-54.8,51.9c0,0-8.1,11.5-16.4,7c0,0-9.2-4.3-1.7-15.5c0,0,51.7-81.3,125.6-78.1c0,0,60.7,0.4,36.2,73.9l-56,136.4
	c0,0-13.1,28.5,6.1,32.4c0,0,19.8,6.5,52.6-50.4c0,0,6.5-12,17-7.1C376.9,514.2,387.2,520.2,376.9,533.9z M357.3,307
	c-25.1,0-45.5-19.8-45.5-44.2s20.4-44.2,45.5-44.2c25.1,0,45.5,19.8,45.5,44.2S382.4,307,357.3,307z"/>
</svg>
