<?xml version="1.0" encoding="utf-8"?>
<!-- Generator: Adobe Illustrator 18.1.1, SVG Export Plug-In . SVG Version: 6.00 Build 0)  -->
<svg version="1.1" id="Layer_1" xmlns="http://www.w3.org/2000/svg" xmlns:xlink="http://www.w3.org/1999/xlink" x="0px" y="0px"
	 width="144px" height="144px" viewBox="57 -55 144 144" enable-background="new 57 -55 144 144" xml:space="preserve">
<path fill="#B3B3B3" d="M129-55c-39.8,0-72,32.2-72,72s32.2,72,72,72s72-32.2,72-72S168.8-55,129-55z"/>
<g>
	<g>
		<path fill="#FFFFFF" d="M162.3,36.8L151.5,26c-2-2-5.8-2-7.9,0.3l-5.6,5.6c-0.3-0.3-0.6-0.6-0.9-0.6c-3.5-2-8.2-4.4-13.2-9.4
			s-7.6-9.6-9.4-13.2c-0.3-0.6-0.6-0.9-0.6-1.2l3.5-3.5l1.8-1.8c2.3-2.3,2.3-5.8,0.3-7.9l-10.8-10.8c-2-2-5.8-2-7.9,0.3L97.9-13l0,0
			c-0.9,1.2-1.8,2.9-2.6,4.4c-0.6,1.5-0.9,2.9-1.2,4.4c-1.3,11.8,4.2,22.6,18.8,37.5C133.1,53.5,149.4,52,150.3,52
			c1.5-0.3,2.9-0.6,4.4-1.2c1.8-0.6,3.2-1.5,4.4-2.6l0,0l3.2-2.9C164.4,42.6,164.7,39.1,162.3,36.8z"/>
	</g>
</g>
</svg>
