<?xml version="1.0" encoding="utf-8"?>
<!-- Generator: Adobe Illustrator 18.1.1, SVG Export Plug-In . SVG Version: 6.00 Build 0)  -->
<svg version="1.1" id="Layer_1" xmlns="http://www.w3.org/2000/svg" xmlns:xlink="http://www.w3.org/1999/xlink" x="0px" y="0px"
	 width="144px" height="144px" viewBox="57 -55 144 144" enable-background="new 57 -55 144 144" xml:space="preserve">
<path fill="#B3B3B3" d="M129-55c-39.8,0-72,32.2-72,72s32.2,72,72,72s72-32.2,72-72S168.8-55,129-55z"/>
<path fill="#FFFFFF" d="M162-19.4c1.8,0,3.6,1.8,3.6,3.6v66.1c0,1.8-1.8,3.6-3.6,3.6H95.6c-2.1,0-3.6-1.8-3.6-3.6v-66.1
	c0-1.8,1.4-3.6,3.6-3.6L162-19.4 M162-25.9H95.6c-5.4,0-9.6,4.3-9.6,10v66.1c0,5.4,4.3,9.6,9.6,9.6H162c5.4,0,10-4.3,10-10v-65.7
	C171.7-21.6,167.4-25.9,162-25.9L162-25.9z"/>
<g>
	<path fill="#FFFFFF" d="M118.3,32.5h5.4l1.1,2.9h3.2l-5-14.3h-3.6l-5,14.3h3.2L118.3,32.5z M120.8,24.2L120.8,24.2l1.8,5.7H119
		L120.8,24.2z M113.3,31c0-1.4-0.4-2.9-2.1-3.6c0.7-0.4,1.8-0.7,1.8-2.9c0-1.4-0.7-3.6-4.3-3.6h-7.1v14.3h6.1c2.9,0,3.6-0.4,4.6-1.4
		C112.9,33.2,113.3,32.2,113.3,31L113.3,31z M104.3,23.5h3.6c1.4,0,2.1,0.4,2.1,1.4c0,1.1-1.1,1.4-2.1,1.4h-3.6V23.5z M107.9,32.8
		h-3.6v-3.9h3.9c1.1,0,2.1,0.4,2.1,1.8C110.4,32.2,109.4,32.8,107.9,32.8L107.9,32.8z M150.4,27.1l6.1,8.2h-3.9l-4.3-6.1l-1.4,1.4
		v4.6H144V21h2.9v5.7l5.4-5.7h3.9L150.4,27.1z M114,43.2c0-1.4-0.4-1.4-1.1-1.8c0.7-0.4,1.1-1.1,1.1-1.8s-0.4-2.1-2.1-2.1h-3.6v7.1
		h1.4v-2.9h1.4c1.1,0,1.1,0.4,1.1,1.4c0,0.7,0,1.1,0,1.4h1.8l0,0C114,44.8,114,44.2,114,43.2L114,43.2z M111.5,40.8h-1.8V39h1.8
		c0.7,0,1.1,0.7,1.1,1.1C112.9,40.3,112.6,40.8,111.5,40.8L111.5,40.8z M116.5,8.9c0-0.4,0-0.7,0-1.1s0-1.1,0-1.4
		c0-0.7,0-1.1,0.4-1.8s0.4-1.4,0.7-2.1c0.4-0.4,0.4-0.7,0.7-1.1c0-0.4,0.4-0.7,0.7-1.1c0.4-0.7,1.1-1.4,1.4-1.8
		c0.4-0.7,1.1-1.1,1.4-1.8c0.7-0.4,1.1-1.1,1.8-1.4s1.4-0.7,2.1-0.7c0.7-0.4,1.1-0.7,1.8-0.7c0.7-0.4,1.8-0.7,2.1-0.7
		c-0.4-0.7-0.4-1.4-0.7-2.1c0-0.7-0.4-1.4-0.4-2.5c0.7,0.4,1.4,0.7,2.1,1.1c0.7,0.4,1.4,0.7,1.8,1.1c1.1,0.7,2.1,1.8,2.9,2.9
		c0.7,0.7,0.7,1.8,0.4,2.9l0,0c-0.7,1.4-1.8,2.5-2.9,3.9c-0.7,0.7-1.1,1.1-1.8,1.4c-0.4,0.4-0.7,0.4-1.1,0.7
		c-0.4,0.4-0.7,0.4-1.4,0.7c0-0.4,0-1.1,0-1.4s0-0.7,0-1.4s0.4-1.8,0.7-2.5c0,0,0,0,0-0.4c-0.4,0-0.7,0-0.7,0c-0.4,0-1.1,0-1.4,0.4
		c-0.7,0-1.1,0.4-1.8,0.4c-0.7,0.4-1.1,0.4-1.8,0.7s-1.1,0.7-1.8,1.1c-0.4,0.7-1.1,1.1-1.4,1.8c-0.4,0-0.7,0.4-0.7,0.7
		c-0.4,0-0.4,0.4-0.7,0.7s-0.7,1.1-1.1,1.4c0,0.7-0.4,1.1-0.4,1.8c0,0.4-0.4,1.1-0.4,1.4C116.9,8.1,116.9,8.5,116.5,8.9
		c0,0.7,0,1.1,0,1.1S116.5,9.6,116.5,8.9L116.5,8.9z M101.5,37.5h6.1V39h-2.1v6h-1.8v-6h-2.1L101.5,37.5L101.5,37.5z M117.6,37.5
		l-2.5,7.1h1.4l0.4-1.4h2.5l0.4,1.4h2.1l-2.5-7.1H117.6z M117.6,42.2l0.7-2.9l0,0l1.1,2.9H117.6z M130.8,13.1
		c-0.7,0.4-1.1,0.7-1.8,0.7c-0.7,0.4-1.4,0.7-2.1,0.7c0.4,0.7,0.4,1.4,0.7,2.1c0.4,0.7,0.4,1.4,0.4,2.5c-0.7-0.4-1.4-0.4-2.1-0.7
		c-0.7-0.4-1.4-0.7-1.8-1.1c-1.1-0.7-2.1-1.8-3.2-2.9c-0.7-1.1-0.7-2.1-0.4-2.9v-0.4c0.7-1.4,1.8-2.5,2.9-3.9
		c0.7-0.7,1.1-1.1,1.8-1.8c0.4-0.4,0.7-0.4,1.1-0.7c0.4-0.4,0.7-0.4,1.4-0.7c0,0.4,0,1.1,0,1.4c0,0.4,0,0.7,0,1.4s-0.4,1.8-0.7,2.5
		c0,0,0,0,0,0.4c0.4,0,0.7,0,0.7,0c0.4,0,1.1-0.4,1.4-0.4c0.7,0,1.1-0.4,1.8-0.7c0.7-0.4,1.1-0.4,1.8-0.7c0.4-0.4,1.1-0.7,1.8-1.1
		c0.4-0.4,1.1-0.7,1.4-1.4c0.4,0,0.7-0.4,0.7-0.7c0.4-0.4,0.4-0.4,0.7-0.7c0.4-0.4,0.7-1.1,1.1-1.8c0.4-0.4,0.4-1.1,0.7-1.4
		c0-0.4,0.4-1.1,0.4-1.4s0-0.7,0.4-1.1c0-0.7,0-1.1,0-1.1s0,0.4,0,1.1c0,0.4,0,0.7,0,1.1s0,1.1,0,1.4c0,0.7,0,1.1-0.4,1.8
		c0,0.7-0.4,1.4-0.7,2.1c0,0.4-0.4,0.7-0.4,1.1s-0.4,0.7-0.7,1.1c-0.4,0.7-0.7,1.1-1.4,1.8c-0.4,0.7-1.1,1.1-1.8,1.8
		c-0.7,0.4-1.1,1.1-1.8,1.4C131.9,12.4,131.5,12.8,130.8,13.1L130.8,13.1z M136.9,37.5h5V39h-3.6v1.8h3.2v1.4h-3.2v3.2h-1.4V37.5z
		 M127.2,37.5h1.4v7.1h-1.4l-2.9-5l0,0v5h-1.4v-7.1h1.4l2.9,5l0,0C127.2,42.5,127.2,37.5,127.2,37.5z M155.4,43.2
		c0-1.4-0.4-1.4-1.1-1.8c0.7-0.4,1.1-1.1,1.1-1.8s-0.4-2.1-2.1-2.1h-3.6v7.1h1.4v-2.9h1.4c1.1,0,1.1,0.4,1.1,1.4c0,0.7,0,1.1,0,1.4
		h1.8l0,0C155.4,44.8,155.4,44.2,155.4,43.2L155.4,43.2z M152.9,40.8h-1.8V39h1.8c0.7,0,1.1,0.7,1.1,1.1
		C154,40.3,153.7,40.8,152.9,40.8L152.9,40.8z M135.8,42.5c0,2.1-2.1,2.5-2.9,2.5c-2.5,0-3.2-1.4-3.2-2.5h1.4c0,0.4,0.4,1.1,1.4,1.1
		c0.7,0,1.4,0,1.4-1.1c0-0.7-0.7-0.7-1.4-1.1l-0.7-0.4c-1.1-0.4-2.1-0.4-2.1-2.1c0-0.7,0.4-2.1,2.9-2.1c2.1,0,2.9,1.4,2.9,2.5H134
		c0-0.4,0-1.1-1.4-1.1c-0.7,0-1.4,0.4-1.4,0.7c0,0.7,0.4,0.7,0.7,0.7l1.8,0.4C134.7,41,135.8,41.5,135.8,42.5L135.8,42.5z
		 M144.4,43.5h3.9V45h-5.4v-7.1h5.4v1.4h-3.9v1.4h3.6v1.4h-3.6V43.5z M132.2,35.3h-2.9V21h3.2l5.7,10l0,0V21h2.9v14.3h-2.9l-5.7-10
		l0,0v10H132.2z"/>
</g>
</svg>
