<?xml version="1.0" encoding="utf-8"?>
<!-- Generator: Adobe Illustrator 18.1.1, SVG Export Plug-In . SVG Version: 6.00 Build 0)  -->
<svg version="1.1" id="Layer_1" xmlns="http://www.w3.org/2000/svg" xmlns:xlink="http://www.w3.org/1999/xlink" x="0px" y="0px"
	 width="144px" height="144px" viewBox="57 -55 144 144" enable-background="new 57 -55 144 144" xml:space="preserve">
<path fill="#B3B3B3" d="M129-55c-39.8,0-72,32.2-72,72s32.2,72,72,72s72-32.2,72-72S168.8-55,129-55z"/>
<g>
	<path fill="#FFFFFF" d="M95.8,27.5h6.4c0,0,6.4-0.2,6.4,5.7c0,4.3-6.3,5.1-6.3,5.1h-6.6L95.8,27.5L95.8,27.5z M115.1,48.6
		c0.2,0.9,0.8,1.8,2.9,1.8c2.8,0,4.3-0.9,4.3-0.9v2c0,0-2.9,0.8-4.5,0.8c-1.5,0-6-0.3-6-4.5c0-3.4,3.7-4.3,5.7-4.3
		c3.7,0.2,5.4,1.4,5.4,5.1C123.1,48.6,117.1,48.6,115.1,48.6L115.1,48.6z M115.1,46.9h5.1c0,0,0-1.8-2.5-1.8
		C116,45,115.4,45.9,115.1,46.9L115.1,46.9z M131.1,44.9c0.8-0.8,2-1.4,4-1.4c4,0,4.8,3.4,4.6,4.3c0,0.9-0.5,4.3-5.1,4.3
		c-1.8,0-2.9-0.6-3.5-1.4v1.1h-3.2V40.1h3.2V44.9L131.1,44.9z M133.7,50.2c1.8,0,2.8-1.7,2.8-2.5c0-0.8-0.5-2.5-2.9-2.5
		c-1.8,0-2.5,1.4-2.6,2.1v0.9C131.1,49,131.8,50.2,133.7,50.2L133.7,50.2z M161.2,49.9v1.8c0,0-1.5,0.3-2.5,0.3
		c-0.9,0-3.5-0.6-3.5-3.1c0-1.1,0-2.5,0-3.8h-2.6v-1.7h2.6c0-1.2,0-2,0-2h3.2v2h2.6v1.7h-2.6v3.2c0,0,0,1.7,1.2,1.7
		C161.2,50.1,161.2,49.9,161.2,49.9L161.2,49.9z M151.3,29.2h3.8v9.1h3.2v-9.1h3.8v-1.8h-10.7v1.8H151.3z M150.3,29.7l0.5-1.8
		c0,0-1.7-0.8-4.5-0.8c-2.8,0-7.2,1.5-7.2,5.8c0,4.1,4.8,5.5,7.7,5.5s3.8-0.5,3.8-0.5l-0.3-2.1c0,0-1.2,0.5-3.5,0.5
		c-2.1,0-4.3-1.7-4.3-3.7c0-1.7,2-3.5,4.6-3.5C148.7,29.1,150.3,29.7,150.3,29.7L150.3,29.7z M121.2,27.4c0,0,5.4-0.3,5.4,2.9
		c0,2.6-3.1,2.9-3.1,2.9s0.9,0.2,1.2,0.8c0.3,0.5,2.5,4.5,2.5,4.5H124c0,0-0.5-0.6-0.8-1.1c-0.2-0.5-0.8-1.4-0.8-1.4s-0.5-1.7-2-1.7
		c0,0-0.6,0-1.2,0v4.1h-3.1V27.5L121.2,27.4L121.2,27.4z M119.2,32.3h1.7c0,0,2.3-0.2,2.5-1.5c0-1.4-2.3-1.5-2.3-1.5h-1.8V32.3
		L119.2,32.3z M132.3,34h5.2v-2h-5.2v-2.5h5.7v-2.1h-8.9v10.9h8.9v-2h-5.7V34L132.3,34z M145,42.3h3.2v-2.1H145V42.3L145,42.3z
		 M145,51.8h3.2v-8.3H145V51.8L145,51.8z M110.3,38.3h3.1V27.4h-3.1V38.3L110.3,38.3z M95.8,41h6.4c0,0,6.4-0.2,6.4,5.7
		c0,4.3-6.3,5.1-6.3,5.1h-6.6L95.8,41L95.8,41z M98.8,49.8h2.1c0,0,4.3-0.3,4.3-3.5c0-3.4-4.6-3.7-4.6-3.7h-1.8L98.8,49.8L98.8,49.8
		z M98.8,36.3h2.1c0,0,4.3-0.3,4.3-3.5c0-3.4-4.6-3.7-4.6-3.7h-1.8L98.8,36.3L98.8,36.3z"/>
	<path fill="#FFFFFF" d="M130.3-3.3v21.8c0,0-12.6-2.3-12.6-10.9C117.7,0.6,127.1-2.4,130.3-3.3L130.3-3.3z M130.3-3.7
		c-7.5-0.6-24.7,3.1-24.7,10.7c0,5.1,9.1,12.4,24,12.7c0.6,0,17.5-0.6,17.2-18.7c-0.3-15.4-11.7-18-15.4-18.4v-0.9
		c14.4,0.9,26,9.7,26,20.3c0,11.2-12.7,20.3-28.4,20.3S100.5,13.2,100.5,2s12.7-20.3,28.4-20.3c0.5,0,0.9,0,1.4,0V-3.7L130.3-3.7z"
		/>
</g>
</svg>
