<?xml version="1.0" encoding="utf-8"?>
<!-- Generator: Adobe Illustrator 18.1.1, SVG Export Plug-In . SVG Version: 6.00 Build 0)  -->
<svg version="1.1" id="Layer_1" xmlns="http://www.w3.org/2000/svg" xmlns:xlink="http://www.w3.org/1999/xlink" x="0px" y="0px"
	 viewBox="0 0 612 792" enable-background="new 0 0 612 792" xml:space="preserve">
<g id="Layer_1_1_" display="none">
	<path display="inline" fill="#066C8E" d="M-289.5,5001.2c3.8-3.8,11.3-7.5,15-7.5H-0.4c7.5,0,11.3,3.8,15,7.5
		c3.8,3.8,7.5,11.3,7.5,18.8v221.5c0,7.5,3.8,15,7.5,22.5c7.5,7.5,15,7.5,22.5,7.5h221.5c7.5,0,11.3,3.8,18.8,7.5
		c3.8,3.8,7.5,11.3,7.5,15v525.6c0,7.5-3.8,11.3-7.5,15c-3.8,3.8-11.3,7.5-18.8,7.5h-551.9c-7.5,0-11.3-3.8-15-7.5
		c-3.8-3.8-7.5-11.3-7.5-15v-803.5C-297,5008.7-293.2,5005-289.5,5001.2z"/>
	<path display="inline" fill="#066C8E" d="M101,5204h195.2c3.8,0,7.5-3.8,7.5-7.5v-41.3c0-3.8,0-3.8-3.8-7.5l-157.7-153.9
		c-3.8-3.8-3.8-3.8-7.5-3.8H97.2c-3.8,0-7.5,3.8-7.5,7.5v195.2C93.5,5200.2,93.5,5204,101,5204L101,5204z"/>
</g>
<g>
	<path fill="#006B8D" d="M604.2,255.6H56c-37.5,0-75.1,26.3-82.6,60.1l-90.1,360.4h683.3l90.1-360.4
		C664.3,285.7,641.8,255.6,604.2,255.6z"/>
	<path fill="#006B8D" d="M52.3,229.3h506.9c-11.3-22.5-33.8-37.5-63.8-37.5H149.9l-48.8-90.1h-217.8c-37.5,0-71.3,33.8-71.3,71.3
		v435.5c0,30,18.8,52.6,41.3,63.8l90.1-360.4C-45.3,263.1,3.5,229.3,52.3,229.3z"/>
</g>
</svg>
