<?xml version="1.0" encoding="utf-8"?>
<!-- Generator: Adobe Illustrator 17.1.0, SVG Export Plug-In . SVG Version: 6.00 Build 0)  -->
<!DOCTYPE svg PUBLIC "-//W3C//DTD SVG 1.1//EN" "http://www.w3.org/Graphics/SVG/1.1/DTD/svg11.dtd">
<svg version="1.1" id="Layer_1" xmlns="http://www.w3.org/2000/svg" xmlns:xlink="http://www.w3.org/1999/xlink" x="0px" y="0px"
	 viewBox="0 0 500 500" enable-background="new 0 0 500 500" xml:space="preserve">
<path fill="#E7E7E7" d="M250,0C111.9,0,0,111.9,0,250s111.9,250,250,250s250-111.9,250-250S388.1,0,250,0z M316.6,344.9
	c0,0-49.3,78.4-111.9,75.6c0,0-47.4-8.4-30.4-55.3c17-47,59.9-143.6,59.9-143.6s13.2-23.5-8.9-19.6c0,0-20.3,3.2-46,43.6
	c0,0-6.8,9.7-13.8,5.9c0,0-7.7-3.6-1.4-13c0,0,43.4-68.3,105.5-65.6c0,0,51,0.3,30.4,62.1l-47,114.6c0,0-11,23.9,5.1,27.2
	c0,0,16.6,5.5,44.2-42.3c0,0,5.5-10.1,14.3-6C316.6,328.3,325.2,333.4,316.6,344.9z M300.1,154.3c-21.1,0-38.2-16.6-38.2-37.1
	s17.1-37.1,38.2-37.1c21.1,0,38.2,16.6,38.2,37.1S321.2,154.3,300.1,154.3z"/>
</svg>
