<?xml version="1.0" encoding="utf-8"?>
<!-- Generator: Adobe Illustrator 18.0.0, SVG Export Plug-In . SVG Version: 6.00 Build 0)  -->
<!DOCTYPE svg PUBLIC "-//W3C//DTD SVG 1.1//EN" "http://www.w3.org/Graphics/SVG/1.1/DTD/svg11.dtd">
<svg version="1.1" xmlns="http://www.w3.org/2000/svg" xmlns:xlink="http://www.w3.org/1999/xlink" x="0px" y="0px"
	 viewBox="0 123.3 595.3 595.3" enable-background="new 0 123.3 595.3 595.3" xml:space="preserve" width="16px" height="16px">
<g id="Layer_1" display="none">
	<path display="inline" fill="#066C8E" d="M6.7,6.5c4.5-4.2,9.9-6.4,16.5-6.4h272.6c6.4,0,12,2,16.5,6.2s6.7,9.8,6.7,16.8v219.4
		c0,9.1,3,16.7,9.3,22.7c6.1,6.1,13.6,9.3,22.7,9.3h220.4c7.1,0,13,2.2,17.3,6.7c4.5,4.5,6.7,9.9,6.7,16.5v520.9
		c0,6.4-2.2,12-6.7,16.5c-4.5,4.5-10.3,6.7-17.3,6.7H23.2c-6.4,0-12-2.2-16.5-6.7c-4.5-4.5-6.7-9.9-6.7-16.5V23.3
		C0,16.2,2.2,10.7,6.7,6.5z"/>
	<path display="inline" fill="#066C8E" d="M393.3,208.8h194.3c5.2,0,7.7-2.5,7.7-7.7v-40.6c0-1.9-1-3.9-2.9-5.7L437.7,2.9
		c-1.9-1.9-3.9-2.9-5.7-2.9h-38.7c-5.2,0-7.7,2.9-7.7,8.8v192.3C385.5,206.3,388,208.8,393.3,208.8L393.3,208.8z"/>
</g>
<g id="Layer_2">
	<g id="Layer_1_1_">
		<g>
			<g>
				<path fill="#006B8D" d="M474.2,231.8c27.8,0,50.4,0,50.4,0L423.8,123.4v54.1C423.8,207.5,446.2,231.8,474.2,231.8z"/>
			</g>
			<g>
				<g>
					<g>
						<g>
							<path fill="#006B8D" d="M467.3,257.9c-31.4,0-69.9-40.1-69.9-73.6c0-33.6,0-61,0-61H137c-36.3,0.2-65.7,29.7-65.7,65.9v175
								v288.6c0,36.3,29.4,65.7,65.7,65.7h321.6c36.3,0,65.7-29.4,65.7-65.7v-395H467.3z"/>
						</g>
					</g>
				</g>
			</g>
		</g>
	</g>
</g>
</svg>
