<?xml version="1.0" encoding="utf-8"?>
<!-- Generator: Adobe Illustrator 18.0.0, SVG Export Plug-In . SVG Version: 6.00 Build 0)  -->
<!DOCTYPE svg PUBLIC "-//W3C//DTD SVG 1.1//EN" "http://www.w3.org/Graphics/SVG/1.1/DTD/svg11.dtd">
<svg version="1.1" id="Layer_2_1_" xmlns="http://www.w3.org/2000/svg" xmlns:xlink="http://www.w3.org/1999/xlink" x="0px" y="0px"
	 viewBox="0 123.3 595.3 595.3" enable-background="new 0 123.3 595.3 595.3" xml:space="preserve" width="16px" height="16px">
<path fill="#006B8D" d="M473.9,231.9c27.8,0,50.4,0,50.4,0L423.5,123.5v54.1C423.5,207.6,445.9,231.9,473.9,231.9z"/>
<path fill="#006B8D" d="M467,257.9v0.1c-31.4,0-69.9-40.1-69.9-73.6c0-33.6,0-61,0-61H136.7c-36.3,0.2-65.7,29.7-65.7,65.9v175
	v288.6c0,36.3,29.4,65.7,65.7,65.7h321.6c36.3,0,65.7-29.4,65.7-65.7v-395H467z M150.1,171h189.3c8.6,0,15.5,6.9,15.5,15.5
	S348,202,339.4,202H150.1c-8.6,0-15.5-6.9-15.5-15.5S141.5,171,150.1,171z M150.1,239.5h189.3c8.6,0,15.5,6.9,15.5,15.5
	c0,8.6-6.9,15.5-15.5,15.5H150.1c-8.6,0-15.5-6.9-15.5-15.5C134.6,246.4,141.5,239.5,150.1,239.5z M150.1,307.1h293.5
	c8.6,0,15.5,6.9,15.5,15.5s-6.9,15.5-15.5,15.5H150.1c-8.6,0-15.5-6.9-15.5-15.5S141.5,307.1,150.1,307.1z M445.1,678.5h-295
	c-8.6,0-15.5-6.9-15.5-15.5s6.9-15.5,15.5-15.5h295c8.6,0,15.5,6.9,15.5,15.5S453.7,678.5,445.1,678.5z M445.1,610.4h-295
	c-8.6,0-15.5-6.9-15.5-15.5s6.9-15.5,15.5-15.5h295c8.6,0,15.5,7,15.5,15.5C460.6,603.5,453.7,610.4,445.1,610.4z M445.1,542h-295
	c-8.6,0-15.5-6.9-15.5-15.5s6.9-15.5,15.5-15.5h295c8.6,0,15.5,6.9,15.5,15.5S453.7,542,445.1,542z M445.1,473.9h-295
	c-8.6,0-15.5-6.9-15.5-15.5s6.9-15.5,15.5-15.5h295c8.6,0,15.5,6.9,15.5,15.5S453.7,473.9,445.1,473.9z M445.1,405.8h-295
	c-8.6,0-15.5-6.9-15.5-15.5c0-8.6,6.9-15.5,15.5-15.5h295c8.6,0,15.5,6.9,15.5,15.5C460.6,398.9,453.7,405.8,445.1,405.8z"/>
<g id="Layer_2">
</g>
</svg>
