<?xml version="1.0" encoding="utf-8"?>
<!-- Generator: Adobe Illustrator 18.0.0, SVG Export Plug-In . SVG Version: 6.00 Build 0)  -->
<!DOCTYPE svg PUBLIC "-//W3C//DTD SVG 1.1//EN" "http://www.w3.org/Graphics/SVG/1.1/DTD/svg11.dtd">
<svg version="1.1" id="Layer_1" xmlns="http://www.w3.org/2000/svg" xmlns:xlink="http://www.w3.org/1999/xlink" x="0px" y="0px"
	 viewBox="0 123.3 595.3 595.3" enable-background="new 0 123.3 595.3 595.3" xml:space="preserve" width="16px" height="16px">
<path fill="#006B8D" d="M536.2,568.6H280.5c-32.6,0-59.1,26.4-59.1,59.1s26.4,59.1,59.1,59.1h255.7c32.6,0,59.1-26.4,59.1-59.1
	C595.3,595,568.8,568.6,536.2,568.6z"/>
<path fill="#006B8D" d="M536.2,361.9H280.5c-32.6,0-59.1,26.4-59.1,59.1s26.4,59.1,59.1,59.1h255.7c32.6,0,59.1-26.4,59.1-59.1
	S568.8,361.9,536.2,361.9z"/>
<path fill="#006B8D" d="M536.2,155.2H280.5c-32.6,0-59.1,26.4-59.1,59.1s26.4,59.1,59.1,59.1h255.7c32.6,0,59.1-26.4,59.1-59.1
	S568.8,155.2,536.2,155.2z"/>
<circle fill="#006B8D" cx="73.8" cy="627.6" r="73.8"/>
<circle fill="#006B8D" cx="73.8" cy="420.9" r="73.8"/>
<circle fill="#006B8D" cx="73.8" cy="214.3" r="73.8"/>
</svg>
