<?xml version="1.0" encoding="utf-8"?>
<!-- Generator: Adobe Illustrator 18.0.0, SVG Export Plug-In . SVG Version: 6.00 Build 0)  -->
<!DOCTYPE svg PUBLIC "-//W3C//DTD SVG 1.1//EN" "http://www.w3.org/Graphics/SVG/1.1/DTD/svg11.dtd">
<svg version="1.1" id="Layer_1" xmlns="http://www.w3.org/2000/svg" xmlns:xlink="http://www.w3.org/1999/xlink" x="0px" y="0px"
	 width="44px" height="44px" viewBox="0 0 44 44" enable-background="new 0 0 44 44" xml:space="preserve">
<rect x="7" y="14.3" fill="#FFFFFF" width="29.1" height="15.4"/>
<g>
	<path fill="#006B8D" d="M11.7,22.6c-0.5,0-0.9,0.2-1.3,0.6c-0.3,0.4-0.5,1-0.5,1.7s0.2,1.3,0.5,1.7s0.7,0.6,1.2,0.6s1-0.2,1.3-0.6
		s0.5-1,0.5-1.7s-0.2-1.3-0.5-1.7C12.6,22.8,12.2,22.6,11.7,22.6z"/>
	<path fill="#006B8D" d="M32,22.8h-0.4v1.9h0.3c0.9,0,1.4-0.4,1.4-1.1C33.2,23,32.8,22.8,32,22.8z"/>
	<path fill="#006B8D" d="M33.8,18.1c0-0.4-0.1-0.8-0.3-1.1c-0.1-0.2-0.3-0.3-0.5-0.4s-0.5-0.1-0.8-0.1h-0.6v3.3h0.7
		c0.5,0,0.9-0.1,1.1-0.4C33.6,19,33.8,18.6,33.8,18.1z"/>
	<path fill="#006B8D" d="M41.9,23.6l2-1.6l-2-1.6l1.8-1.9l-2.3-1.2l1.5-2.1l-2.4-0.9l1.1-2.3l-2.5-0.5L39.8,9h-2.7l0.3-2.5l-2.5,0.3
		l-0.1-2.6l-2.5,0.7l-0.4-2.5l-2.3,1.1l-0.9-2.4l-2.1,1.5l-1.2-2.3L23.5,2l-1.6-2l-1.6,2l-1.9-1.8l-1.2,2.3L15.1,1l-0.9,2.4l-2.3-1
		l-0.5,2.5L9,4.2L8.9,6.8L6.3,6.4L6.7,9L4.1,9.1l0.7,2.5L2.3,12l1.1,2.3L1,15.2l1.5,2.1l-2.3,1.2l1.7,1.9l-2,1.6l2,1.6l-1.8,1.9
		l2.3,1.2l-1.5,2.1l2.4,0.9l-1,2.3l2.5,0.5L4.1,35h2.6l-0.3,2.6l2.5-0.4L9,39.8l2.5-0.7l0.5,2.5l2.3-1.1l0.9,2.4l2.1-1.5l1.2,2.3
		l1.9-1.8l1.6,2l1.6-2l1.9,1.8l1.2-2.3l2.1,1.5l0.9-2.4l2.3,1.1l0.5-2.5l2.5,0.7l0.1-2.6l2.6,0.3L37.1,35l2.6-0.1L39,32.4l2.5-0.5
		l-1.1-2.3l2.4-0.9l-1.5-2.1l2.3-1.2L41.9,23.6z M12.7,15.8h0.9v4.5h-0.9V15.8z M9.1,15.8H10v3.9h2v0.6H9v-4.5H9.1z M13.9,27.3
		c-0.6,0.6-1.3,0.8-2.3,0.8c-0.9,0-1.6-0.3-2.2-0.9c-0.5-0.6-0.8-1.3-0.8-2.3s0.3-1.7,0.8-2.3c0.5-0.6,1.3-0.9,2.2-0.9
		s1.7,0.3,2.2,0.9c0.6,0.6,0.8,1.3,0.8,2.3C14.7,25.9,14.4,26.7,13.9,27.3z M15.6,20.4h-0.7v-4.5h1.2l1.1,3.2l1.1-3.2h1.1v4.5h-0.9
		V17l-1.1,3.1h-0.8l-1.1-3.2L15.6,20.4L15.6,20.4z M19.6,22.8h-2.5v1.8h2.1v0.8h-2.1V28h-1.3v-6h3.8V22.8z M30.6,15.8h1.9
		c0.7,0,1.2,0.2,1.6,0.6c0.4,0.4,0.6,0.9,0.6,1.6s-0.2,1.3-0.6,1.7c-0.4,0.4-0.9,0.6-1.7,0.6h-1.9v-4.5H30.6z M20.5,15.8h0.9v4.5
		h-0.9V15.8z M24.4,22.8h-2.5v1.8H24v0.8h-2.1V28h-1.3v-6h3.8V22.8z M24.6,20.4h-0.9v-3.9h-1.6v-0.6h4.2v0.6h-1.6L24.6,20.4
		L24.6,20.4z M29.3,28h-3.9v-6h3.8v0.8h-2.5v1.7h2.1v0.8h-2.1v1.9h2.7V28H29.3z M29.9,20.4h-3v-4.5h2.8v0.6h-1.9v1.3h1.5v0.6h-1.5
		v1.4h2v0.6H29.9z M33.7,28l-1.5-2.5h-0.7V28h-1.2v-6h2.3c1.2,0,1.8,0.5,1.8,1.5c0,0.4-0.1,0.7-0.3,1s-0.5,0.5-0.9,0.7l2,2.8H33.7z"
		/>
</g>
</svg>
