<?xml version="1.0" encoding="utf-8"?>
<!-- Generator: Adobe Illustrator 17.1.0, SVG Export Plug-In . SVG Version: 6.00 Build 0)  -->
<!DOCTYPE svg PUBLIC "-//W3C//DTD SVG 1.1//EN" "http://www.w3.org/Graphics/SVG/1.1/DTD/svg11.dtd">
<svg version="1.1" id="Layer_1" xmlns="http://www.w3.org/2000/svg" xmlns:xlink="http://www.w3.org/1999/xlink" x="0px" y="0px"
	 viewBox="0 0 350.9 500" enable-background="new 0 0 350.9 500" xml:space="preserve" width="16px" height="24px">
<path fill="#4D4D4D" d="M175.5,0C78.6,0,0,78.6,0,175.5c0,7.4,0.6,14.6,1.5,21.8c15,137,162.6,295,162.6,295
	c2.6,2.9,5.2,4.8,7.6,6.1l0.1,0.1l4.9,1.5l4.9-1.5l0.1-0.1c2.4-1.3,5-3.2,7.6-6.1c0,0,145.5-158.2,160.1-295.3
	c0.9-7.1,1.5-14.2,1.5-21.5C350.9,78.6,272.4,0,175.5,0z M175.5,288.3c-62.2,0-112.9-50.6-112.9-112.9S113.2,62.6,175.5,62.6
	s112.8,50.6,112.8,112.9S237.7,288.3,175.5,288.3z"/>
</svg>
