<?xml version="1.0" encoding="utf-8"?>
<!-- Generator: Adobe Illustrator 18.1.1, SVG Export Plug-In . SVG Version: 6.00 Build 0)  -->
<svg version="1.1" id="Layer_1" xmlns="http://www.w3.org/2000/svg" xmlns:xlink="http://www.w3.org/1999/xlink" x="0px" y="0px"
	 width="16px" height="16px" viewBox="0 0 16 16" enable-background="new 0 0 16 16" xml:space="preserve">
<rect x="7.9" y="8" fill="#010202" width="0.3" height="0"/>
<path fill="#949494" d="M13.1,6.7h-0.7h-0.3v0V5.9V4.3C12.2,1.9,10.3,0,8,0C5.7,0,3.8,1.9,3.8,4.3v1.6v0.8H3.6H2.9
	c-0.3,0-0.6,0.3-0.6,0.6v7.2c0,0.8,0.6,1.4,1.3,1.5c0.1,0,0.1,0,0.2,0h8.4c0.1,0,0.1,0,0.2,0c0.7-0.1,1.3-0.7,1.3-1.5V7.3
	C13.7,6.9,13.5,6.7,13.1,6.7z M5,5.9V4.3c0-1.7,1.3-3.1,3-3.1l0,0c0,0,0,0,0,0c1.6,0,3,1.4,3,3.1v1.6v0.8v0H5V5.9z M8.6,12.6
	c0,0.3-0.3,0.6-0.6,0.6c-0.3,0-0.6-0.3-0.6-0.6v-2.2C7.4,10,7.7,9.7,8,9.7c0.3,0,0.6,0.3,0.6,0.6V12.6z"/>
</svg>
