<?xml version="1.0" encoding="utf-8"?>
<!-- Generator: Adobe Illustrator 18.0.0, SVG Export Plug-In . SVG Version: 6.00 Build 0)  -->
<!DOCTYPE svg PUBLIC "-//W3C//DTD SVG 1.1//EN" "http://www.w3.org/Graphics/SVG/1.1/DTD/svg11.dtd">
<svg version="1.1" id="Layer_1" xmlns="http://www.w3.org/2000/svg" xmlns:xlink="http://www.w3.org/1999/xlink" x="0px" y="0px"
	 viewBox="0 123.3 595.3 595.3" enable-background="new 0 123.3 595.3 595.3" xml:space="preserve" width="16px" height="16px">
<g id="Layer_2">
</g>
<g>
	<path fill="#006B8D" d="M400.3,615.8c51,0,92.3-41.3,92.4-92.3V215.7c0-51.1-41.4-92.4-92.4-92.4H92.4C41.3,123.3,0,164.6,0,215.7
		v307.9c0,51,41.3,92.3,92.4,92.3H400.3z M92.4,154.1c16.9,0,30.8,13.8,30.8,30.8s-13.8,30.8-30.8,30.8S61.6,202,61.6,185
		S75.4,154.1,92.4,154.1z M61.6,523.5v-277H431h0.1v277c0,17-13.8,30.8-30.8,30.8H92.4C75.4,554.3,61.6,540.5,61.6,523.5z"/>
	<path fill="#006B8D" d="M184.5,431.2h30.8V462c0,17,13.8,30.8,30.8,30.8S277,479,277,462v-30.8h30.8c17,0,30.7-13.8,31-30.7
		c0-17-13.8-30.8-30.8-30.8h-30.8v-30.8c0-17-13.8-30.8-30.8-30.8s-30.8,13.8-30.8,30.8v30.7h-31c-17,0-30.8,13.8-30.8,30.8
		S167.5,431.2,184.5,431.2z"/>
	<path fill="#006B8D" d="M564.4,236.2c-17,0-30.8,13.8-30.8,30.8v358.2c0,17-13.8,30.8-30.8,30.8H120c-0.8-0.1-1.8-0.1-2.6-0.1
		c-17,0-30.8,13.8-30.8,30.8c0,17,13.8,30.8,30.8,30.8h385.5c51,0,92.4-41.3,92.4-92.4V267C595.3,250,581.5,236.2,564.4,236.2z"/>
</g>
</svg>
