<?xml version="1.0" encoding="utf-8"?>
<!-- Generator: Adobe Illustrator 18.0.0, SVG Export Plug-In . SVG Version: 6.00 Build 0)  -->
<!DOCTYPE svg PUBLIC "-//W3C//DTD SVG 1.1//EN" "http://www.w3.org/Graphics/SVG/1.1/DTD/svg11.dtd">
<svg version="1.1" id="Layer_1" xmlns="http://www.w3.org/2000/svg" xmlns:xlink="http://www.w3.org/1999/xlink" x="0px" y="0px"
	 viewBox="0 123.3 595.3 595.3" enable-background="new 0 123.3 595.3 595.3" xml:space="preserve" width="44px" height="44px">
<path fill="#006B8D" d="M567.7,442.1l27.6-21.2l-27.6-21.3l23.9-25.2L561,357.7l19.8-28.8l-32.9-11.7l14.9-31.4l-34.2-6.4l9.9-33.3
	l-34.9-1.1l4.5-34.5l-34.6,4.5l-1-34.9l-33.3,9.9l-6.4-34.3l-31.4,15l-11.7-32.9l-28.8,19.8L344.2,127l-25.4,23.9l-21.2-27.6
	l-21.3,27.6L251.1,127l-16.7,30.6l-28.8-19.8l-11.7,32.9l-31.4-15l-6.4,34.3l-33.3-9.9l-1,34.9l-34.6-4.5l4.5,34.5l-34.9,1.1
	l9.9,33.3l-34.3,6.4l15,31.4l-32.9,11.7l19.8,28.8L3.7,374.4l23.9,25.2L0,420.9l27.6,21.2L3.7,467.5l30.6,16.7L14.5,513l32.9,11.7
	l-15,31.4l34.3,6.4l-9.9,33.3l34.9,1l-4.5,34.6l34.6-4.5l1,34.9l33.3-9.9l6.4,34.2l31.4-14.9l11.7,32.9l28.8-19.8l16.7,30.6
	l25.2-23.9l21.3,27.6l21.2-27.6l25.4,23.9l16.7-30.6l28.8,19.8l11.7-32.9l31.4,14.9l6.4-34.2l33.3,9.9l1-34.9l34.6,4.5l-4.5-34.6
	l34.9-1l-9.9-33.3l34.2-6.4l-14.9-31.4l32.9-11.7L561,484.2l30.6-16.7L567.7,442.1z M238.7,460.5h-21.5l-19.4-35
	c-5.4-9.6-11.3-21.4-15.7-32l-0.4,0.1c0.6,12,0.8,24.8,0.8,39.6v27.4h-18.7v-0.1v-90.8h23.9l18.8,33.3c5.4,9.5,10.8,20.8,14.8,31.1
	h0.4c-1.3-12-1.8-24.3-1.8-37.9v-26.5h18.8V460.5z M314.7,460.5h-58v-90.8h56.1v16.8h-35.4v18.8h33.3v16.9h-33.3v21.5h37.3V460.5z
	 M415,460.6h-22.3l-7.7-39.1c-1.8-9.2-3.2-17.6-4.3-28h-0.2c-1.7,10.2-3.1,18.8-5.2,28l-8.6,39.1h-22.4v-0.1l-21.5-90.8h21.9
	l6.9,37.5c2,10.8,3.9,22.5,5.4,31.7h0.2c1.4-9.9,3.7-20.7,6-31.9l7.7-37.1h21.8l7.3,38.2c2,10.6,3.5,20.4,4.9,30.5h0.2
	c1.3-10.1,3.3-20.7,5.2-31.5l7.4-37.1h20.8L415,460.6z"/>
</svg>
