<?xml version="1.0" encoding="utf-8"?>
<!-- Generator: Adobe Illustrator 18.1.1, SVG Export Plug-In . SVG Version: 6.00 Build 0)  -->
<svg version="1.1" id="Layer_1" xmlns="http://www.w3.org/2000/svg" xmlns:xlink="http://www.w3.org/1999/xlink" x="0px" y="0px"
	 width="16px" height="16px" viewBox="0 0 16 16" enable-background="new 0 0 16 16" xml:space="preserve">
<g>
	<path fill="#949494" d="M8,0C3.6,0,0,3.6,0,8c0,4.4,3.6,8,8,8c4.4,0,8-3.6,8-8C16,3.6,12.4,0,8,0z M8,15c-3.9,0-7-3.1-7-7
		c0-3.9,3.1-7,7-7c3.9,0,7,3.1,7,7C15,11.9,11.9,15,8,15z"/>
	<path fill="#949494" d="M11.9,7.3h-1.7H9.3H8.5V4.3V2.8c0-0.2-0.2-0.4-0.4-0.4H7.9c-0.2,0-0.4,0.2-0.4,0.4v1.5v3.1H7.1v1.3h0.4v0.5
		h1V8.7h0.8h0.9h1.7c0.2,0,0.4-0.2,0.4-0.4V7.7C12.3,7.5,12.1,7.3,11.9,7.3z"/>
</g>
</svg>
