<?xml version="1.0" encoding="utf-8"?>
<!-- Generator: Adobe Illustrator 18.1.1, SVG Export Plug-In . SVG Version: 6.00 Build 0)  -->
<svg version="1.1" id="Layer_1" xmlns="http://www.w3.org/2000/svg" xmlns:xlink="http://www.w3.org/1999/xlink" x="0px" y="0px"
	 width="16px" height="16px" viewBox="0 0 16 16" enable-background="new 0 0 16 16" xml:space="preserve">
<path fill="#949494" d="M14.4,1.5V1.2c0-0.7-0.6-1.2-1.2-1.2s-1.2,0.6-1.2,1.2v0.2H4.1V1.2C4.1,0.6,3.5,0,2.8,0S1.6,0.6,1.6,1.2v0.2
	H0v0.2v0.1v0.7v1.4v0.5v10.1v0.2C0,15.4,0.6,16,1.3,16h13.3c0.7,0,1.3-0.6,1.3-1.3v-0.2V4.3V3.8V2.4V1.7V1.7V1.5H14.4z M12.6,1.5
	V1.2c0-0.3,0.3-0.6,0.6-0.6s0.6,0.3,0.6,0.6v0.2V2c0,0.3-0.3,0.6-0.6,0.6S12.6,2.3,12.6,2V1.5z M2.3,1.5V1.2c0-0.3,0.3-0.6,0.6-0.6
	s0.6,0.3,0.6,0.6v0.2V2c0,0.3-0.3,0.6-0.6,0.6S2.3,2.3,2.3,2V1.5z M15.3,14.5v0.2c0,0.4-0.3,0.7-0.7,0.7H1.3c-0.3,0-0.7-0.3-0.7-0.7
	v-0.2V4.9h14.7V14.5z"/>
<rect x="1.7" y="6.5" fill="#949494" width="3.3" height="1.5"/>
<rect x="6.4" y="6.5" fill="#949494" width="3.3" height="1.5"/>
<rect x="11" y="6.5" fill="#949494" width="3.3" height="1.5"/>
<rect x="1.7" y="9.2" fill="#949494" width="3.3" height="1.5"/>
<rect x="6.4" y="9.2" fill="#949494" width="3.3" height="1.5"/>
<rect x="11" y="9.2" fill="#949494" width="3.3" height="1.5"/>
<rect x="1.7" y="12" fill="#949494" width="3.3" height="1.5"/>
<rect x="6.4" y="12" fill="#949494" width="3.3" height="1.5"/>
<rect x="11" y="12" fill="#949494" width="3.3" height="1.5"/>
</svg>
