<?xml version="1.0" encoding="utf-8"?>
<!-- Generator: Adobe Illustrator 18.1.1, SVG Export Plug-In . SVG Version: 6.00 Build 0)  -->
<svg version="1.1" id="Layer_1" xmlns="http://www.w3.org/2000/svg" xmlns:xlink="http://www.w3.org/1999/xlink" x="0px" y="0px"
	 width="24px" height="24px" viewBox="0 0 24 24" enable-background="new 0 0 24 24" xml:space="preserve">
<g>
	<rect x="7.5" y="18.1" width="7.5" height="1.5"/>
	<path d="M6,1.5h12.1v3h1.5v-3c0-0.8-0.7-1.5-1.5-1.5H6C5.2,0,4.5,0.7,4.5,1.5v3H6V1.5z M6,1.5"/>
	<rect x="7.5" y="15.1" width="9" height="1.5"/>
	<path d="M22.6,6H1.5C0.7,6,0,6.7,0,7.5v9c0,0.8,0.7,1.5,1.5,1.5h3v4.5c0,0.8,0.7,1.5,1.5,1.5h12.1c0.8,0,1.5-0.7,1.5-1.5v-4.5h3
		c0.8,0,1.5-0.7,1.5-1.5v-9C24.1,6.7,23.4,6,22.6,6L22.6,6z M18.1,22.6H6v-9h12.1V22.6z M21.1,10.5c-0.8,0-1.5-0.7-1.5-1.5
		c0-0.8,0.7-1.5,1.5-1.5c0.8,0,1.5,0.7,1.5,1.5C22.6,9.9,21.9,10.5,21.1,10.5L21.1,10.5z M21.1,10.5"/>
</g>
</svg>
