<?xml version="1.0" encoding="utf-8"?>
<!-- Generator: Adobe Illustrator 18.0.0, SVG Export Plug-In . SVG Version: 6.00 Build 0)  -->
<!DOCTYPE svg PUBLIC "-//W3C//DTD SVG 1.1//EN" "http://www.w3.org/Graphics/SVG/1.1/DTD/svg11.dtd">
<svg version="1.1" id="Layer_1" xmlns="http://www.w3.org/2000/svg" xmlns:xlink="http://www.w3.org/1999/xlink" x="0px" y="0px"
	 width="144px" height="144px" viewBox="0 0 144 144" enable-background="new 0 0 144 144" xml:space="preserve">
<path fill="#4D4D4D" d="M72,0C32.2,0,0,32.2,0,72c0,39.8,32.2,72,72,72s72-32.2,72-72C144,32.2,111.8,0,72,0z M77.5,116.4
	c-0.4,0.9-1,1.8-1.7,2.5c-0.7,0.7-1.5,1.2-2.4,1.7c-0.9,0.4-1.9,0.6-3,0.6s-2.1-0.2-3-0.6c-0.9-0.4-1.8-1-2.5-1.7
	c-0.7-0.7-1.2-1.5-1.7-2.5c-0.4-0.9-0.6-2-0.6-3c0-1.1,0.2-2.1,0.6-3c0.4-0.9,1-1.7,1.7-2.5c0.7-0.7,1.5-1.3,2.5-1.7
	c0.9-0.4,2-0.6,3-0.6s2.1,0.2,3,0.6c0.9,0.4,1.7,1,2.4,1.7c0.7,0.7,1.2,1.5,1.7,2.5c0.4,0.9,0.6,1.9,0.6,3
	C78.1,114.5,77.9,115.5,77.5,116.4z M95.9,54.6c-1.3,2.9-2.9,5.7-4.9,8.3c-2,2.7-4.1,5.3-6.3,7.8c-2.3,2.6-4.4,5.2-6.3,7.9
	c-2,2.7-3.6,5.5-4.9,8.5c-1.3,3-2,6.2-2,9.7h-3.3c0-4.1,0.4-7.7,1.1-11c0.8-3.2,1.7-6.1,2.8-8.8c1.1-2.7,2.3-5.1,3.7-7.5
	c1.3-2.3,2.6-4.7,3.7-7.1c1.1-2.4,2.1-4.9,2.8-7.5c0.8-2.7,1.1-5.6,1.1-8.9c0-3.1-0.4-5.7-1.1-8c-0.8-2.3-1.8-4.2-3.2-5.7
	c-1.4-1.5-3-2.6-4.9-3.4c-1.9-0.7-3.9-1.1-6.1-1.1c-1.9,0-3.7,0.2-5.3,0.7c-1.6,0.4-3,1.1-4.2,1.9c-1.2,0.8-2.1,1.8-2.8,2.9
	c-0.7,1.1-1,2.3-1,3.6c0,1.3,0.2,2.4,0.7,3.3c0.5,0.8,1,1.6,1.5,2.3c0.5,0.7,1,1.4,1.5,2.2c0.5,0.7,0.7,1.7,0.7,2.8
	c0,2-0.5,3.6-1.6,4.7c-1.1,1.2-2.4,1.8-3.9,1.8c-1.1,0-2.1-0.2-3-0.7c-0.9-0.5-1.7-1.2-2.4-2.1c-0.7-0.9-1.2-2-1.6-3.2
	c-0.4-1.2-0.6-2.6-0.6-4.1c0-3.8,0.8-7,2.3-9.7c1.6-2.7,3.5-4.9,6-6.5c2.4-1.7,5.2-2.9,8.2-3.7c3-0.8,5.9-1.2,8.8-1.2
	c3.8,0,7.3,0.5,10.6,1.5c3.2,1,6,2.5,8.4,4.4c2.3,1.9,4.2,4.2,5.5,7s2,5.9,2,9.3C97.8,48.6,97.2,51.7,95.9,54.6z"/>
</svg>
