<?xml version="1.0" encoding="utf-8"?>
<!-- Generator: Adobe Illustrator 18.1.1, SVG Export Plug-In . SVG Version: 6.00 Build 0)  -->
<svg version="1.1" id="Layer_1" xmlns="http://www.w3.org/2000/svg" xmlns:xlink="http://www.w3.org/1999/xlink" x="0px" y="0px"
	 width="24px" height="24px" viewBox="0 0 24 24" enable-background="new 0 0 24 24" xml:space="preserve">
<path d="M272.5,203.3"/>
<path fill="#FFFFFF" d="M21.5,1.5c0.5,0,1,0.5,1,1v19c0,0.5-0.5,1-1,1h-19c-0.5,0-1-0.5-1-1v-19c0-0.5,0.5-1,1-1H21.5 M21.5,0h-19
	C1.1,0,0,1.1,0,2.5v19C0,22.9,1.1,24,2.5,24h19c1.4,0,2.5-1.1,2.5-2.5v-19C24,1.1,22.9,0,21.5,0L21.5,0z"/>
<path fill="#FFFFFF" d="M18.9,12.2V4.9c0-0.4-0.3-0.8-0.8-0.8s-0.8,0.3-0.8,0.8v7.3c-0.8,0.1-1.4,0.9-1.4,1.7v2.2
	c0,0.9,0.6,1.6,1.4,1.7v1.2c0,0.4,0.3,0.8,0.8,0.8s0.8-0.3,0.8-0.8v-1.2c0.8-0.1,1.4-0.9,1.4-1.7v-2.2
	C20.4,13.1,19.7,12.4,18.9,12.2z M18.9,13.9v2.2c0,0.1-0.1,0.2-0.2,0.2h-0.9c-0.1,0-0.2-0.1-0.2-0.2v-2.2c0-0.1,0.1-0.2,0.2-0.2h0.9
	C18.8,13.7,18.9,13.8,18.9,13.9z"/>
<path fill="#FFFFFF" d="M12.4,4.2h-0.9c-1,0-1.8,0.8-1.8,1.8v2.2c0,0.9,0.6,1.6,1.4,1.7v9.2c0,0.4,0.3,0.8,0.8,0.8s0.8-0.3,0.8-0.8
	V9.9c0.8-0.1,1.4-0.9,1.4-1.7V5.9C14.2,5,13.4,4.2,12.4,4.2z M11.3,5.9c0-0.1,0.1-0.2,0.2-0.2h0.9c0.1,0,0.2,0.1,0.2,0.2v2.2
	c0,0.1-0.1,0.2-0.2,0.2h-0.9c-0.1,0-0.2-0.1-0.2-0.2V5.9z"/>
<path fill="#FFFFFF" d="M6.6,10.1V4.9c0-0.4-0.3-0.8-0.8-0.8S5.1,4.5,5.1,4.9v5.2c-0.8,0.1-1.4,0.9-1.4,1.7V14
	c0,0.9,0.6,1.6,1.4,1.7v3.3c0,0.4,0.3,0.8,0.8,0.8s0.8-0.3,0.8-0.8v-3.3C7.4,15.6,8,14.9,8,14v-2.2C8,11,7.4,10.3,6.6,10.1z
	 M6.5,11.8V14c0,0.1-0.1,0.2-0.2,0.2H5.4c-0.1,0-0.2-0.1-0.2-0.2v-2.2c0-0.1,0.1-0.2,0.2-0.2h0.9C6.4,11.6,6.5,11.7,6.5,11.8z"/>
</svg>
