<?xml version="1.0" encoding="utf-8"?>
<!-- Generator: Adobe Illustrator 18.1.1, SVG Export Plug-In . SVG Version: 6.00 Build 0)  -->
<svg version="1.1" id="Layer_1" xmlns="http://www.w3.org/2000/svg" xmlns:xlink="http://www.w3.org/1999/xlink" x="0px" y="0px"
	 width="20px" height="20px" viewBox="-949 531 20 20" enable-background="new -949 531 20 20" xml:space="preserve">
<g>
	<path fill="#FFFFFF" d="M-949,530.9v3.8c8.9,0,16.1,7.3,16.1,16.2h3.8C-929,539.9-938,530.9-949,530.9z"/>
	<path fill="#FFFFFF" d="M-949,537.8v3.8c2.5,0,4.8,1,6.6,2.7c1.8,1.8,2.7,4.1,2.7,6.6h3.9C-935.8,543.7-941.7,537.8-949,537.8z"/>
	<path fill="#FFFFFF" d="M-946.3,545.7c-1.5,0-2.7,1.2-2.7,2.7s1.2,2.7,2.7,2.7s2.7-1.2,2.7-2.7
		C-943.7,546.8-944.9,545.7-946.3,545.7z"/>
</g>
</svg>
