<?xml version="1.0" encoding="utf-8"?>
<!-- Generator: Adobe Illustrator 18.0.0, SVG Export Plug-In . SVG Version: 6.00 Build 0)  -->
<!DOCTYPE svg PUBLIC "-//W3C//DTD SVG 1.1//EN" "http://www.w3.org/Graphics/SVG/1.1/DTD/svg11.dtd">
<svg version="1.1" id="Layer_1" xmlns="http://www.w3.org/2000/svg" xmlns:xlink="http://www.w3.org/1999/xlink" x="0px" y="0px"
	 viewBox="0 123.3 595.3 595.3" enable-background="new 0 123.3 595.3 595.3" xml:space="preserve" width="20px" height="20px">
<g>
	<path fill="#D2D2D2" d="M0.2,123.3v114.1c264.9,0,480.7,216.1,480.7,481.2h114.3C595.3,390.3,328.2,123.3,0.2,123.3z"/>
	<path fill="#D2D2D2" d="M0,325.5v114.1c74.4,0,144.1,29.2,196.8,81.7c52.5,52.5,81.7,122.7,81.7,197.4h114.8
		C392.9,501.8,216.6,325.5,0,325.5z"/>
	<path fill="#D2D2D2" d="M79.2,559.9C35.4,559.9,0,595.4,0,639.1C0,682.9,35.6,718,79.2,718c43.8,0,79.4-35.4,79.4-78.9
		C158.6,595.6,123,559.9,79.2,559.9z"/>
</g>
</svg>
