<?xml version="1.0" encoding="utf-8"?>
<!-- Generator: Adobe Illustrator 18.1.1, SVG Export Plug-In . SVG Version: 6.00 Build 0)  -->
<svg version="1.1" id="Layer_1" xmlns="http://www.w3.org/2000/svg" xmlns:xlink="http://www.w3.org/1999/xlink" x="0px" y="0px"
	 width="16px" height="16px" viewBox="0 0 16 16" enable-background="new 0 0 16 16" xml:space="preserve">
<g>
	<g>
		<defs>
			<path id="SVGID_9_" d="M13.1,6.7h-1V4.3C12.2,1.9,10.3,0,8,0C5.7,0,3.8,1.9,3.8,4.3c0,0.3,0.3,0.6,0.6,0.6C4.8,4.9,5,4.6,5,4.3
				c0-1.7,1.3-3.1,3-3.1c1.6,0,3,1.4,3,3.1v2.4H2.9c-0.3,0-0.6,0.3-0.6,0.6v7.2C2.3,15.3,3,16,3.8,16h8.4c0.8,0,1.5-0.7,1.5-1.5V7.3
				C13.7,6.9,13.5,6.7,13.1,6.7z M12.5,14.5c0,0.2-0.1,0.3-0.3,0.3H3.8c-0.2,0-0.3-0.1-0.3-0.3V7.9h9V14.5z"/>
		</defs>
		<use xlink:href="#SVGID_9_"  overflow="visible" fill-rule="evenodd" clip-rule="evenodd" fill="#949494"/>
		<clipPath id="SVGID_1_">
			<use xlink:href="#SVGID_9_"  overflow="visible"/>
		</clipPath>
		<g clip-path="url(#SVGID_1_)">
			<defs>
				<rect id="SVGID_11_" x="-38.9" y="-347.1" width="286" height="507.3"/>
			</defs>
			<use xlink:href="#SVGID_11_"  overflow="visible" fill="#949494"/>
			<clipPath id="SVGID_2_">
				<use xlink:href="#SVGID_11_"  overflow="visible"/>
			</clipPath>
			<rect x="-1.5" y="-3.8" clip-path="url(#SVGID_2_)" fill="#949494" width="19.1" height="23.6"/>
		</g>
	</g>
	<g>
		<defs>
			<path id="SVGID_13_" d="M8,13.2c0.3,0,0.6-0.3,0.6-0.6v-2.2C8.6,10,8.3,9.7,8,9.7c-0.3,0-0.6,0.3-0.6,0.6v2.2
				C7.4,12.9,7.7,13.2,8,13.2"/>
		</defs>
		<use xlink:href="#SVGID_13_"  overflow="visible" fill-rule="evenodd" clip-rule="evenodd" fill="#949494"/>
		<clipPath id="SVGID_3_">
			<use xlink:href="#SVGID_13_"  overflow="visible"/>
		</clipPath>
		<g clip-path="url(#SVGID_3_)">
			<defs>
				<rect id="SVGID_15_" x="-38.9" y="-347.1" width="286" height="507.3"/>
			</defs>
			<use xlink:href="#SVGID_15_"  overflow="visible" fill="#949494"/>
			<clipPath id="SVGID_4_">
				<use xlink:href="#SVGID_15_"  overflow="visible"/>
			</clipPath>
			<rect x="3.6" y="5.9" clip-path="url(#SVGID_4_)" fill="#949494" width="8.8" height="11.1"/>
		</g>
	</g>
</g>
</svg>
