<svg xmlns="http://www.w3.org/2000/svg" width="2500" height="1247" viewBox="-25.288 -25.069 994.252 495.812"><path d="M406.638 355.934l-9.722 1.852-9.722 3.704-7.407 5.555c-2.778 3.704-2.778 7.407-2.778 7.407l2.314 6.02c1.852 2.776 6.018 2.776 6.018 2.776l7.87-2.314 2.778-5.092-1.853-10.186 5.093-2.777 7.407-.927 8.796 2.314 4.63 5.093 1.852 5.092.926 4.167v7.406l-16.202 5.555-15.74 5.094-6.944 3.24-5.556 4.167c-2.777 2.778-4.166 6.02-4.166 6.02l-1.39 8.332c0 8.333 6.482 13.89 6.482 13.89 6.018 5.555 15.74 5.555 15.74 5.555l11.573-1.853 3.703-1.39 12.5-8.332c1.39 5.556 5.555 7.87 5.555 7.87 3.704 3.24 10.648 3.24 10.648 3.24l6.943-.926 6.944-2.314v-4.63h-5.555l-4.167-1.388-3.703-2.778-1.39-5.092.927-38.888-2.314-12.5-6.944-7.87-9.723-4.166-13.422-.926zm16.204 36.572l-.463 27.314-7.87 6.48-7.87 2.778h-3.242c-6.018 0-9.26-3.24-9.26-3.24-3.702-3.24-3.702-9.723-3.702-9.723 0-4.63 2.314-8.333 2.314-8.333l6.944-6.48 10.185-4.63 12.962-4.166zm30.553-34.258h38.888v5.556l-6.02.926s-3.702.926-3.702 2.314l.464 1.39 21.295 46.294 20.37-45.368-3.705-3.704-7.87-2.314v-5.093h31.48v5.092l-6.48 2.314s-4.63 2.778-6.482 6.944l-18.055 39.35-22.22 43.518-8.334 9.722-6.944 4.63-6.944.925s-6.02 0-10.185-3.24c0 0-3.702-2.314-3.702-6.48l1.852-6.02s2.777-2.777 6.48-2.777l4.63.926 3.24 2.315 5.093 6.48 10.647-10.65s8.796-13.425 5.556-24.072l-25.462-55.554-6.02-5.556-7.87-2.777v-5.092m-132.4-1.852l-11.11 2.778-11.11 7.87h-.927v-8.797l-1.39-.926-28.7 1.854v5.092l5.554.926 4.168 1.39 3.24 3.24 1.39 4.63v82.403l-.927 4.63-3.702 2.777-4.63.926h-5.092v5.555h47.683v-5.555l-12.5-1.852-3.24-2.778-1.853-4.63v-23.146h.926l8.333 3.24 12.5 1.853h1.39l13.887-2.778 12.5-8.796 9.26-12.498 3.24-17.13-2.778-16.202c-3.24-7.87-8.333-12.963-8.333-12.963-4.166-5.092-11.11-8.332-11.11-8.332l-14.352-2.778h-2.316zm-.463 11.563c.305 0 .464.01.464.01 11.11.927 17.592 9.723 17.592 9.723 5.555 7.406 5.092 18.518 5.092 18.518 0 11.11-6.018 18.98-6.018 18.98-6.02 8.797-16.666 10.186-16.666 10.186-10.185.926-23.147-6.02-23.147-6.02v-45.83c11.34-5.266 20.557-5.574 22.684-5.567zM100.634 322.6l-40.276 93.515-3.703 6.48-5.556 4.63-5.555 2.315-5.556.463v5.555H86.28v-5.555l-12.035-1.852c-6.02-1.853-6.02-5.093-6.02-5.093l.464-3.24 8.332-23.147h43.054l10.185 25.462.465 1.852v1.852c0 1.852-4.167 2.314-4.167 2.314l-11.11 1.852v5.555h50.924v-5.554l-5.093-.463-5.557-1.852-4.166-4.166c-2.314-1.39-3.24-4.63-3.24-4.63l-40.74-96.292h-6.944zm-2.315 24.536h.463l18.056 43.054H80.263l18.055-43.054zm134.253 0s-4.628 0-7.405-3.24c0 0-3.24-2.778-3.24-7.407 0 0 0-3.703 3.24-7.406 0 0 3.24-3.24 7.406-3.24 0 0 5.094 0 8.334 3.24l2.778 6.944-2.778 7.87s-3.24 3.24-8.333 3.24m15.278 11.574v62.96l1.39 4.63 3.703 2.314 7.87 1.852v5.092h-41.2v-5.092l7.406-.926 3.703-2.314 1.388-4.63v-47.684l-1.39-5.092-3.702-3.24-4.63-1.39-5.555-.926v-5.092l30.092-1.853.926 1.392m-53.238-44.906l-30.092 1.852-1.852.463v4.63h1.852l4.63.927 5.556 1.852 3.703 3.703 1.39 5.555V422.6l-1.39 4.63-3.703 2.314-7.87.926v5.092H208.5v-5.092l-4.168-.463-3.703-1.39-3.705-2.314-.926-4.63v-106.48l-1.39-1.387m562.477 45.37l28.702-1.854 1.388 1.39v10.647h.463l5.094-4.63 6.02-4.167s2.776-1.852 7.406-3.24l9.722-.927 14.352 3.704 8.795 9.722 5.092-4.63 6.48-4.166s3.24-2.314 7.408-3.704l10.185-.926s11.11 0 17.13 6.48c0 0 6.48 6.482 6.48 19.444v39.35l.926 4.63 3.24 2.778 4.168.926 4.63.463v5.092H863.1v-5.093l7.407-.926 3.703-2.313.927-4.63v-39.813s0-8.333-3.704-12.962c0 0-4.166-4.167-10.185-4.167l-8.333.926-6.944 3.242-4.165 3.703-2.315 3.704v44.44l.927 4.63 3.703 2.778 3.704.926 4.166.463v5.092h-40.74v-5.093l6.945-.926 3.703-2.313.926-4.63v-39.813s0-8.333-3.703-12.962c0 0-3.702-4.167-10.184-4.167l-7.87.926-6.944 3.242-4.166 4.166-2.778 3.24v44.443l.926 4.63 3.704 2.315 3.703 1.39 4.168.462v5.092h-41.202v-5.093l7.87-.926 3.703-2.313.925-4.63V374.45l-1.39-4.628-3.24-3.24-4.165-1.39-5.093-.926v-5.09m-166.66 40.737s0 15.74 7.87 25c0 0 7.406 9.72 19.906 9.72l15.276-4.165 11.573-11.574 5.555 3.704s-5.555 9.26-15.74 15.277c0 0-9.72 5.555-21.295 5.555 0 0-19.443 0-31.018-11.573 0 0-11.573-11.573-11.573-31.48 0 0 0-7.87 3.24-15.74 0 0 2.778-7.406 8.796-13.888 0 0 5.556-5.557 13.89-9.26 0 0 8.795-3.704 18.054-3.704 0 0 13.426 0 22.222 5.556 0 0 8.333 6.48 8.333 15.74l-2.314 7.407-6.944 2.776-8.797-2.314s-3.24-1.853-3.24-5.093l1.39-7.408 1.388-6.018-5.092-3.24-7.407-.927-8.332 1.39-7.87 6.48-5.555 11.11s-2.316 6.944-2.316 16.666m112.495-42.128c-19.906.463-32.405 12.037-32.405 12.037-12.037 12.036-12.037 31.017-12.037 31.017 0 10.647 3.24 18.054 3.24 18.054l9.723 13.89c6.48 5.555 14.35 8.332 14.35 8.332l16.667 2.777h.463l18.98-3.24c8.797-3.703 14.352-9.722 14.352-9.722l9.26-13.888 2.777-17.13c0-18.98-12.5-30.553-12.5-30.553-12.5-11.575-31.942-11.575-31.942-11.575h-.928zm-.29 6.482c.19-.006.29 0 .29 0h.464l12.036 2.777 7.87 8.333 4.167 11.574 1.388 13.426c0 17.13-6.48 27.314-6.48 27.314-7.408 10.185-18.98 10.185-18.98 10.185h-.465l-11.573-3.24-7.87-8.334-4.63-12.035c-1.388-6.02-1.388-14.814-1.388-14.814l.926-12.498 4.166-11.11c3.24-5.093 8.796-8.797 8.796-8.797 4.454-2.43 9.973-2.74 11.283-2.778zm-156.648 73.608s6.944 0 6.944-7.407c0 0 0-6.944-6.944-6.944 0 0-7.407 0-7.407 6.944 0 0 0 7.407 7.407 7.407" fill="#ec6c00"/><path d="M903.377-25.07v3.242h7.87V-.995h2.777v-20.833h7.87v-3.24h-18.517zm21.758 0V-.995h3.24v-19.907L935.32-.996h2.777l6.48-19.444V-.996h3.24V-25.07h-4.165L936.708-4.7l-6.944-20.37h-4.63z"/><path d="M751.068-25.07l-12.036.927s-12.5 2.777-12.5 8.333V2.708L672.368 4.56V-5.625h-25s-24.998 1.852-24.998 9.26v67.59h104.162v46.293h-71.756v18.518h71.756V242.05l53.24-5.556V136.036h76.384v-18.518H779.77V71.224h89.812v-9.26h2.314s6.944 0 11.11-11.11l4.167-30.554S886.71-1.92 863.1-1.92L779.77.855V-25.07H751.07zm82.404 42.592s7.407-.463 7.87 7.407l-3.704 28.24h-165.27V22.613l54.164-1.39v.464l53.24-2.314 53.7-1.852z" fill="#003f96"/><path d="M427.47 117.518l17.13 19.907 19.906 17.592s5.555 5.555 11.11 0l19.443-17.592 17.128-19.907s6.02-5.092 0-11.573L495.06 86.5l-19.443-17.13s-5.556-5.554-11.11 0L445.062 86.5l-17.592 19.444s-5.09 6.482 0 11.574m444.426 61.108s3.24-4.167 0-8.796l-13.425-14.814-14.813-12.962s-4.167-4.167-8.796 0l-14.813 12.962-12.962 14.814s-3.704 4.63 0 8.796l12.962 14.814 14.814 12.962s4.63 4.63 8.797 0l14.814-12.962 13.426-14.814" fill="#ec6c00"/><path d="M77.948 95.296h158.79s-4.63 18.055-16.203 40.74c0 0-19.906 38.886-50.46 68.052 0 0-57.406 53.7-94.44 53.7 0 0-27.314 0-44.906-10.184 0 0-21.76-13.425-21.76-41.202 0 0 0-36.572 56.017-47.22 0 0-36.11-2.314-55.09 16.666 0 0-17.593 16.666-17.593 45.832 0 0 0 27.777 25.462 44.443 0 0 22.685 15.277 55.09 14.814l7.408.463s62.96-3.24 121.29-51.85c0 0 50-41.665 74.998-101.385 0 0 7.87-18.518 12.036-37.036l2.777-14.352v.463H205.72V36.504h107.866V18.448H205.72V-23.68h-28.24l-12.035.926s-12.5 2.777-12.5 8.333v32.868H48.783v18.055h104.162v40.74H77.948v18.053M433.952-25.07l-.926 8.797-6.02 21.758s-6.48 14.814-16.202 26.388V240.66l-53.238-6.48V68.446S337.66 78.63 320.53 85.112l-6.943-11.11s18.055-12.5 36.11-30.092c0 0 35.645-35.646 35.645-59.72 0 0 0-5.555 12.5-8.332l12.036-.926h24.074M419.137 55.02h99.996v192.585l53.238.926V55.02h27.777V36.504H572.37V-25.07h-28.7l-12.037.927s-12.5 2.777-12.5 8.333v52.312H419.14v18.52" fill="#003f96"/><path d="M177.018 167.053s-67.59-29.628-109.255-31.017c0 0-34.258-1.852-62.497 18.055 0 0-29.63 20.834-30.555 51.85 0 0 0 36.11 28.704 56.48 0 0 26.388 18.98 68.98 18.98h4.165l-6.945-.462s-31.017 0-52.775-15.277c0 0-24.073-17.128-24.073-45.368 0 0 0-30.554 21.296-46.294 0 0 18.055-12.962 47.22-13.426l41.202 4.63 31.943 12.5 76.386 38.887s52.312 27.312 102.31 43.978c0 0 174.067 57.868 563.403 19.906l20.832-4.166s7.406-3.24 13.425-12.963c0 0 5.093-7.87 39.813-38.887 0 0 24.998-22.685 16.666-30.092l-12.037 1.852s-127.31 28.703-321.283 36.573c0 0-218.046 8.797-325.912-22.22 0 0-74.534-21.296-131.014-43.517" fill="#ec6c00"/></svg>