<svg xmlns="http://www.w3.org/2000/svg" width="174.84" height="66.882" viewBox="0 0 1748.396 668.824" enable-background="new 0 0 174.8396 66.8824"><g><path fill="#040407" d="M1576.583 470.123V197.217c0-14.467-11.73-26.194-26.194-26.194H197.29c-14.467 0-26.194 11.728-26.194 26.194v272.906c0 14.467 11.727 26.195 26.194 26.195H1550.39c14.464 0 26.193-11.728 26.193-26.195z"/><path fill="#fd0" d="M566.338 214.415h-17.58l-19.69 146.208h-.63l-21.562-146.208H411.64l-21.61 146.208h-.628l-19.628-146.208H287.42l50.203 232.343h99.804L458.96 296.24h.658l21.525 150.518h99.8l5.01-23.232c-12.767-13.56-19.614-31.723-19.614-54.668V214.415z"/><path fill="#fff" d="M566.338 214.415v154.443c0 22.945 6.848 41.107 19.613 54.668l45.14-209.11h-64.752z"/><path fill="#fd0" d="M695.045 214.415v150.607c0 18.332-8.7 25.475-18.34 25.475-9.656 0-18.354-7.143-18.354-25.475V214.415h-19.63l-46.38 214.882c18.812 15.648 47.31 23.63 84.365 23.63 70.137 0 110.373-28.04 110.373-84.07V214.416h-92.033zM227.036 214.415h-13.703l49.328 232.343h13.713zM300.144 446.758h13.703L264.52 214.415h-13.7z"/><g fill="#fd0"><path d="M814.855 225.523c-.127-1.556-.96-2.323-2.557-2.323-1.217 0-2.453.64-2.453 1.982 0 1.663 1.492 1.854 2.814 2.174 2.345.597 5.798 1.258 5.798 4.35 0 3.814-3.326 5.136-6.63 5.136-3.517 0-6.01-1.364-5.905-5.244h3.37c-.13 1.706.85 2.856 2.577 2.856 1.322 0 3.07-.405 3.07-2.046 0-1.812-2.195-1.94-3.518-2.28-2.152-.534-5.094-1.514-5.094-4.243 0-3.518 3.24-5.074 6.395-5.074 2.984 0 5.307 1.62 5.307 4.712h-3.175zM830.625 236.522h-2.748l-4.072-13.216-.043.042v13.174h-3.09v-15.39h5.414l3.22 11.19h.042l3.496-11.19h5.22v15.39h-3.09v-13.174l-.042-.042-4.307 13.216z"/></g></g><g fill="#fff"><path d="M885.555 248.904h26.33c8.292 0 16.766 0 22.778 5.375 2.096 1.913 5.01 5.466 5.01 11.297 0 11.662-10.75 14.122-14.03 14.942v.182c4.1.73 15.854 2.824 15.854 16.31 0 5.1-1.913 11.113-9.11 14.94-5.193 2.733-11.845 2.733-17.767 2.733h-29.064v-65.78zm17.675 26.513h8.564c2.915 0 4.828 0 6.377-.82 2.097-1.184 3.464-3.553 3.464-6.377 0-2.005-.73-4.373-2.552-5.83-2.004-1.55-4.01-1.55-5.922-1.55h-9.93v14.577zm.09 27.242h10.114c2.096 0 9.385 0 9.385-7.654 0-7.927-7.473-7.927-9.933-7.927h-9.566v15.58zM987.146 248.904v39.086c0 3.554.273 7.198 2.096 9.932 2.46 3.644 6.742 5.375 11.207 5.375 11.57 0 13.118-9.384 13.118-15.944v-38.448h17.767v38.084c0 7.288-1.002 15.215-5.102 20.043-6.378 7.835-18.13 9.384-26.422 9.384-31.068 0-31.16-19.314-31.16-30.065l.092-37.446h18.404zM1076.622 293.73c.09 2.643.273 10.204 11.115 10.204 1.55 0 9.75 0 9.75-7.47 0-3.1-1.276-5.194-5.65-6.38l-16.126-4.19c-4.555-1.184-16.308-4.282-16.308-18.04 0-10.66 8.018-20.59 27.697-20.59 25.692 0 26.786 13.94 26.877 20.955h-18.495c0-2.006.09-9.112-8.656-9.112-5.284 0-8.655 3.007-8.655 6.925 0 4.828 4.01 6.013 6.652 6.742l12.3 3.188c8.746 2.277 19.133 5.01 19.133 18.95 0 14.67-12.573 21.23-29.063 21.23-6.834 0-17.858-1.094-23.87-7.836-4.83-5.284-4.92-11.753-5.013-14.577h18.312zM1142.134 248.904h18.77v65.78h-18.77v-65.78zM1189.514 248.904h25.146l22.23 49.018-.182-49.018h15.944v65.78h-24.6l-22.687-51.11.182 51.11h-16.035v-65.78zM1281.995 249.086h49.382v12.573h-31.342v13.666h29.52V287.9h-29.52v14.03h32.07v12.755h-50.11v-65.6zM1375.022 293.73c.09 2.643.273 10.204 11.115 10.204 1.55 0 9.75 0 9.75-7.47 0-3.1-1.276-5.194-5.65-6.38l-16.126-4.19c-4.555-1.184-16.308-4.282-16.308-18.04 0-10.66 8.018-20.59 27.697-20.59 25.692 0 26.786 13.94 26.877 20.955h-18.495c0-2.006.09-9.112-8.656-9.112-5.284 0-8.655 3.007-8.655 6.925 0 4.828 4.01 6.013 6.652 6.742l12.3 3.188c8.746 2.277 19.133 5.01 19.133 18.95 0 14.67-12.573 21.23-29.063 21.23-6.834 0-17.858-1.094-23.87-7.836-4.83-5.284-4.92-11.753-5.013-14.577h18.312zM1457.208 293.73c.09 2.643.273 10.204 11.115 10.204 1.55 0 9.75 0 9.75-7.47 0-3.1-1.276-5.194-5.65-6.38l-16.126-4.19c-4.556-1.184-16.31-4.282-16.31-18.04 0-10.66 8.02-20.59 27.698-20.59 25.693 0 26.787 13.94 26.878 20.955h-18.495c0-2.006.09-9.112-8.656-9.112-5.284 0-8.655 3.007-8.655 6.925 0 4.828 4.01 6.013 6.65 6.742l12.3 3.188c8.747 2.277 19.134 5.01 19.134 18.95 0 14.67-12.572 21.23-29.062 21.23-6.834 0-17.858-1.094-23.87-7.836-4.83-5.284-4.92-11.753-5.013-14.577h18.313zM902.137 397.39c.09 2.642.273 10.204 11.115 10.204 1.55 0 9.75 0 9.75-7.47 0-3.1-1.276-5.194-5.65-6.38l-16.126-4.19c-4.556-1.185-16.31-4.282-16.31-18.04 0-10.66 8.02-20.59 27.698-20.59 25.693 0 26.787 13.94 26.878 20.955h-18.495c0-2.006.09-9.112-8.656-9.112-5.283 0-8.654 3.007-8.654 6.924 0 4.83 4.01 6.014 6.65 6.742l12.3 3.19c8.747 2.276 19.134 5.01 19.134 18.95 0 14.668-12.573 21.23-29.063 21.23-6.834 0-17.858-1.095-23.87-7.837-4.83-5.284-4.92-11.753-5.013-14.577h18.313zM963 359.852c8.292-8.382 20.865-9.11 25.694-9.11 26.24 0 33.347 18.86 33.347 34.895 0 26.24-18.586 34.258-34.257 34.258-17.493 0-33.802-9.657-33.802-34.166 0-4.376.73-17.496 9.02-25.878zm24.966 46.648c13.028 0 15.215-12.026 15.215-21.137 0-9.202-2.186-13.758-4.19-16.674-2.642-3.646-6.924-4.738-10.933-4.738-12.026 0-15.307 10.387-15.307 21.684 0 10.478 3.098 20.864 15.216 20.864zM1036.896 352.563h18.495v52.844h29.52v12.938h-48.014v-65.782zM1115.982 352.563v39.086c0 3.553.273 7.196 2.096 9.93 2.46 3.645 6.742 5.376 11.207 5.376 11.57 0 13.12-9.385 13.12-15.944v-38.448h17.766v38.084c0 7.288-1 15.215-5.1 20.044-6.38 7.836-18.132 9.385-26.423 9.385-31.07 0-31.16-19.315-31.16-30.066l.09-37.445h18.405zM1192.43 365.592h-20.045v-13.028h58.948v13.028h-20.5v52.753h-18.404v-52.753zM1242.27 352.563h18.77v65.78h-18.77v-65.78zM1284.363 359.852c8.29-8.382 20.864-9.11 25.693-9.11 26.24 0 33.347 18.86 33.347 34.895 0 26.24-18.587 34.258-34.258 34.258-17.493 0-33.802-9.657-33.802-34.166 0-4.376.73-17.496 9.02-25.878zm24.965 46.648c13.028 0 15.215-12.026 15.215-21.137 0-9.202-2.187-13.758-4.19-16.674-2.643-3.646-6.925-4.738-10.934-4.738-12.027 0-15.308 10.387-15.308 21.684 0 10.478 3.098 20.864 15.216 20.864zM1358.26 352.563h25.145l22.23 49.017-.182-49.017h15.944v65.78h-24.6l-22.687-51.112.182 51.114h-16.035v-65.78zM1454.748 397.39c.09 2.642.273 10.204 11.115 10.204 1.55 0 9.75 0 9.75-7.47 0-3.1-1.276-5.194-5.65-6.38l-16.126-4.19c-4.556-1.185-16.31-4.282-16.31-18.04 0-10.66 8.02-20.59 27.698-20.59 25.693 0 26.787 13.94 26.878 20.955h-18.495c0-2.006.09-9.112-8.656-9.112-5.284 0-8.655 3.007-8.655 6.924 0 4.83 4.01 6.014 6.65 6.742l12.3 3.19c8.747 2.276 19.134 5.01 19.134 18.95 0 14.668-12.572 21.23-29.062 21.23-6.834 0-17.858-1.095-23.87-7.837-4.83-5.284-4.92-11.753-5.013-14.577h18.313z"/></g></svg>