<!-- Generated by IcoMoon.io -->
<svg version="1.1" xmlns="http://www.w3.org/2000/svg" width="17" height="17" viewBox="0 0 17 17">
<title>rss-alt</title>
<path fill="#fff" d="M11.173 17h-1c0-5.514-4.564-10-10.173-10v-1c6.161 0 11.173 4.935 11.173 11zM0 0v1c8.972 0 16 7.028 16 16h1c0-9.532-7.468-17-17-17zM4 15.001c0-1.104-0.896-2.001-1.996-2.001-1.105 0-2.004 0.897-2.004 2.001s0.899 1.999 2.004 1.999c1.1 0 1.996-0.896 1.996-1.999zM3 15.001c0 0.551-0.447 0.999-0.996 0.999-0.554 0-1.004-0.448-1.004-0.999s0.45-1.001 1.004-1.001c0.549 0 0.996 0.449 0.996 1.001z"></path>
</svg>
