<?xml version="1.0" encoding="utf-8"?>
<!-- Generator: Adobe Illustrator 18.0.0, SVG Export Plug-In . SVG Version: 6.00 Build 0)  -->
<!DOCTYPE svg PUBLIC "-//W3C//DTD SVG 1.1//EN" "http://www.w3.org/Graphics/SVG/1.1/DTD/svg11.dtd">
<svg version="1.1" id="Layer_1" xmlns="http://www.w3.org/2000/svg" xmlns:xlink="http://www.w3.org/1999/xlink" x="0px" y="0px"
	 viewBox="0 123.3 595.3 595.3" enable-background="new 0 123.3 595.3 595.3" xml:space="preserve" width="24px" height="24px">
<g id="Layer_1_1_">
</g>
<g id="Layer_2">
	<path fill="#006B8D" d="M297.6,123.4C133.2,123.4,0,256.6,0,420.9s133.2,297.6,297.6,297.6s297.6-133.2,297.6-297.6
		S462.1,123.4,297.6,123.4z"/>
</g>
<path fill="#FFFFFF" d="M395.2,411.9l-121-121c-4.5-4.5-10.9-7.3-16.4-7.3s-10.9,2.8-15.4,7.3c-9.1,9.1-9.1,21.8,0,30.9L348,427.4
	L242.4,533c-9.1,9.1-9.1,21.8,0,30.9c9.1,9.1,22.7,9.1,31.8,0l121-121c4.5-4.5,6.4-10,6.4-15.4C401.6,421,399.8,416.5,395.2,411.9z"
	/>
</svg>
