<?xml version="1.0" encoding="utf-8"?>
<!-- Generator: Adobe Illustrator 16.0.0, SVG Export Plug-In . SVG Version: 6.00 Build 0)  -->
<!DOCTYPE svg PUBLIC "-//W3C//DTD SVG 1.1//EN" "http://www.w3.org/Graphics/SVG/1.1/DTD/svg11.dtd">
<svg version="1.1" id="Layer_1" xmlns="http://www.w3.org/2000/svg" xmlns:xlink="http://www.w3.org/1999/xlink" x="0px" y="0px"
	 width="24px" height="24px" viewBox="0 0 24 24" enable-background="new 0 0 24 24" xml:space="preserve">
<path fill="#767676" d="M11.998,23.995c6.628,0,11.998-5.369,11.998-11.993S18.626,0.004,11.998,0.004S0,5.374,0,12.002
	S5.366,23.995,11.998,23.995z"/>
<path fill="#FFFFFF" d="M8.063,12.364l4.878,4.879c0.182,0.182,0.439,0.294,0.661,0.294s0.439-0.112,0.621-0.294
	c0.366-0.367,0.366-0.879,0-1.246l-4.257-4.258l4.257-4.257c0.366-0.366,0.366-0.879,0-1.245c-0.367-0.367-0.915-0.367-1.282,0
	l-4.878,4.877c-0.182,0.182-0.259,0.404-0.259,0.621C7.805,11.998,7.878,12.179,8.063,12.364z"/>
</svg>
