<?xml version="1.0" encoding="utf-8"?>
<!-- Generator: Adobe Illustrator 21.0.0, SVG Export Plug-In . SVG Version: 6.00 Build 0)  -->
<svg version="1.1" id="Capa_1" xmlns="http://www.w3.org/2000/svg" xmlns:xlink="http://www.w3.org/1999/xlink" x="0px" y="0px"
	 width="24px" height="24px" viewBox="0 0 24 24" style="enable-background:new 0 0 24 24;" xml:space="preserve">
<style type="text/css">
	.st0{fill:#5492B3;}
	.st1{clip-path:url(#SVGID_4_);}
	.st2{clip-path:url(#SVGID_10_);fill:#5492B3;}
	.st3{clip-path:url(#SVGID_12_);}
	.st4{clip-path:url(#SVGID_14_);}
	.st5{clip-path:url(#SVGID_16_);fill:#5492B3;}
</style>
<g>
	<g>
		<g>
			<polygon id="SVGID_1_" class="st0" points="18.6,12 6.4,24 5.4,23 16.3,12 5.4,1 6.4,0 			"/>
		</g>
		<g>
			<defs>
				<polygon id="SVGID_2_" points="18.6,12 6.4,24 5.4,23 16.3,12 5.4,1 6.4,0 				"/>
			</defs>
			<use xlink:href="#SVGID_2_"  style="overflow:visible;fill:#5492B3;"/>
			<clipPath id="SVGID_4_">
				<use xlink:href="#SVGID_2_"  style="overflow:visible;"/>
			</clipPath>
			<g class="st1">
				<g>
					<g>
						<rect id="SVGID_3_" x="-1380.9" y="-1465.2" class="st0" width="2747.8" height="3673"/>
					</g>
					<g>
						<defs>
							<rect id="SVGID_8_" x="-1380.9" y="-1465.2" width="2747.8" height="3673"/>
						</defs>
						<use xlink:href="#SVGID_8_"  style="overflow:visible;fill:#5492B3;"/>
						<clipPath id="SVGID_10_">
							<use xlink:href="#SVGID_8_"  style="overflow:visible;"/>
						</clipPath>
						<rect x="-3.3" y="-8.7" class="st2" width="30.6" height="41.6"/>
					</g>
				</g>
				<g>
					<defs>
						<polygon id="SVGID_11_" points="18.6,12 6.4,24 5.4,23 16.3,12 5.4,1 6.4,0 						"/>
					</defs>
					<use xlink:href="#SVGID_11_"  style="overflow:visible;fill:#5492B3;"/>
					<clipPath id="SVGID_12_">
						<use xlink:href="#SVGID_11_"  style="overflow:visible;"/>
					</clipPath>
					<g class="st3">
						<g>
							<polygon id="SVGID_5_" class="st0" points="18.6,12 6.4,24 5.4,23 16.3,12 5.4,1 6.4,0 							"/>
						</g>
						<g>
							<g>
								<polygon id="SVGID_6_" class="st0" points="18.6,12 6.4,24 5.4,23 16.3,12 5.4,1 6.4,0 								"/>
							</g>
							<g>
								<defs>
									<polygon id="SVGID_13_" points="18.6,12 6.4,24 5.4,23 16.3,12 5.4,1 6.4,0 									"/>
								</defs>
								<use xlink:href="#SVGID_13_"  style="overflow:visible;fill:#5492B3;"/>
								<clipPath id="SVGID_14_">
									<use xlink:href="#SVGID_13_"  style="overflow:visible;"/>
								</clipPath>
								<g class="st4">
									<g>
										<rect id="SVGID_7_" x="-1380.9" y="-1465.2" class="st0" width="2747.8" height="3673"/>
									</g>
									<g>
										<g>
											<rect id="SVGID_9_" x="-1380.9" y="-1465.2" class="st0" width="2747.8" height="3673"/>
										</g>
										<g>
											<defs>
												<rect id="SVGID_15_" x="-1380.9" y="-1465.2" width="2747.8" height="3673"/>
											</defs>
											<use xlink:href="#SVGID_15_"  style="overflow:visible;fill:#5492B3;"/>
											<clipPath id="SVGID_16_">
												<use xlink:href="#SVGID_15_"  style="overflow:visible;"/>
											</clipPath>
											<rect x="-3.3" y="-8.7" class="st5" width="30.6" height="41.6"/>
										</g>
									</g>
								</g>
							</g>
						</g>
					</g>
				</g>
			</g>
		</g>
	</g>
</g>
</svg>
