<?xml version="1.0" encoding="utf-8"?>
<!-- Generator: Adobe Illustrator 18.1.1, SVG Export Plug-In . SVG Version: 6.00 Build 0)  -->
<svg version="1.1" id="Capa_1" xmlns="http://www.w3.org/2000/svg" xmlns:xlink="http://www.w3.org/1999/xlink" x="0px" y="0px"
	 width="24px" height="24px" viewBox="357.1 4.9 24 24" enable-background="new 357.1 4.9 24 24" xml:space="preserve">
<image overflow="visible" width="95" height="107" xlink:href="../../Desktop/Screen Shot 2016-11-07 at 16.08.32.png"  transform="matrix(0.6445 0 0 0.6445 237.5 -9.3974)">
</image>
<path fill="#FFFFFF" d="M363.5,28.9c-0.2,0-0.4-0.1-0.5-0.2c-0.3-0.3-0.3-0.8,0-1.1l10.7-10.7L363,6.2c-0.3-0.3-0.3-0.8,0-1.1
	s0.8-0.3,1.1,0l11.2,11.2c0.1,0.1,0.2,0.3,0.2,0.5c0,0.2-0.1,0.4-0.2,0.5L364,28.7C363.9,28.8,363.7,28.9,363.5,28.9z"/>
</svg>
