<?xml version="1.0" encoding="utf-8"?>
<!-- Generator: Adobe Illustrator 18.1.1, SVG Export Plug-In . SVG Version: 6.00 Build 0)  -->
<svg version="1.1" id="Layer_1" xmlns="http://www.w3.org/2000/svg" xmlns:xlink="http://www.w3.org/1999/xlink" x="0px" y="0px"
	 width="32px" height="32px" viewBox="8 -8 32 32" enable-background="new 8 -8 32 32" xml:space="preserve">
<g id="Layer_2">
	<g>
		<path fill="#4D4D4D" d="M16.4,5.2c0.2,0.2,1,0.7,2.2,1.5s2.1,1.5,2.8,1.9c0.1,0.1,0.2,0.2,0.4,0.3c0.2,0.2,0.4,0.3,0.6,0.4
			c0.2,0.1,0.3,0.2,0.5,0.3c0.2,0.1,0.4,0.2,0.6,0.3C23.7,10,23.8,10,24,10h0h0c0.2,0,0.3,0,0.5-0.1c0.2-0.1,0.4-0.2,0.6-0.3
			c0.2-0.1,0.4-0.2,0.5-0.3c0.2-0.1,0.3-0.2,0.6-0.4s0.4-0.3,0.4-0.3C27.3,8.1,29,7,31.6,5.2c0.5-0.4,0.9-0.8,1.3-1.3
			c0.3-0.5,0.5-1,0.5-1.6c0-0.5-0.2-0.9-0.5-1.2c-0.3-0.3-0.7-0.5-1.2-0.5H16.3c-0.5,0-1,0.2-1.2,0.5c-0.3,0.4-0.4,0.8-0.4,1.4
			c0,0.4,0.2,0.9,0.6,1.4C15.6,4.5,16,4.9,16.4,5.2z"/>
		<path fill="#4D4D4D" d="M32.4,6.3c-2.3,1.6-4,2.8-5.2,3.6c-0.4,0.3-0.7,0.5-1,0.7c-0.2,0.2-0.6,0.3-1,0.5
			c-0.4,0.2-0.8,0.3-1.2,0.3h0h0c-0.4,0-0.7-0.1-1.2-0.3c-0.4-0.2-0.7-0.3-1-0.5c-0.2-0.2-0.6-0.4-1-0.7c-0.9-0.7-2.7-1.9-5.2-3.6
			c-0.4-0.3-0.8-0.6-1.1-0.9v8.3c0,0.5,0.2,0.9,0.5,1.2c0.3,0.3,0.7,0.5,1.2,0.5h15.5c0.5,0,0.9-0.2,1.2-0.5
			c0.3-0.3,0.5-0.7,0.5-1.2V5.4C33.1,5.7,32.8,6,32.4,6.3z"/>
	</g>
</g>
<g id="Layer_1_1_">
</g>
</svg>
