<?xml version="1.0" encoding="utf-8"?>
<!-- Generator: Adobe Illustrator 18.1.1, SVG Export Plug-In . SVG Version: 6.00 Build 0)  -->
<svg version="1.1" id="Layer_1" xmlns="http://www.w3.org/2000/svg" xmlns:xlink="http://www.w3.org/1999/xlink" x="0px" y="0px"
	 width="32px" height="32px" viewBox="8 -8 32 32" enable-background="new 8 -8 32 32" xml:space="preserve">
<g id="Layer_2">
	<path id="f" fill="#FFFFFF" d="M25.4,17.2V8.8h2.8l0.4-3.3h-3.2V3.5c0-0.9,0.3-1.6,1.6-1.6h1.7V-1c-0.3,0-1.3-0.1-2.5-0.1
		c-2.5,0-4.2,1.5-4.2,4.3v2.4h-2.8v3.3h2.8v8.4L25.4,17.2L25.4,17.2z"/>
</g>
<g id="Layer_1_1_" display="none">
	<path display="inline" fill="#3B589C" d="M24,115.3c-8.8,0-16,7.2-16,16s7.2,16,16,16s16-7.2,16-16S32.8,115.3,24,115.3z
		 M28.7,125.2H27c-1.3,0-1.6,0.6-1.6,1.6v2.1h3.2l-0.4,3.3h-2.8v8.4h-3.4v-8.4h-2.8v-3.3h2.8v-2.4c0-2.8,1.7-4.3,4.2-4.3
		c1.2,0,2.2,0.1,2.5,0.1L28.7,125.2L28.7,125.2z"/>
</g>
</svg>
