<?xml version="1.0" encoding="utf-8"?>
<!-- Generator: Adobe Illustrator 18.1.1, SVG Export Plug-In . SVG Version: 6.00 Build 0)  -->
<svg version="1.1" id="Layer_1" xmlns="http://www.w3.org/2000/svg" xmlns:xlink="http://www.w3.org/1999/xlink" x="0px" y="0px"
	 width="32px" height="32px" viewBox="8 -8 32 32" enable-background="new 8 -8 32 32" xml:space="preserve">
<g id="Layer_2">
</g>
<g id="Layer_1_1_">
	<g>
		<g>
			<g>
				<path fill="#4D4D4D" d="M15.1,4.9h3.8v12.3h-3.8V4.9z M17-1.2c1.2,0,2.2,1,2.2,2.2s-1,2.2-2.2,2.2s-2.2-1-2.2-2.2
					C14.8-0.2,15.8-1.2,17-1.2"/>
				<path fill="#4D4D4D" d="M21.3,4.9H25v1.7H25c0.5-1,1.8-2,3.6-2c3.9,0,4.6,2.5,4.6,5.9v6.7h-3.8v-6c0-1.4,0-3.3-2-3.3
					c-2,0-2.3,1.6-2.3,3.2v6.1h-3.8V4.9L21.3,4.9z"/>
			</g>
		</g>
	</g>
</g>
</svg>
