<?xml version="1.0" encoding="utf-8"?>
<!-- Generator: Adobe Illustrator 18.0.0, SVG Export Plug-In . SVG Version: 6.00 Build 0)  -->
<!DOCTYPE svg PUBLIC "-//W3C//DTD SVG 1.1//EN" "http://www.w3.org/Graphics/SVG/1.1/DTD/svg11.dtd">
<svg version="1.1" xmlns="http://www.w3.org/2000/svg" xmlns:xlink="http://www.w3.org/1999/xlink" x="0px" y="0px" width="32px"
	 height="32px" viewBox="0 0 32 32" enable-background="new 0 0 32 32" xml:space="preserve">
<g id="Layer_1">
</g>
<g id="Layer_2">
	<g>
		<g>
			<path fill="#FFFFFF" d="M17.8,18.9c1.2-0.5,2.2-1.2,2.9-2.1c0.7-0.9,1.1-1.9,1.1-2.9c0-1-0.4-2-1.1-2.9C20,10,19.1,9.3,17.8,8.8
				c-1.2-0.5-2.6-0.8-4-0.8c-1.4,0-2.8,0.3-4,0.8C8.6,9.3,7.7,10,7,10.9c-0.7,0.9-1.1,1.9-1.1,2.9c0,0.9,0.3,1.7,0.8,2.5
				c0.5,0.8,1.3,1.5,2.2,2c-0.1,0.2-0.2,0.3-0.2,0.5c-0.1,0.2-0.2,0.3-0.3,0.4c-0.1,0.1-0.2,0.2-0.3,0.3C8.1,19.7,8,19.8,7.8,20
				c-0.1,0.1-0.2,0.2-0.3,0.3c0,0,0,0,0,0.1c0,0,0,0.1-0.1,0.1c0,0,0,0,0,0.1c0,0,0,0.1,0,0.1l0,0.1c0,0,0,0,0,0.1c0,0,0,0,0,0.1
				c0,0,0,0.1,0,0.1c0,0.1,0.1,0.2,0.1,0.2c0.1,0.1,0.1,0.1,0.2,0.1h0c0.4-0.1,0.7-0.1,1-0.2c1.2-0.3,2.2-0.8,3.1-1.4
				c0.7,0.1,1.3,0.2,2,0.2C15.3,19.6,16.6,19.4,17.8,18.9z M11.5,17.9L11,18.3c-0.2,0.1-0.4,0.3-0.7,0.4l0.4-1l-1.1-0.6
				c-0.7-0.4-1.3-0.9-1.7-1.5c-0.4-0.6-0.6-1.2-0.6-1.8c0-0.8,0.3-1.5,0.9-2.2c0.6-0.7,1.4-1.2,2.4-1.6c1-0.4,2.1-0.6,3.2-0.6
				s2.2,0.2,3.2,0.6c1,0.4,1.8,0.9,2.4,1.6c0.6,0.7,0.9,1.4,0.9,2.2c0,0.8-0.3,1.5-0.9,2.2c-0.6,0.7-1.4,1.2-2.4,1.6
				c-1,0.4-2.1,0.6-3.2,0.6c-0.6,0-1.1-0.1-1.7-0.2L11.5,17.9z"/>
			<path fill="#FFFFFF" d="M25.3,19.3c0.5-0.8,0.8-1.6,0.8-2.5c0-0.9-0.3-1.8-0.8-2.6c-0.6-0.8-1.3-1.5-2.3-2
				c0.2,0.6,0.3,1.1,0.3,1.7c0,1-0.3,2-0.8,2.9c-0.5,0.9-1.2,1.7-2.2,2.4c-0.9,0.6-1.9,1.1-3,1.5c-1.1,0.3-2.3,0.5-3.5,0.5
				c-0.2,0-0.6,0-1,0c1.5,1,3.3,1.5,5.3,1.5c0.6,0,1.3-0.1,2-0.2c0.9,0.7,2,1.1,3.1,1.4c0.3,0.1,0.6,0.1,1,0.2c0.1,0,0.2,0,0.2-0.1
				c0.1-0.1,0.1-0.1,0.1-0.2c0,0,0-0.1,0-0.1c0,0,0,0,0-0.1c0,0,0-0.1,0-0.1l0-0.1c0,0,0,0,0-0.1c0,0,0,0,0-0.1c0,0,0,0-0.1-0.1
				c0,0,0,0,0-0.1c0,0-0.1-0.1-0.3-0.3c-0.1-0.1-0.2-0.3-0.3-0.3c-0.1-0.1-0.1-0.2-0.3-0.3c-0.1-0.1-0.2-0.3-0.3-0.4
				c-0.1-0.2-0.2-0.3-0.2-0.5C24.1,20.7,24.8,20.1,25.3,19.3z"/>
		</g>
	</g>
</g>
</svg>
