<?xml version="1.0" encoding="utf-8"?>
<!-- Generator: Adobe Illustrator 18.1.1, SVG Export Plug-In . SVG Version: 6.00 Build 0)  -->
<svg version="1.1" id="Layer_1" xmlns="http://www.w3.org/2000/svg" xmlns:xlink="http://www.w3.org/1999/xlink" x="0px" y="0px"
	 width="32px" height="32px" viewBox="8 -8 32 32" enable-background="new 8 -8 32 32" xml:space="preserve">
<g id="Layer_1_1_">
</g>
<g id="Layer_2">
	<g>
		<g>
			<path fill="#4D4D4D" d="M25.8,10.9c1.2-0.5,2.2-1.2,2.9-2.1c0.7-0.9,1.1-1.9,1.1-2.9s-0.4-2-1.1-2.9c-0.7-1-1.6-1.7-2.9-2.2
				c-1.2-0.5-2.6-0.8-4-0.8s-2.8,0.3-4,0.8C16.6,1.3,15.7,2,15,2.9s-1.1,1.9-1.1,2.9c0,0.9,0.3,1.7,0.8,2.5c0.5,0.8,1.3,1.5,2.2,2
				c-0.1,0.2-0.2,0.3-0.2,0.5c-0.1,0.2-0.2,0.3-0.3,0.4c-0.1,0.1-0.2,0.2-0.3,0.3c0,0.2-0.1,0.3-0.3,0.5c-0.1,0.1-0.2,0.2-0.3,0.3
				c0,0,0,0,0,0.1c0,0,0,0.1-0.1,0.1c0,0,0,0,0,0.1v0.1v0.1c0,0,0,0,0,0.1c0,0,0,0,0,0.1v0.1c0,0.1,0.1,0.2,0.1,0.2
				c0.1,0.1,0.1,0.1,0.2,0.1l0,0c0.4-0.1,0.7-0.1,1-0.2c1.2-0.3,2.2-0.8,3.1-1.4c0.7,0.1,1.3,0.2,2,0.2
				C23.3,11.6,24.6,11.4,25.8,10.9z M19.5,9.9L19,10.3c-0.2,0.1-0.4,0.3-0.7,0.4l0.4-1l-1.1-0.6c-0.7-0.4-1.3-0.9-1.7-1.5
				s-0.6-1.2-0.6-1.8c0-0.8,0.3-1.5,0.9-2.2c0.6-0.7,1.4-1.2,2.4-1.6c1-0.4,2.1-0.6,3.2-0.6C22.9,1.4,24,1.6,25,2
				c1,0.4,1.8,0.9,2.4,1.6C28,4.3,28.3,5,28.3,5.8S28,7.3,27.4,8C26.8,8.7,26,9.2,25,9.6s-2.1,0.6-3.2,0.6c-0.6,0-1.1-0.1-1.7-0.2
				L19.5,9.9z"/>
			<path fill="#4D4D4D" d="M33.3,11.3c0.5-0.8,0.8-1.6,0.8-2.5S33.8,7,33.3,6.2c-0.6-0.8-1.3-1.5-2.3-2c0.2,0.6,0.3,1.1,0.3,1.7
				c0,1-0.3,2-0.8,2.9c-0.5,0.9-1.2,1.7-2.2,2.4c-0.9,0.6-1.9,1.1-3,1.5c-1.1,0.3-2.3,0.5-3.5,0.5c-0.2,0-0.6,0-1,0
				c1.5,1,3.3,1.5,5.3,1.5c0.6,0,1.3-0.1,2-0.2c0.9,0.7,2,1.1,3.1,1.4c0.3,0.1,0.6,0.1,1,0.2c0.1,0,0.2,0,0.2-0.1
				c0.1-0.1,0.1-0.1,0.1-0.2v-0.1c0,0,0,0,0-0.1v-0.1v-0.1c0,0,0,0,0-0.1c0,0,0,0,0-0.1c0,0,0,0-0.1-0.1c0,0,0,0,0-0.1
				c0,0-0.1-0.1-0.3-0.3c-0.1-0.1-0.2-0.3-0.3-0.3c-0.1-0.1-0.1-0.2-0.3-0.3c-0.1-0.1-0.2-0.3-0.3-0.4c-0.1-0.2-0.2-0.3-0.2-0.5
				C32.1,12.7,32.8,12.1,33.3,11.3z"/>
		</g>
	</g>
</g>
</svg>
