<?xml version="1.0" encoding="utf-8"?>
<!-- Generator: Adobe Illustrator 18.1.1, SVG Export Plug-In . SVG Version: 6.00 Build 0)  -->
<svg version="1.1" id="Layer_1" xmlns="http://www.w3.org/2000/svg" xmlns:xlink="http://www.w3.org/1999/xlink" x="0px" y="0px"
	 width="32px" height="32px" viewBox="8 -8 32 32" enable-background="new 8 -8 32 32" xml:space="preserve">
<path fill="#4D4D4D" d="M33.9,12.2h-4c-0.8,0-1.4-0.7-1.4-1.5V10V8.7c-0.1,0-0.2-0.1-0.3-0.1c-1-0.3-2.3-0.7-4.2-0.7
	c-1.8,0-3.2,0.4-4.2,0.7c-0.1,0-0.2,0.1-0.3,0.1v2c0,0.8-0.6,1.5-1.4,1.5h-4c-0.8,0-1.4-0.7-1.5-1.5V9.6l0,0
	c0.1-0.4,0.2-0.9,0.4-1.3c0.2-0.4,0.4-0.7,0.6-1c0.1-0.1,2.9-3.5,10.4-3.5c5.4,0,8.5,1,10.4,3.5c0.2,0.3,0.4,0.6,0.6,1
	c0.2,0.4,0.3,0.9,0.4,1.3v1.1C35.4,11.5,34.7,12.2,33.9,12.2z"/>
</svg>
