<?xml version="1.0" encoding="utf-8"?>
<!-- Generator: Adobe Illustrator 18.1.1, SVG Export Plug-In . SVG Version: 6.00 Build 0)  -->
<svg version="1.1" id="Layer_1" xmlns="http://www.w3.org/2000/svg" xmlns:xlink="http://www.w3.org/1999/xlink" x="0px" y="0px"
	 width="32px" height="32px" viewBox="8 -8 32 32" enable-background="new 8 -8 32 32" xml:space="preserve">
<g id="Layer_2">
	<g>
		<path fill="#4D4D4D" d="M14.8-1.2v3.5C23,2.3,29.7,9,29.7,17.2h3.5C33.2,7.1,25-1.2,14.8-1.2z"/>
		<path fill="#4D4D4D" d="M14.8,5v3.5c2.3,0,4.5,0.9,6.1,2.5c1.6,1.6,2.5,3.8,2.5,6.1H27C27,10.5,21.5,5,14.8,5z"/>
		<path fill="#4D4D4D" d="M17.2,12.3c-1.4,0-2.5,1.1-2.5,2.5c0,1.4,1.1,2.4,2.5,2.4c1.4,0,2.5-1.1,2.5-2.4S18.6,12.3,17.2,12.3z"/>
	</g>
</g>
<g id="Layer_1_1_">
</g>
</svg>
