<?xml version="1.0" encoding="utf-8"?>
<!-- Generator: Adobe Illustrator 18.1.1, SVG Export Plug-In . SVG Version: 6.00 Build 0)  -->
<svg version="1.1" id="Layer_1" xmlns="http://www.w3.org/2000/svg" xmlns:xlink="http://www.w3.org/1999/xlink" x="0px" y="0px"
	 width="32px" height="32px" viewBox="8 -8 32 32" enable-background="new 8 -8 32 32" xml:space="preserve">
<g>
	<path fill="#FFFFFF" d="M30.5,11.9c-0.9,0-1.7,0.3-2.4,0.8l-6.8-4.1c0-0.2,0.1-0.4,0.1-0.6c0-0.2,0-0.4-0.1-0.6l6.8-4.1
		c0.7,0.5,1.5,0.8,2.4,0.8c2.2,0,3.9-1.8,3.9-3.9s-1.8-3.9-3.9-3.9s-4,1.7-4,3.8c0,0.2,0,0.4,0.1,0.6l-6.8,4.1
		C19.1,4.3,18.4,4,17.5,4c-2.2,0-3.9,1.8-3.9,3.9s1.8,3.9,3.9,3.9c0.9,0,1.7-0.3,2.4-0.8l6.8,4.1c0,0.2-0.1,0.4-0.1,0.6
		c0,2.2,1.8,3.9,3.9,3.9c2.1,0,3.9-1.8,3.9-3.9S32.7,11.9,30.5,11.9z"/>
</g>
</svg>
