<?xml version="1.0" encoding="utf-8"?>
<!-- Generator: Adobe Illustrator 18.1.1, SVG Export Plug-In . SVG Version: 6.00 Build 0)  -->
<svg version="1.1" id="Layer_1" xmlns="http://www.w3.org/2000/svg" xmlns:xlink="http://www.w3.org/1999/xlink" x="0px" y="0px"
	 width="32px" height="32px" viewBox="8 -8 32 32" enable-background="new 8 -8 32 32" xml:space="preserve">
<g id="Layer_2">
	<path fill="#4D4D4D" d="M32.7,10c0.1-0.6,0.2-1.2,0.2-1.9c0-4.9-3.9-8.8-8.8-8.8c-0.5,0-1,0-1.5,0.1c-0.8-0.5-1.7-0.8-2.7-0.8
		c-2.8,0-5.1,2.3-5.1,5.1c0,0.9,0.3,1.8,0.7,2.6c-0.1,0.6-0.2,1.2-0.2,1.8c0,4.9,3.9,8.8,8.8,8.8c0.5,0,1.1-0.1,1.6-0.1
		c0.7,0.4,1.5,0.6,2.4,0.6c2.8,0,5.1-2.3,5.1-5.1C33.2,11.4,33,10.7,32.7,10z M28.6,12.3c-0.4,0.6-1,1-1.8,1.4
		c-0.8,0.3-1.7,0.5-2.7,0.5c-1.3,0-2.3-0.2-3.2-0.7c-0.6-0.3-1.1-0.8-1.4-1.3c-0.4-0.5-0.6-1.1-0.6-1.6c0-0.3,0.1-0.6,0.4-0.8
		c0.2-0.2,0.5-0.3,0.9-0.3c0.3,0,0.6,0.1,0.8,0.3c0.2,0.2,0.4,0.4,0.5,0.8c0.2,0.4,0.3,0.7,0.5,0.9c0.2,0.2,0.4,0.4,0.7,0.6
		c0.3,0.2,0.7,0.2,1.3,0.2c0.7,0,1.3-0.2,1.8-0.5c0.4-0.3,0.7-0.7,0.7-1.1c0-0.3-0.1-0.6-0.3-0.8c-0.2-0.2-0.6-0.4-0.9-0.5
		c-0.4-0.1-0.9-0.3-1.6-0.4c-0.9-0.2-1.7-0.4-2.3-0.7c-0.6-0.3-1.1-0.6-1.5-1.1c-0.4-0.5-0.6-1.1-0.6-1.8c0-0.7,0.2-1.3,0.6-1.8
		c0.4-0.5,1-0.9,1.7-1.2C22.2,2,23.1,1.9,24,1.9c0.8,0,1.5,0.1,2.1,0.3c0.6,0.2,1.1,0.4,1.5,0.7c0.4,0.3,0.7,0.6,0.9,1
		c0.2,0.3,0.3,0.7,0.3,1c0,0.3-0.1,0.6-0.4,0.8c-0.2,0.2-0.5,0.4-0.9,0.4c-0.3,0-0.6-0.1-0.8-0.2c-0.2-0.1-0.3-0.4-0.5-0.7
		c-0.2-0.4-0.5-0.7-0.8-1c-0.3-0.2-0.8-0.3-1.5-0.3c-0.6,0-1.1,0.1-1.5,0.4C22,4.4,21.8,4.7,21.8,5c0,0.2,0.1,0.4,0.2,0.5
		c0.1,0.2,0.3,0.3,0.5,0.4c0.2,0.1,0.5,0.2,0.7,0.3c0.2,0.1,0.7,0.2,1.2,0.3c0.7,0.1,1.4,0.3,1.9,0.5c0.6,0.2,1.1,0.4,1.5,0.7
		c0.4,0.3,0.8,0.6,1,1s0.4,0.9,0.4,1.5C29.2,11.1,29,11.7,28.6,12.3z"/>
</g>
<g id="Layer_1_1_">
</g>
</svg>
