<?xml version="1.0" encoding="utf-8"?>
<!-- Generator: Adobe Illustrator 18.1.1, SVG Export Plug-In . SVG Version: 6.00 Build 0)  -->
<svg version="1.1" id="Layer_1" xmlns="http://www.w3.org/2000/svg" xmlns:xlink="http://www.w3.org/1999/xlink" x="0px" y="0px"
	 width="32px" height="32px" viewBox="6 -6 32 32" enable-background="new 6 -6 32 32" xml:space="preserve">
<g>
	<defs>
		<path id="SVGID_1_" d="M30.7,6c-0.1,1.7-1.3,4-3.6,7c-2.4,3.1-4.4,4.6-6,4.6c-1,0-1.9-0.9-2.6-2.8c-0.5-1.7-0.9-3.4-1.4-5.2
			c-0.5-1.9-1.1-2.8-1.7-2.8c-0.1,0-0.6,0.3-1.4,0.8l-0.8-1.1C14.1,5.8,15,5,15.8,4.2c1.1-1,2-1.5,2.6-1.6c1.4-0.1,2.2,0.8,2.5,2.8
			c0.3,2.1,0.6,3.5,0.7,4c0.4,1.8,0.8,2.7,1.3,2.7c0.4,0,0.9-0.6,1.6-1.7c0.7-1.1,1.1-2,1.2-2.6c0.1-1-0.3-1.5-1.2-1.5
			c-0.4,0-0.9,0.1-1.3,0.3c0.9-2.8,2.5-4.1,4.9-4.1C30,2.5,30.8,3.7,30.7,6"/>
	</defs>
	<clipPath id="SVGID_2_">
		<use xlink:href="#SVGID_1_"  overflow="visible"/>
	</clipPath>
	<g clip-path="url(#SVGID_2_)">
		<defs>
			<rect id="SVGID_3_" x="-659.1" y="-2475.6" width="909.4" height="3373.3"/>
		</defs>
		<clipPath id="SVGID_4_">
			<use xlink:href="#SVGID_3_"  overflow="visible"/>
		</clipPath>
		<rect x="10.4" y="-0.4" clip-path="url(#SVGID_4_)" fill="#FEFEFE" width="23.2" height="20.8"/>
	</g>
</g>
</svg>
