<?xml version="1.0" encoding="utf-8"?>
<!-- Generator: Adobe Illustrator 18.1.1, SVG Export Plug-In . SVG Version: 6.00 Build 0)  -->
<svg version="1.1" id="Layer_1" xmlns="http://www.w3.org/2000/svg" xmlns:xlink="http://www.w3.org/1999/xlink" x="0px" y="0px"
	 width="32px" height="32px" viewBox="6 -6 32 32" enable-background="new 6 -6 32 32" xml:space="preserve">
<g id="Lozenge">
	<g>
		<path fill="#FFFFFF" d="M30.9,6.3c0,0-0.2-1.3-0.7-1.8c-0.7-0.7-1.5-0.7-1.8-0.8C25.8,3.5,22,3.5,22,3.5l0,0c0,0-3.8,0-6.4,0.2
			c-0.4,0-1.1,0-1.8,0.8c-0.5,0.6-0.7,1.8-0.7,1.8s-0.2,1.5-0.2,3v1.4c0,1.5,0.2,3,0.2,3s0.2,1.3,0.7,1.8c0.7,0.7,1.6,0.7,2,0.8
			c1.5,0.1,6.2,0.2,6.2,0.2s3.8,0,6.4-0.2c0.4,0,1.1,0,1.8-0.8c0.5-0.6,0.7-1.8,0.7-1.8s0.2-1.5,0.2-3V9.3
			C31.1,7.8,30.9,6.3,30.9,6.3z M20.1,12.3V7.2L25,9.8L20.1,12.3z"/>
	</g>
</g>
</svg>
