<svg xmlns="http://www.w3.org/2000/svg" viewBox="0 123.3 595.3 595.3" enable-background="new 0 123.3 595.3 595.3"><g><path fill="#006B8D" d="M227.6 145.1c61.5 0 111.5 50.1 111.5 111.5S289 368.1 227.6 368.1s-111.5-50-111.5-111.4 50.1-111.6 111.5-111.6m0-21.8C154 123.3 94.2 183 94.2 256.8c0 73.7 59.6 133.4 133.4 133.4S361 330.6 361 256.8s-59.7-133.5-133.4-133.5zM271.8 247.3h-67.6v-23.1c0-6.5 2.3-12 6.9-16.7 4.6-4.6 10.1-6.9 16.7-6.9s12 2.3 16.7 6.9c4.5 4.5 6.8 10 6.9 16.4 0 .1 0-.1 0 0 0 1.5.6 3 1.8 4.2 1.2 1.2 2.5 1.8 4.2 1.8h5.8c1.5 0 3-.6 4.2-1.8s1.8-2.5 1.8-4.2c0-.1 0 .1 0 0-.1-11.2-4-20.8-12.1-28.9-8.1-8.1-17.8-12.1-29-12.1-11.3 0-21.1 4-29 12.1-8.1 8.1-12.1 17.8-12.1 29v23.1h-3c-2.5 0-4.5.8-6.3 2.6-1.7 1.7-2.6 3.8-2.6 6.3v65.7c0 2.5.8 4.5 2.6 6.3 1.7 1.7 3.8 2.6 6.3 2.6h88.4c2.5 0 4.5-.8 6.3-2.6 1.7-1.7 2.6-3.8 2.6-6.3V256c0-2.5-.8-4.5-2.6-6.3-2.3-1.5-4.4-2.4-6.9-2.4zm-37.1 43.1v17.3c0 3.5-2.9 6.3-6.3 6.3h-1.2c-3.5 0-6.3-2.9-6.3-6.3v-17.3c-3.7-2.3-6.2-6.4-6.2-11.1 0-7.3 5.8-13.1 13.1-13.1s13.1 5.8 13.1 13.1c-.2 4.5-2.6 8.7-6.2 11.1zM551.5 298.7c23.9 0 43.6 0 43.6 0l-86.9-93.4V252c-.1 25.9 19.4 46.7 43.3 46.7z"/><g fill="#006B8D"><path d="M457.9 523.7h10.3c1.9 0 3.3-1.5 3.3-3.3v-10.6c0-1.8-1.4-3.3-3.3-3.3h-10.3c-1.8 0-3.3 1.5-3.3 3.3v10.6c0 1.8 1.5 3.3 3.3 3.3zM457.9 496.8h10.3c1.9 0 3.3-1.4 3.3-3.3v-10.6c0-1.9-1.4-3.3-3.3-3.3h-10.3c-1.8 0-3.3 1.4-3.3 3.3v10.6c0 1.8 1.5 3.3 3.3 3.3zM457.9 469.9h10.3c1.9 0 3.3-1.4 3.3-3.3V456c0-1.9-1.4-3.3-3.3-3.3h-10.3c-1.8 0-3.3 1.5-3.3 3.3v10.6c0 1.8 1.5 3.3 3.3 3.3zM359.3 439h80.8c1.8 0 3.3-1.5 3.3-3.3v-52.3c0-1.9-1.5-3.3-3.3-3.3h-80.8c-1.9 0-3.3 1.4-3.3 3.3v52.3c0 1.8 1.5 3.3 3.3 3.3zM359.3 515.7h80.8c1.8 0 3.3-1.5 3.3-3.3V464c0-1.8-1.5-3.3-3.3-3.3h-80.8c-1.9 0-3.3 1.4-3.3 3.3v48.4c0 1.8 1.5 3.3 3.3 3.3zM457.9 389.3h10.3c1.9 0 3.3-1.4 3.3-3.3v-10.6c0-1.9-1.4-3.3-3.3-3.3h-10.3c-1.8 0-3.3 1.4-3.3 3.3V386c0 1.7 1.5 3.3 3.3 3.3zM331.2 416.1h10.3c1.8 0 3.3-1.5 3.3-3.3v-10.6c0-1.9-1.4-3.3-3.3-3.3h-10.3c-1.8 0-3.3 1.4-3.3 3.3v10.6c0 1.9 1.5 3.3 3.3 3.3zM457.9 443h10.3c1.9 0 3.3-1.5 3.3-3.3v-10.6c0-1.9-1.4-3.3-3.3-3.3h-10.3c-1.8 0-3.3 1.5-3.3 3.3v10.6c0 1.9 1.5 3.3 3.3 3.3zM327.9 386c0 1.9 1.5 3.3 3.3 3.3h10.3c1.8 0 3.3-1.4 3.3-3.3v-10.6c0-1.9-1.4-3.3-3.3-3.3h-6.1c-2.4 2.3-4.9 4.5-7.4 6.5l-.1 7.4zM457.9 416.1h10.3c1.9 0 3.3-1.5 3.3-3.3v-10.6c0-1.9-1.4-3.3-3.3-3.3h-10.3c-1.8 0-3.3 1.4-3.3 3.3v10.6c0 1.9 1.5 3.3 3.3 3.3zM419.2 592.3c-4.7 0-8.2 1.3-10.6 4-2.4 2.7-3.5 6.5-3.5 11.4 0 5.4 1 9.1 3 11.3 2 2.1 5 3.2 8.9 3.2 1.8 0 3.5-.3 5.3-.8 1.7-.6 3.3-1.3 4.7-2.3v-25.3c-1-.4-2.3-.8-3.8-1-1.5-.4-2.8-.5-4-.5zM545.6 321.2c-27.1 0-60.2-34.5-60.2-63.6 0-28.9 0-52.6 0-52.6H376.8c5.6 16.2 8.7 33.7 8.7 51.7 0 40.5-15.2 77.4-40.3 105.3h125.1c6.1 0 10.9 5 10.9 10.9v149.9c0 6.1-5 10.9-10.9 10.9H329c-6.1 0-10.9-4.9-10.9-10.9V386.1c-25.6 17.9-56.7 28.4-90.3 28.4-8 0-16-.6-23.7-1.8v249c0 31.3 25.4 56.8 56.8 56.8h277.6c31.3 0 56.8-25.4 56.8-56.8V321.2h-49.7zm-245 315.4H282v-19.5h18.6v19.5zm72.5-12.7c-1.3 3-3.5 5.6-6.3 7.7s-6.1 3.7-9.8 4.8-8.3 1.7-13.7 1.7c-6.1 0-11.4-.5-15.8-1.4-4.4-.9-8-2-10.7-3.2v-16.2h1.9c2.9 1.8 6.2 3.2 10.3 4.5 4 1.3 7.6 1.9 10.9 1.9 1.9 0 4-.2 6.3-.5s4.1-1 5.7-2.1c1.3-.8 2.2-1.9 2.9-3 .8-1.2 1.1-2.9 1.1-5.1 0-2.2-.5-3.8-1.5-5-1-1.2-2.3-2-4-2.5-1.6-.5-3.6-.8-5.9-.8-2.3-.1-4.4-.1-6.4-.1h-4v-13.2h4.2c2.6 0 4.9-.1 6.9-.3 2-.2 3.7-.6 5-1.2 1.4-.6 2.5-1.4 3.3-2.5.8-1 1.1-2.6 1.1-4.6 0-1.5-.4-2.7-1.2-3.6-.8-.9-1.8-1.6-2.9-2.2-1.3-.6-2.9-1-4.5-1.2-1.8-.2-3.3-.3-4.5-.3-3.1 0-6.5.5-10.2 1.6-3.6 1.1-7.2 2.6-10.6 4.6h-1.9v-16.1c2.7-1.1 6.4-2.2 11.1-3.2s9.4-1.5 14.2-1.5c4.7 0 8.7.4 12.3 1.2 3.5.8 6.4 1.9 8.7 3.3 2.7 1.6 4.7 3.6 6.1 5.9 1.3 2.4 2 5 2 8.2 0 4.1-1.3 7.8-3.9 11-2.5 3.2-5.9 5.3-10.1 6.2v.7c1.7.3 3.4.7 5.4 1.4 1.9.8 3.6 1.7 5.2 3 1.6 1.4 2.9 3 3.9 4.9.9 1.9 1.4 4.3 1.4 7.4 0 3.6-.7 6.8-2 9.8zm71.8 6.3c0 5.2-.8 9.7-2.3 13.2-1.5 3.6-3.6 6.4-6.3 8.4-2.7 2-5.9 3.5-9.8 4.5-3.8.9-8.1 1.3-12.9 1.3-3.9 0-7.7-.3-11.4-.7-3.8-.5-7-1-9.8-1.7v-14h2.2c2.2.8 4.9 1.7 8 2.4 3.1.7 6 1.1 8.4 1.1 3.3 0 6-.3 8.1-.9s3.6-1.5 4.7-2.6c1-1.1 1.8-2.4 2.3-4 .5-1.7.7-3.6.7-6v-1c-2.2 1.8-4.5 3.1-7.2 4.2-2.6 1-5.6 1.5-8.7 1.5-7.8 0-13.9-2.4-18.1-7.1s-6.4-11.9-6.4-21.5c0-4.6.7-8.6 1.9-11.9 1.3-3.4 3.1-6.3 5.5-8.7 2.2-2.4 4.9-4.1 8.1-5.4 3.2-1.3 6.5-1.9 9.8-1.9 3 0 5.7.3 8.2 1.1 2.4.7 4.7 1.7 6.7 2.9l.7-2.5h17.4l.2 49.3zm75.9 6.4h-58.1v-12.3c4.5-3.2 8.9-6.6 13.4-10.3 4.5-3.6 8.1-6.7 10.7-9.3 4-3.9 6.9-7.2 8.6-10.2 1.7-2.9 2.5-5.7 2.5-8.6 0-3.4-1.1-6-3.3-7.8-2.2-1.9-5.3-2.8-9.3-2.8-3 0-6.2.6-9.6 1.9-3.4 1.3-6.5 2.9-9.3 4.8h-1.6v-16.5c2.4-1 5.8-2 10.4-3.1 4.6-1 9.2-1.5 13.8-1.5 9.3 0 16.4 1.9 21.3 5.8 4.9 3.9 7.3 9.4 7.3 16.6 0 4.7-1.2 9.1-3.5 13.4-2.4 4.2-5.9 8.6-10.7 13-3 2.8-6.1 5.4-9.1 7.7-3 2.4-5.2 4-6.5 4.9h33.1v14.3zM331.2 523.7h10.3c1.8 0 3.3-1.5 3.3-3.3v-10.6c0-1.8-1.4-3.3-3.3-3.3h-10.3c-1.8 0-3.3 1.5-3.3 3.3v10.6c0 1.8 1.5 3.3 3.3 3.3zM331.2 496.8h10.3c1.8 0 3.3-1.4 3.3-3.3v-10.6c0-1.9-1.4-3.3-3.3-3.3h-10.3c-1.8 0-3.3 1.4-3.3 3.3v10.6c0 1.8 1.5 3.3 3.3 3.3zM331.2 469.9h10.3c1.8 0 3.3-1.4 3.3-3.3V456c0-1.9-1.4-3.3-3.3-3.3h-10.3c-1.8 0-3.3 1.5-3.3 3.3v10.6c0 1.8 1.5 3.3 3.3 3.3zM331.2 443h10.3c1.8 0 3.3-1.5 3.3-3.3v-10.6c0-1.9-1.4-3.3-3.3-3.3h-10.3c-1.8 0-3.3 1.5-3.3 3.3v10.6c0 1.9 1.5 3.3 3.3 3.3z"/></g></g></svg>