<svg xmlns="http://www.w3.org/2000/svg" viewBox="0 123.3 595.3 595.3" enable-background="new 0 123.3 595.3 595.3" width="40" height="40"><g><path fill="#006B8D" d="M551.8 298.7h43.5l-87-93.5v46.7c0 25.8 19.4 46.8 43.5 46.8z"/><g fill="#006B8D"><path d="M457.9 496.3h10.2c1.8 0 3.3-1.4 3.3-3.3v-10.6c0-1.8-1.4-3.3-3.3-3.3h-10.2c-1.8 0-3.3 1.4-3.3 3.3V493c0 1.8 1.5 3.3 3.3 3.3zM359.4 438.5h80.7c1.8 0 3.3-1.5 3.3-3.3v-52.3c0-1.8-1.4-3.3-3.3-3.3h-80.7c-1.8 0-3.3 1.4-3.3 3.3v52.3c0 1.8 1.4 3.3 3.3 3.3zM457.9 523.2h10.2c1.8 0 3.3-1.5 3.3-3.3v-10.6c0-1.8-1.4-3.3-3.3-3.3h-10.2c-1.8 0-3.3 1.4-3.3 3.3v10.6c0 1.8 1.5 3.3 3.3 3.3zM457.9 469.4h10.2c1.8 0 3.3-1.4 3.3-3.3v-10.6c0-1.8-1.4-3.3-3.3-3.3h-10.2c-1.8 0-3.3 1.4-3.3 3.3v10.6c0 1.9 1.5 3.3 3.3 3.3zM359.4 515.1h80.7c1.8 0 3.3-1.4 3.3-3.3v-48.3c0-1.8-1.4-3.3-3.3-3.3h-80.7c-1.8 0-3.3 1.4-3.3 3.3v48.3c0 1.9 1.4 3.3 3.3 3.3zM457.9 388.7h10.2c1.8 0 3.3-1.4 3.3-3.3v-10.6c0-1.8-1.4-3.3-3.3-3.3h-10.2c-1.8 0-3.3 1.4-3.3 3.3v10.6c0 1.9 1.5 3.3 3.3 3.3zM457.9 442.6h10.2c1.8 0 3.3-1.5 3.3-3.3v-10.6c0-1.8-1.4-3.3-3.3-3.3h-10.2c-1.8 0-3.3 1.5-3.3 3.3v10.6c0 1.7 1.5 3.3 3.3 3.3zM457.9 415.6h10.2c1.8 0 3.3-1.5 3.3-3.3v-10.6c0-1.8-1.4-3.3-3.3-3.3h-10.2c-1.8 0-3.3 1.4-3.3 3.3v10.6c0 1.9 1.5 3.3 3.3 3.3zM331.3 415.6h10.2c1.8 0 3.3-1.5 3.3-3.3v-10.6c0-1.8-1.4-3.3-3.3-3.3h-10.2c-1.8 0-3.3 1.4-3.3 3.3v10.6c0 1.9 1.5 3.3 3.3 3.3zM331.3 523.2h10.2c1.8 0 3.3-1.5 3.3-3.3v-10.6c0-1.8-1.4-3.3-3.3-3.3h-10.2c-1.8 0-3.3 1.4-3.3 3.3v10.6c0 1.8 1.5 3.3 3.3 3.3zM331.3 496.3h10.2c1.8 0 3.3-1.4 3.3-3.3v-10.6c0-1.8-1.4-3.3-3.3-3.3h-10.2c-1.8 0-3.3 1.4-3.3 3.3V493c0 1.8 1.5 3.3 3.3 3.3zM545.9 321.2c-27.1 0-60.3-34.6-60.3-63.5v-52.6H260.9c-31.3.2-56.7 25.6-56.7 56.9v400c0 31.3 25.4 56.7 56.7 56.7h277.5c31.3 0 56.7-25.4 56.7-56.7V321.2h-49.2zm-227.8 51.3c0-6 4.9-10.9 11-10.9h141.3c6 0 11 4.9 11 10.9v149.8c0 6-4.9 10.9-11 10.9H329.1c-6 0-11-4.9-11-10.9V372.5zm-17.4 263.6h-18.6v-19.6h18.6v19.6zm72.5-12.7c-1.4 3-3.5 5.6-6.4 7.8-2.8 2.1-6 3.7-9.9 4.8-3.7 1.1-8.3 1.6-13.7 1.6-6.1 0-11.4-.5-15.8-1.4-4.4-1-7.9-2-10.7-3.2v-16.3h2c2.8 1.7 6.2 3.2 10.2 4.5 3.9 1.2 7.6 1.9 10.8 1.9 1.9 0 4-.1 6.2-.5 2.2-.3 4.1-1 5.7-2 1.2-.9 2.2-1.8 3-3 .7-1.2 1.1-2.9 1.1-5.1 0-2.2-.5-3.8-1.5-5s-2.3-2-3.9-2.5-3.6-.8-5.8-.9c-2.3-.1-4.4-.1-6.4-.1H334v-13.2h4.2c2.6 0 4.9-.1 6.9-.3 2-.2 3.7-.5 5.1-1.1 1.4-.7 2.6-1.4 3.3-2.5.7-1.1 1.1-2.6 1.1-4.6 0-1.5-.4-2.7-1.1-3.6-.8-.9-1.7-1.6-2.9-2.2-1.3-.6-2.8-1-4.6-1.2s-3.3-.3-4.5-.3c-3.1 0-6.5.5-10.1 1.6-3.7 1.1-7.2 2.6-10.6 4.7H319v-16.1c2.7-1.1 6.4-2.2 11.1-3.2 4.7-1 9.4-1.5 14.3-1.5 4.7 0 8.8.4 12.3 1.2 3.5.8 6.4 1.9 8.7 3.3 2.7 1.6 4.7 3.6 6 5.9s2 5.1 2 8.1c0 4.1-1.2 7.8-3.8 11-2.6 3.2-5.9 5.3-10.1 6.2v.7c1.7.3 3.5.7 5.4 1.4 1.9.7 3.6 1.7 5.2 3 1.6 1.4 2.9 3 3.9 4.9 1 1.8 1.4 4.3 1.4 7.4-.1 3.6-.8 6.8-2.2 9.8zm71.8 6.2c0 5.3-.7 9.7-2.2 13.2-1.5 3.6-3.6 6.4-6.2 8.4-2.7 2-5.9 3.5-9.7 4.5-3.8.9-8.1 1.4-12.9 1.4-3.9 0-7.7-.3-11.5-.7-3.7-.5-7-1.1-9.8-1.7v-14h2.2c2.2.9 4.9 1.6 8 2.4 3.2.7 6 1.1 8.5 1.1 3.3 0 6-.3 8.1-.9 2.1-.6 3.7-1.5 4.7-2.6 1.1-1.1 1.8-2.4 2.2-4.1.5-1.6.7-3.7.7-6v-1.1c-2.2 1.8-4.5 3.2-7.2 4.2-2.6 1.1-5.5 1.5-8.7 1.5-7.8 0-13.9-2.4-18.1-7.1-4.3-4.7-6.4-11.9-6.4-21.5 0-4.6.7-8.6 2-12 1.3-3.4 3.1-6.2 5.5-8.7 2.2-2.3 4.9-4.1 8.1-5.5s6.4-2 9.8-2c3 0 5.8.3 8.2 1.1 2.5.7 4.7 1.7 6.7 3l.7-2.5H445v49.6zm75.9 6.5h-58.1v-12.2c4.5-3.2 8.9-6.6 13.3-10.2 4.5-3.6 8-6.7 10.7-9.3 4-3.9 6.9-7.3 8.5-10.1 1.7-2.9 2.6-5.7 2.6-8.5 0-3.4-1.1-6-3.3-7.8s-5.3-2.8-9.4-2.8c-3 0-6.2.7-9.7 1.9-3.4 1.2-6.5 2.9-9.4 4.8h-1.6v-16.5c2.4-1.1 5.8-2 10.4-3.1 4.6-1.1 9.2-1.5 13.8-1.5 9.3 0 16.4 2 21.2 5.8 4.9 3.9 7.3 9.4 7.3 16.6 0 4.7-1.2 9.1-3.5 13.3-2.4 4.2-5.9 8.5-10.7 13-3 2.8-6 5.3-9.1 7.7-3 2.4-5.3 3.9-6.5 4.9h33.4v14zM331.3 469.4h10.2c1.8 0 3.3-1.4 3.3-3.3v-10.6c0-1.8-1.4-3.3-3.3-3.3h-10.2c-1.8 0-3.3 1.4-3.3 3.3v10.6c0 1.9 1.5 3.3 3.3 3.3zM419.3 591.7c-4.7 0-8.2 1.4-10.6 4.1s-3.5 6.5-3.5 11.3c0 5.4 1 9.1 3 11.2 2 2.1 5 3.2 8.9 3.2 1.8 0 3.5-.3 5.3-.9 1.7-.6 3.3-1.3 4.7-2.2v-25.3c-1.1-.5-2.3-.8-3.7-1.1-1.5-.1-2.9-.3-4.1-.3zM331.3 388.7h10.2c1.8 0 3.3-1.4 3.3-3.3v-10.6c0-1.8-1.4-3.3-3.3-3.3h-10.2c-1.8 0-3.3 1.4-3.3 3.3v10.6c0 1.9 1.5 3.3 3.3 3.3zM331.3 442.6h10.2c1.8 0 3.3-1.5 3.3-3.3v-10.6c0-1.8-1.4-3.3-3.3-3.3h-10.2c-1.8 0-3.3 1.5-3.3 3.3v10.6c0 1.7 1.5 3.3 3.3 3.3z"/></g></g></svg>