<svg xmlns="http://www.w3.org/2000/svg" viewBox="0 123.3 595.3 595.3" enable-background="new 0 123.3 595.3 595.3" width="40" height="40"><g><g><path fill="#006B8D" d="M227.7 145.3c61.5 0 111.6 50.1 111.6 111.6s-50.1 111.6-111.6 111.6-111.6-50.1-111.6-111.6 50-111.6 111.6-111.6m0-22c-73.6 0-133.5 59.7-133.5 133.5 0 73.7 59.7 133.5 133.5 133.5s133.5-59.7 133.5-133.5c-.1-73.8-59.8-133.5-133.5-133.5zM271.8 247.2H204v-23.1c0-6.6 2.3-12 6.9-16.7 4.6-4.6 10.1-6.9 16.7-6.9s12 2.3 16.7 6.9c4.5 4.5 6.8 10 6.9 16.5v24c0 1.5.6 2.9 1.8 4.2 1.2 1.2 2.5 1.8 4.2 1.8h5.8c1.5 0 2.9-.6 4.2-1.8 1.2-1.2 1.8-2.5 1.8-4.2v-24.1c-.1-11.2-4-20.9-12.2-28.9-8.1-8.1-17.8-12.2-29.1-12.2s-21.1 4-29.1 12.2c-8.1 8.1-12.2 17.8-12.2 29.1v23.1h-2.9c-2.5 0-4.5.8-6.3 2.6-1.7 1.7-2.6 3.8-2.6 6.3v65.7c0 2.5.8 4.5 2.6 6.3 1.7 1.7 3.8 2.6 6.3 2.6h88.4c2.5 0 4.5-.8 6.3-2.6 1.7-1.7 2.6-3.8 2.6-6.3V256c0-2.5-.8-4.5-2.6-6.3-1.9-1.4-3.9-2.5-6.4-2.5zm-37.2 43.2v17.2c0 3.4-2.9 6.3-6.3 6.3h-1.2c-3.4 0-6.3-2.9-6.3-6.3v-17.2c-3.7-2.3-6.2-6.5-6.2-11.1 0-7.2 5.8-13.1 13.1-13.1 7.2 0 13.1 5.8 13.1 13.1-.1 4.7-2.5 8.7-6.2 11.1z"/></g><path fill="#006B8D" d="M551.5 298.7h43.6l-86.9-93.3v46.8c-.1 25.8 19.3 46.5 43.3 46.5z"/><g fill="#006B8D"><path d="M457.9 523.7h10.3c1.9 0 3.3-1.5 3.3-3.3v-10.6c0-1.8-1.4-3.3-3.3-3.3h-10.3c-1.8 0-3.3 1.5-3.3 3.3v10.6c0 1.8 1.4 3.3 3.3 3.3zM457.9 496.8h10.3c1.9 0 3.3-1.4 3.3-3.3v-10.6c0-1.9-1.4-3.3-3.3-3.3h-10.3c-1.8 0-3.3 1.4-3.3 3.3v10.6c0 1.9 1.4 3.3 3.3 3.3zM457.9 470h10.3c1.9 0 3.3-1.4 3.3-3.3v-10.6c0-1.9-1.4-3.3-3.3-3.3h-10.3c-1.8 0-3.3 1.5-3.3 3.3v10.6c0 1.7 1.4 3.3 3.3 3.3zM359.3 439H440c1.8 0 3.3-1.5 3.3-3.3v-52.3c0-1.9-1.5-3.3-3.3-3.3h-80.8c-1.9 0-3.3 1.4-3.3 3.3v52.3c.1 1.8 1.5 3.3 3.4 3.3zM359.3 515.7H440c1.8 0 3.3-1.5 3.3-3.3V464c0-1.8-1.5-3.3-3.3-3.3h-80.8c-1.9 0-3.3 1.4-3.3 3.3v48.4c.1 1.8 1.5 3.3 3.4 3.3zM457.9 389.3h10.3c1.9 0 3.3-1.4 3.3-3.3v-10.6c0-1.9-1.4-3.3-3.3-3.3h-10.3c-1.8 0-3.3 1.4-3.3 3.3V386c0 1.8 1.4 3.3 3.3 3.3zM331.2 416.1h10.3c1.8 0 3.3-1.5 3.3-3.3v-10.6c0-1.9-1.4-3.3-3.3-3.3h-10.3c-1.8 0-3.3 1.4-3.3 3.3v10.6c0 1.9 1.4 3.3 3.3 3.3zM457.9 443h10.3c1.9 0 3.3-1.5 3.3-3.3v-10.6c0-1.9-1.4-3.3-3.3-3.3h-10.3c-1.8 0-3.3 1.5-3.3 3.3v10.6c0 1.9 1.4 3.3 3.3 3.3zM327.9 386c0 1.9 1.5 3.3 3.3 3.3h10.3c1.8 0 3.3-1.4 3.3-3.3v-10.6c0-1.9-1.4-3.3-3.3-3.3h-6.1c-2.4 2.3-4.9 4.5-7.4 6.5v7.4h-.1zM457.9 416.1h10.3c1.9 0 3.3-1.5 3.3-3.3v-10.6c0-1.9-1.4-3.3-3.3-3.3h-10.3c-1.8 0-3.3 1.4-3.3 3.3v10.6c0 1.9 1.4 3.3 3.3 3.3zM545.6 321.2c-27.1 0-60.2-34.5-60.2-63.6V205H376.8c5.6 16.2 8.8 33.7 8.8 51.7 0 40.5-15.2 77.4-40.3 105.3h125.1c6.1 0 10.9 5 10.9 10.9v149.9c0 6.1-5 10.9-10.9 10.9H329c-6.1 0-10.9-4.9-10.9-10.9V386.2c-25.6 17.9-56.7 28.4-90.3 28.4-8 0-16-.6-23.7-1.8v249c0 31.3 25.4 56.8 56.8 56.8h277.7c31.3 0 56.8-25.4 56.8-56.8V321.2h-49.8zM300.8 636.8h-18.6v-19.5h18.6v19.5zm69.2-34.7c1.6 1.4 2.9 3 3.9 4.9.9 1.9 1.4 4.3 1.4 7.4 0 3.4-.7 6.7-2.1 9.8-1.3 3-3.4 5.6-6.3 7.7-2.8 2.1-6.1 3.7-9.8 4.8-3.8 1.1-8.3 1.7-13.7 1.7-6.1 0-11.4-.5-15.8-1.4-4.4-.9-8-2-10.7-3.2v-16.2h1.9c2.9 1.7 6.2 3.2 10.2 4.5 4 1.3 7.6 1.9 10.9 1.9 1.9 0 4-.2 6.2-.5 2.3-.3 4.1-1 5.7-2.1 1.3-.8 2.2-1.9 2.9-3 .8-1.2 1.1-2.9 1.1-5.1 0-2.2-.5-3.8-1.5-5-1-1.2-2.3-2-4-2.5-1.6-.5-3.6-.8-5.9-.8-2.3-.1-4.4-.1-6.4-.1h-4v-13.2h4.2c2.6 0 4.9-.1 6.9-.3 2-.2 3.7-.5 5-1.2 1.4-.6 2.5-1.4 3.3-2.5.8-1 1.1-2.6 1.1-4.6 0-1.5-.4-2.7-1.2-3.6-.8-.9-1.7-1.6-2.9-2.2-1.3-.6-2.8-1-4.5-1.2s-3.3-.3-4.5-.3c-3.1 0-6.5.5-10.2 1.6-3.6 1.1-7.2 2.6-10.6 4.6h-1.9v-16.1c2.7-1.1 6.4-2.1 11.1-3.2 4.7-1 9.4-1.5 14.2-1.5 4.7 0 8.8.4 12.3 1.2 3.5.8 6.4 1.9 8.7 3.3 2.7 1.6 4.7 3.6 6.1 5.9 1.3 2.4 2 5 2 8.2 0 4.1-1.3 7.7-3.8 11-2.5 3.2-5.9 5.3-10.1 6.2v.7c1.7.3 3.4.7 5.4 1.4 2.1.6 3.8 1.6 5.4 3zm75 28.2c0 5.2-.8 9.7-2.3 13.2-1.5 3.6-3.6 6.4-6.2 8.4-2.7 2-5.9 3.5-9.8 4.5-3.8.9-8.1 1.3-12.9 1.3-3.9 0-7.7-.3-11.4-.7-3.8-.5-7-1-9.8-1.7v-14h2.2c2.2.8 4.9 1.7 8 2.4 3.1.7 6 1.1 8.4 1.1 3.3 0 6-.3 8.1-.9s3.6-1.5 4.7-2.6c1-1.1 1.8-2.4 2.3-4 .5-1.7.7-3.6.7-6v-1c-2.2 1.8-4.5 3.1-7.2 4.2-2.6 1-5.6 1.5-8.8 1.5-7.8 0-13.8-2.4-18.1-7.1-4.2-4.7-6.4-11.9-6.4-21.5 0-4.6.7-8.6 1.9-11.9 1.3-3.4 3.1-6.2 5.5-8.8 2.2-2.4 4.9-4.1 8.1-5.4 3.2-1.3 6.5-1.9 9.8-1.9 3 0 5.7.3 8.2 1.1 2.4.7 4.7 1.7 6.7 2.9l.7-2.5H445v49.4zm-18-11.2v-25.3c-1-.4-2.3-.8-3.8-1-1.5-.3-2.9-.3-4-.3-4.7 0-8.2 1.3-10.6 4-2.4 2.7-3.5 6.5-3.5 11.3 0 5.4 1 9.1 3 11.3 2 2.1 5 3.2 8.9 3.2 1.8 0 3.5-.3 5.2-.8 1.9-.7 3.5-1.4 4.8-2.4zm93.1-11c0 4.6-.7 8.8-2.1 12.5-1.4 3.8-3.3 6.9-5.6 9.3-2.4 2.6-5 4.5-8.1 5.9s-6.2 2-9.7 2c-3.2 0-5.9-.3-8.1-1s-4.5-1.6-6.8-2.9v23.3h-17.9V581h17.9v5.8c2.8-2.2 5.6-4 8.4-5.3s6.1-2 9.9-2c7 0 12.4 2.5 16.2 7.7 4 4.9 5.9 12 5.9 20.9zm-18.4.3c0-5.4-.9-9.3-2.8-11.8-1.9-2.4-4.8-3.7-8.8-3.7-1.7 0-3.4.3-5.2.8-1.8.5-3.4 1.3-5.1 2.2v28c1.2.5 2.4.8 3.8.9 1.3.2 2.7.2 4 .2 4.7 0 8.2-1.3 10.6-4.1 2.3-2.7 3.5-6.9 3.5-12.5zM331.2 523.7h10.3c1.8 0 3.3-1.5 3.3-3.3v-10.6c0-1.8-1.4-3.3-3.3-3.3h-10.3c-1.8 0-3.3 1.5-3.3 3.3v10.6c0 1.8 1.4 3.3 3.3 3.3zM331.2 496.8h10.3c1.8 0 3.3-1.4 3.3-3.3v-10.6c0-1.9-1.4-3.3-3.3-3.3h-10.3c-1.8 0-3.3 1.4-3.3 3.3v10.6c0 1.9 1.4 3.3 3.3 3.3zM331.2 470h10.3c1.8 0 3.3-1.4 3.3-3.3v-10.6c0-1.9-1.4-3.3-3.3-3.3h-10.3c-1.8 0-3.3 1.5-3.3 3.3v10.6c0 1.7 1.4 3.3 3.3 3.3zM331.2 443h10.3c1.8 0 3.3-1.5 3.3-3.3v-10.6c0-1.9-1.4-3.3-3.3-3.3h-10.3c-1.8 0-3.3 1.5-3.3 3.3v10.6c0 1.9 1.4 3.3 3.3 3.3z"/></g></g></svg>