<svg xmlns="http://www.w3.org/2000/svg" viewBox="0 123.3 595.3 595.3" enable-background="new 0 123.3 595.3 595.3" width="40" height="40"><path fill="#006B8D" d="M551.6 298.6h43.6l-86.8-93.4V252c-.1 25.7 19.3 46.6 43.2 46.6z"/><g fill="#006B8D"><path d="M545.8 321.1c-27.1 0-60.2-34.6-60.2-63.6v-52.4h-77.5v29.2h-16.9v-29.2H260.8c-31.3.1-56.8 25.4-56.8 56.8v400c0 31.3 25.4 56.8 56.8 56.8h277.7c31.3 0 56.8-25.4 56.8-56.8V321.1h-49.5zm-154.6-55.4h16.9V297h-16.9v-31.3zm-.2 62.7h16.9v31.3H391v-31.3zm0 62.6h16.9v31.3H391V391zm8.5 137.5c-17.5 0-31.7-14.2-31.7-31.7 0-1.3.1-2.6.2-3.9 2.6-24.8 28.9-53.3 28.9-53.3.5-.5 1-.8 1.4-1.1l.8-.2.8.2c.5.2 1 .6 1.4 1.1 0 0 26.7 28.6 29.4 53.3.1 1.3.2 2.6.2 3.9.3 17.4-13.9 31.7-31.4 31.7zm-56.8 106.9h-18.6v-19.5h18.6v19.5zm74.8-59.2L384 635.4h-21.3l34.8-59.8h-38v-14.2h58v14.8zm63.2 59.2h-52.4v-11.5l29.4-31.3h-28.2v-13.1h50.6v11.3L451.2 622h29.5v13.4zM399.5 476.3c-11.2 0-20.4 9.2-20.4 20.4s9.2 20.4 20.4 20.4 20.4-9.2 20.4-20.4c-.1-11.2-9.2-20.4-20.4-20.4z"/></g></svg>