<svg xmlns="http://www.w3.org/2000/svg" viewBox="0 123.3 595.3 595.3" enable-background="new 0 123.3 595.3 595.3" width="40" height="40"><g fill="#006B8D"><path d="M508.3 251.9c0 25.8 19.4 46.7 43.5 46.7h43.5l-86.9-93.4-.1 46.7zM204.1 261.8v400c0 31.3 25.4 56.7 56.7 56.7h277.5c31.3 0 56.7-25.4 56.7-56.7V321.1h-49.2c-27.1 0-60.3-34.5-60.3-63.5v-52.5H260.8c-31.3.1-56.7 25.4-56.7 56.7zm138.5 210.5c7.7-1.7 15.4-1.3 22 .7v-82.1c0-5.6 3.9-10.5 9.4-11.7l99.3-21c.4-.1.7-.1 1.2-.1s.8-.1 1.2-.1c.1 0 .4 0 .5.1.6 0 1.2 0 1.8.1.4.1.7.2 1.1.4.4.1.7.2 1.1.4.4.1.8.4 1.2.6.2.1.6.2.8.5.4.2.6.5 1 .7.2.2.6.5.8.7.2.2.5.6.7.8.2.2.5.6.7.8.2.4.5.8.7 1.2.1.2.4.6.5.8.2.6.5 1.2.6 1.9 0 .1.1.2.1.4.1.4.1.8.1 1.3 0 .4.1.7.1 1.2v108.7c0 .7-.1 1.4-.2 2-.2 15.4-13.5 29.6-32.3 33.7-21.2 4.5-41.3-6-45-23.5-3.7-17.5 10.5-35.2 31.7-39.8 7.7-1.7 15.4-1.3 22 .7v-67.3l-75.2 16v99.2c0 .7-.1 1.4-.2 2-.2 15.4-13.5 29.6-32.3 33.7-21.2 4.5-41.3-6-45-23.5-3.8-17.3 10.5-35 31.6-39.5zM336 635.5h-18.6v-19.6H336v19.6zm51.4-5.9c-1 .7-2.2 1.6-3.6 2.6-1.4 1.1-2.8 1.8-4 2.4-1.8.8-3.6 1.4-5.5 1.8-1.9.4-3.9.6-6.2.6-5.3 0-9.7-1.6-13.3-4.9-3.6-3.3-5.4-7.5-5.4-12.6 0-4.1.9-7.4 2.8-10s4.4-4.6 7.8-6.1c3.3-1.5 7.4-2.6 12.4-3.2 4.9-.7 10-1.1 15.3-1.4v-.3c0-3.1-1.2-5.2-3.8-6.4-2.5-1.2-6.2-1.8-11.2-1.8-3 0-6.1.5-9.5 1.6-3.4 1.1-5.8 1.8-7.2 2.4h-1.6v-13.5c1.9-.5 5-1.1 9.2-1.8 4.3-.7 8.5-1.1 12.8-1.1 10.2 0 17.5 1.6 22.1 4.7 4.5 3.2 6.8 8.1 6.8 14.8v38h-17.7l-.2-5.8zm0-8.7v-11.6c-2.4.2-5.1.5-7.9.8-2.8.3-4.9.7-6.4 1.2-1.8.6-3.2 1.4-4.1 2.4s-1.4 2.5-1.4 4.3c0 1.2.1 2.1.3 2.8.2.7.7 1.4 1.5 2.1.8.7 1.6 1.1 2.8 1.4 1.1.3 2.7.5 5 .5 1.8 0 3.6-.4 5.5-1.1 1.7-.7 3.3-1.6 4.7-2.8zm52.7-49.2h-19v-13.6h19v13.6zm-.5 63.8h-17.9v-55.9h17.9v55.9zm53.1-64.2h-1.3c-.8-.3-1.8-.5-3.1-.8-1.2-.3-2.6-.5-4.1-.5-3.5 0-5.9.7-7.1 1.9-1.2 1.2-1.8 3.7-1.8 7.3v.5h13.8v12.2h-13.2v43.8H458v-43.8h-7.7v-12.2h7.7v-1.5c0-6.8 1.8-12 5.5-15.4s9.1-5.1 16.5-5.1c2.6 0 5.1.1 7.2.3s4.1.4 5.7.7v12.6h-.2z"/></g></svg>