<svg xmlns="http://www.w3.org/2000/svg" viewBox="0 123.3 595.3 595.3" enable-background="new 0 123.3 595.3 595.3" width="40" height="40"><path fill="#006B8D" d="M227.6 145.2c61.5 0 111.5 50.1 111.5 111.5S289 368.2 227.6 368.2s-111.5-50-111.5-111.4 50.1-111.6 111.5-111.6m0-21.9C154 123.3 94.2 183 94.2 256.8c0 73.7 59.6 133.4 133.4 133.4S361 330.6 361 256.8s-59.7-133.5-133.4-133.5zM271.8 247.3h-67.6v-23.1c0-6.5 2.3-12 6.9-16.7 4.6-4.6 10.1-6.9 16.7-6.9s12 2.3 16.7 6.9c4.5 4.5 6.8 10 6.9 16.4 0 .1 0-.1 0 0 0 1.5.6 3 1.8 4.2 1.2 1.2 2.5 1.8 4.2 1.8h5.8c1.5 0 3-.6 4.2-1.8s1.8-2.5 1.8-4.2c0-.1 0 .1 0 0-.1-11.2-4-20.8-12.1-28.9-8.1-8.1-17.8-12.1-29-12.1-11.3 0-21.1 4-29 12.1-8.1 8.1-12.1 17.8-12.1 29v23.1h-3c-2.5 0-4.5.8-6.3 2.6-1.7 1.7-2.6 3.8-2.6 6.3v65.7c0 2.5.8 4.5 2.6 6.3 1.7 1.7 3.8 2.6 6.3 2.6h88.4c2.5 0 4.5-.8 6.3-2.6 1.7-1.7 2.6-3.8 2.6-6.3V256c0-2.5-.8-4.5-2.6-6.3-2.3-1.5-4.4-2.4-6.9-2.4zm-37.1 43.2v17.3c0 3.5-2.9 6.3-6.3 6.3h-1.2c-3.5 0-6.3-2.9-6.3-6.3v-17.3c-3.7-2.3-6.2-6.4-6.2-11.1 0-7.3 5.8-13.1 13.1-13.1s13.1 5.8 13.1 13.1c-.2 4.5-2.6 8.6-6.2 11.1zM551.5 298.7h43.6l-86.9-93.4v46.8c-.1 25.8 19.4 46.6 43.3 46.6z"/><g fill="#006B8D"><path d="M457.9 523.7h10.3c1.9 0 3.3-1.5 3.3-3.3v-10.6c0-1.8-1.4-3.3-3.3-3.3h-10.3c-1.8 0-3.3 1.5-3.3 3.3v10.6c0 1.8 1.5 3.3 3.3 3.3zM457.9 496.8h10.3c1.9 0 3.3-1.4 3.3-3.3v-10.6c0-1.9-1.4-3.3-3.3-3.3h-10.3c-1.8 0-3.3 1.4-3.3 3.3v10.6c0 1.9 1.5 3.3 3.3 3.3zM457.9 470h10.3c1.9 0 3.3-1.4 3.3-3.3v-10.6c0-1.9-1.4-3.3-3.3-3.3h-10.3c-1.8 0-3.3 1.5-3.3 3.3v10.6c0 1.8 1.5 3.3 3.3 3.3zM359.3 439h80.8c1.8 0 3.3-1.5 3.3-3.3v-52.3c0-1.9-1.5-3.3-3.3-3.3h-80.8c-1.9 0-3.3 1.4-3.3 3.3v52.3c0 1.8 1.5 3.3 3.3 3.3zM359.3 515.8h80.8c1.8 0 3.3-1.5 3.3-3.3v-48.4c0-1.8-1.5-3.3-3.3-3.3h-80.8c-1.9 0-3.3 1.4-3.3 3.3v48.4c0 1.7 1.5 3.3 3.3 3.3zM457.9 389.3h10.3c1.9 0 3.3-1.4 3.3-3.3v-10.6c0-1.9-1.4-3.3-3.3-3.3h-10.3c-1.8 0-3.3 1.4-3.3 3.3V386c0 1.8 1.5 3.3 3.3 3.3zM331.2 416.1h10.3c1.8 0 3.3-1.5 3.3-3.3v-10.6c0-1.9-1.4-3.3-3.3-3.3h-10.3c-1.8 0-3.3 1.4-3.3 3.3v10.6c0 1.9 1.5 3.3 3.3 3.3zM457.9 443.1h10.3c1.9 0 3.3-1.5 3.3-3.3v-10.6c0-1.9-1.4-3.3-3.3-3.3h-10.3c-1.8 0-3.3 1.5-3.3 3.3v10.6c0 1.8 1.5 3.3 3.3 3.3zM327.9 386c0 1.9 1.5 3.3 3.3 3.3h10.3c1.8 0 3.3-1.4 3.3-3.3v-10.6c0-1.9-1.4-3.3-3.3-3.3h-6.1c-2.4 2.3-4.9 4.5-7.4 6.5l-.1 7.4zM457.9 416.1h10.3c1.9 0 3.3-1.5 3.3-3.3v-10.6c0-1.9-1.4-3.3-3.3-3.3h-10.3c-1.8 0-3.3 1.4-3.3 3.3v10.6c0 1.9 1.5 3.3 3.3 3.3zM545.6 321.3c-27.1 0-60.2-34.5-60.2-63.6v-52.6H376.8c5.6 16.2 8.7 33.7 8.7 51.7 0 40.5-15.2 77.4-40.3 105.3h125.1c6.1 0 10.9 5 10.9 10.9v149.9c0 6.1-5 10.9-10.9 10.9H329c-6.1 0-10.9-4.9-10.9-10.9V386.2c-25.6 17.9-56.7 28.4-90.3 28.4-8 0-16-.6-23.7-1.8v249c0 31.3 25.4 56.8 56.8 56.8h277.6c31.3 0 56.8-25.4 56.8-56.8V321.3h-49.7zM322.5 636h-18.6v-19.5h18.6V636zm51.4-5.9c-.9.8-2.2 1.6-3.6 2.6s-2.8 1.9-4 2.4c-1.8.8-3.6 1.3-5.5 1.8-1.9.4-4 .6-6.2.6-5.3 0-9.8-1.7-13.3-5-3.6-3.3-5.4-7.5-5.4-12.6 0-4 .9-7.4 2.8-10 1.9-2.6 4.4-4.6 7.7-6.1s7.4-2.5 12.4-3.2c4.9-.6 10-1.1 15.3-1.4v-.3c0-3.1-1.3-5.2-3.8-6.4-2.5-1.2-6.2-1.8-11.1-1.8-2.9 0-6.1.5-9.4 1.6-3.4 1-5.7 1.9-7.2 2.4h-1.7v-13.5c1.9-.5 5-1.1 9.3-1.8 4.3-.7 8.5-1 12.8-1 10.2 0 17.5 1.6 22 4.7s6.8 8.1 6.8 14.7v38H374l-.1-5.7zm0-8.8v-11.6c-2.4.2-5 .5-7.8.8-2.9.3-5 .8-6.4 1.2-1.8.6-3.2 1.3-4.1 2.4-.9 1.1-1.4 2.5-1.4 4.2 0 1.2.1 2.1.3 2.9.2.8.7 1.4 1.5 2.1.8.7 1.7 1.2 2.8 1.4 1.1.3 2.7.5 5 .5 1.8 0 3.6-.3 5.5-1.1 1.7-.7 3.1-1.6 4.6-2.8zm82.7-3.1c0 5.8-2.6 10.4-7.7 14-5.1 3.5-12.3 5.3-21.2 5.3-5 0-9.5-.5-13.5-1.4s-7.3-1.9-9.8-3.1v-14.7h1.7c.9.6 1.9 1.3 3.1 2.1 1.2.8 2.9 1.5 5 2.4 1.9.8 4 1.4 6.3 1.9 2.4.6 4.9.8 7.6.8 3.5 0 6.1-.4 7.8-1.2 1.7-.8 2.5-1.9 2.5-3.4 0-1.3-.5-2.4-1.5-2.9-1-.6-2.9-1.2-5.6-1.8-1.3-.3-3.1-.6-5.4-1-2.3-.3-4.4-.8-6.2-1.3-5-1.3-8.8-3.4-11.3-6.2-2.4-2.8-3.7-6.3-3.7-10.4 0-5.4 2.5-9.8 7.7-13.4s12-5.4 20.9-5.4c4.2 0 8.2.4 12 1.3 3.9.8 6.8 1.8 9 2.7v14.1h-1.5c-2.7-1.9-5.7-3.3-9.1-4.5-3.4-1.2-6.8-1.7-10.3-1.7-2.9 0-5.3.4-7.3 1.2-1.9.8-2.9 1.9-2.9 3.4 0 1.3.4 2.4 1.3 3 .9.7 3 1.4 6.3 2.1 1.9.3 3.8.8 5.9 1.1s4.2.8 6.3 1.3c4.7 1.3 8.2 3.2 10.4 5.8 2.1 2.7 3.2 6.1 3.2 9.9zm48.2-46.5h-1.3c-.8-.3-1.9-.5-3.1-.8-1.3-.3-2.6-.4-4.1-.4-3.5 0-5.9.6-7.2 1.9-1.3 1.3-1.9 3.7-1.9 7.3v.4H501v12.1h-13.2V636h-17.9v-43.7h-7.7v-12.1h7.7v-1.5c0-6.8 1.9-11.9 5.5-15.4s9.2-5.1 16.5-5.1c2.7 0 5 .1 7.2.3s4 .4 5.7.8v12.4zM331.2 523.7h10.3c1.8 0 3.3-1.5 3.3-3.3v-10.6c0-1.8-1.4-3.3-3.3-3.3h-10.3c-1.8 0-3.3 1.5-3.3 3.3v10.6c0 1.8 1.5 3.3 3.3 3.3zM331.2 496.8h10.3c1.8 0 3.3-1.4 3.3-3.3v-10.6c0-1.9-1.4-3.3-3.3-3.3h-10.3c-1.8 0-3.3 1.4-3.3 3.3v10.6c0 1.9 1.5 3.3 3.3 3.3zM331.2 470h10.3c1.8 0 3.3-1.4 3.3-3.3v-10.6c0-1.9-1.4-3.3-3.3-3.3h-10.3c-1.8 0-3.3 1.5-3.3 3.3v10.6c0 1.8 1.5 3.3 3.3 3.3zM331.2 443.1h10.3c1.8 0 3.3-1.5 3.3-3.3v-10.6c0-1.9-1.4-3.3-3.3-3.3h-10.3c-1.8 0-3.3 1.5-3.3 3.3v10.6c0 1.8 1.5 3.3 3.3 3.3z"/></g></svg>