<svg xmlns="http://www.w3.org/2000/svg" viewBox="0 123.3 595.3 595.3" enable-background="new 0 123.3 595.3 595.3" width="40" height="40"><g><g><path fill="#006B8D" d="M227.7 145.3c61.5 0 111.6 50.1 111.6 111.6s-50.1 111.6-111.6 111.6-111.6-50.1-111.6-111.6 50.1-111.6 111.6-111.6m0-22c-73.6 0-133.5 59.7-133.5 133.5 0 73.7 59.7 133.5 133.5 133.5s133.5-59.7 133.5-133.5-59.8-133.5-133.5-133.5zM271.8 247.2h-67.7v-23.1c0-6.6 2.3-12 6.9-16.7 4.6-4.6 10.1-6.9 16.7-6.9s12 2.3 16.7 6.9c4.5 4.5 6.8 10 6.9 16.5v24c0 1.5.6 2.9 1.8 4.2 1.2 1.2 2.5 1.8 4.2 1.8h5.8c1.5 0 2.9-.6 4.2-1.8 1.2-1.2 1.8-2.5 1.8-4.2v-24.1c-.1-11.2-4-20.9-12.2-28.9-8.1-8.1-17.8-12.2-29.1-12.2s-21.1 4-29.1 12.2c-8.1 8.1-12.2 17.8-12.2 29.1v23.1h-2.9c-2.5 0-4.5.8-6.3 2.6-1.7 1.7-2.6 3.8-2.6 6.3v65.7c0 2.5.8 4.5 2.6 6.3 1.7 1.7 3.8 2.6 6.3 2.6H272c2.5 0 4.5-.8 6.3-2.6 1.7-1.7 2.6-3.8 2.6-6.3V256c0-2.5-.8-4.5-2.6-6.3-1.9-1.5-4-2.5-6.5-2.5zm-37.2 43.2v17.2c0 3.4-2.9 6.3-6.3 6.3h-1.2c-3.4 0-6.3-2.9-6.3-6.3v-17.2c-3.7-2.3-6.2-6.5-6.2-11.1 0-7.2 5.8-13.1 13.1-13.1 7.2 0 13.1 5.8 13.1 13.1 0 4.7-2.5 8.7-6.2 11.1z"/></g><g><path fill="#006B8D" d="M551.5 298.7h43.6l-86.9-93.4v46.8c-.1 25.8 19.4 46.6 43.3 46.6z"/><g fill="#006B8D"><path d="M457.9 523.7h10.3c1.9 0 3.3-1.5 3.3-3.3v-10.6c0-1.8-1.4-3.3-3.3-3.3h-10.3c-1.8 0-3.3 1.5-3.3 3.3v10.6c0 1.8 1.5 3.3 3.3 3.3zM457.9 496.8h10.3c1.9 0 3.3-1.4 3.3-3.3v-10.6c0-1.9-1.4-3.3-3.3-3.3h-10.3c-1.8 0-3.3 1.4-3.3 3.3v10.6c0 1.9 1.5 3.3 3.3 3.3zM457.9 470h10.3c1.9 0 3.3-1.4 3.3-3.3v-10.6c0-1.9-1.4-3.3-3.3-3.3h-10.3c-1.8 0-3.3 1.5-3.3 3.3v10.6c0 1.8 1.5 3.3 3.3 3.3zM359.3 439h80.8c1.8 0 3.3-1.5 3.3-3.3v-52.3c0-1.9-1.5-3.3-3.3-3.3h-80.8c-1.9 0-3.3 1.4-3.3 3.3v52.3c0 1.8 1.5 3.3 3.3 3.3zM359.3 515.8h80.8c1.8 0 3.3-1.5 3.3-3.3v-48.4c0-1.8-1.5-3.3-3.3-3.3h-80.8c-1.9 0-3.3 1.4-3.3 3.3v48.4c0 1.7 1.5 3.3 3.3 3.3zM457.9 389.3h10.3c1.9 0 3.3-1.4 3.3-3.3v-10.6c0-1.9-1.4-3.3-3.3-3.3h-10.3c-1.8 0-3.3 1.4-3.3 3.3V386c0 1.8 1.5 3.3 3.3 3.3zM331.2 416.1h10.3c1.8 0 3.3-1.5 3.3-3.3v-10.6c0-1.9-1.4-3.3-3.3-3.3h-10.3c-1.8 0-3.3 1.4-3.3 3.3v10.6c0 1.9 1.5 3.3 3.3 3.3zM457.9 443.1h10.3c1.9 0 3.3-1.5 3.3-3.3v-10.6c0-1.9-1.4-3.3-3.3-3.3h-10.3c-1.8 0-3.3 1.5-3.3 3.3v10.6c0 1.8 1.5 3.3 3.3 3.3zM327.9 386c0 1.9 1.5 3.3 3.3 3.3h10.3c1.8 0 3.3-1.4 3.3-3.3v-10.6c0-1.9-1.4-3.3-3.3-3.3h-6.1c-2.4 2.3-4.9 4.5-7.4 6.5l-.1 7.4zM457.9 416.1h10.3c1.9 0 3.3-1.5 3.3-3.3v-10.6c0-1.9-1.4-3.3-3.3-3.3h-10.3c-1.8 0-3.3 1.4-3.3 3.3v10.6c0 1.9 1.5 3.3 3.3 3.3zM545.6 321.3c-27.1 0-60.2-34.5-60.2-63.6v-52.6H376.8c5.6 16.2 8.7 33.7 8.7 51.7 0 40.5-15.2 77.4-40.3 105.3h125.1c6.1 0 10.9 5 10.9 10.9v149.9c0 6.1-5 10.9-10.9 10.9H329c-6.1 0-10.9-4.9-10.9-10.9V386.2c-25.6 17.9-56.7 28.4-90.3 28.4-8 0-16-.6-23.7-1.8v249c0 31.3 25.4 56.8 56.8 56.8h277.6c31.3 0 56.8-25.4 56.8-56.8V321.3h-49.7zM324 635.9h-18.7v-19.6H324v19.6zm51.4-6c-.9.8-2.2 1.6-3.6 2.6s-2.8 1.9-4 2.4c-1.8.8-3.6 1.3-5.5 1.8-1.9.4-4 .6-6.2.6-5.3 0-9.8-1.7-13.4-5-3.6-3.3-5.4-7.5-5.4-12.6 0-4.1.9-7.4 2.8-10 1.9-2.6 4.5-4.6 7.7-6.1 3.3-1.5 7.4-2.5 12.4-3.2 4.9-.6 10-1.1 15.3-1.4v-.3c0-3.1-1.3-5.2-3.8-6.4-2.5-1.2-6.2-1.8-11.2-1.8-2.9 0-6.1.5-9.5 1.6-3.4 1-5.8 1.9-7.2 2.4h-1.7V581c1.9-.5 5-1.1 9.3-1.8 4.3-.7 8.6-1 12.9-1 10.2 0 17.6 1.6 22.1 4.7s6.8 8.1 6.8 14.8v38h-17.8v-5.8zm0-8.7v-11.6c-2.4.2-5 .5-7.9.8-2.9.3-5 .8-6.4 1.2-1.8.6-3.2 1.3-4.1 2.4-.9 1.1-1.4 2.5-1.4 4.2 0 1.2.1 2.1.3 2.9.2.8.7 1.4 1.5 2.1.8.7 1.7 1.2 2.8 1.4 1.1.3 2.7.5 5 .5 1.8 0 3.6-.3 5.5-1.1 1.7-.6 3.3-1.6 4.7-2.8zm90.7-41.3l-21.5 55.9h-20.4l-21.5-55.9h18.9l13 38.5 12.8-38.5h18.7zm28.4-7.9h-19v-13.6h19V572zm-.5 63.9h-18V580h18v55.9zM331.2 523.7h10.3c1.8 0 3.3-1.5 3.3-3.3v-10.6c0-1.8-1.4-3.3-3.3-3.3h-10.3c-1.8 0-3.3 1.5-3.3 3.3v10.6c0 1.8 1.5 3.3 3.3 3.3zM331.2 496.8h10.3c1.8 0 3.3-1.4 3.3-3.3v-10.6c0-1.9-1.4-3.3-3.3-3.3h-10.3c-1.8 0-3.3 1.4-3.3 3.3v10.6c0 1.9 1.5 3.3 3.3 3.3zM331.2 470h10.3c1.8 0 3.3-1.4 3.3-3.3v-10.6c0-1.9-1.4-3.3-3.3-3.3h-10.3c-1.8 0-3.3 1.5-3.3 3.3v10.6c0 1.8 1.5 3.3 3.3 3.3zM331.2 443.1h10.3c1.8 0 3.3-1.5 3.3-3.3v-10.6c0-1.9-1.4-3.3-3.3-3.3h-10.3c-1.8 0-3.3 1.5-3.3 3.3v10.6c0 1.8 1.5 3.3 3.3 3.3z"/></g></g></g></svg>