<svg xmlns="http://www.w3.org/2000/svg" viewBox="0 123.3 595.3 595.3" enable-background="new 0 123.3 595.3 595.3" width="40" height="40"><g><path fill="#006B8D" d="M551.8 298.7h43.5l-87-93.5v46.7c0 25.8 19.4 46.8 43.5 46.8z"/><g fill="#006B8D"><path d="M457.9 496.2h10.2c1.8 0 3.3-1.4 3.3-3.3v-10.6c0-1.8-1.4-3.3-3.3-3.3h-10.2c-1.8 0-3.3 1.4-3.3 3.3v10.6c0 1.9 1.5 3.3 3.3 3.3zM359.4 438.4h80.7c1.8 0 3.3-1.5 3.3-3.3v-52.3c0-1.8-1.4-3.3-3.3-3.3h-80.7c-1.8 0-3.3 1.4-3.3 3.3v52.3c0 1.8 1.4 3.3 3.3 3.3zM457.9 523.1h10.2c1.8 0 3.3-1.5 3.3-3.3v-10.6c0-1.8-1.4-3.3-3.3-3.3h-10.2c-1.8 0-3.3 1.4-3.3 3.3v10.6c0 1.8 1.5 3.3 3.3 3.3zM457.9 469.4h10.2c1.8 0 3.3-1.4 3.3-3.3v-10.6c0-1.8-1.4-3.3-3.3-3.3h-10.2c-1.8 0-3.3 1.4-3.3 3.3v10.6c0 1.8 1.5 3.3 3.3 3.3zM359.4 515.1h80.7c1.8 0 3.3-1.4 3.3-3.3v-48.3c0-1.8-1.4-3.3-3.3-3.3h-80.7c-1.8 0-3.3 1.4-3.3 3.3v48.3c0 1.8 1.4 3.3 3.3 3.3zM457.9 388.7h10.2c1.8 0 3.3-1.4 3.3-3.3v-10.6c0-1.8-1.4-3.3-3.3-3.3h-10.2c-1.8 0-3.3 1.4-3.3 3.3v10.6c0 1.8 1.5 3.3 3.3 3.3zM457.9 442.5h10.2c1.8 0 3.3-1.5 3.3-3.3v-10.6c0-1.8-1.4-3.3-3.3-3.3h-10.2c-1.8 0-3.3 1.5-3.3 3.3v10.6c0 1.8 1.5 3.3 3.3 3.3zM457.9 415.6h10.2c1.8 0 3.3-1.5 3.3-3.3v-10.6c0-1.8-1.4-3.3-3.3-3.3h-10.2c-1.8 0-3.3 1.4-3.3 3.3v10.6c0 1.8 1.5 3.3 3.3 3.3zM331.3 415.6h10.2c1.8 0 3.3-1.5 3.3-3.3v-10.6c0-1.8-1.4-3.3-3.3-3.3h-10.2c-1.8 0-3.3 1.4-3.3 3.3v10.6c0 1.8 1.5 3.3 3.3 3.3zM331.3 523.1h10.2c1.8 0 3.3-1.5 3.3-3.3v-10.6c0-1.8-1.4-3.3-3.3-3.3h-10.2c-1.8 0-3.3 1.4-3.3 3.3v10.6c0 1.8 1.5 3.3 3.3 3.3zM331.3 496.2h10.2c1.8 0 3.3-1.4 3.3-3.3v-10.6c0-1.8-1.4-3.3-3.3-3.3h-10.2c-1.8 0-3.3 1.4-3.3 3.3v10.6c0 1.9 1.5 3.3 3.3 3.3zM545.9 321.2c-27.1 0-60.3-34.6-60.3-63.5v-52.6H260.9c-31.3.2-56.7 25.6-56.7 56.9v400c0 31.3 25.4 56.7 56.7 56.7h277.5c31.3 0 56.7-25.4 56.7-56.7V321.2h-49.2zm-227.8 51.2c0-6 4.9-10.9 11-10.9h141.3c6 0 11 4.9 11 10.9v149.8c0 6-4.9 10.9-11 10.9H329.1c-6 0-11-4.9-11-10.9V372.4zm5.9 263.5h-18.7v-19.6H324v19.6zm51.5-6c-1 .7-2.2 1.6-3.6 2.6-1.4 1.1-2.8 1.8-4 2.4-1.8.8-3.6 1.4-5.5 1.8-1.9.4-3.9.6-6.2.6-5.3 0-9.8-1.6-13.3-4.9-3.6-3.3-5.4-7.5-5.4-12.6 0-4.1.9-7.4 2.8-10 1.8-2.6 4.4-4.7 7.8-6.1 3.4-1.5 7.4-2.6 12.3-3.2 4.9-.7 10-1.1 15.3-1.4v-.3c0-3.1-1.2-5.2-3.8-6.4-2.5-1.2-6.2-1.8-11.2-1.8-3 0-6.1.5-9.5 1.6-3.4 1.1-5.8 1.8-7.2 2.4h-1.6v-13.5c1.9-.5 5-1.1 9.3-1.8s8.5-1.1 12.8-1.1c10.2 0 17.5 1.6 22.1 4.7s6.8 8.1 6.8 14.8v38.1h-17.8l-.1-5.9zm0-8.7v-11.6c-2.4.2-5.1.5-7.9.8-2.8.3-5 .7-6.4 1.2-1.8.6-3.2 1.4-4.1 2.4-.9 1.1-1.4 2.5-1.4 4.3 0 1.2.1 2.1.3 2.8.2.7.7 1.4 1.5 2.1.8.7 1.7 1.2 2.8 1.4 1.1.3 2.7.5 5 .5 1.8 0 3.6-.4 5.5-1.1 1.7-.6 3.3-1.6 4.7-2.8zm90.6-41.3l-21.6 56h-20.3l-21.4-56h18.9l13 38.5 12.8-38.5h18.6zm28.5-7.9h-19v-13.6h19V572zm-.5 63.9h-18v-56h18v56zM331.3 469.4h10.2c1.8 0 3.3-1.4 3.3-3.3v-10.6c0-1.8-1.4-3.3-3.3-3.3h-10.2c-1.8 0-3.3 1.4-3.3 3.3v10.6c0 1.8 1.5 3.3 3.3 3.3zM331.3 388.7h10.2c1.8 0 3.3-1.4 3.3-3.3v-10.6c0-1.8-1.4-3.3-3.3-3.3h-10.2c-1.8 0-3.3 1.4-3.3 3.3v10.6c0 1.8 1.5 3.3 3.3 3.3zM331.3 442.5h10.2c1.8 0 3.3-1.5 3.3-3.3v-10.6c0-1.8-1.4-3.3-3.3-3.3h-10.2c-1.8 0-3.3 1.5-3.3 3.3v10.6c0 1.8 1.5 3.3 3.3 3.3z"/></g></g></svg>