<svg xmlns="http://www.w3.org/2000/svg" viewBox="0 123.3 595.3 595.3" enable-background="new 0 123.3 595.3 595.3" width="40" height="40"><g><g fill="#006B8D"><path d="M551.8 298.7h43.5l-86.8-93.4V252c-.1 25.8 19.4 46.7 43.3 46.7zM432.5 594c-1.1-1.3-2.4-2.4-3.8-2.9-1.4-.6-3.1-.8-4.9-.8-1.8 0-3.2.2-4.5.7s-2.6 1.3-3.9 2.9c-1.1 1.3-1.9 3.1-2.6 5.4-.7 2.3-1 5-1 8.5 0 3 .3 5.7.8 8s1.3 4.1 2.5 5.4c1.1 1.3 2.4 2.3 3.8 2.9 1.4.6 3.1.8 5 .8 1.7 0 3.2-.3 4.7-.8 1.4-.6 2.7-1.4 3.8-2.7 1.2-1.4 2-3.1 2.6-5.1s.8-4.8.8-8.4c0-3.3-.3-6.1-.8-8.2-.6-2.5-1.5-4.3-2.5-5.7zM378.7 473.2c-.5 2.1-.7 4.3-.8 6.4h-.2c-.2-2.7-.6-4.8-.8-6.1l-8.7-37.3-11.6 1.3-8 34.5c-.5 2.1-.8 4.1-.8 5.8h-.2c-.2-2.4-.3-4.4-.6-5.7l-5.7-32.7-9.3 1.1 10 47.8 10.7 1.3 7.8-33.3c.4-1.6.7-3.6.8-6.1h.2c.1 2.1.3 4.2.8 6.1l8.2 35.5 13.6 1.6 16.1-60.8-14 1.7-7.5 38.9zM546 321.2c-27.1 0-60.3-34.5-60.3-63.4v-52.5H377.2c5.6 16.1 8.7 33.6 8.7 51.6 0 87.2-70.7 157.8-157.8 157.8-8 0-16-.6-23.8-1.8v249c0 31.3 25.4 56.7 56.7 56.7h277.6c31.3 0 56.7-25.4 56.7-56.7V321.2H546zM418.9 507h43.3v-12.4h-43.3v-12.4h43.3v-12.4h-43.3v-12.4h43.3V445h-43.3v-12h43.4v-12.6h-43.4V402h56.6c2.9 0 5.1 2.4 5.1 5.4v112.8c0 3-2.4 5.4-5.1 5.4h-56.6V507zm-99-105.9l92.8-17.9V544l-92.8-17.9v-125zm-11.4 234.4h-18.6v-19.6h18.6v19.6zm71.9 0h-18v-5.9c-3.1 2.5-6 4.4-8.7 5.5-2.7 1.2-5.7 1.8-9.3 1.8-6.8 0-12.3-2.6-16.4-7.9-4.1-5.3-6.1-12.3-6.1-21.2 0-4.8.7-9 2-12.7 1.3-3.7 3.2-6.8 5.6-9.4 2.3-2.5 5-4.4 8.2-5.8 3.2-1.3 6.4-2 9.7-2 3.3 0 6.1.4 8.2 1.1 2.1.7 4.4 1.7 6.6 2.7v-23.8h18v77.6h.2zm66-6.2c-5.4 5.3-12.9 8-22.6 8-9.7 0-17.2-2.6-22.6-8s-8.1-12.5-8.1-21.7 2.7-16.6 8.1-21.8c5.4-5.3 12.9-7.9 22.5-7.9 9.7 0 17.3 2.6 22.6 8 5.4 5.4 8 12.5 8 21.7 0 9.1-2.5 16.4-7.9 21.7zm69-31.5h-2.5c-.7-.6-1.6-1.3-2.5-2-1-.8-2.1-1.6-3.6-2.4-1.3-.8-2.9-1.3-4.5-1.8-1.7-.5-3.5-.7-5.6-.7-4.8 0-8.5 1.6-11 4.5-2.5 3-3.9 7.2-3.9 12.4 0 5.4 1.3 9.4 3.9 12.3 2.6 2.9 6.3 4.2 11.2 4.2 2.3 0 4.3-.3 6.1-.8 1.8-.5 3.3-1.2 4.5-1.8 1.2-.7 2.1-1.3 3-2 .8-.8 1.7-1.4 2.4-2.1h2.5v15.3c-2.9 1.3-5.7 2.4-8.8 3.1-3.1.8-6.4 1.2-10.3 1.2-4.9 0-9.3-.6-13.4-1.8-4-1.2-7.5-2.9-10.5-5.4-2.9-2.4-5.3-5.5-6.9-9.2-1.7-3.7-2.4-8-2.4-12.9 0-5.3.8-9.7 2.6-13.5 1.8-3.8 4.2-6.9 7.3-9.4 3-2.4 6.6-4.1 10.4-5.1 3.9-1.1 8.1-1.7 12.3-1.7 3.8 0 7.3.4 10.5 1.3 3.2.8 6.2 1.9 9.1 3.2v15.1h.1zM354.6 591.1c-4.7 0-8.2 1.4-10.6 4.4-2.4 2.9-3.5 7-3.5 12.3 0 5.5 1 9.4 2.9 11.9 1.8 2.4 5 3.7 9.1 3.7 1.7 0 3.3-.3 5.1-.8s3.4-1.4 4.8-2.4v-27.5c-1.3-.5-2.6-.8-3.9-1.2-1.4-.3-2.7-.4-3.9-.4z"/></g><path fill="#006B8D" d="M228.1 145.2c61.5 0 111.5 50 111.5 111.5s-50 111.5-111.5 111.5-111.6-49.9-111.6-111.4 50-111.6 111.6-111.6m0-21.9c-73.6 0-133.4 59.7-133.4 133.4 0 73.6 59.7 133.4 133.4 133.4s133.4-59.7 133.4-133.4c-.1-73.6-59.7-133.4-133.4-133.4zM272.2 247.2h-67.6v-23c0-6.6 2.3-12.1 6.9-16.6 4.7-4.7 10.1-6.9 16.6-6.9 6.6 0 12.1 2.3 16.6 6.9 4.5 4.5 6.8 10 6.9 16.5V248c0 1.6.6 3 1.8 4.2 1.2 1.2 2.5 1.8 4.2 1.8h5.8c1.6 0 3-.6 4.2-1.8 1.2-1.2 1.8-2.5 1.8-4.2v-24c-.1-11.2-4.1-20.8-12.2-28.8-8.1-8.1-17.7-12.2-29.1-12.2-11.3 0-21.1 4.1-29.1 12.2-8.1 8.1-12.2 17.7-12.2 29.1v23h-3c-2.5 0-4.5.8-6.3 2.6-1.7 1.7-2.6 3.8-2.6 6.3v65.5c0 2.5.8 4.5 2.6 6.3 1.7 1.7 3.8 2.6 6.3 2.6h88.4c2.5 0 4.5-.8 6.3-2.6 1.7-1.7 2.6-3.8 2.6-6.3v-65.6c0-2.5-.8-4.5-2.6-6.3-1.7-1.7-3.8-2.6-6.3-2.6zM235 290.3v17.2c0 3.4-2.9 6.3-6.3 6.3h-1.2c-3.4 0-6.3-2.9-6.3-6.3v-17.2c-3.7-2.3-6.2-6.4-6.2-11.1 0-7.3 5.8-13.1 13.1-13.1s13.1 5.8 13.1 13.1c0 4.7-2.5 8.7-6.2 11.1z"/></g></svg>