<svg xmlns="http://www.w3.org/2000/svg" viewBox="0 123.3 595.3 595.3" enable-background="new 0 123.3 595.3 595.3" width="40" height="40"><g><path fill="#006B8D" d="M228.2 145.2c61.5 0 111.5 50 111.5 111.5s-50 111.5-111.5 111.5-111.5-49.9-111.5-111.4 49.9-111.6 111.5-111.6m0-21.9c-73.5 0-133.4 59.8-133.4 133.4s59.7 133.5 133.5 133.5 133.5-59.7 133.5-133.5c-.2-73.6-59.9-133.4-133.6-133.4zM272.3 247.2h-67.7v-23c0-6.6 2.3-12.1 6.9-16.6 4.7-4.7 10.1-6.9 16.6-6.9s12.1 2.3 16.6 6.9c4.5 4.5 6.8 10 6.9 16.5v24c0 1.6.6 3 1.8 4.2 1.2 1.2 2.5 1.8 4.2 1.8h5.8c1.6 0 3-.6 4.2-1.8 1.2-1.2 1.8-2.5 1.8-4.2v-24c-.1-11.2-4.1-20.8-12.2-28.8-8.1-8.1-17.7-12.2-29.1-12.2-11.3 0-21.1 4.1-29.1 12.2-8.1 8.1-12.2 17.7-12.2 29.1v23h-3c-2.5 0-4.5.8-6.3 2.6-1.7 1.7-2.6 3.8-2.6 6.3v65.5c0 2.5.8 4.5 2.6 6.3 1.7 1.7 3.8 2.6 6.3 2.6h88.4c2.5 0 4.5-.8 6.3-2.6 1.7-1.7 2.6-3.8 2.6-6.3v-65.6c0-2.5-.8-4.5-2.6-6.3-1.6-1.8-3.7-2.7-6.2-2.7zm-37.1 43.1v17.2c0 3.4-2.9 6.3-6.3 6.3h-1.2c-3.4 0-6.3-2.9-6.3-6.3v-17.2c-3.7-2.3-6.2-6.4-6.2-11.1 0-7.3 5.8-13.1 13.1-13.1s13.1 5.8 13.1 13.1c-.1 4.7-2.5 8.7-6.2 11.1z"/><g fill="#006B8D"><path d="M551.6 299.1h43.5l-86.8-93.3v46.7c-.1 25.9 19.3 46.6 43.3 46.6zM378.5 473.7c-.5 2.1-.7 4.3-.8 6.4h-.1c-.2-2.7-.5-4.8-.9-6.2l-8.6-37.3-11.6 1.3-8 34.4c-.5 2.1-.8 4.1-.9 5.9-.2-2.4-.3-4.4-.5-5.8l-5.7-32.7-9.3 1.1 10 47.8 10.7 1.2 7.8-33.3c.4-1.6.7-3.6.9-6h.2c.1 2.2.3 4.2.8 6l8.3 35.4 13.6 1.6 16.2-60.7-14.1 1.6-8 39.3zM394.4 594.5c-1.1-1.3-2.4-2.4-3.9-2.9-1.5-.6-3.1-.8-4.8-.8-1.8 0-3.3.3-4.6.7-1.3.5-2.6 1.4-3.9 2.8-1.1 1.3-1.9 3-2.6 5.3-.7 2.3-1 5.1-1 8.5 0 3 .3 5.7.8 7.9.6 2.3 1.4 4 2.5 5.4 1.1 1.3 2.4 2.3 3.8 2.9 1.5.6 3.2.9 5 .9 1.6 0 3.2-.3 4.6-.8 1.5-.6 2.7-1.4 3.8-2.8 1.2-1.4 2-3.1 2.6-5.1.6-2 .8-4.8.8-8.3 0-3.3-.3-6.1-.9-8.2-.2-2.4-1.1-4.3-2.2-5.5zM316.7 591.5c-4.7 0-8.2 1.4-10.6 4.4-2.4 2.9-3.5 7-3.5 12.2 0 5.5.9 9.4 2.9 11.9 1.8 2.4 4.9 3.7 9.1 3.7 1.6 0 3.4-.3 5.1-.9 1.8-.6 3.4-1.4 4.8-2.4V593c-1.3-.5-2.6-.9-4-1.2-1.4-.2-2.7-.3-3.8-.3zM545.7 321.6c-27.1 0-60.2-34.5-60.2-63.5v-52.5H377c5.6 16.2 8.7 33.6 8.7 51.6 0 87.1-70.6 157.7-157.7 157.7-8 0-16-.6-23.7-1.8v248.8c0 31.3 25.4 56.7 56.7 56.7h277.4c31.3 0 56.7-25.4 56.7-56.7V321.6h-49.4zm-127 185.8H462v-12.3h-43.3v-12.3H462v-12.4h-43.3v-12.3H462v-12.3h-43.3v-12.3h43.4V421h-43.4v-18.4h56.6c2.8 0 5.2 2.4 5.2 5.4v112.7c0 3-2.3 5.4-5.2 5.4h-56.6v-18.7zM270.5 635.8H252v-19.6h18.6v19.6zm71.9 0h-18V630c-3.1 2.5-6 4.4-8.7 5.5-2.7 1.2-5.8 1.8-9.2 1.8-6.8 0-12.2-2.6-16.3-7.8-4-5.2-6.1-12.3-6.1-21.2 0-4.7.7-8.9 2.1-12.6 1.3-3.7 3.3-6.8 5.6-9.4 2.3-2.5 5-4.5 8.2-5.8 3.2-1.3 6.4-2.1 9.7-2.1 3.4 0 6.1.3 8.2 1.1 2.1.7 4.3 1.6 6.6 2.7v-23.8h18v77.4zm65.9-6.2c-5.4 5.3-12.9 7.9-22.5 7.9-9.7 0-17.2-2.6-22.5-7.9-5.4-5.3-8.1-12.5-8.1-21.7s2.7-16.5 8.1-21.8c5.4-5.3 12.9-7.9 22.5-7.9 9.7 0 17.3 2.7 22.6 8 5.3 5.3 8 12.5 8 21.7s-2.7 16.4-8.1 21.7zm4.2-85.2l-92.7-17.9V401.6l92.7-17.9v160.7zm64.8 53.7h-2.5c-.7-.6-1.5-1.3-2.5-2.1s-2.2-1.6-3.6-2.4c-1.3-.8-2.9-1.3-4.5-1.8s-3.5-.8-5.6-.8c-4.8 0-8.4 1.5-11 4.5-2.6 3-3.9 7.1-3.9 12.4 0 5.4 1.3 9.4 4 12.3 2.6 2.8 6.4 4.2 11.2 4.2 2.3 0 4.3-.3 6.1-.8s3.3-1.1 4.5-1.8c1.1-.7 2.1-1.3 2.9-2.1.8-.8 1.7-1.4 2.4-2.1h2.5v15.3c-2.9 1.3-5.8 2.4-8.8 3.2-3 .8-6.5 1.2-10.2 1.2-4.9 0-9.3-.6-13.4-1.8-4-1.2-7.6-2.9-10.5-5.4s-5.2-5.5-6.9-9.2c-1.6-3.7-2.4-8-2.4-12.9 0-5.2.8-9.7 2.6-13.4 1.8-3.8 4.2-6.9 7.3-9.4 3-2.4 6.5-4.1 10.4-5.2 4-1.1 8.1-1.7 12.3-1.7 3.8 0 7.3.4 10.5 1.3 3.2.8 6.2 1.9 9 3.2v15.4l.1-.1zm49.2 37.7l-11.9-16.7-12.2 16.7H482l22-28-21.8-27.8H503l11.8 16.4 11.8-16.4h20.5l-21.7 27.5 21.9 28.3h-20.8z"/></g></g></svg>