<svg xmlns="http://www.w3.org/2000/svg" viewBox="0 123.3 595.3 595.3" enable-background="new 0 123.3 595.3 595.3" width="40" height="40"><g><g fill="#006B8D"><path d="M551.7 298.7h43.5l-86.9-93.6v46.7c.1 26.1 19.5 46.9 43.4 46.9zM380.3 473.2c-.5 2.1-.7 4.3-.8 6.4h-.1c-.2-2.7-.5-4.8-.9-6.2l-8.6-37.3-11.6 1.3-8 34.4c-.5 2.1-.8 4.1-.9 5.9-.2-2.4-.3-4.4-.5-5.8l-5.7-32.7-9.3 1.1 10 47.9 10.7 1.2 7.8-33.3c.4-1.6.7-3.6.9-6h.2c.1 2.2.3 4.2.8 6l8.3 35.4 13.6 1.6 16.2-60.7-14.1 1.6-8 39.2zM320.3 591.1c-4.7 0-8.3 1.5-10.6 4.5-2.3 3-3.5 7.1-3.5 12.3 0 5.5.9 9.5 2.8 11.9 1.9 2.5 4.9 3.7 9.1 3.7 1.6 0 3.3-.3 5.2-.9 1.8-.6 3.5-1.4 4.8-2.4v-27.6c-1.3-.6-2.6-.9-4-1.1-1.4-.4-2.6-.4-3.8-.4zM545.9 321.1c-27.1 0-60.2-34.5-60.2-63.5v-52.5H261c-31.3.1-56.8 25.5-56.8 56.8v399.9c0 31.3 25.4 56.8 56.8 56.8h277.5c31.3 0 56.8-25.4 56.8-56.8V321.1h-49.4zM274 635.5h-18.7V616H274v19.5zm72.1 0h-18v-5.9c-3.1 2.5-6 4.4-8.7 5.6s-5.8 1.8-9.3 1.8c-6.8 0-12.2-2.6-16.3-7.9-4.1-5.2-6.1-12.4-6.1-21.3 0-4.7.7-9 2-12.7 1.4-3.7 3.3-6.9 5.7-9.5 2.3-2.5 5-4.5 8.2-5.8 3.3-1.4 6.4-2 9.7-2 3.3 0 6.1.4 8.3 1.1 2.1.7 4.3 1.6 6.6 2.7v-23.8h18l-.1 77.7zm66.3-6.2c-5.4 5.3-12.9 8-22.6 8s-17.2-2.7-22.6-8-8.1-12.6-8.1-21.8c0-9.3 2.7-16.5 8.1-21.8 5.4-5.3 12.9-7.9 22.5-7.9 9.8 0 17.3 2.7 22.7 8s8 12.6 8 21.8-2.7 16.4-8 21.7zm2-85.4L321.7 526V401l92.7-17.9v160.8zm67.1 53.8H479c-.7-.6-1.6-1.3-2.5-2.1s-2.2-1.6-3.6-2.3c-1.3-.7-2.8-1.3-4.5-1.8s-3.5-.7-5.7-.7c-4.8 0-8.5 1.6-11 4.6-2.5 3-3.9 7.2-3.9 12.4 0 5.4 1.3 9.5 4 12.3 2.6 2.8 6.4 4.2 11.2 4.2 2.3 0 4.3-.3 6.1-.8 1.8-.5 3.3-1.1 4.5-1.8 1.1-.6 2.1-1.3 3-2.1l2.4-2.1h2.5v15.3c-2.8 1.3-5.8 2.4-8.8 3.2-3.1.8-6.5 1.2-10.2 1.2-4.9 0-9.3-.6-13.4-1.8-4-1.1-7.6-3-10.5-5.4-3-2.4-5.2-5.5-6.9-9.2-1.6-3.7-2.5-8-2.5-13 0-5.2.8-9.8 2.6-13.5 1.8-3.7 4.2-6.9 7.3-9.4 3-2.3 6.5-4.1 10.5-5.2 4-1.1 8.1-1.6 12.3-1.6 3.8 0 7.4.4 10.6 1.3s6.2 1.9 9 3.3v15zm-60.9-72.1V507h43.3v-12.3h-43.3v-12.3h43.3V470h-43.3v-12.3h43.3v-12.3h-43.3V433H464v-12.6h-43.4V402h56.6c2.8 0 5.2 2.4 5.2 5.4v112.7c0 3-2.3 5.4-5.2 5.4h-56.6zM531 635.5l-11.9-16.8-12.3 16.8h-20.6l22.1-28.1-21.8-28h20.9l11.8 16.5 11.8-16.5h20.6L529.9 607l22.1 28.4-21 .1zM398.4 594c-1.1-1.3-2.3-2.3-3.8-2.9s-3.1-.8-4.8-.8c-1.7 0-3.3.2-4.6.7-1.3.5-2.6 1.4-3.9 2.8-1.1 1.3-2 3.1-2.6 5.4-.6 2.3-1 5.1-1 8.6 0 3 .3 5.7.8 8s1.4 4 2.5 5.4c1.1 1.3 2.3 2.3 3.8 2.8 1.5.6 3.2.9 5.1.9 1.6 0 3.2-.3 4.7-.8 1.5-.6 2.8-1.5 3.7-2.8 1.1-1.4 2-3.2 2.6-5.2s.8-4.8.8-8.3c0-3.3-.3-6.1-.9-8.3-.5-2.4-1.4-4.2-2.4-5.5z"/></g></g></svg>