<svg xmlns="http://www.w3.org/2000/svg" viewBox="0 123.3 595.3 595.3" enable-background="new 0 123.3 595.3 595.3" width="40" height="40"><path fill="#006B8D" d="M551.8 298.7h43.5l-87-93.5v46.7c0 25.8 19.4 46.8 43.5 46.8z"/><g fill="#006B8D"><path d="M457.9 496.2h10.2c1.8 0 3.3-1.4 3.3-3.3v-10.6c0-1.8-1.4-3.3-3.3-3.3h-10.2c-1.8 0-3.3 1.4-3.3 3.3v10.6c0 1.9 1.5 3.3 3.3 3.3zM359.4 438.4h80.7c1.8 0 3.3-1.5 3.3-3.3v-52.3c0-1.8-1.4-3.3-3.3-3.3h-80.7c-1.8 0-3.3 1.4-3.3 3.3v52.3c0 1.8 1.4 3.3 3.3 3.3zM457.9 523.1h10.2c1.8 0 3.3-1.5 3.3-3.3v-10.6c0-1.8-1.4-3.3-3.3-3.3h-10.2c-1.8 0-3.3 1.4-3.3 3.3v10.6c0 1.8 1.5 3.3 3.3 3.3zM457.9 469.4h10.2c1.8 0 3.3-1.4 3.3-3.3v-10.6c0-1.8-1.4-3.3-3.3-3.3h-10.2c-1.8 0-3.3 1.4-3.3 3.3v10.6c0 1.8 1.5 3.3 3.3 3.3zM359.4 515.1h80.7c1.8 0 3.3-1.4 3.3-3.3v-48.3c0-1.8-1.4-3.3-3.3-3.3h-80.7c-1.8 0-3.3 1.4-3.3 3.3v48.3c0 1.8 1.4 3.3 3.3 3.3zM457.9 388.7h10.2c1.8 0 3.3-1.4 3.3-3.3v-10.6c0-1.8-1.4-3.3-3.3-3.3h-10.2c-1.8 0-3.3 1.4-3.3 3.3v10.6c0 1.8 1.5 3.3 3.3 3.3zM457.9 442.5h10.2c1.8 0 3.3-1.5 3.3-3.3v-10.6c0-1.8-1.4-3.3-3.3-3.3h-10.2c-1.8 0-3.3 1.5-3.3 3.3v10.6c0 1.8 1.5 3.3 3.3 3.3zM457.9 415.6h10.2c1.8 0 3.3-1.5 3.3-3.3v-10.6c0-1.8-1.4-3.3-3.3-3.3h-10.2c-1.8 0-3.3 1.4-3.3 3.3v10.6c0 1.8 1.5 3.3 3.3 3.3zM331.3 415.6h10.2c1.8 0 3.3-1.5 3.3-3.3v-10.6c0-1.8-1.4-3.3-3.3-3.3h-10.2c-1.8 0-3.3 1.4-3.3 3.3v10.6c0 1.8 1.5 3.3 3.3 3.3zM331.3 523.1h10.2c1.8 0 3.3-1.5 3.3-3.3v-10.6c0-1.8-1.4-3.3-3.3-3.3h-10.2c-1.8 0-3.3 1.4-3.3 3.3v10.6c0 1.8 1.5 3.3 3.3 3.3zM331.3 496.2h10.2c1.8 0 3.3-1.4 3.3-3.3v-10.6c0-1.8-1.4-3.3-3.3-3.3h-10.2c-1.8 0-3.3 1.4-3.3 3.3v10.6c0 1.9 1.5 3.3 3.3 3.3zM545.9 321.2c-27.1 0-60.3-34.6-60.3-63.5v-52.6H260.9c-31.3.2-56.7 25.6-56.7 56.9v400c0 31.3 25.4 56.7 56.7 56.7h277.5c31.3 0 56.7-25.4 56.7-56.7V321.2h-49.2zm-227.8 51.2c0-6 4.9-10.9 11-10.9h141.3c6 0 11 4.9 11 10.9v149.8c0 6-4.9 10.9-11 10.9H329.1c-6 0-11-4.9-11-10.9V372.4zm18 263.5h-18.7v-19.6h18.7v19.6zm54-64.5h-1.3c-.8-.3-1.8-.5-3.1-.8s-2.6-.5-4.1-.5c-3.5 0-5.9.7-7.2 1.9-1.2 1.2-1.8 3.7-1.8 7.4v.5h13.9V592H373v43.9h-18V592h-7.7v-12.2h7.7v-1.6c0-6.8 1.8-12 5.5-15.4 3.6-3.4 9.1-5.1 16.6-5.1 2.7 0 5.1.1 7.2.3s4.1.4 5.7.7l.1 12.7zm24.8 64.5h-18v-77.7h18v77.7zm73.4-56.1l-21.6 56.1h-20.4l-21.5-56.1h19l13 38.6 12.9-38.6h18.6zM331.3 469.4h10.2c1.8 0 3.3-1.4 3.3-3.3v-10.6c0-1.8-1.4-3.3-3.3-3.3h-10.2c-1.8 0-3.3 1.4-3.3 3.3v10.6c0 1.8 1.5 3.3 3.3 3.3zM331.3 388.7h10.2c1.8 0 3.3-1.4 3.3-3.3v-10.6c0-1.8-1.4-3.3-3.3-3.3h-10.2c-1.8 0-3.3 1.4-3.3 3.3v10.6c0 1.8 1.5 3.3 3.3 3.3zM331.3 442.5h10.2c1.8 0 3.3-1.5 3.3-3.3v-10.6c0-1.8-1.4-3.3-3.3-3.3h-10.2c-1.8 0-3.3 1.5-3.3 3.3v10.6c0 1.8 1.5 3.3 3.3 3.3z"/></g></svg>