<svg xmlns="http://www.w3.org/2000/svg" viewBox="0 123.3 595.3 595.3" enable-background="new 0 123.3 595.3 595.3" width="40" height="40"><path fill="#006B8D" d="M228.1 145.2c61.5 0 111.5 50 111.5 111.5s-50 111.5-111.5 111.5-111.5-50-111.5-111.5 50-111.5 111.5-111.5m0-21.9c-73.6 0-133.5 59.7-133.5 133.5 0 73.7 59.7 133.5 133.5 133.5s133.5-59.7 133.5-133.5c-.1-73.8-59.8-133.5-133.5-133.5zM272.2 247.2h-67.7V224c0-6.6 2.3-12 6.9-16.7 4.6-4.6 10.1-6.9 16.7-6.9s12 2.3 16.7 6.9c4.5 4.5 6.8 10 6.9 16.5v24c0 1.5.6 2.9 1.8 4.2 1.2 1.2 2.5 1.8 4.2 1.8h5.8c1.5 0 2.9-.6 4.2-1.8 1.2-1.2 1.8-2.5 1.8-4.2v-24.1c-.1-11.2-4-20.9-12.2-28.9-8.1-8.1-17.7-12.2-29.1-12.2s-21.1 4-29.1 12.2c-8.1 8.1-12.2 17.7-12.2 29.1V247H184c-2.5 0-4.5.8-6.3 2.6-1.7 1.7-2.6 3.8-2.6 6.3v65.7c0 2.5.8 4.5 2.6 6.3 1.7 1.7 3.8 2.6 6.3 2.6h88.4c2.5 0 4.5-.8 6.3-2.6 1.7-1.7 2.6-3.8 2.6-6.3v-65.7c0-2.5-.8-4.5-2.6-6.3-1.9-1.4-4-2.4-6.5-2.4zM235 290.3v17.2c0 3.4-2.9 6.3-6.3 6.3h-1.2c-3.4 0-6.3-2.9-6.3-6.3v-17.2c-3.7-2.3-6.2-6.5-6.2-11.1 0-7.2 5.8-13.1 13.1-13.1 7.2 0 13.1 5.8 13.1 13.1 0 4.7-2.5 8.8-6.2 11.1zM552.1 298.6h43.5L508.7 205v46.7c-.1 25.9 19.3 46.9 43.4 46.9z"/><g fill="#006B8D"><path d="M380.5 591.8c-4.7 0-8.2 1.3-10.6 4-2.4 2.7-3.5 6.5-3.5 11.3 0 5.4 1 9.1 3 11.3 2 2.1 5 3.2 8.9 3.2 1.8 0 3.5-.3 5.2-.8s3.3-1.3 4.7-2.3v-25.3c-1-.4-2.3-.8-3.8-1-1.4-.3-2.8-.4-3.9-.4zM316.6 470.7l44.4-51.6c3.7-4.2 10.3-4.2 13.8.1l47.5 56.8 24.1-24.1c3.4-3.4 8.9-3.6 12.5-.3l23.8 21.7v-87.8H319.3c-.8.6-1.8 1.2-2.6 1.9l-.1 83.3zM448 400.5c9.3 0 16.6 7.5 16.6 16.6 0 9.3-7.5 16.6-16.6 16.6-9.3 0-16.6-7.5-16.6-16.6 0-9.1 7.4-16.6 16.6-16.6zM546.1 321.1c-27.2 0-60.3-34.6-60.3-63.5V205H377.3c5.6 16.2 8.7 33.6 8.7 51.6 0 46.3-19.9 87.8-51.6 116.8h148.5c6.6 0 12.1 5.5 12.1 12.1v123.9h-.1c0 6.6-5.5 12.1-12.1 12.1H316.6c-6.6 0-12.1-5.5-12.1-12.1V394.7c-22.7 12.6-48.8 19.8-76.5 19.8-8 0-16-.6-23.7-1.8l1.8.6-1.8-.5v249.1c0 31.4 25.4 56.7 56.7 56.7h277.7c31.4 0 56.7-25.4 56.7-56.7V321.1h-49.3zm-211.7 315h-18.6v-19.5h18.6v19.5zm71.8-6.5c0 5.2-.8 9.7-2.3 13.2-1.5 3.6-3.6 6.4-6.2 8.4-2.7 2-5.9 3.5-9.8 4.5-3.8.9-8.1 1.3-12.9 1.3-3.9 0-7.7-.3-11.4-.7-3.8-.5-7-1-9.8-1.7v-14h2.2c2.2.8 4.9 1.7 8 2.4 3.1.7 6 1.1 8.4 1.1 3.3 0 6-.3 8.1-.9 2.1-.6 3.6-1.5 4.7-2.6 1-1.1 1.8-2.4 2.3-4 .5-1.7.7-3.6.7-6v-1c-2.2 1.8-4.5 3.1-7.1 4.2-2.6 1-5.6 1.5-8.7 1.5-7.8 0-13.8-2.4-18.1-7.1-4.2-4.7-6.4-11.9-6.4-21.4 0-4.6.7-8.6 1.9-11.9 1.3-3.4 3.1-6.2 5.5-8.7 2.2-2.4 4.9-4.1 8.1-5.4 3.2-1.3 6.5-1.9 9.8-1.9 3 0 5.7.3 8.2 1.1 2.4.7 4.7 1.7 6.7 2.9l.7-2.5h17.4v49.2zm34.8 6.5h-17.9v-55.9H441v55.9zm.5-63.8h-18.9v-13.5h18.9v13.5zm52.6-.5h-1.3c-.8-.3-1.9-.5-3.1-.8-1.3-.3-2.6-.4-4.1-.4-3.5 0-5.9.6-7.1 1.9s-1.9 3.7-1.9 7.3v.4h13.8v12.1h-13.2V636h-17.9v-43.7h-7.7v-12.1h7.7v-1.5c0-6.8 1.9-11.9 5.5-15.4 3.6-3.4 9.1-5.1 16.5-5.1 2.7 0 5 .1 7.2.3 2.2.2 4 .4 5.7.8l-.1 12.5z"/></g></svg>