<svg xmlns="http://www.w3.org/2000/svg" viewBox="0 123.3 595.3 595.3" enable-background="new 0 123.3 595.3 595.3" width="40" height="40"><g><path fill="#006B8D" d="M228.5 145.2c61.4 0 111.4 50 111.4 111.4S289.9 368 228.5 368s-111.4-50-111.4-111.4 49.8-111.4 111.4-111.4m0-21.9c-73.6 0-133.4 59.7-133.4 133.4 0 73.5 59.7 133.4 133.4 133.4s133.4-59.7 133.4-133.4c-.1-73.7-59.8-133.4-133.4-133.4zM272.6 247.1h-67.7V224c0-6.6 2.3-12 6.9-16.6s10.1-6.9 16.6-6.9 12 2.3 16.6 6.9c4.5 4.5 6.8 10 6.9 16.4 0 .1 0-.1 0 0 0 1.5.6 2.9 1.8 4.2 1.2 1.3 2.5 1.8 4.2 1.8h5.8c1.5 0 2.9-.6 4.2-1.8 1.3-1.2 1.8-2.5 1.8-4.2 0-.1 0 .1 0 0-.1-11.2-4-20.8-12.1-28.8-8.1-8.1-17.7-12.1-29.1-12.1-11.3 0-21.1 4-29.1 12.1-8.1 8.1-12.1 17.7-12.1 29.1v23.1h-2.9c-2.5 0-4.5.8-6.3 2.6-1.7 1.7-2.6 3.8-2.6 6.3v65.6c0 2.5.8 4.5 2.6 6.3 1.7 1.7 3.8 2.6 6.3 2.6h88.3c2.5 0 4.5-.8 6.3-2.6 1.7-1.7 2.6-3.8 2.6-6.3v-65.6c0-2.5-.8-4.5-2.6-6.3-1.9-1.7-3.9-2.7-6.4-2.7zm-37.2 43.1v17.2c0 3.4-2.9 6.3-6.3 6.3H228c-3.4 0-6.3-2.9-6.3-6.3v-17.2c-3.7-2.3-6.2-6.4-6.2-11.1 0-7.2 5.8-13.1 13.1-13.1s13.1 5.8 13.1 13.1c-.2 4.7-2.6 8.8-6.3 11.1zM552.1 298.9h43.5l-86.8-93.5V252c-.2 25.9 19.2 46.9 43.3 46.9z"/><g fill="#006B8D"><path d="M380.7 591.8c-4.7 0-8.2 1.3-10.6 4-2.4 2.7-3.5 6.5-3.5 11.3 0 5.4 1 9.1 3 11.3 2 2.1 5 3.2 8.9 3.2 1.8 0 3.5-.3 5.2-.8 1.7-.6 3.3-1.3 4.7-2.3v-25.3c-1-.4-2.3-.8-3.8-1-1.4-.2-2.8-.4-3.9-.4zM316.9 470.9l44.4-51.6c3.7-4.2 10.3-4.2 13.8.1l47.5 56.7 24-24c3.4-3.4 8.9-3.6 12.5-.3l23.8 21.7v-87.7H319.5c-.8.6-1.8 1.2-2.6 1.8v83.3zm131.3-70.2c9.2 0 16.6 7.5 16.6 16.6 0 9.2-7.5 16.6-16.6 16.6-9.2 0-16.6-7.5-16.6-16.6s7.4-16.6 16.6-16.6zM546.1 321.4c-27.1 0-60.3-34.5-60.3-63.5v-52.5H377.4c5.6 16.2 8.7 33.6 8.7 51.5 0 46.2-19.8 87.7-51.5 116.7h148.3c6.6 0 12.1 5.5 12.1 12.1v123.8h-.1c0 6.6-5.5 12.1-12.1 12.1H316.9c-6.6 0-12.1-5.5-12.1-12.1V395c-22.7 12.6-48.7 19.8-76.5 19.8-8 0-16-.6-23.7-1.8l1.8.6-1.8-.5V662c0 31.3 25.4 56.6 56.6 56.6h277.4c31.3 0 56.6-25.4 56.6-56.6V321.4h-49.1zM334.6 636.1H316v-19.5h18.6v19.5zm71.8-6.4c0 5.2-.8 9.7-2.3 13.2-1.5 3.6-3.6 6.4-6.2 8.4-2.7 2-5.9 3.5-9.7 4.5-3.8.9-8.1 1.3-12.9 1.3-3.9 0-7.6-.3-11.4-.7-3.8-.5-7-1-9.7-1.7v-14h2.2c2.2.8 4.9 1.7 8 2.4 3.1.7 6 1.1 8.4 1.1 3.3 0 6-.3 8.1-.9 2.1-.6 3.6-1.5 4.7-2.6 1-1.1 1.8-2.4 2.3-4 .5-1.7.7-3.6.7-6v-1c-2.2 1.8-4.5 3.1-7.1 4.2-2.6 1-5.5 1.5-8.7 1.5-7.8 0-13.8-2.4-18.1-7.1-4.2-4.7-6.4-11.9-6.4-21.4 0-4.6.7-8.6 1.9-11.9 1.3-3.4 3.1-6.2 5.5-8.7 2.2-2.4 4.9-4.1 8.1-5.4s6.5-1.9 9.8-1.9c3 0 5.7.3 8.2 1.1 2.4.7 4.7 1.7 6.7 2.9l.7-2.5h17.4v49.2zm34.8 6.4h-17.9v-55.8h17.9v55.8zm.5-63.7h-18.9v-13.5h18.9v13.5zm52.4-.5h-1.3c-.8-.3-1.8-.5-3.1-.8-1.3-.3-2.6-.4-4.1-.4-3.5 0-5.9.6-7.1 1.8-1.3 1.3-1.8 3.7-1.8 7.3v.4h13.8v12.1h-13.2v43.6h-17.9v-43.6h-7.6v-12.1h7.6v-1.5c0-6.8 1.8-11.9 5.5-15.4s9.1-5.1 16.5-5.1c2.7 0 5 .1 7.2.3s4 .4 5.7.8l-.2 12.6z"/></g></g></svg>