<svg xmlns="http://www.w3.org/2000/svg" viewBox="0 123.3 595.3 595.3" enable-background="new 0 123.3 595.3 595.3" width="40" height="40"><g><path fill="#006B8D" d="M552 298.7h43.5l-87-93.5v46.7c0 25.8 19.5 46.8 43.5 46.8z"/><g fill="#006B8D"><path d="M375.1 419.4l47.6 56.8 24-24c3.4-3.4 8.9-3.6 12.5-.3l23.8 21.7v-87.8H316.9V471l44.4-51.6c3.7-4.4 10.3-4.4 13.8 0zm73.1-18.7c9.2 0 16.6 7.5 16.6 16.6 0 9.2-7.5 16.6-16.6 16.6-9.2 0-16.6-7.5-16.6-16.6 0-9.1 7.5-16.6 16.6-16.6zM546.1 321.2c-27.1 0-60.3-34.6-60.3-63.5v-52.6H261.1c-31.3.2-56.8 25.6-56.8 56.9v400c0 31.3 25.4 56.7 56.7 56.7h277.5c31.3 0 56.7-25.4 56.7-56.7V321.2h-49.1zm-241.2 64.4c0-6.6 5.5-12.1 12.1-12.1h166c6.6 0 12.1 5.5 12.1 12.1v123.8h-.1c0 6.6-5.5 12.1-12.1 12.1h-166c-6.6 0-12.1-5.5-12.1-12.1l.1-123.8zm29.7 250.5H316v-19.5h18.6v19.5zm71.8-6.4c0 5.3-.7 9.7-2.2 13.2-1.5 3.5-3.5 6.4-6.2 8.4s-5.9 3.5-9.7 4.5c-3.8.9-8.1 1.4-12.8 1.4-3.9 0-7.7-.3-11.4-.7-3.7-.5-7-1.1-9.8-1.7v-13.9h2.2c2.2.9 4.9 1.6 8 2.4 3.2.7 6 1.1 8.4 1.1 3.3 0 6-.3 8.1-.9 2-.6 3.6-1.5 4.7-2.6s1.8-2.4 2.2-4.1c.5-1.6.7-3.6.7-6v-1.1c-2.2 1.8-4.5 3.2-7.2 4.2-2.6 1.1-5.5 1.5-8.7 1.5-7.8 0-13.8-2.4-18.1-7-4.2-4.7-6.4-11.8-6.4-21.5 0-4.6.7-8.6 1.9-11.9 1.3-3.4 3.1-6.2 5.5-8.7 2.2-2.3 4.9-4.1 8.1-5.4 3.2-1.2 6.4-1.9 9.8-1.9 3 0 5.7.3 8.2 1.1 2.5.7 4.7 1.7 6.7 3l.7-2.5h17.4l-.1 49.1zm-17.9-11.2v-25.3c-1.1-.5-2.3-.8-3.7-1.1-1.5-.3-2.8-.4-4-.4-4.7 0-8.2 1.4-10.6 4.1-2.4 2.7-3.5 6.4-3.5 11.3 0 5.4 1 9.1 3 11.2 2 2.1 5 3.2 8.9 3.2 1.8 0 3.5-.3 5.3-.9 1.6-.4 3.2-1.1 4.6-2.1zm53.2-46.1h-18.9v-13.5h18.9v13.5zm-.4 63.7h-17.9v-55.8h17.9v55.8zm52.9-64.2h-1.3c-.8-.3-1.8-.5-3.1-.8-1.2-.3-2.6-.5-4.1-.5-3.5 0-5.8.7-7.1 1.9-1.2 1.2-1.8 3.7-1.8 7.3v.5h13.7v12.2h-13.1v43.6h-17.9v-43.7h-7.6v-12.2h7.6v-1.5c0-6.8 1.8-12 5.5-15.4 3.6-3.4 9.1-5.1 16.5-5.1 2.6 0 5.1.1 7.2.3 2.2.2 4.1.4 5.7.7v12.7h-.2z"/></g></g></svg>