<svg xmlns="http://www.w3.org/2000/svg" viewBox="0 123.3 595.3 595.3" enable-background="new 0 123.3 595.3 595.3" width="40" height="40"><g><g><path fill="#006B8D" d="M227.7 145.3c61.5 0 111.5 50 111.5 111.5s-50 111.5-111.5 111.5-111.5-50-111.5-111.5 50-111.5 111.5-111.5m0-22c-73.5 0-133.4 59.7-133.4 133.5 0 73.7 59.6 133.4 133.4 133.4s133.4-59.6 133.4-133.4-59.7-133.5-133.4-133.5zM271.9 247.3h-67.6v-23.1c0-6.5 2.3-12 6.9-16.7 4.6-4.6 10.1-6.9 16.7-6.9s12 2.3 16.7 6.9c4.5 4.5 6.8 10 6.9 16.4v23.9c0 1.5.6 3 1.8 4.2 1.2 1.2 2.5 1.8 4.2 1.8h5.8c1.5 0 3-.6 4.2-1.8 1.2-1.2 1.8-2.5 1.8-4.2v-24.1c-.1-11.2-4-20.8-12.1-28.9-8.1-8.1-17.7-12.1-29-12.1s-21.1 4-29 12.1c-8.1 8.1-12.1 17.7-12.1 29V247h-3c-2.5 0-4.5.8-6.3 2.6-1.7 1.7-2.6 3.8-2.6 6.3v65.7c0 2.5.8 4.5 2.6 6.3 1.7 1.7 3.8 2.6 6.3 2.6h88.4c2.5 0 4.5-.8 6.3-2.6 1.7-1.7 2.6-3.8 2.6-6.3v-65.7c0-2.5-.8-4.5-2.6-6.3-2.4-1.4-4.4-2.3-6.9-2.3zm-37.1 43.1v17.3c0 3.5-2.9 6.3-6.3 6.3h-1.2c-3.5 0-6.3-2.9-6.3-6.3v-17.3c-3.7-2.3-6.2-6.4-6.2-11.1 0-7.3 5.8-13.1 13.1-13.1S241 272 241 279.3c-.3 4.7-2.6 8.7-6.2 11.1z"/></g></g><g><g fill="#006B8D"><path d="M551.5 298.8h43.6l-86.9-93.4v46.8c-.1 25.7 19.4 46.6 43.3 46.6zM485.3 257.7v-52.6H376.8c5.6 16.2 8.7 33.6 8.7 51.6 0 87.1-70.7 157.8-157.8 157.8-8 0-16-.6-23.7-1.8v249c0 31.3 25.4 56.8 56.8 56.8h277.7c31.3 0 56.8-25.4 56.8-56.8V321.3h-49.5c-27.3 0-60.5-34.5-60.5-63.6zm2.2 112.5V479c0 .7-.1 1.4-.2 2-.2 15.4-13.5 29.6-32.3 33.7-21.2 4.5-41.3-6-45-23.6-3.7-17.5 10.5-35.2 31.7-39.9 7.7-1.7 15.4-1.3 22 .7v-67.4l-75.3 15.8v99.2c0 .7-.1 1.4-.2 2-.2 15.4-13.5 29.6-32.3 33.7-21.2 4.5-41.3-6-45-23.6-3.7-17.4 10.5-35.2 31.7-39.9 7.7-1.7 15.4-1.3 22 .7v-82.1c0-5.6 3.9-10.5 9.4-11.7l99.3-21c.4-.1.7-.1 1.2-.1s.8-.1 1.2-.1c.1 0 .4 0 .5.1.6 0 1.2 0 1.8.1.4.1.7.2 1.1.4.4.3.7.2 1.1.4.4.1.8.4 1.2.6.2.1.6.2.8.5.4.2.6.5 1 .7.2.2.6.5.8.7.2.2.5.6.7.8.2.2.5.6.7.8.2.4.5.8.7 1.2.1.2.4.6.5.8.2.6.5 1.2.6 1.9 0 .1.1.2.1.4.1.4.1.8.1 1.3.1 1.3.1 1.7.1 2.1zM348.6 635.4H330v-19.5h18.6v19.5zm36.1-63.8h-18.9v-13.5h18.9v13.5zm-.6 63.8h-17.9v-55.8h17.9v55.8zm53-64.2h-1.3c-.8-.3-1.9-.5-3.1-.8-1.3-.3-2.6-.4-4-.4-3.4 0-5.9.7-7.1 1.9-1.3 1.3-1.9 3.7-1.9 7.3v.4h13.7v12.2h-13.1v43.7h-17.9v-43.7h-7.7v-12.2h7.7v-1.5c0-6.8 1.9-11.9 5.5-15.4 3.6-3.4 9.2-5.1 16.5-5.1 2.6 0 5 .1 7.2.3 2.2.2 4 .4 5.7.8v12.7l-.2-.2zm43 0h-1.3c-.8-.3-1.9-.5-3.1-.8-1.3-.3-2.6-.4-4-.4-3.4 0-5.9.7-7.1 1.9-1.3 1.3-1.9 3.7-1.9 7.3v.4h13.7v12.2h-13.1v43.7h-18v-43.7h-7.7v-12.2h7.7v-1.5c0-6.8 1.9-11.9 5.5-15.4 3.6-3.4 9.2-5.1 16.5-5.1 2.6 0 5 .1 7.2.3 2.2.2 4 .4 5.7.8l-.1 12.5z"/></g><g fill="#006B8D"><path d="M551.5 298.8h43.6l-86.9-93.4v46.8c-.1 25.7 19.4 46.6 43.3 46.6zM485.3 257.7v-52.6H376.8c5.6 16.2 8.7 33.6 8.7 51.6 0 87.1-70.7 157.8-157.8 157.8-8 0-16-.6-23.7-1.8v249c0 31.3 25.4 56.8 56.8 56.8h277.7c31.3 0 56.8-25.4 56.8-56.8V321.3h-49.5c-27.3 0-60.5-34.5-60.5-63.6zm2.2 112.5V479c0 .7-.1 1.4-.2 2-.2 15.4-13.5 29.6-32.3 33.7-21.2 4.5-41.3-6-45-23.6-3.7-17.5 10.5-35.2 31.7-39.9 7.7-1.7 15.4-1.3 22 .7v-67.4l-75.3 15.8v99.2c0 .7-.1 1.4-.2 2-.2 15.4-13.5 29.6-32.3 33.7-21.2 4.5-41.3-6-45-23.6-3.7-17.4 10.5-35.2 31.7-39.9 7.7-1.7 15.4-1.3 22 .7v-82.1c0-5.6 3.9-10.5 9.4-11.7l99.3-21c.4-.1.7-.1 1.2-.1s.8-.1 1.2-.1c.1 0 .4 0 .5.1.6 0 1.2 0 1.8.1.4.1.7.2 1.1.4.4.3.7.2 1.1.4.4.1.8.4 1.2.6.2.1.6.2.8.5.4.2.6.5 1 .7.2.2.6.5.8.7.2.2.5.6.7.8.2.2.5.6.7.8.2.4.5.8.7 1.2.1.2.4.6.5.8.2.6.5 1.2.6 1.9 0 .1.1.2.1.4.1.4.1.8.1 1.3.1 1.3.1 1.7.1 2.1zM348.6 635.4H330v-19.5h18.6v19.5zm36.1-63.8h-18.9v-13.5h18.9v13.5zm-.6 63.8h-17.9v-55.8h17.9v55.8zm53-64.2h-1.3c-.8-.3-1.9-.5-3.1-.8-1.3-.3-2.6-.4-4-.4-3.4 0-5.9.7-7.1 1.9-1.3 1.3-1.9 3.7-1.9 7.3v.4h13.7v12.2h-13.1v43.7h-17.9v-43.7h-7.7v-12.2h7.7v-1.5c0-6.8 1.9-11.9 5.5-15.4 3.6-3.4 9.2-5.1 16.5-5.1 2.6 0 5 .1 7.2.3 2.2.2 4 .4 5.7.8v12.7l-.2-.2zm43 0h-1.3c-.8-.3-1.9-.5-3.1-.8-1.3-.3-2.6-.4-4-.4-3.4 0-5.9.7-7.1 1.9-1.3 1.3-1.9 3.7-1.9 7.3v.4h13.7v12.2h-13.1v43.7h-18v-43.7h-7.7v-12.2h7.7v-1.5c0-6.8 1.9-11.9 5.5-15.4 3.6-3.4 9.2-5.1 16.5-5.1 2.6 0 5 .1 7.2.3 2.2.2 4 .4 5.7.8l-.1 12.5z"/></g></g></svg>