<svg xmlns="http://www.w3.org/2000/svg" viewBox="0 123.3 595.3 595.3" enable-background="new 0 123.3 595.3 595.3" width="40" height="40"><g fill="#006B8D"><path d="M508.5 251.9c0 25.8 19.4 46.7 43.5 46.7h43.5l-86.9-93.4-.1 46.7zM204.3 261.8v400c0 31.3 25.4 56.7 56.7 56.7h277.5c31.3 0 56.7-25.4 56.7-56.7V321.1H546c-27.1 0-60.3-34.5-60.3-63.5v-52.5H261.1c-31.3.1-56.8 25.4-56.8 56.7zm138.6 210.5c7.7-1.7 15.4-1.3 22 .7v-82.1c0-5.6 3.9-10.5 9.4-11.7l99.3-21c.4-.1.7-.1 1.2-.1s.8-.1 1.2-.1c.1 0 .4 0 .5.1.6 0 1.2 0 1.8.1.4.1.7.2 1.1.4.4.1.7.2 1.1.4.4.1.8.4 1.2.6.2.1.6.2.8.5.4.2.6.5 1 .7.2.2.6.5.8.7.2.2.5.6.7.8.2.2.5.6.7.8.2.4.5.8.7 1.2.1.2.4.6.5.8.2.6.5 1.2.6 1.9 0 .1.1.2.1.4.1.4.1.8.1 1.3 0 .4.1.7.1 1.2v108.7c0 .7-.1 1.4-.2 2-.2 15.4-13.5 29.6-32.3 33.7-21.2 4.5-41.3-6-45-23.5-3.7-17.5 10.5-35.2 31.7-39.8 7.7-1.7 15.4-1.3 22 .7v-67.3l-75.2 16v99.2c0 .7-.1 1.4-.2 2-.2 15.4-13.5 29.6-32.3 33.7-21.2 4.5-41.3-6-45-23.5-3.8-17.3 10.4-35 31.6-39.5zm6 163.2h-18.6V616h18.6v19.5zm36-63.8H366v-13.5h18.9v13.5zm-.5 63.8h-17.9v-55.8h17.9v55.8zm53-64.2h-1.3c-.8-.3-1.8-.5-3.1-.8-1.2-.3-2.6-.5-4.1-.5-3.5 0-5.8.7-7.1 1.9-1.2 1.2-1.8 3.7-1.8 7.3v.5h13.7v12.2h-13.1v43.6h-17.9v-43.7H395v-12.2h7.6v-1.5c0-6.8 1.8-12 5.5-15.4s9.1-5.1 16.5-5.1c2.6 0 5.1.1 7.2.3 2.2.2 4.1.4 5.7.7v12.7h-.1zm43 0H479c-.8-.3-1.8-.5-3.1-.8-1.2-.3-2.6-.5-4.1-.5-3.5 0-5.8.7-7.1 1.9-1.2 1.2-1.8 3.7-1.8 7.3v.5h13.7v12.2h-13.1v43.6h-18v-43.7h-7.6v-12.2h7.6v-1.5c0-6.8 1.8-12 5.5-15.4 3.6-3.4 9.1-5.1 16.5-5.1 2.6 0 5.1.1 7.2.3 2.2.2 4.1.4 5.7.7v12.7z"/></g></svg>