<svg xmlns="http://www.w3.org/2000/svg" viewBox="0 123.3 595.3 595.3" enable-background="new 0 123.3 595.3 595.3" width="40" height="40"><g><path fill="#006B8D" d="M552 298.7h43.5l-87-93.5v46.7c0 25.8 19.5 46.8 43.5 46.8z"/><g fill="#006B8D"><path d="M375.1 419.4l47.6 56.8 24-24c3.4-3.4 8.9-3.6 12.5-.3l23.8 21.7v-87.8H316.9V471l44.4-51.6c3.7-4.4 10.3-4.4 13.8 0zm73.1-18.7c9.2 0 16.6 7.5 16.6 16.6 0 9.2-7.5 16.6-16.6 16.6-9.2 0-16.6-7.5-16.6-16.6 0-9.1 7.5-16.6 16.6-16.6zM546.1 321.2c-27.1 0-60.3-34.6-60.3-63.5v-52.6H261.1c-31.3.2-56.8 25.6-56.8 56.9v400c0 31.3 25.4 56.7 56.7 56.7h277.5c31.3 0 56.7-25.4 56.7-56.7V321.2h-49.1zm-241.2 64.4c0-6.6 5.5-12.1 12.1-12.1h166c6.6 0 12.1 5.5 12.1 12.1v123.8h-.1c0 6.6-5.5 12.1-12.1 12.1h-166c-6.6 0-12.1-5.5-12.1-12.1l.1-123.8zm-21.2 250.6h-18.6v-19.5h18.6v19.5zm41.7 1c0 6.3-2 11.2-5.8 14.7-3.9 3.5-8.9 5.3-15 5.3-3.2 0-6.2-.1-8.9-.4-2.7-.3-4.6-.6-5.8-.9v-12.8h1.4c1 .3 2.2.6 3.7.9 1.5.3 2.6.3 3.5.3 3.4 0 5.8-1.1 7-3.1 1.2-2 1.9-5.5 1.9-10.1v-38.6h-10.6v-12.2h28.5v56.9h.1zm0-64.7h-19.1v-13.6h19.1v13.6zm75.1 35.1c0 4.6-.7 8.8-2.1 12.5-1.4 3.8-3.2 6.9-5.5 9.3-2.4 2.6-5.1 4.5-8.1 5.8-3 1.3-6.2 2-9.7 2-3.2 0-5.8-.3-8.1-1.1-2.2-.7-4.5-1.6-6.8-2.9v23.3h-17.9v-76.1h17.9v5.8c2.8-2.2 5.6-3.9 8.4-5.3 2.9-1.4 6.2-2 9.9-2 7 0 12.3 2.6 16.2 7.7 3.9 5 5.8 12 5.8 21zm-18.4.3c0-5.5-.9-9.4-2.8-11.8-1.8-2.4-4.8-3.7-8.8-3.7-1.7 0-3.4.3-5.2.8s-3.5 1.2-5.1 2.2v28c1.2.5 2.4.8 3.8.9 1.4.1 2.7.2 4 .2 4.7 0 8.3-1.4 10.6-4.1 2.3-2.7 3.5-6.9 3.5-12.5zm86.3 3.7h-40.9c.3 4.4 1.9 7.8 5 10.1s7.6 3.5 13.5 3.5c3.8 0 7.4-.7 11-2 3.5-1.4 6.4-2.8 8.4-4.4h2v14.4c-4.1 1.6-7.9 2.8-11.4 3.5-3.5.7-7.6 1.1-11.9 1.1-11.2 0-19.8-2.5-25.8-7.6s-8.9-12.2-8.9-21.5c0-9.2 2.8-16.5 8.5-21.9s13.4-8.1 23.3-8.1c9.1 0 15.9 2.3 20.5 6.9 4.6 4.6 6.8 11.2 6.8 19.8v6.2zm-17.8-10.5c-.1-3.7-1.1-6.6-2.8-8.5-1.8-1.9-4.5-2.8-8.2-2.8-3.4 0-6.3.9-8.5 2.7-2.2 1.8-3.5 4.7-3.7 8.6h23.2zm84.7 28.7c0 5.3-.7 9.7-2.2 13.2-1.5 3.5-3.5 6.4-6.2 8.4s-5.9 3.5-9.7 4.5-8.1 1.4-12.9 1.4c-3.9 0-7.7-.3-11.4-.7-3.7-.5-7-1.1-9.8-1.7v-14h2.2c2.2.9 4.9 1.6 8 2.4 3.2.7 6 1.1 8.4 1.1 3.3 0 6-.3 8.1-.9 2.1-.6 3.7-1.5 4.7-2.6 1.1-1.1 1.8-2.4 2.2-4.1s.7-3.6.7-6v-1.1c-2.2 1.8-4.5 3.2-7.2 4.2s-5.5 1.5-8.7 1.5c-7.8 0-13.9-2.4-18.1-7-4.2-4.7-6.4-11.9-6.4-21.5 0-4.6.7-8.6 1.9-12 1.3-3.4 3.1-6.2 5.5-8.7 2.2-2.3 4.9-4.1 8.1-5.4 3.2-1.3 6.4-2 9.8-2 3 0 5.8.3 8.2 1.1 2.5.7 4.7 1.7 6.7 3l.7-2.5h17.4v49.4zm-18-11.2v-25.3c-1.1-.5-2.3-.8-3.7-1.1-1.5-.3-2.8-.4-4-.4-4.7 0-8.2 1.4-10.6 4.1-2.4 2.7-3.5 6.4-3.5 11.3 0 5.4 1 9.1 3 11.2 2 2.1 5 3.2 8.9 3.2 1.8 0 3.5-.3 5.3-.9 1.7-.4 3.2-1.1 4.6-2.1z"/></g></g></svg>