<svg xmlns="http://www.w3.org/2000/svg" viewBox="0 123.3 595.3 595.3" enable-background="new 0 123.3 595.3 595.3" width="40" height="40"><path fill="#006B8D" d="M228.1 145.3c61.5 0 111.5 50 111.5 111.5s-50 111.5-111.5 111.5-111.5-50-111.5-111.5 50-111.5 111.5-111.5m0-22c-73.6 0-133.5 59.7-133.5 133.5 0 73.7 59.7 133.5 133.5 133.5s133.5-59.7 133.5-133.5c-.1-73.8-59.8-133.5-133.5-133.5zM272.2 247.2h-67.7v-23.1c0-6.6 2.3-12 6.9-16.7 4.6-4.6 10.1-6.9 16.7-6.9s12 2.3 16.7 6.9c4.5 4.5 6.8 10 6.9 16.5v24c0 1.5.6 2.9 1.8 4.2 1.2 1.2 2.5 1.8 4.2 1.8h5.8c1.5 0 2.9-.6 4.2-1.8 1.2-1.2 1.8-2.5 1.8-4.2v-24.1c-.1-11.2-4-20.9-12.2-28.9-8.1-8.1-17.7-12.2-29.1-12.2s-21.1 4-29.1 12.2c-8.1 8.1-12.2 17.7-12.2 29.1v23.1H184c-2.5 0-4.5.8-6.3 2.6-1.7 1.7-2.6 3.8-2.6 6.3v65.7c0 2.5.8 4.5 2.6 6.3 1.7 1.7 3.8 2.6 6.3 2.6h88.4c2.5 0 4.5-.8 6.3-2.6 1.7-1.7 2.6-3.8 2.6-6.3V256c0-2.5-.8-4.5-2.6-6.3-1.9-1.5-4-2.5-6.5-2.5zM235 290.4v17.2c0 3.4-2.9 6.3-6.3 6.3h-1.2c-3.4 0-6.3-2.9-6.3-6.3v-17.2c-3.7-2.3-6.2-6.5-6.2-11.1 0-7.2 5.8-13.1 13.1-13.1 7.2 0 13.1 5.8 13.1 13.1 0 4.7-2.5 8.7-6.2 11.1zM552.1 298.6h43.5l-86.9-93.5v46.7c-.1 25.9 19.3 46.8 43.4 46.8z"/><g fill="#006B8D"><path d="M316.6 470.8l44.4-51.6c3.7-4.2 10.3-4.2 13.8.1l47.5 56.8 24.1-24.1c3.4-3.4 8.9-3.6 12.5-.3l23.8 21.7v-87.8H319.3c-.8.6-1.8 1.2-2.6 1.9l-.1 83.3zM448 400.5c9.3 0 16.6 7.5 16.6 16.6 0 9.3-7.5 16.6-16.6 16.6-9.3 0-16.6-7.5-16.6-16.6 0-9.1 7.4-16.6 16.6-16.6zM404.4 592.5c-1.7 0-3.4.3-5.2.8s-3.4 1.3-5.1 2.2v28c1.2.5 2.4.8 3.8.9s2.7.2 4 .2c4.7 0 8.2-1.3 10.5-4.1s3.4-6.9 3.4-12.4c0-5.4-.9-9.3-2.8-11.8-1.7-2.6-4.7-3.8-8.6-3.8zM546.1 321.1c-27.2 0-60.3-34.6-60.3-63.5V205H377.3c5.6 16.2 8.7 33.6 8.7 51.6 0 46.3-19.9 87.8-51.6 116.8h148.5c6.6 0 12.1 5.5 12.1 12.1v123.9h-.1c0 6.6-5.5 12.1-12.1 12.1H316.6c-6.6 0-12.1-5.5-12.1-12.1V394.7c-22.7 12.6-48.8 19.8-76.5 19.8-8 0-16-.6-23.7-1.8l1.8.6-1.8-.5v249.1c0 31.4 25.4 56.7 56.7 56.7h277.7c31.4 0 56.7-25.4 56.7-56.7V321.1h-49.3zM317.6 636.2H299v-19.5h18.6v19.5zm41.7 1c0 6.3-1.9 11.2-5.8 14.7s-8.8 5.3-15 5.3c-3.3 0-6.2-.2-8.8-.4-2.7-.3-4.6-.6-5.8-.8v-12.9h1.3c1 .3 2.2.6 3.7.8 1.5.3 2.7.3 3.5.3 3.4 0 5.8-1 7.1-3.1 1.3-2 1.9-5.5 1.9-10.1v-38.5h-10.6v-12.1h28.5v56.8zm0-64.6h-19.1V559h19.1v13.6zm72.9 47.6c-1.4 3.8-3.3 6.9-5.6 9.3-2.4 2.6-5 4.5-8.1 5.9-3 1.3-6.2 2-9.7 2-3.2 0-5.9-.3-8.1-1s-4.5-1.6-6.8-2.9v23.2H376v-76.2h18v5.8c2.8-2.2 5.6-4 8.4-5.3 2.9-1.3 6.1-2 9.9-2 7 0 12.4 2.5 16.1 7.7 3.9 5.1 5.8 12.1 5.8 21 .1 4.5-.6 8.7-2 12.5zm69.2 9.6c0 5.2-.8 9.7-2.3 13.2-1.5 3.5-3.6 6.4-6.2 8.4-2.7 2-5.9 3.5-9.7 4.5s-8.1 1.3-12.9 1.3c-3.9 0-7.7-.3-11.4-.7-3.8-.5-7-1-9.8-1.7v-14h2.2c2.2.8 4.9 1.7 8 2.4s6 1.1 8.4 1.1c3.3 0 6-.3 8.1-.9 2.1-.6 3.6-1.5 4.7-2.6 1-1.1 1.8-2.4 2.3-4 .4-1.7.7-3.6.7-6v-1c-2.2 1.8-4.5 3.1-7.1 4.2-2.6 1-5.6 1.5-8.7 1.5-7.8 0-13.8-2.4-18.1-7.1-4.2-4.7-6.3-11.9-6.3-21.4 0-4.6.7-8.6 1.9-11.9 1.3-3.4 3.1-6.2 5.5-8.7 2.2-2.4 4.9-4.1 8.1-5.4 3.2-1.3 6.5-1.9 9.8-1.9 3 0 5.7.3 8.2 1.1 2.4.7 4.7 1.7 6.7 2.9l.7-2.5h17.4l-.2 49.2zM475.7 592c-4.7 0-8.2 1.3-10.5 4-2.4 2.7-3.5 6.5-3.5 11.3 0 5.4 1 9.1 3 11.2 2 2.1 5 3.2 8.9 3.2 1.8 0 3.5-.3 5.2-.8s3.3-1.3 4.7-2.3v-25.2c-1-.4-2.3-.8-3.8-1-1.4-.3-2.8-.4-4-.4z"/></g></svg>