<svg xmlns="http://www.w3.org/2000/svg" viewBox="0 123.3 595.3 595.3" enable-background="new 0 123.3 595.3 595.3" width="40" height="40"><g><g fill="#006B8D"><path d="M551.5 298.8h43.6l-86.9-93.4v46.8c-.1 25.7 19.4 46.6 43.3 46.6zM485.3 257.7v-52.6H376.8c5.6 16.2 8.7 33.6 8.7 51.6 0 87.1-70.7 157.8-157.8 157.8-8 0-16-.6-23.7-1.8v249c0 31.3 25.4 56.8 56.8 56.8h277.7c31.3 0 56.8-25.4 56.8-56.8V321.3h-49.5c-27.3 0-60.5-34.5-60.5-63.6zm2.2 112.5V479c0 .7-.1 1.4-.2 2-.2 15.4-13.5 29.6-32.3 33.7-21.2 4.5-41.3-6-45-23.6-3.7-17.5 10.5-35.2 31.7-39.9 7.7-1.7 15.4-1.3 22 .7v-67.4l-75.3 15.8v99.2c0 .7-.1 1.4-.2 2-.2 15.4-13.5 29.6-32.3 33.7-21.2 4.5-41.3-6-45-23.6-3.7-17.4 10.5-35.2 31.7-39.9 7.7-1.7 15.4-1.3 22 .7v-82.1c0-5.6 3.9-10.5 9.4-11.7l99.3-21c.4-.1.7-.1 1.2-.1s.8-.1 1.2-.1c.1 0 .4 0 .5.1.6 0 1.2 0 1.8.1.4.1.7.2 1.1.4.4.3.7.2 1.1.4.4.1.8.4 1.2.6.2.1.6.2.8.5.4.2.6.5 1 .7.2.2.6.5.8.7.2.2.5.6.7.8.2.2.5.6.7.8.2.4.5.8.7 1.2.1.2.4.6.5.8.2.6.5 1.2.6 1.9 0 .1.1.2.1.4.1.4.1.8.1 1.3.1 1.3.1 1.7.1 2.1zM282.9 635.5h-18.6V616h18.6v19.5zm72.1-39.6v39.5h-18v-27.8c0-2.7-.1-5-.2-6.9-.2-1.9-.5-3.4-1.1-4.6-.6-1.2-1.5-2.1-2.7-2.6-1.2-.5-2.9-.8-5.1-.8-1.8 0-3.4.3-5.1 1.1-1.7.7-3.1 1.4-4.5 2.3v39.5h-17.9v-55.8h17.9v6.1c3.1-2.4 6.1-4.3 8.8-5.6 2.8-1.3 5.9-2 9.3-2 3.7 0 6.9.8 9.8 2.4 2.8 1.6 5 4 6.6 7.2 3.5-3 7.1-5.4 10.4-7.1 3.4-1.7 6.6-2.6 9.9-2.6 6.1 0 10.6 1.8 13.7 5.4 3.1 3.6 4.7 8.8 4.7 15.6v36.3h-18v-27.8c0-2.8-.1-5-.2-7-.1-1.9-.5-3.4-1.1-4.6-.6-1.2-1.4-2.1-2.7-2.6-1.3-.5-2.9-.8-5.1-.8-1.5 0-2.9.3-4.4.8-1.2.4-3 1.3-5 2.4zm104.6 4.9c1.6 1.4 2.9 3 3.9 4.9s1.4 4.3 1.4 7.4c0 3.4-.7 6.7-2.1 9.8-1.3 3-3.4 5.6-6.3 7.7-2.8 2.1-6.1 3.7-9.8 4.8-3.8 1.1-8.3 1.7-13.7 1.7-6.1 0-11.4-.5-15.8-1.4-4.4-.9-8-2-10.7-3.2v-16.2h1.9c2.9 1.7 6.2 3.2 10.2 4.5s7.6 1.9 10.9 1.9c1.9 0 4-.2 6.2-.5 2.3-.3 4.1-1 5.7-2.1 1.3-.8 2.2-1.9 2.9-3 .8-1.2 1.1-2.9 1.1-5.1 0-2.2-.5-3.8-1.5-5-1-1.2-2.3-2-4-2.5-1.6-.5-3.6-.8-5.9-.8-2.3-.1-4.4-.1-6.4-.1h-4v-13.2h4.2c2.6 0 4.9-.1 6.9-.3 2-.2 3.7-.5 5-1.2 1.4-.6 2.5-1.4 3.3-2.5.8-1 1.1-2.6 1.1-4.6 0-1.5-.4-2.7-1.2-3.6s-1.7-1.6-2.9-2.2c-1.3-.6-2.8-1-4.5-1.2-1.8-.2-3.3-.3-4.5-.3-3.1 0-6.5.5-10.1 1.6-3.6 1.1-7.1 2.6-10.6 4.6h-1.9v-16.1c2.7-1.1 6.4-2.1 11.1-3.1 4.7-1 9.4-1.5 14.2-1.5 4.7 0 8.7.4 12.3 1.2 3.5.8 6.4 1.9 8.7 3.3 2.7 1.6 4.7 3.6 6.1 5.9 1.3 2.4 2 5 2 8.2 0 4.1-1.3 7.7-3.8 11-2.5 3.2-5.9 5.3-10.1 6.2v.7c1.7.3 3.4.7 5.4 1.4 2 .6 3.8 1.6 5.3 2.9zm76.4 34.7h-17.9v-6.1c-3.3 2.5-6.3 4.5-9.1 5.7-2.8 1.3-6.1 1.9-9.8 1.9-6.1 0-10.9-1.8-14.2-5.3-3.4-3.5-5-8.7-5-15.7v-36.3h17.9v27.7c0 2.8.1 5.1.3 7.1.2 1.9.6 3.4 1.3 4.6.6 1.3 1.6 2.1 2.9 2.7s3 .8 5.3.8c1.5 0 3.2-.3 5-.8 1.9-.6 3.6-1.4 5.4-2.5v-39.5h18v55.7z"/></g><path fill="#006B8D" d="M227.7 145.3c61.5 0 111.5 50 111.5 111.5s-50 111.5-111.5 111.5-111.5-50-111.5-111.5 50-111.5 111.5-111.5m0-22c-73.5 0-133.4 59.7-133.4 133.5 0 73.7 59.6 133.4 133.4 133.4s133.4-59.6 133.4-133.4-59.7-133.5-133.4-133.5zM271.9 247.3h-67.6v-23.1c0-6.5 2.3-12 6.9-16.7 4.6-4.6 10.1-6.9 16.7-6.9s12 2.3 16.7 6.9c4.7 4.6 6.9 10.1 6.9 16.7 0 1.5.6 3 1.8 4.2s2.5 1.8 4.2 1.8h5.8c1.5 0 3-.6 4.2-1.8 1.2-1.2 1.8-2.5 1.8-4.2 0-11.3-4-21.1-12.1-29-8.1-8.1-17.7-12.1-29-12.1s-21.1 4-29 12.1c-8.1 8.1-12.1 17.7-12.1 29v23.1h-3c-2.5 0-4.5.8-6.3 2.6-1.7 1.7-2.6 3.8-2.6 6.3v65.7c0 2.5.8 4.5 2.6 6.3 1.7 1.7 3.8 2.6 6.3 2.6h88.4c2.5 0 4.5-.8 6.3-2.6 1.7-1.7 2.6-3.8 2.6-6.3v-65.7c0-2.5-.8-4.5-2.6-6.3-2.4-1.7-4.4-2.6-6.9-2.6zm-37.1 43.1v17.3c0 3.5-2.9 6.3-6.3 6.3h-1.2c-3.5 0-6.3-2.9-6.3-6.3v-17.3c-3.7-2.3-6.2-6.4-6.2-11.1 0-7.3 5.8-13.1 13.1-13.1S241 272 241 279.3c-.3 4.7-2.6 8.7-6.2 11.1z"/></g></svg>