<svg xmlns="http://www.w3.org/2000/svg" viewBox="0 123.3 595.3 595.3" enable-background="new 0 123.3 595.3 595.3" width="40" height="40"><g fill="#006B8D"><path d="M508.5 251.9c0 25.8 19.4 46.7 43.5 46.7h43.5l-86.9-93.4-.1 46.7zM204.3 261.9v400c0 31.3 25.4 56.7 56.7 56.7h277.6c31.3 0 56.7-25.4 56.7-56.7V321.1h-49.2c-27.1 0-60.3-34.5-60.3-63.5v-52.5H261.1c-31.4.1-56.8 25.4-56.8 56.8zm138.6 210.4c7.7-1.7 15.4-1.3 22 .7v-82.1c0-5.6 3.9-10.5 9.4-11.7l99.3-21c.4-.1.7-.1 1.2-.1s.8-.1 1.2-.1c.1 0 .4 0 .5.1.6 0 1.2 0 1.8.1.4.1.7.2 1.1.4.4.1.7.2 1.1.4.4.1.8.4 1.2.6.2.1.6.2.8.5.4.2.6.5 1 .7.2.2.6.5.8.7.2.2.5.6.7.8s.5.6.7.8c.2.4.5.8.7 1.2.1.2.4.6.5.8.2.6.5 1.2.6 1.9 0 .1.1.2.1.4.1.4.1.8.1 1.3 0 .4.1.7.1 1.2v108.8c0 .7-.1 1.4-.2 2-.2 15.4-13.5 29.6-32.3 33.7-21.2 4.5-41.3-6-45-23.5-3.7-17.5 10.5-35.2 31.7-39.8 7.7-1.7 15.4-1.3 22 .7v-67.3l-75.2 16v99.2c0 .7-.1 1.4-.2 2-.2 15.4-13.5 29.6-32.3 33.7-21.2 4.5-41.3-6-45-23.5-3.8-17.3 10.4-35.1 31.6-39.6zM283 635.5h-18.5V616h18.6l-.1 19.5zm72.1-39.5v39.6h-17.9v-27.9c0-2.7-.1-5-.2-6.9-.1-1.9-.5-3.5-1.1-4.7-.6-1.2-1.5-2-2.7-2.6-1.2-.5-2.9-.8-5.1-.8-1.8 0-3.5.3-5.1 1.1-1.6.7-3.2 1.4-4.5 2.2v39.6h-17.9v-55.8h17.9v6.2c3.1-2.4 6-4.3 8.8-5.7 2.8-1.4 5.9-2 9.3-2 3.7 0 6.9.8 9.7 2.4 2.8 1.6 5 4.1 6.6 7.2 3.5-3 7-5.4 10.4-7.1 3.4-1.7 6.7-2.6 9.9-2.6 6 0 10.6 1.8 13.7 5.4s4.7 8.8 4.7 15.6v36.3h-17.9v-27.9c0-2.8-.1-5.1-.2-7s-.5-3.4-1.1-4.6c-.6-1.2-1.4-2-2.7-2.6-1.2-.5-3-.8-5.2-.8-1.5 0-3 .3-4.4.8-1.2.5-3 1.4-5 2.6zm104.8 4.8c1.6 1.4 2.9 3 3.9 4.9 1 1.8 1.4 4.3 1.4 7.4 0 3.5-.7 6.7-2 9.7-1.4 3-3.5 5.6-6.3 7.8-2.8 2.1-6 3.7-9.8 4.8-3.7 1.1-8.3 1.6-13.7 1.6-6.1 0-11.4-.5-15.8-1.4-4.4-1-8-2-10.7-3.2v-16.2h1.9c2.8 1.7 6.2 3.2 10.2 4.5 3.9 1.2 7.6 1.9 10.8 1.9 1.9 0 4-.1 6.2-.5 2.2-.3 4.1-1 5.7-2 1.2-.9 2.2-1.8 3-3 .7-1.2 1.1-2.9 1.1-5.1s-.5-3.8-1.5-5c-1-1.2-2.3-2-3.9-2.5s-3.5-.8-5.8-.9c-2.3-.1-4.4-.1-6.4-.1h-4.1v-13.3h4.2c2.6 0 4.9-.1 6.8-.3s3.7-.5 5.1-1.1c1.4-.7 2.6-1.4 3.3-2.5.7-1.1 1.1-2.6 1.1-4.6 0-1.5-.4-2.7-1.1-3.6-.8-.9-1.7-1.6-2.9-2.2-1.3-.6-2.8-1-4.6-1.2-1.8-.2-3.3-.3-4.5-.3-3.1 0-6.5.5-10.1 1.6-3.6 1.1-7.2 2.6-10.6 4.7H409v-16c2.7-1.1 6.4-2.2 11.1-3.2 4.7-1 9.4-1.5 14.2-1.5 4.7 0 8.7.4 12.3 1.2 3.5.8 6.4 1.9 8.7 3.3 2.7 1.6 4.7 3.6 6 5.9 1.3 2.3 2 5.1 2 8.1 0 4.1-1.2 7.8-3.8 11-2.6 3.2-5.9 5.3-10.1 6.2v.7c1.7.3 3.5.7 5.4 1.4 1.8.7 3.5 1.7 5.1 3zm76.3 34.7h-17.9v-6.2c-3.3 2.5-6.3 4.4-9.1 5.7s-6 2-9.9 2c-6.2 0-10.9-1.8-14.2-5.3-3.4-3.5-5-8.8-5-15.7v-36.3H498v27.7c0 2.8.1 5.2.3 7 .2 1.8.6 3.4 1.2 4.7.7 1.2 1.6 2.1 2.8 2.7 1.2.6 3.1.9 5.3.9 1.5 0 3.2-.3 5.1-.9 1.8-.6 3.6-1.4 5.4-2.5v-39.6H536l.2 55.8z"/></g></svg>