<svg xmlns="http://www.w3.org/2000/svg" viewBox="0 123.3 595.3 595.3" enable-background="new 0 123.3 595.3 595.3" width="40" height="40"><g fill="#006B8D"><path d="M508.5 251.9c0 25.8 19.4 46.7 43.5 46.7h43.5l-86.9-93.4-.1 46.7zM204.3 261.9v400c0 31.3 25.4 56.7 56.7 56.7h277.6c31.3 0 56.7-25.4 56.7-56.7V321.1h-49.2c-27.1 0-60.3-34.5-60.3-63.5v-52.5H261.1c-31.4.1-56.8 25.4-56.8 56.8zm138.6 210.4c7.7-1.7 15.4-1.3 22 .7v-82.1c0-5.6 3.9-10.5 9.4-11.7l99.3-21c.4-.1.7-.1 1.2-.1s.8-.1 1.2-.1c.1 0 .4 0 .5.1.6 0 1.2 0 1.8.1.4.1.7.2 1.1.4.4.1.7.2 1.1.4.4.1.8.4 1.2.6.2.1.6.2.8.5.4.2.6.5 1 .7.2.2.6.5.8.7.2.2.5.6.7.8.2.2.5.6.7.8.2.4.5.8.7 1.2.1.2.4.6.5.8.2.6.5 1.2.6 1.9 0 .1.1.2.1.4.1.4.1.8.1 1.3 0 .4.1.7.1 1.2v108.8c0 .7-.1 1.4-.2 2-.2 15.4-13.5 29.6-32.3 33.7-21.2 4.5-41.3-6-45-23.5-3.7-17.5 10.5-35.2 31.7-39.8 7.7-1.7 15.4-1.3 22 .7v-67.3l-75.2 16v99.2c0 .7-.1 1.4-.2 2-.2 15.4-13.5 29.6-32.3 33.7-21.2 4.5-41.3-6-45-23.5-3.9-17.3 10.4-35.1 31.6-39.6zm-57.8 163.4h-18.6v-19.5h18.6v19.5zm72.1-39.5v39.6h-17.9v-27.9c0-2.7-.1-5.1-.2-7-.1-1.9-.5-3.5-1.1-4.7-.6-1.2-1.5-2-2.7-2.6-1.2-.5-2.9-.8-5.1-.8-1.8 0-3.5.3-5.1 1.1-1.6.7-3.2 1.4-4.5 2.2v39.6h-17.9v-55.9h17.9v6.2c3.1-2.4 6-4.3 8.9-5.7 2.8-1.4 5.9-2 9.3-2 3.7 0 6.9.8 9.7 2.4 2.8 1.6 5 4.1 6.6 7.2 3.5-3 7-5.4 10.4-7.1 3.4-1.7 6.7-2.6 9.9-2.6 6 0 10.6 1.8 13.7 5.4 3.2 3.6 4.7 8.8 4.7 15.6v36.3h-17.9v-27.9c0-2.8-.1-5.1-.2-7-.1-1.9-.5-3.4-1.1-4.6-.6-1.2-1.4-2-2.7-2.6-1.2-.5-3-.8-5.2-.8-1.5 0-3 .3-4.4.8-1.3.7-3.1 1.6-5.1 2.8zm113.2 22.5h-10.1V636H442v-17.3h-35.9v-14.1l34.6-43h19.5V605h10.1l.1 13.7zM442 605.2v-26.8l-21.6 26.8H442zm74.6 24.6c-1 .7-2.2 1.6-3.5 2.6-1.4 1.1-2.8 1.8-4 2.4-1.8.8-3.5 1.4-5.5 1.8-1.9.4-3.9.6-6.2.6-5.3 0-9.7-1.6-13.3-4.9-3.5-3.3-5.4-7.5-5.4-12.6 0-4.1.9-7.4 2.8-10s4.4-4.6 7.8-6.1c3.3-1.5 7.4-2.6 12.4-3.2 4.9-.7 10-1.1 15.2-1.4v-.4c0-3.1-1.2-5.2-3.8-6.4-2.5-1.2-6.2-1.8-11.2-1.8-3 0-6.1.5-9.5 1.6-3.4 1.1-5.8 1.8-7.2 2.4h-1.6v-13.5c1.9-.5 5-1.1 9.2-1.8 4.3-.7 8.5-1.1 12.8-1.1 10.2 0 17.5 1.6 22.1 4.7 4.5 3.2 6.8 8 6.8 14.7v38h-17.7l-.2-5.6zm0-8.7v-11.6c-2.4.2-5.1.5-7.9.8-2.8.3-4.9.7-6.4 1.2-1.8.6-3.2 1.4-4.1 2.4-.9 1.1-1.4 2.5-1.4 4.2 0 1.2.1 2.1.3 2.8.2.7.7 1.4 1.5 2.1.8.7 1.6 1.1 2.8 1.4 1.1.3 2.7.5 5 .5 1.8 0 3.6-.4 5.5-1.1 1.7-.5 3.3-1.5 4.7-2.7z"/></g></svg>