<svg xmlns="http://www.w3.org/2000/svg" viewBox="0 123.3 595.3 595.3" enable-background="new 0 123.3 595.3 595.3" width="40" height="40"><path fill="#006B8D" d="M551.5 298.7h43.6l-86.9-93.4v46.8c-.1 25.8 19.4 46.6 43.3 46.6z"/><g><path fill="#006B8D" d="M227.6 145.2c61.5 0 111.5 50 111.5 111.5s-50 111.5-111.5 111.5-111.5-50-111.5-111.5S166 145.2 227.6 145.2m0-21.9C154 123.3 94.1 183 94.1 256.7s59.7 133.5 133.5 133.5 133.5-59.7 133.5-133.5c-.1-73.7-59.8-133.4-133.5-133.4zM271.7 247.2H204V224c0-6.6 2.3-12 6.9-16.7 4.6-4.6 10.1-6.9 16.7-6.9s12 2.3 16.7 6.9c4.5 4.5 6.8 10 6.9 16.5v24c0 1.5.6 2.9 1.8 4.2 1.2 1.2 2.5 1.8 4.2 1.8h5.8c1.5 0 2.9-.6 4.2-1.8 1.2-1.2 1.8-2.5 1.8-4.2v-24.1c-.1-11.2-4-20.9-12.2-28.9-8.1-8.1-17.7-12.2-29.1-12.2s-21.1 4-29.1 12.2c-8.1 8.1-12.2 17.7-12.2 29.1V247h-2.9c-2.5 0-4.5.8-6.3 2.6-1.7 1.7-2.6 3.8-2.6 6.3v65.7c0 2.5.8 4.5 2.6 6.3 1.7 1.7 3.8 2.6 6.3 2.6h88.4c2.5 0 4.5-.8 6.3-2.6 1.7-1.7 2.6-3.8 2.6-6.3v-65.7c0-2.5-.8-4.5-2.6-6.3-2-1.4-4-2.4-6.5-2.4zm-37.2 43.1v17.2c0 3.4-2.9 6.3-6.3 6.3H227c-3.4 0-6.3-2.9-6.3-6.3v-17.2c-3.7-2.3-6.2-6.5-6.2-11.1 0-7.2 5.8-13.1 13.1-13.1 7.2 0 13.1 5.8 13.1 13.1 0 4.7-2.5 8.8-6.2 11.1z"/></g><path fill="#006B8D" d="M457.9 523.7h10.3c1.9 0 3.3-1.5 3.3-3.3v-10.6c0-1.8-1.4-3.3-3.3-3.3h-10.3c-1.8 0-3.3 1.5-3.3 3.3v10.6c0 1.8 1.5 3.3 3.3 3.3zM457.9 496.8h10.3c1.9 0 3.3-1.4 3.3-3.3v-10.6c0-1.9-1.4-3.3-3.3-3.3h-10.3c-1.8 0-3.3 1.4-3.3 3.3v10.6c0 1.9 1.5 3.3 3.3 3.3zM457.9 470h10.3c1.9 0 3.3-1.4 3.3-3.3v-10.6c0-1.9-1.4-3.3-3.3-3.3h-10.3c-1.8 0-3.3 1.5-3.3 3.3v10.6c0 1.8 1.5 3.3 3.3 3.3zM359.3 439H440c1.8 0 3.3-1.5 3.3-3.3v-52.3c0-1.9-1.5-3.3-3.3-3.3h-80.7c-1.9 0-3.3 1.4-3.3 3.3v52.3c.1 1.8 1.5 3.3 3.3 3.3zM359.3 515.7H440c1.8 0 3.3-1.5 3.3-3.3V464c0-1.8-1.5-3.3-3.3-3.3h-80.7c-1.9 0-3.3 1.4-3.3 3.3v48.4c.1 1.8 1.5 3.3 3.3 3.3zM457.9 389.3h10.3c1.9 0 3.3-1.4 3.3-3.3v-10.6c0-1.9-1.4-3.3-3.3-3.3h-10.3c-1.8 0-3.3 1.4-3.3 3.3V386c0 1.8 1.5 3.3 3.3 3.3zM331.2 416.1h10.3c1.8 0 3.3-1.5 3.3-3.3v-10.6c0-1.9-1.4-3.3-3.3-3.3h-10.3c-1.8 0-3.3 1.4-3.3 3.3v10.6c.1 1.9 1.5 3.3 3.3 3.3zM457.9 443.1h10.3c1.9 0 3.3-1.5 3.3-3.3v-10.6c0-1.9-1.4-3.3-3.3-3.3h-10.3c-1.8 0-3.3 1.5-3.3 3.3v10.6c0 1.8 1.5 3.3 3.3 3.3zM328 386c0 1.9 1.5 3.3 3.3 3.3h10.3c1.8 0 3.3-1.4 3.3-3.3v-10.6c0-1.9-1.4-3.3-3.3-3.3h-6.1c-2.4 2.3-4.9 4.5-7.4 6.5l-.1 7.4zM457.9 416.1h10.3c1.9 0 3.3-1.5 3.3-3.3v-10.6c0-1.9-1.4-3.3-3.3-3.3h-10.3c-1.8 0-3.3 1.4-3.3 3.3v10.6c0 1.9 1.5 3.3 3.3 3.3zM545.7 321.3c-27.1 0-60.2-34.5-60.2-63.6v-52.6H376.8c5.6 16.2 8.7 33.6 8.7 51.6 0 40.5-15.2 77.4-40.3 105.3h125.1c6.1 0 10.9 5 10.9 10.9v149.9c0 6.1-5 10.9-10.9 10.9H329.1c-6.1 0-10.9-4.9-10.9-10.9V386.2c-25.6 17.9-56.7 28.3-90.3 28.3-8 0-16-.6-23.7-1.8v249c0 31.3 25.4 56.8 56.8 56.8h277.6c31.3 0 56.8-25.4 56.8-56.8V321.3h-49.7zm-265 314.5H262v-19.7h18.7v19.7zm72.6-39.8v39.9h-18.1v-28.1c0-2.7-.1-5.1-.2-7-.2-1.9-.5-3.5-1.1-4.7s-1.5-2-2.7-2.6c-1.2-.5-2.9-.8-5.1-.8-1.8 0-3.5.3-5.1 1.1s-3.2 1.4-4.5 2.3V636h-18.1v-56.3h18.1v6.2c3.1-2.4 6.1-4.4 8.9-5.7 2.9-1.4 6-2 9.4-2 3.7 0 7 .8 9.8 2.5 2.9 1.7 5 4.1 6.6 7.2 3.5-3 7.1-5.4 10.5-7.1 3.4-1.7 6.7-2.6 10-2.6 6.1 0 10.7 1.9 13.8 5.5 3.2 3.6 4.8 8.8 4.8 15.7V636h-18.1v-28.1c0-2.8-.1-5.1-.2-7-.2-1.9-.5-3.4-1.1-4.6-.6-1.2-1.4-2-2.7-2.6-1.3-.5-2.9-.8-5.2-.8-1.5 0-2.9.3-4.5.8-1.3.2-3.1 1-5.2 2.3zm114 22.6h-10.2V636h-18.4v-17.4h-36.1v-14.1l34.9-43.3h19.6v43.7h10.2v13.7zM438.7 605v-27L417 605h21.7zm97.8-25.4l-21.7 56.3h-20.4l-21.5-56.3h19l13 38.8 12.9-38.8h18.7zM331.2 523.7h10.3c1.8 0 3.3-1.5 3.3-3.3v-10.6c0-1.8-1.4-3.3-3.3-3.3h-10.3c-1.8 0-3.3 1.5-3.3 3.3v10.6c.1 1.8 1.5 3.3 3.3 3.3zM331.2 496.8h10.3c1.8 0 3.3-1.4 3.3-3.3v-10.6c0-1.9-1.4-3.3-3.3-3.3h-10.3c-1.8 0-3.3 1.4-3.3 3.3v10.6c.1 1.9 1.5 3.3 3.3 3.3zM331.2 470h10.3c1.8 0 3.3-1.4 3.3-3.3v-10.6c0-1.9-1.4-3.3-3.3-3.3h-10.3c-1.8 0-3.3 1.5-3.3 3.3v10.6c.1 1.8 1.5 3.3 3.3 3.3zM331.2 443.1h10.3c1.8 0 3.3-1.5 3.3-3.3v-10.6c0-1.9-1.4-3.3-3.3-3.3h-10.3c-1.8 0-3.3 1.5-3.3 3.3v10.6c.1 1.8 1.5 3.3 3.3 3.3z"/></svg>