<svg xmlns="http://www.w3.org/2000/svg" viewBox="0 123.3 595.3 595.3" enable-background="new 0 123.3 595.3 595.3" width="40" height="40"><g fill="#006B8D"><path d="M227.6 145.3c61.5 0 111.6 50.1 111.6 111.6s-50.1 111.6-111.6 111.6S116 318.2 116 256.8s50-111.5 111.6-111.5m0-22C154 123.3 94.1 183 94.1 256.8c0 73.7 59.7 133.5 133.5 133.5s133.5-59.7 133.5-133.5c-.1-73.8-59.8-133.5-133.5-133.5zM271.6 247.2h-67.7v-23.1c0-6.6 2.3-12 6.9-16.7 4.6-4.6 10.1-6.9 16.7-6.9s12 2.3 16.7 6.9c4.5 4.5 6.8 10 6.9 16.5v24c0 1.5.6 2.9 1.8 4.2 1.2 1.2 2.5 1.8 4.2 1.8h5.8c1.5 0 2.9-.6 4.2-1.8 1.2-1.2 1.8-2.5 1.8-4.2v-24.1c-.1-11.2-4-20.9-12.2-28.9-8.1-8.1-17.8-12.2-29.1-12.2s-21.1 4-29.1 12.2c-8.1 8.1-12.2 17.8-12.2 29.1v23.1h-2.9c-2.5 0-4.5.8-6.3 2.6-1.7 1.7-2.6 3.8-2.6 6.3v65.6c0 2.5.8 4.5 2.6 6.3 1.7 1.7 3.8 2.6 6.3 2.6h88.4c2.5 0 4.5-.8 6.3-2.6 1.7-1.7 2.6-3.8 2.6-6.3V256c0-2.5-.8-4.5-2.6-6.3-1.9-1.5-3.9-2.5-6.5-2.5zm-37.1 43.2v17.2c0 3.4-2.9 6.3-6.3 6.3H227c-3.4 0-6.3-2.9-6.3-6.3v-17.2c-3.7-2.3-6.2-6.5-6.2-11.1 0-7.2 5.8-13.1 13.1-13.1 7.2 0 13.1 5.8 13.1 13.1-.1 4.7-2.5 8.7-6.2 11.1zM551.5 298.7h43.6l-86.9-93.4v46.8c-.1 25.9 19.4 46.6 43.3 46.6zM457.9 523.7h10.3c1.9 0 3.3-1.5 3.3-3.3v-10.6c0-1.8-1.4-3.3-3.3-3.3h-10.3c-1.8 0-3.3 1.5-3.3 3.3v10.6c0 1.8 1.5 3.3 3.3 3.3zM457.9 496.8h10.3c1.9 0 3.3-1.4 3.3-3.3v-10.6c0-1.9-1.4-3.3-3.3-3.3h-10.3c-1.8 0-3.3 1.4-3.3 3.3v10.6c0 1.9 1.5 3.3 3.3 3.3zM457.9 470h10.3c1.9 0 3.3-1.4 3.3-3.3v-10.6c0-1.9-1.4-3.3-3.3-3.3h-10.3c-1.8 0-3.3 1.5-3.3 3.3v10.6c0 1.8 1.5 3.3 3.3 3.3zM359.3 439h80.8c1.8 0 3.3-1.5 3.3-3.3v-52.3c0-1.9-1.5-3.3-3.3-3.3h-80.8c-1.9 0-3.3 1.4-3.3 3.3v52.3c0 1.8 1.5 3.3 3.3 3.3zM359.3 515.8h80.8c1.8 0 3.3-1.5 3.3-3.3v-48.4c0-1.8-1.5-3.3-3.3-3.3h-80.8c-1.9 0-3.3 1.4-3.3 3.3v48.4c0 1.7 1.5 3.3 3.3 3.3zM457.9 389.3h10.3c1.9 0 3.3-1.4 3.3-3.3v-10.6c0-1.9-1.4-3.3-3.3-3.3h-10.3c-1.8 0-3.3 1.4-3.3 3.3V386c0 1.8 1.5 3.3 3.3 3.3zM331.2 416.1h10.3c1.8 0 3.3-1.5 3.3-3.3v-10.6c0-1.9-1.4-3.3-3.3-3.3h-10.3c-1.8 0-3.3 1.4-3.3 3.3v10.6c0 1.9 1.5 3.3 3.3 3.3zM457.9 443.1h10.3c1.9 0 3.3-1.5 3.3-3.3v-10.6c0-1.9-1.4-3.3-3.3-3.3h-10.3c-1.8 0-3.3 1.5-3.3 3.3v10.6c0 1.8 1.5 3.3 3.3 3.3zM327.9 386c0 1.9 1.5 3.3 3.3 3.3h10.3c1.8 0 3.3-1.4 3.3-3.3v-10.6c0-1.9-1.4-3.3-3.3-3.3h-6.1c-2.4 2.3-4.9 4.5-7.4 6.5v7.4h-.1zM457.9 416.1h10.3c1.9 0 3.3-1.5 3.3-3.3v-10.6c0-1.9-1.4-3.3-3.3-3.3h-10.3c-1.8 0-3.3 1.4-3.3 3.3v10.6c0 1.9 1.5 3.3 3.3 3.3zM446.8 594c-1-1.3-2.4-2.3-3.8-2.9-1.5-.6-3.1-.8-4.9-.8-1.7 0-3.3.3-4.6.8-1.3.4-2.6 1.3-3.9 2.8-1.1 1.3-1.9 3.1-2.6 5.3-.7 2.3-1 5.1-1 8.6 0 3.1.3 5.7.8 7.9.6 2.3 1.3 4 2.5 5.4 1 1.3 2.3 2.3 3.8 2.9 1.4.6 3.1.9 5 .9 1.7 0 3.1-.3 4.6-.8 1.7-.7 2.9-1.6 4-2.9 1.2-1.4 2-3.1 2.6-5.1.6-2 .8-4.8.8-8.3 0-3.3-.3-6.1-.9-8.2-.5-2.6-1.3-4.3-2.4-5.6zM545.6 321.3c-27.1 0-60.2-34.5-60.2-63.6v-52.6H376.8c5.6 16.2 8.7 33.7 8.7 51.7 0 40.5-15.2 77.4-40.3 105.3h125.1c6.1 0 10.9 5 10.9 10.9v149.9c0 6.1-5 10.9-10.9 10.9H329c-6.1 0-10.9-4.9-10.9-10.9V386.2c-25.6 17.9-56.7 28.4-90.3 28.4-8 0-16-.6-23.7-1.8v249c0 31.3 25.4 56.8 56.8 56.8h277.6c31.3 0 56.8-25.4 56.8-56.8V321.3h-49.7zM286.2 635.4h-18.6v-19.6h18.7l-.1 19.6zm108.9.2h-18v-27.9c0-2.8-.1-5-.2-7-.2-1.9-.4-3.4-1-4.6-.6-1.2-1.4-2-2.7-2.6-1.3-.5-2.9-.8-5.2-.8-1.5 0-2.9.3-4.4.8-1.3.3-3.1 1.2-5.2 2.4v39.6h-18v-27.9c0-2.7-.1-5-.2-7-.2-1.9-.5-3.4-1.1-4.6s-1.5-2-2.7-2.6c-1.2-.5-2.9-.8-5.1-.8-1.8 0-3.4.3-5.1 1-1.7.8-3.1 1.4-4.5 2.3v39.6h-18v-55.9h18v6.1c3.1-2.4 6.1-4.4 8.8-5.6 2.8-1.3 5.9-2 9.3-2 3.7 0 6.9.8 9.8 2.5 2.9 1.7 5 4 6.6 7.2 3.5-3 7.1-5.4 10.4-7.1 3.4-1.7 6.7-2.5 9.9-2.5 6.1 0 10.6 1.9 13.7 5.5 3.1 3.6 4.7 8.8 4.7 15.6v36.3zm65.7-6.5c-5.4 5.3-12.9 7.9-22.6 7.9-9.8 0-17.2-2.6-22.6-7.9-5.4-5.3-8-12.5-8-21.7 0-9.3 2.7-16.6 8.1-21.8 5.4-5.2 12.9-7.9 22.5-7.9 9.8 0 17.2 2.6 22.6 7.9 5.4 5.4 8 12.6 8 21.8s-2.7 16.4-8 21.7zm77.2-49.7l-21.5 55.9h-20.3l-21.5-55.9h18.9l13 38.5 12.8-38.5H538zM331.2 523.7h10.3c1.8 0 3.3-1.5 3.3-3.3v-10.6c0-1.8-1.4-3.3-3.3-3.3h-10.3c-1.8 0-3.3 1.5-3.3 3.3v10.6c0 1.8 1.5 3.3 3.3 3.3zM331.2 496.8h10.3c1.8 0 3.3-1.4 3.3-3.3v-10.6c0-1.9-1.4-3.3-3.3-3.3h-10.3c-1.8 0-3.3 1.4-3.3 3.3v10.6c0 1.9 1.5 3.3 3.3 3.3zM331.2 470h10.3c1.8 0 3.3-1.4 3.3-3.3v-10.6c0-1.9-1.4-3.3-3.3-3.3h-10.3c-1.8 0-3.3 1.5-3.3 3.3v10.6c0 1.8 1.5 3.3 3.3 3.3zM331.2 443.1h10.3c1.8 0 3.3-1.5 3.3-3.3v-10.6c0-1.9-1.4-3.3-3.3-3.3h-10.3c-1.8 0-3.3 1.5-3.3 3.3v10.6c0 1.8 1.5 3.3 3.3 3.3z"/></g></svg>