<svg xmlns="http://www.w3.org/2000/svg" viewBox="0 123.3 595.3 595.3" enable-background="new 0 123.3 595.3 595.3" width="40" height="40"><g fill="#006B8D"><path d="M551.9 298.7h43.5l-87-93.6v46.7c0 25.9 19.5 46.9 43.5 46.9zM458 496.2h10.2c1.8 0 3.3-1.4 3.3-3.3v-10.6c0-1.8-1.4-3.3-3.3-3.3H458c-1.8 0-3.3 1.4-3.3 3.3v10.6c.1 1.8 1.6 3.3 3.3 3.3zM359.5 438.4h80.7c1.8 0 3.3-1.5 3.3-3.3v-52.3c0-1.8-1.4-3.3-3.3-3.3h-80.7c-1.8 0-3.3 1.4-3.3 3.3v52.3c0 1.8 1.5 3.3 3.3 3.3zM458 523.1h10.2c1.8 0 3.3-1.5 3.3-3.3v-10.6c0-1.8-1.4-3.3-3.3-3.3H458c-1.8 0-3.3 1.4-3.3 3.3v10.6c.1 1.8 1.6 3.3 3.3 3.3zM458 469.3h10.2c1.8 0 3.3-1.4 3.3-3.3v-10.6c0-1.8-1.4-3.3-3.3-3.3H458c-1.8 0-3.3 1.4-3.3 3.3V466c.1 1.9 1.6 3.3 3.3 3.3zM359.5 515h80.7c1.8 0 3.3-1.4 3.3-3.3v-48.4c0-1.8-1.4-3.3-3.3-3.3h-80.7c-1.8 0-3.3 1.4-3.3 3.3v48.4c0 1.9 1.5 3.3 3.3 3.3zM458 388.6h10.2c1.8 0 3.3-1.4 3.3-3.3v-10.6c0-1.8-1.4-3.3-3.3-3.3H458c-1.8 0-3.3 1.4-3.3 3.3v10.6c.1 1.9 1.6 3.3 3.3 3.3zM458 442.4h10.2c1.8 0 3.3-1.5 3.3-3.3v-10.6c0-1.8-1.4-3.3-3.3-3.3H458c-1.8 0-3.3 1.5-3.3 3.3v10.6c.1 1.8 1.6 3.3 3.3 3.3zM458 415.5h10.2c1.8 0 3.3-1.5 3.3-3.3v-10.6c0-1.8-1.4-3.3-3.3-3.3H458c-1.8 0-3.3 1.4-3.3 3.3v10.6c.1 1.9 1.6 3.3 3.3 3.3zM331.4 415.5h10.2c1.8 0 3.3-1.5 3.3-3.3v-10.6c0-1.8-1.4-3.3-3.3-3.3h-10.2c-1.8 0-3.3 1.4-3.3 3.3v10.6c0 1.9 1.5 3.3 3.3 3.3zM331.4 523.1h10.2c1.8 0 3.3-1.5 3.3-3.3v-10.6c0-1.8-1.4-3.3-3.3-3.3h-10.2c-1.8 0-3.3 1.4-3.3 3.3v10.6c0 1.8 1.5 3.3 3.3 3.3zM331.4 496.2h10.2c1.8 0 3.3-1.4 3.3-3.3v-10.6c0-1.8-1.4-3.3-3.3-3.3h-10.2c-1.8 0-3.3 1.4-3.3 3.3v10.6c0 1.8 1.5 3.3 3.3 3.3zM546 321.2c-27.1 0-60.3-34.6-60.3-63.5v-52.6H261c-31.3.2-56.7 25.6-56.7 56.9v399.9c0 31.3 25.4 56.7 56.7 56.7h277.6c31.3 0 56.7-25.4 56.7-56.7V321.2H546zm-227.8 51.2c0-6 4.9-10.9 11-10.9h141.3c6 0 11 4.9 11 10.9v149.9c0 6-4.9 10.9-11 10.9H329.2c-6 0-11-4.9-11-10.9V372.4zm-31.6 262.9H268v-19.6h18.7l-.1 19.6zm72.2-39.6v39.6h-18v-27.9c0-2.7-.1-5.1-.2-7-.1-1.9-.5-3.5-1.1-4.7-.6-1.2-1.5-2-2.7-2.6-1.2-.5-2.9-.9-5.1-.9-1.8 0-3.5.3-5.1 1.1-1.6.7-3.2 1.4-4.5 2.2v39.6h-18v-55.9h18v6.2c3.1-2.4 6-4.3 8.9-5.7 2.8-1.3 5.9-2 9.3-2 3.7 0 6.9.9 9.7 2.5 2.8 1.6 5 4.1 6.6 7.2 3.5-3 7-5.4 10.4-7.1 3.4-1.7 6.7-2.6 9.9-2.6 6 0 10.6 1.8 13.7 5.5 3.2 3.6 4.7 8.8 4.7 15.6v36.4h-18v-27.9c0-2.8-.1-5.1-.2-7-.1-1.9-.5-3.4-1.1-4.6s-1.4-2-2.7-2.6c-1.2-.5-3-.9-5.2-.9-1.5 0-3 .3-4.4.8-1.1.6-2.8 1.5-4.9 2.7zm110.4 11.7c0 9.2-2.7 16.4-8 21.7-5.4 5.3-12.9 7.9-22.6 7.9-9.7 0-17.2-2.6-22.6-7.9-5.4-5.3-8-12.5-8-21.7 0-9.3 2.7-16.6 8.1-21.8 5.4-5.3 12.9-7.9 22.5-7.9 9.8 0 17.3 2.6 22.7 7.9 5.3 5.3 7.9 12.6 7.9 21.8zm-22 13.6c1.2-1.4 2-3.2 2.6-5.1.6-2 .9-4.8.9-8.3 0-3.3-.3-6-.9-8.3-.6-2.2-1.4-4-2.5-5.3-1.1-1.4-2.4-2.3-3.8-2.9-1.5-.6-3.1-.9-4.9-.9-1.7 0-3.3.3-4.6.7s-2.6 1.4-3.9 2.8c-1.1 1.3-2 3.1-2.6 5.3s-1 5.1-1 8.5c0 3.1.3 5.7.9 7.9.6 2.2 1.4 4.1 2.5 5.4 1.1 1.3 2.3 2.2 3.8 2.8 1.4.6 3.2.9 5.1.9 1.6 0 3.2-.3 4.7-.9 1.4-.4 2.7-1.3 3.7-2.6zm91.2-41.6l-21.5 55.9h-20.3l-21.4-55.9H494l13 38.5 12.8-38.5h18.6zM331.4 469.3h10.2c1.8 0 3.3-1.4 3.3-3.3v-10.6c0-1.8-1.4-3.3-3.3-3.3h-10.2c-1.8 0-3.3 1.4-3.3 3.3V466c0 1.9 1.5 3.3 3.3 3.3zM331.4 388.6h10.2c1.8 0 3.3-1.4 3.3-3.3v-10.6c0-1.8-1.4-3.3-3.3-3.3h-10.2c-1.8 0-3.3 1.4-3.3 3.3v10.6c0 1.9 1.5 3.3 3.3 3.3zM331.4 442.4h10.2c1.8 0 3.3-1.5 3.3-3.3v-10.6c0-1.8-1.4-3.3-3.3-3.3h-10.2c-1.8 0-3.3 1.5-3.3 3.3v10.6c0 1.8 1.5 3.3 3.3 3.3z"/></g></svg>