<svg xmlns="http://www.w3.org/2000/svg" viewBox="0 123.3 595.3 595.3" enable-background="new 0 123.3 595.3 595.3" width="40" height="40"><g fill="#006B8D"><path d="M508.5 251.9c0 25.8 19.4 46.7 43.5 46.7h43.5l-86.9-93.3v46.6h-.1zM204.3 261.9v400c0 31.3 25.4 56.7 56.7 56.7h277.5c31.3 0 56.7-25.4 56.7-56.7V321.1H546c-27.1 0-60.2-34.5-60.2-63.5v-52.5H261.1c-31.4.2-56.8 25.5-56.8 56.8zm138.6 210.4c7.7-1.7 15.4-1.3 22 .7v-82c0-5.6 3.9-10.5 9.4-11.7l99.2-21c.4-.1.7-.1 1.2-.1s.8-.1 1.2-.1c.1 0 .4 0 .5.1.6 0 1.2 0 1.8.1.4.1.7.2 1.1.4.4.1.7.2 1.1.4.4.1.8.4 1.2.6.2.1.6.2.8.5.4.2.6.5 1 .7.2.2.6.5.8.7s.5.6.7.8.5.6.7.8c.2.4.5.8.7 1.2.1.2.4.6.5.8.2.6.5 1.2.6 1.9 0 .1.1.2.1.4.1.4.1.8.1 1.3 0 .4.1.7.1 1.2v108.7c0 .7-.1 1.4-.2 2-.2 15.4-13.5 29.6-32.3 33.7-21.2 4.5-41.3-6-45-23.5-3.7-17.5 10.5-35.2 31.7-39.8 7.7-1.7 15.4-1.3 22 .7v-67.3l-75.1 16v99.1c0 .7-.1 1.4-.2 2-.2 15.4-13.5 29.6-32.3 33.7-21.2 4.5-41.3-6-45-23.5-3.8-17.3 10.4-35 31.6-39.5zm-59.3 163.3H265v-19.5h18.6v19.5zm72-39.5v39.5h-18v-27.9c0-2.7-.1-5-.2-6.9-.1-1.9-.5-3.5-1.1-4.6-.6-1.2-1.5-2-2.7-2.6-1.2-.6-2.9-.8-5.1-.8-1.8 0-3.5.4-5.1 1.1-1.7.7-3.1 1.4-4.5 2.3v39.5h-18v-55.8h18v6.2c3.1-2.4 6.1-4.3 8.8-5.7 2.7-1.4 6-2 9.3-2 3.7 0 6.9.8 9.8 2.5s5 4 6.5 7.3c3.6-3 7-5.4 10.4-7.1 3.3-1.7 6.7-2.6 9.9-2.6 6.1 0 10.6 1.8 13.7 5.4 3.1 3.6 4.6 8.8 4.6 15.6v36.3h-18v-27.9c0-2.7 0-5.1-.1-6.9-.1-1.9-.5-3.5-1.1-4.6-.6-1.2-1.4-2-2.7-2.6-1.2-.6-3-.8-5.1-.8-1.5 0-3 .2-4.4.7-1.5.3-2.9 1.2-4.9 2.4zm111.3 10.8c0 4.6-.7 8.8-2.1 12.6-1.4 3.8-3.2 6.9-5.5 9.3-2.4 2.6-5.1 4.5-8.1 5.8-3 1.3-6.2 2-9.6 2-3.2 0-5.8-.4-8.1-1.1-2.3-.7-4.5-1.7-6.8-2.9v23.2h-18v-76.2h18v5.8c2.7-2.1 5.6-3.9 8.5-5.4 2.9-1.3 6.2-2 9.9-2 6.9 0 12.4 2.5 16.2 7.6 3.6 5.5 5.6 12.4 5.6 21.3zm-18.4.4c0-5.5-1-9.4-2.7-11.8-1.9-2.5-4.8-3.7-8.8-3.7-1.7 0-3.5.2-5.2.7-1.8.5-3.5 1.2-5.1 2.3v28c1.2.5 2.5.7 3.8 1 1.3.1 2.7.2 4 .2 4.8 0 8.2-1.4 10.6-4.2 2.2-2.8 3.4-6.9 3.4-12.5zm82.9-6.3c1.7 1.4 2.9 3 3.9 4.9 1 1.9 1.4 4.3 1.4 7.4 0 3.5-.7 6.7-2 9.8-1.4 3-3.5 5.6-6.3 7.7-2.7 2.1-6.1 3.7-9.8 4.8-3.8 1.1-8.3 1.7-13.7 1.7-6.1 0-11.4-.5-15.7-1.4-4.4-1-8-2-10.7-3.2v-16.2h1.9c2.9 1.7 6.2 3.2 10.2 4.5 3.9 1.3 7.6 1.9 10.8 1.9 1.9 0 4-.1 6.3-.5s4.2-1 5.7-2c1.2-.8 2.1-1.8 3-3 .7-1.2 1.1-2.9 1.1-5.1 0-2.1-.5-3.8-1.5-5-1-1.2-2.3-2-3.9-2.5-1.7-.5-3.6-.8-5.8-.8s-4.4-.1-6.3-.1h-4v-13.2h4.2c2.6 0 4.9-.1 6.9-.2s3.7-.6 5.1-1.2c1.4-.6 2.5-1.4 3.3-2.5.8-1.1 1.1-2.6 1.1-4.6 0-1.5-.4-2.7-1.2-3.6-.7-1-1.7-1.7-2.9-2.1-1.3-.6-2.9-1-4.5-1.2-1.8-.2-3.2-.4-4.5-.4-3.1 0-6.5.6-10.1 1.7-3.7 1.1-7.1 2.6-10.6 4.6H481v-16.3c2.7-1.1 6.4-2.1 11.1-3.1 4.6-1 9.4-1.5 14.2-1.5 4.6 0 8.8.4 12.3 1.2s6.4 1.9 8.7 3.2c2.7 1.7 4.8 3.6 6.1 6 1.3 2.3 2 5 2 8.1 0 4-1.3 7.7-3.8 11-2.5 3.2-6 5.2-10.1 6.2v.7c1.7.2 3.5.7 5.4 1.4 1.9.7 3 1.6 4.5 2.9z"/></g></svg>