<svg xmlns="http://www.w3.org/2000/svg" viewBox="0 123.3 595.3 595.3" enable-background="new 0 123.3 595.3 595.3" width="40" height="40"><path fill="#006B8D" d="M551.9 298.7h43.5l-87-93.6v46.7c0 25.9 19.5 46.9 43.5 46.9zM458 496.1h10.2c1.8 0 3.3-1.4 3.3-3.3v-10.5c0-1.8-1.4-3.3-3.3-3.3H458c-1.8 0-3.3 1.4-3.3 3.3v10.5c.1 1.9 1.6 3.3 3.3 3.3zM359.5 438.4h80.7c1.8 0 3.3-1.5 3.3-3.3v-52.3c0-1.8-1.4-3.3-3.3-3.3h-80.7c-1.8 0-3.3 1.4-3.3 3.3v52.3c0 1.8 1.5 3.3 3.3 3.3zM458 523h10.2c1.8 0 3.3-1.5 3.3-3.3v-10.6c0-1.8-1.4-3.3-3.3-3.3H458c-1.8 0-3.3 1.4-3.3 3.3v10.6c.1 1.9 1.6 3.3 3.3 3.3zM458 469.3h10.2c1.8 0 3.3-1.4 3.3-3.3v-10.6c0-1.8-1.4-3.3-3.3-3.3H458c-1.8 0-3.3 1.4-3.3 3.3V466c.1 1.9 1.6 3.3 3.3 3.3zM359.5 515h80.7c1.8 0 3.3-1.4 3.3-3.3v-48.4c0-1.8-1.4-3.3-3.3-3.3h-80.7c-1.8 0-3.3 1.4-3.3 3.3v48.4c0 1.8 1.5 3.3 3.3 3.3zM458 388.6h10.2c1.8 0 3.3-1.4 3.3-3.3v-10.6c0-1.8-1.4-3.3-3.3-3.3H458c-1.8 0-3.3 1.4-3.3 3.3v10.6c.1 1.9 1.6 3.3 3.3 3.3zM458 442.4h10.2c1.8 0 3.3-1.5 3.3-3.3v-10.6c0-1.8-1.4-3.3-3.3-3.3H458c-1.8 0-3.3 1.5-3.3 3.3v10.6c.1 1.8 1.6 3.3 3.3 3.3zM458 415.5h10.2c1.8 0 3.3-1.5 3.3-3.3v-10.6c0-1.8-1.4-3.3-3.3-3.3H458c-1.8 0-3.3 1.4-3.3 3.3v10.6c.1 1.9 1.6 3.3 3.3 3.3zM331.4 415.5h10.2c1.8 0 3.3-1.5 3.3-3.3v-10.6c0-1.8-1.4-3.3-3.3-3.3h-10.2c-1.8 0-3.3 1.4-3.3 3.3v10.6c0 1.9 1.5 3.3 3.3 3.3zM331.4 523h10.2c1.8 0 3.3-1.5 3.3-3.3v-10.6c0-1.8-1.4-3.3-3.3-3.3h-10.2c-1.8 0-3.3 1.4-3.3 3.3v10.6c0 1.9 1.5 3.3 3.3 3.3zM331.4 496.1h10.2c1.8 0 3.3-1.4 3.3-3.3v-10.5c0-1.8-1.4-3.3-3.3-3.3h-10.2c-1.8 0-3.3 1.4-3.3 3.3v10.5c0 1.9 1.5 3.3 3.3 3.3zM546 321.2c-27.1 0-60.3-34.6-60.3-63.5v-52.6H261c-31.3.2-56.7 25.6-56.7 56.9v399.9c0 31.3 25.4 56.7 56.7 56.7h277.6c31.3 0 56.7-25.4 56.7-56.7V321.2H546zm-227.8 51.2c0-6 4.9-10.9 11-10.9h141.3c6 0 11 4.9 11 10.9v149.9c0 6-4.9 10.9-11 10.9H329.2c-6 0-11-4.9-11-10.9V372.4zm-35.4 262.9h-18.6v-19.6h18.6v19.6zm72.2-39.6v39.6h-18v-27.9c0-2.7-.1-5.1-.2-7-.1-1.9-.5-3.5-1.1-4.7-.6-1.2-1.5-2-2.7-2.6-1.2-.5-2.9-.8-5.1-.8-1.8 0-3.5.3-5.1 1.1-1.6.7-3.2 1.4-4.5 2.2v39.6h-17.9v-55.8h17.9v6.2c3.1-2.4 6-4.3 8.9-5.7 2.8-1.4 5.9-2 9.3-2 3.7 0 6.9.8 9.7 2.4 2.8 1.6 5 4.1 6.6 7.2 3.5-3 7-5.4 10.4-7.1 3.4-1.7 6.7-2.6 9.9-2.6 6 0 10.6 1.8 13.7 5.5 3.2 3.6 4.7 8.8 4.7 15.6v36.3h-17.9v-27.9c0-2.8-.1-5.1-.2-7-.1-1.9-.5-3.4-1.1-4.6-.6-1.2-1.4-2-2.7-2.6-1.2-.5-3-.8-5.2-.8-1.5 0-3 .3-4.4.8-1.2.6-3 1.4-5 2.6zm111.5 10.9c0 4.6-.7 8.8-2.1 12.6-1.4 3.8-3.3 6.9-5.5 9.3-2.4 2.6-5.1 4.5-8.1 5.8-3 1.3-6.2 2-9.7 2-3.2 0-5.8-.3-8.1-1.1-2.2-.7-4.5-1.6-6.8-2.9v23.3h-17.9v-76.2h17.9v5.8c2.8-2.2 5.6-3.9 8.4-5.3 2.9-1.4 6.2-2 9.9-2 7 0 12.4 2.6 16.2 7.7 3.9 5.1 5.8 12.1 5.8 21zm-18.5.4c0-5.5-.9-9.4-2.8-11.8-1.8-2.4-4.8-3.7-8.8-3.7-1.7 0-3.4.3-5.2.8-1.8.5-3.5 1.2-5.1 2.2v28.1c1.2.5 2.5.8 3.8.9 1.4.1 2.7.2 4 .2 4.7 0 8.3-1.4 10.6-4.1 2.4-2.9 3.5-7.1 3.5-12.6zm91.3 11.3h-10.1v17.3h-18.3v-17.3H475v-14l34.7-43h19.4v43.5h10.1v13.5zM511 604.7v-26.8l-21.5 26.8H511zM331.4 469.3h10.2c1.8 0 3.3-1.4 3.3-3.3v-10.6c0-1.8-1.4-3.3-3.3-3.3h-10.2c-1.8 0-3.3 1.4-3.3 3.3V466c0 1.9 1.5 3.3 3.3 3.3zM331.4 388.6h10.2c1.8 0 3.3-1.4 3.3-3.3v-10.6c0-1.8-1.4-3.3-3.3-3.3h-10.2c-1.8 0-3.3 1.4-3.3 3.3v10.6c0 1.9 1.5 3.3 3.3 3.3zM331.4 442.4h10.2c1.8 0 3.3-1.5 3.3-3.3v-10.6c0-1.8-1.4-3.3-3.3-3.3h-10.2c-1.8 0-3.3 1.5-3.3 3.3v10.6c0 1.8 1.5 3.3 3.3 3.3z"/></svg>