<svg xmlns="http://www.w3.org/2000/svg" viewBox="0 123.3 595.3 595.3" enable-background="new 0 123.3 595.3 595.3" width="40" height="40"><g><g fill="#006B8D"><path d="M551.5 298.8h43.6l-86.9-93.4v46.8c-.1 25.7 19.4 46.6 43.3 46.6zM485.3 257.7v-52.6H376.8c5.6 16.2 8.7 33.6 8.7 51.6 0 87.1-70.7 157.8-157.8 157.8-8 0-16-.6-23.7-1.8v249c0 31.3 25.4 56.8 56.8 56.8h277.7c31.3 0 56.8-25.4 56.8-56.8V321.3h-49.5c-27.3 0-60.5-34.5-60.5-63.6zm2.2 112.5V479c0 .7-.1 1.4-.2 2-.2 15.4-13.5 29.6-32.3 33.7-21.2 4.5-41.3-6-45-23.6-3.7-17.5 10.5-35.2 31.7-39.9 7.7-1.7 15.4-1.3 22 .7v-67.4l-75.3 15.8v99.2c0 .7-.1 1.4-.2 2-.2 15.4-13.5 29.6-32.3 33.7-21.2 4.5-41.3-6-45-23.6-3.7-17.4 10.5-35.2 31.7-39.9 7.7-1.7 15.4-1.3 22 .7v-82.1c0-5.6 3.9-10.5 9.4-11.7l99.3-21c.4-.1.7-.1 1.2-.1s.8-.1 1.2-.1c.1 0 .4 0 .5.1.6 0 1.2 0 1.8.1.4.1.7.2 1.1.4.4.3.7.2 1.1.4.4.1.8.4 1.2.6.2.1.6.2.8.5.4.2.6.5 1 .7.2.2.6.5.8.7.2.2.5.6.7.8.2.2.5.6.7.8.2.4.5.8.7 1.2.1.2.4.6.5.8.2.6.5 1.2.6 1.9 0 .1.1.2.1.4.1.4.1.8.1 1.3.1 1.3.1 1.7.1 2.1zM285.8 635.5h-18.6V616h18.5l.1 19.5zm71.9-39.6v39.4h-17.8v-27.8c0-2.7-.1-5-.2-6.9-.2-1.9-.5-3.4-1.1-4.6-.6-1.2-1.5-2-2.7-2.6-1.2-.5-2.9-.8-5-.8-1.8 0-3.4.3-5.1 1s-3.1 1.4-4.5 2.3v39.4h-17.8v-55.7h17.8v6.1c3.1-2.4 6-4.3 8.8-5.6 2.9-1.3 5.9-2 9.3-2 3.7 0 6.9.8 9.8 2.4 2.9 1.7 5 4 6.6 7.2 3.5-3 7.1-5.4 10.3-7.1 3.4-1.7 6.6-2.5 9.9-2.5 6 0 10.6 1.8 13.6 5.4 3.1 3.6 4.6 8.8 4.6 15.6v36.3h-17.8v-27.8c0-2.8-.1-5-.2-7-.2-1.9-.4-3.4-1-4.6s-1.4-2-2.7-2.6c-1.3-.5-2.9-.8-5.1-.8-1.5 0-2.9.3-4.4.8-1.6.5-3.2 1.4-5.3 2.5zm111.1 11c0 4.6-.8 8.8-2.1 12.5-1.3 3.8-3.2 6.9-5.6 9.3-2.4 2.5-5 4.5-8.1 5.9-3 1.3-6.2 1.9-9.7 1.9-3.1 0-5.9-.3-8.1-1-2.3-.7-4.5-1.7-6.7-2.9v23.1h-17.8v-76h17.8v5.8c2.8-2.2 5.6-4 8.4-5.3 2.9-1.3 6.1-2 9.8-2 6.9 0 12.4 2.5 16.1 7.7 4.1 5.1 6 12.1 6 21zm-18.4.3c0-5.4-.9-9.3-2.8-11.8-1.9-2.4-4.8-3.7-8.7-3.7-1.7 0-3.4.3-5.2.8-1.8.5-3.4 1.3-5.1 2.3v28c1.2.4 2.4.8 3.8.9s2.7.2 4 .2c4.7 0 8.2-1.3 10.5-4.1 2.4-2.9 3.5-7 3.5-12.6zm65.1 22.3c-1 .8-2.2 1.6-3.5 2.6-1.4 1-2.8 1.9-4 2.4-1.8.8-3.5 1.3-5.5 1.8-1.9.4-4 .6-6.1.6-5.2 0-9.8-1.7-13.3-5s-5.3-7.4-5.3-12.5c0-4 .9-7.3 2.7-10 1.9-2.5 4.4-4.6 7.7-6.1s7.4-2.5 12.3-3.1c4.9-.7 10-1.1 15.2-1.3v-.3c0-3.1-1.3-5.2-3.8-6.4-2.5-1.2-6.2-1.8-11.1-1.8-2.9 0-6.1.5-9.4 1.6-3.4 1-5.7 1.9-7.1 2.4h-1.7V581c1.9-.5 5-1 9.2-1.8 4.3-.7 8.5-1 12.8-1 10.1 0 17.5 1.6 22 4.6s6.7 8 6.7 14.7v37.9h-17.7l-.1-5.9zm0-8.7v-11.5c-2.4.2-5 .4-7.8.8-2.9.3-5 .8-6.4 1.2-1.8.6-3.1 1.3-4 2.4-.9 1-1.4 2.5-1.4 4.2 0 1.2.2 2.1.3 2.9.2.8.8 1.4 1.5 2.1s1.7 1.1 2.8 1.4c1 .3 2.7.4 5 .4 1.8 0 3.6-.3 5.5-1.1 1.4-.6 3-1.6 4.5-2.8z"/></g><path fill="#006B8D" d="M227.7 145.3c61.5 0 111.5 50 111.5 111.5s-50 111.5-111.5 111.5-111.5-50-111.5-111.5 50-111.5 111.5-111.5m0-22c-73.5 0-133.4 59.7-133.4 133.5 0 73.7 59.6 133.4 133.4 133.4s133.4-59.6 133.4-133.4-59.7-133.5-133.4-133.5zM271.9 247.3h-67.6v-23.1c0-6.5 2.3-12 6.9-16.7 4.6-4.6 10.1-6.9 16.7-6.9s12 2.3 16.7 6.9c4.7 4.6 6.9 10.1 6.9 16.7 0 1.5.6 3 1.8 4.2s2.5 1.8 4.2 1.8h5.8c1.5 0 3-.6 4.2-1.8 1.2-1.2 1.8-2.5 1.8-4.2 0-11.3-4-21.1-12.1-29-8.1-8.1-17.7-12.1-29-12.1s-21.1 4-29 12.1c-8.1 8.1-12.1 17.7-12.1 29v23.1h-3c-2.5 0-4.5.8-6.3 2.6-1.7 1.7-2.6 3.8-2.6 6.3v65.7c0 2.5.8 4.5 2.6 6.3 1.7 1.7 3.8 2.6 6.3 2.6h88.4c2.5 0 4.5-.8 6.3-2.6 1.7-1.7 2.6-3.8 2.6-6.3v-65.7c0-2.5-.8-4.5-2.6-6.3-2.4-1.7-4.4-2.6-6.9-2.6zm-37.1 43.1v17.3c0 3.5-2.9 6.3-6.3 6.3h-1.2c-3.5 0-6.3-2.9-6.3-6.3v-17.3c-3.7-2.3-6.2-6.4-6.2-11.1 0-7.3 5.8-13.1 13.1-13.1S241 272 241 279.3c-.3 4.7-2.6 8.7-6.2 11.1z"/></g></svg>