<svg xmlns="http://www.w3.org/2000/svg" viewBox="0 123.3 595.3 595.3" enable-background="new 0 123.3 595.3 595.3" width="40" height="40"><g fill="#006B8D"><path d="M508.3 251.9c0 25.8 19.4 46.7 43.5 46.7h43.5l-86.9-93.4-.1 46.7zM204 261.9v400c0 31.3 25.4 56.7 56.7 56.7h277.6c31.3 0 56.7-25.4 56.7-56.7V321.1h-49.2c-27.1 0-60.3-34.5-60.3-63.5v-52.5H260.8c-31.4.1-56.8 25.4-56.8 56.8zm138.6 210.4c7.7-1.7 15.4-1.3 22 .7v-82.1c0-5.6 3.9-10.5 9.4-11.7l99.3-21c.4-.1.7-.1 1.2-.1s.8-.1 1.2-.1c.1 0 .4 0 .5.1.6 0 1.2 0 1.8.1.4.1.7.2 1.1.4.4.1.7.2 1.1.4.4.1.8.4 1.2.6.2.1.6.2.8.5.4.2.6.5 1 .7.2.2.6.5.8.7.2.2.5.6.7.8s.5.6.7.8c.2.4.5.8.7 1.2.1.2.4.6.5.8.2.6.5 1.2.6 1.9 0 .1.1.2.1.4.1.4.1.8.1 1.3 0 .4.1.7.1 1.2v108.8c0 .7-.1 1.4-.2 2-.2 15.4-13.5 29.6-32.3 33.7-21.2 4.5-41.3-6-45-23.5-3.7-17.5 10.5-35.2 31.7-39.8 7.7-1.7 15.4-1.3 22 .7v-67.3l-75.2 16v99.2c0 .7-.1 1.4-.2 2-.2 15.4-13.5 29.6-32.3 33.7-21.2 4.5-41.3-6-45-23.5-3.8-17.3 10.4-35.1 31.6-39.6zm-56.9 163.2h-18.6V616h18.5l.1 19.5zm71.9-39.5v39.5h-17.9v-27.8c0-2.7-.1-5-.2-6.9-.1-1.9-.5-3.4-1.1-4.7-.6-1.2-1.5-2-2.7-2.6-1.2-.5-2.9-.8-5.1-.8-1.8 0-3.5.3-5.1 1.1-1.6.7-3.2 1.4-4.5 2.2v39.5h-17.9v-55.7H321v6.2c3.1-2.4 6-4.3 8.8-5.7s5.9-2 9.3-2c3.7 0 6.9.8 9.7 2.4 2.8 1.6 5 4 6.6 7.2 3.5-3 7-5.4 10.4-7.1 3.4-1.7 6.6-2.6 9.9-2.6 6 0 10.6 1.8 13.7 5.4s4.7 8.8 4.7 15.6v36.3h-17.9v-27.8c0-2.8-.1-5.1-.2-7-.1-1.9-.5-3.4-1.1-4.6s-1.4-2-2.7-2.6c-1.2-.5-3-.8-5.1-.8-1.5 0-3 .3-4.3.8-1.5.4-3.2 1.3-5.2 2.5zm111.1 10.9c0 4.6-.7 8.8-2.1 12.6s-3.2 6.9-5.5 9.3c-2.4 2.6-5.1 4.5-8.1 5.8-3 1.3-6.2 2-9.7 2-3.2 0-5.8-.3-8.1-1s-4.5-1.6-6.8-2.8v23.1h-17.9v-76.1h17.9v5.8c2.8-2.2 5.5-3.9 8.4-5.3 2.9-1.4 6.2-2 9.9-2 6.9 0 12.4 2.6 16.2 7.6 3.9 5.1 5.8 12 5.8 21zm-18.4.3c0-5.4-.9-9.3-2.8-11.8s-4.8-3.7-8.7-3.7c-1.7 0-3.4.3-5.2.8-1.8.5-3.5 1.2-5.1 2.2v28c1.2.5 2.4.8 3.8.9 1.4.1 2.7.2 4 .2 4.7 0 8.2-1.4 10.5-4.1 2.4-2.8 3.5-6.9 3.5-12.5zm65.1 22.3c-1 .7-2.2 1.6-3.5 2.6-1.4 1.1-2.8 1.8-4 2.4-1.8.8-3.5 1.4-5.5 1.8-1.9.4-3.9.6-6.2.6-5.3 0-9.7-1.6-13.3-4.9-3.5-3.3-5.3-7.4-5.3-12.6 0-4.1.9-7.4 2.7-10 1.8-2.6 4.4-4.6 7.8-6.1 3.3-1.5 7.4-2.6 12.3-3.2 4.9-.7 10-1.1 15.2-1.4v-.3c0-3.1-1.2-5.2-3.7-6.4-2.5-1.2-6.2-1.8-11.1-1.8-3 0-6.1.5-9.4 1.6-3.4 1.1-5.7 1.8-7.2 2.4h-1.6V581c1.9-.5 4.9-1.1 9.2-1.8 4.3-.7 8.5-1 12.7-1 10.1 0 17.5 1.6 22 4.7s6.8 8 6.8 14.7v37.9h-17.7v-5.9h-.2v-.1zm0-8.6v-11.6c-2.4.2-5 .5-7.8.8-2.8.3-4.9.7-6.4 1.2-1.8.6-3.2 1.4-4.1 2.4s-1.4 2.5-1.4 4.2c0 1.2.1 2.1.3 2.8.2.7.7 1.4 1.5 2.1.8.7 1.6 1.1 2.8 1.4 1.1.3 2.7.5 4.9.5 1.8 0 3.6-.3 5.5-1.1 1.6-.6 3.2-1.6 4.7-2.7z"/></g></svg>