<svg xmlns="http://www.w3.org/2000/svg" viewBox="0 123.3 595.3 595.3" enable-background="new 0 123.3 595.3 595.3" width="40" height="40"><g fill="#006B8D"><path d="M551.5 298.7h43.6l-86.9-93.4V252c-.1 26 19.3 46.7 43.3 46.7zM457.9 523.7h10.3c1.9 0 3.3-1.5 3.3-3.3v-10.6c0-1.8-1.4-3.3-3.3-3.3h-10.3c-1.8 0-3.3 1.5-3.3 3.3v10.6c0 1.8 1.4 3.3 3.3 3.3zM457.9 496.8h10.3c1.9 0 3.3-1.4 3.3-3.3v-10.6c0-1.9-1.4-3.3-3.3-3.3h-10.3c-1.8 0-3.3 1.4-3.3 3.3v10.6c0 1.9 1.4 3.3 3.3 3.3zM457.9 470h10.3c1.9 0 3.3-1.4 3.3-3.3v-10.6c0-1.9-1.4-3.3-3.3-3.3h-10.3c-1.8 0-3.3 1.5-3.3 3.3v10.6c0 1.7 1.4 3.3 3.3 3.3zM359.3 439H440c1.8 0 3.3-1.5 3.3-3.3v-52.3c0-1.9-1.5-3.3-3.3-3.3h-80.8c-1.9 0-3.3 1.4-3.3 3.3v52.3c.1 1.8 1.5 3.3 3.4 3.3zM359.3 515.7H440c1.8 0 3.3-1.5 3.3-3.3V464c0-1.8-1.5-3.3-3.3-3.3h-80.8c-1.9 0-3.3 1.4-3.3 3.3v48.4c.1 1.8 1.5 3.3 3.4 3.3zM457.9 389.3h10.3c1.9 0 3.3-1.4 3.3-3.3v-10.6c0-1.9-1.4-3.3-3.3-3.3h-10.3c-1.8 0-3.3 1.4-3.3 3.3V386c0 1.8 1.4 3.3 3.3 3.3zM331.2 416.1h10.3c1.8 0 3.3-1.5 3.3-3.3v-10.6c0-1.9-1.4-3.3-3.3-3.3h-10.3c-1.8 0-3.3 1.4-3.3 3.3v10.6c0 1.9 1.4 3.3 3.3 3.3zM457.9 443h10.3c1.9 0 3.3-1.5 3.3-3.3v-10.6c0-1.9-1.4-3.3-3.3-3.3h-10.3c-1.8 0-3.3 1.5-3.3 3.3v10.6c0 1.9 1.4 3.3 3.3 3.3zM327.9 386c0 1.9 1.5 3.3 3.3 3.3h10.3c1.8 0 3.3-1.4 3.3-3.3v-10.6c0-1.9-1.4-3.3-3.3-3.3h-6.1c-2.4 2.3-4.9 4.5-7.4 6.5l-.1 7.4zM457.9 416.1h10.3c1.9 0 3.3-1.5 3.3-3.3v-10.6c0-1.9-1.4-3.3-3.3-3.3h-10.3c-1.8 0-3.3 1.4-3.3 3.3v10.6c0 1.9 1.4 3.3 3.3 3.3zM545.6 321.2c-27.1 0-60.2-34.5-60.2-63.6V205H376.8c5.6 16.2 8.8 33.7 8.8 51.7 0 40.5-15.2 77.4-40.3 105.3h125.1c6.1 0 10.9 5 10.9 10.9v149.9c0 6.1-5 10.9-10.9 10.9H329c-6.1 0-10.9-4.9-10.9-10.9V386.2c-25.6 17.9-56.7 28.4-90.3 28.4-8 0-16-.6-23.7-1.8v249c0 31.3 25.4 56.8 56.8 56.8h277.7c31.3 0 56.8-25.4 56.8-56.8V321.2h-49.8zM283 635.4h-18.6v-19.5H283v19.5zm72.2-39.6v39.5h-17.9v-27.9c0-2.7-.1-5-.2-6.9-.2-1.9-.5-3.4-1.1-4.6-.6-1.2-1.5-2.1-2.7-2.6-1.2-.6-2.9-.8-5.1-.8-1.8 0-3.4.3-5.1 1.1-1.7.7-3.1 1.4-4.5 2.3v39.5h-17.9v-55.9h17.9v6.1c3.1-2.4 6.1-4.3 8.8-5.6 2.8-1.3 5.9-2 9.3-2 3.7 0 6.9.8 9.8 2.4 2.8 1.7 5 4 6.6 7.2 3.5-3 7.1-5.4 10.4-7.2 3.4-1.7 6.6-2.6 9.9-2.6 6.1 0 10.6 1.8 13.7 5.4 3.1 3.6 4.7 8.8 4.7 15.6v36.3H374v-27.9c0-2.8-.1-5-.2-7-.1-1.9-.5-3.4-1.1-4.6-.6-1.2-1.4-2.1-2.7-2.6-1.3-.6-2.9-.8-5.1-.8-1.5 0-2.9.3-4.4.8-1.6.7-3.3 1.6-5.3 2.8zm111.4 10.9c0 4.6-.7 8.8-2.1 12.6s-3.3 6.9-5.6 9.3c-2.4 2.6-5 4.5-8.1 5.9s-6.2 2-9.7 2c-3.2 0-5.9-.3-8.1-1s-4.5-1.6-6.8-2.9V656h-17.9v-76.3h17.9v5.8c2.8-2.2 5.6-4 8.4-5.3 2.9-1.3 6.1-2 9.9-2 7 0 12.4 2.5 16.2 7.7 4 4.9 5.9 11.9 5.9 20.8zm-18.4.3c0-5.5-.9-9.3-2.8-11.8-1.9-2.4-4.8-3.7-8.8-3.7-1.7 0-3.4.3-5.2.8-1.8.5-3.4 1.3-5.1 2.2v28c1.2.5 2.4.8 3.8.9 1.3.2 2.7.2 4 .2 4.7 0 8.2-1.3 10.6-4.1 2.3-2.7 3.5-6.8 3.5-12.5zm85.7 22c0 5.2-.8 9.7-2.3 13.2-1.5 3.6-3.6 6.4-6.2 8.4-2.7 2-5.9 3.5-9.8 4.5-3.8.9-8.1 1.3-12.9 1.3-3.9 0-7.7-.3-11.4-.7-3.8-.5-7-1-9.8-1.7v-14h2.2c2.2.8 4.9 1.7 8 2.4 3.1.7 6 1.1 8.4 1.1 3.3 0 6-.3 8.1-.9 2.1-.6 3.6-1.5 4.7-2.6 1-1.1 1.8-2.4 2.3-4 .5-1.7.7-3.6.7-6v-1c-2.2 1.8-4.5 3.1-7.2 4.2-2.6 1-5.6 1.5-8.8 1.5-7.8 0-13.9-2.4-18.1-7.1-4.2-4.7-6.4-11.9-6.4-21.5 0-4.6.7-8.6 1.9-11.9 1.3-3.4 3.1-6.2 5.5-8.8 2.2-2.4 4.9-4.1 8.1-5.4 3.2-1.3 6.5-1.9 9.8-1.9 3 0 5.7.3 8.2 1.1 2.4.7 4.7 1.7 6.7 2.9l.7-2.5h17.4l.2 49.4zm-18-11.2v-25.3c-1-.4-2.3-.8-3.8-1-1.5-.3-2.9-.3-4-.3-4.7 0-8.2 1.3-10.6 4-2.4 2.7-3.5 6.5-3.5 11.3 0 5.4 1 9.1 3 11.3 2 2.1 5 3.2 8.9 3.2 1.8 0 3.5-.3 5.3-.8 1.7-.7 3.3-1.5 4.7-2.4zM331.2 523.7h10.3c1.8 0 3.3-1.5 3.3-3.3v-10.6c0-1.8-1.4-3.3-3.3-3.3h-10.3c-1.8 0-3.3 1.5-3.3 3.3v10.6c0 1.8 1.4 3.3 3.3 3.3zM331.2 496.8h10.3c1.8 0 3.3-1.4 3.3-3.3v-10.6c0-1.9-1.4-3.3-3.3-3.3h-10.3c-1.8 0-3.3 1.4-3.3 3.3v10.6c0 1.9 1.4 3.3 3.3 3.3zM331.2 470h10.3c1.8 0 3.3-1.4 3.3-3.3v-10.6c0-1.9-1.4-3.3-3.3-3.3h-10.3c-1.8 0-3.3 1.5-3.3 3.3v10.6c0 1.7 1.4 3.3 3.3 3.3zM331.2 443h10.3c1.8 0 3.3-1.5 3.3-3.3v-10.6c0-1.9-1.4-3.3-3.3-3.3h-10.3c-1.8 0-3.3 1.5-3.3 3.3v10.6c0 1.9 1.4 3.3 3.3 3.3zM227.5 145.3c61.5 0 111.5 50.1 111.5 111.5s-50.1 111.5-111.5 111.5S116 318.2 116 256.7s50-111.4 111.5-111.4m0-22C154 123.3 94.1 183 94.1 256.8c0 73.7 59.7 133.4 133.4 133.4S361 330.6 361 256.8s-59.8-133.5-133.5-133.5zM271.7 247.3H204v-23.1c0-6.5 2.3-12 6.9-16.7 4.6-4.6 10.1-6.9 16.7-6.9s12 2.3 16.7 6.9 6.9 10.1 6.9 16.7c0 1.5.6 3 1.8 4.2 1.2 1.2 2.5 1.8 4.2 1.8h5.8c1.5 0 3-.6 4.2-1.8s1.8-2.5 1.8-4.2c0-11.3-4-21.1-12.1-29-8.1-8.1-17.7-12.1-29-12.1s-21.1 4-29 12.1c-8.1 8.1-12.1 17.8-12.1 29v23.1h-3c-2.5 0-4.5.8-6.3 2.6-1.7 1.7-2.6 3.8-2.6 6.3V322c0 2.5.8 4.5 2.6 6.3 1.7 1.7 3.8 2.6 6.3 2.6h88.4c2.5 0 4.5-.8 6.3-2.6 1.7-1.7 2.6-3.8 2.6-6.3v-65.7c0-2.5-.8-4.5-2.6-6.3-2.3-1.7-4.3-2.7-6.8-2.7zm-37.1 43.2v17.3c0 3.5-2.9 6.3-6.3 6.3h-1.2c-3.5 0-6.3-2.9-6.3-6.3v-17.3c-3.7-2.3-6.2-6.4-6.2-11.1 0-7.3 5.8-13.1 13.1-13.1s13.1 5.8 13.1 13.1c-.2 4.6-2.6 8.6-6.2 11.1z"/></g></svg>