<svg xmlns="http://www.w3.org/2000/svg" viewBox="0 123.3 595.3 595.3" enable-background="new 0 123.3 595.3 595.3" width="40" height="40"><path fill="#006B8D" d="M551.8 298.7h43.5l-87-93.6v46.7c0 25.9 19.4 46.9 43.5 46.9zM457.9 496.1h10.2c1.8 0 3.3-1.4 3.3-3.3v-10.5c0-1.8-1.4-3.3-3.3-3.3h-10.2c-1.8 0-3.3 1.4-3.3 3.3v10.5c0 1.9 1.5 3.3 3.3 3.3zM359.4 438.4h80.7c1.8 0 3.3-1.5 3.3-3.3v-52.3c0-1.8-1.4-3.3-3.3-3.3h-80.7c-1.8 0-3.3 1.4-3.3 3.3v52.3c0 1.8 1.4 3.3 3.3 3.3zM457.9 523h10.2c1.8 0 3.3-1.5 3.3-3.3v-10.6c0-1.8-1.4-3.3-3.3-3.3h-10.2c-1.8 0-3.3 1.4-3.3 3.3v10.6c0 1.9 1.5 3.3 3.3 3.3zM457.9 469.3h10.2c1.8 0 3.3-1.4 3.3-3.3v-10.6c0-1.8-1.4-3.3-3.3-3.3h-10.2c-1.8 0-3.3 1.4-3.3 3.3V466c0 1.9 1.5 3.3 3.3 3.3zM359.4 515h80.7c1.8 0 3.3-1.4 3.3-3.3v-48.4c0-1.8-1.4-3.3-3.3-3.3h-80.7c-1.8 0-3.3 1.4-3.3 3.3v48.4c0 1.8 1.4 3.3 3.3 3.3zM457.9 388.6h10.2c1.8 0 3.3-1.4 3.3-3.3v-10.6c0-1.8-1.4-3.3-3.3-3.3h-10.2c-1.8 0-3.3 1.4-3.3 3.3v10.6c0 1.9 1.5 3.3 3.3 3.3zM457.9 442.4h10.2c1.8 0 3.3-1.5 3.3-3.3v-10.6c0-1.8-1.4-3.3-3.3-3.3h-10.2c-1.8 0-3.3 1.5-3.3 3.3v10.6c0 1.8 1.5 3.3 3.3 3.3zM457.9 415.5h10.2c1.8 0 3.3-1.5 3.3-3.3v-10.6c0-1.8-1.4-3.3-3.3-3.3h-10.2c-1.8 0-3.3 1.4-3.3 3.3v10.6c0 1.9 1.5 3.3 3.3 3.3zM331.2 415.5h10.2c1.8 0 3.3-1.5 3.3-3.3v-10.6c0-1.8-1.4-3.3-3.3-3.3h-10.2c-1.8 0-3.3 1.4-3.3 3.3v10.6c.1 1.9 1.6 3.3 3.3 3.3zM331.2 523h10.2c1.8 0 3.3-1.5 3.3-3.3v-10.6c0-1.8-1.4-3.3-3.3-3.3h-10.2c-1.8 0-3.3 1.4-3.3 3.3v10.6c.1 1.9 1.6 3.3 3.3 3.3zM331.2 496.1h10.2c1.8 0 3.3-1.4 3.3-3.3v-10.5c0-1.8-1.4-3.3-3.3-3.3h-10.2c-1.8 0-3.3 1.4-3.3 3.3v10.5c.1 1.9 1.6 3.3 3.3 3.3zM545.9 321.2c-27.1 0-60.3-34.6-60.3-63.5v-52.6H260.9c-31.3.2-56.7 25.6-56.7 56.9v399.9c0 31.3 25.4 56.7 56.7 56.7h277.6c31.3 0 56.7-25.4 56.7-56.7V321.2h-49.3zm-227.8 51.2c0-6 4.9-10.9 11-10.9h141.3c6 0 11 4.9 11 10.9v149.9c0 6-4.9 10.9-11 10.9H329.1c-6 0-11-4.9-11-10.9V372.4zm-34.9 262.9h-18.6v-19.6h18.6v19.6zm72.1-39.6v39.6h-17.9v-27.9c0-2.7-.1-5.1-.2-7-.1-1.9-.5-3.5-1.1-4.7-.6-1.2-1.5-2-2.7-2.6-1.2-.5-2.9-.8-5.1-.8-1.8 0-3.5.3-5.1 1.1-1.6.7-3.2 1.4-4.5 2.2v39.6h-17.9v-55.8h17.9v6.2c3.1-2.4 6-4.3 8.9-5.7 2.8-1.4 5.9-2 9.3-2 3.7 0 6.9.8 9.7 2.4s5 4.1 6.6 7.2c3.5-3 7-5.4 10.4-7.1 3.4-1.7 6.7-2.6 9.9-2.6 6 0 10.6 1.8 13.7 5.5 3.2 3.6 4.7 8.8 4.7 15.6v36.3H374v-27.9c0-2.8-.1-5.1-.2-7-.1-1.9-.5-3.4-1.1-4.6-.6-1.2-1.4-2-2.7-2.6-1.2-.5-3-.8-5.2-.8-1.5 0-3 .3-4.4.8-1.3.6-3 1.4-5.1 2.6zm111.5 10.9c0 4.6-.7 8.8-2.1 12.6-1.4 3.8-3.3 6.9-5.5 9.3-2.4 2.6-5.1 4.5-8.1 5.8-3 1.3-6.2 2-9.7 2-3.2 0-5.8-.3-8.1-1.1-2.2-.7-4.5-1.6-6.8-2.9v23.3h-18.1v-76.2h17.9v5.8c2.8-2.2 5.6-3.9 8.4-5.3 2.9-1.4 6.2-2 9.9-2 7 0 12.4 2.6 16.2 7.7 4.1 5.1 6 12.1 6 21zm-18.4.4c0-5.5-.9-9.4-2.8-11.8-1.8-2.4-4.8-3.7-8.8-3.7-1.7 0-3.4.3-5.2.8s-3.5 1.2-5.1 2.2v28.1c1.2.5 2.5.8 3.8.9 1.4.1 2.7.2 4 .2 4.7 0 8.3-1.4 10.6-4.1 2.3-2.9 3.5-7.1 3.5-12.6zm85.6 21.9c0 5.3-.7 9.7-2.2 13.2-1.5 3.5-3.6 6.4-6.2 8.4-2.7 2-5.9 3.5-9.7 4.5s-8.1 1.4-12.9 1.4c-3.9 0-7.7-.3-11.4-.7-3.7-.5-7-1.1-9.8-1.7v-14h2.2c2.2.9 4.9 1.6 8 2.4 3.2.7 6 1.1 8.5 1.1 3.3 0 6-.3 8.1-.9 2-.6 3.7-1.5 4.7-2.6 1.1-1.1 1.8-2.4 2.2-4.1.5-1.6.7-3.7.7-6v-1.1c-2.2 1.8-4.5 3.2-7.2 4.2-2.6 1.1-5.5 1.5-8.7 1.5-7.8 0-13.9-2.4-18.1-7.1-4.3-4.7-6.4-11.9-6.4-21.5 0-4.6.7-8.6 1.9-12 1.2-3.4 3.1-6.2 5.5-8.7 2.2-2.3 4.9-4.1 8.1-5.5 3.2-1.3 6.4-2 9.8-2 3 0 5.8.3 8.2 1.1 2.5.7 4.7 1.7 6.7 3l.7-2.5H534v49.6zm-17.9-11.2v-25.3c-1.1-.5-2.3-.8-3.7-1.1-1.5-.3-2.8-.4-4-.4-4.7 0-8.2 1.4-10.6 4.1-2.4 2.7-3.5 6.5-3.5 11.3 0 5.4 1 9.1 3 11.2 2 2.1 5 3.2 8.9 3.2 1.8 0 3.5-.3 5.3-.9 1.6-.4 3.2-1.1 4.6-2.1zM331.2 469.3h10.2c1.8 0 3.3-1.4 3.3-3.3v-10.6c0-1.8-1.4-3.3-3.3-3.3h-10.2c-1.8 0-3.3 1.4-3.3 3.3V466c.1 1.9 1.6 3.3 3.3 3.3zM331.2 388.6h10.2c1.8 0 3.3-1.4 3.3-3.3v-10.6c0-1.8-1.4-3.3-3.3-3.3h-10.2c-1.8 0-3.3 1.4-3.3 3.3v10.6c.1 1.9 1.6 3.3 3.3 3.3zM331.2 442.4h10.2c1.8 0 3.3-1.5 3.3-3.3v-10.6c0-1.8-1.4-3.3-3.3-3.3h-10.2c-1.8 0-3.3 1.5-3.3 3.3v10.6c.1 1.8 1.6 3.3 3.3 3.3z"/></svg>