<svg xmlns="http://www.w3.org/2000/svg" viewBox="0 123.3 595.3 595.3" enable-background="new 0 123.3 595.3 595.3" width="40" height="40"><path fill="#006B8D" d="M551.6 298.7h43.5l-86.9-93.4V252c.1 25.9 19.5 46.7 43.4 46.7zM545.8 321.3c-27.1 0-60.2-34.4-60.2-63.6v-52.5H377c5.6 16.2 8.7 33.6 8.7 51.6 0 87.2-70.7 157.8-157.8 157.8-8 0-16-.6-23.7-1.8v249c0 31.3 25.4 56.7 56.7 56.7h277.6c31.3 0 56.7-25.4 56.7-56.7V321.3h-49.4zm-90.6 193.4c-21.2 4.5-41.3-6-45-23.5-3.7-17.5 10.5-35.2 31.7-39.8 7.7-1.7 15.4-1.3 22 .7v-67.4l-75.3 15.8v99.2c0 .7-.1 1.4-.2 2-.2 15.4-13.5 29.6-32.3 33.7-21.2 4.5-41.3-6-45-23.5-3.7-17.4 10.5-35.2 31.7-39.8 7.7-1.7 15.4-1.3 22 .7v-82.1c0-5.6 3.9-10.5 9.4-11.7l99.3-21c.4-.1.7-.1 1.2-.1s.8-.1 1.2-.1c.1 0 .4 0 .5.1.6 0 1.2 0 1.8.1.4.1.7.2 1.1.4.4.2.7.2 1.1.4.4.1.8.4 1.2.6.2.1.6.2.8.5.4.2.6.5 1 .7.2.2.6.5.8.7s.5.6.7.8c.2.2.5.6.7.8.2.4.5.8.7 1.2.1.2.4.6.5.8.2.6.5 1.2.6 1.9 0 .1.1.2.1.4.1.4.1.8.1 1.3.2.6.2 1 .2 1.4v108.8c0 .7-.1 1.4-.2 2-.4 15.7-13.6 30-32.4 34zM302.4 635.9h-18.6v-19.5h18.6v19.5zm74.7-28c0 9.2-2.7 16.4-8.1 21.7-5.4 5.2-12.9 8-22.6 8-9.6 0-17.3-2.6-22.6-8-5.4-5.2-8.1-12.5-8.1-21.7 0-9.3 2.7-16.5 8.1-21.8 5.4-5.3 12.9-7.9 22.5-7.9 9.8 0 17.3 2.6 22.6 8 5.6 5.3 8.2 12.6 8.2 21.7zm-22 13.6c1.2-1.4 2-3.1 2.6-5.1.6-2 .8-4.8.8-8.3 0-3.3-.4-6.1-1-8.2-.6-2.3-1.4-4-2.5-5.4-1.1-1.4-2.4-2.4-3.8-2.9-1.5-.6-3.1-.8-4.9-.8s-3.2.2-4.6.7c-1.3.5-2.6 1.4-3.8 2.7-1.1 1.3-2 3.1-2.6 5.4-.6 2.3-1 5.1-1 8.5 0 3.1.2 5.7.8 8 .6 2.3 1.4 4 2.5 5.4 1.1 1.3 2.4 2.3 3.8 2.9 1.4.6 3.2 1 5 1 1.7 0 3.2-.2 4.6-.8 1.4-.6 3.1-1.8 4.1-3.1zm89.4 8c0 5.2-.7 9.6-2.3 13.2-1.5 3.6-3.6 6.4-6.3 8.5-2.7 2-6 3.6-9.8 4.4-3.8 1-8.1 1.3-12.9 1.3-3.9 0-7.7-.2-11.4-.7-3.7-.5-7-1.1-9.8-1.7v-13.9h2.1c2.1.8 4.9 1.7 8 2.4 3.1.7 6 1.1 8.5 1.1 3.3 0 6-.4 8.1-1 2-.6 3.7-1.4 4.8-2.6 1.1-1.1 1.8-2.4 2.3-4 .5-1.7.7-3.7.7-6v-1.1c-2.1 1.8-4.5 3.1-7.1 4.2-2.6 1.1-5.5 1.5-8.7 1.5-7.9 0-13.8-2.4-18.1-7-4.3-4.8-6.3-11.9-6.3-21.5 0-4.6.6-8.6 1.9-11.9s3.1-6.3 5.5-8.8c2.1-2.4 4.9-4.2 8.1-5.5 3.2-1.3 6.4-1.9 9.8-1.9 3 0 5.7.4 8.2 1.1 2.5.7 4.8 1.7 6.8 3l.6-2.5h17.4l-.1 49.4zm-18.1-11.2v-25.4c-1.1-.5-2.3-.7-3.8-1.1-1.5-.2-2.9-.4-4-.4-4.6 0-8.2 1.3-10.6 4-2.4 2.7-3.6 6.4-3.6 11.3 0 5.4 1 9.2 3 11.2 2 2.1 5 3.2 8.9 3.2 1.8 0 3.6-.2 5.2-.8 1.9-.3 3.5-1 4.9-2zm89.3 11.2c0 5.2-.7 9.6-2.3 13.2-1.5 3.6-3.6 6.4-6.3 8.5-2.7 2.1-6 3.6-9.8 4.4-3.8 1-8.1 1.3-12.9 1.3-3.9 0-7.7-.2-11.4-.7-3.7-.5-7-1.1-9.8-1.7v-13.9h2.1c2.1.8 4.9 1.7 8 2.4s6 1.1 8.5 1.1c3.3 0 6-.4 8.1-1 2-.6 3.7-1.4 4.8-2.6 1.1-1.1 1.8-2.4 2.3-4 .5-1.7.7-3.7.7-6v-1.1c-2.1 1.8-4.5 3.1-7.1 4.2-2.6 1.1-5.5 1.5-8.7 1.5-7.9 0-13.8-2.4-18.1-7-4.3-4.8-6.3-11.9-6.3-21.5 0-4.6.6-8.6 1.9-11.9 1.3-3.3 3.1-6.3 5.5-8.8 2.1-2.4 4.9-4.2 8.1-5.5s6.4-1.9 9.8-1.9c3 0 5.7.4 8.2 1.1 2.5.7 4.8 1.7 6.8 3l.6-2.5h17.4v49.4h-.1zm-17.9-11.2v-25.4c-1.1-.5-2.3-.7-3.8-1.1-1.5-.2-2.9-.4-4-.4-4.6 0-8.2 1.3-10.6 4-2.4 2.7-3.6 6.4-3.6 11.3 0 5.4 1 9.2 3 11.2 2 2.1 5 3.2 8.9 3.2 1.8 0 3.6-.2 5.2-.8 1.8-.3 3.5-1 4.9-2zM227.9 145.2c61.4 0 111.5 50 111.5 111.5s-50 111.5-111.5 111.5-111.5-50-111.5-111.5 49.9-111.5 111.5-111.5m0-21.9c-73.6 0-133.4 59.7-133.4 133.5 0 73.7 59.6 133.4 133.4 133.4s133.4-59.6 133.4-133.4-59.8-133.5-133.4-133.5zM272 247.3h-67.7v-23.1c0-6.5 2.3-12 6.9-16.7 4.6-4.6 10.1-6.9 16.7-6.9s12 2.3 16.7 6.9c4.5 4.5 6.8 10 6.9 16.4v23.9c0 1.5.6 3 1.8 4.2 1.2 1.2 2.5 1.8 4.2 1.8h5.8c1.5 0 3-.6 4.2-1.8 1.2-1.2 1.8-2.5 1.8-4.2v-24c-.1-11.2-4-20.8-12.1-28.8-8.1-8.1-17.7-12.1-29-12.1s-21.1 4-29 12.1c-8.1 8.1-12.1 17.7-12.1 29v23.1h-3c-2.5 0-4.5.8-6.3 2.6-1.7 1.7-2.6 3.8-2.6 6.3v65.7c0 2.5.8 4.5 2.6 6.3 1.7 1.7 3.8 2.6 6.3 2.6h88.4c2.5 0 4.5-.8 6.3-2.6 1.7-1.7 2.6-3.8 2.6-6.3V256c0-2.5-.8-4.5-2.6-6.3-2.3-1.5-4.3-2.4-6.8-2.4zm-37.1 43.1v17.3c0 3.5-2.9 6.3-6.3 6.3h-1.2c-3.5 0-6.3-2.9-6.3-6.3v-17.3c-3.7-2.3-6.2-6.4-6.2-11.1 0-7.3 5.8-13.1 13.1-13.1s13.1 5.8 13.1 13.1c-.2 4.6-2.6 8.7-6.2 11.1z"/></svg>