<svg xmlns="http://www.w3.org/2000/svg" viewBox="0 123.3 595.3 595.3" enable-background="new 0 123.3 595.3 595.3" width="40" height="40"><g fill="#006B8D"><path d="M551.8 298.6h43.5l-86.9-93.4V252c0 25.8 19.4 46.6 43.4 46.6zM490 591.3c-4.6 0-8.2 1.3-10.6 4-2.4 2.7-3.6 6.4-3.6 11.3 0 5.4 1 9.2 3 11.2 2 2.1 5 3.2 8.9 3.2 1.8 0 3.6-.2 5.2-.8s3.3-1.3 4.8-2.3v-25.4c-1.1-.5-2.3-.7-3.8-1.1-1.4.1-2.7-.1-3.9-.1zM485.6 257.7v-52.5h-.1c0-.1.1-.1.1-.1H261c-31.3.1-56.7 25.5-56.7 56.8v399.9c0 31.3 25.4 56.7 56.7 56.7h277.6c31.3 0 56.7-25.4 56.7-56.7V321.1H546c-27.3 0-60.4-34.4-60.4-63.4zm-183.1 378h-18.6v-19.6h18.6v19.6zm66.7-6.1c-5.4 5.2-12.9 8-22.6 8-9.6 0-17.3-2.6-22.6-8-5.4-5.2-8.1-12.5-8.1-21.7 0-9.3 2.7-16.5 8.1-21.8 5.4-5.2 12.9-7.9 22.5-7.9 9.8 0 17.3 2.6 22.6 8 5.4 5.4 8 12.5 8 21.8.1 9.3-2.5 16.2-7.9 21.6zm75.4-.3c0 5.2-.7 9.6-2.3 13.2-1.5 3.6-3.6 6.4-6.3 8.5-2.7 2-6 3.6-9.8 4.4-3.8 1-8.1 1.3-12.9 1.3-3.9 0-7.7-.2-11.4-.7-3.7-.5-7-1.1-9.8-1.7v-13.9h2.1c2.1.8 4.9 1.7 8 2.4 3.1.7 6 1.1 8.5 1.1 3.3 0 6-.4 8.1-1 2-.6 3.7-1.4 4.8-2.6 1.1-1.1 1.8-2.4 2.3-4 .5-1.7.7-3.7.7-6v-1.1c-2.1 1.8-4.5 3.1-7.1 4.2-2.6 1.1-5.5 1.5-8.7 1.5-7.9 0-13.8-2.4-18.1-7-4.3-4.8-6.3-11.9-6.3-21.5 0-4.6.6-8.6 1.9-11.9s3.1-6.3 5.5-8.8c2.1-2.4 4.9-4.2 8.1-5.5 3.2-1.3 6.4-1.9 9.8-1.9 3 0 5.7.4 8.2 1.1 2.5.7 4.8 1.7 6.8 3l.6-2.5h17.4l-.1 49.4zm-34.3-138.2c-3.7-17.5 10.5-35.2 31.7-39.8 7.7-1.7 15.4-1.3 22 .7v-67.2l-75.2 15.8v99.2c0 .7-.1 1.4-.2 2-.2 15.4-13.5 29.6-32.3 33.7-21.2 4.5-41.3-6-45-23.5-3.7-17.4 10.5-35.2 31.7-39.8 7.7-1.7 15.4-1.3 22 .7v-82c0-5.6 3.9-10.5 9.4-11.7l99.3-21c.4-.1.7-.1 1.2-.1s.8-.1 1.2-.1c.1 0 .4 0 .5.1.6 0 1.2 0 1.8.1.4.1.7.2 1.1.4.4.1.7.2 1.1.4l1.2.6c.2.1.6.2.8.5.4.2.6.5 1 .7.2.2.6.5.8.7s.5.6.7.8c.2.2.5.6.7.8.2.4.5.8.7 1.2.1.2.4.6.5.8.2.6.5 1.2.6 1.9 0 .1.1.2.1.4.1.4.1.8.1 1.3.2.6.2 1 .2 1.4V479c0 .7-.1 1.4-.2 2-.2 15.4-13.5 29.6-32.3 33.7-21.4 4.5-41.5-6-45.2-23.6zm105.5 138.2c0 5.2-.7 9.6-2.3 13.2-1.5 3.6-3.6 6.4-6.3 8.5-2.7 2-6 3.6-9.8 4.4-3.8 1-8.1 1.3-12.9 1.3-3.9 0-7.7-.2-11.4-.7-3.7-.5-7-1.1-9.8-1.7v-13.9h2.1c2.1.8 4.9 1.7 8 2.4 3.1.7 6 1.1 8.5 1.1 3.3 0 6-.4 8.1-1 2-.6 3.7-1.4 4.8-2.6 1.1-1.1 1.8-2.4 2.3-4 .5-1.7.7-3.7.7-6v-1.1c-2.1 1.8-4.5 3.1-7.1 4.2-2.6 1.1-5.5 1.5-8.7 1.5-7.9 0-13.8-2.4-18.1-7-4.3-4.8-6.3-11.9-6.3-21.5 0-4.6.6-8.6 1.9-11.9 1.3-3.3 3.1-6.3 5.5-8.8 2.1-2.4 4.9-4.2 8.1-5.5 3.2-1.3 6.4-1.9 9.8-1.9 3 0 5.7.4 8.2 1.1s4.8 1.7 6.8 3l.6-2.5h17.4v49.4h-.1zM418.7 591.3c-4.6 0-8.2 1.3-10.6 4s-3.6 6.4-3.6 11.3c0 5.4 1 9.2 3 11.2 2 2.1 5 3.2 8.9 3.2 1.8 0 3.6-.2 5.2-.8 1.6-.6 3.3-1.3 4.8-2.3v-25.4c-1.1-.5-2.3-.7-3.8-1.1-1.3.1-2.7-.1-3.9-.1zM355.3 594.3c-1.1-1.3-2.4-2.4-3.8-2.9-1.5-.6-3.1-.8-4.9-.8s-3.2.2-4.6.7c-1.3.5-2.6 1.4-3.8 2.7-1.1 1.3-2 3.1-2.6 5.4-.6 2.3-1 5.1-1 8.5 0 3.1.2 5.7.8 8 .6 2.3 1.4 4 2.5 5.4 1.1 1.3 2.4 2.3 3.8 2.9s3.2 1 5 1c1.7 0 3.2-.2 4.6-.8 1.4-.6 2.7-1.4 3.8-2.7 1.2-1.4 2-3.1 2.6-5.1.6-2 .8-4.8.8-8.3 0-3.3-.4-6.1-1-8.2-.3-2.7-1.1-4.5-2.2-5.8z"/></g></svg>