<svg xmlns="http://www.w3.org/2000/svg" viewBox="0 123.3 595.3 595.3" enable-background="new 0 123.3 595.3 595.3" width="40" height="40"><path fill="#006B8D" d="M551.7 298.7h43.5l-86.9-93.4V252c0 25.9 19.5 46.7 43.4 46.7z"/><path d="M344.3 514.3l1.8-6.8c25.5-12.4 57.5-16.4 80.7-17.5 11.9 8.9 23.8 17 35.2 24.2l.4.2c.5.2 5.6 2.7 11.4 2.7 8.5 0 14.6-5.1 16.9-14.2l.1-.6c.6-5.1-.7-9.8-3.8-13.3-6.4-7.6-18.6-8.3-19.6-8.3-.4 0-9.8-.8-24-.8-4.5 0-9 .1-13.5.2-28.3-21.2-51.6-42.5-64-54.4.2-1.3.4-2.3.5-3.1 1.7-17.3-.1-28.9-5.4-34.6-3.5-3.8-8.5-5-13.7-3.6-3.2.8-9.3 3.9-11.2 10.4-2.1 7 1.3 15.6 10.2 25.6.1.1 3.2 3.3 8.7 8.7-3.6 17.1-13 54.1-17.5 71.9-10.7 5.7-19.6 12.6-26.5 20.5l-.5.5-.2.6c-.7 1.4-4 9.3-1.5 15.5 1.2 2.7 3.3 4.9 6.3 6l.8.2s.7.1 2 .1c5.4-.3 19.1-3.2 26.4-30.1zm98.9-24.6c13.9 0 23.1.8 23.5.8 2.4.1 9.6 1.2 12.7 4.9 1.2 1.4 1.7 3.2 1.4 5.5-1.5 5.7-4.4 6.4-7.1 6.4-3.1 0-6.1-1.3-6.8-1.7-7.9-4.9-15.8-10.2-23.9-16 .1.1.1.1.2.1zm-89.7-76.3c-8.6-9.6-8.5-14.4-8-16 .8-2.6 4.3-3.7 4.3-3.7 1.7-.5 2.7-.5 3.7.6 2.1 2.4 3.9 9.4 3.1 22.3-2-2-3.1-3.2-3.1-3.2zm-4.1 81.5c4.4-16.9 10.6-41.7 14.2-57.6l.1.1v-.1c11.5 10.8 29.3 26.9 50.6 43.5l-.2.1.4.2c-20 1.7-43.9 5.7-65.2 14.4v-.6zm-31.5 39.6c-.1-.1-.1-.1-.1-.2-.6-1.3.1-4.5 1.1-6.9 4.2-4.6 9.2-8.9 15-12.7-5.7 18.1-13.8 19.7-16 19.8z" fill="none"/><path fill="#006B8D" d="M414 480.8l.2-.1c-21.3-16.5-39.1-32.6-50.6-43.5v.1l-.1-.1c-3.6 16-9.8 40.7-14.2 57.6l-.1.6c21.2-8.7 45.1-12.7 65.2-14.4l-.4-.2zM353.5 394.4c-1-1.1-2-1.1-3.7-.6 0 0-3.5 1.1-4.3 3.7-.5 1.5-.6 6.3 8 16 0 0 1.1 1.2 3.1 3.2.9-12.9-.9-19.9-3.1-22.3zM318.9 527.4c-1 2.4-1.7 5.6-1.1 6.9 0 .1 0 .1.1.2 2.1-.1 10.2-1.7 16-19.9-5.8 3.8-10.8 8.1-15 12.8zM473.7 507.4c2.7 0 5.6-.7 7.1-6.4.2-2.3-.2-4-1.4-5.5-3.1-3.7-10.4-4.8-12.7-4.9-.4 0-9.5-.8-23.5-.8h-.2c8.1 5.7 16.1 11.1 23.9 16 .7.3 3.7 1.6 6.8 1.6zM433.7 591.6c-4.6 0-8.2 1.4-10.6 4.4s-3.6 7-3.6 12.3c0 5.5 1 9.4 2.9 11.9s4.9 3.7 9 3.7c1.7 0 3.3-.4 5.1-1 1.9-.6 3.5-1.4 4.9-2.4v-27.3c-1.3-.5-2.6-1-3.9-1.2-1.4-.2-2.6-.4-3.8-.4zM362.2 592.1c-1.7 0-3.5.2-5.2.7-1.8.5-3.5 1.2-5.1 2.3v28c1.2.5 2.5.7 3.8 1 1.3.1 2.7.2 4 .2 4.8 0 8.2-1.4 10.6-4.2 2.3-2.7 3.5-6.9 3.5-12.5 0-5.5-1-9.4-2.7-11.8-2-2.5-4.9-3.7-8.9-3.7zM545.8 321.3c-27.1 0-60.2-34.5-60.2-63.6v-52.5H377c5.6 16.2 8.7 33.6 8.7 51.6 0 87.2-70.7 157.8-157.8 157.8-8 0-16-.6-23.7-1.8v249c0 31.3 25.4 56.7 56.7 56.7h277.6c31.3 0 56.7-25.4 56.7-56.7V321.3h-49.4zM316.4 635.9h-18.6v-19.5h18.6v19.5zm-.6-91.9l-.8-.2c-3-1.1-5.1-3.2-6.3-6-2.5-6.2.8-14 1.5-15.5l.2-.6.5-.5c6.9-7.9 15.8-14.8 26.5-20.5 4.5-17.7 13.9-54.6 17.5-71.9-5.5-5.4-8.6-8.6-8.7-8.7-8.9-10-12.4-18.6-10.2-25.6 1.9-6.4 8-9.5 11.2-10.4 5.2-1.4 10.2-.2 13.7 3.6 5.2 5.7 7 17.4 5.4 34.6-.1.8-.2 1.8-.5 3.1 12.4 11.9 35.6 33.2 64 54.4 4.4-.1 8.9-.2 13.5-.2 14.3 0 23.7.8 24 .8 1.1 0 13.2.7 19.6 8.3 3.1 3.6 4.4 8.2 3.8 13.3l-.1.6c-2.3 9-8.5 14.2-16.9 14.2-5.8 0-11-2.5-11.4-2.7l-.4-.2c-11.4-7.1-23.3-15.2-35.2-24.2-23.1 1.1-55.1 5.1-80.7 17.5l-1.8 6.8c-7.3 26.9-21 29.9-26.4 29.9-1.3.2-2 .1-2 .1zm74.2 75.8c-1.4 3.8-3.2 6.9-5.5 9.3-2.4 2.6-5.1 4.5-8.1 5.8-3 1.3-6.2 2-9.6 2-3.2 0-5.8-.4-8.1-1.1-2.3-.7-4.5-1.7-6.8-2.9v23.2h-18v-76.3h17.9v5.8c2.7-2.1 5.6-3.9 8.5-5.4 2.9-1.3 6.2-2 9.9-2 6.9 0 12.4 2.5 16.2 7.6 3.8 5.2 5.8 12.1 5.8 21.1 0 5-.7 9.1-2.2 12.9zm69.3 16.1h-18v-5.8c-3.1 2.5-6 4.4-8.6 5.6-2.7 1.2-5.7 1.8-9.3 1.8-6.8 0-12.1-2.6-16.3-7.9-4-5.2-6.1-12.3-6.1-21.2 0-4.8.7-8.9 2-12.6 1.4-3.7 3.2-6.8 5.6-9.4 2.3-2.5 5-4.4 8.2-5.8s6.4-2 9.6-2c3.3 0 6.1.4 8.2 1.1s4.3 1.7 6.5 2.7v-23.7h18V636h.2zm53-64.1h-1.2c-.8-.2-1.8-.5-3.1-.8-1.3-.3-2.6-.5-4-.5-3.5 0-5.8.6-7.1 1.9-1.3 1.3-1.9 3.7-1.9 7.3v.5h13.8v12h-13.3v43.7h-18v-43.7h-7.6v-12.1h7.6v-1.5c0-6.8 1.8-11.9 5.5-15.4 3.6-3.5 9.2-5.1 16.4-5.1 2.6 0 5 .1 7.1.2 2.1.2 4 .5 5.7.7v12.8h.1zM228 145.2c61.4 0 111.5 50 111.5 111.5s-50 111.5-111.5 111.5-111.5-50-111.5-111.5S166.4 145.2 228 145.2m0-21.9c-73.7 0-133.4 59.6-133.4 133.4 0 73.7 59.6 133.4 133.4 133.4s133.4-59.5 133.4-133.3c-.1-73.7-59.8-133.5-133.4-133.5zM272.1 247.3h-67.7v-23.1c0-6.5 2.3-12 6.9-16.7 4.6-4.6 10.1-6.9 16.7-6.9s12 2.3 16.7 6.9c4.5 4.5 6.8 10 6.9 16.4v23.9c0 1.5.6 3 1.8 4.2 1.2 1.2 2.5 1.8 4.2 1.8h5.8c1.5 0 3-.6 4.2-1.8 1.2-1.2 1.8-2.5 1.8-4.2v-24c-.1-11.2-4-20.8-12.1-28.8-8.1-8.1-17.7-12.1-29-12.1s-21.1 4-29 12.1c-8.1 8.1-12.1 17.7-12.1 29v23.1h-3c-2.5 0-4.5.8-6.3 2.6-1.7 1.7-2.6 3.8-2.6 6.3v65.7c0 2.5.8 4.5 2.6 6.3 1.7 1.7 3.8 2.6 6.3 2.6h88.1c2.5 0 4.5-.8 6.3-2.6 1.7-1.7 2.6-3.8 2.6-6.3V256c0-2.5-.8-4.5-2.6-6.3-2-1.5-4-2.4-6.5-2.4zm-37.2 43.1v17.3c0 3.5-2.9 6.3-6.3 6.3h-1.2c-3.5 0-6.3-2.9-6.3-6.3v-17.3c-3.7-2.3-6.2-6.4-6.2-11.1 0-7.3 5.8-13.1 13.1-13.1s13.1 5.8 13.1 13.1c-.1 4.6-2.5 8.7-6.2 11.1z"/></svg>