<svg xmlns="http://www.w3.org/2000/svg" viewBox="0 123.3 595.3 595.3" enable-background="new 0 123.3 595.3 595.3" width="40" height="40"><g><path fill="#006B8D" d="M228.1 145.2c61.5 0 111.4 50 111.4 111.4S289.4 368 228.1 368s-111.4-49.9-111.4-111.4 49.8-111.4 111.4-111.4m0-21.9c-73.5 0-133.3 59.7-133.3 133.4 0 73.6 59.6 133.3 133.3 133.3s133.3-59.6 133.3-133.3-59.7-133.4-133.3-133.4zM272.2 247.2h-67.6v-23.1c0-6.5 2.3-12 6.9-16.7 4.6-4.6 10.1-6.9 16.7-6.9s12 2.3 16.7 6.9c4.5 4.5 6.8 10 6.9 16.4 0 .1 0-.1 0 0 0 1.5.6 3 1.8 4.2 1.2 1.2 2.5 1.8 4.2 1.8h5.8c1.5 0 3-.6 4.2-1.8 1.2-1.2 1.8-2.5 1.8-4.2 0-.1 0 .1 0 0-.1-11.2-4-20.8-12.1-28.8-8.1-8.1-17.7-12.1-29-12.1s-21.1 4-29 12.1c-8.1 8.1-12.1 17.7-12.1 29v23.2h-3c-2.5 0-4.5.8-6.3 2.6-1.7 1.7-2.6 3.8-2.6 6.3v65.7c0 2.5.8 4.5 2.6 6.3 1.7 1.7 3.8 2.6 6.3 2.6h88.4c2.5 0 4.5-.8 6.3-2.6 1.7-1.7 2.6-3.8 2.6-6.3V256c0-2.5-.8-4.5-2.6-6.3-2.4-1.6-4.4-2.5-6.9-2.5zm-37.1 43.1v17.3c0 3.5-2.9 6.3-6.3 6.3h-1.2c-3.5 0-6.3-2.9-6.3-6.3v-17.3c-3.7-2.3-6.2-6.4-6.2-11.1 0-7.3 5.8-13.1 13.1-13.1s13.1 5.8 13.1 13.1c-.2 4.7-2.6 8.7-6.2 11.1zM551.6 299h43.5l-86.8-93.5v46.7c-.1 26 19.2 46.8 43.3 46.8z"/><g fill="#006B8D"><path d="M316.9 471l44.4-51.5c3.7-4.3 10.3-4.3 13.8.1l47.5 56.7 24-24c3.4-3.4 8.9-3.6 12.5-.3l23.8 21.7v-87.8H319l-2.1 1.5V471zm131.2-70.1c9.2 0 16.6 7.5 16.6 16.6 0 9.2-7.5 16.6-16.6 16.6-9.2 0-16.6-7.5-16.6-16.6 0-9.1 7.5-16.6 16.6-16.6zM545.7 321.5c-27.1 0-60.2-34.5-60.2-63.6v-52.5H377c5.6 16.2 8.7 33.6 8.7 51.6 0 46.2-19.9 87.8-51.5 116.6H483c6.6 0 12.1 5.5 12.1 12.1v123.7h-.2c0 6.6-5.5 12.1-12.1 12.1H316.9c-6.6 0-12.1-5.5-12.1-12.1l.1-114.8c-22.8 12.7-48.9 20-76.9 20-8 0-16-.6-23.7-1.8v248.8c0 31.3 25.4 56.7 56.7 56.7h277.5c31.3 0 56.7-25.4 56.7-56.7V321.5h-49.5zm-243.8 315h-18.5V617h18.5v19.5zm73.5-16c-1.3 3.8-3.2 6.9-5.5 9.3-2.4 2.5-5 4.5-8.1 5.9s-6.2 1.9-9.7 1.9c-3.1 0-5.9-.3-8.1-1-2.2-.7-4.5-1.7-6.7-2.9V657h-17.9v-76.2h17.9v5.8c2.8-2.2 5.5-4 8.4-5.3 2.9-1.3 6.1-2 9.8-2 7 0 12.4 2.5 16.1 7.7 3.8 5.2 5.8 12.1 5.8 21.1.1 4.5-.5 8.7-2 12.4zm71 16h-17.9v-27.7c0-2.3-.2-4.5-.3-6.7-.3-2.3-.7-3.9-1.2-5-.7-1.3-1.7-2.1-2.9-2.7-1.2-.6-3-.8-5.3-.8-1.7 0-3.3.3-5 .8s-3.4 1.3-5.5 2.5v39.4h-17.9v-55.7h17.8v6.1c3.1-2.5 6.2-4.4 9.2-5.7 2.9-1.3 6.1-1.9 9.8-1.9 6 0 10.7 1.8 14.1 5.2 3.4 3.4 5 8.7 5 15.7v36.5zm68.3 6.8c-1.5 3.5-3.5 6.4-6.2 8.4s-5.9 3.5-9.8 4.5c-3.8.9-8.1 1.3-12.8 1.3-3.9 0-7.7-.3-11.4-.8-3.8-.4-7.1-1-9.8-1.7v-13.9h2.2c2.2.8 4.9 1.7 7.9 2.4 3.1.8 5.9 1 8.4 1 3.3 0 6-.3 8.1-.9 2-.6 3.6-1.5 4.7-2.6 1-1 1.8-2.4 2.3-4 .4-1.7.8-3.6.8-6v-1c-2.2 1.8-4.5 3.1-7.1 4.1-2.6 1-5.5 1.5-8.7 1.5-7.8 0-13.8-2.4-18.1-7.1-4.2-4.6-6.4-11.9-6.4-21.4 0-4.6.7-8.6 1.9-11.9 1.3-3.4 3.1-6.2 5.5-8.7 2.2-2.3 4.9-4.1 8.1-5.4 3.2-1.3 6.5-1.9 9.8-1.9 3 0 5.7.3 8.2 1 2.4.8 4.7 1.7 6.7 2.9l.7-2.5H517v49.3h.1c-.3 5.5-.9 9.8-2.4 13.4zM347.7 592.8c-1.7 0-3.4.3-5.2.8-1.8.5-3.4 1.3-5.1 2.3v28c1.2.4 2.4.8 3.8.9 1.3.2 2.7.2 4 .2 4.7 0 8.2-1.3 10.5-4.1 2.3-2.9 3.4-7 3.4-12.5 0-5.4-.9-9.3-2.8-11.8-1.7-2.5-4.6-3.8-8.6-3.8zM491.3 592.4c-4.6 0-8.2 1.3-10.5 4-2.4 2.7-3.4 6.5-3.4 11.3 0 5.4 1 9.1 3 11.3 1.9 2.1 5 3.1 8.8 3.1 1.8 0 3.5-.3 5.2-.8 1.6-.7 3.1-1.3 4.6-2.3v-25.2c-1-.4-2.3-.8-3.8-1-1.5-.3-2.7-.4-3.9-.4z"/></g></g></svg>