<svg xmlns="http://www.w3.org/2000/svg" viewBox="0 123.3 595.3 595.3" enable-background="new 0 123.3 595.3 595.3" width="40" height="40"><path fill="#006B8D" d="M228.1 145.2c61.5 0 111.4 50 111.4 111.4S289.4 368 228.1 368s-111.4-49.9-111.4-111.4 49.8-111.4 111.4-111.4m0-21.9c-73.5 0-133.3 59.7-133.3 133.4 0 73.6 59.6 133.3 133.3 133.3s133.3-59.6 133.3-133.3-59.7-133.4-133.3-133.4zM272.2 247.2h-67.6v-23.1c0-6.5 2.3-12 6.9-16.7 4.6-4.6 10.1-6.9 16.7-6.9s12 2.3 16.7 6.9c4.5 4.5 6.8 10 6.9 16.4 0 .1 0-.1 0 0 0 1.5.6 3 1.8 4.2 1.2 1.2 2.5 1.8 4.2 1.8h5.8c1.5 0 3-.6 4.2-1.8 1.2-1.2 1.8-2.5 1.8-4.2 0-.1 0 .1 0 0-.1-11.2-4-20.8-12.1-28.8-8.1-8.1-17.7-12.1-29-12.1s-21.1 4-29 12.1c-8.1 8.1-12.1 17.7-12.1 29v23.2h-3c-2.5 0-4.5.8-6.3 2.6-1.7 1.7-2.6 3.8-2.6 6.3v65.7c0 2.5.8 4.5 2.6 6.3 1.7 1.7 3.8 2.6 6.3 2.6h88.4c2.5 0 4.5-.8 6.3-2.6 1.7-1.7 2.6-3.8 2.6-6.3V256c0-2.5-.8-4.5-2.6-6.3-2.4-1.6-4.4-2.5-6.9-2.5zm-37.1 43.1v17.3c0 3.5-2.9 6.3-6.3 6.3h-1.2c-3.5 0-6.3-2.9-6.3-6.3v-17.3c-3.7-2.3-6.2-6.4-6.2-11.1 0-7.3 5.8-13.1 13.1-13.1s13.1 5.8 13.1 13.1c-.2 4.7-2.6 8.7-6.2 11.1zM551.6 299h43.5l-86.8-93.5v46.7c-.1 26 19.2 46.8 43.3 46.8z"/><g fill="#006B8D"><path d="M451.8 477.1v15.7h15.7c-.1-8.7-7.1-15.7-15.7-15.7zM462 450.7v-33.4h-27v36.3h27zM463.5 449.1h3.1v-36.4h-27v3h23.9zM449.8 479.1c-8.9 0-16.1 7.5-15.6 16.6.4 7.8 6.8 14.4 14.8 14.8 9 .5 16.5-6.7 16.5-15.6h-15.6v-15.8zM545.7 321.5c-27.1 0-60.2-34.5-60.2-63.6v-52.5H377c5.6 16.2 8.7 33.6 8.7 51.6 0 87.1-70.6 157.7-157.7 157.7-8 0-16-.6-23.7-1.8v248.8c0 31.3 25.4 56.7 56.7 56.7h277.5c31.3 0 56.7-25.4 56.7-56.7V321.5h-49.5zm-125.4 81h60.4v123.7h-60.4V402.5zm-100.4-.4l92.5-17.8v160.3l-92.5-17.8V402.1zm-12.7 233.3h-18.7v-19.6h18.7v19.6zm76-28.7c0 4.6-.7 8.8-2.1 12.6-1.4 3.8-3.3 6.9-5.5 9.3-2.4 2.6-5.1 4.5-8.1 5.9-3 1.3-6.2 2-9.7 2-3.2 0-5.9-.3-8.1-1-2.2-.7-4.5-1.6-6.8-2.9V656h-18v-76.5h17.8v5.8c2.8-2.2 5.5-4 8.4-5.3 2.9-1.3 6.1-2 9.9-2 7 0 12.4 2.5 16.2 7.7 4 5 6 12.1 6 21zm-18.5.4c0-5.5-.9-9.4-2.8-11.9s-4.8-3.7-8.8-3.7c-1.7 0-3.4.3-5.2.8s-3.5 1.3-5.1 2.2v28.1c1.2.5 2.4.8 3.9.9 1.3.2 2.7.2 4 .2 4.7 0 8.2-1.3 10.6-4.1 2.2-2.7 3.4-6.9 3.4-12.5zm89.8-.4c0 4.6-.7 8.8-2.1 12.6-1.4 3.8-3.3 6.9-5.5 9.3-2.4 2.6-5.1 4.5-8.1 5.9-3 1.3-6.2 2-9.7 2-3.2 0-5.9-.3-8.1-1s-4.5-1.6-6.8-2.9V656h-18v-76.5h18v5.8c2.8-2.2 5.5-4 8.4-5.3 2.9-1.3 6.1-2 9.9-2 7 0 12.4 2.5 16.2 7.7 3.8 5 5.8 12.1 5.8 21zm-18.4.4c0-5.5-.9-9.4-2.8-11.9-1.8-2.4-4.8-3.7-8.8-3.7-1.7 0-3.4.3-5.2.8-1.8.5-3.5 1.3-5.1 2.2v28.1c1.2.5 2.4.8 3.9.9 1.3.2 2.7.2 4 .2 4.7 0 8.2-1.3 10.6-4.1 2.2-2.7 3.4-6.9 3.4-12.5zm80 10.6c0 5.8-2.6 10.4-7.7 14-5.2 3.5-12.3 5.3-21.3 5.3-5 0-9.5-.5-13.5-1.4-4-.9-7.3-1.9-9.8-3.1v-14.7h1.7c.9.7 1.9 1.3 3.1 2.1 1.2.8 2.9 1.5 5 2.4 1.8.8 4 1.4 6.3 1.9 2.4.6 4.9.8 7.6.8 3.5 0 6.1-.4 7.8-1.2 1.7-.8 2.5-1.9 2.5-3.4 0-1.3-.5-2.4-1.5-2.9-1-.6-2.9-1.2-5.7-1.8-1.3-.3-3.1-.6-5.4-1-2.3-.3-4.4-.8-6.2-1.3-5-1.3-8.8-3.4-11.3-6.2-2.4-2.8-3.7-6.3-3.7-10.5 0-5.4 2.5-9.8 7.7-13.5 5.1-3.5 12.1-5.4 20.9-5.4 4.2 0 8.2.4 12 1.3 3.9.8 6.8 1.8 9 2.7v14.1h-1.5c-2.7-1.8-5.7-3.3-9.1-4.5-3.4-1.2-6.8-1.7-10.3-1.7-2.9 0-5.3.4-7.3 1.2-2 .8-2.9 1.9-2.9 3.4 0 1.3.4 2.4 1.3 3 .9.7 3 1.4 6.3 2.1 1.8.3 3.8.8 5.9 1.1 2.1.3 4.2.8 6.4 1.3 4.7 1.3 8.2 3.2 10.4 5.8 2.1 2.9 3.3 6.2 3.3 10.1zM376.7 426.8c-4-3.2-9.8-3.9-17.1-1.8-5.3 1.5-10.7 3.6-13.5 5v64.3l6.9 1.9.3-28.4c1.5.6 3.4.8 5.4.9 7.2.5 14.3-2.1 19-7.9 3.6-4.4 5.5-10.5 5.5-18.1-.1-7.4-2.6-12.9-6.5-15.9zm-17.8 34.4c-2.3 0-4.1-.3-5.5-.8l.3-26.3c1.1-.6 3.3-1.4 6.2-2.1 8.2-1.8 14 1.8 14.1 12.2.1 11-6 17.1-15.1 17z"/></g></svg>