<svg xmlns="http://www.w3.org/2000/svg" viewBox="0 123.3 595.3 595.3" enable-background="new 0 123.3 595.3 595.3" width="40" height="40"><path fill="#006B8D" d="M227.8 145.3c61.5 0 111.6 50.1 111.6 111.6s-50.1 111.6-111.6 111.6-111.6-50.1-111.6-111.6 50-111.6 111.6-111.6m0-22c-73.7 0-133.5 59.7-133.5 133.5 0 73.6 59.7 133.5 133.5 133.5s133.5-59.7 133.5-133.5c-.1-73.8-59.8-133.5-133.5-133.5zM271.9 247.2h-67.7v-23.1c0-6.6 2.3-12 6.9-16.7 4.6-4.6 10.1-6.9 16.7-6.9s12 2.3 16.7 6.9c4.5 4.5 6.8 10 6.9 16.4v24c0 1.5.6 2.9 1.8 4.2s2.5 1.8 4.2 1.8h5.8c1.5 0 2.9-.6 4.2-1.8 1.2-1.2 1.8-2.5 1.8-4.2v-24.1c-.1-11.2-4-20.9-12.1-28.9-8.1-8.1-17.8-12.1-29.1-12.1-11.4 0-21.1 4-29.1 12.1-8.1 8.1-12.1 17.8-12.1 29.1V247h-2.9c-2.5 0-4.5.8-6.3 2.6-1.7 1.7-2.6 3.8-2.6 6.3v65.7c0 2.5.8 4.5 2.6 6.3 1.7 1.7 3.8 2.6 6.3 2.6h88.4c2.5 0 4.5-.8 6.3-2.6 1.7-1.7 2.6-3.8 2.6-6.3v-65.7c0-2.5-.8-4.5-2.6-6.3-2.1-1.3-4.1-2.4-6.7-2.4zm-37.2 43.2v17.2c0 3.4-2.9 6.3-6.3 6.3h-1.2c-3.4 0-6.3-2.9-6.3-6.3v-17.2c-3.7-2.3-6.2-6.4-6.2-11.1 0-7.2 5.8-13.1 13.1-13.1 7.2 0 13.1 5.8 13.1 13.1-.1 4.7-2.4 8.7-6.2 11.1zM551.7 298.7h43.6L508.4 205v46.8c-.3 25.9 19.1 46.9 43.3 46.9z"/><g fill="#006B8D"><path d="M451.7 476.9v15.7h15.7c0-8.8-7.1-15.7-15.7-15.7zM461.8 450.5v-33.6h-27v36.5h27zM463.4 448.8h3.1v-36.4h-27v3h23.9zM449.7 478.8c-8.9 0-16.1 7.5-15.6 16.6.4 7.8 6.8 14.4 14.8 14.8 9 .5 16.5-6.7 16.5-15.6h-15.6v-15.8zM545.6 321.2c-27.1 0-60.2-34.5-60.2-63.6V205H376.8c5.6 16.2 8.8 33.7 8.8 51.7 0 87.2-70.7 157.8-157.8 157.8-8 0-16-.6-23.7-1.8v249c0 31.3 25.4 56.8 56.8 56.8h277.7c31.3 0 56.8-25.4 56.8-56.8V321.2h-49.8zm-125.4 80.9h60.3v123.8h-60.4l.1-123.8zm-100.5-.3l92.6-17.8v160.5l-92.6-17.8V401.8zM307 635.4h-18.7v-19.6H307v19.6zm76-28.8c0 4.6-.7 8.8-2.1 12.6s-3.3 6.9-5.6 9.3c-2.4 2.6-5.1 4.5-8.1 5.9-3 1.3-6.2 2-9.7 2-3.2 0-5.9-.3-8.1-1s-4.5-1.6-6.8-2.9v23.3h-18v-76.6h18v5.8c2.8-2.2 5.6-4 8.4-5.3s6.1-2 9.9-2c7 0 12.4 2.5 16.2 7.7 4 5.2 5.9 12.2 5.9 21.2zm-18.4.3c0-5.5-.9-9.4-2.8-11.9-1.9-2.4-4.8-3.7-8.8-3.7-1.7 0-3.4.3-5.2.8-1.8.5-3.5 1.3-5.1 2.2v28.1c1.2.5 2.4.8 3.9.9 1.3.2 2.7.2 4 .2 4.7 0 8.2-1.3 10.6-4.1 2.2-2.7 3.4-6.9 3.4-12.5zm89.8-.3c0 4.6-.7 8.8-2.1 12.6-1.4 3.8-3.3 6.9-5.6 9.3-2.4 2.6-5.1 4.5-8.1 5.9-3 1.3-6.2 2-9.7 2-3.2 0-5.9-.3-8.1-1-2.2-.7-4.5-1.6-6.8-2.9v23.3h-18v-76.6h18v5.8c2.8-2.2 5.6-4 8.4-5.3s6.1-2 9.9-2c7 0 12.4 2.5 16.2 7.7 4 5.2 5.9 12.2 5.9 21.2zm-18.5.3c0-5.5-.9-9.4-2.8-11.9-1.9-2.4-4.8-3.7-8.8-3.7-1.7 0-3.4.3-5.2.8-1.8.5-3.5 1.3-5.1 2.2v28.1c1.2.5 2.4.8 3.9.9 1.3.2 2.7.2 4 .2 4.7 0 8.2-1.3 10.6-4.1 2.2-2.7 3.4-6.9 3.4-12.5zm80.1 10.7c0 5.8-2.6 10.4-7.7 14-5.2 3.5-12.3 5.3-21.3 5.3-5 0-9.5-.5-13.5-1.4s-7.3-1.9-9.8-3.1v-14.7h1.7c.9.7 1.9 1.3 3.1 2.1 1.2.8 2.9 1.5 5 2.4 1.9.8 4 1.4 6.3 1.9 2.4.6 4.9.8 7.6.8 3.5 0 6.1-.4 7.8-1.2s2.5-1.9 2.5-3.4c0-1.3-.5-2.4-1.5-2.9-1-.6-2.9-1.2-5.7-1.8-1.3-.3-3.1-.6-5.4-1-2.3-.3-4.4-.8-6.2-1.3-5-1.3-8.8-3.4-11.4-6.2-2.4-2.8-3.7-6.3-3.7-10.5 0-5.4 2.5-9.8 7.7-13.5 5.1-3.5 12.1-5.4 21-5.4 4.2 0 8.2.4 12 1.3 3.9.8 6.8 1.8 9 2.7v14.2H512c-2.7-1.9-5.7-3.3-9.1-4.5-3.4-1.2-6.8-1.7-10.3-1.7-2.9 0-5.3.4-7.3 1.2-2 .8-2.9 1.9-2.9 3.4 0 1.3.4 2.4 1.3 3 .9.7 3 1.4 6.3 2.1 1.9.3 3.8.8 5.9 1.1 2.1.3 4.2.8 6.4 1.3 4.7 1.3 8.2 3.2 10.4 5.8 2.2 2.7 3.3 6.1 3.3 10zM376.6 426.5c-4-3.2-9.8-3.9-17.1-1.9-5.3 1.5-10.7 3.6-13.5 5V494l6.9 1.9.3-28.4c1.5.6 3.4.8 5.4.9 7.2.5 14.3-2.1 19-7.9 3.6-4.4 5.6-10.5 5.5-18.1-.1-7.4-2.6-12.9-6.5-15.9zM358.8 461c-2.3 0-4.1-.3-5.6-.8l.3-26.3c1.1-.6 3.3-1.4 6.2-2.1 8.2-1.8 14.1 1.9 14.1 12.2.1 10.9-6 17-15 17z"/></g></svg>