<svg xmlns="http://www.w3.org/2000/svg" viewBox="0 123.3 595.3 595.3" enable-background="new 0 123.3 595.3 595.3" width="40" height="40"><g fill="#006B8D"><path d="M551.8 298.7h43.5l-86.9-93.5v46.7c-.1 25.9 19.3 46.8 43.4 46.8zM452 477.5v15.7h15.7c0-8.7-7.1-15.7-15.7-15.7zM463.7 449.6h3.2v-36.3h-27v2.9h23.8zM462.2 451.2v-33.5H435.3v36.4h26.9zM450.1 479.4c-8.9 0-16 7.4-15.6 16.6.4 7.8 6.8 14.3 14.7 14.7 9 .5 16.4-6.7 16.4-15.6H450v-15.7h.1zM377.1 427.3c-3.9-3.2-9.8-3.9-17-1.8-5.3 1.4-10.6 3.7-13.4 5.1v64.2l6.9 2 .3-28.3c1.4.6 3.4.9 5.3.9 7.2.5 14.3-2.1 18.9-7.9 3.7-4.3 5.5-10.4 5.5-18.1-.1-7.7-2.6-13.1-6.5-16.1zm-17.7 34.3c-2.2 0-4.1-.3-5.5-.8l.3-26.2c1.1-.6 3.3-1.4 6.2-2.1 8.1-1.8 14.1 1.8 14.1 12.2 0 11-6.1 17-15.1 16.9zM545.8 321.3c-27.1 0-60.3-34.6-60.3-63.6v-52.5H260.8c-31.3.1-56.7 25.5-56.7 56.8v399.9c0 31.3 25.4 56.7 56.7 56.7h277.6c31.3 0 56.7-25.4 56.7-56.7V321.3h-49.3zM420.6 403h60.2v123.5h-60.2V403zM307.7 635.6h-18.6v-19.5h18.6v19.5zm12.7-233l92.3-17.7v160l-92.3-17.7V402.6zm61 216.9c-1.4 3.8-3.3 6.9-5.5 9.3-2.4 2.6-5.1 4.5-8.1 5.8-3 1.3-6.2 2-9.7 2-3.2 0-5.8-.3-8.1-1.1-2.2-.7-4.5-1.6-6.8-2.9V656h-17.9v-76.2h17.9v5.8c2.8-2.2 5.6-3.9 8.4-5.3 2.9-1.4 6.2-2 9.9-2 7 0 12.4 2.6 16.2 7.7 3.9 5.1 5.8 12.1 5.8 21 0 4.5-.7 8.7-2.1 12.5zm71.3 0c-1.4 3.8-3.3 6.9-5.5 9.3-2.4 2.6-5.1 4.5-8.1 5.8-3 1.3-6.2 2-9.7 2-3.2 0-5.8-.3-8.1-1.1-2.2-.7-4.5-1.6-6.8-2.9V656h-17.9v-76.2h17.9v5.8c2.8-2.2 5.6-3.9 8.4-5.3 2.9-1.4 6.2-2 9.9-2 7 0 12.4 2.6 16.2 7.7 3.9 5.1 5.8 12.1 5.8 21 0 4.5-.7 8.7-2.1 12.5zm55.8 12.3c-5.2 3.5-12.2 5.3-21.2 5.3-5 0-9.5-.5-13.5-1.4-4.1-.9-7.3-2-9.7-3.1V618h1.6c.9.7 1.9 1.3 3.1 2 1.2.7 2.8 1.6 5 2.4 1.8.8 3.9 1.4 6.3 2s4.9.8 7.6.8c3.5 0 6.1-.4 7.8-1.2 1.7-.8 2.6-1.9 2.6-3.5 0-1.4-.5-2.4-1.5-3-1-.6-2.9-1.2-5.7-1.8-1.3-.3-3.2-.6-5.4-1-2.3-.3-4.3-.8-6.2-1.2-5.1-1.3-8.8-3.4-11.3-6.2-2.4-2.8-3.7-6.3-3.7-10.4 0-5.4 2.6-9.9 7.6-13.4 5.1-3.5 12-5.3 20.8-5.3 4.2 0 8.1.4 12 1.2 3.8.9 6.8 1.8 9 2.7v14.1h-1.5c-2.6-1.8-5.7-3.3-9.1-4.5-3.4-1.1-6.8-1.7-10.3-1.7-2.9 0-5.3.4-7.3 1.2-2 .8-3 1.9-3 3.4 0 1.3.5 2.4 1.3 3 .9.7 3 1.4 6.3 2.1 1.8.4 3.8.7 5.9 1.1 2.1.3 4.2.8 6.3 1.3 4.7 1.2 8.2 3.2 10.4 5.8 2.2 2.6 3.4 5.9 3.4 9.9.1 5.8-2.4 10.5-7.6 14zM353.6 591.8c-1.7 0-3.4.3-5.2.8-1.8.5-3.5 1.2-5.1 2.2v28.1c1.2.5 2.5.8 3.8.9 1.4.1 2.7.2 4 .2 4.7 0 8.3-1.4 10.6-4.1 2.3-2.8 3.5-6.9 3.5-12.5 0-5.5-.9-9.4-2.8-11.8-1.9-2.6-4.9-3.8-8.8-3.8zM424.7 591.8c-1.7 0-3.4.3-5.2.8-1.8.5-3.5 1.2-5.1 2.2v28.1c1.2.5 2.4.8 3.8.9 1.4.1 2.7.2 4 .2 4.7 0 8.3-1.4 10.6-4.1 2.3-2.8 3.5-6.9 3.5-12.5 0-5.5-.9-9.4-2.8-11.8-1.8-2.6-4.7-3.8-8.8-3.8z"/></g></svg>