<svg xmlns="http://www.w3.org/2000/svg" viewBox="0 123.3 595.3 595.3" enable-background="new 0 123.3 595.3 595.3" width="40" height="40"><g fill="#006B8D"><path d="M551.8 298.7h43.5l-86.9-93.5v46.7c-.1 25.9 19.3 46.8 43.4 46.8zM452 477.5v15.7h15.7c0-8.7-7.1-15.7-15.7-15.7zM463.7 449.6h3.2v-36.3h-27v2.9h23.8zM462.2 451.2v-33.5H435.3v36.4h26.9zM450.1 479.4c-8.9 0-16 7.4-15.6 16.6.4 7.8 6.8 14.3 14.7 14.7 9 .5 16.4-6.7 16.4-15.6H450l.1-15.7zM377.1 427.3c-3.9-3.2-9.8-3.9-17-1.8-5.3 1.4-10.6 3.7-13.4 5.1v64.2l6.9 2 .3-28.3c1.4.6 3.4.9 5.3.9 7.2.5 14.3-2.1 18.9-7.9 3.7-4.3 5.5-10.4 5.5-18.1-.1-7.7-2.6-13.1-6.5-16.1zm-17.7 34.3c-2.2 0-4.1-.3-5.5-.8l.3-26.2c1.1-.6 3.3-1.4 6.2-2.1 8.1-1.8 14.1 1.8 14.1 12.2 0 11-6.1 17-15.1 16.9zM545.8 321.3c-27.1 0-60.3-34.6-60.3-63.6v-52.5H260.8c-31.3.1-56.7 25.5-56.7 56.8v399.9c0 31.3 25.4 56.7 56.7 56.7h277.6c31.3 0 56.7-25.4 56.7-56.7V321.3h-49.3zM420.6 403h60.2v123.5h-60.2V403zm-100.2-.4l92.3-17.7v160l-92.3-17.7V402.6zm-59.5 232.9h-18.6V616h18.6v19.5zm75.7-28.7c0 4.6-.7 8.8-2.1 12.6-1.4 3.7-3.2 6.9-5.5 9.3-2.4 2.6-5.1 4.5-8.1 5.8s-6.2 2-9.7 2c-3.2 0-5.8-.3-8.1-1-2.2-.7-4.5-1.6-6.8-2.8V656h-17.9v-76.2h17.9v5.8c2.8-2.2 5.5-3.9 8.4-5.3 2.9-1.4 6.2-2 9.9-2 7 0 12.4 2.6 16.2 7.6 3.9 5 5.8 12 5.8 20.9zm-18.4.3c0-5.4-.9-9.3-2.8-11.8-1.8-2.4-4.8-3.7-8.7-3.7-1.7 0-3.4.3-5.2.8-1.8.5-3.5 1.2-5.1 2.2v28.1c1.2.5 2.4.8 3.8.9 1.4.1 2.7.2 4 .2 4.7 0 8.2-1.4 10.6-4.1 2.2-2.8 3.4-7 3.4-12.6zm89.5-.3c0 4.6-.7 8.8-2.1 12.6-1.4 3.7-3.2 6.9-5.5 9.3-2.4 2.6-5.1 4.5-8.1 5.8s-6.2 2-9.7 2c-3.2 0-5.8-.3-8.1-1-2.2-.7-4.5-1.6-6.8-2.8V656h-17.9v-76.2h17.9v5.8c2.8-2.2 5.5-3.9 8.4-5.3 2.9-1.4 6.2-2 9.9-2 7 0 12.4 2.6 16.2 7.6 3.9 5 5.8 12 5.8 20.9zm-18.4.3c0-5.4-.9-9.3-2.8-11.8-1.8-2.4-4.8-3.7-8.7-3.7-1.7 0-3.4.3-5.2.8-1.8.5-3.5 1.2-5.1 2.2v28.1c1.2.5 2.4.8 3.8.9 1.4.1 2.7.2 4 .2 4.7 0 8.2-1.4 10.6-4.1 2.2-2.8 3.4-7 3.4-12.6zm67 27.8c-1.9.5-3.9.9-6.1 1.2-2.2.3-4.8.4-7.9.4-7 0-12.2-1.4-15.5-4.2-3.4-2.8-5.1-7.6-5.1-14.5v-26.1h-7.4v-12.1h7.4v-16h17.9v16h16.7v12.1h-16.7v19.8c0 2 0 3.7.1 5.1 0 1.4.3 2.8.8 3.9.5 1.2 1.2 2.1 2.4 2.8 1.2.7 2.9 1.1 5.1 1.1.9 0 2.2-.2 3.6-.6 1.4-.4 2.6-.8 3.2-1.1h1.5v12.2zm65.2-39v39.6h-17.9v-27.9c0-2.7-.1-5-.2-6.9-.1-1.9-.5-3.5-1.1-4.7-.6-1.2-1.5-2-2.7-2.6-1.2-.5-2.9-.8-5.1-.8-1.8 0-3.5.3-5.1 1.1-1.6.7-3.2 1.4-4.5 2.2v39.6H467v-55.8h17.9v6.2c3.1-2.4 6-4.3 8.8-5.7 2.8-1.4 5.9-2 9.3-2 3.7 0 6.9.8 9.7 2.4 2.8 1.6 5 4.1 6.6 7.2 3.5-3 7-5.4 10.4-7.1 3.4-1.7 6.7-2.6 9.9-2.6 6 0 10.6 1.8 13.7 5.4 3.2 3.6 4.7 8.8 4.7 15.6v36.3h-17.9v-27.9c0-2.8-.1-5.1-.2-7s-.5-3.4-1.1-4.6-1.4-2-2.7-2.6c-1.2-.5-3-.8-5.2-.8-1.5 0-3 .3-4.4.8-1.3.6-3 1.4-5 2.6z"/></g></svg>