<svg xmlns="http://www.w3.org/2000/svg" viewBox="0 123.3 595.3 595.3" enable-background="new 0 123.3 595.3 595.3" width="40" height="40"><path fill="#006B8D" d="M227.8 145.3c61.5 0 111.6 50.1 111.6 111.6s-50.1 111.6-111.6 111.6-111.6-50.1-111.6-111.6 50-111.6 111.6-111.6m0-22c-73.7 0-133.5 59.7-133.5 133.5 0 73.6 59.7 133.5 133.5 133.5s133.5-59.7 133.5-133.5c-.1-73.8-59.8-133.5-133.5-133.5zM271.9 247.2h-67.7v-23.1c0-6.6 2.3-12 6.9-16.7 4.6-4.6 10.1-6.9 16.7-6.9s12 2.3 16.7 6.9c4.5 4.5 6.8 10 6.9 16.4v24c0 1.5.6 2.9 1.8 4.2 1.2 1.3 2.5 1.8 4.2 1.8h5.8c1.5 0 2.9-.6 4.2-1.8 1.2-1.2 1.8-2.5 1.8-4.2v-24.1c-.1-11.2-4-20.9-12.1-28.9-8.1-8.1-17.8-12.1-29.1-12.1s-21.1 4-29.1 12.1c-8.1 8.1-12.1 17.8-12.1 29.1V247h-2.9c-2.5 0-4.5.8-6.3 2.6-1.7 1.7-2.6 3.8-2.6 6.3v65.7c0 2.5.8 4.5 2.6 6.3 1.7 1.7 3.8 2.6 6.3 2.6h88.4c2.5 0 4.5-.8 6.3-2.6 1.7-1.7 2.6-3.8 2.6-6.3v-65.7c0-2.5-.8-4.5-2.6-6.3-2.1-1.3-4.1-2.4-6.7-2.4zm-37.2 43.2v17.2c0 3.4-2.9 6.3-6.3 6.3h-1.2c-3.4 0-6.3-2.9-6.3-6.3v-17.2c-3.7-2.3-6.2-6.4-6.2-11.1 0-7.2 5.8-13.1 13.1-13.1 7.2 0 13.1 5.8 13.1 13.1-.1 4.7-2.4 8.7-6.2 11.1zM551.7 298.7h43.6L508.4 205v46.8c-.3 25.9 19.1 46.9 43.3 46.9z"/><g fill="#006B8D"><path d="M377.2 427.3c-4-3.1-9.8-3.9-17-1.9-5.2 1.4-10.7 3.7-13.4 5v64.2l6.9 1.9.3-28.4c1.4.6 3.4.8 5.3.9 7.2.4 14.2-2.1 18.9-7.9 3.7-4.4 5.6-10.4 5.5-18.1-.2-7.3-2.6-12.8-6.5-15.7zm-17.8 34.3c-2.3 0-4.1-.3-5.6-.8l.3-26.3c1.1-.6 3.3-1.3 6.1-2.1 8.2-1.8 14.1 1.9 14.1 12.2.2 11.1-5.9 17.1-14.9 17zM452.1 477.5v15.6h15.7c0-8.6-7.1-15.6-15.7-15.6zM463.8 449.6h3.2v-36.4h-27v3h23.8zM462.3 451.2v-33.5h-27v36.4h27zM450.1 479.4c-8.9 0-16.1 7.4-15.6 16.6.4 7.8 6.8 14.3 14.7 14.7 9 .4 16.4-6.7 16.4-15.6H450v-15.7zM545.6 321.2c-27.1 0-60.2-34.5-60.2-63.6V205H376.8c5.6 16.2 8.8 33.7 8.8 51.7 0 87.2-70.7 157.8-157.8 157.8-8 0-16-.6-23.7-1.8v249c0 31.3 25.4 56.8 56.8 56.8h277.7c31.3 0 56.8-25.4 56.8-56.8V321.2h-49.8zM420.7 403h60.2v123.5h-60.2V403zm-100.2-.4l92.3-17.8v160L320.5 527V402.6zm-39.6 232.9h-18.6V616h18.6v19.5zm73.7-16.2c-1.4 3.8-3.3 6.9-5.6 9.3-2.4 2.6-5 4.5-8.1 5.9s-6.2 2-9.7 2c-3.2 0-5.9-.3-8.1-1s-4.5-1.6-6.8-2.9v23.2h-17.9v-76.2h17.9v5.8c2.8-2.2 5.6-4 8.4-5.3 2.9-1.3 6.1-2 9.9-2 7 0 12.4 2.5 16.2 7.7s5.8 12.1 5.8 21c.1 4.6-.6 8.8-2 12.5zm71.1 0c-1.4 3.8-3.3 6.9-5.6 9.3-2.4 2.6-5 4.5-8.1 5.9-3 1.3-6.2 2-9.7 2-3.2 0-5.9-.3-8.1-1s-4.5-1.6-6.8-2.9v23.2h-17.9v-76.2h17.9v5.8c2.8-2.2 5.6-4 8.4-5.3 2.9-1.3 6.1-2 9.9-2 7 0 12.4 2.5 16.2 7.7 3.9 5.1 5.8 12.1 5.8 21 .1 4.6-.6 8.8-2 12.5zm50.7-27.5h-16.7v19.8c0 1.9 0 3.7.1 5.1 0 1.4.3 2.8.8 4 .4 1.2 1.3 2.1 2.4 2.8s2.9 1 5.1 1c.9 0 2.1-.2 3.6-.6 1.5-.4 2.5-.8 3.1-1.1h1.5V635c-1.9.5-4 .8-6.1 1.2-2.2.3-4.8.4-7.9.4-7 0-12.1-1.4-15.6-4.2-3.4-2.8-5.1-7.7-5.1-14.5v-26.1h-7.3v-12.1h7.3v-16h17.9v16h16.7v12.1h.2zm48.1 43.7l-11.9-16.7-12.3 16.7h-20.4l22-27.9-21.6-27.8h20.9l11.7 16.4 11.8-16.4h20.5l-21.7 27.4 22 28.3h-21zM397.8 591.7c-1.7 0-3.4.3-5.2.8s-3.4 1.3-5.1 2.2v28c1.2.5 2.4.8 3.8.9 1.3.2 2.7.2 4 .2 4.7 0 8.2-1.3 10.5-4.1 2.3-2.8 3.4-6.9 3.4-12.5 0-5.4-.9-9.3-2.8-11.8-1.6-2.5-4.6-3.7-8.6-3.7zM326.7 591.7c-1.7 0-3.4.3-5.2.8-1.8.5-3.4 1.3-5.1 2.2v28c1.2.5 2.4.8 3.8.9 1.3.2 2.7.2 4 .2 4.7 0 8.2-1.3 10.5-4.1s3.4-6.9 3.4-12.5c0-5.4-.9-9.3-2.8-11.8-1.7-2.5-4.6-3.7-8.6-3.7z"/></g></svg>