<svg xmlns="http://www.w3.org/2000/svg" viewBox="0 123.3 595.3 595.3" enable-background="new 0 123.3 595.3 595.3" width="40" height="40"><g><path fill="#006B8D" d="M228.1 145.2c61.5 0 111.4 50 111.4 111.4S289.4 368 228.1 368s-111.4-49.9-111.4-111.4 49.8-111.4 111.4-111.4m0-21.9c-73.5 0-133.3 59.7-133.3 133.4 0 73.6 59.6 133.3 133.3 133.3s133.3-59.6 133.3-133.3-59.7-133.4-133.3-133.4zM272.2 247.2h-67.6v-23.1c0-6.5 2.3-12 6.9-16.7 4.6-4.6 10.1-6.9 16.7-6.9s12 2.3 16.7 6.9c4.5 4.5 6.8 10 6.9 16.4 0 .1 0-.1 0 0 0 1.5.6 3 1.8 4.2 1.2 1.2 2.5 1.8 4.2 1.8h5.8c1.5 0 3-.6 4.2-1.8s1.8-2.5 1.8-4.2c0-.1 0 .1 0 0-.1-11.2-4-20.8-12.1-28.8-8.1-8.1-17.7-12.1-29-12.1s-21.1 4-29 12.1c-8.1 8.1-12.1 17.7-12.1 29v23.2h-3c-2.5 0-4.5.8-6.3 2.6-1.7 1.7-2.6 3.8-2.6 6.3v65.7c0 2.5.8 4.5 2.6 6.3 1.7 1.7 3.8 2.6 6.3 2.6h88.4c2.5 0 4.5-.8 6.3-2.6 1.7-1.7 2.6-3.8 2.6-6.3V256c0-2.5-.8-4.5-2.6-6.3-2.4-1.6-4.4-2.5-6.9-2.5zm-37.1 43.1v17.3c0 3.5-2.9 6.3-6.3 6.3h-1.2c-3.5 0-6.3-2.9-6.3-6.3v-17.3c-3.7-2.3-6.2-6.4-6.2-11.1 0-7.3 5.8-13.1 13.1-13.1s13.1 5.8 13.1 13.1c-.2 4.7-2.6 8.7-6.2 11.1z"/></g><path fill="#006B8D" d="M551.7 299h43.5l-86.8-93.6v46.7c-.2 26 19.2 46.9 43.3 46.9z"/><g fill="#006B8D"><path d="M377.4 427.5c-4-3.1-9.8-3.9-17-1.8-5.2 1.4-10.7 3.7-13.4 5v64.1l6.9 1.9.3-28.3c1.4.6 3.4.8 5.3.9 7.2.4 14.2-2.1 18.9-7.9 3.7-4.4 5.5-10.4 5.5-18.1-.2-7.3-2.6-12.8-6.5-15.8zm-17.8 34.3c-2.3 0-4.1-.3-5.5-.8l.3-26.2c1.1-.6 3.3-1.3 6.1-2.1 8.2-1.8 14 1.8 14.1 12.2.1 11-6 17-15 16.9zM452.2 477.7v15.6h15.7c0-8.6-7.1-15.6-15.7-15.6zM463.9 449.8h3.2v-36.3h-27v2.9h23.8zM462.4 451.4V418H435.5v36.3h26.9zM450.3 479.6c-8.9 0-16.1 7.4-15.6 16.6.4 7.8 6.8 14.3 14.7 14.7 9 .4 16.4-6.7 16.4-15.6h-15.6v-15.7zM545.7 321.5c-27.1 0-60.2-34.5-60.2-63.6v-52.5H377c5.6 16.2 8.7 33.6 8.7 51.6 0 87.1-70.6 157.7-157.7 157.7-8 0-16-.6-23.7-1.8v248.8c0 31.3 25.4 56.7 56.7 56.7h277.5c31.3 0 56.7-25.4 56.7-56.7V321.5h-49.5zm-124.9 81.7h60.1v123.4h-60.1V403.2zm-100.1-.4l92.2-17.7V545l-92.2-17.7V402.8zm-39.5 232.7h-18.6V616h18.6v19.5zm73.6-16.1c-1.4 3.8-3.3 6.9-5.5 9.3-2.4 2.6-5 4.5-8.1 5.9s-6.2 2-9.7 2c-3.2 0-5.9-.3-8.1-1-2.2-.7-4.5-1.6-6.8-2.9V656h-17.9v-76.2h17.9v5.8c2.8-2.2 5.5-4 8.4-5.3 2.9-1.3 6.1-2 9.9-2 7 0 12.4 2.5 16.2 7.7 3.9 5.1 5.8 12.1 5.8 21 0 4.5-.7 8.7-2.1 12.4zm71 0c-1.4 3.8-3.3 6.9-5.5 9.3-2.4 2.6-5 4.5-8.1 5.9-3 1.3-6.2 2-9.7 2-3.2 0-5.9-.3-8.1-1-2.2-.7-4.5-1.6-6.8-2.9V656h-17.9v-76.2h17.9v5.8c2.8-2.2 5.5-4 8.4-5.3 2.9-1.3 6.1-2 9.9-2 7 0 12.4 2.5 16.2 7.7 3.9 5.1 5.8 12.1 5.8 21 .1 4.5-.7 8.7-2.1 12.4zm50.7-27.5h-16.6v19.8c0 1.9 0 3.7.1 5.1 0 1.4.3 2.8.8 4 .4 1.2 1.3 2.1 2.4 2.8 1.2.7 2.9 1 5.1 1 .9 0 2.1-.2 3.6-.6 1.5-.4 2.5-.8 3.1-1.1h1.5V635c-1.9.5-4 .8-6.1 1.2-2.2.3-4.8.4-7.9.4-7 0-12.1-1.4-15.6-4.2-3.4-2.8-5.1-7.7-5.1-14.5v-26.1h-7.3v-12.1h7.3v-16h17.9v16h16.6v12.1h.2zm48.1 43.6l-11.9-16.7-12.3 16.7H480l22-27.9-21.6-27.8h20.8l11.7 16.4 11.8-16.4h20.5l-21.7 27.4 21.9 28.2-20.8.1zM398 591.8c-1.7 0-3.4.3-5.2.8s-3.4 1.3-5.1 2.2v28c1.2.5 2.4.8 3.8.9 1.3.2 2.7.2 4 .2 4.7 0 8.2-1.3 10.5-4.1 2.3-2.8 3.4-6.9 3.4-12.4 0-5.4-.9-9.3-2.8-11.8-1.6-2.6-4.6-3.8-8.6-3.8zM326.9 591.8c-1.7 0-3.4.3-5.2.8s-3.4 1.3-5.1 2.2v28c1.2.5 2.4.8 3.8.9 1.3.2 2.7.2 4 .2 4.7 0 8.2-1.3 10.5-4.1 2.3-2.8 3.4-6.9 3.4-12.4 0-5.4-.9-9.3-2.8-11.8-1.7-2.6-4.6-3.8-8.6-3.8z"/></g></svg>