<svg xmlns="http://www.w3.org/2000/svg" viewBox="0 123.3 595.3 595.3" enable-background="new 0 123.3 595.3 595.3" width="40" height="40"><g fill="#006B8D"><path d="M551.9 298.6h43.5l-86.9-93.4V252c0 25.8 19.4 46.6 43.4 46.6zM485.7 257.7v-52.5h-.1c0-.1.1-.1.1-.1H261c-31.3.1-56.7 25.5-56.7 56.8v400c0 31.3 25.4 56.7 56.7 56.7h277.5c31.3 0 56.7-25.4 56.7-56.7V321.2h-49.3c-27.1 0-60.2-34.4-60.2-63.5zm-75.4 233.5c-3.7-17.5 10.5-35.2 31.7-39.8 7.7-1.7 15.4-1.3 22 .7v-67.3l-75.2 15.8v99.2c0 .7-.1 1.4-.2 2-.2 15.4-13.5 29.6-32.3 33.7-21.2 4.5-41.3-6-45-23.5-3.7-17.4 10.5-35.2 31.7-39.8 7.7-1.7 15.4-1.3 22 .7v-82.1c0-5.6 3.9-10.5 9.4-11.7l99.3-21c.4-.1.7-.1 1.2-.1s.8-.1 1.2-.1c.1 0 .4 0 .5.1.6 0 1.2 0 1.8.1.4.1.7.2 1.1.4.4.1.7.2 1.1.4l1.2.6c.2.1.6.2.8.5.4.2.6.5 1 .7.2.2.6.5.8.7.2.2.5.6.7.8.2.2.5.6.7.8.2.4.5.8.7 1.2.1.2.4.6.5.8.2.6.5 1.2.6 1.9 0 .1.1.2.1.4.1.4.1.8.1 1.3.2.6.2 1 .2 1.4v108.9c0 .7-.1 1.4-.2 2-.2 15.4-13.5 29.6-32.3 33.7-21.3 4.6-41.4-6-45.2-23.4zm-60.8 144.7h-18.7v-19.6h18.7v19.6zm58.3-38.9h-1.6c-.8-.3-2-.5-3.7-.6-1.7-.1-3.1-.2-4.2-.2-2.6 0-4.8.2-6.8.5s-4.1.9-6.3 1.7V636h-18v-56h18v8.1c3.9-3.4 7.4-5.7 10.3-6.8 2.9-1.1 5.6-1.6 8.1-1.6.7 0 1.3 0 2.2.1.8.1 1.5.1 2.1.1V597h-.1zm44.1 33c-1 .7-2.2 1.6-3.6 2.6s-2.8 1.8-4 2.4c-1.8.8-3.6 1.4-5.5 1.8-1.9.4-3.9.6-6.2.6-5.3 0-9.8-1.6-13.3-4.9-3.6-3.3-5.4-7.5-5.4-12.6 0-4.1.9-7.4 2.8-10.1 1.8-2.6 4.4-4.7 7.8-6.1 3.4-1.5 7.4-2.6 12.4-3.2 4.9-.7 10.1-1.1 15.3-1.4v-.3c0-3.1-1.2-5.3-3.8-6.4-2.5-1.2-6.2-1.8-11.2-1.8-3 0-6.1.5-9.5 1.6-3.4 1.1-5.8 1.8-7.2 2.4h-1.6v-13.5c1.9-.5 5-1.1 9.3-1.8 4.3-.7 8.5-1.1 12.8-1.1 10.2 0 17.6 1.6 22.1 4.7 4.5 3.2 6.8 8.1 6.8 14.8v38.1h-17.8l-.2-5.8zm0-8.7v-11.6c-2.4.2-5.1.5-7.9.8s-5 .7-6.4 1.2c-1.8.6-3.2 1.4-4.1 2.4-.9 1.1-1.4 2.5-1.4 4.3 0 1.2.1 2.1.3 2.8.2.7.7 1.4 1.5 2.1.8.7 1.7 1.2 2.8 1.4 1.1.3 2.7.5 5 .5 1.8 0 3.6-.4 5.5-1.1 1.6-.7 3.3-1.6 4.7-2.8z"/></g></svg>