<svg xmlns="http://www.w3.org/2000/svg" viewBox="0 123.3 595.3 595.3" enable-background="new 0 123.3 595.3 595.3" width="40" height="40"><path fill="#006B8D" d="M551.6 298.6h43.6l-86.8-93.4V252c-.1 25.7 19.3 46.6 43.2 46.6z"/><g fill="#006B8D"><path d="M545.8 321.1c-27.1 0-60.2-34.6-60.2-63.6v-52.4h-77.5v29.2h-16.9v-29.2H260.8c-31.3.1-56.8 25.4-56.8 56.8v400c0 31.3 25.4 56.8 56.8 56.8h277.7c31.3 0 56.8-25.4 56.8-56.8V321.1h-49.5zm-154.6-55.4h16.9V297h-16.9v-31.3zm-.2 62.7h16.9v31.3H391v-31.3zm0 62.6h16.9v31.3H391V391zm8.5 137.5c-17.5 0-31.7-14.2-31.7-31.7 0-1.3.1-2.6.2-3.9 2.6-24.8 28.9-53.3 28.9-53.3.5-.5 1-.8 1.4-1.1l.8-.2.8.2c.5.2 1 .6 1.4 1.1 0 0 26.7 28.6 29.4 53.3.1 1.3.2 2.6.2 3.9.3 17.4-13.9 31.7-31.4 31.7zm-75.1 106.9h-18.6v-19.6h18.6v19.6zm58.1-38.9h-1.6c-.8-.3-2-.5-3.7-.6-1.7-.1-3.1-.2-4.2-.2-2.6 0-4.8.2-6.8.5s-4.1.9-6.3 1.7v37.4h-18v-55.9h18v8.2c3.9-3.4 7.4-5.6 10.3-6.8 2.9-1.1 5.6-1.6 8.1-1.6.7 0 1.3 0 2.2.1.8.1 1.5.1 2.1.1v17h-.1zm44 33c-1 .7-2.2 1.6-3.6 2.6-1.4 1.1-2.8 1.8-4 2.4-1.8.8-3.6 1.4-5.5 1.8-1.9.4-3.9.6-6.2.6-5.3 0-9.8-1.6-13.3-4.9-3.6-3.3-5.4-7.5-5.4-12.6 0-4.1.9-7.4 2.8-10 1.8-2.6 4.4-4.6 7.8-6.1s7.4-2.6 12.3-3.2c4.9-.7 10-1.1 15.3-1.4v-.3c0-3.1-1.2-5.2-3.8-6.4-2.5-1.2-6.2-1.8-11.2-1.8-3 0-6.1.5-9.5 1.6-3.4 1.1-5.8 1.8-7.2 2.4h-1.6v-13.5c1.9-.5 5-1.1 9.3-1.8 4.3-.7 8.5-1.1 12.8-1.1 10.2 0 17.5 1.6 22.1 4.7 4.5 3.2 6.8 8.1 6.8 14.8v38h-17.8l-.1-5.8zm0-8.7v-11.6c-2.4.2-5.1.5-7.9.8-2.8.3-5 .7-6.4 1.2-1.8.6-3.2 1.4-4.1 2.4-1 1.1-1.4 2.5-1.4 4.3 0 1.2.1 2.1.3 2.8.2.7.7 1.4 1.5 2.1.8.7 1.7 1.2 2.8 1.4 1.1.3 2.7.5 5 .5 1.8 0 3.6-.4 5.5-1.1 1.7-.7 3.3-1.6 4.7-2.8zm74.8-24.3h-1.6c-.8-.3-2-.5-3.7-.6-1.7-.1-3.1-.2-4.2-.2-2.6 0-4.8.2-6.8.5s-4.1.9-6.3 1.7v37.4h-18v-55.9h17.9v8.2c3.9-3.4 7.4-5.6 10.3-6.8 2.9-1.1 5.6-1.6 8.1-1.6.7 0 1.3 0 2.2.1.8.1 1.5.1 2.1.1v17.1zM399.5 476.3c-11.2 0-20.4 9.2-20.4 20.4s9.2 20.4 20.4 20.4 20.4-9.2 20.4-20.4c-.1-11.2-9.2-20.4-20.4-20.4z"/></g></svg>