<svg xmlns="http://www.w3.org/2000/svg" viewBox="0 123.3 595.3 595.3" enable-background="new 0 123.3 595.3 595.3" width="40" height="40"><path fill="#006B8D" d="M551.8 298.6h43.5l-86.9-93.4V252c0 25.9 19.4 46.6 43.4 46.6zM546 321.2c-27.2 0-60.2-34.5-60.2-63.6v-52.5h-225c-31.4.1-56.8 25.5-56.8 56.9v150.9l.1.1v248.9c0 31.4 25.4 56.7 56.7 56.7h277.7c31.4 0 56.7-25.4 56.7-56.7V321.2H546zM480.6 520H318.5c-5.9 0-10.7-4.8-10.7-10.7 0-5.9 4.8-10.7 10.7-10.7h162.1c5.9 0 10.7 4.8 10.7 10.7.1 5.9-4.7 10.7-10.7 10.7zm0-37.6H318.5c-5.9 0-10.7-4.8-10.7-10.7 0-5.9 4.8-10.7 10.7-10.7h162.1c5.9 0 10.7 4.8 10.7 10.7.1 5.9-4.7 10.7-10.7 10.7zm0-37.7H318.5c-5.9 0-10.7-4.8-10.7-10.7 0-5.9 4.8-10.7 10.7-10.7h162.1c5.9 0 10.7 4.8 10.7 10.7.1 5.9-4.7 10.7-10.7 10.7zm0-37.6H318.5c-5.9 0-10.7-4.8-10.7-10.7 0-5.9 4.8-10.7 10.7-10.7h162.1c5.9 0 10.7 4.8 10.7 10.7.1 5.9-4.7 10.7-10.7 10.7zm-141.5 227h-18.5v-19.5h18.5v19.5zm57.9-38.7h-1.6c-.8-.3-2-.5-3.7-.6-1.7-.1-3.1-.2-4.2-.2-2.6 0-4.8.2-6.7.5-2 .3-4.1.9-6.3 1.7v37.3h-17.9v-55.8h17.9v8.2c3.9-3.4 7.4-5.6 10.3-6.7s5.6-1.6 8-1.6c.7 0 1.3 0 2.1.1s1.5.1 2.1.1v17zm46.3-25.4H442c-.8-.3-1.8-.5-3.1-.8-1.2-.3-2.6-.5-4.1-.5-3.5 0-5.9.7-7.1 1.9s-1.8 3.7-1.8 7.3v.5h13.7v12.1h-13.1v43.6h-17.9v-43.6H401v-12.1h7.6v-1.5c0-6.8 1.8-11.9 5.5-15.3 3.6-3.4 9.1-5.1 16.4-5.1 2.6 0 5.1.1 7.2.3 2.2.2 4.1.4 5.7.7V570zm42.4 63.6c-1.9.5-3.9.9-6.1 1.2-2.2.3-4.8.4-7.9.4-7 0-12.1-1.4-15.5-4.2-3.4-2.8-5.1-7.6-5.1-14.5v-26h-7.4v-12.1h7.4v-15.9H469v15.9h16.7v12.1H469v19.8c0 2 0 3.7.1 5.1 0 1.4.3 2.8.8 3.9.5 1.2 1.2 2.1 2.4 2.8 1.2.7 2.9 1 5.1 1 .9 0 2.1-.2 3.6-.6 1.5-.4 2.6-.8 3.2-1.1h1.5v12.2z"/></svg>