<svg xmlns="http://www.w3.org/2000/svg" viewBox="0 123.3 595.3 595.3" enable-background="new 0 123.3 595.3 595.3" width="40" height="40"><g fill="#006B8D"><path d="M551.5 298.6h43.6l-86.9-93.4V252c-.1 26.1 19.3 46.6 43.3 46.6zM457.9 523.7h10.3c1.9 0 3.3-1.5 3.3-3.3v-10.6c0-1.8-1.4-3.3-3.3-3.3h-10.3c-1.8 0-3.3 1.5-3.3 3.3v10.6c0 1.8 1.4 3.3 3.3 3.3zM457.9 496.8h10.3c1.9 0 3.3-1.4 3.3-3.3v-10.6c0-1.9-1.4-3.3-3.3-3.3h-10.3c-1.8 0-3.3 1.4-3.3 3.3v10.6c0 1.8 1.4 3.3 3.3 3.3zM457.9 469.9h10.3c1.9 0 3.3-1.4 3.3-3.3V456c0-1.9-1.4-3.3-3.3-3.3h-10.3c-1.8 0-3.3 1.5-3.3 3.3v10.6c0 1.8 1.4 3.3 3.3 3.3zM359.2 439H440c1.8 0 3.3-1.5 3.3-3.3v-52.3c0-1.9-1.5-3.3-3.3-3.3h-80.8c-1.9 0-3.3 1.4-3.3 3.3v52.3c.1 1.7 1.5 3.3 3.3 3.3zM359.2 515.7H440c1.8 0 3.3-1.5 3.3-3.3V464c0-1.8-1.5-3.3-3.3-3.3h-80.8c-1.9 0-3.3 1.4-3.3 3.3v48.4c.1 1.8 1.5 3.3 3.3 3.3zM457.9 389.2h10.3c1.9 0 3.3-1.4 3.3-3.3v-10.6c0-1.9-1.4-3.3-3.3-3.3h-10.3c-1.8 0-3.3 1.4-3.3 3.3v10.6c0 1.8 1.4 3.3 3.3 3.3zM331.1 416.1h10.3c1.8 0 3.3-1.5 3.3-3.3v-10.6c0-1.9-1.4-3.3-3.3-3.3h-10.3c-1.8 0-3.3 1.4-3.3 3.3v10.6c.1 1.8 1.5 3.3 3.3 3.3zM457.9 443h10.3c1.9 0 3.3-1.5 3.3-3.3v-10.6c0-1.9-1.4-3.3-3.3-3.3h-10.3c-1.8 0-3.3 1.5-3.3 3.3v10.6c0 1.9 1.4 3.3 3.3 3.3zM327.9 385.9c0 1.9 1.5 3.3 3.3 3.3h10.3c1.8 0 3.3-1.4 3.3-3.3v-10.6c0-1.9-1.4-3.3-3.3-3.3h-6.1c-2.4 2.3-4.9 4.5-7.4 6.5l-.1 7.4zM457.9 416.1h10.3c1.9 0 3.3-1.5 3.3-3.3v-10.6c0-1.9-1.4-3.3-3.3-3.3h-10.3c-1.8 0-3.3 1.4-3.3 3.3v10.6c0 1.8 1.4 3.3 3.3 3.3zM545.6 321.1c-27.1 0-60.3-34.5-60.3-63.6v-52.6H376.7c5.6 16.2 8.8 33.7 8.8 51.7 0 40.5-15.2 77.4-40.3 105.4h125.1c6.1 0 10.9 5 10.9 10.9v150c0 6.1-5 10.9-10.9 10.9H328.9c-6.1 0-10.9-4.9-10.9-10.9V386.1c-25.6 17.9-56.7 28.4-90.3 28.4-8 0-16-.6-23.7-1.8v249.1c0 31.3 25.4 56.8 56.8 56.8h277.7c31.3 0 56.8-25.4 56.8-56.8V321.1h-49.7zM328.7 635.2h-18.6v-19.6h18.6v19.6zm58.1-38.9h-1.6c-.8-.3-2-.5-3.7-.6-1.7-.2-3.1-.2-4.2-.2-2.5 0-4.8.2-6.7.5-1.9.3-4 .9-6.3 1.7v37.4h-18v-56h18v8.2c4-3.4 7.4-5.6 10.3-6.7 2.9-1.1 5.6-1.7 8.1-1.7.6 0 1.3 0 2.1.1.8 0 1.5.1 2.1.2l-.1 17.1zm64.8-.7v39.6h-18v-27.9c0-2.7-.1-5-.2-7-.2-1.9-.5-3.5-1.1-4.6-.6-1.2-1.5-2.1-2.7-2.6-1.2-.6-2.9-.8-5.1-.8-1.8 0-3.5.3-5.1 1.1-1.7.7-3.1 1.4-4.5 2.3v39.6H397v-56h18v6.1c3.1-2.4 6.1-4.3 8.8-5.6 2.8-1.3 6-2 9.3-2 3.7 0 6.9.8 9.8 2.4s5 4 6.6 7.2c3.6-3 7.1-5.4 10.4-7.2 3.4-1.8 6.7-2.6 9.9-2.6 6.1 0 10.6 1.9 13.7 5.4 3.1 3.6 4.7 8.8 4.7 15.7v36.4h-18v-27.9c0-2.8-.1-5-.2-7-.1-1.9-.5-3.5-1.1-4.6s-1.4-2.1-2.7-2.6c-1.3-.6-2.9-.8-5.2-.8-1.5 0-2.9.3-4.4.8-1.2.5-2.9 1.3-5 2.6zM331.1 523.7h10.3c1.8 0 3.3-1.5 3.3-3.3v-10.6c0-1.8-1.4-3.3-3.3-3.3h-10.3c-1.8 0-3.3 1.5-3.3 3.3v10.6c.1 1.8 1.5 3.3 3.3 3.3zM331.1 496.8h10.3c1.8 0 3.3-1.4 3.3-3.3v-10.6c0-1.9-1.4-3.3-3.3-3.3h-10.3c-1.8 0-3.3 1.4-3.3 3.3v10.6c.1 1.8 1.5 3.3 3.3 3.3zM331.1 469.9h10.3c1.8 0 3.3-1.4 3.3-3.3V456c0-1.9-1.4-3.3-3.3-3.3h-10.3c-1.8 0-3.3 1.5-3.3 3.3v10.6c.1 1.8 1.5 3.3 3.3 3.3zM331.1 443h10.3c1.8 0 3.3-1.5 3.3-3.3v-10.6c0-1.9-1.4-3.3-3.3-3.3h-10.3c-1.8 0-3.3 1.5-3.3 3.3v10.6c.1 1.9 1.5 3.3 3.3 3.3zM227.5 145.3c61.5 0 111.5 50.1 111.5 111.5s-50.1 111.5-111.5 111.5S116 318.1 116 256.8s49.9-111.5 111.5-111.5m0-22C153.9 123.3 94 183.1 94 256.9c0 73.7 59.7 133.5 133.5 133.5S361 330.7 361 256.9s-59.8-133.6-133.5-133.6zM271.6 247.3H204v-23.1c0-6.5 2.3-12 6.9-16.7 4.6-4.6 10.1-6.9 16.7-6.9s12 2.3 16.7 6.9c4.7 4.6 6.9 10.1 6.9 16.7 0 1.5.6 3 1.8 4.2 1.2 1.2 2.5 1.8 4.2 1.8h5.8c1.5 0 3-.6 4.2-1.8 1.2-1.2 1.8-2.5 1.8-4.2 0-11.3-4-21.1-12.1-29-8.1-8.1-17.7-12.1-29-12.1s-21.1 4-29 12.1c-8.1 8.1-12.1 17.8-12.1 29v23.1h-3c-2.5 0-4.5.8-6.3 2.6-1.7 1.7-2.6 3.8-2.6 6.3V322c0 2.5.8 4.5 2.6 6.3 1.7 1.7 3.8 2.6 6.3 2.6h88.4c2.5 0 4.5-.8 6.3-2.6 1.7-1.7 2.6-3.8 2.6-6.3v-65.7c0-2.5-.8-4.5-2.6-6.3-2.3-1.7-4.3-2.7-6.9-2.7zm-37.1 43.2v17.3c0 3.5-2.9 6.3-6.3 6.3H227c-3.5 0-6.3-2.9-6.3-6.3v-17.3c-3.7-2.3-6.2-6.4-6.2-11.1 0-7.3 5.8-13.1 13.1-13.1s13.1 5.8 13.1 13.1c-.2 4.6-2.6 8.7-6.2 11.1z"/></g></svg>