<svg xmlns="http://www.w3.org/2000/svg" viewBox="0 123.3 595.3 595.3" enable-background="new 0 123.3 595.3 595.3" width="40" height="40"><g fill="#006B8D"><path d="M227.5 145.3c61.5 0 111.5 50.1 111.5 111.5s-50.1 111.5-111.5 111.5S116 318.1 116 256.7s50-111.4 111.5-111.4m0-22C154 123.3 94.1 183 94.1 256.8c0 73.7 59.7 133.4 133.4 133.4S361 330.6 361 256.8s-59.8-133.5-133.5-133.5zM271.7 247.3H204v-23.1c0-6.5 2.3-12 6.9-16.7 4.6-4.6 10.1-6.9 16.7-6.9s12 2.3 16.7 6.9 6.9 10.1 6.9 16.7c0 1.5.6 3 1.8 4.2 1.2 1.2 2.5 1.8 4.2 1.8h5.8c1.5 0 3-.6 4.2-1.8 1.2-1.2 1.8-2.5 1.8-4.2 0-11.3-4-21.1-12.1-29-8.1-8.1-17.7-12.1-29-12.1s-21.1 4-29 12.1c-8.1 8.1-12.1 17.8-12.1 29v23.1h-3c-2.5 0-4.5.8-6.3 2.6-1.7 1.7-2.6 3.8-2.6 6.3V322c0 2.5.8 4.5 2.6 6.3 1.7 1.7 3.8 2.6 6.3 2.6h88.4c2.5 0 4.5-.8 6.3-2.6 1.7-1.7 2.6-3.8 2.6-6.3v-65.7c0-2.5-.8-4.5-2.6-6.3-2.3-1.7-4.3-2.7-6.8-2.7zm-37.1 43.2v17.3c0 3.5-2.9 6.3-6.3 6.3h-1.2c-3.5 0-6.3-2.9-6.3-6.3v-17.3c-3.7-2.3-6.2-6.4-6.2-11.1 0-7.3 5.8-13.1 13.1-13.1s13.1 5.8 13.1 13.1c-.2 4.6-2.6 8.6-6.2 11.1zM551.5 298.7h43.6l-86.9-93.4V252c-.1 26 19.3 46.7 43.3 46.7zM457.9 523.7h10.3c1.9 0 3.3-1.5 3.3-3.3v-10.6c0-1.8-1.4-3.3-3.3-3.3h-10.3c-1.8 0-3.3 1.5-3.3 3.3v10.6c0 1.8 1.4 3.3 3.3 3.3zM457.9 496.8h10.3c1.9 0 3.3-1.4 3.3-3.3v-10.6c0-1.9-1.4-3.3-3.3-3.3h-10.3c-1.8 0-3.3 1.4-3.3 3.3v10.6c0 1.9 1.4 3.3 3.3 3.3zM457.9 470h10.3c1.9 0 3.3-1.4 3.3-3.3v-10.6c0-1.9-1.4-3.3-3.3-3.3h-10.3c-1.8 0-3.3 1.5-3.3 3.3v10.6c0 1.7 1.4 3.3 3.3 3.3zM359.3 439H440c1.8 0 3.3-1.5 3.3-3.3v-52.3c0-1.9-1.5-3.3-3.3-3.3h-80.8c-1.9 0-3.3 1.4-3.3 3.3v52.3c.1 1.8 1.5 3.3 3.4 3.3zM359.3 515.7H440c1.8 0 3.3-1.5 3.3-3.3V464c0-1.8-1.5-3.3-3.3-3.3h-80.8c-1.9 0-3.3 1.4-3.3 3.3v48.4c.1 1.8 1.5 3.3 3.4 3.3zM457.9 389.3h10.3c1.9 0 3.3-1.4 3.3-3.3v-10.6c0-1.9-1.4-3.3-3.3-3.3h-10.3c-1.8 0-3.3 1.4-3.3 3.3V386c0 1.8 1.4 3.3 3.3 3.3zM331.2 416.1h10.3c1.8 0 3.3-1.5 3.3-3.3v-10.6c0-1.9-1.4-3.3-3.3-3.3h-10.3c-1.8 0-3.3 1.4-3.3 3.3v10.6c0 1.9 1.4 3.3 3.3 3.3zM457.9 443h10.3c1.9 0 3.3-1.5 3.3-3.3v-10.6c0-1.9-1.4-3.3-3.3-3.3h-10.3c-1.8 0-3.3 1.5-3.3 3.3v10.6c0 1.9 1.4 3.3 3.3 3.3zM327.9 386c0 1.9 1.5 3.3 3.3 3.3h10.3c1.8 0 3.3-1.4 3.3-3.3v-10.6c0-1.9-1.4-3.3-3.3-3.3h-6.1c-2.4 2.3-4.9 4.5-7.4 6.5l-.1 7.4zM457.9 416.1h10.3c1.9 0 3.3-1.5 3.3-3.3v-10.6c0-1.9-1.4-3.3-3.3-3.3h-10.3c-1.8 0-3.3 1.4-3.3 3.3v10.6c0 1.9 1.4 3.3 3.3 3.3zM545.6 321.2c-27.1 0-60.2-34.5-60.2-63.6V205H376.8c5.6 16.2 8.8 33.7 8.8 51.7 0 40.5-15.2 77.4-40.3 105.3h125.1c6.1 0 10.9 5 10.9 10.9v149.9c0 6.1-5 10.9-10.9 10.9H329c-6.1 0-10.9-4.9-10.9-10.9V386.2c-25.6 17.9-56.7 28.4-90.3 28.4-8 0-16-.6-23.7-1.8v249c0 31.3 25.4 56.8 56.8 56.8h277.7c31.3 0 56.8-25.4 56.8-56.8V321.2h-49.8zm-216 313.7H311v-19.6h18.6v19.6zm66.1-17.8c0 5.8-2.6 10.4-7.7 14-5.2 3.5-12.3 5.3-21.3 5.3-5 0-9.5-.5-13.5-1.4-4-.9-7.3-1.9-9.8-3.1v-14.6h1.7c.9.6 1.9 1.3 3.1 2.1 1.2.8 2.9 1.5 5 2.4 1.9.8 4 1.4 6.3 1.9 2.4.6 4.9.8 7.6.8 3.5 0 6.1-.4 7.8-1.2 1.7-.8 2.5-1.9 2.5-3.4 0-1.3-.5-2.4-1.5-2.9-1-.6-2.9-1.2-5.6-1.8-1.3-.3-3.1-.6-5.4-1-2.3-.3-4.4-.8-6.2-1.3-5-1.3-8.8-3.4-11.3-6.2-2.4-2.8-3.7-6.3-3.7-10.5 0-5.4 2.5-9.8 7.7-13.4s12-5.4 20.9-5.4c4.2 0 8.2.4 12 1.3 3.9.8 6.8 1.8 9 2.7v14.1h-1.5c-2.7-1.9-5.7-3.3-9.1-4.5-3.4-1.2-6.8-1.7-10.3-1.7-2.9 0-5.3.4-7.3 1.2-1.9.8-2.9 1.9-2.9 3.4 0 1.3.4 2.4 1.3 3 .9.7 3 1.4 6.3 2.1 1.9.3 3.8.8 5.9 1.1s4.2.8 6.3 1.3c4.7 1.3 8.2 3.2 10.4 5.8 2.2 2.7 3.3 6 3.3 9.9zm52.4-21.1h-1.6c-.8-.3-2-.5-3.7-.6-1.7-.2-3.1-.2-4.2-.2-2.5 0-4.8.2-6.7.5-1.9.3-4 .9-6.3 1.7v37.4h-18V579h18v8.2c4-3.4 7.4-5.6 10.3-6.7 2.9-1.1 5.6-1.7 8.1-1.7.6 0 1.3 0 2.1.1.8 0 1.5.1 2.1.2l-.1 16.9zm45.9 38.4c-1.9.5-4 .9-6.1 1.2-2.2.3-4.8.4-7.9.4-7 0-12.1-1.4-15.6-4.2-3.4-2.9-5.1-7.7-5.1-14.5v-26.2h-7.4V579h7.4v-16h18v16H494v12.1h-16.7V611c0 1.9 0 3.7.1 5.1 0 1.4.3 2.8.8 4 .5 1.2 1.3 2.1 2.4 2.8s2.9 1 5.1 1c.9 0 2.1-.2 3.6-.6 1.5-.4 2.5-.8 3.1-1.1h1.5l.1 12.2zM331.2 523.7h10.3c1.8 0 3.3-1.5 3.3-3.3v-10.6c0-1.8-1.4-3.3-3.3-3.3h-10.3c-1.8 0-3.3 1.5-3.3 3.3v10.6c0 1.8 1.4 3.3 3.3 3.3zM331.2 496.8h10.3c1.8 0 3.3-1.4 3.3-3.3v-10.6c0-1.9-1.4-3.3-3.3-3.3h-10.3c-1.8 0-3.3 1.4-3.3 3.3v10.6c0 1.9 1.4 3.3 3.3 3.3zM331.2 470h10.3c1.8 0 3.3-1.4 3.3-3.3v-10.6c0-1.9-1.4-3.3-3.3-3.3h-10.3c-1.8 0-3.3 1.5-3.3 3.3v10.6c0 1.7 1.4 3.3 3.3 3.3zM331.2 443h10.3c1.8 0 3.3-1.5 3.3-3.3v-10.6c0-1.9-1.4-3.3-3.3-3.3h-10.3c-1.8 0-3.3 1.5-3.3 3.3v10.6c0 1.9 1.4 3.3 3.3 3.3z"/></g></svg>