<svg xmlns="http://www.w3.org/2000/svg" viewBox="0 123.3 595.3 595.3" enable-background="new 0 123.3 595.3 595.3" width="40" height="40"><g fill="#006B8D"><path d="M551.8 298.7h43.5l-87-93.6v46.7c0 25.9 19.4 46.9 43.5 46.9zM457.9 496.1h10.2c1.8 0 3.3-1.4 3.3-3.3v-10.5c0-1.8-1.4-3.3-3.3-3.3h-10.2c-1.8 0-3.3 1.4-3.3 3.3v10.5c0 1.8 1.5 3.3 3.3 3.3zM359.4 438.3h80.7c1.8 0 3.3-1.5 3.3-3.3v-52.3c0-1.8-1.4-3.3-3.3-3.3h-80.7c-1.8 0-3.3 1.4-3.3 3.3V435c0 1.8 1.4 3.3 3.3 3.3zM457.9 522.9h10.2c1.8 0 3.3-1.5 3.3-3.3V509c0-1.8-1.4-3.3-3.3-3.3h-10.2c-1.8 0-3.3 1.4-3.3 3.3v10.6c0 1.9 1.5 3.3 3.3 3.3zM457.9 469.3h10.2c1.8 0 3.3-1.4 3.3-3.3v-10.6c0-1.8-1.4-3.3-3.3-3.3h-10.2c-1.8 0-3.3 1.4-3.3 3.3V466c0 1.8 1.5 3.3 3.3 3.3zM359.4 514.9h80.7c1.8 0 3.3-1.4 3.3-3.3v-48.4c0-1.8-1.4-3.3-3.3-3.3h-80.7c-1.8 0-3.3 1.4-3.3 3.3v48.4c0 1.9 1.4 3.3 3.3 3.3zM457.9 388.6h10.2c1.8 0 3.3-1.4 3.3-3.3v-10.6c0-1.8-1.4-3.3-3.3-3.3h-10.2c-1.8 0-3.3 1.4-3.3 3.3v10.6c0 1.8 1.5 3.3 3.3 3.3zM457.9 442.4h10.2c1.8 0 3.3-1.5 3.3-3.3v-10.6c0-1.8-1.4-3.3-3.3-3.3h-10.2c-1.8 0-3.3 1.5-3.3 3.3v10.6c0 1.8 1.5 3.3 3.3 3.3zM457.9 415.4h10.2c1.8 0 3.3-1.5 3.3-3.3v-10.6c0-1.8-1.4-3.3-3.3-3.3h-10.2c-1.8 0-3.3 1.4-3.3 3.3v10.6c0 1.9 1.5 3.3 3.3 3.3zM331.2 415.4h10.2c1.8 0 3.3-1.5 3.3-3.3v-10.6c0-1.8-1.4-3.3-3.3-3.3h-10.2c-1.8 0-3.3 1.4-3.3 3.3v10.6c.1 1.9 1.6 3.3 3.3 3.3zM331.2 522.9h10.2c1.8 0 3.3-1.5 3.3-3.3V509c0-1.8-1.4-3.3-3.3-3.3h-10.2c-1.8 0-3.3 1.4-3.3 3.3v10.6c.1 1.9 1.6 3.3 3.3 3.3zM331.2 496.1h10.2c1.8 0 3.3-1.4 3.3-3.3v-10.5c0-1.8-1.4-3.3-3.3-3.3h-10.2c-1.8 0-3.3 1.4-3.3 3.3v10.5c.1 1.8 1.6 3.3 3.3 3.3zM545.9 321.2c-27.1 0-60.3-34.6-60.3-63.5v-52.6H260.9c-31.3.2-56.7 25.6-56.7 56.9v399.9c0 31.3 25.4 56.7 56.7 56.7h277.6c31.3 0 56.7-25.4 56.7-56.7V321.2h-49.3zm-227.8 51.1c0-6 4.9-10.9 11-10.9h141.3c6 0 11 4.9 11 10.9v149.9c0 6-4.9 10.9-11 10.9H329.1c-6 0-11-4.9-11-10.9V372.3zm-10.8 262.6h-18.6v-19.6h18.6v19.6zm66.1-17.7c0 5.8-2.6 10.4-7.8 13.9-5.2 3.5-12.2 5.3-21.2 5.3-5 0-9.5-.5-13.5-1.4-4.1-.9-7.3-2-9.7-3.1v-14.7h1.6c.9.7 1.9 1.3 3.1 2 1.2.7 2.8 1.6 5 2.4 1.8.8 3.9 1.4 6.3 2 2.4.5 4.9.8 7.6.8 3.5 0 6.1-.4 7.8-1.2 1.7-.8 2.6-1.9 2.6-3.5 0-1.4-.5-2.4-1.5-3-1-.6-2.9-1.2-5.7-1.8-1.3-.3-3.2-.6-5.4-1-2.3-.3-4.3-.8-6.2-1.2-5.1-1.3-8.9-3.4-11.3-6.2-2.4-2.8-3.7-6.3-3.7-10.4 0-5.4 2.6-9.9 7.6-13.4 5.1-3.5 12-5.3 20.9-5.3 4.2 0 8.2.4 12 1.2 3.8.9 6.8 1.8 9 2.7v14.1h-1.5c-2.6-1.8-5.7-3.3-9.1-4.5-3.4-1.1-6.8-1.7-10.3-1.7-2.9 0-5.3.4-7.3 1.2s-3 1.9-3 3.4c0 1.3.5 2.4 1.3 3 .9.7 3 1.4 6.3 2.1 1.8.4 3.8.7 5.9 1.1 2.1.3 4.2.8 6.4 1.3 4.7 1.2 8.2 3.2 10.4 5.8 2.3 2.9 3.4 6.2 3.4 10.1zm101-38.2l-17.3 55.8H438l-11.4-37.6-11.2 37.6h-19.2L379.1 579h18.8l9.6 38.5 11.9-38.5h15.8l11.3 38.5L456 579h18.4zm46.9-8.4H520c-.8-.3-1.8-.5-3.1-.8s-2.6-.5-4.1-.5c-3.5 0-5.8.7-7.1 1.9-1.2 1.2-1.8 3.7-1.8 7.3v.5h13.8v12.2h-13.3v43.7h-17.9v-43.7h-7.7V579h7.7v-1.5c0-6.8 1.8-12 5.5-15.4s9.1-5.1 16.5-5.1c2.6 0 5.1.1 7.2.3 2.2.2 4.1.4 5.7.7l-.1 12.6zM331.2 469.3h10.2c1.8 0 3.3-1.4 3.3-3.3v-10.6c0-1.8-1.4-3.3-3.3-3.3h-10.2c-1.8 0-3.3 1.4-3.3 3.3V466c.1 1.8 1.6 3.3 3.3 3.3zM331.2 388.6h10.2c1.8 0 3.3-1.4 3.3-3.3v-10.6c0-1.8-1.4-3.3-3.3-3.3h-10.2c-1.8 0-3.3 1.4-3.3 3.3v10.6c.1 1.8 1.6 3.3 3.3 3.3zM331.2 442.4h10.2c1.8 0 3.3-1.5 3.3-3.3v-10.6c0-1.8-1.4-3.3-3.3-3.3h-10.2c-1.8 0-3.3 1.5-3.3 3.3v10.6c.1 1.8 1.6 3.3 3.3 3.3z"/></g></svg>