<svg xmlns="http://www.w3.org/2000/svg" viewBox="0 123.3 595.3 595.3" enable-background="new 0 123.3 595.3 595.3" width="40" height="40"><g><path fill="#006B8D" d="M228.4 145.2c61.4 0 111.5 50 111.5 111.5s-50 111.5-111.5 111.5S117 318.1 117 256.6s49.9-111.4 111.4-111.4m0-21.9C154.8 123.3 95 183 95 256.6 95 330.2 154.7 390 228.4 390s133.3-59.6 133.3-133.3c-.1-73.7-59.6-133.4-133.3-133.4zM272.5 247.2h-67.6v-23.1c0-6.5 2.3-12 6.9-16.7 4.6-4.6 10.1-6.9 16.7-6.9s12 2.3 16.7 6.9c4.5 4.5 6.8 10 6.9 16.4 0 .1 0-.1 0 0 0 1.5.6 3 1.8 4.2 1.2 1.2 2.5 1.8 4.2 1.8h5.8c1.5 0 3-.6 4.2-1.8 1.2-1.2 1.8-2.5 1.8-4.2 0-.1 0 .1 0 0-.1-11.2-4-20.8-12.1-28.8-8.1-8.1-17.7-12.1-29-12.1s-21.1 4-29 12.1c-8.1 8.1-12.1 17.7-12.1 29v23.1h-3c-2.5 0-4.5.8-6.3 2.6-1.7 1.7-2.6 3.8-2.6 6.3v65.6c0 2.5.8 4.5 2.6 6.3 1.7 1.7 3.8 2.6 6.3 2.6h88.1c2.5 0 4.5-.8 6.3-2.6 1.7-1.7 2.6-3.8 2.6-6.3v-65.5c0-2.5-.8-4.5-2.6-6.3-2.1-1.6-4.1-2.6-6.6-2.6zm-37.2 43.2v17.3c0 3.5-2.9 6.3-6.3 6.3h-1.2c-3.5 0-6.3-2.9-6.3-6.3v-17.3c-3.7-2.3-6.2-6.4-6.2-11.1 0-7.3 5.8-13.1 13.1-13.1s13.1 5.8 13.1 13.1c-.1 4.6-2.5 8.7-6.2 11.1zM551.7 298.9h43.5l-86.9-93.3v46.7c0 25.8 19.4 46.6 43.4 46.6zM545.9 321.4c-27.1 0-60.2-34.5-60.2-63.5v-52.5H377.1c5.6 16.2 8.7 33.6 8.7 51.6 0 53.2-26.3 100.2-66.6 128.8h161.5c6 0 10.8 4.8 10.8 10.8 0 6-4.8 10.8-10.8 10.8H318.6c-6 0-10.8-4.8-10.8-10.8 0-1.3.3-2.7.8-3.9-23.6 14-51.2 22.1-80.6 22.1-8 0-16-.6-23.7-1.8v248.9c0 31.3 25.4 56.7 56.7 56.7h277.5c31.3 0 56.7-25.4 56.7-56.7V321.4h-49.3zM318.6 423.3h162.1c6 0 10.8 4.8 10.8 10.8s-4.8 10.8-10.8 10.8H318.6c-6 0-10.8-4.8-10.8-10.8.1-6 4.8-10.8 10.8-10.8zm0 37.8h162.1c6 0 10.8 4.8 10.8 10.8s-4.8 10.8-10.8 10.8H318.6c-6 0-10.8-4.8-10.8-10.8s4.8-10.8 10.8-10.8zm0 37.5h162.1c6 0 10.8 4.8 10.8 10.8 0 6-4.8 10.8-10.8 10.8H318.6c-6 0-10.8-4.8-10.8-10.8.1-6 4.8-10.8 10.8-10.8zm10.2 135.3h-18.6v-19.5h18.6v19.5zm53.1-43.5h-16.6v19.7c0 1.9 0 3.7.1 5.1 0 1.4.3 2.8.8 3.9.4 1.2 1.3 2.1 2.4 2.8 1.2.7 2.9 1 5.1 1 .9 0 2.1-.2 3.6-.6s2.5-.8 3.1-1.1h1.5v12.2c-1.9.5-3.9.8-6.1 1.2-2.2.3-4.8.4-7.9.4-7 0-12.1-1.4-15.5-4.2-3.4-2.8-5-7.6-5-14.5v-26H340v-12.1h7.3v-15.9h17.9v15.9h16.6v12.2zm47.9 43.5L418 617.3l-12.2 16.6h-20.4l21.9-27.8-21.6-27.8h20.8l11.7 16.3 11.8-16.3h20.4l-21.7 27.4 21.9 28.2h-20.8zm66.2-43.5h-16.6v19.7c0 1.9 0 3.7.1 5.1 0 1.4.3 2.8.8 3.9.4 1.2 1.3 2.1 2.4 2.8s2.9 1 5.1 1c.9 0 2.1-.2 3.6-.6s2.5-.8 3.1-1.1h1.5v12.2c-1.9.5-3.9.8-6.1 1.2-2.2.3-4.8.4-7.9.4-7 0-12.1-1.4-15.5-4.2-3.4-2.8-5-7.6-5-14.5v-26h-7.3v-12.1h7.3v-15.9h17.9v15.9H496v12.2z"/></g></svg>