<svg xmlns="http://www.w3.org/2000/svg" viewBox="0 123.3 595.3 595.3" enable-background="new 0 123.3 595.3 595.3" width="40" height="40"><path fill="#006B8D" d="M551.8 298.6h43.5l-86.9-93.4V252c0 25.9 19.4 46.6 43.4 46.6zM546 321.2c-27.2 0-60.2-34.5-60.2-63.6v-52.5h-225c-31.4.1-56.8 25.5-56.8 56.9v150.9l.1.1v248.9c0 31.4 25.4 56.7 56.7 56.7h277.7c31.4 0 56.7-25.4 56.7-56.7V321.2H546zM480.6 520H318.5c-5.9 0-10.7-4.8-10.7-10.7 0-5.9 4.8-10.7 10.7-10.7h162.1c5.9 0 10.7 4.8 10.7 10.7.1 5.9-4.7 10.7-10.7 10.7zm0-37.6H318.5c-5.9 0-10.7-4.8-10.7-10.7 0-5.9 4.8-10.7 10.7-10.7h162.1c5.9 0 10.7 4.8 10.7 10.7.1 5.9-4.7 10.7-10.7 10.7zm0-37.7H318.5c-5.9 0-10.7-4.8-10.7-10.7 0-5.9 4.8-10.7 10.7-10.7h162.1c5.9 0 10.7 4.8 10.7 10.7.1 5.9-4.7 10.7-10.7 10.7zm0-37.6H318.5c-5.9 0-10.7-4.8-10.7-10.7 0-5.9 4.8-10.7 10.7-10.7h162.1c5.9 0 10.7 4.8 10.7 10.7.1 5.9-4.7 10.7-10.7 10.7zM328.7 633.8h-18.5v-19.5h18.5v19.5zm53.1-.5c-1.9.5-3.9.9-6.1 1.2-2.2.3-4.8.4-7.9.4-7 0-12.1-1.4-15.5-4.2-3.4-2.8-5.1-7.6-5.1-14.4v-26h-7.4v-12.1h7.4v-15.9h17.9v15.9h16.6v12.1h-16.6V610c0 2 0 3.7.1 5.1 0 1.4.3 2.8.8 3.9s1.2 2.1 2.4 2.8c1.2.7 2.9 1 5.1 1 .9 0 2.1-.2 3.6-.6 1.5-.4 2.6-.8 3.2-1.1h1.5v12.2zm68.8.5h-20.8l-11.9-16.6-12.2 16.6h-20.4l22-27.9-21.6-27.8h20.9l11.7 16.3 11.8-16.3h20.4l-21.6 27.4 21.7 28.3zm45.3-.5c-1.9.5-3.9.9-6.1 1.2-2.2.3-4.8.4-7.9.4-7 0-12.1-1.4-15.5-4.2-3.4-2.8-5.1-7.6-5.1-14.4v-26H454v-12.1h7.4v-15.9h17.9v15.9H496v12.1h-16.6V610c0 2 0 3.7.1 5.1 0 1.4.3 2.8.8 3.9s1.2 2.1 2.4 2.8c1.2.7 2.9 1 5.1 1 .9 0 2.1-.2 3.6-.6 1.5-.4 2.6-.8 3.2-1.1h1.5l-.2 12.2z"/></svg>