<svg xmlns="http://www.w3.org/2000/svg" viewBox="0 123.3 595.3 595.3" enable-background="new 0 123.3 595.3 595.3" width="40" height="40"><path fill="#006B8D" d="M297.8 172.4c137.2 0 248.8 111.7 248.8 248.8S434.9 670 297.8 670 48.9 558.3 48.9 421.2s111.3-248.8 248.9-248.8m0-49C133.5 123.4 0 256.6 0 421.2c0 164.3 133.1 297.6 297.6 297.6s297.6-133.1 297.6-297.6c0-164.6-133.3-297.8-297.4-297.8zM396.1 399.9h-151v-51.6c0-14.6 5-26.8 15.4-37.3 10.4-10.4 22.6-15.4 37.3-15.4s26.8 5 37.3 15.4c10.1 10.1 15.1 22.4 15.4 36.7v53.5c0 3.5 1.3 6.7 3.9 9.3s5.6 3.9 9.3 3.9h13c3.5 0 6.7-1.3 9.3-3.9s3.9-5.6 3.9-9.3v-53.7c-.2-25-9-46.6-27.1-64.3-18.1-18.1-39.6-27.1-64.9-27.1-25.2 0-47 9-64.9 27.1-18.1 18.1-27.1 39.6-27.1 64.9v51.6h-6.7c-5.6 0-10.1 1.9-14 5.8-3.7 3.7-5.8 8.5-5.8 14V566c0 5.6 1.9 10.1 5.8 14 3.7 3.7 8.5 5.8 14 5.8h197.3c5.6 0 10.1-1.9 14-5.8 3.7-3.7 5.8-8.5 5.8-14V419.5c0-5.6-1.9-10.1-5.8-14-4.4-3.5-8.8-5.6-14.4-5.6zm-83 96.2v38.6c0 7.7-6.4 14-14 14h-2.6c-7.7 0-14-6.4-14-14v-38.6c-8.2-5-13.8-14.4-13.8-24.8 0-16.2 13-29.3 29.3-29.3s29.3 13 29.3 29.3c-.6 10.5-6 19.5-14.2 24.8z"/></svg>