<svg xmlns="http://www.w3.org/2000/svg" viewBox="0 123.3 595.3 595.3" enable-background="new 0 123.3 595.3 595.3" width="40" height="40"><g fill="#006B8D"><path d="M551.8 298.7h43.5l-87-93.6v46.7c0 25.9 19.4 46.9 43.5 46.9zM457.9 496h10.2c1.8 0 3.3-1.4 3.3-3.3v-10.5c0-1.8-1.4-3.3-3.3-3.3h-10.2c-1.8 0-3.3 1.4-3.3 3.3v10.5c0 1.8 1.5 3.3 3.3 3.3zM359.4 438.2h80.7c1.8 0 3.3-1.5 3.3-3.3v-52.3c0-1.8-1.4-3.3-3.3-3.3h-80.7c-1.8 0-3.3 1.4-3.3 3.3V435c0 1.7 1.4 3.2 3.3 3.2zM457.9 522.9h10.2c1.8 0 3.3-1.5 3.3-3.3V509c0-1.8-1.4-3.3-3.3-3.3h-10.2c-1.8 0-3.3 1.4-3.3 3.3v10.6c0 1.8 1.5 3.3 3.3 3.3zM457.9 469.2h10.2c1.8 0 3.3-1.4 3.3-3.3v-10.6c0-1.8-1.4-3.3-3.3-3.3h-10.2c-1.8 0-3.3 1.4-3.3 3.3v10.6c0 1.8 1.5 3.3 3.3 3.3zM359.4 514.8h80.7c1.8 0 3.3-1.4 3.3-3.3v-48.4c0-1.8-1.4-3.3-3.3-3.3h-80.7c-1.8 0-3.3 1.4-3.3 3.3v48.4c0 1.9 1.4 3.3 3.3 3.3zM457.9 388.5h10.2c1.8 0 3.3-1.4 3.3-3.3v-10.6c0-1.8-1.4-3.3-3.3-3.3h-10.2c-1.8 0-3.3 1.4-3.3 3.3v10.6c0 1.9 1.5 3.3 3.3 3.3zM457.9 442.3h10.2c1.8 0 3.3-1.5 3.3-3.3v-10.6c0-1.8-1.4-3.3-3.3-3.3h-10.2c-1.8 0-3.3 1.5-3.3 3.3V439c0 1.8 1.5 3.3 3.3 3.3zM457.9 415.4h10.2c1.8 0 3.3-1.5 3.3-3.3v-10.6c0-1.8-1.4-3.3-3.3-3.3h-10.2c-1.8 0-3.3 1.4-3.3 3.3v10.6c0 1.8 1.5 3.3 3.3 3.3zM331.2 415.4h10.2c1.8 0 3.3-1.5 3.3-3.3v-10.6c0-1.8-1.4-3.3-3.3-3.3h-10.2c-1.8 0-3.3 1.4-3.3 3.3v10.6c.1 1.8 1.6 3.3 3.3 3.3zM331.2 522.9h10.2c1.8 0 3.3-1.5 3.3-3.3V509c0-1.8-1.4-3.3-3.3-3.3h-10.2c-1.8 0-3.3 1.4-3.3 3.3v10.6c.1 1.8 1.6 3.3 3.3 3.3zM331.2 496h10.2c1.8 0 3.3-1.4 3.3-3.3v-10.5c0-1.8-1.4-3.3-3.3-3.3h-10.2c-1.8 0-3.3 1.4-3.3 3.3v10.5c.1 1.8 1.6 3.3 3.3 3.3zM545.9 321.2c-27.1 0-60.3-34.6-60.3-63.5v-52.6H260.9c-31.3.2-56.7 25.6-56.7 56.9v399.9c0 31.3 25.4 56.7 56.7 56.7h277.6c31.3 0 56.7-25.4 56.7-56.7V321.2h-49.3zm-227.8 51.1c0-6 4.9-10.9 11-10.9h141.3c6 0 11 4.9 11 10.9v149.9c0 6-4.9 10.9-11 10.9H329.1c-6 0-11-4.9-11-10.9V372.3zm-12.8 262.4h-18.6v-19.6h18.6v19.6zm73.8-55.9l-21.5 55.8h-20.3l-21.4-55.8h18.9l12.9 38.4 12.8-38.4h18.6zm67 28c0 9.2-2.7 16.4-8 21.7-5.4 5.3-12.9 7.9-22.5 7.9s-17.2-2.6-22.5-7.9c-5.4-5.3-8-12.5-8-21.7 0-9.3 2.7-16.5 8.1-21.8 5.4-5.3 12.9-7.9 22.5-7.9 9.7 0 17.3 2.6 22.6 7.9 5.1 5.3 7.8 12.6 7.8 21.8zm-22 13.6c1.2-1.4 2-3.2 2.6-5.1.6-2 .9-4.8.9-8.3 0-3.3-.3-6-.9-8.3-.6-2.2-1.4-4-2.5-5.3-1.1-1.4-2.4-2.3-3.8-2.9s-3.1-.9-4.8-.9c-1.7 0-3.3.3-4.6.7-1.3.5-2.6 1.4-3.9 2.8-1.1 1.3-2 3.1-2.6 5.3-.7 2.2-1 5.1-1 8.5 0 3 .3 5.7.9 7.9.6 2.2 1.4 4 2.5 5.4 1.1 1.3 2.3 2.2 3.8 2.8 1.4.6 3.2.9 5.1.9 1.6 0 3.2-.3 4.7-.8 1.3-.5 2.6-1.4 3.6-2.7zm93.1-14.4c0 8.8-2.4 16-7.3 21.5s-10.9 8.3-18.1 8.3c-3.1 0-5.8-.3-8.2-1s-4.6-1.6-6.7-2.9l-.7 2.8H459v-77.3h17.9v27.4c2.8-2.2 5.6-3.9 8.4-5.3 2.9-1.4 6.2-2 9.9-2 7 0 12.5 2.6 16.3 7.6 3.8 4.9 5.7 11.9 5.7 20.9zm-18.4.4c0-5-.9-8.8-2.6-11.5s-4.7-4-9-4c-1.7 0-3.4.3-5.2.8s-3.5 1.2-5.1 2.2v28c1.3.5 2.5.8 3.7.9 1.2.2 2.6.3 4.1.3 4.7 0 8.3-1.4 10.6-4.1 2.4-2.9 3.5-7 3.5-12.6zM331.2 469.2h10.2c1.8 0 3.3-1.4 3.3-3.3v-10.6c0-1.8-1.4-3.3-3.3-3.3h-10.2c-1.8 0-3.3 1.4-3.3 3.3v10.6c.1 1.8 1.6 3.3 3.3 3.3zM331.2 388.5h10.2c1.8 0 3.3-1.4 3.3-3.3v-10.6c0-1.8-1.4-3.3-3.3-3.3h-10.2c-1.8 0-3.3 1.4-3.3 3.3v10.6c.1 1.9 1.6 3.3 3.3 3.3zM331.2 442.3h10.2c1.8 0 3.3-1.5 3.3-3.3v-10.6c0-1.8-1.4-3.3-3.3-3.3h-10.2c-1.8 0-3.3 1.5-3.3 3.3V439c.1 1.8 1.6 3.3 3.3 3.3z"/></g></svg>