<svg xmlns="http://www.w3.org/2000/svg" viewBox="0 123.3 595.3 595.3" enable-background="new 0 123.3 595.3 595.3" width="40" height="40"><g fill="#006B8D"><path d="M551.8 298.6h43.5l-86.9-93.4V252c0 25.8 19.5 46.6 43.4 46.6zM485.6 257.7v-52.5h-.1c0-.1.1-.1.1-.1H261c-31.3.1-56.7 25.5-56.7 56.8v400c0 31.3 25.4 56.7 56.7 56.7h277.5c31.3 0 56.7-25.4 56.7-56.7V321.2h-49.3c-27.2 0-60.3-34.4-60.3-63.5zm-75.4 233.5c-3.7-17.5 10.5-35.2 31.7-39.8 7.7-1.7 15.4-1.3 22 .7v-67.3l-75.2 15.8v99.2c0 .7-.1 1.4-.2 2-.2 15.4-13.5 29.6-32.3 33.7-21.2 4.5-41.3-6-45-23.5-3.7-17.4 10.5-35.2 31.7-39.8 7.7-1.7 15.4-1.3 22 .7v-82.1c0-5.6 3.9-10.5 9.4-11.7l99.3-21c.4-.1.7-.1 1.2-.1s.8-.1 1.2-.1c.1 0 .4 0 .5.1.6 0 1.2 0 1.8.1.4.1.7.2 1.1.4.4.1.7.2 1.1.4l1.2.6c.2.1.6.2.8.5.4.2.6.5 1 .7.2.2.6.5.8.7.2.2.5.6.7.8.2.2.5.6.7.8.2.4.5.8.7 1.2.1.2.4.6.5.8.2.6.5 1.2.6 1.9 0 .1.1.2.1.4.1.4.1.8.1 1.3.2.6.2 1 .2 1.4v108.9c0 .7-.1 1.4-.2 2-.2 15.4-13.5 29.6-32.3 33.7-21.3 4.6-41.4-6-45.2-23.4zM291.5 635.9h-18.7v-19.6h18.7v19.6zm107.1-56l-17.3 56h-19.1l-11.4-37.8-11.3 37.8h-19.3l-17.2-56h18.9l9.6 38.6 12-38.6h15.9l11.4 38.6 9.5-38.6h18.3zm44.6 50c-1 .7-2.2 1.6-3.6 2.6-1.4 1.1-2.8 1.8-4.1 2.4-1.8.8-3.6 1.4-5.5 1.8-1.9.4-4 .6-6.2.6-5.3 0-9.8-1.6-13.4-4.9-3.6-3.3-5.4-7.5-5.4-12.6 0-4.1.9-7.4 2.8-10.1s4.4-4.7 7.8-6.1c3.4-1.5 7.4-2.6 12.4-3.2 4.9-.7 10.1-1.1 15.3-1.4v-.3c0-3.1-1.2-5.3-3.8-6.4-2.5-1.2-6.2-1.8-11.2-1.8-3 0-6.1.5-9.5 1.6-3.4 1.1-5.8 1.8-7.2 2.4H410V581c1.9-.5 5-1.1 9.3-1.8 4.3-.7 8.5-1.1 12.9-1.1 10.2 0 17.6 1.6 22.1 4.7 4.5 3.2 6.8 8.1 6.8 14.8v38.1h-17.8v-5.8zm0-8.7v-11.6c-2.4.2-5.1.5-7.9.8-2.8.3-5 .7-6.4 1.2-1.8.6-3.2 1.4-4.1 2.4-1 1.1-1.4 2.5-1.4 4.3 0 1.2.1 2.1.3 2.8.2.7.7 1.4 1.5 2.1.8.7 1.7 1.2 2.8 1.4 1.1.3 2.8.5 5 .5 1.8 0 3.6-.4 5.5-1.1 1.7-.6 3.4-1.5 4.7-2.8zm90.8-41.3l-21.6 56H492l-21.5-56h19l13 38.6 12.8-38.6H534z"/></g></svg>