<svg xmlns="http://www.w3.org/2000/svg" viewBox="0 123.3 595.3 595.3" enable-background="new 0 123.3 595.3 595.3" width="40" height="40"><g><g fill="#006B8D"><path d="M227.6 145.3c61.5 0 111.6 50.1 111.6 111.6s-50.1 111.6-111.6 111.6S116 318.3 116 256.9s49.9-111.6 111.6-111.6m0-22C153.9 123.3 94 183.1 94 256.9c0 73.7 59.8 133.6 133.6 133.6s133.6-59.8 133.6-133.6c-.1-73.8-59.9-133.6-133.6-133.6zM271.7 247.3h-67.8v-23.2c0-6.6 2.3-12 6.9-16.7s10.1-6.9 16.7-6.9 12 2.3 16.7 6.9c4.5 4.5 6.8 10 6.9 16.5v24c0 1.5.6 2.9 1.8 4.2 1.2 1.2 2.5 1.8 4.2 1.8h5.8c1.5 0 2.9-.6 4.2-1.8 1.2-1.2 1.8-2.5 1.8-4.2v-24.1c-.1-11.2-4-20.9-12.2-28.9-8.1-8.1-17.8-12.2-29.1-12.2-11.4 0-21.1 4-29.1 12.2-8.1 8.1-12.2 17.8-12.2 29.1v23.2h-2.9c-2.5 0-4.5.8-6.3 2.6-1.7 1.7-2.6 3.8-2.6 6.3v65.7c0 2.5.8 4.5 2.6 6.3 1.7 1.7 3.8 2.6 6.3 2.6h88.5c2.5 0 4.5-.8 6.3-2.6 1.7-1.7 2.6-3.8 2.6-6.3v-65.7c0-2.5-.8-4.5-2.6-6.3-2-1.5-4-2.5-6.5-2.5zm-37.2 43.2v17.3c0 3.5-2.9 6.3-6.3 6.3H227c-3.5 0-6.3-2.9-6.3-6.3v-17.3c-3.7-2.3-6.2-6.5-6.2-11.1 0-7.2 5.8-13.1 13.1-13.1 7.2 0 13.1 5.8 13.1 13.1-.1 4.7-2.5 8.7-6.2 11.1z"/></g><path fill="#006B8D" d="M551.4 298.7H595l-86.9-93.4V252c0 26 19.3 46.7 43.3 46.7zM457.8 523.7h10.3c1.9 0 3.3-1.5 3.3-3.3v-10.6c0-1.8-1.4-3.3-3.3-3.3h-10.3c-1.8 0-3.3 1.5-3.3 3.3v10.6c0 1.8 1.5 3.3 3.3 3.3zM457.8 496.8h10.3c1.9 0 3.3-1.4 3.3-3.3v-10.6c0-1.9-1.4-3.3-3.3-3.3h-10.3c-1.8 0-3.3 1.4-3.3 3.3v10.6c0 1.8 1.5 3.3 3.3 3.3zM457.8 469.9h10.3c1.9 0 3.3-1.4 3.3-3.3V456c0-1.9-1.4-3.3-3.3-3.3h-10.3c-1.8 0-3.3 1.5-3.3 3.3v10.6c0 1.8 1.5 3.3 3.3 3.3zM359.2 438.9H440c1.8 0 3.3-1.5 3.3-3.3v-52.4c0-1.9-1.5-3.3-3.3-3.3h-80.7c-1.9 0-3.3 1.4-3.3 3.3v52.4c-.1 1.8 1.4 3.3 3.2 3.3zM359.2 515.7H440c1.8 0 3.3-1.5 3.3-3.3V464c0-1.8-1.5-3.3-3.3-3.3h-80.7c-1.9 0-3.3 1.4-3.3 3.3v48.4c-.1 1.8 1.4 3.3 3.2 3.3zM457.8 389.2h10.3c1.9 0 3.3-1.4 3.3-3.3v-10.6c0-1.9-1.4-3.3-3.3-3.3h-10.3c-1.8 0-3.3 1.4-3.3 3.3V386c0 1.7 1.5 3.2 3.3 3.2zM331.1 416.1h10.3c1.8 0 3.3-1.5 3.3-3.3v-10.6c0-1.9-1.4-3.3-3.3-3.3h-10.3c-1.8 0-3.3 1.4-3.3 3.3v10.6c0 1.9 1.5 3.3 3.3 3.3zM457.8 443h10.3c1.9 0 3.3-1.5 3.3-3.3v-10.6c0-1.9-1.4-3.3-3.3-3.3h-10.3c-1.8 0-3.3 1.5-3.3 3.3v10.6c0 1.8 1.5 3.3 3.3 3.3zM327.8 386c0 1.9 1.5 3.3 3.3 3.3h10.3c1.8 0 3.3-1.4 3.3-3.3v-10.6c0-1.9-1.4-3.3-3.3-3.3h-6.1c-2.4 2.3-4.9 4.5-7.4 6.5v7.4h-.1zM457.8 416.1h10.3c1.9 0 3.3-1.5 3.3-3.3v-10.6c0-1.9-1.4-3.3-3.3-3.3h-10.3c-1.8 0-3.3 1.4-3.3 3.3v10.6c0 1.9 1.5 3.3 3.3 3.3zM545.5 321.1c-27.1 0-60.2-34.5-60.2-63.6v-52.6H376.7c5.6 16.2 8.8 33.7 8.8 51.7 0 40.5-15.2 77.4-40.3 105.3h125.1c6.1 0 10.9 5 10.9 10.9v149.9c0 6.1-5 10.9-10.9 10.9H328.9c-6.1 0-10.9-4.9-10.9-10.9V386.1c-25.6 17.9-56.7 28.4-90.2 28.4-8 0-16-.6-23.7-1.8v249c0 31.3 25.4 56.8 56.8 56.8h277.6c31.3 0 56.8-25.4 56.8-56.8V321.1h-49.8zM271.8 634.5h-18.6V615h18.6v19.5zm106.7-55.9l-17.3 55.9h-19l-11.4-37.6-11.3 37.6h-19.2l-17.2-55.9H302l9.6 38.5 12-38.5h15.9l11.4 38.5 9.4-38.5h18.2zm65.3 16.2v39.6h-17.9v-27.9c0-2.7-.1-5.1-.2-6.9-.2-1.9-.5-3.5-1.1-4.6-.6-1.2-1.5-2.1-2.7-2.6-1.2-.6-2.9-.8-5.1-.8-1.8 0-3.5.3-5.1 1.1-1.7.7-3.1 1.4-4.5 2.3v39.6h-17.9v-55.9h17.9v6.1c3.1-2.4 6.1-4.3 8.8-5.6s5.9-2 9.3-2c3.7 0 6.9.8 9.8 2.4 2.8 1.7 5.1 4 6.7 7.2 3.5-3 7.1-5.4 10.4-7.2 3.4-1.7 6.7-2.6 9.9-2.6 6.1 0 10.6 1.8 13.7 5.4 3.1 3.6 4.7 8.8 4.7 15.7v36.4h-17.9v-27.9c0-2.8-.1-5.1-.2-7-.1-1.9-.5-3.5-1.1-4.6-.6-1.2-1.4-2.1-2.7-2.6-1.3-.6-2.9-.8-5.1-.8-1.5 0-2.9.3-4.4.8-1.5.4-3.2 1.3-5.3 2.4zm109.6-16.2l-21.6 55.9h-20.3l-21.4-55.9H509l13 38.5 12.8-38.5h18.6zM331.1 523.7h10.3c1.8 0 3.3-1.5 3.3-3.3v-10.6c0-1.8-1.4-3.3-3.3-3.3h-10.3c-1.8 0-3.3 1.5-3.3 3.3v10.6c0 1.8 1.5 3.3 3.3 3.3zM331.1 496.8h10.3c1.8 0 3.3-1.4 3.3-3.3v-10.6c0-1.9-1.4-3.3-3.3-3.3h-10.3c-1.8 0-3.3 1.4-3.3 3.3v10.6c0 1.8 1.5 3.3 3.3 3.3zM331.1 469.9h10.3c1.8 0 3.3-1.4 3.3-3.3V456c0-1.9-1.4-3.3-3.3-3.3h-10.3c-1.8 0-3.3 1.5-3.3 3.3v10.6c0 1.8 1.5 3.3 3.3 3.3zM331.1 443h10.3c1.8 0 3.3-1.5 3.3-3.3v-10.6c0-1.9-1.4-3.3-3.3-3.3h-10.3c-1.8 0-3.3 1.5-3.3 3.3v10.6c0 1.8 1.5 3.3 3.3 3.3z"/></g></svg>