<svg xmlns="http://www.w3.org/2000/svg" viewBox="0 123.3 595.3 595.3" enable-background="new 0 123.3 595.3 595.3" width="40" height="40"><g fill="#006B8D"><path d="M551.8 298.7h43.5l-87-93.6v46.7c0 25.9 19.4 46.9 43.5 46.9zM457.9 495.9h10.2c1.8 0 3.3-1.4 3.3-3.3v-10.5c0-1.8-1.4-3.3-3.3-3.3h-10.2c-1.8 0-3.3 1.4-3.3 3.3v10.5c0 1.9 1.5 3.3 3.3 3.3zM359.4 438.2h80.7c1.8 0 3.3-1.5 3.3-3.3v-52.3c0-1.8-1.4-3.3-3.3-3.3h-80.7c-1.8 0-3.3 1.4-3.3 3.3v52.3c0 1.8 1.4 3.3 3.3 3.3zM457.9 522.8h10.2c1.8 0 3.3-1.5 3.3-3.3v-10.6c0-1.8-1.4-3.3-3.3-3.3h-10.2c-1.8 0-3.3 1.4-3.3 3.3v10.6c0 1.9 1.5 3.3 3.3 3.3zM457.9 469.1h10.2c1.8 0 3.3-1.4 3.3-3.3v-10.6c0-1.8-1.4-3.3-3.3-3.3h-10.2c-1.8 0-3.3 1.4-3.3 3.3v10.6c0 1.9 1.5 3.3 3.3 3.3zM359.4 514.8h80.7c1.8 0 3.3-1.4 3.3-3.3v-48.4c0-1.8-1.4-3.3-3.3-3.3h-80.7c-1.8 0-3.3 1.4-3.3 3.3v48.4c0 1.8 1.4 3.3 3.3 3.3zM457.9 388.5h10.2c1.8 0 3.3-1.4 3.3-3.3v-10.6c0-1.8-1.4-3.3-3.3-3.3h-10.2c-1.8 0-3.3 1.4-3.3 3.3v10.6c0 1.8 1.5 3.3 3.3 3.3zM457.9 442.3h10.2c1.8 0 3.3-1.5 3.3-3.3v-10.6c0-1.8-1.4-3.3-3.3-3.3h-10.2c-1.8 0-3.3 1.5-3.3 3.3V439c0 1.7 1.5 3.3 3.3 3.3zM457.9 415.3h10.2c1.8 0 3.3-1.5 3.3-3.3v-10.6c0-1.8-1.4-3.3-3.3-3.3h-10.2c-1.8 0-3.3 1.4-3.3 3.3V412c0 1.9 1.5 3.3 3.3 3.3zM331.2 415.3h10.2c1.8 0 3.3-1.5 3.3-3.3v-10.6c0-1.8-1.4-3.3-3.3-3.3h-10.2c-1.8 0-3.3 1.4-3.3 3.3V412c0 1.9 1.6 3.3 3.3 3.3zM331.2 522.8h10.2c1.8 0 3.3-1.5 3.3-3.3v-10.6c0-1.8-1.4-3.3-3.3-3.3h-10.2c-1.8 0-3.3 1.4-3.3 3.3v10.6c0 1.9 1.6 3.3 3.3 3.3zM331.2 495.9h10.2c1.8 0 3.3-1.4 3.3-3.3v-10.5c0-1.8-1.4-3.3-3.3-3.3h-10.2c-1.8 0-3.3 1.4-3.3 3.3v10.5c0 1.9 1.6 3.3 3.3 3.3zM545.9 321.2c-27.1 0-60.3-34.6-60.3-63.5v-52.6H260.9c-31.3.2-56.7 25.6-56.7 56.9v399.9c0 31.3 25.4 56.7 56.7 56.7h277.6c31.3 0 56.7-25.4 56.7-56.7V321.2h-49.3zm-227.8 51c0-6 4.9-10.9 11-10.9h141.3c6 0 11 4.9 11 10.9v149.9c0 6-4.9 10.9-11 10.9H329.1c-6 0-11-4.9-11-10.9V372.2zm-46 262.4h-18.6V615h18.6v19.6zm106.6-55.9l-17.3 55.8h-19L331 596.9l-11.3 37.6h-19.2l-17.1-55.8h18.8l9.6 38.5 11.9-38.5h15.8l11.3 38.5 9.5-38.5h18.4zm65.3 16.2v39.6h-18v-27.9c0-2.7-.1-5.1-.2-7-.1-1.9-.5-3.5-1.1-4.7s-1.5-2-2.7-2.6c-1.2-.5-2.9-.8-5.1-.8-1.8 0-3.5.3-5.1 1.1-1.6.7-3.2 1.4-4.5 2.2v39.6h-17.9v-55.8h17.9v6.2c3.1-2.4 6-4.3 8.9-5.7 2.8-1.4 5.9-2 9.3-2 3.7 0 6.9.8 9.7 2.4s5 4.1 6.6 7.2c3.5-3 7-5.4 10.4-7.1 3.4-1.7 6.7-2.6 9.9-2.6 6 0 10.6 1.8 13.7 5.5 3.2 3.6 4.7 8.8 4.7 15.6v36.3h-17.9v-27.9c0-2.8-.1-5.1-.2-7-.1-1.9-.5-3.4-1.1-4.6-.6-1.2-1.4-2-2.7-2.6-1.2-.5-3-.8-5.2-.8-1.5 0-3 .3-4.4.8-1.2.6-3 1.5-5 2.6zm109.4-16.2l-21.5 55.8h-20.3l-21.4-55.8h18.9l12.9 38.4 12.8-38.4h18.6zM331.2 469.1h10.2c1.8 0 3.3-1.4 3.3-3.3v-10.6c0-1.8-1.4-3.3-3.3-3.3h-10.2c-1.8 0-3.3 1.4-3.3 3.3v10.6c0 1.9 1.6 3.3 3.3 3.3zM331.2 388.5h10.2c1.8 0 3.3-1.4 3.3-3.3v-10.6c0-1.8-1.4-3.3-3.3-3.3h-10.2c-1.8 0-3.3 1.4-3.3 3.3v10.6c0 1.8 1.6 3.3 3.3 3.3zM331.2 442.3h10.2c1.8 0 3.3-1.5 3.3-3.3v-10.6c0-1.8-1.4-3.3-3.3-3.3h-10.2c-1.8 0-3.3 1.5-3.3 3.3V439c0 1.7 1.6 3.3 3.3 3.3z"/></g></svg>