<svg xmlns="http://www.w3.org/2000/svg" viewBox="0 123.3 595.3 595.3" enable-background="new 0 123.3 595.3 595.3" width="40" height="40"><g><path fill="#006B8D" d="M228 145.2c61.5 0 111.4 50 111.4 111.4S289.4 368 228 368s-111.4-49.9-111.4-111.4S166.5 145.2 228 145.2m0-21.9c-73.5 0-133.3 59.7-133.3 133.4C94.7 330.3 154.3 390 228 390s133.3-59.6 133.3-133.3S301.6 123.3 228 123.3zM272.1 247.2h-67.6v-23.1c0-6.5 2.3-12 6.9-16.7 4.6-4.6 10.1-6.9 16.7-6.9s12 2.3 16.7 6.9c4.5 4.5 6.8 10 6.9 16.4v23.9c0 1.5.6 3 1.8 4.2s2.5 1.8 4.2 1.8h5.8c1.5 0 3-.6 4.2-1.8 1.2-1.2 1.8-2.5 1.8-4.2v-24c-.1-11.2-4-20.8-12.1-28.8-8.1-8.1-17.7-12.1-29-12.1s-21.1 4-29 12.1c-8.1 8.1-12.1 17.7-12.1 29V247h-3c-2.5 0-4.5.8-6.3 2.6-1.7 1.7-2.6 3.8-2.6 6.3v65.7c0 2.5.8 4.5 2.6 6.3 1.7 1.7 3.8 2.6 6.3 2.6h88.4c2.5 0 4.5-.8 6.3-2.6 1.7-1.7 2.6-3.8 2.6-6.3v-65.7c0-2.5-.8-4.5-2.6-6.3-2.3-1.5-4.4-2.4-6.9-2.4zm-37 43.1v17.3c0 3.5-2.9 6.3-6.3 6.3h-1.2c-3.5 0-6.3-2.9-6.3-6.3v-17.3c-3.7-2.3-6.2-6.4-6.2-11.1 0-7.3 5.8-13.1 13.1-13.1s13.1 5.8 13.1 13.1c-.3 4.7-2.6 8.7-6.2 11.1zM551.6 299.1h43.5l-86.8-93.6v46.7c-.1 26 19.2 46.9 43.3 46.9zM545.7 321.5c-27.1 0-60.2-34.5-60.2-63.6v-52.5H377c5.6 16.2 8.7 33.6 8.7 51.6 0 87.1-70.6 157.7-157.7 157.7-8 0-16-.6-23.7-1.8v248.8c0 31.3 25.4 56.7 56.7 56.7h277.5c31.3 0 56.7-25.4 56.7-56.7V321.5h-49.5zM303.3 635.4h-18.6v-19.6h18.7l-.1 19.6zm76.1 0h-20.9l-11.9-16.7-12.3 16.7h-20.5l22-28-21.7-27.9H335l11.8 16.4 11.9-16.4h20.6L357.5 607l21.9 28.4zm64.4-39.7v39.6h-18v-27.9c0-2.7-.1-5-.2-7-.2-1.9-.5-3.4-1.1-4.6s-1.5-2.1-2.7-2.6c-1.2-.6-2.9-.8-5.1-.8-1.8 0-3.4.3-5.1 1.1-1.7.7-3.2 1.4-4.5 2.3v39.6h-18v-55.9h18v6.1c3.1-2.4 6.1-4.3 8.8-5.7 2.9-1.3 6-2 9.3-2 3.7 0 6.9.8 9.8 2.4 2.9 1.7 5 4 6.6 7.2 3.6-3 7.1-5.4 10.4-7.1s6.7-2.6 9.9-2.6c6.1 0 10.6 1.8 13.8 5.5 3.1 3.6 4.7 8.8 4.7 15.6v36.4h-18v-27.9c0-2.8-.1-5-.2-7s-.5-3.4-1.1-4.6-1.4-2.1-2.7-2.6c-1.3-.6-2.9-.8-5.2-.8-1.5 0-2.9.3-4.4.8-1.2.5-3 1.3-5 2.5zm71.2 39.7h-18v-77.5h18v77.5zM354.9 513.6l-72-39.3v-21.7l72-39v25.6l-50.1 24 50.1 25v25.4zm12.3 13.8L415 400h15l-47.8 127.4h-15zm78.9-13.8v-25.4l50.1-24.8-50.1-24.5v-25.2l72 39.1v21.6l-72 39.2z"/></g></svg>