<svg xmlns="http://www.w3.org/2000/svg" viewBox="0 123.3 595.3 595.3" enable-background="new 0 123.3 595.3 595.3" width="40" height="40"><path fill="#006B8D" d="M545.9 321.2c-27.1 0-60.2-34.5-60.2-63.5v-52.6H260.9c-31.3.1-56.7 25.6-56.7 56.8v399.8c0 31.3 25.4 56.8 56.8 56.8h277.5c31.3 0 56.8-25.4 56.8-56.8V321.2h-49.4zm-242.6 314h-18.7v-19.6h18.7v19.6zm76.1 0h-21l-12-16.8-12.2 16.8h-20.5l22.1-28-21.7-27.9h21l11.8 16.4 11.8-16.4h20.6l-21.7 27.6 21.8 28.3zm64.4-39.6v39.7h-18v-27.9c0-2.7-.1-5.1-.2-7-.1-1.9-.5-3.5-1.1-4.7-.6-1.2-1.5-2-2.7-2.6-1.2-.5-2.9-.9-5.1-.9-1.8 0-3.5.3-5.1 1.1-1.6.7-3.2 1.4-4.5 2.3v39.7h-18v-56h18v6.2c3.1-2.4 6-4.3 8.9-5.7 2.8-1.4 5.9-2 9.3-2 3.7 0 7 .9 9.7 2.5 2.8 1.6 5.1 4.1 6.6 7.2 3.6-3 7.1-5.4 10.4-7.1 3.4-1.7 6.7-2.6 9.9-2.6 6 0 10.6 1.8 13.7 5.5 3.2 3.6 4.7 8.9 4.7 15.6v36.4h-18v-27.9c0-2.8-.1-5.1-.2-7-.1-1.9-.5-3.4-1.1-4.7-.6-1.2-1.4-2-2.7-2.6-1.2-.5-3-.9-5.2-.9-1.5 0-3 .3-4.4.8s-2.8 1.3-4.9 2.6zm71.3 39.6h-18v-77.5h18v77.5zM354.9 513.5l-72-39.3v-21.7l72-39V439l-50.2 24.1 50.2 25v25.4zm12.3 13.7L415 399.7h15l-47.8 127.5h-15zm78.9-13.7V488l50.1-24.8-50.1-24.6v-25.2l72 39.1v21.6l-72 39.4zM551.7 298.7h43.6l-86.9-93.6v46.7c0 26 19.3 46.9 43.3 46.9z"/></svg>