<svg xmlns="http://www.w3.org/2000/svg" viewBox="0 123.3 595.3 595.3" enable-background="new 0 123.3 595.3 595.3" width="40" height="40"><path fill="#006B8D" d="M228.2 145.2c61.4 0 111.4 50 111.4 111.4S289.6 368 228.2 368s-111.4-50-111.4-111.4 49.9-111.4 111.4-111.4m0-21.9c-73.5 0-133.3 59.7-133.3 133.4 0 73.6 59.6 133.3 133.3 133.3s133.3-59.6 133.3-133.3-59.7-133.4-133.3-133.4zM272.3 247.2h-67.6v-23.1c0-6.5 2.3-12 6.9-16.7 4.6-4.6 10.1-6.9 16.7-6.9s12 2.3 16.7 6.9c4.5 4.5 6.8 10 6.9 16.4 0 .1 0-.1 0 0 0 1.5.6 3 1.8 4.2s2.5 1.8 4.2 1.8h5.8c1.5 0 3-.6 4.2-1.8s1.8-2.5 1.8-4.2c0-.1 0 .1 0 0-.1-11.2-4-20.8-12.1-28.8-8.1-8.1-17.7-12.1-29-12.1s-21.1 4-29 12.1c-8.1 8.1-12.1 17.7-12.1 29v23.1h-3c-2.5 0-4.5.8-6.3 2.6-1.7 1.7-2.6 3.8-2.6 6.3v65.6c0 2.5.8 4.5 2.6 6.3 1.7 1.7 3.8 2.6 6.3 2.6h88.3c2.5 0 4.5-.8 6.3-2.6 1.7-1.7 2.6-3.8 2.6-6.3V256c0-2.5-.8-4.5-2.6-6.3-2.3-1.6-4.3-2.5-6.8-2.5zm-37.1 43.1v17.3c0 3.5-2.9 6.3-6.3 6.3h-1.2c-3.5 0-6.3-2.9-6.3-6.3v-17.3c-3.7-2.3-6.2-6.4-6.2-11.1 0-7.3 5.8-13.1 13.1-13.1s13.1 5.8 13.1 13.1c-.2 4.6-2.6 8.7-6.2 11.1zM551.8 299h43.5l-86.8-93.5v46.7c-.2 25.9 19.2 46.8 43.3 46.8z"/><g fill="#006B8D"><path d="M443.4 445.6h24.7V458h-24.7zM394.6 433.1l-18.4 2.1-10.4 17.7c-.9 2.2-1.6 3.8-1.9 4.9h-.2c-.5-1.8-1.2-3.3-1.9-4.6l-8.4-15.5-14.5 1.6 15.6 24.7-17 24.7 14.1 1.6 10.1-16.5c.8-1.7 1.2-3 1.4-3.8h.2c.5 1.8.9 3 1.2 3.7l11.3 19.4 19.7 2.3L373 464l21.6-30.9zM443.4 470.4h24.7v12.4h-24.7zM443.4 495h24.7v12.4h-24.7zM443.4 421h24.7v12.4h-24.7zM545.8 321.5c-27.1 0-60.2-34.5-60.2-63.5v-52.5H377.1c5.6 16.2 8.7 33.6 8.7 51.6 0 87.1-70.6 157.7-157.7 157.7-8 0-16-.6-23.7-1.8v248.8c0 31.3 25.4 56.7 56.7 56.7h277.4c31.3 0 56.7-25.4 56.7-56.7V321.5h-49.4zm-127 185.9h18.5V495h-18.5v-12.3h18.5v-12.4h-18.5v-12.4h18.5v-12.4h-18.5v-12.2h18.7v-12.4h-18.7v-18.4h56.5c2.9 0 5.1 2.4 5.1 5.4v112.7c0 3-2.3 5.4-5.1 5.4h-56.5v-18.6zM320 401.7l92.5-17.8v160.4L320 526.6V401.7zm7 234h-18.6v-19.6H327v19.6zm55.3 0l-12-16.8-12.3 16.8h-20.5l22.1-28-21.7-27.9h20.9l11.8 16.4 11.8-16.4H403l-21.8 27.6 22 28.4h-20.9v-.1zm71.5-3.7c-5.2 3.5-12.3 5.3-21.3 5.3-5 0-9.5-.5-13.6-1.4s-7.3-2-9.8-3.1V618h1.6c.9.6 1.9 1.3 3.1 2.1 1.2.7 2.8 1.6 5 2.4 1.9.8 4 1.4 6.3 2 2.4.5 4.9.8 7.6.8 3.5 0 6.1-.4 7.8-1.2 1.7-.8 2.5-1.9 2.5-3.5 0-1.4-.5-2.3-1.5-3-1-.6-2.9-1.2-5.7-1.8-1.3-.3-3.1-.6-5.4-1-2.3-.3-4.3-.8-6.2-1.3-5.1-1.3-8.9-3.4-11.3-6.2-2.5-2.8-3.7-6.3-3.7-10.5 0-5.4 2.5-9.9 7.6-13.4 5.1-3.6 12.1-5.4 20.9-5.4 4.2 0 8.2.4 12 1.3s6.8 1.8 9 2.7v14.2h-1.5c-2.7-1.8-5.7-3.3-9.1-4.5-3.4-1.1-6.9-1.7-10.3-1.7-2.9 0-5.3.4-7.3 1.2-2 .8-3 1.9-3 3.4 0 1.3.4 2.3 1.3 3 .9.7 3 1.4 6.3 2.1 1.8.4 3.8.7 5.9 1.1 2.1.3 4.2.8 6.4 1.3 4.7 1.2 8.2 3.2 10.5 5.8 2.3 2.6 3.4 5.9 3.4 9.9.3 6-2.3 10.6-7.5 14.2zm37.7 3.7h-18v-77.5h18v77.5z"/></g></svg>