<svg xmlns="http://www.w3.org/2000/svg" viewBox="0 123.3 595.3 595.3" enable-background="new 0 123.3 595.3 595.3" width="40" height="40"><path fill="#006B8D" d="M227.8 145.2c61.5 0 111.5 50 111.5 111.5s-50 111.5-111.5 111.5-111.5-50-111.5-111.5 50-111.5 111.5-111.5m0-21.9c-73.6 0-133.4 59.8-133.4 133.5s59.7 133.4 133.4 133.4 133.4-59.7 133.4-133.4-59.7-133.5-133.4-133.5zM272 247.3h-67.7v-23.1c0-6.5 2.3-12 6.9-16.7 4.6-4.6 10.1-6.9 16.7-6.9s12 2.3 16.7 6.9c4.5 4.5 6.8 10 6.9 16.4v23.9c0 1.5.6 3 1.8 4.2 1.2 1.2 2.5 1.8 4.2 1.8h5.8c1.5 0 3-.6 4.2-1.8 1.2-1.2 1.8-2.5 1.8-4.2v-24c-.1-11.2-4-20.8-12.1-28.8-8.1-8.1-17.7-12.1-29-12.1s-21.1 4-29 12.1c-8.1 8.1-12.1 17.7-12.1 29v23.1h-3c-2.5 0-4.5.8-6.3 2.6-1.7 1.7-2.6 3.8-2.6 6.3v65.7c0 2.5.8 4.5 2.6 6.3 1.7 1.7 3.8 2.6 6.3 2.6h88.4c2.5 0 4.5-.8 6.3-2.6 1.7-1.7 2.6-3.8 2.6-6.3V256c0-2.5-.8-4.5-2.6-6.3-2.3-1.5-4.3-2.4-6.8-2.4zm-37.2 43.2v17.3c0 3.5-2.9 6.3-6.3 6.3h-1.2c-3.5 0-6.3-2.9-6.3-6.3v-17.3c-3.7-2.3-6.2-6.4-6.2-11.1 0-7.3 5.8-13.1 13.1-13.1s13.1 5.8 13.1 13.1c-.2 4.6-2.6 8.7-6.2 11.1zM551.7 298.7h43.5l-86.9-93.6v46.7c0 25.9 19.4 46.9 43.4 46.9z"/><g fill="#006B8D"><path d="M443.3 445.4H468v12.4h-24.7zM394.5 432.9l-18.4 2.1-10.4 17.7c-.9 2.2-1.6 3.8-1.9 4.9h-.2c-.5-1.8-1.2-3.3-1.9-4.6l-8.4-15.5-14.5 1.6 15.6 24.7-17 24.7 14.1 1.6 10.1-16.5c.8-1.7 1.2-3 1.4-3.8h.2c.5 1.8.9 3 1.2 3.7l11.3 19.4 19.7 2.3-22.7-31.5 21.8-30.8zM443.3 470H468v12.4h-24.7zM443.3 494.8H468v12.4h-24.7zM443.3 420.7H468v12.4h-24.7zM545.8 321.2c-27.1 0-60.3-34.5-60.3-63.6V205H377c5.6 16.2 8.7 33.6 8.7 51.6 0 87.2-70.7 157.9-157.9 157.9-8 0-16-.6-23.7-1.8v249c0 31.3 25.4 56.8 56.8 56.8h277.7c31.3 0 56.8-25.4 56.8-56.8V321.2h-49.6zm-127.1 186h18.5v-12.4h-18.5v-12.3h18.5V470h-18.5v-12.4h18.5v-12.4h-18.5v-12.1h18.7v-12.5h-18.7v-18.5h56.6c2.9 0 5.1 2.4 5.1 5.4v112.8c0 3-2.3 5.4-5.1 5.4h-56.6v-18.5zm-98.8-105.7l92.6-17.8v160.6l-92.6-17.8v-125zm7 234.1h-18.6V616h18.6v19.6zm55.2 0l-12-16.8-12.3 16.8h-20.5l22.1-28-21.7-28h21l11.8 16.4 11.8-16.4h20.6l-21.8 27.6 22 28.4h-21zm71.6-3.8c-5.2 3.5-12.3 5.3-21.3 5.3-5 0-9.5-.5-13.6-1.4s-7.3-2-9.8-3.1v-14.8h1.6c.9.6 1.9 1.3 3.1 2.1 1.2.7 2.8 1.6 5 2.4 1.9.8 4 1.4 6.3 2 2.4.5 4.9.8 7.6.8 3.5 0 6.1-.4 7.8-1.2 1.7-.8 2.5-1.9 2.5-3.5 0-1.4-.5-2.3-1.5-3-1-.6-2.9-1.2-5.7-1.8-1.3-.3-3.1-.6-5.4-1-2.3-.3-4.3-.8-6.2-1.3-5.1-1.3-8.9-3.4-11.3-6.2-2.5-2.8-3.7-6.3-3.7-10.5 0-5.4 2.5-9.9 7.6-13.4 5.1-3.6 12.1-5.4 20.9-5.4 4.2 0 8.2.4 12 1.3 3.8.9 6.8 1.8 9 2.7V596h-1.5c-2.7-1.8-5.7-3.3-9.1-4.5-3.4-1.1-6.9-1.7-10.3-1.7-2.9 0-5.3.4-7.3 1.2-2 .8-3 1.9-3 3.4 0 1.3.4 2.3 1.3 3 .9.7 3 1.4 6.3 2.1 1.8.4 3.8.7 5.9 1.1 2.1.3 4.2.8 6.4 1.3 4.7 1.2 8.2 3.2 10.5 5.8s3.4 5.9 3.4 9.9c.4 6-2.3 10.7-7.5 14.2zm37.8 3.8h-18V558h18v77.6z"/></g></svg>