<svg xmlns="http://www.w3.org/2000/svg" viewBox="0 123.3 595.3 595.3" enable-background="new 0 123.3 595.3 595.3" width="40" height="40"><g fill="#006B8D"><path d="M351.5 490.2l10.1-16.5c.8-1.7 1.3-3 1.4-3.8h.1c.5 1.8.8 3 1.3 3.7l11.3 19.4 19.7 2.3-22.4-31.6 21.8-30.9-18.5 2.1-10.5 17.7c-.9 2.2-1.6 3.8-2 4.9h-.1c-.6-1.8-1.2-3.3-1.8-4.6l-8.4-15.5-14.6 1.6 15.6 24.7-17 24.7 14 1.8zM545.9 321.2c-27.1 0-60.2-34.5-60.2-63.6v-52.5H261c-31.3.1-56.8 25.5-56.8 56.8v399.8c0 31.3 25.4 56.8 56.8 56.8h277.5c31.3 0 56.8-25.4 56.8-56.8V321.2h-49.4zM412.8 544.1l-92.6-17.8V401.4l92.6-17.8v160.5zm6.2-18.5v-18.5h18.5v-12.4H419v-12.3h18.5V470H419v-12.4h18.5v-12.4H419V433h18.7v-12.5H419V402h56.6c2.9 0 5.2 2.4 5.2 5.4v112.8c0 3-2.3 5.4-5.2 5.4H419zm-91.8 109.9h-18.7v-19.6h18.7v19.6zm76.2 0h-20.9l-11.9-16.8-12.3 16.8h-20.5l22.1-28.1-21.8-28H359l11.8 16.5 11.8-16.5h20.6L381.4 607l22 28.5zm58.4-17.7c0 5.8-2.6 10.5-7.8 14-5.2 3.5-12.3 5.3-21.3 5.3-5 0-9.5-.5-13.6-1.4-4-.9-7.4-2-9.8-3.1v-14.8h1.6c.9.6 1.9 1.3 3.1 2.1 1.2.8 2.8 1.6 5 2.4 1.8.8 4 1.4 6.4 2 2.3.6 4.9.8 7.6.8 3.5 0 6.2-.4 7.8-1.2s2.5-1.9 2.5-3.5c0-1.3-.5-2.3-1.5-3s-2.9-1.2-5.7-1.8c-1.3-.3-3.1-.6-5.4-1-2.3-.4-4.4-.8-6.2-1.3-5.1-1.3-8.8-3.4-11.3-6.2-2.5-2.8-3.7-6.3-3.7-10.5 0-5.4 2.5-9.9 7.6-13.4 5.1-3.6 12.1-5.4 20.9-5.4 4.2 0 8.2.4 12 1.3 3.8.8 6.9 1.8 9 2.7v14.1h-1.6c-2.7-1.8-5.7-3.3-9.1-4.5-3.4-1.1-6.9-1.7-10.3-1.7-2.9 0-5.3.4-7.3 1.2-2 .8-3 1.9-3 3.4 0 1.3.4 2.3 1.3 3s3 1.4 6.4 2.1c1.8.4 3.8.7 5.9 1.1 2.1.4 4.2.8 6.4 1.3 4.7 1.2 8.2 3.2 10.5 5.8 2.5 2.9 3.6 6.2 3.6 10.2zm30 17.7h-18v-77.6h18v77.6zM443.6 494.7h24.7v12.4h-24.7zM443.6 470h24.7v12.4h-24.7zM443.6 445.4h24.7v12.4h-24.7zM443.6 420.6h24.7V433h-24.7zM551.7 298.7h43.5l-86.9-93.6v46.7c.1 26 19.5 46.9 43.4 46.9z"/></g></svg>