<svg xmlns="http://www.w3.org/2000/svg" viewBox="0 123.3 595.3 595.3" enable-background="new 0 123.3 595.3 595.3" width="40" height="40"><path fill="#006B8D" d="M227.7 145.2c61.5 0 111.5 50.1 111.5 111.5s-50.1 111.5-111.5 111.5-111.5-49.9-111.5-111.4 50-111.6 111.5-111.6m0-21.9c-73.6 0-133.4 59.7-133.4 133.5 0 73.7 59.7 133.4 133.4 133.4s133.5-59.7 133.5-133.4-59.8-133.5-133.5-133.5zM271.9 247.3h-67.6v-23.1c0-6.5 2.3-12 6.9-16.7 4.6-4.6 10.1-6.9 16.7-6.9s12 2.3 16.7 6.9c4.5 4.5 6.8 10 6.9 16.4v23.9c0 1.5.6 3 1.8 4.2 1.2 1.2 2.5 1.8 4.2 1.8h5.8c1.5 0 3-.6 4.2-1.8 1.2-1.2 1.8-2.5 1.8-4.2v-24.1c-.1-11.2-4-20.8-12.1-28.9-8.1-8.1-17.8-12.1-29-12.1s-21.1 4-29 12.1c-8.1 8.1-12.1 17.8-12.1 29V247h-3c-2.5 0-4.5.8-6.3 2.6-1.7 1.7-2.6 3.8-2.6 6.3v65.7c0 2.5.8 4.5 2.6 6.3 1.7 1.7 3.8 2.6 6.3 2.6h88.4c2.5 0 4.5-.8 6.3-2.6 1.7-1.7 2.6-3.8 2.6-6.3v-65.7c0-2.5-.8-4.5-2.6-6.3-2.4-1.3-4.4-2.3-6.9-2.3zm-37.2 43.2v17.3c0 3.5-2.9 6.3-6.3 6.3h-1.2c-3.5 0-6.3-2.9-6.3-6.3v-17.3c-3.7-2.3-6.2-6.4-6.2-11.1 0-7.3 5.8-13.1 13.1-13.1s13.1 5.8 13.1 13.1c-.2 4.6-2.5 8.6-6.2 11.1zM551.6 298.7h43.6l-86.9-93.6v46.8c-.2 25.9 19.2 46.8 43.3 46.8z"/><g fill="#006B8D"><path d="M443.4 494.7h24.7v12.4h-24.7zM394.6 432.8l-18.4 2.1-10.4 17.8c-.9 2.2-1.6 3.8-2 4.9h-.2c-.6-1.8-1.2-3.3-1.9-4.6l-8.4-15.5-14.6 1.6 15.6 24.8-17.1 24.7 14.1 1.7 10.1-16.6c.8-1.7 1.3-2.9 1.4-3.8h.2c.5 1.8.8 3 1.3 3.8l11.3 19.4 19.7 2.3-22.4-31.6 21.7-31zM443.4 470h24.7v12.4h-24.7zM443.4 445.4h24.7v12.4h-24.7zM443.4 420.7h24.7v12.4h-24.7zM545.6 321.2c-27.1 0-60.2-34.5-60.2-63.6V205H376.8c5.6 16.2 8.8 33.7 8.8 51.7 0 87.2-70.7 157.8-157.8 157.8-8 0-16-.6-23.7-1.8v249c0 31.3 25.4 56.8 56.8 56.8h277.7c31.3 0 56.8-25.4 56.8-56.8V321.2h-49.8zM418.8 507.1h18.5v-12.4h-18.5v-12.3h18.5V470h-18.5v-12.4h18.5v-12.4h-18.5V433h18.7v-12.5h-18.7v-18.4h56.5c2.9 0 5.1 2.4 5.1 5.4v112.8c0 2.9-2.4 5.4-5.1 5.4h-56.5v-18.6zM320 401.4l92.6-17.8v160.5L320 526.2V401.4zm-27.2 234h-18.7v-19.6h18.7v19.6zm55.2 0l-11.9-16.7-12.3 16.7h-20.5l22.1-28-21.8-28h21l11.8 16.4 11.9-16.4h20.6L347 606.9l22 28.4h-21zm71.7-3.8c-5.2 3.5-12.3 5.3-21.3 5.3-5 0-9.5-.5-13.5-1.4-4-.9-7.3-1.9-9.8-3.1v-14.8h1.7c.9.7 1.9 1.3 3.1 2.1 1.2.8 2.9 1.5 5 2.4 1.9.8 4 1.4 6.3 1.9 2.4.6 4.9.8 7.6.8 3.5 0 6.1-.4 7.8-1.2 1.7-.8 2.5-1.9 2.5-3.4 0-1.3-.5-2.4-1.5-2.9-1-.6-2.9-1.2-5.7-1.8-1.3-.3-3.1-.6-5.4-1-2.3-.3-4.4-.8-6.2-1.3-5-1.3-8.8-3.4-11.4-6.2-2.4-2.8-3.7-6.3-3.7-10.5 0-5.4 2.5-9.8 7.7-13.5s12.1-5.4 21-5.4c4.2 0 8.2.4 12 1.3 3.8.8 6.8 1.8 9 2.7v14.3h-1.5c-2.7-1.9-5.7-3.3-9.1-4.5-3.4-1.2-6.9-1.7-10.3-1.7-2.9 0-5.3.4-7.3 1.2-2 .8-2.9 1.9-2.9 3.4 0 1.3.4 2.4 1.3 3s3 1.4 6.3 2.1c1.9.3 3.8.8 5.9 1.1 2.1.3 4.2.8 6.4 1.3 4.7 1.3 8.2 3.2 10.5 5.8 2.3 2.6 3.4 6 3.4 9.9-.1 5.8-2.7 10.6-7.9 14.1zm37.8 3.8h-18v-77.7h18v77.7zm54.5 0l-12-16.8-12.3 16.7h-20.5l22.1-28-21.8-28h21l11.8 16.4 11.9-16.4h20.5l-21.8 27.6 22 28.4H512z"/></g></svg>