<svg xmlns="http://www.w3.org/2000/svg" viewBox="0 123.3 595.3 595.3" enable-background="new 0 123.3 595.3 595.3" width="40" height="40"><path fill="#006B8D" d="M228.4 145.2c61.4 0 111.5 50 111.5 111.5s-50 111.5-111.5 111.5S117 318.1 117 256.7s49.9-111.5 111.4-111.5m0-21.9C154.8 123.3 95 182.9 95 256.7 95 330.3 154.7 390 228.4 390s133.4-59.5 133.4-133.3c-.1-73.7-59.8-133.4-133.4-133.4zM272.5 247.3h-67.6v-23.1c0-6.5 2.3-12 6.9-16.7 4.6-4.6 10.1-6.9 16.7-6.9s12 2.3 16.7 6.9c4.5 4.5 6.8 10 6.9 16.4v23.9c0 1.5.6 3 1.8 4.2 1.2 1.2 2.5 1.8 4.2 1.8h5.8c1.5 0 3-.6 4.2-1.8 1.2-1.2 1.8-2.5 1.8-4.2v-24c-.1-11.2-4-20.8-12.1-28.8-8.1-8.1-17.7-12.1-29-12.1s-21.1 4-29 12.1c-8.1 8.1-12.1 17.7-12.1 29v23.1h-3c-2.5 0-4.5.8-6.3 2.6-1.7 1.7-2.6 3.8-2.6 6.3v65.6c0 2.5.8 4.5 2.6 6.3 1.7 1.7 3.8 2.6 6.3 2.6h88c2.5 0 4.5-.8 6.3-2.6 1.7-1.7 2.6-3.8 2.6-6.3V256c0-2.5-.8-4.5-2.6-6.3-2-1.5-4-2.4-6.5-2.4zm-37.2 43.1v17.3c0 3.5-2.9 6.3-6.3 6.3h-1.2c-3.5 0-6.3-2.9-6.3-6.3v-17.3c-3.7-2.3-6.2-6.4-6.2-11.1 0-7.3 5.8-13.1 13.1-13.1s13.1 5.8 13.1 13.1c-.1 4.6-2.5 8.7-6.2 11.1zM551.7 298.9h43.5l-86.8-93.3v46.7c-.1 25.8 19.3 46.6 43.3 46.6z"/><g fill="#006B8D"><path d="M467.3 591.7c-1.7 0-3.5.2-5.2.7-1.8.5-3.5 1.3-5.1 2.3v28.1c1.2.5 2.5.7 3.8 1 1.3.1 2.7.2 4 .2 4.8 0 8.2-1.4 10.6-4.2 2.3-2.7 3.5-6.9 3.5-12.5 0-5.5-1-9.4-2.7-11.8-2-2.6-4.9-3.8-8.9-3.8zM545.9 321.4c-27.1 0-60.2-34.5-60.2-63.5v-52.5h-77.4v29.3h-16.9v-29.3h-14.2c5.6 16.2 8.7 33.6 8.7 51.6 0 87.1-70.6 157.8-157.8 157.8-8 0-16-.6-23.7-1.8v248.9c0 31.3 25.4 56.7 56.7 56.7h277.5c31.3 0 56.7-25.4 56.7-56.7V321.4h-49.4zm-154.6-55.3h16.9v31.3h-16.9v-31.3zm-.2 62.6H408V360h-16.9v-31.3zm0 62.6H408v31.3h-16.9v-31.3zm-65.4 244.3H307v-19.5h18.6v19.5zm65.8 0H339v-11.5l29.4-31.3h-28.2v-13.1H391V591l-29 31.2h29.5v13.4zm30.6 0h-18v-56h18v56zm.5-63.9h-18.9v-13.6h18.9v13.6zm-23-43c-17.5 0-31.7-14.2-31.7-31.7 0-1.3.1-2.6.2-3.9 2.6-24.8 28.9-53.3 28.9-53.3.5-.5 1-.8 1.4-1.1l.8-.2.8.2c.5.2 1 .6 1.4 1.1 0 0 26.7 28.6 29.4 53.2.1 1.3.2 2.6.2 3.9.3 17.6-13.9 31.8-31.4 31.8zm95.6 90.7c-1.4 3.8-3.2 6.9-5.6 9.4-2.4 2.6-5.1 4.5-8.1 5.8-3 1.3-6.3 2-9.6 2-3.2 0-5.8-.4-8.1-1.1s-4.5-1.7-6.8-2.9V656h-18v-76.4h18v5.8c2.7-2.1 5.6-3.9 8.5-5.4 2.9-1.3 6.2-2 9.9-2 6.9 0 12.4 2.5 16.2 7.6 3.8 5.1 5.8 12.1 5.8 21.1-.1 4.7-.8 8.9-2.2 12.7zM399.6 476.7c-11.2 0-20.4 9.2-20.4 20.4s9.2 20.4 20.4 20.4 20.4-9.2 20.4-20.4c-.1-11.3-9.2-20.4-20.4-20.4z"/></g></svg>