<svg xmlns="http://www.w3.org/2000/svg" viewBox="0 123.3 595.3 595.3" enable-background="new 0 123.3 595.3 595.3" width="40" height="40"><path fill="#006B8D" d="M551.7 298.7h43.5l-86.9-93.4v46.8c0 25.8 19.4 46.6 43.4 46.6z"/><g fill="#006B8D"><path d="M467.3 591.6c-1.7 0-3.5.2-5.2.7-1.8.5-3.5 1.3-5.1 2.3v28.1c1.2.5 2.5.7 3.8 1 1.3.1 2.7.2 4 .2 4.8 0 8.2-1.4 10.6-4.2 2.3-2.7 3.5-6.9 3.5-12.5 0-5.5-1-9.4-2.7-11.8-2-2.7-4.9-3.8-8.9-3.8zM545.8 321.2c-27.1 0-60.2-34.5-60.2-63.6v-52.5h-77.4v29.3h-16.9v-29.3H260.9c-31.3.1-56.7 25.6-56.7 56.8v399.9c0 31.3 25.4 56.7 56.7 56.7h277.6c31.3 0 56.7-25.4 56.7-56.7V321.2h-49.4zm-154.6-55.3h16.9v31.3h-16.9v-31.3zm-.2 62.7h16.9v31.3H391v-31.3zm0 62.6h16.9v31.3H391v-31.3zm-65.4 244.4H307v-19.5h18.6v19.5zm65.8 0h-52.5v-11.5l29.4-31.3H340v-13.1h50.9V591L362 622.2h29.4v13.4zm30.6 0h-18v-56h18v56zm.5-63.9h-18.9v-13.6h18.9v13.6zm-23-43.1c-17.5 0-31.7-14.2-31.7-31.7 0-1.3.1-2.6.2-3.9 2.6-24.8 28.9-53.3 28.9-53.3.5-.5 1-.8 1.4-1.1l.8-.2.8.2c.5.2 1 .6 1.4 1.1 0 0 26.7 28.6 29.4 53.3.1 1.3.2 2.6.2 3.9.4 17.5-13.9 31.7-31.4 31.7zm95.7 90.7c-1.4 3.8-3.2 6.9-5.6 9.4-2.4 2.6-5.1 4.5-8.1 5.8-3 1.3-6.3 2-9.6 2-3.2 0-5.8-.4-8.1-1.1-2.3-.7-4.5-1.7-6.8-2.9V656h-18v-76.4h18v5.8c2.7-2.1 5.6-3.9 8.5-5.4 2.9-1.3 6.2-2 9.9-2 6.9 0 12.4 2.5 16.2 7.6 3.8 5.1 5.8 12.1 5.8 21.1-.1 4.6-.8 8.8-2.2 12.6zM399.5 476.5c-11.2 0-20.4 9.2-20.4 20.4s9.2 20.4 20.4 20.4 20.4-9.2 20.4-20.4c-.1-11.2-9.2-20.4-20.4-20.4z"/></g></svg>