<svg xmlns="http://www.w3.org/2000/svg" viewBox="0 123.3 595.3 595.3" enable-background="new 0 123.3 595.3 595.3" width="40" height="40"><path fill="#006B8D" d="M228.5 145.2c61.4 0 111.5 50 111.5 111.5s-50 111.5-111.5 111.5S117 318.1 117 256.6s49.9-111.4 111.5-111.4m0-21.9c-73.6 0-133.3 59.7-133.3 133.3 0 73.6 59.7 133.3 133.3 133.3s133.3-59.5 133.3-133.3c-.1-73.6-59.7-133.3-133.3-133.3zM272.6 247.2H205v-23.1c0-6.5 2.3-12 6.9-16.7 4.6-4.6 10.1-6.9 16.7-6.9s12 2.3 16.7 6.9c4.5 4.5 6.8 10 6.9 16.4v23.9c0 1.5.6 3 1.8 4.2 1.2 1.2 2.5 1.8 4.2 1.8h5.8c1.5 0 3-.6 4.2-1.8 1.2-1.2 1.8-2.5 1.8-4.2v-24c-.1-11.2-4-20.8-12.1-28.8-8.1-8.1-17.7-12.1-29-12.1s-21.1 4-29 12.1c-8.1 8.1-12.1 17.7-12.1 29V247h-3c-2.5 0-4.5.8-6.3 2.6-1.7 1.7-2.6 3.8-2.6 6.3v65.6c0 2.5.8 4.5 2.6 6.3 1.7 1.7 3.8 2.6 6.3 2.6h88.1c2.5 0 4.5-.8 6.3-2.6 1.7-1.7 2.6-3.8 2.6-6.3v-65.6c0-2.5-.8-4.5-2.6-6.3-2.2-1.4-4.1-2.4-6.6-2.4zm-37.3 43.1v17.3c0 3.5-2.9 6.3-6.3 6.3h-1.2c-3.5 0-6.3-2.9-6.3-6.3v-17.3c-3.7-2.3-6.2-6.4-6.2-11.1 0-7.3 5.8-13.1 13.1-13.1s13.1 5.8 13.1 13.1c0 4.7-2.5 8.8-6.2 11.1zM551.7 298.9h43.5l-86.8-93.4v46.7c0 25.9 19.4 46.7 43.3 46.7z"/><g fill="#006B8D"><path d="M545.9 321.3c-27.1 0-60.2-34.5-60.2-63.5v-52.5h-77.5v29.3h-16.9v-29.3h-14.2c5.6 16.2 8.7 33.6 8.7 51.6 0 87.1-70.7 157.8-157.8 157.8-8 0-16-.6-23.7-1.8v248.9c0 31.3 25.4 56.7 56.7 56.7h277.5c31.3 0 56.7-25.4 56.7-56.7V321.3h-49.3zm-154.6-55.2h16.9v31.3h-16.9v-31.3zm-.2 62.5H408V360h-16.9v-31.4zm0 62.7H408v31.3h-16.9v-31.3zm8.5 137.4c-17.5 0-31.7-14.2-31.7-31.7 0-1.3.1-2.6.2-3.9 2.6-24.9 28.9-53.4 28.9-53.4.5-.5 1-.8 1.4-1.1l.8-.2.8.2c.5.2 1 .6 1.4 1.1 0 0 26.7 28.7 29.4 53.3.1 1.3.2 2.6.2 3.9.4 17.6-13.8 31.8-31.4 31.8zM291.9 635.5h-18.6V616h18.6v19.5zm65.6 0h-52.3V624l29.3-31.3h-28.1v-13H357V591l-28.9 31.2h29.4v13.3zm30.9-63.7h-18.9v-13.5h18.9v13.5zm-.4 63.7h-17.9v-55.8H388v55.8zm74.9-28.7c0 4.6-.7 8.8-2.1 12.6-1.4 3.8-3.3 6.9-5.5 9.3-2.4 2.6-5 4.5-8.1 5.9-3 1.3-6.2 2-9.7 2-3.2 0-5.9-.3-8.1-1-2.2-.7-4.5-1.6-6.8-2.9V656h-17.9v-76.2h17.9v5.8c2.8-2.2 5.5-3.9 8.4-5.3 2.9-1.3 6.1-2 9.9-2 7 0 12.4 2.5 16.2 7.6 3.9 5.1 5.8 12 5.8 20.9zm-18.4.5c0-5.4-.9-9.3-2.8-11.8-1.8-2.4-4.8-3.7-8.7-3.7-1.7 0-3.4.3-5.2.8-1.8.5-3.4 1.3-5.1 2.2v28c1.2.5 2.4.8 3.8.9 1.3.2 2.7.2 4 .2 4.7 0 8.2-1.3 10.6-4.1 2.3-2.9 3.4-7 3.4-12.5zm89.7 28.2h-20.8l-11.9-16.7-12.3 16.7h-20.4l22-27.9-21.7-27.8h20.8l11.7 16.4 11.8-16.4h20.5l-21.7 27.5 22 28.2zM399.6 476.7c-11.2 0-20.4 9.2-20.4 20.4s9.2 20.4 20.4 20.4 20.4-9.2 20.4-20.4c-.1-11.3-9.1-20.4-20.4-20.4z"/></g></svg>