<svg xmlns="http://www.w3.org/2000/svg" viewBox="0 123.3 595.3 595.3" enable-background="new 0 123.3 595.3 595.3" width="40" height="40"><path fill="#006B8D" d="M551.6 298.7h43.5l-86.8-93.4V252c0 25.8 19.4 46.7 43.3 46.7z"/><g fill="#006B8D"><path d="M545.8 321.2c-27.1 0-60.2-34.5-60.2-63.6v-52.5h-77.5v29.3h-16.9v-29.3H260.9c-31.3.1-56.7 25.5-56.7 56.9v399.8c0 31.3 25.4 56.7 56.7 56.7h277.6c31.3 0 56.7-25.4 56.7-56.7V321.2h-49.4zm-154.6-55.4h16.9v31.3h-16.9v-31.3zm-.2 62.7h16.9v31.3H391v-31.3zm0 62.6h16.9v31.3H391v-31.3zm8.5 137.4c-17.5 0-31.7-14.2-31.7-31.7 0-1.3.1-2.6.2-3.9 2.6-24.8 28.9-53.3 28.9-53.3.5-.5 1-.8 1.4-1.1l.8-.2.8.2c.5.2 1 .6 1.4 1.1 0 0 26.7 28.6 29.4 53.3.1 1.3.2 2.6.2 3.9.3 17.5-13.9 31.7-31.4 31.7zM291.7 635.4h-18.6v-19.5h18.6v19.5zm65.6 0h-52.4v-11.5l29.4-31.3h-28.2v-13.1h50.6v11.3L327.8 622h29.4l.1 13.4zm31-63.7h-18.9v-13.5h18.9v13.5zm-.4 63.7H370v-55.8h17.9v55.8zm75-28.7c0 4.6-.7 8.8-2.1 12.5-1.4 3.7-3.2 6.9-5.5 9.3-2.4 2.6-5.1 4.5-8.1 5.8-3 1.3-6.2 2-9.7 2-3.2 0-5.8-.3-8.1-1s-4.5-1.6-6.8-2.8v23.2h-17.9v-76.2h17.9v5.8c2.8-2.2 5.5-3.9 8.4-5.3 2.9-1.4 6.2-2 9.9-2 7 0 12.3 2.6 16.2 7.6 3.9 5.2 5.8 12.3 5.8 21.1zm-18.4.4c0-5.5-.9-9.3-2.8-11.8-1.8-2.4-4.8-3.7-8.8-3.7-1.7 0-3.4.3-5.2.8-1.8.5-3.5 1.2-5.1 2.2v28c1.2.5 2.4.8 3.8.9s2.7.2 4 .2c4.7 0 8.2-1.4 10.6-4.1 2.3-2.7 3.5-6.9 3.5-12.5zm89.6 28.3h-20.9l-11.9-16.7-12.2 16.7h-20.4l22-27.9-21.7-27.8h20.9l11.7 16.4 11.8-16.4h20.5l-21.7 27.5 21.9 28.2zM399.5 476.4c-11.2 0-20.4 9.2-20.4 20.4s9.2 20.4 20.4 20.4 20.4-9.2 20.4-20.4-9.2-20.4-20.4-20.4z"/></g></svg>